<svg xmlns="http://www.w3.org/2000/svg" xmlns:xlink="http://www.w3.org/1999/xlink" width="157" height="87" viewBox="0 0 157 87"><defs><filter id="a" x="0" y="0" width="157" height="87" filterUnits="userSpaceOnUse"><feOffset dy="2" input="SourceAlpha"/><feGaussianBlur stdDeviation="1.5" result="b"/><feFlood flood-opacity="0.161"/><feComposite operator="in" in2="b"/><feComposite in="SourceGraphic"/></filter></defs><g transform="translate(-180.502 -441.504)"><g transform="translate(185.002 444.004)"><g transform="matrix(1, 0, 0, 1, -4.5, -2.5)" filter="url(#a)"><rect width="148" height="78" rx="10" transform="translate(4.5 2.5)" fill="#f8e6ff"/></g><path d="M7.377-2.777A3.08,3.08,0,0,1,6.369-.647,3.436,3.436,0,0,1,4.031.117a3.327,3.327,0,0,1-1.8-.483,3.173,3.173,0,0,1-1.2-1.374A4.958,4.958,0,0,1,.6-3.809v-.8a4.994,4.994,0,0,1,.428-2.127A3.224,3.224,0,0,1,2.253-8.15a3.424,3.424,0,0,1,1.849-.5,3.3,3.3,0,0,1,2.273.765,3.2,3.2,0,0,1,1,2.165H5.9a2.107,2.107,0,0,0-.536-1.327A1.772,1.772,0,0,0,4.1-7.453a1.731,1.731,0,0,0-1.485.707,3.532,3.532,0,0,0-.53,2.073v.757a3.747,3.747,0,0,0,.5,2.111,1.643,1.643,0,0,0,1.45.727,1.917,1.917,0,0,0,1.313-.393A2.047,2.047,0,0,0,5.9-2.777Zm2.59-2.871a2.229,2.229,0,0,1,1.764-.809q2.027,0,2.057,2.314V0H12.363V-4.09a1.252,1.252,0,0,0-.284-.929,1.162,1.162,0,0,0-.835-.272,1.372,1.372,0,0,0-1.277.762V0H8.543V-9H9.967ZM19.014,0a2.2,2.2,0,0,1-.164-.592,2.216,2.216,0,0,1-1.664.709,2.237,2.237,0,0,1-1.559-.545,1.743,1.743,0,0,1-.6-1.348,1.8,1.8,0,0,1,.753-1.556,3.649,3.649,0,0,1,2.153-.542H18.8v-.416a1.11,1.11,0,0,0-.275-.788,1.092,1.092,0,0,0-.838-.3,1.254,1.254,0,0,0-.8.243.753.753,0,0,0-.311.618H15.158a1.58,1.58,0,0,1,.346-.976,2.3,2.3,0,0,1,.94-.712,3.3,3.3,0,0,1,1.327-.258,2.66,2.66,0,0,1,1.775.56,2,2,0,0,1,.68,1.573v2.859A3.241,3.241,0,0,0,20.467-.1V0ZM17.449-1.025a1.62,1.62,0,0,0,.794-.205,1.37,1.37,0,0,0,.56-.551v-1.2h-.768a2.1,2.1,0,0,0-1.189.275.892.892,0,0,0-.4.779.832.832,0,0,0,.272.653A1.055,1.055,0,0,0,17.449-1.025ZM23.232,0H21.809V-9h1.424ZM26.3,0H24.873V-9H26.3Zm4.342.117a2.946,2.946,0,0,1-2.194-.853A3.093,3.093,0,0,1,27.6-3.006v-.176a3.8,3.8,0,0,1,.366-1.7A2.787,2.787,0,0,1,29-6.041a2.719,2.719,0,0,1,1.477-.416,2.488,2.488,0,0,1,2,.826,3.494,3.494,0,0,1,.706,2.338v.574H29.039a1.9,1.9,0,0,0,.524,1.242,1.574,1.574,0,0,0,1.157.457,1.928,1.928,0,0,0,1.594-.791l.768.732A2.563,2.563,0,0,1,32.065-.2,3.183,3.183,0,0,1,30.639.117Zm-.17-5.432a1.2,1.2,0,0,0-.946.41,2.126,2.126,0,0,0-.46,1.143h2.713v-.105a1.731,1.731,0,0,0-.381-1.081A1.19,1.19,0,0,0,30.469-5.314ZM35.607-6.34l.041.732a2.28,2.28,0,0,1,1.846-.85q1.98,0,2.016,2.268V0H38.086V-4.107A1.306,1.306,0,0,0,37.825-5a1.1,1.1,0,0,0-.853-.29,1.372,1.372,0,0,0-1.283.779V0H34.266V-6.34Zm5.1,3.123a3.708,3.708,0,0,1,.694-2.358,2.229,2.229,0,0,1,1.843-.882,2.088,2.088,0,0,1,1.705.756l.064-.639H46.3V-.193a2.555,2.555,0,0,1-.776,1.969A2.957,2.957,0,0,1,43.43,2.5a3.376,3.376,0,0,1-1.362-.29,2.421,2.421,0,0,1-1.011-.759L41.73.592a2.035,2.035,0,0,0,1.617.779A1.573,1.573,0,0,0,44.467.987a1.471,1.471,0,0,0,.41-1.128V-.568a2.1,2.1,0,0,1-1.641.686,2.223,2.223,0,0,1-1.819-.885A3.828,3.828,0,0,1,40.711-3.217Zm1.418.123a2.552,2.552,0,0,0,.39,1.5,1.253,1.253,0,0,0,1.081.548,1.37,1.37,0,0,0,1.277-.738V-4.57a1.351,1.351,0,0,0-1.266-.721,1.258,1.258,0,0,0-1.093.557A2.858,2.858,0,0,0,42.129-3.094ZM50.555.117A2.946,2.946,0,0,1,48.36-.735a3.093,3.093,0,0,1-.841-2.271v-.176a3.8,3.8,0,0,1,.366-1.7,2.787,2.787,0,0,1,1.028-1.163,2.719,2.719,0,0,1,1.477-.416,2.488,2.488,0,0,1,2,.826A3.494,3.494,0,0,1,53.1-3.293v.574H48.955a1.9,1.9,0,0,0,.524,1.242,1.574,1.574,0,0,0,1.157.457,1.928,1.928,0,0,0,1.594-.791L53-1.078A2.563,2.563,0,0,1,51.981-.2,3.183,3.183,0,0,1,50.555.117Zm-.17-5.432a1.2,1.2,0,0,0-.946.41,2.126,2.126,0,0,0-.46,1.143h2.713v-.105a1.731,1.731,0,0,0-.381-1.081A1.19,1.19,0,0,0,50.385-5.314ZM.463,12.771a3.738,3.738,0,0,1,.369-1.679A2.7,2.7,0,0,1,1.869,9.944a2.922,2.922,0,0,1,1.535-.4,2.769,2.769,0,0,1,2.083.826,3.249,3.249,0,0,1,.864,2.191l.006.334A3.772,3.772,0,0,1,6,14.57a2.664,2.664,0,0,1-1.031,1.143,2.944,2.944,0,0,1-1.55.4,2.75,2.75,0,0,1-2.147-.894,3.422,3.422,0,0,1-.806-2.382Zm1.424.123a2.555,2.555,0,0,0,.4,1.532,1.314,1.314,0,0,0,1.125.554,1.3,1.3,0,0,0,1.122-.562,2.822,2.822,0,0,0,.4-1.646,2.522,2.522,0,0,0-.413-1.523A1.319,1.319,0,0,0,3.4,10.686a1.307,1.307,0,0,0-1.107.554A2.768,2.768,0,0,0,1.887,12.895ZM9.076,16H7.652V7H9.076Zm1.283-3.217a3.769,3.769,0,0,1,.68-2.353,2.178,2.178,0,0,1,1.822-.888,2.069,2.069,0,0,1,1.629.7V7h1.424v9H14.625l-.07-.656a2.1,2.1,0,0,1-1.705.773,2.166,2.166,0,0,1-1.8-.9A3.907,3.907,0,0,1,10.359,12.783Zm1.424.123a2.639,2.639,0,0,0,.372,1.509,1.207,1.207,0,0,0,1.058.542,1.345,1.345,0,0,0,1.277-.779V11.471a1.324,1.324,0,0,0-1.266-.762,1.216,1.216,0,0,0-1.066.548A2.939,2.939,0,0,0,11.783,12.906Zm14.168-.012a3.808,3.808,0,0,1-.659,2.35,2.147,2.147,0,0,1-1.813.873,2.068,2.068,0,0,1-1.734-.8l-.07.686H20.385V7h1.424v3.27a2.061,2.061,0,0,1,1.658-.727,2.172,2.172,0,0,1,1.822.861,3.871,3.871,0,0,1,.662,2.408Zm-1.424-.123a2.692,2.692,0,0,0-.363-1.547,1.21,1.21,0,0,0-1.055-.516,1.322,1.322,0,0,0-1.3.809v2.613a1.336,1.336,0,0,0,1.313.826,1.2,1.2,0,0,0,1.031-.5,2.608,2.608,0,0,0,.375-1.506Zm5.408,3.346a2.946,2.946,0,0,1-2.194-.853,3.093,3.093,0,0,1-.841-2.271v-.176a3.8,3.8,0,0,1,.366-1.7,2.787,2.787,0,0,1,1.028-1.163,2.719,2.719,0,0,1,1.477-.416,2.488,2.488,0,0,1,2,.826,3.494,3.494,0,0,1,.706,2.338v.574H28.336a1.9,1.9,0,0,0,.524,1.242,1.574,1.574,0,0,0,1.157.457,1.928,1.928,0,0,0,1.594-.791l.768.732a2.563,2.563,0,0,1-1.017.882A3.183,3.183,0,0,1,29.936,16.117Zm-.17-5.432a1.2,1.2,0,0,0-.946.41,2.126,2.126,0,0,0-.46,1.143h2.713v-.105a1.731,1.731,0,0,0-.381-1.081A1.19,1.19,0,0,0,29.766,10.686ZM35.1,16H33.674V7H35.1Zm3.064,0H36.738V9.66h1.424ZM36.65,8.014a.756.756,0,0,1,.208-.545.786.786,0,0,1,.595-.217.8.8,0,0,1,.6.217.75.75,0,0,1,.211.545.733.733,0,0,1-.211.536.8.8,0,0,1-.6.214.792.792,0,0,1-.595-.214A.738.738,0,0,1,36.65,8.014Zm5.854,8.1a2.946,2.946,0,0,1-2.194-.853,3.093,3.093,0,0,1-.841-2.271v-.176a3.8,3.8,0,0,1,.366-1.7,2.787,2.787,0,0,1,1.028-1.163,2.719,2.719,0,0,1,1.477-.416,2.488,2.488,0,0,1,2,.826,3.494,3.494,0,0,1,.706,2.338v.574H40.9a1.9,1.9,0,0,0,.524,1.242,1.574,1.574,0,0,0,1.157.457,1.928,1.928,0,0,0,1.594-.791l.768.732a2.563,2.563,0,0,1-1.017.882A3.183,3.183,0,0,1,42.5,16.117Zm-.17-5.432a1.2,1.2,0,0,0-.946.41,2.126,2.126,0,0,0-.46,1.143h2.713v-.105a1.731,1.731,0,0,0-.381-1.081A1.19,1.19,0,0,0,42.334,10.686ZM46.652,16V10.715h-.967V9.66h.967V9.08a2.177,2.177,0,0,1,.586-1.629,2.244,2.244,0,0,1,1.641-.574,3.291,3.291,0,0,1,.8.105L49.641,8.1a2.8,2.8,0,0,0-.545-.047A.914.914,0,0,0,48.076,9.1V9.66h1.289v1.055H48.076V16Zm7.307-1.723a.645.645,0,0,0-.313-.58,3.334,3.334,0,0,0-1.04-.352,5.346,5.346,0,0,1-1.213-.387,1.619,1.619,0,0,1-1.066-1.494,1.688,1.688,0,0,1,.691-1.371,2.733,2.733,0,0,1,1.758-.551,2.844,2.844,0,0,1,1.837.563,1.785,1.785,0,0,1,.7,1.459H53.889a.877.877,0,0,0-.3-.683,1.168,1.168,0,0,0-.809-.272,1.262,1.262,0,0,0-.765.217.683.683,0,0,0-.3.58.577.577,0,0,0,.275.51,3.787,3.787,0,0,0,1.113.366,5.27,5.27,0,0,1,1.315.439,1.863,1.863,0,0,1,.709.612,1.561,1.561,0,0,1,.231.867,1.652,1.652,0,0,1-.709,1.386,3.023,3.023,0,0,1-1.857.53,3.278,3.278,0,0,1-1.389-.281,2.285,2.285,0,0,1-.949-.773A1.831,1.831,0,0,1,50.115,14H51.5a1,1,0,0,0,.381.776,1.48,1.48,0,0,0,.932.272,1.44,1.44,0,0,0,.855-.214A.662.662,0,0,0,53.959,14.277Z" transform="translate(7.998 52.996)" fill="#87738e"/><path d="M42.732,63.372H25.192a9.182,9.182,0,0,0-1.356-3.61,2.2,2.2,0,0,0-2.191-.708c-1.446.35-2.894.688-4.329,1.047a3.553,3.553,0,0,1-2.874-1.049c-.768-.772-.41-2.149-.36-3.4.049-.813-.776-1.256-1.366-1.672s.648-1.363.183-1.571c-.437-.2-.885-.292-1.073-.746-.21-.535.424-1.005.285-1.609-.021-.382.175-.957-.135-1.192a1.231,1.231,0,0,0-.94-.133,2.813,2.813,0,0,1-.536.025c-.6-.189-1.748-.239-1.807-1.187-.106-1.575,2.252-5.5,3.084-7.974a6.621,6.621,0,0,1-.767-1.873s-.473-2.565.185-2.844c0-.255,25.511-6.072,27.859-6.567.014-.735,2.038-7.033,6.9-28.307,4.762,2.766,7.966,9.144,5.022,17.849-1.985,5.874-5.748,9.472-10.239,10.59a7.786,7.786,0,0,1-.975.232c2.1,3.018,2.727,7.1,2.079,11.792-.3,2.2-1.961,4.616-2,7.277-.032,1.572,1.97,6.727,4.561,10.58A12.678,12.678,0,0,0,49.821,63a13,13,0,0,1-1.548.244l-2.468.124c-.327,0-.658.006-.992.006h-.364C43.881,63.376,43.306,63.372,42.732,63.372ZM.071,28.007a.772.772,0,0,1,.38-1.021L14.762,20.45l-.642-1.4a2.314,2.314,0,0,1,1.139-3.063l.7-.32,3.848,8.4-.7.32a2.311,2.311,0,0,1-3.063-1.139l-.641-1.4L1.093,28.387a.773.773,0,0,1-1.021-.38Zm29.694-2.214a1.152,1.152,0,0,1-.286-.784,1.214,1.214,0,0,1,.345-.862,1.253,1.253,0,0,1,.958-.365,1.007,1.007,0,0,1,.8.317,1.12,1.12,0,0,1,.279.767,1.262,1.262,0,0,1-.344.876,1.221,1.221,0,0,1-.951.378A1.006,1.006,0,0,1,29.765,25.793ZM17.328,14.953c2.534-1.772,3.263-6.071,3.271-6.117a.771.771,0,0,1,1.462-.2l.644,1.408L21.5,12.6l1.643-1.594.489,1.127a3.881,3.881,0,0,1,.528,1.4c-.059.376-1.834,2-1.834,2a14.61,14.61,0,0,1,2.1-1.022c.334-.026.711.729.711.729L23.5,16.829s1.688-.859,2.063-.7c0,0,.7,1.016.625,1.172a19.318,19.318,0,0,1-1.906,1.235l2.124-.437a.749.749,0,0,1,0,1.2,25.045,25.045,0,0,1-5.215,4.1Zm13,7.439-.259-1.452q1.466-.429,1.465-1.417,0-1.207-2.528-1.282l.157-1.288a8.107,8.107,0,0,1,3.118.446,1.618,1.618,0,0,1,1,1.612q0,1.472-1.9,2.351l-.143,1.03Zm5.024-8.5a1.488,1.488,0,0,1-.371-1.014,1.574,1.574,0,0,1,.445-1.117,1.624,1.624,0,0,1,1.239-.472,1.3,1.3,0,0,1,1.032.41,1.448,1.448,0,0,1,.362.993,1.631,1.631,0,0,1-.445,1.133,1.58,1.58,0,0,1-1.23.49A1.3,1.3,0,0,1,35.355,13.889Zm.732-4.4-.335-1.879q1.9-.556,1.9-1.835,0-1.562-3.273-1.659l.2-1.668a10.5,10.5,0,0,1,4.037.578A2.093,2.093,0,0,1,39.907,5.11q0,1.9-2.462,3.044L37.26,9.486Z" transform="translate(87.913 14.625)" fill="#8f7b97" opacity="0.8"/></g></g></svg>