<svg xmlns="http://www.w3.org/2000/svg" xmlns:xlink="http://www.w3.org/1999/xlink" width="157" height="87" viewBox="0 0 157 87"><defs><filter id="a" x="0" y="0" width="157" height="87" filterUnits="userSpaceOnUse"><feOffset dy="2" input="SourceAlpha"/><feGaussianBlur stdDeviation="1.5" result="b"/><feFlood flood-opacity="0.161"/><feComposite operator="in" in2="b"/><feComposite in="SourceGraphic"/></filter></defs><g transform="translate(-158.502 2.44)"><g transform="translate(163.002 0.06)"><g transform="matrix(1, 0, 0, 1, -4.5, -2.5)" filter="url(#a)"><rect width="148" height="78" rx="10" transform="translate(4.5 2.5)" fill="#d6fff9"/></g><path d="M5.854-3.809H2.35v2.625h4.1V0H.867V-8.531H6.4v1.2H2.35V-4.98h3.5ZM9.6-1.8l1.339-4.54H12.41L10.213,0H8.977L6.762-6.34H8.238ZM17,0a2.2,2.2,0,0,1-.164-.592A2.216,2.216,0,0,1,15.17.117a2.237,2.237,0,0,1-1.559-.545,1.743,1.743,0,0,1-.6-1.348,1.8,1.8,0,0,1,.753-1.556,3.649,3.649,0,0,1,2.153-.542h.873V-4.29a1.11,1.11,0,0,0-.275-.788,1.092,1.092,0,0,0-.838-.3,1.254,1.254,0,0,0-.8.243.753.753,0,0,0-.311.618H13.143a1.58,1.58,0,0,1,.346-.976,2.3,2.3,0,0,1,.94-.712,3.3,3.3,0,0,1,1.327-.258,2.66,2.66,0,0,1,1.775.56,2,2,0,0,1,.68,1.573v2.859A3.241,3.241,0,0,0,18.451-.1V0ZM15.434-1.025a1.62,1.62,0,0,0,.794-.205,1.37,1.37,0,0,0,.56-.551v-1.2H16.02a2.1,2.1,0,0,0-1.19.281.892.892,0,0,0-.4.779.832.832,0,0,0,.272.653,1.055,1.055,0,0,0,.732.243ZM21.217,0H19.793V-9h1.424Zm5.391-.621a2.208,2.208,0,0,1-1.781.738,1.968,1.968,0,0,1-1.562-.6,2.567,2.567,0,0,1-.53-1.746V-6.34h1.424v4.09q0,1.207,1,1.207a1.407,1.407,0,0,0,1.4-.744V-6.34h1.424V0h-1.34ZM33.223,0a2.2,2.2,0,0,1-.164-.592,2.216,2.216,0,0,1-1.664.709,2.237,2.237,0,0,1-1.559-.545,1.743,1.743,0,0,1-.6-1.348,1.8,1.8,0,0,1,.753-1.556,3.649,3.649,0,0,1,2.153-.542h.873V-4.29a1.11,1.11,0,0,0-.275-.788,1.092,1.092,0,0,0-.838-.3,1.254,1.254,0,0,0-.8.243.753.753,0,0,0-.311.618H29.367a1.58,1.58,0,0,1,.346-.976,2.3,2.3,0,0,1,.94-.712,3.3,3.3,0,0,1,1.327-.258,2.66,2.66,0,0,1,1.775.56,2,2,0,0,1,.68,1.573v2.859A3.241,3.241,0,0,0,34.676-.1V0ZM31.658-1.025a1.62,1.62,0,0,0,.794-.205,1.37,1.37,0,0,0,.56-.551v-1.2h-.768a2.1,2.1,0,0,0-1.189.275.892.892,0,0,0-.4.779.832.832,0,0,0,.272.653,1.055,1.055,0,0,0,.731.249ZM37.711-7.88v1.54H38.83v1.055H37.711v3.539a.779.779,0,0,0,.144.524.666.666,0,0,0,.513.161,2.193,2.193,0,0,0,.5-.059v1.1a3.507,3.507,0,0,1-.937.135Q36.29.115,36.29-1.7V-5.285H35.244V-6.34h1.043V-7.881Zm5,8a2.946,2.946,0,0,1-2.194-.853A3.093,3.093,0,0,1,39.676-3V-3.18a3.8,3.8,0,0,1,.366-1.7A2.787,2.787,0,0,1,41.07-6.043a2.719,2.719,0,0,1,1.477-.416,2.488,2.488,0,0,1,2,.826A3.494,3.494,0,0,1,45.253-3.3v.574H41.109a1.9,1.9,0,0,0,.524,1.242,1.574,1.574,0,0,0,1.157.457,1.928,1.928,0,0,0,1.594-.791l.768.732A2.563,2.563,0,0,1,44.136-.2a3.183,3.183,0,0,1-1.427.317Zm-.17-5.432a1.2,1.2,0,0,0-.946.41,2.126,2.126,0,0,0-.46,1.143h2.713v-.105a1.731,1.731,0,0,0-.381-1.081,1.19,1.19,0,0,0-.928-.369ZM50.684-6.34l.041.662a2.281,2.281,0,0,1,1.828-.779,1.753,1.753,0,0,1,1.74.973,2.249,2.249,0,0,1,1.945-.973,1.977,1.977,0,0,1,1.562.58,2.554,2.554,0,0,1,.524,1.711V0H56.9V-4.125a1.261,1.261,0,0,0-.264-.885,1.154,1.154,0,0,0-.873-.281,1.185,1.185,0,0,0-.794.261,1.375,1.375,0,0,0-.431.683L54.545,0H53.121V-4.172a1.016,1.016,0,0,0-.3-.838,1.016,1.016,0,0,0-.844-.281,1.253,1.253,0,0,0-1.213.7V0H49.342V-6.34ZM62-2.039l1.289-4.3h1.518l-2.52,7.3a2.048,2.048,0,0,1-1.969,1.6,2.538,2.538,0,0,1-.686-.106V1.348l.27.018a1.386,1.386,0,0,0,.812-.2A1.3,1.3,0,0,0,61.148.51l.205-.544L59.127-6.34h1.535ZM2.514,8.119V9.66H3.633v1.055H2.514v3.539a.779.779,0,0,0,.144.524.666.666,0,0,0,.513.161,2.193,2.193,0,0,0,.5-.059v1.1a3.507,3.507,0,0,1-.937.135q-1.641,0-1.641-1.811V10.715H.047V9.66H1.09V8.119Zm3.609,2.232a2.229,2.229,0,0,1,1.764-.809q2.027,0,2.057,2.314V16H8.52V11.91a1.252,1.252,0,0,0-.284-.929,1.162,1.162,0,0,0-.835-.272,1.372,1.372,0,0,0-1.277.762V16H4.7V7H6.123Zm4.992,2.42a3.738,3.738,0,0,1,.369-1.679,2.7,2.7,0,0,1,1.037-1.148,2.922,2.922,0,0,1,1.535-.4,2.769,2.769,0,0,1,2.083.826A3.249,3.249,0,0,1,17,12.561l.006.334a3.772,3.772,0,0,1-.36,1.676,2.664,2.664,0,0,1-1.031,1.143,2.944,2.944,0,0,1-1.55.4,2.75,2.75,0,0,1-2.147-.894,3.422,3.422,0,0,1-.806-2.382Zm1.424.123a2.555,2.555,0,0,0,.4,1.532,1.314,1.314,0,0,0,1.125.554,1.3,1.3,0,0,0,1.122-.562,2.822,2.822,0,0,0,.4-1.646,2.522,2.522,0,0,0-.413-1.523,1.392,1.392,0,0,0-2.229-.009,2.768,2.768,0,0,0-.405,1.655Zm9.516,2.484a2.208,2.208,0,0,1-1.781.738,1.968,1.968,0,0,1-1.562-.6,2.567,2.567,0,0,1-.53-1.746V9.66h1.424v4.09q0,1.207,1,1.207a1.407,1.407,0,0,0,1.4-.744V9.66H23.43V16H22.09Zm2.578-2.6a3.708,3.708,0,0,1,.694-2.358,2.229,2.229,0,0,1,1.843-.882,2.088,2.088,0,0,1,1.7.756l.064-.639h1.283V15.8a2.555,2.555,0,0,1-.776,1.969,2.957,2.957,0,0,1-2.1.721,3.376,3.376,0,0,1-1.362-.29,2.421,2.421,0,0,1-1.011-.759l.674-.855a2.035,2.035,0,0,0,1.617.779,1.573,1.573,0,0,0,1.119-.384,1.471,1.471,0,0,0,.41-1.128v-.428a2.1,2.1,0,0,1-1.641.686,2.223,2.223,0,0,1-1.819-.885,3.828,3.828,0,0,1-.705-2.444Zm1.418.123a2.552,2.552,0,0,0,.39,1.5,1.253,1.253,0,0,0,1.081.548,1.37,1.37,0,0,0,1.277-.738V11.43a1.351,1.351,0,0,0-1.266-.721,1.258,1.258,0,0,0-1.093.557,2.858,2.858,0,0,0-.389,1.64Zm7.037-2.555a2.229,2.229,0,0,1,1.764-.809q2.027,0,2.057,2.314V16H35.484V11.91a1.252,1.252,0,0,0-.284-.929,1.162,1.162,0,0,0-.835-.272,1.372,1.372,0,0,0-1.277.762V16H31.664V7h1.424Zm7.043-2.232V9.66H41.25v1.055H40.131v3.539a.779.779,0,0,0,.144.524.666.666,0,0,0,.513.161,2.193,2.193,0,0,0,.5-.059v1.1a3.507,3.507,0,0,1-.937.135q-1.641,0-1.641-1.811V10.715H37.664V9.66h1.043V8.119Zm5.76,6.158a.645.645,0,0,0-.313-.58,3.334,3.334,0,0,0-1.04-.352,5.346,5.346,0,0,1-1.213-.387,1.619,1.619,0,0,1-1.066-1.494,1.688,1.688,0,0,1,.691-1.371,2.733,2.733,0,0,1,1.758-.551,2.844,2.844,0,0,1,1.837.563,1.785,1.785,0,0,1,.7,1.459H45.82a.877.877,0,0,0-.3-.683,1.168,1.168,0,0,0-.809-.272,1.262,1.262,0,0,0-.765.217.683.683,0,0,0-.3.58.577.577,0,0,0,.275.51,3.787,3.787,0,0,0,1.113.366,5.27,5.27,0,0,1,1.315.439,1.863,1.863,0,0,1,.709.612,1.561,1.561,0,0,1,.231.867,1.652,1.652,0,0,1-.709,1.386,3.023,3.023,0,0,1-1.857.53,3.278,3.278,0,0,1-1.389-.281,2.285,2.285,0,0,1-.949-.773A1.831,1.831,0,0,1,42.047,14H43.43a1,1,0,0,0,.381.776,1.48,1.48,0,0,0,.932.272,1.44,1.44,0,0,0,.855-.214.662.662,0,0,0,.293-.557Z" transform="translate(7.998 52.996)" fill="#3c776f"/><path d="M-13774.928-2716.448c-.239-.73,1.6-3.681,3.2-6.059,1.816-2.685,3.7-5.2,3.72-5.221a9.763,9.763,0,0,0-2.917-5.917,3.914,3.914,0,0,0-3.283-1.4,13,13,0,0,0-1.937.187l-.046.007c-.183.028-.359.055-.522.076a15.849,15.849,0,0,1-1.9.125c-2.592,0-3.321-.837-3.328-.844-.9-.55-.484-2.872-.481-2.9a2.175,2.175,0,0,0-.467-2.152c-.024-.031-.049-.066-.069-.094l-.018-.024c-.906-1.267-.391-1.875-.384-1.879.284-.36.1-.557.1-.557-1-.336-1.087-.886-1.087-.893l.024-1.858a1.643,1.643,0,0,0-.139-1.152.447.447,0,0,0-.27-.2,2.57,2.57,0,0,1-1.882-.647,1.379,1.379,0,0,1-.385-.9c-.093-.768,2.405-5.221,2.688-5.726l.007-.01a4,4,0,0,0-.207-4.021,4.1,4.1,0,0,1-.468-1.284c-.626-6.529,1.907-10.128,4.188-12.532a18.847,18.847,0,0,1,13.989-5.668h.187a26.086,26.086,0,0,1,10.893,2.028,17.438,17.438,0,0,1,5.813,4.481c2.928,3.734,3.374,6.844,3.315,12.847a14.479,14.479,0,0,1-2.1,7.121,15,15,0,0,1-2.056,2.761c-3.2,4.592-2.3,7.512-1.713,9.446a7.048,7.048,0,0,1,.3,1.19c.079.74,4.355,5.865,8.882,11.3l.007.01c2.92,3.5,5.9,7.076,7.657,9.366a9.973,9.973,0,0,1-4.339.993Zm-1.111-44.839a10.9,10.9,0,0,0,10.906,10.9,10.905,10.905,0,0,0,10.906-10.906,10.905,10.905,0,0,0-10.906-10.906A10.9,10.9,0,0,0-13776.039-2761.287Zm12.346,7.889-.841-.291a.6.6,0,0,1-.387-.688l.151-.737a3.4,3.4,0,0,1-.442-.391l-.709.242a.588.588,0,0,1-.73-.3l-.388-.792a.591.591,0,0,1,.211-.761l.627-.412a4.213,4.213,0,0,1-.035-.588l-.675-.332a.6.6,0,0,1-.3-.73l.291-.841a.594.594,0,0,1,.688-.387l.737.152a3.4,3.4,0,0,1,.391-.443l-.242-.713a.584.584,0,0,1,.3-.727l.792-.387a.594.594,0,0,1,.762.208l.411.63a3.677,3.677,0,0,1,.589-.035l.335-.675a.6.6,0,0,1,.728-.3l.841.291a.589.589,0,0,1,.387.688l-.152.737a3.4,3.4,0,0,1,.443.391l.713-.242a.591.591,0,0,1,.729.3l.388.8a.594.594,0,0,1-.211.761l-.63.412a3.694,3.694,0,0,1,.035.588l.675.332a.6.6,0,0,1,.3.73l-.29.841a.594.594,0,0,1-.688.387l-.733-.152a3.722,3.722,0,0,1-.395.443l.245.709a.6.6,0,0,1-.3.73l-.795.388a.6.6,0,0,1-.762-.208l-.412-.63c-.1.015-.2.024-.309.03l-.009.02.009-.02c-.092,0-.186.006-.279,0l-.332.675a.6.6,0,0,1-.536.336A.634.634,0,0,1-13763.693-2753.4Zm-.743-5.3a1.986,1.986,0,0,0,1.228,2.526,1.99,1.99,0,0,0,2.526-1.232,1.989,1.989,0,0,0-1.232-2.526,1.986,1.986,0,0,0-.644-.107A1.981,1.981,0,0,0-13764.437-2758.7Zm2.057,4.378-.016.034Zm0,0h0Zm.015-.032c0,.012-.011.022-.015.032Zm0-.008,0,.008Zm-7.249-8.458a.375.375,0,0,1-.371-.332l-.059-.467a2.319,2.319,0,0,1-.346-.142l-.374.291a.37.37,0,0,1-.494-.031l-.395-.394a.37.37,0,0,1-.031-.495l.29-.374a2.541,2.541,0,0,1-.142-.343l-.471-.062a.371.371,0,0,1-.328-.37v-.561a.371.371,0,0,1,.332-.37l.467-.062a2.554,2.554,0,0,1,.142-.343l-.29-.374a.367.367,0,0,1,.034-.495l.392-.395a.37.37,0,0,1,.494-.031l.374.291a2.318,2.318,0,0,1,.346-.142l.059-.47a.375.375,0,0,1,.371-.329h.561a.372.372,0,0,1,.37.329l.062.47a2.417,2.417,0,0,1,.343.142l.374-.291a.371.371,0,0,1,.5.031l.394.395a.37.37,0,0,1,.031.495l-.29.374a2.554,2.554,0,0,1,.142.343l.471.062a.371.371,0,0,1,.328.37v.561a.371.371,0,0,1-.328.37l-.471.062a2.541,2.541,0,0,1-.142.343l.29.374a.37.37,0,0,1-.031.495l-.394.394a.371.371,0,0,1-.5.031l-.374-.291a2.418,2.418,0,0,1-.343.142l-.062.47a.372.372,0,0,1-.37.329Zm-.97-3a1.251,1.251,0,0,0,1.25,1.249,1.251,1.251,0,0,0,1.249-1.249,1.251,1.251,0,0,0-1.249-1.249A1.251,1.251,0,0,0-13770.579-2765.82Z" transform="translate(13877.952 2794.443)" fill="#3c776f" opacity="0.8"/></g></g></svg>