<svg xmlns="http://www.w3.org/2000/svg" xmlns:xlink="http://www.w3.org/1999/xlink" width="157" height="87" viewBox="0 0 157 87"><defs><filter id="a" x="0" y="0" width="157" height="87" filterUnits="userSpaceOnUse"><feOffset dy="2" input="SourceAlpha"/><feGaussianBlur stdDeviation="1.5" result="b"/><feFlood flood-opacity="0.161"/><feComposite operator="in" in2="b"/><feComposite in="SourceGraphic"/></filter></defs><g transform="translate(-17.5 -441.504)"><g transform="translate(22 444.004)"><g transform="translate(0 0)"><g transform="matrix(1, 0, 0, 1, -4.5, -2.5)" filter="url(#a)"><rect width="148" height="78" rx="10" transform="translate(4.5 2.5)" fill="#f1ffd6"/></g><g transform="translate(97.476 12.834)" opacity="0.8"><path d="M39.927,53.049h0c-3.28-.038-6.684-.057-10.119-.057-3.28,0-6.462.018-9.458.054h-.009l-.279,0a10.257,10.257,0,0,0-3.081-6.242A4.121,4.121,0,0,0,13.8,45.315c-.1,0-.191,0-.286.01a13.756,13.756,0,0,0-2.048.2c-.233.035-.424.063-.6.085a16.57,16.57,0,0,1-2.011.134c-2.684,0-3.48-.857-3.513-.894-.909-.554-.556-2.8-.512-3.049V41.8a2.318,2.318,0,0,0-.494-2.271L4.249,39.4a2.172,2.172,0,0,1-.543-1.653.708.708,0,0,1,.143-.33c.272-.345.132-.549.1-.587-1.06-.352-1.148-.935-1.148-.94l.027-1.963a1.654,1.654,0,0,0-.17-1.244A.443.443,0,0,0,2.4,32.5c-.059,0-.12.006-.179.006a2.718,2.718,0,0,1-1.806-.685A1.437,1.437,0,0,1,0,30.873c-.087-.743,2.129-4.772,2.81-5.99l.038-.067a4.224,4.224,0,0,0-.22-4.24,4.316,4.316,0,0,1-.493-1.354,17.023,17.023,0,0,1,.9-7.834A16,16,0,0,1,6.561,5.995,18.563,18.563,0,0,1,14.2,1.138,22.353,22.353,0,0,1,21.211.011h.316C21.8,0,22.075,0,22.347,0a27.434,27.434,0,0,1,10.677,2.15,18.363,18.363,0,0,1,6.137,4.729c3.091,3.943,3.564,7.228,3.5,13.564a15.31,15.31,0,0,1-2.216,7.513,16,16,0,0,1-2.171,2.915C34.9,35.716,35.844,38.8,36.47,40.837a7.331,7.331,0,0,1,.315,1.258,32.882,32.882,0,0,0,1.449,4.568c1.026,2.869,2.189,6.12,1.693,6.385ZM19.413,27.13a.745.745,0,1,0,0,1.49h3.826a.745.745,0,1,0,0-1.49ZM18.6,24.552a.784.784,0,0,0,0,1.568h5.357a.784.784,0,0,0,0-1.568ZM21.387,6.679h0a8.7,8.7,0,0,0-1.786.187,8.338,8.338,0,0,0-4.446,13.692,8,8,0,0,0,.829.755c.711.594,1.518,1.266,1.518,2.053h7.773c.1-.707.881-1.418,1.567-2.046a11.082,11.082,0,0,0,.828-.808A8.3,8.3,0,0,0,21.387,6.68ZM31.375,18.7a.7.7,0,0,0-.492,1.187l.984.983a.695.695,0,1,0,.983-.983l-.983-.984A.692.692,0,0,0,31.375,18.7Zm-19.969,0a.692.692,0,0,0-.491.2l-.984.984a.7.7,0,1,0,.984.983l.983-.983a.7.7,0,0,0-.491-1.187Zm19.766-3.68a.7.7,0,1,0,0,1.39h1.39a.7.7,0,0,0,0-1.39Zm-20.952,0a.7.7,0,1,0,0,1.39h1.391a.7.7,0,0,0,0-1.39ZM32.359,10.36a.692.692,0,0,0-.491.2l-.984.984a.7.7,0,1,0,.984.983l.983-.983a.7.7,0,0,0-.491-1.187Zm-21.935,0a.7.7,0,0,0-.492,1.187l.984.983a.695.695,0,1,0,.983-.983l-.983-.984A.692.692,0,0,0,10.423,10.36Z" fill="#839267"/></g></g><path d="M5.854-3.809H2.35v2.625h4.1V0H.867V-8.531H6.4v1.2H2.35V-4.98h3.5Zm3.938-.445L11-6.34H12.58L10.641-3.217l2,3.217h-1.57L9.809-2.168,8.549,0H6.967l2-3.217L7.037-6.34h1.57ZM16.342.117a2.946,2.946,0,0,1-2.194-.853,3.093,3.093,0,0,1-.841-2.271v-.176a3.8,3.8,0,0,1,.366-1.7A2.787,2.787,0,0,1,14.7-6.041a2.719,2.719,0,0,1,1.477-.416,2.488,2.488,0,0,1,2,.826,3.494,3.494,0,0,1,.706,2.338v.574H14.742a1.9,1.9,0,0,0,.524,1.242,1.574,1.574,0,0,0,1.157.457,1.928,1.928,0,0,0,1.594-.791l.768.732A2.563,2.563,0,0,1,17.769-.2,3.183,3.183,0,0,1,16.342.117Zm-.17-5.432a1.2,1.2,0,0,0-.946.41,2.126,2.126,0,0,0-.46,1.143h2.713v-.105A1.731,1.731,0,0,0,17.1-4.948,1.19,1.19,0,0,0,16.172-5.314Zm7.137.275a3.523,3.523,0,0,0-.58-.047,1.306,1.306,0,0,0-1.318.75V0H19.986V-6.34h1.359l.035.709a1.6,1.6,0,0,1,1.43-.826,1.333,1.333,0,0,1,.5.082ZM26.7-1.02a1.287,1.287,0,0,0,.885-.311,1.061,1.061,0,0,0,.375-.768H29.3a2.091,2.091,0,0,1-.369,1.1A2.421,2.421,0,0,1,28-.182a2.794,2.794,0,0,1-1.277.3,2.7,2.7,0,0,1-2.109-.861,3.416,3.416,0,0,1-.779-2.379V-3.27A3.359,3.359,0,0,1,24.6-5.587a2.678,2.678,0,0,1,2.109-.87,2.6,2.6,0,0,1,1.843.659A2.361,2.361,0,0,1,29.3-4.066H27.961a1.3,1.3,0,0,0-.372-.9,1.2,1.2,0,0,0-.888-.352,1.253,1.253,0,0,0-1.066.5,2.556,2.556,0,0,0-.381,1.521v.229a2.6,2.6,0,0,0,.372,1.538A1.252,1.252,0,0,0,26.7-1.02ZM31.893,0H30.469V-6.34h1.424ZM30.381-7.986a.756.756,0,0,1,.208-.545.786.786,0,0,1,.595-.217.8.8,0,0,1,.6.217.75.75,0,0,1,.211.545.733.733,0,0,1-.211.536.8.8,0,0,1-.6.214.792.792,0,0,1-.595-.214A.738.738,0,0,1,30.381-7.986ZM37-1.723a.645.645,0,0,0-.313-.58,3.334,3.334,0,0,0-1.04-.352,5.346,5.346,0,0,1-1.213-.387,1.619,1.619,0,0,1-1.066-1.494,1.688,1.688,0,0,1,.691-1.371,2.733,2.733,0,0,1,1.758-.551,2.844,2.844,0,0,1,1.837.563,1.785,1.785,0,0,1,.7,1.459H36.926a.877.877,0,0,0-.3-.683,1.168,1.168,0,0,0-.809-.272,1.262,1.262,0,0,0-.765.217.683.683,0,0,0-.3.58.577.577,0,0,0,.275.51,3.787,3.787,0,0,0,1.113.366,5.27,5.27,0,0,1,1.315.439,1.863,1.863,0,0,1,.709.612A1.561,1.561,0,0,1,38.4-1.8a1.652,1.652,0,0,1-.709,1.386,3.023,3.023,0,0,1-1.857.53,3.278,3.278,0,0,1-1.389-.281,2.285,2.285,0,0,1-.949-.773A1.831,1.831,0,0,1,33.152-2h1.383a1,1,0,0,0,.381.776,1.48,1.48,0,0,0,.932.272,1.44,1.44,0,0,0,.855-.214A.662.662,0,0,0,37-1.723ZM42.428.117a2.946,2.946,0,0,1-2.194-.853,3.093,3.093,0,0,1-.841-2.271v-.176a3.8,3.8,0,0,1,.366-1.7,2.787,2.787,0,0,1,1.028-1.163,2.719,2.719,0,0,1,1.477-.416,2.488,2.488,0,0,1,2,.826,3.494,3.494,0,0,1,.706,2.338v.574H40.828a1.9,1.9,0,0,0,.524,1.242,1.574,1.574,0,0,0,1.157.457A1.928,1.928,0,0,0,44.1-1.811l.768.732A2.563,2.563,0,0,1,43.854-.2,3.183,3.183,0,0,1,42.428.117Zm-.17-5.432a1.2,1.2,0,0,0-.946.41,2.126,2.126,0,0,0-.46,1.143h2.713v-.105a1.731,1.731,0,0,0-.381-1.081A1.19,1.19,0,0,0,42.258-5.314ZM50.4-6.34l.041.662a2.281,2.281,0,0,1,1.828-.779,1.753,1.753,0,0,1,1.74.973,2.249,2.249,0,0,1,1.945-.973,1.977,1.977,0,0,1,1.562.58,2.554,2.554,0,0,1,.524,1.711V0H56.619V-4.125a1.261,1.261,0,0,0-.264-.885,1.154,1.154,0,0,0-.873-.281,1.185,1.185,0,0,0-.794.261,1.375,1.375,0,0,0-.431.683L54.264,0H52.84V-4.172A1.016,1.016,0,0,0,51.7-5.291a1.253,1.253,0,0,0-1.213.7V0H49.061V-6.34Zm11.32,4.3,1.289-4.3h1.518L62.01.961a2.048,2.048,0,0,1-1.969,1.6,2.538,2.538,0,0,1-.686-.106V1.348l.27.018a1.386,1.386,0,0,0,.812-.2A1.3,1.3,0,0,0,60.867.51l.205-.544L58.846-6.34h1.535ZM2.244,16H.82V9.66H2.244ZM.732,8.014A.756.756,0,0,1,.94,7.469a.786.786,0,0,1,.595-.217.8.8,0,0,1,.6.217.75.75,0,0,1,.211.545.733.733,0,0,1-.211.536.8.8,0,0,1-.6.214A.792.792,0,0,1,.94,8.55.738.738,0,0,1,.732,8.014Zm4.4,1.646.041.662A2.281,2.281,0,0,1,7,9.543a1.753,1.753,0,0,1,1.74.973,2.249,2.249,0,0,1,1.945-.973,1.977,1.977,0,0,1,1.562.58,2.554,2.554,0,0,1,.524,1.711V16H11.35V11.875a1.261,1.261,0,0,0-.264-.885,1.154,1.154,0,0,0-.873-.281,1.185,1.185,0,0,0-.794.261,1.375,1.375,0,0,0-.431.683L8.994,16H7.57V11.828a1.016,1.016,0,0,0-1.143-1.119,1.253,1.253,0,0,0-1.213.7V16H3.791V9.66ZM18.023,16a2.2,2.2,0,0,1-.164-.592,2.4,2.4,0,0,1-3.223.164,1.743,1.743,0,0,1-.6-1.348,1.8,1.8,0,0,1,.753-1.556,3.649,3.649,0,0,1,2.153-.542h.873v-.416a1.11,1.11,0,0,0-.275-.788,1.092,1.092,0,0,0-.838-.3,1.254,1.254,0,0,0-.8.243.753.753,0,0,0-.311.618H14.168a1.58,1.58,0,0,1,.346-.976,2.3,2.3,0,0,1,.94-.712,3.3,3.3,0,0,1,1.327-.258,2.66,2.66,0,0,1,1.775.56,2,2,0,0,1,.68,1.573v2.859a3.241,3.241,0,0,0,.24,1.365V16Zm-1.564-1.025a1.62,1.62,0,0,0,.794-.205,1.37,1.37,0,0,0,.56-.551v-1.2h-.768a2.1,2.1,0,0,0-1.189.275.892.892,0,0,0-.4.779.832.832,0,0,0,.272.653A1.055,1.055,0,0,0,16.459,14.975Zm4.02-2.191a3.708,3.708,0,0,1,.694-2.358,2.229,2.229,0,0,1,1.843-.882,2.088,2.088,0,0,1,1.705.756l.064-.639h1.283v6.146a2.555,2.555,0,0,1-.776,1.969A2.957,2.957,0,0,1,23.2,18.5a3.376,3.376,0,0,1-1.362-.29,2.421,2.421,0,0,1-1.011-.759l.674-.855a2.035,2.035,0,0,0,1.617.779,1.573,1.573,0,0,0,1.119-.384,1.471,1.471,0,0,0,.41-1.128v-.428A2.1,2.1,0,0,1,23,16.117a2.223,2.223,0,0,1-1.819-.885A3.828,3.828,0,0,1,20.479,12.783Zm1.418.123a2.552,2.552,0,0,0,.39,1.5,1.253,1.253,0,0,0,1.081.548,1.37,1.37,0,0,0,1.277-.738V11.43a1.351,1.351,0,0,0-1.266-.721,1.258,1.258,0,0,0-1.093.557A2.858,2.858,0,0,0,21.9,12.906ZM29.045,16H27.621V9.66h1.424ZM27.533,8.014a.756.756,0,0,1,.208-.545.786.786,0,0,1,.595-.217.8.8,0,0,1,.6.217.75.75,0,0,1,.211.545.733.733,0,0,1-.211.536.8.8,0,0,1-.6.214.792.792,0,0,1-.595-.214A.738.738,0,0,1,27.533,8.014ZM31.916,9.66l.041.732a2.28,2.28,0,0,1,1.846-.85q1.98,0,2.016,2.268V16H34.395V11.893A1.306,1.306,0,0,0,34.134,11a1.1,1.1,0,0,0-.853-.29A1.372,1.372,0,0,0,32,11.488V16H30.574V9.66ZM41.057,16a2.2,2.2,0,0,1-.164-.592,2.4,2.4,0,0,1-3.223.164,1.743,1.743,0,0,1-.6-1.348,1.8,1.8,0,0,1,.753-1.556,3.649,3.649,0,0,1,2.153-.542h.873v-.416a1.11,1.11,0,0,0-.275-.788,1.092,1.092,0,0,0-.838-.3,1.254,1.254,0,0,0-.8.243.753.753,0,0,0-.311.618H37.2a1.58,1.58,0,0,1,.346-.976,2.3,2.3,0,0,1,.94-.712,3.3,3.3,0,0,1,1.327-.258,2.66,2.66,0,0,1,1.775.56,2,2,0,0,1,.68,1.573v2.859a3.241,3.241,0,0,0,.24,1.365V16Zm-1.564-1.025a1.62,1.62,0,0,0,.794-.205,1.37,1.37,0,0,0,.56-.551v-1.2h-.768a2.1,2.1,0,0,0-1.189.275.892.892,0,0,0-.4.779.832.832,0,0,0,.272.653A1.055,1.055,0,0,0,39.492,14.975Zm6.053-6.855V9.66h1.119v1.055H45.545v3.539a.779.779,0,0,0,.144.524.666.666,0,0,0,.513.161,2.193,2.193,0,0,0,.5-.059v1.1a3.507,3.507,0,0,1-.937.135q-1.641,0-1.641-1.811V10.715H43.078V9.66h1.043V8.119ZM49.266,16H47.842V9.66h1.424ZM47.754,8.014a.756.756,0,0,1,.208-.545.786.786,0,0,1,.595-.217.8.8,0,0,1,.6.217.75.75,0,0,1,.211.545.733.733,0,0,1-.211.536.8.8,0,0,1-.6.214.792.792,0,0,1-.595-.214A.738.738,0,0,1,47.754,8.014Zm2.795,4.758a3.738,3.738,0,0,1,.369-1.679,2.7,2.7,0,0,1,1.037-1.148,2.922,2.922,0,0,1,1.535-.4,2.769,2.769,0,0,1,2.083.826,3.249,3.249,0,0,1,.864,2.191l.006.334a3.772,3.772,0,0,1-.36,1.676,2.664,2.664,0,0,1-1.031,1.143,2.944,2.944,0,0,1-1.55.4,2.75,2.75,0,0,1-2.147-.894,3.422,3.422,0,0,1-.806-2.382Zm1.424.123a2.555,2.555,0,0,0,.4,1.532,1.314,1.314,0,0,0,1.125.554,1.3,1.3,0,0,0,1.122-.562,2.822,2.822,0,0,0,.4-1.646,2.522,2.522,0,0,0-.413-1.523,1.392,1.392,0,0,0-2.229-.009A2.768,2.768,0,0,0,51.973,12.895Zm7-3.234.041.732a2.28,2.28,0,0,1,1.846-.85q1.98,0,2.016,2.268V16H61.447V11.893A1.306,1.306,0,0,0,61.187,11a1.1,1.1,0,0,0-.853-.29,1.372,1.372,0,0,0-1.283.779V16H57.627V9.66Z" transform="translate(8 52.996)" fill="#839267"/></g></g></svg>