<svg xmlns="http://www.w3.org/2000/svg" xmlns:xlink="http://www.w3.org/1999/xlink" width="157" height="87" viewBox="0 0 157 87"><defs><filter id="a" x="0" y="0" width="157" height="87" filterUnits="userSpaceOnUse"><feOffset dy="2" input="SourceAlpha"/><feGaussianBlur stdDeviation="1.5" result="b"/><feFlood flood-opacity="0.161"/><feComposite operator="in" in2="b"/><feComposite in="SourceGraphic"/></filter></defs><g transform="translate(-179.502 -630.504)"><g transform="translate(184.002 633.004)"><g transform="matrix(1, 0, 0, 1, -4.5, -2.5)" filter="url(#a)"><rect width="148" height="78" rx="10" transform="translate(4.5 2.5)" fill="#ffece4"/></g><path d="M5.854-3.809H2.35v2.625h4.1V0H.867V-8.531H6.4v1.2H2.35V-4.98h3.5Zm3.938-.445L11-6.34h1.58L10.641-3.217l2,3.217h-1.57L9.809-2.168,8.549,0H6.967l2-3.217L7.037-6.34h1.57ZM19.1-3.105a3.775,3.775,0,0,1-.668,2.347,2.139,2.139,0,0,1-1.793.876,2.154,2.154,0,0,1-1.67-.686V2.438H13.547V-6.34H14.86l.059.645a2.091,2.091,0,0,1,1.705-.762,2.161,2.161,0,0,1,1.819.864,3.875,3.875,0,0,1,.659,2.4Zm-1.418-.123A2.644,2.644,0,0,0,17.3-4.734a1.229,1.229,0,0,0-1.081-.557,1.31,1.31,0,0,0-1.254.721v2.813a1.322,1.322,0,0,0,1.266.738A1.227,1.227,0,0,0,17.3-1.567a2.911,2.911,0,0,0,.384-1.662ZM21.82,0H20.4V-9h1.42ZM23.1-3.229a3.738,3.738,0,0,1,.369-1.679A2.7,2.7,0,0,1,24.51-6.056a2.922,2.922,0,0,1,1.535-.4,2.769,2.769,0,0,1,2.083.826,3.249,3.249,0,0,1,.864,2.191L29-3.105a3.772,3.772,0,0,1-.36,1.676A2.664,2.664,0,0,1,27.606-.287a2.944,2.944,0,0,1-1.55.4,2.75,2.75,0,0,1-2.147-.894A3.422,3.422,0,0,1,23.1-3.158Zm1.424.123a2.555,2.555,0,0,0,.4,1.532,1.314,1.314,0,0,0,1.125.554,1.3,1.3,0,0,0,1.122-.562,2.822,2.822,0,0,0,.4-1.646,2.522,2.522,0,0,0-.413-1.523,1.319,1.319,0,0,0-1.122-.562,1.307,1.307,0,0,0-1.107.554,2.768,2.768,0,0,0-.4,1.654ZM33.518-5.04a3.523,3.523,0,0,0-.58-.047,1.306,1.306,0,0,0-1.318.75V0H30.2V-6.34h1.359l.035.709a1.6,1.6,0,0,1,1.43-.826,1.333,1.333,0,0,1,.5.082ZM37.1.117a2.946,2.946,0,0,1-2.194-.853,3.093,3.093,0,0,1-.841-2.271v-.176a3.8,3.8,0,0,1,.366-1.7,2.787,2.787,0,0,1,1.028-1.163,2.719,2.719,0,0,1,1.477-.416,2.488,2.488,0,0,1,2,.826A3.494,3.494,0,0,1,39.642-3.3v.574H35.5a1.9,1.9,0,0,0,.524,1.242,1.574,1.574,0,0,0,1.157.457,1.928,1.928,0,0,0,1.594-.791l.768.732A2.563,2.563,0,0,1,38.528-.2,3.183,3.183,0,0,1,37.1.117Zm-.17-5.432a1.2,1.2,0,0,0-.946.41,2.126,2.126,0,0,0-.46,1.143h2.713v-.105a1.731,1.731,0,0,0-.381-1.081,1.19,1.19,0,0,0-.924-.366ZM45.076-6.34l.041.662a2.281,2.281,0,0,1,1.828-.779,1.753,1.753,0,0,1,1.74.973,2.249,2.249,0,0,1,1.945-.973,1.977,1.977,0,0,1,1.562.58,2.554,2.554,0,0,1,.524,1.711V0H51.293V-4.125a1.261,1.261,0,0,0-.264-.885,1.154,1.154,0,0,0-.873-.281,1.185,1.185,0,0,0-.794.261,1.375,1.375,0,0,0-.431.683L48.938,0H47.514V-4.172a1.016,1.016,0,0,0-.3-.838,1.016,1.016,0,0,0-.844-.281,1.253,1.253,0,0,0-1.213.7V0H43.734V-6.34ZM56.4-2.04l1.289-4.3H59.2L56.68.96a2.048,2.048,0,0,1-1.969,1.6,2.538,2.538,0,0,1-.686-.106V1.348l.27.018a1.386,1.386,0,0,0,.812-.2A1.3,1.3,0,0,0,55.541.51l.205-.544L53.52-6.34h1.535ZM4.283,14.277a.645.645,0,0,0-.313-.58,3.334,3.334,0,0,0-1.04-.352,5.346,5.346,0,0,1-1.213-.387A1.619,1.619,0,0,1,.65,11.465a1.688,1.688,0,0,1,.691-1.371A2.733,2.733,0,0,1,3.1,9.543a2.844,2.844,0,0,1,1.837.563,1.785,1.785,0,0,1,.7,1.459H4.213a.877.877,0,0,0-.3-.683A1.168,1.168,0,0,0,3.1,10.61a1.262,1.262,0,0,0-.765.217.683.683,0,0,0-.3.58.577.577,0,0,0,.275.51,3.787,3.787,0,0,0,1.113.366,5.27,5.27,0,0,1,1.315.439,1.863,1.863,0,0,1,.709.612,1.561,1.561,0,0,1,.231.867,1.652,1.652,0,0,1-.709,1.386,3.023,3.023,0,0,1-1.857.53,3.278,3.278,0,0,1-1.389-.281,2.285,2.285,0,0,1-.949-.773A1.831,1.831,0,0,1,.439,14H1.822a1,1,0,0,0,.381.776,1.48,1.48,0,0,0,.932.272,1.44,1.44,0,0,0,.855-.214.662.662,0,0,0,.293-.557Zm6.48,1.1a2.208,2.208,0,0,1-1.781.738,1.968,1.968,0,0,1-1.562-.6,2.567,2.567,0,0,1-.53-1.746V9.66H8.314v4.09q0,1.207,1,1.207a1.407,1.407,0,0,0,1.4-.744V9.66h1.424V16H10.8Zm6.146-4.418a3.523,3.523,0,0,0-.58-.047,1.306,1.306,0,0,0-1.318.75V16H13.588V9.66h1.359l.035.709a1.6,1.6,0,0,1,1.43-.826,1.333,1.333,0,0,1,.5.082Zm4.219,0a3.523,3.523,0,0,0-.58-.047,1.306,1.306,0,0,0-1.318.75V16H17.807V9.66h1.359l.035.709a1.6,1.6,0,0,1,1.43-.826,1.333,1.333,0,0,1,.5.082Zm.422,1.811a3.738,3.738,0,0,1,.369-1.679,2.7,2.7,0,0,1,1.037-1.148,2.922,2.922,0,0,1,1.535-.4,2.769,2.769,0,0,1,2.083.826,3.249,3.249,0,0,1,.864,2.191l.006.334a3.772,3.772,0,0,1-.36,1.676,2.664,2.664,0,0,1-1.031,1.143,2.944,2.944,0,0,1-1.55.4,2.75,2.75,0,0,1-2.147-.894,3.422,3.422,0,0,1-.806-2.382Zm1.424.123a2.555,2.555,0,0,0,.4,1.532,1.314,1.314,0,0,0,1.125.554,1.3,1.3,0,0,0,1.122-.562,2.822,2.822,0,0,0,.4-1.646,2.522,2.522,0,0,0-.413-1.523,1.392,1.392,0,0,0-2.229-.009,2.768,2.768,0,0,0-.4,1.656Zm9.516,2.484a2.208,2.208,0,0,1-1.781.738,1.968,1.968,0,0,1-1.562-.6,2.567,2.567,0,0,1-.53-1.746V9.66h1.424v4.09q0,1.207,1,1.207a1.407,1.407,0,0,0,1.4-.744V9.66h1.424V16h-1.34ZM36.639,9.66l.041.732a2.28,2.28,0,0,1,1.846-.85q1.98,0,2.016,2.268V16H39.117V11.893A1.306,1.306,0,0,0,38.856,11,1.1,1.1,0,0,0,38,10.71a1.372,1.372,0,0,0-1.283.779V16H35.3V9.66Zm5.086,3.123a3.769,3.769,0,0,1,.68-2.353,2.178,2.178,0,0,1,1.822-.888,2.069,2.069,0,0,1,1.629.7V7H47.28v9H45.99l-.07-.656a2.1,2.1,0,0,1-1.7.773,2.166,2.166,0,0,1-1.8-.9,3.907,3.907,0,0,1-.69-2.434Zm1.424.123a2.639,2.639,0,0,0,.372,1.509,1.207,1.207,0,0,0,1.058.542,1.345,1.345,0,0,0,1.277-.779V11.471a1.324,1.324,0,0,0-1.266-.762,1.216,1.216,0,0,0-1.066.548,2.939,2.939,0,0,0-.376,1.649ZM50.279,16H48.855V9.66h1.424ZM48.768,8.014a.756.756,0,0,1,.208-.545.786.786,0,0,1,.6-.217.8.8,0,0,1,.6.217.75.75,0,0,1,.211.545.733.733,0,0,1-.211.536.8.8,0,0,1-.6.214.792.792,0,0,1-.6-.214.738.738,0,0,1-.208-.536ZM53.15,9.66l.041.732a2.28,2.28,0,0,1,1.846-.85q1.98,0,2.016,2.268V16H55.629V11.893A1.306,1.306,0,0,0,55.368,11a1.1,1.1,0,0,0-.853-.29,1.372,1.372,0,0,0-1.283.779V16H51.809V9.66Zm5.1,3.123a3.708,3.708,0,0,1,.694-2.358,2.229,2.229,0,0,1,1.843-.882A2.088,2.088,0,0,1,62.5,10.3l.064-.639h1.283v6.146a2.555,2.555,0,0,1-.776,1.969,2.957,2.957,0,0,1-2.1.721,3.376,3.376,0,0,1-1.362-.29,2.421,2.421,0,0,1-1.011-.759l.674-.855a2.035,2.035,0,0,0,1.617.779,1.573,1.573,0,0,0,1.119-.384,1.471,1.471,0,0,0,.41-1.128v-.428a2.1,2.1,0,0,1-1.641.686,2.223,2.223,0,0,1-1.819-.885,3.828,3.828,0,0,1-.709-2.45Zm1.418.123a2.552,2.552,0,0,0,.39,1.5,1.253,1.253,0,0,0,1.081.548,1.37,1.37,0,0,0,1.277-.738V11.43a1.351,1.351,0,0,0-1.266-.721,1.258,1.258,0,0,0-1.093.557,2.858,2.858,0,0,0-.385,1.64Zm9.188,1.371a.645.645,0,0,0-.313-.58,3.334,3.334,0,0,0-1.04-.352,5.346,5.346,0,0,1-1.213-.387,1.619,1.619,0,0,1-1.066-1.494,1.688,1.688,0,0,1,.691-1.371,2.733,2.733,0,0,1,1.758-.551,2.844,2.844,0,0,1,1.837.563,1.785,1.785,0,0,1,.7,1.459H68.789a.877.877,0,0,0-.3-.683,1.168,1.168,0,0,0-.809-.272,1.262,1.262,0,0,0-.765.217.683.683,0,0,0-.3.58.577.577,0,0,0,.275.51,3.787,3.787,0,0,0,1.11.366,5.27,5.27,0,0,1,1.315.439,1.863,1.863,0,0,1,.709.612,1.561,1.561,0,0,1,.231.867,1.652,1.652,0,0,1-.709,1.386,3.023,3.023,0,0,1-1.857.53,3.278,3.278,0,0,1-1.389-.281,2.285,2.285,0,0,1-.949-.773A1.831,1.831,0,0,1,65.016,14H66.4a1,1,0,0,0,.381.776,1.48,1.48,0,0,0,.932.272,1.44,1.44,0,0,0,.855-.214.662.662,0,0,0,.291-.557Z" transform="translate(7.998 52.996)" fill="#857757"/></g><path d="M114.605,72a55.37,55.37,0,0,1-1.688-8.022c-.258-3.045.421-3.3.647-5.483a.049.049,0,0,0-.043-.054h0a.05.05,0,0,0-.031.01c-3.507-1.1-7.011-2.2-9.822-3.243s-7.925-2.537-8.9-4.131A7.523,7.523,0,0,1,93.62,48.82a70.031,70.031,0,0,1-1.775-7.235h0l-2.027-7.416h0a18.137,18.137,0,0,1,2.535-2.361c.834-.553,2.82-1.508,2.8-1.509a21.758,21.758,0,0,0,.038-7.582,16.5,16.5,0,0,1,1.689-4.789,7.274,7.274,0,0,1,2.93-2.627,2.4,2.4,0,0,1,1.2.748.051.051,0,0,0,.031.013.048.048,0,0,0,.031-.01l.235-.176h0a2.672,2.672,0,0,0,.987.647.049.049,0,0,0-.026.04l-.31,3.753a.034.034,0,0,0,0,.014,21.424,21.424,0,0,1-.479,3.31s-.674,2.076-1.155,2.36a.049.049,0,0,0-.02.028l-.965,3.623a.049.049,0,0,0,.028.058,5.03,5.03,0,0,1,.318,1.025c.338,3.347.431,10.6.619,11.44-.051.685,1.028,3.111,1.444,3.1h.064a.836.836,0,0,1,.282.066,1.092,1.092,0,0,1,.381.347,34.994,34.994,0,0,0,9.784,2.08,16.079,16.079,0,0,0,7.632-1.9,8.221,8.221,0,0,1,2.47.1h.01a.047.047,0,0,0,.047-.031,5.423,5.423,0,0,0-1.227-5.123,2.959,2.959,0,0,0-2.075-1.191,4.757,4.757,0,0,1-2.408-1.17c-.328-.522.007-1.268.367-2.058a.045.045,0,0,0,0-.032,2.863,2.863,0,0,1-.15-1.11c.059-.248.274-.356.516-.477a.044.044,0,0,0,.024-.028.048.048,0,0,0,0-.037,1.686,1.686,0,0,1-.262-1.061,3.459,3.459,0,0,1,.721-1.209h0a.067.067,0,0,0,.009-.018.676.676,0,0,0-.135-.664c-.03-.041-.064-.082-.1-.125-.227-.279-.478-.595-.1-.966a13.022,13.022,0,0,1,3.307-1.526.049.049,0,0,0,.031-.038,2.633,2.633,0,0,1,.695-1.489,24.292,24.292,0,0,1,2.6-2.31.051.051,0,0,0,.018-.039,4.628,4.628,0,0,1,1.656-1.853,6.9,6.9,0,0,1,2.092.65h0c1.621.228,9.437,1.531,9.973,6.675s-.34,6.687-1.355,10.649a.05.05,0,0,0,.009.043c1.884,2.355,3.758,4.7,4.4,7s.051,4.572-.543,6.857a.048.048,0,0,0,0,.03c.838,2.269,1.67,4.526,1.535,6.728s-1.241,4.352-2.354,6.516a.044.044,0,0,0-.005.026c.053.7.106,1.4.134,2.066A9.953,9.953,0,0,1,134.789,72ZM103.379,16.637a2.855,2.855,0,0,1-1.993-.816c.105-.078.035-.148-.067-.072-1.283-1.425-.739-4.1,1.272-5.991a5.767,5.767,0,0,1,3.991-1.7,2.844,2.844,0,0,1,2.038.864c1.31,1.419.772,4.111-1.25,6.016a5.839,5.839,0,0,1-3.856,1.706Zm.249-6.016c-1.789,1.684-2.544,3.882-1.606,4.9a1.663,1.663,0,0,0,1.2.494,5.738,5.738,0,0,0,3.747-1.769c1.789-1.684,2.544-3.882,1.606-4.9a1.662,1.662,0,0,0-1.2-.493h-.09a5.849,5.849,0,0,0-3.656,1.769Z" transform="translate(185 639)" fill="#857757" opacity="0.8"/></g></svg>