<svg xmlns="http://www.w3.org/2000/svg" xmlns:xlink="http://www.w3.org/1999/xlink" width="157" height="86.996" viewBox="0 0 157 86.996"><defs><filter id="a" x="0" y="0" width="157" height="86.996" filterUnits="userSpaceOnUse"><feOffset dy="2" input="SourceAlpha"/><feGaussianBlur stdDeviation="1.5" result="b"/><feFlood flood-opacity="0.161"/><feComposite operator="in" in2="b"/><feComposite in="SourceGraphic"/></filter></defs><g transform="translate(-17.5 -441.5)"><g transform="translate(22 444)"><g transform="matrix(1, 0, 0, 1, -4.5, -2.5)" filter="url(#a)"><rect width="148" height="77.996" rx="10" transform="translate(4.5 2.5)" fill="#d9fff5"/></g></g><path d="M5.783-3.615H2.35V0H.867V-8.531h5.42v1.2H2.35V-4.8H5.783ZM10.91,0a2.2,2.2,0,0,1-.164-.592A2.216,2.216,0,0,1,9.082.117,2.237,2.237,0,0,1,7.523-.428a1.743,1.743,0,0,1-.6-1.348,1.8,1.8,0,0,1,.753-1.556,3.649,3.649,0,0,1,2.153-.542H10.7V-4.29a1.11,1.11,0,0,0-.275-.788,1.092,1.092,0,0,0-.838-.3,1.254,1.254,0,0,0-.8.243.753.753,0,0,0-.311.618H7.055a1.58,1.58,0,0,1,.345-.97A2.3,2.3,0,0,1,8.34-6.2a3.3,3.3,0,0,1,1.327-.258,2.66,2.66,0,0,1,1.775.56,2,2,0,0,1,.68,1.573v2.859A3.241,3.241,0,0,0,12.363-.1V0ZM9.346-1.025a1.62,1.62,0,0,0,.794-.205,1.37,1.37,0,0,0,.56-.551v-1.2H9.932a2.1,2.1,0,0,0-1.19.281.892.892,0,0,0-.4.779.832.832,0,0,0,.272.653,1.055,1.055,0,0,0,.732.243Zm6.873.006A1.287,1.287,0,0,0,17.1-1.33a1.061,1.061,0,0,0,.375-.768H18.82A2.091,2.091,0,0,1,18.451-1a2.421,2.421,0,0,1-.937.812,2.794,2.794,0,0,1-1.277.3,2.7,2.7,0,0,1-2.109-.861,3.416,3.416,0,0,1-.779-2.379V-3.27a3.359,3.359,0,0,1,.773-2.317,2.678,2.678,0,0,1,2.109-.87,2.6,2.6,0,0,1,1.843.659,2.361,2.361,0,0,1,.747,1.731H17.479a1.3,1.3,0,0,0-.372-.9,1.2,1.2,0,0,0-.888-.352,1.253,1.253,0,0,0-1.066.5A2.556,2.556,0,0,0,14.772-3.3v.229a2.6,2.6,0,0,0,.372,1.538,1.252,1.252,0,0,0,1.075.511ZM22.688.117a2.946,2.946,0,0,1-2.194-.853,3.093,3.093,0,0,1-.841-2.271v-.176a3.8,3.8,0,0,1,.366-1.7,2.787,2.787,0,0,1,1.028-1.163,2.719,2.719,0,0,1,1.477-.416,2.488,2.488,0,0,1,2,.826A3.494,3.494,0,0,1,25.23-3.3v.574H21.088a1.9,1.9,0,0,0,.524,1.242,1.574,1.574,0,0,0,1.157.457,1.928,1.928,0,0,0,1.594-.791l.768.732A2.563,2.563,0,0,1,24.114-.2a3.183,3.183,0,0,1-1.426.317Zm-.17-5.432a1.2,1.2,0,0,0-.946.41,2.126,2.126,0,0,0-.46,1.143h2.713v-.105a1.731,1.731,0,0,0-.381-1.081,1.19,1.19,0,0,0-.926-.366ZM30.662-6.34l.041.662a2.281,2.281,0,0,1,1.828-.779,1.753,1.753,0,0,1,1.74.973,2.249,2.249,0,0,1,1.945-.973,1.977,1.977,0,0,1,1.562.58A2.554,2.554,0,0,1,38.3-4.166V0H36.879V-4.125a1.261,1.261,0,0,0-.264-.885,1.154,1.154,0,0,0-.873-.281,1.185,1.185,0,0,0-.794.261,1.375,1.375,0,0,0-.431.683L34.523,0H33.1V-4.172a1.016,1.016,0,0,0-.3-.838,1.016,1.016,0,0,0-.844-.281,1.253,1.253,0,0,0-1.213.7V0H29.32V-6.34Zm11.32,4.3,1.289-4.3h1.518L42.27.961a2.048,2.048,0,0,1-1.969,1.6,2.538,2.538,0,0,1-.686-.106V1.348l.27.018a1.386,1.386,0,0,0,.812-.2,1.3,1.3,0,0,0,.43-.656l.205-.544L39.1-6.34H40.64ZM6.3,14.037,7.307,9.66H8.7L6.967,16H5.8L4.436,11.646,3.1,16H1.928L.193,9.66H1.582l1.025,4.33,1.3-4.33H4.98Zm3.082-1.266a3.738,3.738,0,0,1,.369-1.679,2.7,2.7,0,0,1,1.037-1.148,2.922,2.922,0,0,1,1.535-.4,2.769,2.769,0,0,1,2.083.826,3.249,3.249,0,0,1,.864,2.191l.006.334a3.772,3.772,0,0,1-.36,1.676,2.664,2.664,0,0,1-1.031,1.143,2.944,2.944,0,0,1-1.55.4,2.75,2.75,0,0,1-2.147-.894,3.422,3.422,0,0,1-.806-2.382Zm1.424.123a2.555,2.555,0,0,0,.4,1.532,1.314,1.314,0,0,0,1.125.554,1.3,1.3,0,0,0,1.122-.562,2.822,2.822,0,0,0,.4-1.646,2.522,2.522,0,0,0-.413-1.523,1.392,1.392,0,0,0-2.229-.009A2.768,2.768,0,0,0,10.8,12.9ZM19.8,10.961a3.523,3.523,0,0,0-.58-.047,1.306,1.306,0,0,0-1.318.75V16H16.477V9.66h1.359l.035.709a1.6,1.6,0,0,1,1.43-.826,1.333,1.333,0,0,1,.5.082Zm4.219,0a3.523,3.523,0,0,0-.58-.047,1.306,1.306,0,0,0-1.318.75V16H20.7V9.66h1.359l.035.709a1.6,1.6,0,0,1,1.43-.826,1.333,1.333,0,0,1,.5.082ZM26.432,16H25.008V9.66h1.424ZM24.92,8.014a.756.756,0,0,1,.208-.545.786.786,0,0,1,.6-.217.8.8,0,0,1,.6.217.75.75,0,0,1,.211.545.733.733,0,0,1-.211.536.8.8,0,0,1-.6.214.792.792,0,0,1-.595-.214A.738.738,0,0,1,24.92,8.014Zm5.854,8.1a2.946,2.946,0,0,1-2.194-.853,3.093,3.093,0,0,1-.841-2.271v-.176a3.8,3.8,0,0,1,.366-1.7,2.787,2.787,0,0,1,1.028-1.163,2.719,2.719,0,0,1,1.477-.416,2.488,2.488,0,0,1,2,.826,3.494,3.494,0,0,1,.706,2.338v.574H29.174a1.9,1.9,0,0,0,.524,1.242,1.574,1.574,0,0,0,1.157.457,1.928,1.928,0,0,0,1.594-.791l.768.732A2.563,2.563,0,0,1,32.2,15.8a3.183,3.183,0,0,1-1.427.317Zm-.17-5.432a1.2,1.2,0,0,0-.946.41,2.126,2.126,0,0,0-.46,1.143H31.91v-.1a1.731,1.731,0,0,0-.381-1.081,1.19,1.19,0,0,0-.929-.363Zm7.371,3.592a.645.645,0,0,0-.313-.58,3.334,3.334,0,0,0-1.04-.352,5.346,5.346,0,0,1-1.213-.387,1.619,1.619,0,0,1-1.066-1.494,1.688,1.688,0,0,1,.691-1.371,2.733,2.733,0,0,1,1.758-.551,2.844,2.844,0,0,1,1.837.563,1.785,1.785,0,0,1,.7,1.459H37.9a.877.877,0,0,0-.3-.683,1.168,1.168,0,0,0-.809-.272,1.262,1.262,0,0,0-.765.217.683.683,0,0,0-.3.58.577.577,0,0,0,.275.51,3.787,3.787,0,0,0,1.113.366,5.27,5.27,0,0,1,1.315.439,1.863,1.863,0,0,1,.709.612,1.561,1.561,0,0,1,.231.867,1.652,1.652,0,0,1-.709,1.386,3.023,3.023,0,0,1-1.857.53,3.278,3.278,0,0,1-1.389-.281,2.285,2.285,0,0,1-.949-.773A1.831,1.831,0,0,1,34.131,14h1.383a1,1,0,0,0,.381.776,1.48,1.48,0,0,0,.932.272,1.44,1.44,0,0,0,.855-.214.662.662,0,0,0,.293-.557Z" transform="translate(30 496.996)" fill="#507887"/><g transform="translate(83.988 446.816)"><g transform="translate(0 7.794)"><path d="M76.424,144.552a.635.635,0,0,1,.635.635,2.942,2.942,0,0,0,3.859,2.8.635.635,0,0,1,.832.586,2.94,2.94,0,0,0,5.171,1.838.635.635,0,0,1,.962,0,2.937,2.937,0,0,0,4.546-.1.635.635,0,0,1,1,0,2.94,2.94,0,0,0,3.967.624.635.635,0,1,1,.714,1.05,4.21,4.21,0,0,1-5.181-.354,4.206,4.206,0,0,1-5.527.09,4.212,4.212,0,0,1-6.832-2.351,4.173,4.173,0,0,1-.57.035,4.22,4.22,0,0,1-4.215-4.215.635.635,0,0,1,.639-.633Z" transform="translate(-75.782 -132.311)" fill="#638a9a"/><path d="M11.285,16.779a.635.635,0,0,1,.394-1.207,2.942,2.942,0,0,0,2.864-5,.635.635,0,0,1,0-.95,2.948,2.948,0,0,0,1-2.2c0-1.624-.976-2.137-2.6-2.137-.308,0-.189-1.27,0-1.27,2.324,0,3.87,1.082,3.87,3.407a4.212,4.212,0,0,1-.964,2.677,4.212,4.212,0,0,1-4.559,6.683Z" transform="translate(12.056 0.103)" fill="#638a9a"/><path d="M210.07,2.362a.635.635,0,0,1-.9-.066A2.94,2.94,0,0,0,204,4.134a.635.635,0,0,1-.832.586,2.942,2.942,0,0,0-2.864,5,.635.635,0,0,1-.843.95,4.216,4.216,0,0,1,3.363-7.332,4.211,4.211,0,0,1,7.313-1.875.635.635,0,0,1-.067.9Z" transform="translate(-198.036 0.003)" fill="#638a9a"/><path d="M95.79,251.9c1.739,0,3.1.914,3.1,2.082s-1.362,2.082-3.1,2.082-3.1-.914-3.1-2.082S94.051,251.9,95.79,251.9Zm0,2.894c1.1,0,1.831-.489,1.831-.812s-.73-.812-1.831-.812-1.831.489-1.831.812.73.811,1.831.811Z" transform="translate(-63.367 -245.945)" fill="#638a9a"/><path d="M95.288,251.9c1.457,0,2.6.766,2.6,1.745s-1.142,1.745-2.6,1.745-2.6-.766-2.6-1.745S93.831,251.9,95.288,251.9Zm0,2.425c.922,0,1.535-.41,1.535-.681s-.612-.681-1.535-.681-1.535.41-1.535.681.612.68,1.535.68Z" transform="translate(-55.367 -243.149)" fill="#638a9a"/></g><ellipse cx="0.985" cy="1.12" rx="0.985" ry="1.12" transform="translate(10.475 15.094)" fill="#638a9a"/><ellipse cx="0.985" cy="1.12" rx="0.985" ry="1.12" transform="translate(15.475 15.094)" fill="#638a9a"/><path d="M158.454,340.013a2.659,2.659,0,0,0-3.79,0,.41.41,0,0,1-.592-.566,3.478,3.478,0,0,1,4.974,0,.41.41,0,0,1-.592.566Z" transform="translate(-142.699 -319.045)" fill="#638a9a"/><g transform="translate(18.305 12.883) rotate(-163.976)"><path d="M.837,11.632h0L.08,4.22,0,3.473l.583.2L1.512,4,2.976.062h0l.474,7.374.051.8-.6-.3-.762-.378Z" transform="translate(1.017 0.102)" fill="#638a9a"/><path d="M.837,11.632h0L.08,4.22,0,3.473l.583.2L1.512,4,2.976.062h0l.474,7.374.051.8-.6-.3-.762-.378Z" transform="matrix(0.951, 0.309, -0.309, 0.951, -3.134, 0.542)" fill="#638a9a"/></g><g transform="translate(27.012 18.18)"><g transform="translate(0.957 -3.871)"><g transform="translate(44.515 90.303) rotate(180)"><path d="M-14387.193-1642.74h0l-1.062-.018c-2.631-1.3-5.321-2.506-8.225-3.682l8.99-.317c.165,1.336.265,2.687.3,4.016Zm-28.819-6.437h0c-.405-.018-.472-.024-.52-.029h-.01c-.98-.082-1.457-1.2-1.484-2.206-.022-.826.27-1.758.963-1.854v-5.775h16.027v5.634a43.333,43.333,0,0,1,5.678,2.179l.007,0c.02.01,1.322.658,2.828,1.4l-23.49.6s0,.011,0,.026v.021Z" transform="translate(14420.282 1700.586)" fill="#638a9a"/></g><g transform="translate(52.002 47.238) rotate(-160.007)"><path d="M12.787,3.9c-1.82-.152-5.45.135-7.335-.015.356.071.769.144,1.238.216,1.358.209,4.647.409,6.638,1.317a2.509,2.509,0,0,1,.173.225,2.354,2.354,0,0,1-.1,2.776q-.073.094-.155.182a2.35,2.35,0,0,1-1.759.737h-.155a57.616,57.616,0,0,1-7.157-.871c-.744-.143-4.43-.694-4.6-2.936s2-3.434,2.521-3.678A15.518,15.518,0,0,1,4.867.892,28.314,28.314,0,0,1,11.644,0C14.048.14,12.948,3.918,12.787,3.9Z" fill="#638a9a"/></g><path d="M-14392.979-1652.159a6.507,6.507,0,0,1-6.5-6.5,6.524,6.524,0,0,1,.246-1.776l10.527,6.672A6.492,6.492,0,0,1-14392.979-1652.159Zm6.153-4.408h0l-10.744-6.692a6.461,6.461,0,0,1,4.593-1.9,6.507,6.507,0,0,1,6.5,6.5,6.471,6.471,0,0,1-.345,2.089Z" transform="translate(14425.524 1688.029)" fill="#638a9a"/></g></g><g transform="matrix(0.998, 0.07, -0.07, 0.998, -14291.459, -2662.968)"><path d="M144.313,467.111c-5.687,1.275-24.413,16.079-19.707,39.12C116.664,501.132,123.92,468.484,144.313,467.111Z" transform="translate(14362 1208.004)" fill="#638a9a"/><path d="M139.959,469.187l13.627,25.17a2.58,2.58,0,0,1,.484-.187,2.989,2.989,0,0,1,.688-.078l-13.969-25.432Z" transform="translate(14362 1208.004)" fill="#638a9a"/><path d="M123.819,501.617l28.464-2.695a3.262,3.262,0,0,1-.487-.711,1.966,1.966,0,0,1-.165-.719l-28.415,2.994Z" transform="translate(14362 1208.004)" fill="#638a9a"/><path d="M128.187,483.608,151.875,496.4a3.99,3.99,0,0,1,.285-.853,3.635,3.635,0,0,1,.554-.75l-23.968-12.228Z" transform="translate(14362 1208.004)" fill="#638a9a"/><path d="M128.071,483.34l4.854,2.7.587-.976-5.1-2.47Z" transform="translate(14353.554 1203.469)" fill="#638a9a"/><path d="M115.714,476.38l2.295,3.606,2.074-3.911Z" transform="translate(14363.485 1208.638)" fill="#638a9a"/></g></g></g></svg>