<svg xmlns="http://www.w3.org/2000/svg" xmlns:xlink="http://www.w3.org/1999/xlink" width="157" height="87" viewBox="0 0 157 87"><defs><filter id="a" x="0" y="0" width="157" height="87" filterUnits="userSpaceOnUse"><feOffset dy="2" input="SourceAlpha"/><feGaussianBlur stdDeviation="1.5" result="b"/><feFlood flood-opacity="0.161"/><feComposite operator="in" in2="b"/><feComposite in="SourceGraphic"/></filter></defs><g transform="translate(-18.497 -343.501)"><g transform="translate(21.997 346.001)"><g transform="matrix(1, 0, 0, 1, -3.5, -2.5)" filter="url(#a)"><rect width="148" height="78" rx="10" transform="translate(4.5 2.5)" fill="#fff9d2"/></g><g transform="translate(89.119 7.429)" opacity="0.8"><path d="M141.755,80.535c-.338.3.028.8-.375,1.054v1.472l-.632.8v.854c.239.313.938.37,1.358.351a5.569,5.569,0,0,1,1.241,1.8c-.044.421.292.8.422,1.218a.711.711,0,0,1-.07.726c.239,1.407,1.213,2.447,1.639,3.653l1.962-3.45V87.5a2.788,2.788,0,0,0,.913-.96c.135.045.193.166.3.234a2.543,2.543,0,0,1,.773-.539c.4.033.683.318.375.632a7.749,7.749,0,0,1,.632,1.827c-.491.266-.615.9-1.288.984-.478.751-2.086,5.269-2.484,5.737a6.766,6.766,0,0,1-.562.7c-.31.289-.517.167-.96,0a26.218,26.218,0,0,1-3.069-3.958c-.208.416-.316.933-.7,1.171-.248,1.306-2.584,7.212-2.576,7.589.155.128.353.094.562.164a14.862,14.862,0,0,1,1.92,1.194,27.142,27.142,0,0,1,4.306,2.21,11.259,11.259,0,0,1,2.7,2.543,1.262,1.262,0,0,1,.14,1.358,6.224,6.224,0,0,0-.445.679c-.2.7-2.676,7.774-2.854,8.361-.152.5-.392,1.018-.492,1.522-.04.2.005.394-.141.515,0,.391-.108.846-.141,1.218a51.036,51.036,0,0,0,4.024,3.649c.044.207.315.262.328.492.011.189-.133.331-.234.492-.585.3-1.245.09-1.827.234a4.958,4.958,0,0,0-.937-.141.519.519,0,0,1-.164-.094,43.606,43.606,0,0,1-4.5-1.733,1,1,0,0,1-.445-.609,11.219,11.219,0,0,1,.608-2.389.223.223,0,0,0,.187-.07c.11.008.16.074.281.07.122-.277.469-2.444.632-2.576.23-1.194,1.318-6.9,1.362-7.026.053-.157.042-.339.094-.445s.459-1.341.328-1.569c-1.682-1.108-4.546-.889-6.464-1.756a6.04,6.04,0,0,1-2.248-.937c-.464.338-.856.764-1.288,1.148a50.809,50.809,0,0,1-4.239,2.974,26.207,26.207,0,0,0-2.953,2.2,3.3,3.3,0,0,1-.96.445,3.173,3.173,0,0,0-1.8.281,6.876,6.876,0,0,0-1.311.328.747.747,0,0,0-.187.211c-1.333.4-8.9,2.948-9.673,3.048-.05.285-2.61,2.928-2.924,3.3-.277.372-.385.834-.656,1.241a1.263,1.263,0,0,1-.164.632,2.265,2.265,0,0,1-.4.187c-.353-.22-.36-.695-.4-1.241a7.164,7.164,0,0,1,.234-2.412c.051-.166.165-.35.234-.515s.139-.349.211-.515a4.461,4.461,0,0,0,.515-1.288,18.864,18.864,0,0,1,.187-2.3.994.994,0,0,1,.468-.281c.012-.121.1-.162.164-.234.364,0,2.083.538,2.174.493.1-.011.088.084.164.094.359-.116.893-.074,1.171-.351.5-.118,5.891-2.975,6.063-3.068s.348-.158.515-.234c.433-.2,2.8-.877,3.583-1.1a5.012,5.012,0,0,0,.773-.187,2.907,2.907,0,0,0,.492-.515c.758-.932,3.082-4.312,3.445-4.637.189-.177.337-.389.515-.539.38-.318.839-.528,1.241-.867.1-.407.375-.687.422-1.077.015-.123-.056-.248-.047-.375a2.765,2.765,0,0,1,.258-.843c.158-.873.758-1.3,1.03-2.061a8.951,8.951,0,0,1,1.522-1.335c.122-.741.542-1.313.585-1.991-.051-.388-.609-2.5-.7-2.813-.265-.88-.559-1.86-.82-2.763a6.025,6.025,0,0,0-2.247-.508,17.335,17.335,0,0,0-3.164.273c-.552.114-.317.491-.234,1.007a20.632,20.632,0,0,0,.3,2.108,11.292,11.292,0,0,0,1.124,2.576c.037.262.229,1.166.281,1.382.056.154.217.254.281.4.2.448.021.963.211,1.522a1.1,1.1,0,0,0,.047.984,2.4,2.4,0,0,0,.234.281c.175.228.2.346-.07.468-.285-.064-2.531.247-2.875-.562a5.631,5.631,0,0,1,.14-2.6,3.961,3.961,0,0,0,.211-.726c-.056-.31-2.615-4.072-2.788-7a1.646,1.646,0,0,1-.187-.773,5.661,5.661,0,0,1,2.178-1.592c.431-.16,2.74-.577,5.116-1.192s4.282-1.255,4.391-1.268a1.438,1.438,0,0,0,.328-1.452c-.051-.122-.17-.218-.211-.351-.063-.206.032-.479-.047-.679-.072-.182-.3-.271-.4-.445a2.315,2.315,0,0,1-.164-.4,3.283,3.283,0,0,1-.117-1.054c-.162-.042-.382.084-.585.047a1.535,1.535,0,0,1-.328-1.546,3.439,3.439,0,0,1,.609-.89,1.448,1.448,0,0,1,.82-.328c.27.041.391.323.609.468a5.013,5.013,0,0,1,3.99-.468C142.136,77.751,141.755,80.535,141.755,80.535Z" transform="translate(-108.265 -76.962)" fill="#716b40" fill-rule="evenodd"/></g></g><path d="M5.783-3.615H2.35V0H.867V-8.531h5.42v1.2H2.35V-4.8H5.783ZM8.836,0H7.412V-6.34H8.836ZM7.324-7.986a.756.756,0,0,1,.208-.545.786.786,0,0,1,.595-.217.8.8,0,0,1,.6.217.75.75,0,0,1,.211.545.733.733,0,0,1-.211.536.8.8,0,0,1-.6.214.792.792,0,0,1-.6-.214.738.738,0,0,1-.208-.536ZM11.707-6.34l.041.732a2.28,2.28,0,0,1,1.846-.85q1.98,0,2.016,2.268V0H14.186V-4.107A1.306,1.306,0,0,0,13.925-5a1.1,1.1,0,0,0-.853-.29,1.372,1.372,0,0,0-1.283.779V0H10.365V-6.34Zm5.086,3.123a3.769,3.769,0,0,1,.68-2.353A2.178,2.178,0,0,1,19.3-6.458a2.069,2.069,0,0,1,1.629.7V-9h1.424V0H21.059l-.07-.656a2.1,2.1,0,0,1-1.7.773,2.166,2.166,0,0,1-1.8-.9,3.907,3.907,0,0,1-.691-2.434Zm1.424.123a2.639,2.639,0,0,0,.372,1.509,1.207,1.207,0,0,0,1.058.542,1.345,1.345,0,0,0,1.277-.779V-4.529a1.324,1.324,0,0,0-1.266-.762,1.216,1.216,0,0,0-1.066.548,2.939,2.939,0,0,0-.375,1.649ZM4.283,14.277a.645.645,0,0,0-.313-.58,3.334,3.334,0,0,0-1.04-.352,5.346,5.346,0,0,1-1.213-.387A1.619,1.619,0,0,1,.65,11.465a1.688,1.688,0,0,1,.691-1.371A2.733,2.733,0,0,1,3.1,9.543a2.844,2.844,0,0,1,1.837.563,1.785,1.785,0,0,1,.7,1.459H4.213a.877.877,0,0,0-.3-.683A1.168,1.168,0,0,0,3.1,10.61a1.262,1.262,0,0,0-.765.217.683.683,0,0,0-.3.58.577.577,0,0,0,.275.51,3.787,3.787,0,0,0,1.113.366,5.27,5.27,0,0,1,1.315.439,1.863,1.863,0,0,1,.709.612,1.561,1.561,0,0,1,.231.867,1.652,1.652,0,0,1-.709,1.386,3.023,3.023,0,0,1-1.857.53,3.278,3.278,0,0,1-1.389-.281,2.285,2.285,0,0,1-.949-.773A1.831,1.831,0,0,1,.439,14H1.822a1,1,0,0,0,.381.776,1.48,1.48,0,0,0,.932.272,1.44,1.44,0,0,0,.855-.214.662.662,0,0,0,.293-.557Zm2.373-1.506a3.738,3.738,0,0,1,.369-1.679A2.7,2.7,0,0,1,8.063,9.944a2.922,2.922,0,0,1,1.535-.4,2.769,2.769,0,0,1,2.083.826,3.249,3.249,0,0,1,.864,2.191l.006.334a3.772,3.772,0,0,1-.36,1.676,2.664,2.664,0,0,1-1.031,1.143,2.944,2.944,0,0,1-1.55.4,2.75,2.75,0,0,1-2.147-.894,3.422,3.422,0,0,1-.806-2.382Zm1.424.123a2.555,2.555,0,0,0,.4,1.532,1.314,1.314,0,0,0,1.125.554,1.3,1.3,0,0,0,1.122-.562,2.822,2.822,0,0,0,.4-1.646,2.522,2.522,0,0,0-.413-1.523,1.392,1.392,0,0,0-2.229-.009,2.768,2.768,0,0,0-.4,1.655ZM15.094,9.66l.041.662a2.281,2.281,0,0,1,1.828-.779,1.753,1.753,0,0,1,1.74.973,2.249,2.249,0,0,1,1.945-.973,1.977,1.977,0,0,1,1.562.58,2.554,2.554,0,0,1,.524,1.711V16H21.311V11.875a1.261,1.261,0,0,0-.264-.885,1.154,1.154,0,0,0-.873-.281,1.185,1.185,0,0,0-.794.261,1.375,1.375,0,0,0-.431.683L18.955,16H17.531V11.828a1.016,1.016,0,0,0-1.143-1.119,1.253,1.253,0,0,0-1.213.7V16H13.752V9.66Zm11.9,6.457a2.946,2.946,0,0,1-2.194-.853,3.093,3.093,0,0,1-.841-2.271v-.176a3.8,3.8,0,0,1,.366-1.7,2.787,2.787,0,0,1,1.028-1.163,2.719,2.719,0,0,1,1.477-.416,2.488,2.488,0,0,1,2,.826,3.494,3.494,0,0,1,.706,2.338v.574H25.389a1.9,1.9,0,0,0,.524,1.242,1.574,1.574,0,0,0,1.157.457,1.928,1.928,0,0,0,1.594-.791l.768.732a2.563,2.563,0,0,1-1.017.882,3.183,3.183,0,0,1-1.427.319Zm-.17-5.432a1.2,1.2,0,0,0-.946.41,2.126,2.126,0,0,0-.46,1.143h2.713v-.1a1.731,1.731,0,0,0-.381-1.081,1.19,1.19,0,0,0-.927-.366Zm5.6-2.566V9.66h1.119v1.055H32.42v3.539a.779.779,0,0,0,.144.524.666.666,0,0,0,.513.161,2.193,2.193,0,0,0,.5-.059v1.1a3.507,3.507,0,0,1-.937.135q-1.64,0-1.64-1.808V10.715H29.953V9.66H31V8.119Zm3.609,2.232a2.229,2.229,0,0,1,1.764-.809q2.027,0,2.057,2.314V16H38.426V11.91a1.252,1.252,0,0,0-.284-.929,1.162,1.162,0,0,0-.835-.272,1.372,1.372,0,0,0-1.277.762V16H34.6V7h1.424ZM42.8,16H41.379V9.66H42.8ZM41.291,8.014a.756.756,0,0,1,.208-.545.786.786,0,0,1,.6-.217.8.8,0,0,1,.6.217.75.75,0,0,1,.211.545.733.733,0,0,1-.211.536.8.8,0,0,1-.6.214A.792.792,0,0,1,41.5,8.55.738.738,0,0,1,41.291,8.014ZM45.674,9.66l.041.732a2.28,2.28,0,0,1,1.846-.85q1.98,0,2.016,2.268V16H48.152V11.893a1.306,1.306,0,0,0-.26-.893,1.1,1.1,0,0,0-.853-.29,1.372,1.372,0,0,0-1.283.779V16H44.332V9.66Zm5.1,3.123a3.708,3.708,0,0,1,.694-2.358,2.229,2.229,0,0,1,1.843-.882,2.088,2.088,0,0,1,1.705.756l.064-.639h1.283v6.146a2.555,2.555,0,0,1-.776,1.969A2.957,2.957,0,0,1,53.5,18.5a3.376,3.376,0,0,1-1.362-.29,2.421,2.421,0,0,1-1.011-.759L51.8,16.6a2.035,2.035,0,0,0,1.617.779,1.573,1.573,0,0,0,1.119-.384,1.471,1.471,0,0,0,.41-1.128v-.428a2.1,2.1,0,0,1-1.641.686,2.223,2.223,0,0,1-1.819-.885,3.828,3.828,0,0,1-.71-2.453Zm1.418.123a2.552,2.552,0,0,0,.39,1.5,1.253,1.253,0,0,0,1.081.548,1.37,1.37,0,0,0,1.277-.738V11.43a1.351,1.351,0,0,0-1.266-.721,1.258,1.258,0,0,0-1.093.557,2.858,2.858,0,0,0-.381,1.64ZM62.6,8.119V9.66h1.119v1.055H62.6v3.539a.779.779,0,0,0,.144.524.666.666,0,0,0,.513.161,2.193,2.193,0,0,0,.5-.059v1.1a3.507,3.507,0,0,1-.937.135q-1.641,0-1.641-1.811V10.715H60.135V9.66h1.043V8.119Zm1.764,4.652a3.738,3.738,0,0,1,.369-1.679A2.7,2.7,0,0,1,65.77,9.944a2.922,2.922,0,0,1,1.535-.4,2.769,2.769,0,0,1,2.083.826,3.249,3.249,0,0,1,.864,2.191l.006.334a3.772,3.772,0,0,1-.36,1.676,2.664,2.664,0,0,1-1.031,1.143,2.944,2.944,0,0,1-1.55.4,2.75,2.75,0,0,1-2.147-.894,3.422,3.422,0,0,1-.806-2.382Zm1.424.123a2.555,2.555,0,0,0,.4,1.532,1.314,1.314,0,0,0,1.125.554,1.3,1.3,0,0,0,1.122-.562,2.822,2.822,0,0,0,.4-1.646,2.522,2.522,0,0,0-.413-1.523,1.392,1.392,0,0,0-2.229-.009,2.768,2.768,0,0,0-.4,1.655Zm8.4-.111a3.769,3.769,0,0,1,.68-2.353,2.178,2.178,0,0,1,1.822-.888,2.069,2.069,0,0,1,1.629.7V7H79.74v9H78.451l-.07-.656a2.1,2.1,0,0,1-1.7.773,2.166,2.166,0,0,1-1.8-.9,3.907,3.907,0,0,1-.69-2.434Zm1.424.123a2.639,2.639,0,0,0,.372,1.509,1.207,1.207,0,0,0,1.058.542,1.345,1.345,0,0,0,1.277-.779V11.471a1.324,1.324,0,0,0-1.266-.762,1.216,1.216,0,0,0-1.066.548,2.939,2.939,0,0,0-.378,1.649Zm5.35-.135a3.738,3.738,0,0,1,.369-1.679,2.7,2.7,0,0,1,1.037-1.148,2.922,2.922,0,0,1,1.535-.4,2.769,2.769,0,0,1,2.083.826,3.249,3.249,0,0,1,.864,2.191l.006.334a3.772,3.772,0,0,1-.36,1.676,2.664,2.664,0,0,1-1.031,1.143,2.944,2.944,0,0,1-1.55.4,2.75,2.75,0,0,1-2.147-.894,3.422,3.422,0,0,1-.806-2.382Zm1.424.123a2.555,2.555,0,0,0,.4,1.532,1.314,1.314,0,0,0,1.125.554,1.3,1.3,0,0,0,1.122-.562,2.822,2.822,0,0,0,.4-1.646,2.522,2.522,0,0,0-.413-1.523,1.392,1.392,0,0,0-2.229-.009,2.768,2.768,0,0,0-.408,1.655Z" transform="translate(30 399)" fill="#716b40"/></g></svg>