<svg xmlns="http://www.w3.org/2000/svg" xmlns:xlink="http://www.w3.org/1999/xlink" width="157" height="87" viewBox="0 0 157 87"><defs><filter id="a" x="0" y="0" width="157" height="87" filterUnits="userSpaceOnUse"><feOffset dy="2" input="SourceAlpha"/><feGaussianBlur stdDeviation="1.5" result="b"/><feFlood flood-opacity="0.161"/><feComposite operator="in" in2="b"/><feComposite in="SourceGraphic"/></filter></defs><g transform="translate(4.5 2.5)"><g transform="matrix(1, 0, 0, 1, -4.5, -2.5)" filter="url(#a)"><rect width="148" height="78" rx="10" transform="translate(4.5 2.5)" fill="#e6f1ff"/></g><path d="M2.789-8.531,5.25-1.992,7.7-8.531H9.621V0H8.145V-2.812l.146-3.762L5.771,0H4.711L2.2-6.568l.146,3.756V0H.867V-8.531ZM14.027.117a2.946,2.946,0,0,1-2.194-.853,3.093,3.093,0,0,1-.841-2.271v-.176a3.8,3.8,0,0,1,.366-1.7,2.787,2.787,0,0,1,1.028-1.163,2.719,2.719,0,0,1,1.477-.416,2.488,2.488,0,0,1,2,.826A3.494,3.494,0,0,1,16.569-3.3v.574H12.428a1.9,1.9,0,0,0,.524,1.242,1.574,1.574,0,0,0,1.157.457A1.928,1.928,0,0,0,15.7-1.811l.768.732A2.563,2.563,0,0,1,15.454-.2a3.183,3.183,0,0,1-1.427.317Zm-.17-5.432a1.2,1.2,0,0,0-.946.41,2.126,2.126,0,0,0-.46,1.143h2.713v-.105a1.731,1.731,0,0,0-.381-1.081,1.19,1.19,0,0,0-.926-.366Zm3.551,2.1a3.769,3.769,0,0,1,.68-2.353,2.178,2.178,0,0,1,1.822-.888,2.069,2.069,0,0,1,1.629.7V-9h1.424V0H21.674L21.6-.656a2.1,2.1,0,0,1-1.7.773,2.166,2.166,0,0,1-1.8-.9,3.907,3.907,0,0,1-.692-2.434Zm1.424.123A2.639,2.639,0,0,0,19.2-1.585a1.207,1.207,0,0,0,1.058.542,1.345,1.345,0,0,0,1.277-.779V-4.529a1.324,1.324,0,0,0-1.266-.762,1.216,1.216,0,0,0-1.066.548,2.939,2.939,0,0,0-.371,1.649ZM25.963,0H24.539V-6.34h1.424ZM24.451-7.986a.756.756,0,0,1,.208-.545.786.786,0,0,1,.595-.217.8.8,0,0,1,.6.217.75.75,0,0,1,.211.545.733.733,0,0,1-.211.536.8.8,0,0,1-.6.214.792.792,0,0,1-.6-.214A.738.738,0,0,1,24.451-7.986Zm4.846.105V-6.34h1.119v1.055H29.3v3.539a.779.779,0,0,0,.144.524.666.666,0,0,0,.513.161,2.193,2.193,0,0,0,.5-.059v1.1a3.507,3.507,0,0,1-.937.135q-1.641,0-1.641-1.811V-5.285H26.83V-6.34h1.043V-7.881ZM35.291,0a2.2,2.2,0,0,1-.164-.592,2.216,2.216,0,0,1-1.664.709A2.237,2.237,0,0,1,31.9-.428a1.743,1.743,0,0,1-.6-1.348,1.8,1.8,0,0,1,.753-1.556,3.649,3.649,0,0,1,2.153-.542h.873V-4.29a1.11,1.11,0,0,0-.275-.788,1.092,1.092,0,0,0-.838-.3,1.254,1.254,0,0,0-.8.243.753.753,0,0,0-.311.618H31.436a1.58,1.58,0,0,1,.346-.976,2.3,2.3,0,0,1,.94-.712,3.3,3.3,0,0,1,1.327-.258,2.66,2.66,0,0,1,1.775.56A2,2,0,0,1,36.5-4.33v2.859A3.241,3.241,0,0,0,36.744-.1V0ZM33.727-1.025a1.62,1.62,0,0,0,.794-.205,1.37,1.37,0,0,0,.56-.551v-1.2h-.768a2.1,2.1,0,0,0-1.189.275.892.892,0,0,0-.4.779A.832.832,0,0,0,33-1.269a1.055,1.055,0,0,0,.727.244ZM39.78-7.88v1.54H40.9v1.055H39.779v3.539a.779.779,0,0,0,.144.524.666.666,0,0,0,.513.161,2.193,2.193,0,0,0,.5-.059v1.1A3.507,3.507,0,0,1,40,.117q-1.641,0-1.641-1.811V-5.285H37.313V-6.34h1.043V-7.881Zm5,8a2.946,2.946,0,0,1-2.194-.853A3.093,3.093,0,0,1,41.745-3V-3.18a3.8,3.8,0,0,1,.366-1.7,2.787,2.787,0,0,1,1.028-1.163,2.719,2.719,0,0,1,1.477-.416,2.488,2.488,0,0,1,2,.826A3.494,3.494,0,0,1,47.322-3.3v.574H43.178A1.9,1.9,0,0,0,43.7-1.477a1.574,1.574,0,0,0,1.157.457,1.928,1.928,0,0,0,1.594-.791l.768.732A2.563,2.563,0,0,1,46.2-.2a3.183,3.183,0,0,1-1.423.317Zm-.17-5.432a1.2,1.2,0,0,0-.946.41,2.126,2.126,0,0,0-.46,1.143h2.713v-.105a1.731,1.731,0,0,0-.381-1.081,1.19,1.19,0,0,0-.929-.369Z" transform="translate(9 68)" fill="#4f6580"/><g transform="translate(87.573 10.651)" opacity="0.8"><path d="M-72.369,1144.76a3.958,3.958,0,0,0-1.487.521,3.218,3.218,0,0,1-.557.349,3.975,3.975,0,0,0-1.288,1.187,3.439,3.439,0,0,0-.694,1.4,5.114,5.114,0,0,0-.274,2.3c.07.652.062.755-.063.825-.286.16-.1,1.374.354,2.365.183.394.283.511.478.553.257.057.324.206.468,1.047a4.907,4.907,0,0,0,.271.85,2.288,2.288,0,0,1-.981,3.039,1.931,1.931,0,0,0-.613.479,3.165,3.165,0,0,1-1.687.932c-.925.283-2.77.575-3.464,1.838a7.6,7.6,0,0,0-.9,3.124,8.836,8.836,0,0,0,0,2.155,15,15,0,0,1-.524,3.489c-.3.9-1.709,4.244-1.717,4.3a3.924,3.924,0,0,1-.932,1.14c-.913.9-1.951,2.016-2.019,2.109a29.21,29.21,0,0,1-2.428,2.776c-.8.807-1.228,1.207-1.362,1.328s-.308.276-.462.418a3.146,3.146,0,0,1-.455.355,2.257,2.257,0,0,0-.224.136,1.254,1.254,0,0,1-.319.093.889.889,0,0,0-.293.09c-.035.056-.212.045-.372-.022a5.308,5.308,0,0,0-1.634-.286,1.926,1.926,0,0,0-.674,0,5.908,5.908,0,0,1-.921.076c-.949.034-1.123.056-1.123.249,0,0,.006.02.007.021a.381.381,0,0,0,.059.08h-.06a.019.019,0,0,0-.018.014c-.1.206-.123.465-.226.661-.064.12-.073.262-.064,1.113.011,1.124.022,1.092-.366,1.081a1.563,1.563,0,0,1-.8-.3.56.56,0,0,0-.581-.03c-.209.08-.221.128-.077.224a1.069,1.069,0,0,1,.355.3.809.809,0,0,0,.334.262,5.271,5.271,0,0,1,.539.324.717.717,0,0,0,.474.195,7.959,7.959,0,0,0,.94-.285.831.831,0,0,1,.555-.087,2.8,2.8,0,0,1,.572.117,2.027,2.027,0,0,0,1.114-.006,1.317,1.317,0,0,1,.286-.03c.16-.012.349-.022.368-.021a2.061,2.061,0,0,0-.2.151c0,.012-.04.045-.047.059a3.026,3.026,0,0,0-.229,2.107,5.75,5.75,0,0,0,.415,1.231.235.235,0,0,1,.062.114,1.374,1.374,0,0,0,.434.4,1.252,1.252,0,0,1,.291.216,5.307,5.307,0,0,0,1.435.776,3.648,3.648,0,0,0,.986.2,14.068,14.068,0,0,1,1.984.367,10.985,10.985,0,0,0,2.435.111c1.736.016,2.336,0,3.729-.071,1.537-.084,1.863-.088,4.418-.052a47.878,47.878,0,0,0,5.949-.142c.939-.138,7.624.343,8.086.362h0a12.52,12.52,0,0,0,1.961,0c.624-.035,5.843-.3,7.011-.456a2.968,2.968,0,0,0,.927-.2A.805.805,0,0,1-55,1192.7a4.284,4.284,0,0,0,2.967-3.021c.489-2.369-2.41-2.567-2.41-2.567-.083-.247-.1-.329-.055-.377a12.651,12.651,0,0,1,2.411-.357c.725-.028.818-.04.959-.127.244-.151.3-.4.279-1.174a3.013,3.013,0,0,0-.284-1.216.248.248,0,0,0-.219-.137.248.248,0,0,0-.222.132c-.094.163-.1.3-.088.878.008.383-.069.441-.129.5-.116.116-.184.047-.242-.247-.03-.151-.467-1.849-.507-2.021.027-.8-.884-.724-1.373-.564a1.3,1.3,0,0,1-.368.047,14.061,14.061,0,0,1-1.853.515,10.707,10.707,0,0,1-1.138-1.067c-1.152-1.43-1.817-3.035-3.032-4.373a14.85,14.85,0,0,1-1.078-2.107c-.1-.431.042-8.962-.019-9.828a7.87,7.87,0,0,0-.748-2.872,4.091,4.091,0,0,0-3.178-1.89c-.29-.209-2.4-1.364-2.663-1.49a2.509,2.509,0,0,1-1.408-2.075,1.029,1.029,0,0,1,.121-.776,6.448,6.448,0,0,0,.549-1.776c.077-.409.139-.528.315-.608a1.29,1.29,0,0,0,.427-.511,6.774,6.774,0,0,0,.558-2.234,1.993,1.993,0,0,1-.015-.614,7.91,7.91,0,0,0-.3-2.35,6.227,6.227,0,0,0-1.59-2.28,2.6,2.6,0,0,0-1.247-.6c-.493-.124-.726-.222-.709-.3s-.011-.093-.054-.067-.148-.03-.234-.125a.6.6,0,0,0-.384-.174.776.776,0,0,1-.338-.072.133.133,0,0,0-.065-.013Zm-6.568,25.344c.093.193.193.458.3.653.537,1,.514,2.317.843,3.3a15.912,15.912,0,0,1,.237,3.168c-.087.252-1.034,1.811-1.086,1.873a11.446,11.446,0,0,0-1.42,4.177c0,.24-.075.365-.424.71-.049.057-.109.115-.155.172l.055.13-.1-.083h-.01a9.706,9.706,0,0,0-1.927-.3c-.585-.8-2.3-1.054-2.315.46l-.006.01-.179.016-.006-.006a6.184,6.184,0,0,1-.69.052,5.41,5.41,0,0,0-.94.092,2.4,2.4,0,0,1-.523.068,20.183,20.183,0,0,0-3.188.771c-.536.227-.587.242-.587.161,2.029-1.361,4.007-3.074,6.065-4.244a42.269,42.269,0,0,0,3.125-3.207c.024-.065.651-1.348.858-1.994.432-1.267,1.11-2.759,1.4-3.768s.6-2.064.668-2.2c0-.008.009-.011.014-.011Zm13.446,1.8h.018a.073.073,0,0,1,.039.021c.059.06.067.151.126,1.565a19.428,19.428,0,0,0,.2,2.129c.182,1.435.242,1.706.257,1.966a1.767,1.767,0,0,0,.12.668,12.638,12.638,0,0,0,2.3,3.233c1.227.893,2.443,2.165,3.7,2.956a3.038,3.038,0,0,1,.317.271c.258.244.245.306-.048.224a21.45,21.45,0,0,0-2.48-.117c-.89.037-2.015.648-2.757.675a1.067,1.067,0,0,0-.274.063c-.457.165-.755-.054-.878-.645a13.62,13.62,0,0,0-.205-1.814,9.153,9.153,0,0,1-.3-1.311c-.221-1.353-.973-2.519-1.145-3.854a2.492,2.492,0,0,1,.016-.941c.191-1.252.543-2.421.64-3.654a2.712,2.712,0,0,1,.1-.613,1.157,1.157,0,0,0,.07-.382c0-.222.1-.429.186-.441Zm-32.159,12.7.35.019a6.012,6.012,0,0,1,.912.109,1.119,1.119,0,0,1-.048.248,2.012,2.012,0,0,0-.061.309,1.73,1.73,0,0,1-.328.422c-.321.342-.332.349-.534.349-.35,0-.406-.187-.325-1.084Z" transform="translate(100.492 -1144.747)" fill="#4f6580"/><path d="M650.943,1504.07a.687.687,0,0,0-.2.175c-.087.1-.139.175-.115.175a.7.7,0,0,0,.2-.175C650.915,1504.15,650.967,1504.07,650.943,1504.07Z" transform="translate(-643.883 -1455.614)" fill="#4f6580"/><path d="M730.917,1284.61a3.24,3.24,0,0,1-.557.349,3.976,3.976,0,0,0-1.288,1.187,5.743,5.743,0,0,0-.968,3.7,3.235,3.235,0,0,1,.036.674c.231.126.386.5.815,1.535-.266-4.306.915-2.428,1.619-4.844,1.724,1.673,5.633.378,5.823,2.447a10.235,10.235,0,0,1,.049,2.873c.09-.686.323-2.044.786-2.1a.546.546,0,0,1,.08,0,3.118,3.118,0,0,1,.014-.355,7.909,7.909,0,0,0-.3-2.35,6.225,6.225,0,0,0-1.59-2.28,2.6,2.6,0,0,0-1.247-.6c-.493-.124-.726-.222-.709-.3s-.011-.093-.054-.067-.148-.03-.235-.125a.607.607,0,0,0-.384-.174c-.125,0-.221-.07-.427-.1a3.98,3.98,0,0,0-1.463.53Z" transform="translate(-704.281 -1284.08)" fill="#4f6580"/></g></g></svg>