<svg xmlns="http://www.w3.org/2000/svg" xmlns:xlink="http://www.w3.org/1999/xlink" width="157" height="87" viewBox="0 0 157 87"><defs><filter id="a" x="0" y="0" width="157" height="87" filterUnits="userSpaceOnUse"><feOffset dy="2" input="SourceAlpha"/><feGaussianBlur stdDeviation="1.5" result="b"/><feFlood flood-opacity="0.161"/><feComposite operator="in" in2="b"/><feComposite in="SourceGraphic"/></filter></defs><g transform="translate(4.97 2.44)"><g transform="matrix(1, 0, 0, 1, -4.97, -2.44)" filter="url(#a)"><rect width="148" height="78" rx="10" transform="translate(4.5 2.5)" fill="#d6ffe3"/></g><path d="M2.35-3.164V0H.867V-8.531H4.131A3.3,3.3,0,0,1,6.4-7.786a2.5,2.5,0,0,1,.841,1.971,2.422,2.422,0,0,1-.823,1.953,3.46,3.46,0,0,1-2.306.7Zm0-1.2H4.131a1.754,1.754,0,0,0,1.207-.372,1.367,1.367,0,0,0,.416-1.075,1.475,1.475,0,0,0-.422-1.1,1.626,1.626,0,0,0-1.16-.425H2.35Zm9.369-.68a3.523,3.523,0,0,0-.58-.047,1.306,1.306,0,0,0-1.318.75V0H8.4V-6.34H9.756l.035.709a1.6,1.6,0,0,1,1.43-.826,1.333,1.333,0,0,1,.5.082ZM15.3.117a2.946,2.946,0,0,1-2.2-.852,3.093,3.093,0,0,1-.841-2.271v-.176a3.8,3.8,0,0,1,.366-1.7,2.787,2.787,0,0,1,1.028-1.163,2.719,2.719,0,0,1,1.477-.416,2.488,2.488,0,0,1,2,.826A3.494,3.494,0,0,1,17.836-3.3v.574H13.7a1.9,1.9,0,0,0,.524,1.242,1.574,1.574,0,0,0,1.157.457,1.928,1.928,0,0,0,1.594-.791l.768.732A2.563,2.563,0,0,1,16.726-.2,3.183,3.183,0,0,1,15.3.117Zm-.17-5.432a1.2,1.2,0,0,0-.946.41,2.126,2.126,0,0,0-.46,1.143h2.713v-.105a1.731,1.731,0,0,0-.381-1.081,1.19,1.19,0,0,0-.927-.366Zm9.37,2.21a3.775,3.775,0,0,1-.67,2.346,2.139,2.139,0,0,1-1.793.876,2.154,2.154,0,0,1-1.67-.686V2.438H18.943V-6.34h1.313l.059.645a2.091,2.091,0,0,1,1.705-.762,2.161,2.161,0,0,1,1.819.864,3.875,3.875,0,0,1,.659,2.4Zm-1.42-.124a2.644,2.644,0,0,0-.38-1.505,1.229,1.229,0,0,0-1.081-.557,1.31,1.31,0,0,0-1.254.721v2.813a1.322,1.322,0,0,0,1.266.738A1.227,1.227,0,0,0,22.7-1.567a2.911,2.911,0,0,0,.38-1.662ZM29.49,0a2.2,2.2,0,0,1-.164-.592,2.216,2.216,0,0,1-1.664.709A2.237,2.237,0,0,1,26.1-.428a1.743,1.743,0,0,1-.6-1.348,1.8,1.8,0,0,1,.753-1.556,3.649,3.649,0,0,1,2.153-.542h.873V-4.29A1.11,1.11,0,0,0,29-5.077a1.092,1.092,0,0,0-.838-.3,1.254,1.254,0,0,0-.8.243.753.753,0,0,0-.311.618H25.635a1.58,1.58,0,0,1,.346-.976,2.3,2.3,0,0,1,.94-.712,3.3,3.3,0,0,1,1.327-.258,2.66,2.66,0,0,1,1.775.56,2,2,0,0,1,.68,1.573V-1.47a3.241,3.241,0,0,0,.24,1.37V0ZM27.926-1.025a1.62,1.62,0,0,0,.794-.205,1.37,1.37,0,0,0,.56-.551v-1.2h-.768a2.1,2.1,0,0,0-1.189.275.892.892,0,0,0-.4.779.832.832,0,0,0,.272.653,1.055,1.055,0,0,0,.731.249Zm7.588-4.014a3.523,3.523,0,0,0-.58-.047,1.306,1.306,0,0,0-1.318.75V0H32.191V-6.34H33.55l.035.709a1.6,1.6,0,0,1,1.43-.826,1.333,1.333,0,0,1,.5.082ZM39.094.117A2.946,2.946,0,0,1,36.9-.735a3.093,3.093,0,0,1-.841-2.271v-.176a3.8,3.8,0,0,1,.366-1.7,2.787,2.787,0,0,1,1.028-1.163,2.719,2.719,0,0,1,1.477-.416,2.488,2.488,0,0,1,2,.826A3.494,3.494,0,0,1,41.636-3.3v.574H37.494a1.9,1.9,0,0,0,.524,1.242,1.574,1.574,0,0,0,1.157.457,1.928,1.928,0,0,0,1.594-.791l.768.732A2.563,2.563,0,0,1,40.521-.2a3.183,3.183,0,0,1-1.427.317Zm-.17-5.432a1.2,1.2,0,0,0-.946.41,2.126,2.126,0,0,0-.46,1.143H40.23v-.105a1.731,1.731,0,0,0-.381-1.081,1.19,1.19,0,0,0-.925-.366ZM46.23,0V-5.285h-.967V-6.34h.967v-.58a2.177,2.177,0,0,1,.586-1.629,2.244,2.244,0,0,1,1.641-.574,3.291,3.291,0,0,1,.8.105L49.219-7.9a2.8,2.8,0,0,0-.545-.047.914.914,0,0,0-.772.269.914.914,0,0,0-.248.778v.563h1.289v1.055H47.654V0Zm3.486-3.229a3.738,3.738,0,0,1,.369-1.679,2.7,2.7,0,0,1,1.037-1.148,2.922,2.922,0,0,1,1.535-.4,2.769,2.769,0,0,1,2.083.826A3.249,3.249,0,0,1,55.6-3.439l.006.334a3.772,3.772,0,0,1-.36,1.676A2.664,2.664,0,0,1,54.22-.287a2.944,2.944,0,0,1-1.55.4,2.75,2.75,0,0,1-2.147-.894,3.422,3.422,0,0,1-.806-2.382Zm1.424.123a2.555,2.555,0,0,0,.4,1.532,1.314,1.314,0,0,0,1.125.554,1.3,1.3,0,0,0,1.122-.562,2.822,2.822,0,0,0,.4-1.646,2.522,2.522,0,0,0-.413-1.523,1.319,1.319,0,0,0-1.122-.562,1.307,1.307,0,0,0-1.107.554,2.768,2.768,0,0,0-.4,1.654ZM60.134-5.04a3.523,3.523,0,0,0-.58-.047,1.306,1.306,0,0,0-1.318.75V0H56.813V-6.34h1.359l.035.709a1.6,1.6,0,0,1,1.43-.826,1.333,1.333,0,0,1,.5.082ZM4.283,14.277a.645.645,0,0,0-.313-.58,3.334,3.334,0,0,0-1.04-.352,5.346,5.346,0,0,1-1.213-.387A1.619,1.619,0,0,1,.65,11.465a1.688,1.688,0,0,1,.691-1.371A2.733,2.733,0,0,1,3.1,9.543a2.844,2.844,0,0,1,1.837.563,1.785,1.785,0,0,1,.7,1.459H4.213a.877.877,0,0,0-.3-.683A1.168,1.168,0,0,0,3.1,10.61a1.262,1.262,0,0,0-.765.217.683.683,0,0,0-.3.58.577.577,0,0,0,.275.51,3.787,3.787,0,0,0,1.113.366,5.27,5.27,0,0,1,1.315.439,1.863,1.863,0,0,1,.709.612,1.561,1.561,0,0,1,.231.867,1.652,1.652,0,0,1-.709,1.386,3.023,3.023,0,0,1-1.857.53,3.278,3.278,0,0,1-1.389-.281,2.285,2.285,0,0,1-.949-.773A1.831,1.831,0,0,1,.439,14H1.822a1,1,0,0,0,.381.776,1.48,1.48,0,0,0,.932.272,1.44,1.44,0,0,0,.855-.214.662.662,0,0,0,.293-.557Zm5.432,1.84a2.946,2.946,0,0,1-2.194-.853,3.093,3.093,0,0,1-.841-2.271v-.176a3.8,3.8,0,0,1,.366-1.7A2.787,2.787,0,0,1,8.074,9.959a2.719,2.719,0,0,1,1.477-.416,2.488,2.488,0,0,1,2,.826,3.494,3.494,0,0,1,.706,2.338v.574H8.115a1.9,1.9,0,0,0,.524,1.242A1.574,1.574,0,0,0,9.8,14.98a1.928,1.928,0,0,0,1.594-.791l.768.732a2.563,2.563,0,0,1-1.017.882,3.183,3.183,0,0,1-1.43.314Zm-.17-5.432a1.2,1.2,0,0,0-.946.41,2.126,2.126,0,0,0-.46,1.143h2.713v-.1a1.731,1.731,0,0,0-.381-1.081,1.19,1.19,0,0,0-.926-.366Zm5.6-2.566V9.66h1.119v1.055H15.146v3.539a.779.779,0,0,0,.144.524.666.666,0,0,0,.513.161,2.193,2.193,0,0,0,.5-.059v1.1a3.507,3.507,0,0,1-.937.135q-1.641,0-1.641-1.811V10.715H12.68V9.66h1.043V8.119Zm7.77,4.775a3.808,3.808,0,0,1-.659,2.35,2.147,2.147,0,0,1-1.813.873,2.068,2.068,0,0,1-1.734-.8l-.07.686H17.35V7h1.424v3.27a2.061,2.061,0,0,1,1.658-.727,2.172,2.172,0,0,1,1.822.861,3.871,3.871,0,0,1,.662,2.408Zm-1.424-.123a2.692,2.692,0,0,0-.363-1.547,1.21,1.21,0,0,0-1.055-.516,1.322,1.322,0,0,0-1.3.809V14.13a1.336,1.336,0,0,0,1.313.826,1.2,1.2,0,0,0,1.031-.5,2.608,2.608,0,0,0,.375-1.506ZM27.9,16a2.2,2.2,0,0,1-.164-.592,2.4,2.4,0,0,1-3.223.164,1.743,1.743,0,0,1-.6-1.348,1.8,1.8,0,0,1,.753-1.556,3.649,3.649,0,0,1,2.153-.542h.873V11.71a1.11,1.11,0,0,0-.275-.788,1.092,1.092,0,0,0-.838-.3,1.254,1.254,0,0,0-.8.243.753.753,0,0,0-.311.618H24.041a1.58,1.58,0,0,1,.346-.976,2.3,2.3,0,0,1,.94-.712,3.3,3.3,0,0,1,1.327-.258,2.66,2.66,0,0,1,1.775.56,2,2,0,0,1,.68,1.573v2.859a3.241,3.241,0,0,0,.24,1.365V16Zm-1.564-1.025a1.62,1.62,0,0,0,.794-.205,1.37,1.37,0,0,0,.56-.551v-1.2h-.768a2.1,2.1,0,0,0-1.189.275.892.892,0,0,0-.4.779.832.832,0,0,0,.272.653,1.055,1.055,0,0,0,.727.249Zm6.873.006a1.287,1.287,0,0,0,.885-.311,1.061,1.061,0,0,0,.375-.768h1.342a2.091,2.091,0,0,1-.369,1.1,2.421,2.421,0,0,1-.937.812,2.794,2.794,0,0,1-1.277.3,2.7,2.7,0,0,1-2.109-.861,3.416,3.416,0,0,1-.779-2.379V12.73a3.359,3.359,0,0,1,.773-2.317,2.678,2.678,0,0,1,2.109-.87,2.6,2.6,0,0,1,1.843.659,2.361,2.361,0,0,1,.747,1.731H34.465a1.3,1.3,0,0,0-.372-.9,1.2,1.2,0,0,0-.888-.352,1.253,1.253,0,0,0-1.066.5,2.556,2.556,0,0,0-.381,1.521v.229a2.6,2.6,0,0,0,.372,1.538,1.252,1.252,0,0,0,1.075.511Zm5.736-1.7-.633.65V16H36.885V7h1.424v5.191l.445-.557L40.506,9.66h1.711L39.861,12.3,42.469,16H40.822Zm7.758,1a.645.645,0,0,0-.313-.58,3.334,3.334,0,0,0-1.04-.352,5.346,5.346,0,0,1-1.213-.387,1.619,1.619,0,0,1-1.066-1.494,1.688,1.688,0,0,1,.691-1.371,2.733,2.733,0,0,1,1.758-.551,2.844,2.844,0,0,1,1.837.563,1.785,1.785,0,0,1,.7,1.459H46.629a.877.877,0,0,0-.3-.683,1.168,1.168,0,0,0-.809-.272,1.262,1.262,0,0,0-.765.217.683.683,0,0,0-.3.58.577.577,0,0,0,.275.51,3.787,3.787,0,0,0,1.113.366,5.27,5.27,0,0,1,1.315.439,1.863,1.863,0,0,1,.709.612,1.561,1.561,0,0,1,.231.867,1.652,1.652,0,0,1-.709,1.386,3.023,3.023,0,0,1-1.857.53,3.278,3.278,0,0,1-1.389-.281,2.285,2.285,0,0,1-.949-.773A1.831,1.831,0,0,1,42.855,14h1.383a1,1,0,0,0,.381.776,1.48,1.48,0,0,0,.932.272,1.44,1.44,0,0,0,.855-.214.662.662,0,0,0,.294-.557Z" transform="translate(7.528 54.056)" fill="#4a7d5b"/><g transform="translate(80.106 12.925)" opacity="0.8"><circle cx="5.05" cy="5.05" r="5.05" transform="translate(13.971 8.471) rotate(147)" fill="#4a7d5b"/><path d="M17.358,28.193A24.809,24.809,0,0,1,7.346,35.727c-3.18,1.4-5.831.073-6.783-1.658a2.476,2.476,0,0,1-.3-1.034,1.789,1.789,0,0,1-.118-.71h0V32.29A9.558,9.558,0,0,0,0,30.866,22.633,22.633,0,0,1,2.57,33.9a2.245,2.245,0,1,0,3.772-2.436l-.017-.025a25.836,25.836,0,0,0-2.476-3.055,45.85,45.85,0,0,0,6.688-4.641c-.066-.148-.132-.3-.2-.456a22.31,22.31,0,0,1-1.81-8.6A19.939,19.939,0,0,1,14.2.9a2.806,2.806,0,1,1,4.118,3.813,14.265,14.265,0,0,0-4.175,9.972,16.09,16.09,0,0,0,.827,4.975,12.266,12.266,0,0,1,2.914-2.16,11.2,11.2,0,0,1,5.275-1.3c3.345,0,7.117,1.38,11.34,4.587a2.806,2.806,0,0,1-3.392,4.471c-3.6-2.724-6.192-3.448-7.947-3.446a5.567,5.567,0,0,0-2.655.644,7.15,7.15,0,0,0-2.152,1.816,4.47,4.47,0,0,1-1,3.921Z" transform="translate(41.456 11.851) rotate(87)" fill="#4a7d5b"/><path d="M.264,2.738A1.8,1.8,0,1,1,3.446,1.071a51.664,51.664,0,0,1,4.063,9.8A37.332,37.332,0,0,0,2.042,6.408C1.545,5.288.958,4.065.264,2.738Z" transform="translate(24.72 8.102) rotate(87)" fill="#4a7d5b"/><path d="M15.047,13.531A1.8,1.8,0,0,1,12.563,13h0A31.6,31.6,0,0,0,1.089,3.454,1.8,1.8,0,1,1,2.711.248a34.857,34.857,0,0,1,12.867,10.8,1.8,1.8,0,0,1-.531,2.483Z" transform="translate(20.319 3.332) rotate(87)" fill="#4a7d5b"/><path d="M7.053,7.849a.337.337,0,0,1,.2.243L8,11.892,9.687,8.27a.337.337,0,0,1,.56-.077l1.988,2.3.018-2.6a.337.337,0,0,1,.673,0h0l-.024,3.5a.337.337,0,0,1-.591.218L10.078,9.026l-1.911,4.08a.337.337,0,0,1-.636-.078L6.68,8.7,3.3,10.77a.336.336,0,0,1-.495-.4L4.154,6.351.376,6.739A.337.337,0,0,1,.1,6.161L3.585,2.85,1.141,1.3a.337.337,0,0,1,.11-.614L4.459.007A.345.345,0,0,1,4.529,0,.337.337,0,0,1,4.6.666l-2.4.511L4.31,2.511a.337.337,0,0,1,.052.528l-3.08,2.93L4.6,5.627a.336.336,0,0,1,.353.442L3.735,9.71,6.741,7.87a.338.338,0,0,1,.312-.021Z" transform="translate(55.211 19.425) rotate(150)" fill="#4a7d5b"/></g></g></svg>