<svg xmlns="http://www.w3.org/2000/svg" xmlns:xlink="http://www.w3.org/1999/xlink" width="157" height="87" viewBox="0 0 157 87"><defs><filter id="a" x="0" y="0" width="157" height="87" filterUnits="userSpaceOnUse"><feOffset dy="2" input="SourceAlpha"/><feGaussianBlur stdDeviation="1.5" result="b"/><feFlood flood-opacity="0.161"/><feComposite operator="in" in2="b"/><feComposite in="SourceGraphic"/></filter></defs><g transform="translate(4.97 2.44)"><g transform="matrix(1, 0, 0, 1, -4.97, -2.44)" filter="url(#a)"><rect width="148" height="78" rx="10" transform="translate(4.5 2.5)" fill="#d1e5ff"/></g><path d="M5.326-2.2a1.03,1.03,0,0,0-.4-.867A4.759,4.759,0,0,0,3.5-3.68a6.89,6.89,0,0,1-1.641-.691A2.189,2.189,0,0,1,.7-6.281a2.079,2.079,0,0,1,.841-1.7,3.4,3.4,0,0,1,2.183-.668,3.687,3.687,0,0,1,1.588.328,2.606,2.606,0,0,1,1.1.935,2.4,2.4,0,0,1,.4,1.345H5.326a1.337,1.337,0,0,0-.419-1.046,1.729,1.729,0,0,0-1.2-.378,1.806,1.806,0,0,0-1.128.311,1.034,1.034,0,0,0-.4.867.935.935,0,0,0,.434.782,5,5,0,0,0,1.43.609,6.576,6.576,0,0,1,1.6.674,2.544,2.544,0,0,1,.885.867,2.258,2.258,0,0,1,.281,1.146,2.03,2.03,0,0,1-.817,1.7,3.545,3.545,0,0,1-2.218.63,4.168,4.168,0,0,1-1.7-.343,2.859,2.859,0,0,1-1.21-.95,2.358,2.358,0,0,1-.43-1.406H1.916A1.38,1.38,0,0,0,2.4-1.453a2.1,2.1,0,0,0,1.377.4A1.828,1.828,0,0,0,4.94-1.366,1.011,1.011,0,0,0,5.326-2.2Zm5.25,1.178a1.287,1.287,0,0,0,.885-.311,1.061,1.061,0,0,0,.375-.768h1.342A2.091,2.091,0,0,1,12.809-1a2.421,2.421,0,0,1-.937.812,2.794,2.794,0,0,1-1.277.3A2.7,2.7,0,0,1,8.484-.744a3.416,3.416,0,0,1-.779-2.379V-3.27a3.359,3.359,0,0,1,.773-2.317,2.678,2.678,0,0,1,2.109-.87A2.6,2.6,0,0,1,12.43-5.8a2.361,2.361,0,0,1,.747,1.731H11.836a1.3,1.3,0,0,0-.372-.9,1.2,1.2,0,0,0-.888-.352,1.253,1.253,0,0,0-1.066.5A2.556,2.556,0,0,0,9.129-3.3v.229A2.6,2.6,0,0,0,9.5-1.526a1.252,1.252,0,0,0,1.076.506Zm5.08-4.629A2.229,2.229,0,0,1,17.42-6.46q2.027,0,2.057,2.314V0H18.053V-4.09a1.252,1.252,0,0,0-.284-.929,1.162,1.162,0,0,0-.835-.272,1.372,1.372,0,0,0-1.277.762V0H14.232V-9h1.424ZM23.707.117a2.946,2.946,0,0,1-2.194-.853,3.093,3.093,0,0,1-.841-2.271v-.176a3.8,3.8,0,0,1,.366-1.7,2.787,2.787,0,0,1,1.028-1.163,2.719,2.719,0,0,1,1.477-.416,2.488,2.488,0,0,1,2,.826A3.494,3.494,0,0,1,26.249-3.3v.574H22.107a1.9,1.9,0,0,0,.524,1.242,1.574,1.574,0,0,0,1.157.457,1.928,1.928,0,0,0,1.594-.791l.768.732A2.563,2.563,0,0,1,25.134-.2a3.183,3.183,0,0,1-1.427.317Zm-.17-5.432a1.2,1.2,0,0,0-.946.41,2.126,2.126,0,0,0-.46,1.143h2.713v-.105a1.731,1.731,0,0,0-.381-1.081,1.19,1.19,0,0,0-.926-.366Zm3.551,2.1a3.769,3.769,0,0,1,.68-2.353,2.178,2.178,0,0,1,1.822-.888,2.069,2.069,0,0,1,1.629.7V-9h1.424V0H31.354l-.07-.656a2.1,2.1,0,0,1-1.7.773,2.166,2.166,0,0,1-1.8-.9,3.907,3.907,0,0,1-.691-2.434Zm1.424.123a2.639,2.639,0,0,0,.372,1.509,1.207,1.207,0,0,0,1.058.542,1.345,1.345,0,0,0,1.277-.779V-4.529a1.324,1.324,0,0,0-1.266-.762,1.216,1.216,0,0,0-1.066.548,2.939,2.939,0,0,0-.375,1.649ZM37.969-.621a2.208,2.208,0,0,1-1.781.738,1.968,1.968,0,0,1-1.562-.6,2.567,2.567,0,0,1-.53-1.746V-6.34H35.52v4.09q0,1.207,1,1.207a1.407,1.407,0,0,0,1.4-.744V-6.34h1.424V0H38ZM42.311,0H40.887V-9h1.424Zm4.342.117a2.946,2.946,0,0,1-2.194-.853,3.093,3.093,0,0,1-.841-2.271v-.176a3.8,3.8,0,0,1,.366-1.7,2.787,2.787,0,0,1,1.028-1.163,2.719,2.719,0,0,1,1.477-.416,2.488,2.488,0,0,1,2,.826A3.494,3.494,0,0,1,49.2-3.293v.574H45.053a1.9,1.9,0,0,0,.524,1.242,1.574,1.574,0,0,0,1.157.457,1.928,1.928,0,0,0,1.594-.791l.768.732A2.563,2.563,0,0,1,48.079-.2a3.183,3.183,0,0,1-1.427.317Zm-.17-5.432a1.2,1.2,0,0,0-.946.41,2.126,2.126,0,0,0-.46,1.143H47.79v-.105a1.731,1.731,0,0,0-.381-1.081,1.19,1.19,0,0,0-.927-.366ZM57.076,0a2.2,2.2,0,0,1-.164-.592,2.216,2.216,0,0,1-1.664.709,2.237,2.237,0,0,1-1.559-.545,1.743,1.743,0,0,1-.6-1.348,1.8,1.8,0,0,1,.753-1.556,3.649,3.649,0,0,1,2.153-.542h.873V-4.29a1.11,1.11,0,0,0-.275-.788,1.092,1.092,0,0,0-.838-.3,1.254,1.254,0,0,0-.8.243.753.753,0,0,0-.311.618H53.221a1.58,1.58,0,0,1,.346-.976,2.3,2.3,0,0,1,.94-.712,3.3,3.3,0,0,1,1.327-.258,2.66,2.66,0,0,1,1.775.56,2,2,0,0,1,.68,1.573v2.859A3.241,3.241,0,0,0,58.529-.1V0ZM55.512-1.025a1.62,1.62,0,0,0,.794-.205,1.37,1.37,0,0,0,.56-.551v-1.2H56.1a2.1,2.1,0,0,0-1.189.275.892.892,0,0,0-.4.779.832.832,0,0,0,.272.653A1.055,1.055,0,0,0,55.512-1.025Zm-53,9.145V9.66H3.633v1.055H2.514v3.539a.779.779,0,0,0,.144.524.666.666,0,0,0,.513.161,2.193,2.193,0,0,0,.5-.059v1.1a3.507,3.507,0,0,1-.937.135q-1.641,0-1.641-1.811V10.715H.047V9.66H1.09V8.119Zm6,7.88a2.2,2.2,0,0,1-.164-.592,2.216,2.216,0,0,1-1.664.709,2.237,2.237,0,0,1-1.559-.545,1.743,1.743,0,0,1-.6-1.348,1.8,1.8,0,0,1,.753-1.556,3.649,3.649,0,0,1,2.153-.542H8.3V11.71a1.11,1.11,0,0,0-.275-.788,1.092,1.092,0,0,0-.838-.3,1.254,1.254,0,0,0-.8.243.753.753,0,0,0-.311.618H4.652A1.58,1.58,0,0,1,5,10.513,2.3,2.3,0,0,1,5.94,9.8a3.3,3.3,0,0,1,1.327-.258,2.66,2.66,0,0,1,1.775.56,2,2,0,0,1,.68,1.573v2.859a3.241,3.241,0,0,0,.24,1.365V16ZM6.943,14.975a1.62,1.62,0,0,0,.794-.205,1.37,1.37,0,0,0,.56-.551v-1.2H7.529A2.1,2.1,0,0,0,6.34,13.3a.892.892,0,0,0-.4.779.832.832,0,0,0,.272.653A1.055,1.055,0,0,0,6.943,14.975Zm7.822-.7a.645.645,0,0,0-.313-.58,3.334,3.334,0,0,0-1.04-.352,5.346,5.346,0,0,1-1.213-.387,1.619,1.619,0,0,1-1.066-1.494,1.688,1.688,0,0,1,.691-1.371,2.733,2.733,0,0,1,1.758-.551,2.844,2.844,0,0,1,1.837.563,1.785,1.785,0,0,1,.7,1.459H14.7a.877.877,0,0,0-.3-.683,1.168,1.168,0,0,0-.809-.272,1.262,1.262,0,0,0-.765.217.683.683,0,0,0-.3.58.577.577,0,0,0,.275.51,3.787,3.787,0,0,0,1.113.366,5.27,5.27,0,0,1,1.315.439,1.863,1.863,0,0,1,.709.612,1.561,1.561,0,0,1,.231.867,1.652,1.652,0,0,1-.709,1.386,3.023,3.023,0,0,1-1.857.53,3.278,3.278,0,0,1-1.389-.281,2.285,2.285,0,0,1-.949-.773A1.831,1.831,0,0,1,10.922,14H12.3a1,1,0,0,0,.381.776,1.48,1.48,0,0,0,.932.272,1.44,1.44,0,0,0,.855-.214.662.662,0,0,0,.3-.557Zm4.7-1-.633.65V16H17.408V7h1.424v5.191l.445-.557L21.029,9.66H22.74L20.385,12.3,22.992,16H21.346Z" transform="translate(7.528 53.056)" fill="#3d616e"/><g transform="translate(92.327 13.422)" opacity="0.8"><path d="M31.944,50.913V84.156A2.143,2.143,0,0,1,29.78,86.32H2.164A2.022,2.022,0,0,1,0,84.243V50.913a2.143,2.143,0,0,1,2.164-2.164H29.78A2.2,2.2,0,0,1,31.944,50.913Z" transform="translate(0.001 -44.853)" fill="#4d7e90"/><rect width="24.499" height="30.473" transform="translate(3.724 7.359)" fill="#c8e9f5"/><path d="M125.766,9.666V4.9a1.183,1.183,0,0,0-1.212-1.212h-2.77A2.975,2.975,0,0,0,118.84.749a2.9,2.9,0,0,0-2.857,2.943h-2.77A1.183,1.183,0,0,0,112,4.9V9.666Zm-6.839-7.012a1.039,1.039,0,1,1-1.039,1.039,1,1,0,0,1,1.039-1.039Z" transform="translate(-102.91 -0.749)" fill="#3d6777"/><path d="M70.619,156.82a.748.748,0,0,1-.519-.26l-1.9-1.9a.735.735,0,0,1,1.039-1.039l1.3,1.3,2.77-2.77a.735.735,0,1,1,1.039,1.039l-3.2,3.463a.928.928,0,0,1-.529.167Z" transform="translate(-61.48 -139.679)" fill="#4d7e90"/><path d="M70.619,265.533a.749.749,0,0,1-.519-.26l-1.9-1.9a.79.79,0,0,1,0-1.039,1.065,1.065,0,0,1,1.125.087l1.3,1.3,2.77-2.77a.735.735,0,1,1,1.039,1.039l-3.29,3.376C71.052,265.533,70.792,265.533,70.619,265.533Z" transform="translate(-61.48 -239.648)" fill="#4d7e90"/><path d="M70.619,374.333a.748.748,0,0,1-.519-.26l-1.9-1.9a.735.735,0,1,1,1.039-1.039l1.385,1.385,2.77-2.77a.735.735,0,1,1,1.039,1.039l-3.29,3.29a.617.617,0,0,1-.524.255Z" transform="translate(-61.48 -339.618)" fill="#4d7e90"/></g><g transform="translate(116.815 34.171)"><rect width="3.117" height="2.21" transform="translate(14.214 21.215) rotate(84)" fill="#4d7e90"/><path d="M11.9.093a4.9,4.9,0,0,1,2.833.283l-9.35,12.58A22.2,22.2,0,0,1,0,18.114H0a22.983,22.983,0,0,1,3.4-6.63Z" transform="translate(23.129 13.248) rotate(137)" fill="#5f8fa1"/><rect width="2.21" height="2.437" transform="translate(10.717 10.016) rotate(-96)" fill="#4d7e90"/><path d="M0,1.127l1.077.793L1.7,1.07A.639.639,0,0,0,1.587.163h0A.652.652,0,0,0,.623.276Z" transform="translate(14.902 25.199) rotate(137)" fill="#5f8fa1"/><path d="M4.986.857l-.34.453L3.794.687l-2.6,3.287c.227.283.057.51-.17.85s-.567.567-.907.283h0a.28.28,0,0,1-.057-.4L3.46.117A.28.28,0,0,1,3.86.06Z" transform="translate(18.069 20.87) rotate(137)" fill="#4d7e90"/></g></g></svg>