<svg xmlns="http://www.w3.org/2000/svg" xmlns:xlink="http://www.w3.org/1999/xlink" width="157" height="87" viewBox="0 0 157 87"><defs><filter id="a" x="0" y="0" width="157" height="87" filterUnits="userSpaceOnUse"><feOffset dy="2" input="SourceAlpha"/><feGaussianBlur stdDeviation="1.5" result="b"/><feFlood flood-opacity="0.161"/><feComposite operator="in" in2="b"/><feComposite in="SourceGraphic"/></filter></defs><g transform="translate(-158.502 190.44)"><g transform="translate(163.002 -187.94)"><g transform="matrix(1, 0, 0, 1, -4.5, -2.5)" filter="url(#a)"><rect width="148" height="78" rx="10" transform="translate(4.5 2.5)" fill="#ffefef"/></g><path d="M5.326-2.2a1.03,1.03,0,0,0-.4-.867A4.759,4.759,0,0,0,3.5-3.68a6.89,6.89,0,0,1-1.641-.691A2.189,2.189,0,0,1,.7-6.281a2.079,2.079,0,0,1,.841-1.7,3.4,3.4,0,0,1,2.183-.668,3.687,3.687,0,0,1,1.588.328,2.606,2.606,0,0,1,1.1.935,2.4,2.4,0,0,1,.4,1.345H5.326a1.337,1.337,0,0,0-.419-1.046,1.729,1.729,0,0,0-1.2-.378,1.806,1.806,0,0,0-1.128.311,1.034,1.034,0,0,0-.4.867.935.935,0,0,0,.434.782,5,5,0,0,0,1.43.609,6.576,6.576,0,0,1,1.6.674,2.544,2.544,0,0,1,.885.867,2.258,2.258,0,0,1,.281,1.146,2.03,2.03,0,0,1-.817,1.7,3.545,3.545,0,0,1-2.218.63,4.168,4.168,0,0,1-1.7-.343,2.859,2.859,0,0,1-1.21-.95,2.358,2.358,0,0,1-.43-1.406H1.916A1.38,1.38,0,0,0,2.4-1.453a2.1,2.1,0,0,0,1.377.4A1.828,1.828,0,0,0,4.94-1.366,1.011,1.011,0,0,0,5.326-2.2ZM10.764.117A2.946,2.946,0,0,1,8.569-.735a3.093,3.093,0,0,1-.841-2.271v-.176a3.8,3.8,0,0,1,.366-1.7A2.787,2.787,0,0,1,9.123-6.041,2.719,2.719,0,0,1,10.6-6.457a2.488,2.488,0,0,1,2,.826,3.494,3.494,0,0,1,.706,2.338v.574H9.164a1.9,1.9,0,0,0,.524,1.242,1.574,1.574,0,0,0,1.157.457,1.928,1.928,0,0,0,1.594-.791l.768.732A2.563,2.563,0,0,1,12.19-.2a3.183,3.183,0,0,1-1.426.317Zm-.17-5.432a1.2,1.2,0,0,0-.946.41,2.126,2.126,0,0,0-.46,1.143H11.9v-.105a1.731,1.731,0,0,0-.381-1.081,1.19,1.19,0,0,0-.925-.366ZM17.2.117a2.946,2.946,0,0,1-2.194-.853,3.093,3.093,0,0,1-.841-2.271v-.176a3.8,3.8,0,0,1,.366-1.7,2.787,2.787,0,0,1,1.028-1.163,2.719,2.719,0,0,1,1.477-.416,2.488,2.488,0,0,1,2,.826A3.494,3.494,0,0,1,19.742-3.3v.574H15.6a1.9,1.9,0,0,0,.524,1.242,1.574,1.574,0,0,0,1.157.457,1.928,1.928,0,0,0,1.594-.791l.768.732A2.563,2.563,0,0,1,18.63-.2,3.183,3.183,0,0,1,17.2.117Zm-.17-5.432a1.2,1.2,0,0,0-.946.41,2.126,2.126,0,0,0-.46,1.143H18.34v-.105a1.731,1.731,0,0,0-.381-1.081,1.19,1.19,0,0,0-.926-.366Zm5.877,2.6-.633.65V0h-1.42V-9h1.424v5.191l.445-.557L24.475-6.34h1.711L23.83-3.7,26.438,0H24.791Zm6.926-.51A3.738,3.738,0,0,1,30.2-4.9a2.7,2.7,0,0,1,1.037-1.148,2.922,2.922,0,0,1,1.535-.4,2.769,2.769,0,0,1,2.083.826,3.249,3.249,0,0,1,.864,2.191l.006.334a3.772,3.772,0,0,1-.36,1.676A2.664,2.664,0,0,1,34.339-.287a2.944,2.944,0,0,1-1.55.4,2.75,2.75,0,0,1-2.147-.894,3.422,3.422,0,0,1-.806-2.382Zm1.424.123a2.555,2.555,0,0,0,.4,1.532,1.314,1.314,0,0,0,1.125.554A1.3,1.3,0,0,0,33.9-1.578a2.822,2.822,0,0,0,.4-1.646,2.522,2.522,0,0,0-.4-1.528,1.319,1.319,0,0,0-1.122-.562,1.307,1.307,0,0,0-1.107.554A2.768,2.768,0,0,0,31.26-3.1ZM40.775-.621a2.208,2.208,0,0,1-1.781.738,1.968,1.968,0,0,1-1.562-.6,2.567,2.567,0,0,1-.53-1.746V-6.34h1.424v4.09q0,1.207,1,1.207a1.407,1.407,0,0,0,1.4-.744V-6.34H42.15V0H40.811Zm4.611-7.26V-6.34h1.119v1.055H45.387v3.539a.779.779,0,0,0,.144.524.666.666,0,0,0,.513.161,2.193,2.193,0,0,0,.5-.059v1.1A3.507,3.507,0,0,1,45.6.117q-1.641,0-1.641-1.811V-5.285H42.92V-6.34h1.043V-7.881ZM4.283,14.277a.645.645,0,0,0-.313-.58,3.334,3.334,0,0,0-1.04-.352,5.346,5.346,0,0,1-1.213-.387A1.619,1.619,0,0,1,.65,11.465a1.688,1.688,0,0,1,.691-1.371A2.733,2.733,0,0,1,3.1,9.543a2.844,2.844,0,0,1,1.837.563,1.785,1.785,0,0,1,.7,1.459H4.213a.877.877,0,0,0-.3-.683A1.168,1.168,0,0,0,3.1,10.61a1.262,1.262,0,0,0-.765.217.683.683,0,0,0-.3.58.577.577,0,0,0,.275.51,3.787,3.787,0,0,0,1.113.366,5.27,5.27,0,0,1,1.315.439,1.863,1.863,0,0,1,.709.612,1.561,1.561,0,0,1,.231.867,1.652,1.652,0,0,1-.709,1.386,3.023,3.023,0,0,1-1.857.53,3.278,3.278,0,0,1-1.389-.281,2.285,2.285,0,0,1-.949-.773A1.831,1.831,0,0,1,.439,14H1.822a1,1,0,0,0,.381.776,1.48,1.48,0,0,0,.932.272,1.44,1.44,0,0,0,.855-.214.662.662,0,0,0,.293-.557Zm2.373-1.506a3.738,3.738,0,0,1,.369-1.679A2.7,2.7,0,0,1,8.063,9.944a2.922,2.922,0,0,1,1.535-.4,2.769,2.769,0,0,1,2.083.826,3.249,3.249,0,0,1,.864,2.191l.006.334a3.772,3.772,0,0,1-.36,1.676,2.664,2.664,0,0,1-1.031,1.143,2.944,2.944,0,0,1-1.55.4,2.75,2.75,0,0,1-2.147-.894,3.422,3.422,0,0,1-.806-2.382Zm1.424.123a2.555,2.555,0,0,0,.4,1.532,1.314,1.314,0,0,0,1.125.554,1.3,1.3,0,0,0,1.122-.562,2.822,2.822,0,0,0,.4-1.646,2.522,2.522,0,0,0-.413-1.523,1.392,1.392,0,0,0-2.229-.009,2.768,2.768,0,0,0-.4,1.655ZM15.27,16H13.846V7H15.27Zm5.391-.621a2.208,2.208,0,0,1-1.781.738,1.968,1.968,0,0,1-1.562-.6,2.567,2.567,0,0,1-.53-1.746V9.66h1.424v4.09q0,1.207,1,1.207a1.407,1.407,0,0,0,1.4-.744V9.66h1.424V16H20.7Zm4.611-7.26V9.66h1.119v1.055h-1.12v3.539a.779.779,0,0,0,.144.524.666.666,0,0,0,.513.161,2.193,2.193,0,0,0,.5-.059v1.1a3.507,3.507,0,0,1-.937.135q-1.641,0-1.641-1.811V10.715H22.8V9.66h1.043V8.119ZM28.992,16H27.568V9.66h1.424ZM27.48,8.014a.756.756,0,0,1,.208-.545.786.786,0,0,1,.595-.217.8.8,0,0,1,.6.217.75.75,0,0,1,.211.545.733.733,0,0,1-.211.536.8.8,0,0,1-.6.214.792.792,0,0,1-.595-.214A.738.738,0,0,1,27.48,8.014Zm2.8,4.758a3.738,3.738,0,0,1,.369-1.679,2.7,2.7,0,0,1,1.037-1.148,2.922,2.922,0,0,1,1.535-.4,2.769,2.769,0,0,1,2.083.826,3.249,3.249,0,0,1,.864,2.191l.006.334a3.772,3.772,0,0,1-.36,1.676,2.664,2.664,0,0,1-1.031,1.143,2.944,2.944,0,0,1-1.55.4,2.75,2.75,0,0,1-2.147-.894,3.422,3.422,0,0,1-.806-2.382Zm1.424.123a2.555,2.555,0,0,0,.4,1.532,1.314,1.314,0,0,0,1.125.554,1.3,1.3,0,0,0,1.122-.562,2.822,2.822,0,0,0,.4-1.646,2.522,2.522,0,0,0-.413-1.523,1.392,1.392,0,0,0-2.229-.009,2.768,2.768,0,0,0-.4,1.654Zm7-3.234.041.732a2.28,2.28,0,0,1,1.846-.85q1.98,0,2.016,2.268V16H41.174V11.893A1.306,1.306,0,0,0,40.913,11a1.1,1.1,0,0,0-.853-.29,1.372,1.372,0,0,0-1.283.779V16H37.354V9.66Zm8.9,4.616a.645.645,0,0,0-.313-.58,3.334,3.334,0,0,0-1.04-.352,5.346,5.346,0,0,1-1.213-.387,1.619,1.619,0,0,1-1.066-1.494,1.688,1.688,0,0,1,.691-1.371,2.733,2.733,0,0,1,1.758-.551,2.844,2.844,0,0,1,1.837.563,1.785,1.785,0,0,1,.7,1.459H47.531a.877.877,0,0,0-.3-.683,1.168,1.168,0,0,0-.809-.272,1.262,1.262,0,0,0-.765.217.683.683,0,0,0-.3.58.577.577,0,0,0,.275.51,3.787,3.787,0,0,0,1.113.366,5.27,5.27,0,0,1,1.315.439,1.863,1.863,0,0,1,.709.612A1.561,1.561,0,0,1,49,14.2a1.652,1.652,0,0,1-.709,1.386,3.023,3.023,0,0,1-1.857.53,3.278,3.278,0,0,1-1.389-.281,2.285,2.285,0,0,1-.949-.773A1.831,1.831,0,0,1,43.758,14h1.383a1,1,0,0,0,.381.776,1.48,1.48,0,0,0,.932.272,1.44,1.44,0,0,0,.855-.214.662.662,0,0,0,.291-.557Z" transform="translate(7.998 52.996)" fill="#884c3f"/><g transform="translate(87.998 13.177)" opacity="0.8"><path d="M16.369,157.707v-3.714a3.65,3.65,0,0,1-3.852-3.714,3.543,3.543,0,0,1,3.852-3.576v-3.714H9.491a4.823,4.823,0,0,0,.825-1.926,2.063,2.063,0,0,0-4.127,0,4.622,4.622,0,0,0,.688,1.926H0v13.618a1.183,1.183,0,0,0,1.1,1.1Z" transform="translate(0 -116.166)" fill="#884c3f" fill-rule="evenodd"/><path d="M122.867,168H118.6a3.66,3.66,0,1,1-7.29,0H106.5v5.777a8.9,8.9,0,0,0-1.788-.55c-2.614,0-2.614,4.127,0,4.127a4.482,4.482,0,0,0,1.788-.55v5.915h15.269a1.183,1.183,0,0,0,1.1-1.1Z" transform="translate(-88.616 -141.177)" fill="#884c3f" fill-rule="evenodd"/><path d="M0,64.718H4.677a3.6,3.6,0,1,1,7.153,0h4.539v-6.19a6.485,6.485,0,0,0,2.063.825c2.751,0,2.751-4.264,0-4.264a6.085,6.085,0,0,0-2.063.688V50H1.1A1.183,1.183,0,0,0,0,51.1Z" transform="translate(0 -39.408)" fill="#884c3f" fill-rule="evenodd"/><path d="M16.369,14.718V1.1A1.213,1.213,0,0,0,15.131,0H0V3.576a3.6,3.6,0,1,1,0,7.153v3.989H6.878a8.9,8.9,0,0,0-.55,1.788c0,2.751,4.264,2.751,4.264,0A4.806,4.806,0,0,0,9.9,14.718Z" transform="matrix(0.899, 0.438, -0.438, 0.899, 28.282, 0)" fill="#884c3f" fill-rule="evenodd"/></g></g></g></svg>