<svg xmlns="http://www.w3.org/2000/svg" xmlns:xlink="http://www.w3.org/1999/xlink" width="157" height="87" viewBox="0 0 157 87"><defs><filter id="a" x="0" y="0" width="157" height="87" filterUnits="userSpaceOnUse"><feOffset dy="2" input="SourceAlpha"/><feGaussianBlur stdDeviation="1.5" result="b"/><feFlood flood-opacity="0.161"/><feComposite operator="in" in2="b"/><feComposite in="SourceGraphic"/></filter></defs><g transform="translate(4.5 2.44)"><g transform="translate(0 0.06)"><g transform="matrix(1, 0, 0, 1, -4.5, -2.5)" filter="url(#a)"><rect width="148" height="78" rx="10" transform="translate(4.5 2.5)" fill="#fff4e5"/></g><path d="M5.326-2.2a1.03,1.03,0,0,0-.4-.867A4.759,4.759,0,0,0,3.5-3.68a6.89,6.89,0,0,1-1.641-.691A2.189,2.189,0,0,1,.7-6.281a2.079,2.079,0,0,1,.841-1.7,3.4,3.4,0,0,1,2.183-.668,3.687,3.687,0,0,1,1.588.328,2.606,2.606,0,0,1,1.1.935,2.4,2.4,0,0,1,.4,1.345H5.326a1.337,1.337,0,0,0-.419-1.046,1.729,1.729,0,0,0-1.2-.378,1.806,1.806,0,0,0-1.128.311,1.034,1.034,0,0,0-.4.867.935.935,0,0,0,.434.782,5,5,0,0,0,1.43.609,6.576,6.576,0,0,1,1.6.674,2.544,2.544,0,0,1,.885.867,2.258,2.258,0,0,1,.281,1.146,2.03,2.03,0,0,1-.817,1.7,3.545,3.545,0,0,1-2.218.63,4.168,4.168,0,0,1-1.7-.343,2.859,2.859,0,0,1-1.21-.95,2.358,2.358,0,0,1-.43-1.406H1.916A1.38,1.38,0,0,0,2.4-1.453a2.1,2.1,0,0,0,1.377.4A1.828,1.828,0,0,0,4.94-1.366,1.011,1.011,0,0,0,5.326-2.2ZM10.764.117A2.946,2.946,0,0,1,8.569-.735a3.093,3.093,0,0,1-.841-2.271v-.176a3.8,3.8,0,0,1,.366-1.7A2.787,2.787,0,0,1,9.123-6.041,2.719,2.719,0,0,1,10.6-6.457a2.488,2.488,0,0,1,2,.826,3.494,3.494,0,0,1,.706,2.338v.574H9.164a1.9,1.9,0,0,0,.524,1.242,1.574,1.574,0,0,0,1.157.457,1.928,1.928,0,0,0,1.594-.791l.768.732A2.563,2.563,0,0,1,12.19-.2a3.183,3.183,0,0,1-1.426.317Zm-.17-5.432a1.2,1.2,0,0,0-.946.41,2.126,2.126,0,0,0-.46,1.143H11.9v-.105a1.731,1.731,0,0,0-.381-1.081,1.19,1.19,0,0,0-.925-.366Zm5.6-2.566V-6.34h1.119v1.055H16.2v3.539a.779.779,0,0,0,.144.524.666.666,0,0,0,.513.161,2.193,2.193,0,0,0,.5-.059v1.1a3.507,3.507,0,0,1-.937.135q-1.641,0-1.641-1.811V-5.285h-1.05V-6.34h1.043V-7.881Zm8.748,6.158a.645.645,0,0,0-.313-.58,3.334,3.334,0,0,0-1.04-.352,5.346,5.346,0,0,1-1.213-.387A1.619,1.619,0,0,1,21.31-4.536,1.688,1.688,0,0,1,22-5.906a2.733,2.733,0,0,1,1.758-.551,2.844,2.844,0,0,1,1.837.563,1.785,1.785,0,0,1,.7,1.459H24.873a.877.877,0,0,0-.3-.683,1.168,1.168,0,0,0-.809-.272A1.262,1.262,0,0,0,23-5.174a.683.683,0,0,0-.3.58.577.577,0,0,0,.275.51,3.787,3.787,0,0,0,1.113.366,5.27,5.27,0,0,1,1.315.439,1.863,1.863,0,0,1,.709.612,1.561,1.561,0,0,1,.231.867,1.652,1.652,0,0,1-.709,1.386,3.023,3.023,0,0,1-1.857.53,3.278,3.278,0,0,1-1.389-.281,2.285,2.285,0,0,1-.949-.773A1.831,1.831,0,0,1,21.1-2h1.383a1,1,0,0,0,.381.776,1.48,1.48,0,0,0,.932.272,1.44,1.44,0,0,0,.855-.214.662.662,0,0,0,.292-.557Zm2.373-1.506a3.738,3.738,0,0,1,.369-1.679,2.7,2.7,0,0,1,1.037-1.148,2.922,2.922,0,0,1,1.535-.4,2.769,2.769,0,0,1,2.083.826A3.249,3.249,0,0,1,33.2-3.439l.006.334a3.772,3.772,0,0,1-.36,1.676,2.664,2.664,0,0,1-1.03,1.142,2.944,2.944,0,0,1-1.55.4,2.75,2.75,0,0,1-2.147-.894,3.422,3.422,0,0,1-.806-2.382Zm1.424.123a2.555,2.555,0,0,0,.4,1.532,1.314,1.314,0,0,0,1.125.554,1.3,1.3,0,0,0,1.122-.562,2.822,2.822,0,0,0,.4-1.646,2.522,2.522,0,0,0-.413-1.523,1.319,1.319,0,0,0-1.122-.562,1.307,1.307,0,0,0-1.107.554,2.768,2.768,0,0,0-.4,1.654ZM35.754-6.34l.041.662a2.281,2.281,0,0,1,1.828-.779,1.753,1.753,0,0,1,1.74.973,2.249,2.249,0,0,1,1.945-.973,1.977,1.977,0,0,1,1.562.58,2.554,2.554,0,0,1,.524,1.711V0H41.971V-4.125a1.261,1.261,0,0,0-.264-.885,1.154,1.154,0,0,0-.873-.281,1.185,1.185,0,0,0-.794.261,1.375,1.375,0,0,0-.431.683L39.615,0H38.191V-4.172a1.016,1.016,0,0,0-.3-.838,1.016,1.016,0,0,0-.844-.281,1.253,1.253,0,0,0-1.213.7V0H34.412V-6.34ZM47.648.117a2.946,2.946,0,0,1-2.194-.853,3.093,3.093,0,0,1-.841-2.271v-.176a3.8,3.8,0,0,1,.366-1.7,2.787,2.787,0,0,1,1.028-1.163,2.719,2.719,0,0,1,1.477-.416,2.488,2.488,0,0,1,2,.826A3.494,3.494,0,0,1,50.19-3.3v.574H46.049a1.9,1.9,0,0,0,.524,1.242,1.574,1.574,0,0,0,1.157.457,1.928,1.928,0,0,0,1.594-.791l.768.732A2.563,2.563,0,0,1,49.075-.2a3.183,3.183,0,0,1-1.427.317Zm-.17-5.432a1.2,1.2,0,0,0-.946.41,2.126,2.126,0,0,0-.46,1.143h2.713v-.105A1.731,1.731,0,0,0,48.4-4.948a1.19,1.19,0,0,0-.921-.366Zm-47,18.1a3.708,3.708,0,0,1,.694-2.358,2.229,2.229,0,0,1,1.843-.882,2.088,2.088,0,0,1,1.7.756l.064-.639H6.07v6.146a2.555,2.555,0,0,1-.776,1.969A2.957,2.957,0,0,1,3.2,18.5a3.376,3.376,0,0,1-1.362-.29,2.421,2.421,0,0,1-1.011-.759L1.5,16.6a2.035,2.035,0,0,0,1.617.779,1.573,1.573,0,0,0,1.119-.384,1.471,1.471,0,0,0,.41-1.128v-.428a2.1,2.1,0,0,1-1.641.686,2.223,2.223,0,0,1-1.819-.885A3.828,3.828,0,0,1,.48,12.783Zm1.418.123a2.552,2.552,0,0,0,.39,1.5,1.253,1.253,0,0,0,1.081.548,1.37,1.37,0,0,0,1.277-.738V11.43a1.351,1.351,0,0,0-1.266-.721,1.258,1.258,0,0,0-1.093.557,2.858,2.858,0,0,0-.385,1.64Zm5.367-.135a3.738,3.738,0,0,1,.369-1.679,2.7,2.7,0,0,1,1.04-1.15,2.922,2.922,0,0,1,1.535-.4,2.769,2.769,0,0,1,2.083.826,3.249,3.249,0,0,1,.864,2.191l.006.334a3.772,3.772,0,0,1-.36,1.676,2.664,2.664,0,0,1-1.031,1.143,2.944,2.944,0,0,1-1.55.4,2.75,2.75,0,0,1-2.147-.894,3.422,3.422,0,0,1-.806-2.382Zm1.424.123a2.555,2.555,0,0,0,.4,1.532,1.314,1.314,0,0,0,1.125.554,1.3,1.3,0,0,0,1.122-.562,2.822,2.822,0,0,0,.4-1.646,2.522,2.522,0,0,0-.413-1.523A1.392,1.392,0,0,0,9.1,11.239a2.768,2.768,0,0,0-.411,1.656ZM18.152,16a2.2,2.2,0,0,1-.164-.592,2.4,2.4,0,0,1-3.223.164,1.743,1.743,0,0,1-.6-1.348,1.8,1.8,0,0,1,.753-1.556,3.649,3.649,0,0,1,2.153-.542h.873V11.71a1.11,1.11,0,0,0-.275-.788,1.092,1.092,0,0,0-.838-.3,1.254,1.254,0,0,0-.8.243.753.753,0,0,0-.311.618H14.3a1.58,1.58,0,0,1,.346-.976,2.3,2.3,0,0,1,.94-.712,3.3,3.3,0,0,1,1.327-.258,2.66,2.66,0,0,1,1.775.56,2,2,0,0,1,.68,1.573v2.859a3.241,3.241,0,0,0,.24,1.365V16Zm-1.564-1.025a1.62,1.62,0,0,0,.794-.205,1.37,1.37,0,0,0,.56-.551v-1.2h-.768a2.1,2.1,0,0,0-1.189.275.892.892,0,0,0-.4.779.832.832,0,0,0,.272.653,1.055,1.055,0,0,0,.731.249ZM22.371,16H20.947V7h1.424Zm5.1-1.723a.645.645,0,0,0-.313-.58,3.334,3.334,0,0,0-1.04-.352,5.346,5.346,0,0,1-1.213-.387,1.619,1.619,0,0,1-1.066-1.494,1.688,1.688,0,0,1,.691-1.371,2.733,2.733,0,0,1,1.758-.551,2.844,2.844,0,0,1,1.837.563,1.785,1.785,0,0,1,.7,1.459H27.4a.877.877,0,0,0-.3-.683,1.168,1.168,0,0,0-.809-.272,1.262,1.262,0,0,0-.765.217.683.683,0,0,0-.3.58.577.577,0,0,0,.275.51,3.787,3.787,0,0,0,1.113.366,5.27,5.27,0,0,1,1.315.439,1.863,1.863,0,0,1,.709.612,1.561,1.561,0,0,1,.231.867,1.652,1.652,0,0,1-.709,1.386,3.023,3.023,0,0,1-1.857.53,3.278,3.278,0,0,1-1.389-.281,2.285,2.285,0,0,1-.949-.773A1.831,1.831,0,0,1,23.631,14h1.383a1,1,0,0,0,.381.776,1.48,1.48,0,0,0,.932.272,1.44,1.44,0,0,0,.855-.214.662.662,0,0,0,.293-.557Z" transform="translate(8 52.996)" fill="#7b6e50"/><g transform="translate(87.697 12.957)" opacity="0.8"><path d="M-15292.665-2747.034l0,0h-6.208a.844.844,0,0,1-.727-.426.848.848,0,0,1,.02-.837l10.475-17.018h0a.836.836,0,0,1,.711-.4.815.815,0,0,1,.7.4l3.142,5.1,8.278-13.453v-15.768a.75.75,0,0,1,.748-.753.754.754,0,0,1,.753.753v.412c2.215.671,4.248-.082,6.278-.838,2.227-.825,4.458-1.655,6.935-.6a.172.172,0,0,1,.107.157v8.252a.186.186,0,0,1-.077.146.171.171,0,0,1-.161.015c-2.423-.971-4.611-.161-6.8.653-2.034.753-4.064,1.508-6.282.838v6.736l16.38,26.626Zm36.97,0-9.454-15.366,1.794-2.914a.833.833,0,0,1,.71-.4.82.82,0,0,1,.7.4l10.476,17.018a.808.808,0,0,1,.011.837.812.812,0,0,1-.722.426Z" transform="translate(15299.697 2790.957)" fill="#837759"/><path d="M276.983,291.182l-11.248,18.282h22.426a.83.83,0,0,0,.707-1.265L278.4,291.182a.83.83,0,0,0-1.417,0Z" transform="translate(-240.641 -265.544)" fill="#837759"/></g></g></g></svg>