<svg xmlns="http://www.w3.org/2000/svg" xmlns:xlink="http://www.w3.org/1999/xlink" width="157" height="87" viewBox="0 0 157 87"><defs><filter id="a" x="0" y="0" width="157" height="87" filterUnits="userSpaceOnUse"><feOffset dy="2" input="SourceAlpha"/><feGaussianBlur stdDeviation="1.5" result="b"/><feFlood flood-opacity="0.161"/><feComposite operator="in" in2="b"/><feComposite in="SourceGraphic"/></filter></defs><g transform="translate(4.5 2.44)"><g transform="translate(0 0.06)"><g transform="matrix(1, 0, 0, 1, -4.5, -2.5)" filter="url(#a)"><rect width="148" height="78" rx="10" transform="translate(4.5 2.5)" fill="#ffe8e8"/></g><path d="M5.326-2.2a1.03,1.03,0,0,0-.4-.867A4.759,4.759,0,0,0,3.5-3.68a6.89,6.89,0,0,1-1.641-.691A2.189,2.189,0,0,1,.7-6.281a2.079,2.079,0,0,1,.841-1.7,3.4,3.4,0,0,1,2.183-.668,3.687,3.687,0,0,1,1.588.328,2.606,2.606,0,0,1,1.1.935,2.4,2.4,0,0,1,.4,1.345H5.326a1.337,1.337,0,0,0-.419-1.046,1.729,1.729,0,0,0-1.2-.378,1.806,1.806,0,0,0-1.128.311,1.034,1.034,0,0,0-.4.867.935.935,0,0,0,.434.782,5,5,0,0,0,1.43.609,6.576,6.576,0,0,1,1.6.674,2.544,2.544,0,0,1,.885.867,2.258,2.258,0,0,1,.281,1.146,2.03,2.03,0,0,1-.817,1.7,3.545,3.545,0,0,1-2.218.63,4.168,4.168,0,0,1-1.7-.343,2.859,2.859,0,0,1-1.21-.95,2.358,2.358,0,0,1-.43-1.406H1.916A1.38,1.38,0,0,0,2.4-1.453a2.1,2.1,0,0,0,1.377.4A1.828,1.828,0,0,0,4.94-1.366,1.011,1.011,0,0,0,5.326-2.2ZM9.375-5.648a2.229,2.229,0,0,1,1.764-.809q2.027,0,2.057,2.314V0H11.771V-4.09a1.252,1.252,0,0,0-.284-.929,1.162,1.162,0,0,0-.835-.272,1.372,1.372,0,0,0-1.277.762V0H7.951V-9H9.375ZM18.422,0a2.2,2.2,0,0,1-.164-.592,2.216,2.216,0,0,1-1.664.709,2.237,2.237,0,0,1-1.559-.545,1.743,1.743,0,0,1-.6-1.348,1.8,1.8,0,0,1,.753-1.556,3.649,3.649,0,0,1,2.153-.542h.873V-4.29a1.11,1.11,0,0,0-.275-.788,1.092,1.092,0,0,0-.838-.3,1.254,1.254,0,0,0-.8.243.753.753,0,0,0-.311.618H14.566a1.58,1.58,0,0,1,.346-.976,2.3,2.3,0,0,1,.94-.712,3.3,3.3,0,0,1,1.327-.258,2.66,2.66,0,0,1,1.775.56,2,2,0,0,1,.68,1.573v2.859A3.241,3.241,0,0,0,19.875-.1V0ZM16.857-1.025a1.62,1.62,0,0,0,.794-.205,1.37,1.37,0,0,0,.56-.551v-1.2h-.768a2.1,2.1,0,0,0-1.189.275.892.892,0,0,0-.4.779.832.832,0,0,0,.272.653,1.055,1.055,0,0,0,.731.249Zm7.588-4.014a3.523,3.523,0,0,0-.58-.047,1.306,1.306,0,0,0-1.318.75V0H21.123V-6.34h1.359l.035.709a1.6,1.6,0,0,1,1.43-.826,1.333,1.333,0,0,1,.5.082ZM28.025.117a2.946,2.946,0,0,1-2.194-.853,3.093,3.093,0,0,1-.841-2.271v-.176a3.8,3.8,0,0,1,.366-1.7,2.787,2.787,0,0,1,1.028-1.163,2.719,2.719,0,0,1,1.477-.416,2.488,2.488,0,0,1,2,.826A3.494,3.494,0,0,1,30.567-3.3v.574H26.426a1.9,1.9,0,0,0,.524,1.242,1.574,1.574,0,0,0,1.157.457A1.928,1.928,0,0,0,29.7-1.811l.768.732A2.563,2.563,0,0,1,29.452-.2a3.183,3.183,0,0,1-1.427.317Zm-.17-5.432a1.2,1.2,0,0,0-.946.41,2.126,2.126,0,0,0-.46,1.143h2.713v-.105a1.731,1.731,0,0,0-.381-1.081,1.19,1.19,0,0,0-.926-.366ZM36-6.34l.041.662a2.281,2.281,0,0,1,1.828-.779,1.753,1.753,0,0,1,1.74.973,2.249,2.249,0,0,1,1.945-.973,1.977,1.977,0,0,1,1.562.58,2.554,2.554,0,0,1,.524,1.711V0H42.217V-4.125a1.261,1.261,0,0,0-.264-.885,1.154,1.154,0,0,0-.873-.281,1.185,1.185,0,0,0-.794.261,1.375,1.375,0,0,0-.431.683L39.861,0H38.438V-4.172a1.016,1.016,0,0,0-.3-.838,1.016,1.016,0,0,0-.844-.281,1.253,1.253,0,0,0-1.213.7V0H34.658V-6.34Zm11.32,4.3,1.289-4.3h1.518L47.607.96a2.048,2.048,0,0,1-1.969,1.6,2.538,2.538,0,0,1-.686-.106V1.348l.27.018a1.386,1.386,0,0,0,.812-.2A1.3,1.3,0,0,0,46.465.51l.205-.544L44.443-6.34h1.535ZM4.283,14.277a.645.645,0,0,0-.313-.58,3.334,3.334,0,0,0-1.04-.352,5.346,5.346,0,0,1-1.213-.387A1.619,1.619,0,0,1,.65,11.465a1.688,1.688,0,0,1,.691-1.371A2.733,2.733,0,0,1,3.1,9.543a2.844,2.844,0,0,1,1.837.563,1.785,1.785,0,0,1,.7,1.459H4.213a.877.877,0,0,0-.3-.683A1.168,1.168,0,0,0,3.1,10.61a1.262,1.262,0,0,0-.765.217.683.683,0,0,0-.3.58.577.577,0,0,0,.275.51,3.787,3.787,0,0,0,1.113.366,5.27,5.27,0,0,1,1.315.439,1.863,1.863,0,0,1,.709.612,1.561,1.561,0,0,1,.231.867,1.652,1.652,0,0,1-.709,1.386,3.023,3.023,0,0,1-1.857.53,3.278,3.278,0,0,1-1.389-.281,2.285,2.285,0,0,1-.949-.773A1.831,1.831,0,0,1,.439,14H1.822a1,1,0,0,0,.381.776,1.48,1.48,0,0,0,.932.272,1.44,1.44,0,0,0,.855-.214.662.662,0,0,0,.293-.557ZM8.707,8.119V9.66H9.826v1.055H8.707v3.539a.779.779,0,0,0,.144.524.666.666,0,0,0,.513.161,2.193,2.193,0,0,0,.5-.059v1.1a3.507,3.507,0,0,1-.937.135q-1.641,0-1.641-1.811V10.715H6.24V9.66H7.283V8.119Zm5.525,2.842a3.523,3.523,0,0,0-.58-.047,1.306,1.306,0,0,0-1.318.75V16H10.91V9.66h1.36l.035.709a1.6,1.6,0,0,1,1.43-.826,1.333,1.333,0,0,1,.5.082Zm4.74,4.418a2.208,2.208,0,0,1-1.781.738,1.968,1.968,0,0,1-1.562-.6,2.567,2.567,0,0,1-.53-1.746V9.66h1.424v4.09q0,1.207,1,1.207a1.407,1.407,0,0,0,1.4-.744V9.66H20.35V16H19.008Zm2.578-2.6a3.708,3.708,0,0,1,.694-2.358,2.229,2.229,0,0,1,1.843-.882,2.088,2.088,0,0,1,1.705.756l.064-.639h1.283V15.8a2.555,2.555,0,0,1-.776,1.969,2.957,2.957,0,0,1-2.095.721,3.376,3.376,0,0,1-1.362-.29,2.421,2.421,0,0,1-1.011-.759l.674-.855a2.035,2.035,0,0,0,1.617.779,1.573,1.573,0,0,0,1.119-.384,1.471,1.471,0,0,0,.41-1.128v-.428a2.1,2.1,0,0,1-1.641.686,2.223,2.223,0,0,1-1.819-.885,3.828,3.828,0,0,1-.7-2.445Zm1.418.123a2.552,2.552,0,0,0,.39,1.5,1.253,1.253,0,0,0,1.081.548,1.37,1.37,0,0,0,1.277-.738V11.43a1.351,1.351,0,0,0-1.266-.721,1.258,1.258,0,0,0-1.093.557,2.858,2.858,0,0,0-.388,1.64Zm5.385-.123a3.708,3.708,0,0,1,.694-2.358,2.229,2.229,0,0,1,1.843-.882,2.088,2.088,0,0,1,1.71.761l.064-.639h1.283v6.146a2.555,2.555,0,0,1-.776,1.969,2.957,2.957,0,0,1-2.095.721,3.376,3.376,0,0,1-1.362-.29,2.421,2.421,0,0,1-1.011-.759l.674-.855a2.035,2.035,0,0,0,1.617.779,1.573,1.573,0,0,0,1.119-.384,1.471,1.471,0,0,0,.41-1.128v-.428a2.1,2.1,0,0,1-1.641.686,2.223,2.223,0,0,1-1.819-.885,3.828,3.828,0,0,1-.709-2.45Zm1.418.123a2.552,2.552,0,0,0,.39,1.5,1.253,1.253,0,0,0,1.081.548,1.37,1.37,0,0,0,1.277-.738V11.43a1.351,1.351,0,0,0-1.266-.721,1.258,1.258,0,0,0-1.093.557,2.858,2.858,0,0,0-.389,1.64ZM36.92,16H35.5V7h1.42Zm4.342.117a2.946,2.946,0,0,1-2.194-.853,3.093,3.093,0,0,1-.841-2.271v-.176a3.8,3.8,0,0,1,.366-1.7,2.787,2.787,0,0,1,1.028-1.163A2.719,2.719,0,0,1,41.1,9.543a2.488,2.488,0,0,1,2,.826,3.494,3.494,0,0,1,.706,2.338v.574H39.662a1.9,1.9,0,0,0,.524,1.242,1.574,1.574,0,0,0,1.157.457,1.928,1.928,0,0,0,1.594-.791l.768.732a2.563,2.563,0,0,1-1.017.882,3.183,3.183,0,0,1-1.426.314Zm-.17-5.432a1.2,1.2,0,0,0-.946.41,2.126,2.126,0,0,0-.46,1.143H42.4v-.1a1.731,1.731,0,0,0-.381-1.081,1.19,1.19,0,0,0-.927-.366Zm7.371,3.592a.645.645,0,0,0-.313-.58,3.334,3.334,0,0,0-1.04-.352,5.346,5.346,0,0,1-1.213-.387,1.619,1.619,0,0,1-1.066-1.494,1.688,1.688,0,0,1,.691-1.371,2.733,2.733,0,0,1,1.758-.551,2.844,2.844,0,0,1,1.837.563,1.785,1.785,0,0,1,.7,1.459H48.393a.877.877,0,0,0-.3-.683,1.168,1.168,0,0,0-.809-.272,1.262,1.262,0,0,0-.765.217.683.683,0,0,0-.3.58.577.577,0,0,0,.275.51,3.787,3.787,0,0,0,1.113.366,5.27,5.27,0,0,1,1.315.439,1.863,1.863,0,0,1,.709.612,1.561,1.561,0,0,1,.231.867,1.652,1.652,0,0,1-.709,1.386,3.023,3.023,0,0,1-1.857.53,3.278,3.278,0,0,1-1.389-.281,2.285,2.285,0,0,1-.949-.773A1.831,1.831,0,0,1,44.619,14H46a1,1,0,0,0,.381.776,1.48,1.48,0,0,0,.932.272,1.44,1.44,0,0,0,.855-.214.662.662,0,0,0,.295-.557Z" transform="translate(8 52.996)" fill="#825b5b"/><g transform="translate(89.985 20.686)" opacity="0.8"><g transform="translate(0 17.028) rotate(-4.992)"><path d="M.144.178A1.265,1.265,0,0,1,.966-.037,3.057,3.057,0,0,1,2.009.382C2.1.428,6.854,4.865,7.081,5.066a7.534,7.534,0,0,0-.921.259Q4.831,4.083,3.488,2.858a6.215,6.215,0,0,0-2.1-1.449A2.3,2.3,0,0,0,.118,1.332,2.843,2.843,0,0,1,.144.178Z" transform="translate(0.343)" fill="#8a5656"/><path d="M0,.176A1.966,1.966,0,0,1,.609,0,1.887,1.887,0,0,1,1.887.642c.682.634,3.608,3.667,4.03,4.09a5.639,5.639,0,0,0-.9.107c-.209-.171-.4-.363-.6-.546C3.505,3.435,2.6,2.568,1.688,1.709,1.26,1.307.831.9.394.512.264.4.135.283,0,.176Z" transform="translate(2.53 0.198)" fill="#8a5656"/><path d="M0,.009A1.192,1.192,0,0,1,.448.04C.571.086,4.456,3.821,4.693,4.113c-.208,0-.418.015-.626.005C3.536,3.587,3,3.063,2.468,2.532,1.755,1.812,1.041,1.091.336.363.224.245.109.13,0,.009Z" transform="translate(4.514 0.803)" fill="#8a5656"/><path d="M.434.031A8.194,8.194,0,0,1,1.257,0a1.282,1.282,0,0,1,.49.116,6.082,6.082,0,0,1,.845.437,2.6,2.6,0,0,1,.391.274c.452.392.89.8,1.332,1.2.7.641,1.393,1.28,2.081,1.929a3.223,3.223,0,0,0-.769.384,1.162,1.162,0,0,0-.249,1.445c.048.162.455,1.248,2.308,1.662.4.041,9.447.4,9.459.26a25.534,25.534,0,0,0-3.836-.223c-1.636-.046-5.086-.164-5.576-.227-2.374-.548-2.257-2.075-2.067-2.45a2.788,2.788,0,0,1,1.474-.881A8.168,8.168,0,0,1,8.7,3.7c.253,0,5.332.372,7.514-.335.308-.088,5.154-1.985,5.947-2.109a13.37,13.37,0,0,1,2.852-.142c1.2.052,5.18,1.358,6.854,3.33q-2.476,3.439-4.957,6.874a23.091,23.091,0,0,0-3.59-.63c-.786.2-9.119,2.451-9.613,2.433a1.738,1.738,0,0,1-.816-.246C12.5,12.633,5.543,7.519,5.061,7.1a7.309,7.309,0,0,1-.745-.792C3.622,5.487,2.954,4.644,2.3,3.794c-.453-.583-.9-1.17-1.326-1.767C.7,1.642.425,1.256.182.851A1.6,1.6,0,0,1,0,.466,1.426,1.426,0,0,1,.434.031Z" transform="translate(0 1.408)" fill="#8a5656"/><path d="M7.483.475c.034.052,7.058,3.153,7.044,3.207,0,0-.385,5.6-.745,8.511a8.456,8.456,0,0,1-1.988,4.818C11.356,16.542.977,9.28.568,8.783A.868.868,0,0,1,.163,7.647Q2.8,4.012,5.417.37a.6.6,0,0,1,.638-.39A4.989,4.989,0,0,1,7.483.475Z" transform="translate(26.993 5.75)" fill="#8a5656"/></g><path d="M17.217,1.628A5.028,5.028,0,0,0,13.477,0a4.7,4.7,0,0,0-2.938,1.014,6.011,6.011,0,0,0-1.188,1.24,6.008,6.008,0,0,0-1.188-1.24A4.7,4.7,0,0,0,5.224,0a5.029,5.029,0,0,0-3.74,1.628A5.845,5.845,0,0,0,0,5.62C.1,11.5,7.872,15.7,8.63,16.366a1.1,1.1,0,0,0,1.446,0c.757-.662,8.534-5.52,8.624-10.746a5.845,5.845,0,0,0-1.483-3.992Zm0,0" transform="translate(4.454)" fill="#8a5656"/></g></g></g></svg>