<svg xmlns="http://www.w3.org/2000/svg" xmlns:xlink="http://www.w3.org/1999/xlink" width="155" height="87" viewBox="0 0 155 87"><defs><filter id="a" x="0" y="0" width="155" height="87" filterUnits="userSpaceOnUse"><feOffset dy="2" input="SourceAlpha"/><feGaussianBlur stdDeviation="1.5" result="b"/><feFlood flood-opacity="0.161"/><feComposite operator="in" in2="b"/><feComposite in="SourceGraphic"/></filter><linearGradient id="c" x1="0.491" y1="-0.587" x2="0.472" y2="-2.403" gradientUnits="objectBoundingBox"><stop offset="0" stop-color="#fba5c2" stop-opacity="0"/><stop offset="1" stop-color="#a34a9e"/></linearGradient><linearGradient id="d" x1="0.491" y1="0.344" x2="0.47" y2="0" xlink:href="#c"/></defs><g transform="translate(-13335.5 -2135.5)"><g transform="translate(-1590 600)"><g transform="translate(14908.003 1191.999)"><g transform="translate(21.547 346.151)"><g transform="matrix(1, 0, 0, 1, -4.05, -2.65)" filter="url(#a)"><rect width="146" height="78" rx="10" transform="translate(4.5 2.5)" fill="#246e6c"/></g></g><path d="M7.031-7.336H4.371V0H2.9V-7.336H.264v-1.2H7.031ZM10.816,0a2.2,2.2,0,0,1-.164-.592A2.216,2.216,0,0,1,8.988.117,2.237,2.237,0,0,1,7.43-.428a1.743,1.743,0,0,1-.6-1.348,1.8,1.8,0,0,1,.753-1.556,3.649,3.649,0,0,1,2.153-.542h.873v-.416a1.11,1.11,0,0,0-.275-.788,1.092,1.092,0,0,0-.838-.3,1.254,1.254,0,0,0-.8.243.753.753,0,0,0-.311.618H6.961a1.58,1.58,0,0,1,.346-.976,2.3,2.3,0,0,1,.94-.712,3.3,3.3,0,0,1,1.327-.258,2.66,2.66,0,0,1,1.775.56,2,2,0,0,1,.68,1.573v2.859A3.241,3.241,0,0,0,12.27-.1V0ZM9.252-1.025a1.62,1.62,0,0,0,.794-.205,1.37,1.37,0,0,0,.56-.551v-1.2H9.838A2.1,2.1,0,0,0,8.648-2.7a.892.892,0,0,0-.4.779.832.832,0,0,0,.272.653A1.055,1.055,0,0,0,9.252-1.025ZM15.58-2.719l-.633.65V0H13.523V-9h1.424v5.191l.445-.557L17.145-6.34h1.711L16.5-3.7,19.107,0H17.461Zm7,2.836a2.946,2.946,0,0,1-2.194-.853,3.093,3.093,0,0,1-.841-2.271v-.176a3.8,3.8,0,0,1,.366-1.7,2.787,2.787,0,0,1,1.028-1.163,2.719,2.719,0,0,1,1.477-.416,2.488,2.488,0,0,1,2,.826,3.494,3.494,0,0,1,.706,2.338v.574H20.977A1.9,1.9,0,0,0,21.5-1.477a1.574,1.574,0,0,0,1.157.457,1.928,1.928,0,0,0,1.594-.791l.768.732A2.563,2.563,0,0,1,24-.2,3.183,3.183,0,0,1,22.576.117Zm-.17-5.432a1.2,1.2,0,0,0-.946.41A2.126,2.126,0,0,0,21-3.762h2.713v-.105a1.731,1.731,0,0,0-.381-1.081A1.19,1.19,0,0,0,22.406-5.314ZM33,0a2.2,2.2,0,0,1-.164-.592,2.216,2.216,0,0,1-1.664.709,2.237,2.237,0,0,1-1.559-.545,1.743,1.743,0,0,1-.6-1.348,1.8,1.8,0,0,1,.753-1.556,3.649,3.649,0,0,1,2.153-.542h.873v-.416a1.11,1.11,0,0,0-.275-.788,1.092,1.092,0,0,0-.838-.3,1.254,1.254,0,0,0-.8.243.753.753,0,0,0-.311.618H29.145a1.58,1.58,0,0,1,.346-.976,2.3,2.3,0,0,1,.94-.712,3.3,3.3,0,0,1,1.327-.258,2.66,2.66,0,0,1,1.775.56,2,2,0,0,1,.68,1.573v2.859A3.241,3.241,0,0,0,34.453-.1V0ZM31.436-1.025a1.62,1.62,0,0,0,.794-.205,1.37,1.37,0,0,0,.56-.551v-1.2h-.768a2.1,2.1,0,0,0-1.189.275.892.892,0,0,0-.4.779.832.832,0,0,0,.272.653A1.055,1.055,0,0,0,31.436-1.025Zm12.82-2.08A3.808,3.808,0,0,1,43.6-.756a2.147,2.147,0,0,1-1.813.873,2.068,2.068,0,0,1-1.734-.8L39.979,0H38.689V-9h1.424v3.27a2.061,2.061,0,0,1,1.658-.727,2.172,2.172,0,0,1,1.822.861,3.871,3.871,0,0,1,.662,2.408Zm-1.424-.123a2.692,2.692,0,0,0-.363-1.547,1.21,1.21,0,0,0-1.055-.516,1.322,1.322,0,0,0-1.3.809v2.613a1.336,1.336,0,0,0,1.313.826,1.2,1.2,0,0,0,1.031-.5,2.608,2.608,0,0,0,.375-1.506Zm5.936-1.811a3.523,3.523,0,0,0-.58-.047,1.306,1.306,0,0,0-1.318.75V0H45.445V-6.34H46.8l.035.709a1.6,1.6,0,0,1,1.43-.826,1.333,1.333,0,0,1,.5.082ZM52.459.117a2.946,2.946,0,0,1-2.194-.853,3.093,3.093,0,0,1-.841-2.271v-.176a3.8,3.8,0,0,1,.366-1.7,2.787,2.787,0,0,1,1.028-1.163,2.719,2.719,0,0,1,1.477-.416,2.488,2.488,0,0,1,2,.826A3.494,3.494,0,0,1,55-3.293v.574H50.859a1.9,1.9,0,0,0,.524,1.242,1.574,1.574,0,0,0,1.157.457,1.928,1.928,0,0,0,1.594-.791l.768.732A2.563,2.563,0,0,1,53.886-.2,3.183,3.183,0,0,1,52.459.117Zm-.17-5.432a1.2,1.2,0,0,0-.946.41,2.126,2.126,0,0,0-.46,1.143H53.6v-.105a1.731,1.731,0,0,0-.381-1.081A1.19,1.19,0,0,0,52.289-5.314ZM59.895,0a2.2,2.2,0,0,1-.164-.592,2.216,2.216,0,0,1-1.664.709,2.237,2.237,0,0,1-1.559-.545,1.743,1.743,0,0,1-.6-1.348,1.8,1.8,0,0,1,.753-1.556,3.649,3.649,0,0,1,2.153-.542h.873v-.416a1.11,1.11,0,0,0-.275-.788,1.092,1.092,0,0,0-.838-.3,1.254,1.254,0,0,0-.8.243.753.753,0,0,0-.311.618H56.039a1.58,1.58,0,0,1,.346-.976,2.3,2.3,0,0,1,.94-.712,3.3,3.3,0,0,1,1.327-.258,2.66,2.66,0,0,1,1.775.56,2,2,0,0,1,.68,1.573v2.859A3.241,3.241,0,0,0,61.348-.1V0ZM58.33-1.025a1.62,1.62,0,0,0,.794-.205,1.37,1.37,0,0,0,.56-.551v-1.2h-.768a2.1,2.1,0,0,0-1.189.275.892.892,0,0,0-.4.779.832.832,0,0,0,.272.653A1.055,1.055,0,0,0,58.33-1.025Zm6.328-1.693-.633.65V0H62.6V-9h1.424v5.191l.445-.557L66.223-6.34h1.711L65.578-3.7,68.186,0H66.539ZM1.23,16V10.715H.264V9.66H1.23V9.08a2.177,2.177,0,0,1,.586-1.629,2.244,2.244,0,0,1,1.641-.574,3.291,3.291,0,0,1,.8.105L4.219,8.1a2.8,2.8,0,0,0-.545-.047A.914.914,0,0,0,2.654,9.1V9.66H3.943v1.055H2.654V16ZM8.3,10.961a3.523,3.523,0,0,0-.58-.047,1.306,1.306,0,0,0-1.318.75V16H4.98V9.66H6.34l.035.709A1.6,1.6,0,0,1,7.8,9.543a1.333,1.333,0,0,1,.5.082Zm.422,1.811a3.738,3.738,0,0,1,.369-1.679,2.7,2.7,0,0,1,1.037-1.148,2.922,2.922,0,0,1,1.535-.4,2.769,2.769,0,0,1,2.083.826,3.249,3.249,0,0,1,.864,2.191l.006.334a3.772,3.772,0,0,1-.36,1.676,2.664,2.664,0,0,1-1.031,1.143,2.944,2.944,0,0,1-1.55.4,2.75,2.75,0,0,1-2.147-.894,3.422,3.422,0,0,1-.806-2.382Zm1.424.123a2.555,2.555,0,0,0,.4,1.532,1.314,1.314,0,0,0,1.125.554,1.3,1.3,0,0,0,1.122-.562,2.822,2.822,0,0,0,.4-1.646,2.522,2.522,0,0,0-.413-1.523,1.392,1.392,0,0,0-2.229-.009A2.768,2.768,0,0,0,10.148,12.895ZM17.162,9.66l.041.662a2.281,2.281,0,0,1,1.828-.779,1.753,1.753,0,0,1,1.74.973,2.249,2.249,0,0,1,1.945-.973,1.977,1.977,0,0,1,1.562.58,2.554,2.554,0,0,1,.524,1.711V16H23.379V11.875a1.261,1.261,0,0,0-.264-.885,1.154,1.154,0,0,0-.873-.281,1.185,1.185,0,0,0-.794.261,1.375,1.375,0,0,0-.431.683L21.023,16H19.6V11.828a1.016,1.016,0,0,0-1.143-1.119,1.253,1.253,0,0,0-1.213.7V16H15.82V9.66Zm18.92,4.23,1.313-6.422h1.471L36.9,16H35.479L33.855,9.771,32.2,16H30.773L28.8,7.469h1.471l1.324,6.41,1.629-6.41h1.242ZM41.326,16H39.9V9.66h1.424ZM39.814,8.014a.756.756,0,0,1,.208-.545.786.786,0,0,1,.595-.217.8.8,0,0,1,.6.217.75.75,0,0,1,.211.545.733.733,0,0,1-.211.536.8.8,0,0,1-.6.214.792.792,0,0,1-.595-.214A.738.738,0,0,1,39.814,8.014ZM44.391,16H42.967V7h1.424Zm3.064,0H46.031V7h1.424Zm1.688,0V7.469h2.924a3.57,3.57,0,0,1,2.2.58,2.043,2.043,0,0,1,.756,1.729,1.842,1.842,0,0,1-.316,1.055,2.037,2.037,0,0,1-.926.727,1.883,1.883,0,0,1,1.069.706,2.056,2.056,0,0,1,.378,1.245,2.271,2.271,0,0,1-.771,1.846A3.35,3.35,0,0,1,52.254,16Zm1.482-3.85v2.666h1.646a1.593,1.593,0,0,0,1.09-.346,1.213,1.213,0,0,0,.393-.961,1.217,1.217,0,0,0-1.359-1.359Zm0-1.09h1.453a1.68,1.68,0,0,0,1.081-.313,1.074,1.074,0,0,0,.39-.888,1.089,1.089,0,0,0-.36-.914,1.82,1.82,0,0,0-1.122-.281H50.625Zm5.684,1.711a3.738,3.738,0,0,1,.369-1.679,2.7,2.7,0,0,1,1.037-1.148,2.922,2.922,0,0,1,1.535-.4,2.769,2.769,0,0,1,2.083.826,3.249,3.249,0,0,1,.864,2.191l.006.334a3.772,3.772,0,0,1-.36,1.676,2.664,2.664,0,0,1-1.031,1.143,2.944,2.944,0,0,1-1.55.4,2.75,2.75,0,0,1-2.147-.894,3.422,3.422,0,0,1-.806-2.382Zm1.424.123a2.555,2.555,0,0,0,.4,1.532,1.314,1.314,0,0,0,1.125.554,1.3,1.3,0,0,0,1.122-.562,2.822,2.822,0,0,0,.4-1.646,2.522,2.522,0,0,0-.413-1.523,1.392,1.392,0,0,0-2.229-.009A2.768,2.768,0,0,0,57.732,12.895Zm7.459-4.775V9.66h1.119v1.055H65.191v3.539a.779.779,0,0,0,.144.524.666.666,0,0,0,.513.161,2.193,2.193,0,0,0,.5-.059v1.1a3.507,3.507,0,0,1-.937.135q-1.641,0-1.641-1.811V10.715H62.725V9.66h1.043V8.119Z" transform="translate(32 397.001)" fill="#fff"/><g transform="translate(118.667 373.232) rotate(-37)"><path d="M.04,0A.11.11,0,0,1,0,0,.129.129,0,0,0,.04,0Z" transform="translate(9.283 12.518)" fill="url(#c)"/><path d="M0,.011A.112.112,0,0,0,.03,0,.084.084,0,0,1,0,.011Z" transform="translate(9.341 12.505)" fill="url(#d)"/></g></g></g><g transform="translate(4 -1)"><g transform="translate(13452.061 2167.851)"><path d="M422.565,313.685H419a.772.772,0,0,1-.772-.772v-8.828a.772.772,0,0,1,.772-.772h3.56a5.186,5.186,0,1,1,0,10.371Zm-2.788-1.544h2.788a3.642,3.642,0,1,0,0-7.284h-2.788Z" transform="translate(-418.233 -303.314)" fill="#f4fbff"/></g><path d="M225.281,295.565h-5.541a9.078,9.078,0,0,1-9.078-9.078v-9.631a.4.4,0,0,1,.4-.4h22.9a.4.4,0,0,1,.4.4v9.631A9.078,9.078,0,0,1,225.281,295.565Z" transform="translate(13220.357 1888.674)" fill="#f4fbff"/><path d="M210.768,467.342H194.691a6.828,6.828,0,0,1-5.041-1.8l-.028-.033c-.211-.246.1-.533.582-.533h25.051c.479,0,.793.287.582.533l-.028.033A6.828,6.828,0,0,1,210.768,467.342Z" transform="translate(13240.374 1718.173)" fill="#f4fbff"/><path d="M163.087,7.826a3.274,3.274,0,0,0-3.27,3.27v2.278H161.8V11.1a1.287,1.287,0,0,1,1.285-1.285H172.2a7.835,7.835,0,0,0,7.826-7.826V0h-1.985V1.984A5.848,5.848,0,0,1,172.2,7.826Z" transform="translate(13280.68 2149.126)" fill="#f4fbff"/><path d="M92.945,11.389a5.848,5.848,0,0,1,5.841-5.841H107.9a3.274,3.274,0,0,0,3.27-3.27V0h-1.985V2.278A1.287,1.287,0,0,1,107.9,3.563H98.786a7.835,7.835,0,0,0-7.826,7.826v1.984h1.985Z" transform="translate(13344.981 2149.126)" fill="#f4fbff"/></g></g></svg>