<svg xmlns="http://www.w3.org/2000/svg" xmlns:xlink="http://www.w3.org/1999/xlink" width="157" height="87" viewBox="0 0 157 87"><defs><filter id="a" x="0" y="0" width="157" height="87" filterUnits="userSpaceOnUse"><feOffset dy="2" input="SourceAlpha"/><feGaussianBlur stdDeviation="1.5" result="b"/><feFlood flood-opacity="0.161"/><feComposite operator="in" in2="b"/><feComposite in="SourceGraphic"/></filter></defs><g transform="translate(4.5 2.44)"><g transform="matrix(1, 0, 0, 1, -4.5, -2.44)" filter="url(#a)"><rect width="148" height="78" rx="10" transform="translate(4.5 2.5)" fill="#e3f8c9"/></g><path d="M7.031-7.336H4.371V0H2.9V-7.336H.264v-1.2H7.031ZM10.816,0a2.2,2.2,0,0,1-.164-.592A2.216,2.216,0,0,1,8.988.117,2.237,2.237,0,0,1,7.43-.428a1.743,1.743,0,0,1-.6-1.348,1.8,1.8,0,0,1,.753-1.556,3.649,3.649,0,0,1,2.153-.542h.873V-4.29a1.11,1.11,0,0,0-.275-.788,1.092,1.092,0,0,0-.838-.3,1.254,1.254,0,0,0-.8.243.753.753,0,0,0-.311.618H6.961a1.58,1.58,0,0,1,.346-.976,2.3,2.3,0,0,1,.94-.712,3.3,3.3,0,0,1,1.327-.258,2.66,2.66,0,0,1,1.775.56,2,2,0,0,1,.68,1.573v2.859A3.241,3.241,0,0,0,12.27-.1V0ZM9.252-1.025a1.62,1.62,0,0,0,.794-.205,1.37,1.37,0,0,0,.56-.551v-1.2H9.838a2.1,2.1,0,0,0-1.19.281.892.892,0,0,0-.4.779.832.832,0,0,0,.272.653,1.055,1.055,0,0,0,.732.243ZM15.035,0H13.611V-9h1.424Zm3.609-2.719-.633.65V0H16.588V-9h1.424v5.191l.445-.557L20.209-6.34H21.92L19.564-3.7,22.172,0H20.525ZM29.625,0a2.2,2.2,0,0,1-.164-.592A2.216,2.216,0,0,1,27.8.117a2.237,2.237,0,0,1-1.559-.545,1.743,1.743,0,0,1-.6-1.348,1.8,1.8,0,0,1,.753-1.556,3.649,3.649,0,0,1,2.153-.542h.873V-4.29a1.11,1.11,0,0,0-.275-.788,1.092,1.092,0,0,0-.838-.3,1.254,1.254,0,0,0-.8.243.753.753,0,0,0-.311.618H25.77a1.58,1.58,0,0,1,.346-.976,2.3,2.3,0,0,1,.94-.712,3.3,3.3,0,0,1,1.327-.258,2.66,2.66,0,0,1,1.775.56,2,2,0,0,1,.68,1.573v2.859A3.241,3.241,0,0,0,31.078-.1V0ZM28.061-1.025a1.62,1.62,0,0,0,.794-.205,1.37,1.37,0,0,0,.56-.551v-1.2h-.768a2.1,2.1,0,0,0-1.189.275.892.892,0,0,0-.4.779.832.832,0,0,0,.272.653,1.055,1.055,0,0,0,.731.249Zm9.832-2.08a3.808,3.808,0,0,1-.659,2.35A2.147,2.147,0,0,1,35.42.117a2.068,2.068,0,0,1-1.734-.8L33.615,0H32.326V-9H33.75v3.27a2.061,2.061,0,0,1,1.658-.727A2.172,2.172,0,0,1,37.23-5.6a3.871,3.871,0,0,1,.662,2.408Zm-1.424-.123a2.692,2.692,0,0,0-.363-1.547,1.21,1.21,0,0,0-1.055-.516,1.322,1.322,0,0,0-1.3.809v2.613a1.336,1.336,0,0,0,1.313.826,1.2,1.2,0,0,0,1.031-.5,2.608,2.608,0,0,0,.375-1.506Zm2.35,0a3.738,3.738,0,0,1,.369-1.679,2.7,2.7,0,0,1,1.037-1.148,2.922,2.922,0,0,1,1.535-.4,2.769,2.769,0,0,1,2.083.826,3.249,3.249,0,0,1,.864,2.191l.006.334a3.772,3.772,0,0,1-.36,1.676A2.664,2.664,0,0,1,43.321-.287a2.944,2.944,0,0,1-1.55.4,2.75,2.75,0,0,1-2.147-.894,3.422,3.422,0,0,1-.806-2.382Zm1.424.123a2.555,2.555,0,0,0,.4,1.532,1.314,1.314,0,0,0,1.125.554,1.3,1.3,0,0,0,1.122-.562,2.822,2.822,0,0,0,.4-1.646,2.522,2.522,0,0,0-.413-1.523,1.319,1.319,0,0,0-1.122-.562,1.307,1.307,0,0,0-1.107.554,2.768,2.768,0,0,0-.406,1.653ZM49.758-.621a2.208,2.208,0,0,1-1.781.738,1.968,1.968,0,0,1-1.562-.6,2.567,2.567,0,0,1-.53-1.746V-6.34h1.424v4.09q0,1.207,1,1.207a1.407,1.407,0,0,0,1.4-.744V-6.34h1.424V0h-1.34Zm4.611-7.26V-6.34h1.119v1.055H54.369v3.539a.779.779,0,0,0,.144.524.666.666,0,0,0,.513.161,2.193,2.193,0,0,0,.5-.059v1.1a3.507,3.507,0,0,1-.937.135q-1.641,0-1.641-1.811V-5.285H51.9V-6.34h1.043V-7.881ZM.48,12.783a3.708,3.708,0,0,1,.694-2.358,2.229,2.229,0,0,1,1.843-.882,2.088,2.088,0,0,1,1.7.756l.064-.639H6.07v6.146a2.555,2.555,0,0,1-.776,1.969A2.957,2.957,0,0,1,3.2,18.5a3.376,3.376,0,0,1-1.362-.29,2.421,2.421,0,0,1-1.011-.759L1.5,16.6a2.035,2.035,0,0,0,1.617.779,1.573,1.573,0,0,0,1.119-.384,1.471,1.471,0,0,0,.41-1.128v-.428a2.1,2.1,0,0,1-1.641.686,2.223,2.223,0,0,1-1.819-.885A3.828,3.828,0,0,1,.48,12.783Zm1.418.123a2.552,2.552,0,0,0,.39,1.5,1.253,1.253,0,0,0,1.081.548,1.37,1.37,0,0,0,1.277-.738V11.43a1.351,1.351,0,0,0-1.266-.721,1.258,1.258,0,0,0-1.093.557,2.858,2.858,0,0,0-.387,1.64Zm5.367-.135a3.738,3.738,0,0,1,.369-1.679A2.7,2.7,0,0,1,8.672,9.944a2.922,2.922,0,0,1,1.535-.4,2.769,2.769,0,0,1,2.083.826,3.249,3.249,0,0,1,.864,2.191l.006.334a3.772,3.772,0,0,1-.36,1.676,2.664,2.664,0,0,1-1.031,1.143,2.944,2.944,0,0,1-1.55.4,2.75,2.75,0,0,1-2.147-.894,3.422,3.422,0,0,1-.806-2.382Zm1.424.123a2.555,2.555,0,0,0,.4,1.532,1.314,1.314,0,0,0,1.125.554,1.3,1.3,0,0,0,1.122-.562,2.822,2.822,0,0,0,.4-1.646,2.522,2.522,0,0,0-.413-1.523,1.392,1.392,0,0,0-2.223-.01A2.768,2.768,0,0,0,8.689,12.9Zm5.408-.123a3.738,3.738,0,0,1,.369-1.679A2.7,2.7,0,0,1,15.5,9.944a2.922,2.922,0,0,1,1.535-.4,2.769,2.769,0,0,1,2.083.826,3.249,3.249,0,0,1,.864,2.191l.006.334a3.772,3.772,0,0,1-.36,1.676A2.664,2.664,0,0,1,18.6,15.713a2.944,2.944,0,0,1-1.55.4,2.75,2.75,0,0,1-2.147-.894,3.422,3.422,0,0,1-.806-2.382Zm1.424.123a2.555,2.555,0,0,0,.4,1.532,1.314,1.314,0,0,0,1.125.554,1.3,1.3,0,0,0,1.122-.562,2.822,2.822,0,0,0,.4-1.646,2.522,2.522,0,0,0-.413-1.523,1.392,1.392,0,0,0-2.229-.009,2.768,2.768,0,0,0-.405,1.655Zm5.408-.111a3.769,3.769,0,0,1,.68-2.353,2.178,2.178,0,0,1,1.822-.888,2.069,2.069,0,0,1,1.629.7V7h1.424v9H25.2l-.07-.656a2.1,2.1,0,0,1-1.7.773,2.166,2.166,0,0,1-1.8-.9,3.907,3.907,0,0,1-.7-2.434Zm1.424.123a2.639,2.639,0,0,0,.372,1.509,1.207,1.207,0,0,0,1.058.542,1.345,1.345,0,0,0,1.277-.779V11.471a1.324,1.324,0,0,0-1.266-.762,1.216,1.216,0,0,0-1.066.548,2.939,2.939,0,0,0-.374,1.649ZM32.742,8.119V9.66h1.119v1.055H32.742v3.539a.779.779,0,0,0,.144.524.666.666,0,0,0,.513.161,2.193,2.193,0,0,0,.5-.059v1.1a3.507,3.507,0,0,1-.937.135q-1.641,0-1.641-1.811V10.715H30.275V9.66h1.043V8.119Zm3.609,2.232a2.229,2.229,0,0,1,1.764-.809q2.027,0,2.057,2.314V16H38.748V11.91a1.252,1.252,0,0,0-.284-.929,1.162,1.162,0,0,0-.835-.272,1.372,1.372,0,0,0-1.277.762V16H34.928V7h1.424ZM43.125,16H41.7V9.66h1.424ZM41.613,8.014a.756.756,0,0,1,.208-.545.786.786,0,0,1,.595-.217.8.8,0,0,1,.6.217.75.75,0,0,1,.211.545.733.733,0,0,1-.211.536.8.8,0,0,1-.6.214.792.792,0,0,1-.6-.214A.738.738,0,0,1,41.613,8.014ZM46,9.66l.041.732a2.28,2.28,0,0,1,1.846-.85q1.98,0,2.016,2.268V16H48.475V11.893A1.306,1.306,0,0,0,48.214,11a1.1,1.1,0,0,0-.853-.29,1.372,1.372,0,0,0-1.283.779V16H44.654V9.66Zm5.1,3.123a3.708,3.708,0,0,1,.694-2.358,2.229,2.229,0,0,1,1.843-.882,2.088,2.088,0,0,1,1.705.756l.064-.639h1.283v6.146a2.555,2.555,0,0,1-.776,1.969,2.957,2.957,0,0,1-2.1.721,3.376,3.376,0,0,1-1.362-.29,2.421,2.421,0,0,1-1.011-.759l.674-.855a2.035,2.035,0,0,0,1.617.779,1.573,1.573,0,0,0,1.119-.384,1.471,1.471,0,0,0,.41-1.128v-.428a2.1,2.1,0,0,1-1.641.686,2.223,2.223,0,0,1-1.819-.885,3.828,3.828,0,0,1-.7-2.449Zm1.418.123a2.552,2.552,0,0,0,.39,1.5,1.253,1.253,0,0,0,1.081.548,1.37,1.37,0,0,0,1.277-.738V11.43A1.351,1.351,0,0,0,54,10.709a1.258,1.258,0,0,0-1.093.557A2.858,2.858,0,0,0,52.518,12.906Zm9.188,1.371a.645.645,0,0,0-.313-.58,3.334,3.334,0,0,0-1.04-.352,5.346,5.346,0,0,1-1.213-.387,1.619,1.619,0,0,1-1.066-1.494,1.688,1.688,0,0,1,.691-1.371,2.733,2.733,0,0,1,1.758-.551,2.844,2.844,0,0,1,1.837.563,1.785,1.785,0,0,1,.7,1.459H61.635a.877.877,0,0,0-.3-.683,1.168,1.168,0,0,0-.809-.272,1.262,1.262,0,0,0-.765.217.683.683,0,0,0-.3.58.577.577,0,0,0,.275.51,3.787,3.787,0,0,0,1.113.366,5.27,5.27,0,0,1,1.315.439,1.863,1.863,0,0,1,.709.612,1.561,1.561,0,0,1,.231.867,1.652,1.652,0,0,1-.709,1.386,3.023,3.023,0,0,1-1.857.53,3.278,3.278,0,0,1-1.389-.281,2.285,2.285,0,0,1-.949-.773A1.831,1.831,0,0,1,57.861,14h1.383a1,1,0,0,0,.381.776,1.48,1.48,0,0,0,.932.272,1.44,1.44,0,0,0,.855-.214.662.662,0,0,0,.293-.557Z" transform="translate(8 53.056)" fill="#547d23"/><g transform="translate(84.246 9.953)"><g transform="translate(0 4.155) rotate(-8)" opacity="0.8"><path d="M16.675,36.792l-4.193.011.709-2.869h0A38.224,38.224,0,0,1,6.57,28.666a26.6,26.6,0,0,1-4.549-5.891A15.361,15.361,0,0,1,5.179,3.558a14.4,14.4,0,0,1,18.983-.05,15.3,15.3,0,0,1,3.061,19.2,27,27,0,0,1-4.58,5.915,39.063,39.063,0,0,1-6.653,5.3l.694,2.865ZM9.507,18.486a.528.528,0,0,0-.466.287.553.553,0,0,0,.025.556A6.795,6.795,0,0,0,19.23,20.768a.551.551,0,0,0,.218-.523.533.533,0,0,0-.356-.432.519.519,0,0,0-.538.135A5.758,5.758,0,0,1,9.94,18.73a.52.52,0,0,0-.435-.244Zm9.617-6.566a1.317,1.317,0,0,0-.185,2.616,1.339,1.339,0,0,0,.179.012,1.306,1.306,0,0,0,1.27-1.134,1.334,1.334,0,0,0-.3-1.045,1.262,1.262,0,0,0-.966-.45ZM11.233,10.8a1.281,1.281,0,1,0,.178.012,1.2,1.2,0,0,0-.18-.012Z" transform="translate(-0.045 -0.016)" fill="#6da72c"/><path d="M.544,0h1.37a33.383,33.383,0,0,0-.529,5.971c-.009,3.431.494,7.752.494,7.752H.509S-.022,9.2-.013,5.769A28.154,28.154,0,0,1,.544,0Zm0,0" transform="translate(13.317 36.823)" fill="#6da72c"/></g><g transform="translate(34.324 15.854) rotate(15.009)" opacity="0.8"><path d="M12.893,27.606H9.67l.537-2.149h0a29.655,29.655,0,0,1-5.1-3.961A20.163,20.163,0,0,1,1.6,17.073a11.285,11.285,0,1,1,19.376,0A20.163,20.163,0,0,1,17.464,21.5a29.634,29.634,0,0,1-5.1,3.962L12.9,27.61ZM7.224,14.641a.419.419,0,0,0-.308.7,5.49,5.49,0,0,0,4.018,1.745h.1A5.493,5.493,0,0,0,15.085,15.2a.419.419,0,0,0-.634-.549,4.658,4.658,0,0,1-3.434,1.6h-.083a4.648,4.648,0,0,1-3.4-1.477.42.42,0,0,0-.312-.138Zm.5-6.1H7.706a1.019,1.019,0,1,0,.02,2.038h.018a1.022,1.022,0,0,0-.015-2.043Zm6.324-.111a1.02,1.02,0,1,0,.018,2.04h.018a1.02,1.02,0,1,0-.019-2.04Z" fill="#6da72c"/><path d="M.427,0H1.5a25.25,25.25,0,0,0-.4,4.6c0,2.644.4,5.975.4,5.975H.427A61.416,61.416,0,0,1,0,4.446,21.3,21.3,0,0,1,.427,0Zm0,0" transform="translate(10.318 27.603)" fill="#6da72c"/></g></g></g></svg>