<svg xmlns="http://www.w3.org/2000/svg" xmlns:xlink="http://www.w3.org/1999/xlink" width="157" height="87" viewBox="0 0 157 87"><defs><filter id="a" x="0" y="0" width="157" height="87" filterUnits="userSpaceOnUse"><feOffset dy="2" input="SourceAlpha"/><feGaussianBlur stdDeviation="1.5" result="b"/><feFlood flood-opacity="0.161"/><feComposite operator="in" in2="b"/><feComposite in="SourceGraphic"/></filter></defs><g transform="translate(4.5 2.44)"><g transform="translate(0 0.06)"><g transform="matrix(1, 0, 0, 1, -4.5, -2.5)" filter="url(#a)"><rect width="148" height="78" rx="10" transform="translate(4.5 2.5)" fill="#d5fff1"/></g><path d="M7.031-7.336H4.371V0H2.9V-7.336H.264v-1.2H7.031Zm3.92,2.3a3.523,3.523,0,0,0-.58-.047,1.306,1.306,0,0,0-1.318.75V0H7.629V-6.34H8.988l.035.709a1.6,1.6,0,0,1,1.43-.826,1.333,1.333,0,0,1,.5.082ZM15.463,0A2.2,2.2,0,0,1,15.3-.592a2.216,2.216,0,0,1-1.664.709,2.237,2.237,0,0,1-1.559-.545,1.743,1.743,0,0,1-.6-1.348,1.8,1.8,0,0,1,.753-1.556,3.649,3.649,0,0,1,2.153-.542h.873V-4.29a1.11,1.11,0,0,0-.275-.788,1.092,1.092,0,0,0-.838-.3,1.254,1.254,0,0,0-.8.243.753.753,0,0,0-.311.618H11.607a1.58,1.58,0,0,1,.346-.976,2.3,2.3,0,0,1,.94-.712,3.3,3.3,0,0,1,1.327-.258A2.66,2.66,0,0,1,16-5.9a2,2,0,0,1,.68,1.573v2.859A3.241,3.241,0,0,0,16.916-.1V0ZM13.9-1.025a1.62,1.62,0,0,0,.794-.205,1.37,1.37,0,0,0,.56-.551v-1.2h-.768a2.1,2.1,0,0,0-1.189.275.892.892,0,0,0-.4.779.832.832,0,0,0,.272.653,1.055,1.055,0,0,0,.731.249Zm6.873.006a1.287,1.287,0,0,0,.885-.311,1.061,1.061,0,0,0,.375-.768h1.342A2.091,2.091,0,0,1,23-.993a2.421,2.421,0,0,1-.937.812,2.794,2.794,0,0,1-1.277.3A2.7,2.7,0,0,1,18.68-.744a3.416,3.416,0,0,1-.78-2.379V-3.27a3.359,3.359,0,0,1,.773-2.317,2.678,2.678,0,0,1,2.109-.87,2.6,2.6,0,0,1,1.843.659,2.361,2.361,0,0,1,.747,1.731H22.031a1.3,1.3,0,0,0-.372-.9,1.2,1.2,0,0,0-.888-.352,1.253,1.253,0,0,0-1.066.5A2.556,2.556,0,0,0,19.324-3.3v.229A2.6,2.6,0,0,0,19.7-1.526a1.252,1.252,0,0,0,1.071.506Zm5.736-1.7-.633.65V0H24.451V-9h1.424v5.191l.445-.557L28.072-6.34h1.711L27.428-3.7,30.035,0H28.389Zm8.53-3.621.041.662a2.281,2.281,0,0,1,1.828-.779,1.753,1.753,0,0,1,1.74.973,2.249,2.249,0,0,1,1.945-.973,1.977,1.977,0,0,1,1.562.58,2.554,2.554,0,0,1,.524,1.711V0H41.256V-4.125a1.261,1.261,0,0,0-.264-.885,1.154,1.154,0,0,0-.873-.281,1.185,1.185,0,0,0-.794.261,1.375,1.375,0,0,0-.431.683L38.9,0H37.477V-4.172a1.016,1.016,0,0,0-.3-.838,1.016,1.016,0,0,0-.844-.281,1.253,1.253,0,0,0-1.213.7V0H33.7V-6.34Zm11.32,4.3,1.289-4.3h1.518L46.646.96a2.048,2.048,0,0,1-1.969,1.6,2.538,2.538,0,0,1-.686-.106V1.348l.27.018a1.386,1.386,0,0,0,.812-.2A1.3,1.3,0,0,0,45.5.51l.205-.544L43.482-6.34h1.535ZM2.068,9.66l.041.662a2.281,2.281,0,0,1,1.828-.779,1.753,1.753,0,0,1,1.74.973,2.249,2.249,0,0,1,1.945-.973,1.977,1.977,0,0,1,1.562.58,2.554,2.554,0,0,1,.524,1.711V16H8.285V11.875a1.261,1.261,0,0,0-.264-.885,1.154,1.154,0,0,0-.873-.281,1.185,1.185,0,0,0-.794.261,1.375,1.375,0,0,0-.431.683L5.93,16H4.506V11.828a1.016,1.016,0,0,0-1.143-1.119,1.253,1.253,0,0,0-1.213.7V16H.727V9.66ZM10.9,12.771a3.738,3.738,0,0,1,.369-1.679,2.7,2.7,0,0,1,1.037-1.148,2.922,2.922,0,0,1,1.535-.4,2.769,2.769,0,0,1,2.083.826,3.249,3.249,0,0,1,.864,2.191l.006.334a3.772,3.772,0,0,1-.36,1.676A2.664,2.664,0,0,1,15.4,15.714a2.944,2.944,0,0,1-1.55.4,2.75,2.75,0,0,1-2.147-.894,3.422,3.422,0,0,1-.806-2.382Zm1.424.123a2.555,2.555,0,0,0,.4,1.532,1.314,1.314,0,0,0,1.125.554,1.3,1.3,0,0,0,1.122-.562,2.822,2.822,0,0,0,.4-1.646,2.522,2.522,0,0,0-.413-1.523,1.392,1.392,0,0,0-2.229-.009,2.768,2.768,0,0,0-.4,1.655Zm5.408-.123a3.738,3.738,0,0,1,.369-1.679,2.7,2.7,0,0,1,1.037-1.148,2.922,2.922,0,0,1,1.535-.4,2.769,2.769,0,0,1,2.083.826,3.249,3.249,0,0,1,.864,2.191l.006.334a3.772,3.772,0,0,1-.36,1.676,2.664,2.664,0,0,1-1.031,1.143,2.944,2.944,0,0,1-1.55.4,2.75,2.75,0,0,1-2.147-.894,3.422,3.422,0,0,1-.806-2.382Zm1.424.123a2.555,2.555,0,0,0,.4,1.532,1.314,1.314,0,0,0,1.125.554,1.3,1.3,0,0,0,1.122-.562,2.822,2.822,0,0,0,.4-1.646,2.522,2.522,0,0,0-.413-1.523,1.392,1.392,0,0,0-2.229-.009,2.768,2.768,0,0,0-.4,1.655Zm5.408-.111a3.769,3.769,0,0,1,.68-2.353,2.178,2.178,0,0,1,1.822-.888,2.069,2.069,0,0,1,1.629.7V7h1.424v9H28.834l-.07-.656a2.1,2.1,0,0,1-1.7.773,2.166,2.166,0,0,1-1.8-.9,3.907,3.907,0,0,1-.691-2.434Zm1.424.123a2.639,2.639,0,0,0,.372,1.509,1.207,1.207,0,0,0,1.058.542,1.345,1.345,0,0,0,1.277-.779V11.471a1.324,1.324,0,0,0-1.266-.762,1.216,1.216,0,0,0-1.066.548,2.939,2.939,0,0,0-.371,1.649Z" transform="translate(8 52.996)" fill="#548171"/><g transform="translate(81.779 4.498)"><g transform="translate(7.63) rotate(8)" opacity="0.8"><g transform="translate(4.832 30.694)"><path d="M8.714.16A.85.85,0,0,0,7.537.4L.178,11.5a.851.851,0,1,0,1.419.938l7.358-11.1A.843.843,0,0,0,9.079.7.852.852,0,0,0,8.714.16Zm0,0" transform="translate(0.012 5.529)" fill="#548171"/><path d="M14.4,7.922,1.264.11A.846.846,0,0,0,.4,1.563L13.535,9.374A.846.846,0,1,0,14.4,7.92Zm0,0" transform="translate(11.143 4.346)" fill="#548171"/><path d="M10.164.284a.851.851,0,0,0-1.2-.025L.283,8.6A.851.851,0,1,0,1.465,9.83l8.682-8.346a.846.846,0,0,0,.012-1.2Zm0,0" transform="translate(25.971 1.68) rotate(-9)" fill="#548171"/></g><path d="M7.919,3.975A3.965,3.965,0,1,1,5.475.316,3.965,3.965,0,0,1,7.919,3.975Zm0,0" transform="translate(0 48.012)" fill="#548171"/><path d="M7.919,3.975A3.965,3.965,0,1,1,5.475.316,3.965,3.965,0,0,1,7.919,3.975Zm0,0" transform="translate(10.18 31.665)" fill="#548171"/><path d="M7.917,3.975A3.964,3.964,0,1,1,5.474.316,3.964,3.964,0,0,1,7.917,3.975Zm0,0" transform="translate(27.12 39.168)" fill="#548171"/><path d="M-15917.674-2757.524a.98.98,0,0,1-.812-.431l-3.97-4.878c-.02-.019-2.007-1.961-4.01-4.339-1.863-2.212-4.149-5.29-4.459-7.392a11.788,11.788,0,0,1,2.637-9.435,9.718,9.718,0,0,1,7.4-3.492h.09a10.363,10.363,0,0,1,6.95,2.776,12.142,12.142,0,0,1,3.764,7.057l0,0c.405,2.534-1.249,6.269-3.165,10.594-1.107,2.5-2.252,5.084-3.129,7.727l-.367,1.107a.188.188,0,0,1-.017.04l0,.009a.969.969,0,0,1-.8.648A1.052,1.052,0,0,1-15917.674-2757.524Zm-3.119-26.58a6.98,6.98,0,0,0-.964.067,6.855,6.855,0,0,0-4.546,2.68,6.844,6.844,0,0,0-1.319,5.109,6.92,6.92,0,0,0,6.821,5.934,7.2,7.2,0,0,0,.964-.068,6.906,6.906,0,0,0,5.865-7.785A6.926,6.926,0,0,0-15920.793-2784.1Z" transform="translate(15958.847 2789.056)" fill="#548171"/></g><path d="M104.548,224.1a3.485,3.485,0,0,0,5.173,0,.313.313,0,1,1,.466.419,4.113,4.113,0,0,1-6.107,0,.314.314,0,0,1,.467-.418Z" transform="translate(-63.476 -205.4)" fill="#6d9a8a"/><path d="M96,128.94a.94.94,0,1,1,.94.94.94.94,0,0,1-.94-.94Z" transform="translate(-50.775 -113.165)" fill="#6d9a8a"/><path d="M224.94,128a.94.94,0,1,1-.94.94A.94.94,0,0,1,224.94,128Z" transform="translate(-183.788 -113.165)" fill="#6d9a8a"/></g></g></g></svg>