<svg xmlns="http://www.w3.org/2000/svg" width="24" height="24" viewBox="0 0 24 24"><g transform="translate(-1091 -56)"><path d="M-8941.7,7746.7l-5.3-5.3-5.3,5.3a.966.966,0,0,1-1.4,0,.968.968,0,0,1,0-1.4l5.3-5.3-5.3-5.3a.968.968,0,0,1,0-1.4.967.967,0,0,1,1.4,0l5.3,5.3,5.3-5.3a.967.967,0,0,1,1.4,0,.968.968,0,0,1,0,1.4l-5.3,5.3,5.3,5.3a.968.968,0,0,1,0,1.4.987.987,0,0,1-.7.3A.987.987,0,0,1-8941.7,7746.7Z" transform="translate(10050 -7672)" fill="#656565"/><rect width="24" height="24" transform="translate(1091 56)" fill="none"/></g></svg>