<svg xmlns="http://www.w3.org/2000/svg" width="39.17" height="37.531" viewBox="0 0 39.17 37.531">
  <g id="Flow_white" transform="translate(11829.25 22656.205)">
    <g id="Flow" transform="translate(-11828.75 -22656.205)">
      <path id="Path_1361" data-name="Path 1361" d="M89.448,47.9H83.559V36.355h5.6v-.789h-5.6v-6.86H85.69a.394.394,0,0,0,.394-.394v-5.05a.394.394,0,0,0-.394-.394H80.64a.394.394,0,0,0-.394.394v5.05a.394.394,0,0,0,.394.394h2.131V48.293a.394.394,0,0,0,.394.394h6.282a.394.394,0,1,0,0-.788Z" transform="translate(-80.246 -17.61)" fill="#fff" stroke="#fff" stroke-width="1"/>
      <g id="tap" transform="translate(19.75 0) rotate(45)">
        <g id="Group_2087" data-name="Group 2087" transform="translate(0 0)">
          <g id="Group_2086" data-name="Group 2086" transform="translate(0 0)">
            <path id="Path_1363" data-name="Path 1363" d="M11.954,3.689a6.252,6.252,0,1,0-8.265,8.266.7.7,0,0,0,.573-1.268,4.861,4.861,0,1,1,6.425-6.425.7.7,0,1,0,1.267-.573Z" transform="translate(0 0)" fill="#fff"/>
            <path id="Path_1362" data-name="Path 1362" d="M21.767,5.676l-4.551-5A2.317,2.317,0,0,0,13.94.682a2.266,2.266,0,0,0-.586,1A2.319,2.319,0,0,0,9.722,2.892,2.319,2.319,0,0,0,6.678,3.1,2.291,2.291,0,0,0,6.1,4.08L3.953,1.935A2.317,2.317,0,0,0,.676,5.211l8.24,8.24-3.672.727A3.012,3.012,0,0,0,2.9,17.1c0,1,1.842,1.195,2.843,1.195l9.2.407a6.613,6.613,0,0,0,4.707-1.95l1.9-1.9a6.648,6.648,0,0,0,.217-9.175Z" transform="translate(5.067 3.808)" fill="none" stroke="#fff" stroke-width="2"/>
          </g>
        </g>
      </g>
      <rect id="Rectangle_1734" data-name="Rectangle 1734" width="7.424" height="1.679" rx="0.839" transform="translate(2.878 23.597)" fill="#fff"/>
      <rect id="Rectangle_1999" data-name="Rectangle 1999" width="7.424" height="1.679" rx="0.839" transform="translate(2.878 29.724)" fill="#fff"/>
      <rect id="Rectangle_1735" data-name="Rectangle 1735" width="7.424" height="1.679" rx="0.839" transform="translate(2.878 29.815)" fill="none"/>
      <rect id="Rectangle_1736" data-name="Rectangle 1736" width="7.424" height="1.679" rx="0.839" transform="translate(2.878 17.485)" fill="#fff"/>
    </g>
  </g>
</svg>
