<svg xmlns="http://www.w3.org/2000/svg" width="28" height="28" viewBox="0 0 28 28"><g transform="translate(-16.848 -48.848)"><path d="M16.05,23.333H2.293A2.316,2.316,0,0,1,0,21V2.333A2.316,2.316,0,0,1,2.293,0h7.78l.14,5.761a2.5,2.5,0,0,0,2.494,2.494h5.636V21A2.316,2.316,0,0,1,16.05,23.333ZM3.964,17.2a.824.824,0,1,0,.823.824A.825.825,0,0,0,3.964,17.2ZM7.3,17.44a.583.583,0,0,0,0,1.166h7a.583.583,0,1,0,0-1.166ZM3.964,14.848a.824.824,0,1,0,.823.824A.825.825,0,0,0,3.964,14.848Zm3.333.259a.584.584,0,0,0,0,1.167h7a.584.584,0,0,0,0-1.167ZM3.964,12.494a.824.824,0,1,0,.823.823A.824.824,0,0,0,3.964,12.494Zm3.333.279a.584.584,0,0,0,0,1.167h7a.584.584,0,0,0,0-1.167ZM18.344,7.008H12.708a1.248,1.248,0,0,1-1.247-1.247L11.321,0h.144l6.879,7v.008Z" transform="translate(21.794 51.224)" fill="#fff" stroke="rgba(0,0,0,0)" stroke-miterlimit="10" stroke-width="1"/><rect width="28" height="28" transform="translate(16.848 48.848)" fill="none"/></g></svg>