<svg xmlns="http://www.w3.org/2000/svg" width="28" height="28" viewBox="0 0 28 28"><g transform="translate(0 0.111)"><path d="M20.01,15.322a8.877,8.877,0,0,1-4.289-1.6,10.675,10.675,0,0,0-4.051-1.654,10.721,10.721,0,0,0-4.055,1.656,8.851,8.851,0,0,1-4.285,1.6A3.314,3.314,0,0,1,0,12.037V8.752a10.164,10.164,0,0,1,1.955-6.5A5.969,5.969,0,0,1,6.662,0H16.678a5.966,5.966,0,0,1,4.688,2.232,10.081,10.081,0,0,1,1.969,6.436v3.369A3.31,3.31,0,0,1,20.01,15.322ZM18.537,7.146a1.535,1.535,0,1,0,1.592,1.535A1.56,1.56,0,0,0,18.537,7.146ZM3.18,6.123h0V8.172H5.3v2.043H7.418V8.172H9.537V6.123H7.418V4.086H5.3V6.123ZM15.365,4.086a1.561,1.561,0,0,0-1.592,1.527,1.592,1.592,0,0,0,3.182,0A1.56,1.56,0,0,0,15.365,4.086Zm3.172,5.105a.513.513,0,1,1,0-1.025.513.513,0,1,1,0,1.025ZM15.365,6.123a.508.508,0,1,1,.531-.51A.523.523,0,0,1,15.365,6.123Z" transform="translate(2.734 6.57)" fill="#fff" stroke="rgba(0,0,0,0)" stroke-miterlimit="10" stroke-width="1"/><rect width="28" height="28" transform="translate(0 -0.111)" fill="none"/></g></svg>