<svg xmlns="http://www.w3.org/2000/svg" width="24" height="24" viewBox="0 0 24 24"><rect width="24" height="24" fill="none"/><g transform="translate(2 3)"><g transform="translate(0 0)"><path d="M16.5,18.675H15.149a3.322,3.322,0,0,1-2.365-.979L9.658,14.28c-.355-.356-.941-1.079-.586-1.435a1.514,1.514,0,0,1,1.875-.205l1.563,1.047V7.831a1.164,1.164,0,0,1,2.328,0V9.355a1.167,1.167,0,0,1,1.711.867,1.165,1.165,0,0,1,1.72.861,1.144,1.144,0,0,1,.564-.148A1.165,1.165,0,0,1,20,12.1l-.16,3.395a3.342,3.342,0,0,1-3.335,3.183ZM3.16,17.033v-.012H3.134a.951.951,0,0,1-.95-.95L2.208,5.7H1a1,1,0,0,1-1-1V1A1,1,0,0,1,1,0H4.7a1,1,0,0,1,1,1V4.7a1,1,0,0,1-1,1H3.633L3.628,8h3.1a.713.713,0,0,1,0,1.427h-3.1L3.62,11.8H6.729a.713.713,0,1,1,0,1.426H3.617l-.005,2.377H6.729a.713.713,0,0,1,0,1.426Z" transform="translate(0 0)" fill="#fff"/></g><path d="M-9812.076,7649.684a2.963,2.963,0,0,0-.416-2.874,2.8,2.8,0,0,0-3.6-.658,2.766,2.766,0,0,0-1.156,3.376.57.57,0,0,1-1.067.4,3.9,3.9,0,0,1,5.467-4.853,3.963,3.963,0,0,1,1.976,4.584c-.1.335-.2.646-.6.665h-.032A.573.573,0,0,1-9812.076,7649.684Z" transform="translate(9828.379 -7641.216)" fill="#fff"/></g></svg>