<svg xmlns="http://www.w3.org/2000/svg" width="82" height="36" viewBox="0 0 82 36"><g transform="translate(-1198.001 -54)"><rect width="82" height="36" rx="18" transform="translate(1198.001 54)" fill="#2a3b3d"/><g transform="translate(1207.594 62)"><path d="M8.641-1.292a3.307,3.307,0,0,1-1.5,1.066A6.108,6.108,0,0,1,4.97.137,4.284,4.284,0,0,1,2.755-.431,3.779,3.779,0,0,1,1.268-2.054,5.68,5.68,0,0,1,.725-4.519V-5.3A5.268,5.268,0,0,1,1.8-8.822,3.746,3.746,0,0,1,4.819-10.09a3.963,3.963,0,0,1,2.639.824A3.549,3.549,0,0,1,8.634-6.9h-1.7A1.907,1.907,0,0,0,4.854-8.7a2.044,2.044,0,0,0-1.767.837A4.262,4.262,0,0,0,2.461-5.4v.765a4.048,4.048,0,0,0,.68,2.5,2.244,2.244,0,0,0,1.89.891,2.492,2.492,0,0,0,1.887-.6V-3.794H4.867V-5.106H8.641Zm1.429-2.475A4.361,4.361,0,0,1,10.5-5.725a3.145,3.145,0,0,1,1.21-1.34A3.409,3.409,0,0,1,13.5-7.533a3.231,3.231,0,0,1,2.43.964,3.791,3.791,0,0,1,1.008,2.557l.007.39a4.4,4.4,0,0,1-.42,1.955,3.108,3.108,0,0,1-1.2,1.333,3.434,3.434,0,0,1-1.808.472A3.209,3.209,0,0,1,11.009-.906a3.993,3.993,0,0,1-.94-2.779Zm1.661.144A2.98,2.98,0,0,0,12.2-1.835a1.533,1.533,0,0,0,1.313.646,1.517,1.517,0,0,0,1.309-.656,3.292,3.292,0,0,0,.468-1.921,2.942,2.942,0,0,0-.482-1.777A1.539,1.539,0,0,0,13.5-6.2a1.525,1.525,0,0,0-1.292.646A3.23,3.23,0,0,0,11.73-3.623ZM23.919-9.194v1.8h1.306v1.23H23.919v4.129a.909.909,0,0,0,.167.612.777.777,0,0,0,.6.188,2.559,2.559,0,0,0,.581-.068V-.021a4.091,4.091,0,0,1-1.094.157q-1.914,0-1.914-2.112v-4.19H21.041V-7.4h1.217v-1.8Zm2.058,5.428a4.361,4.361,0,0,1,.431-1.958,3.145,3.145,0,0,1,1.21-1.34,3.409,3.409,0,0,1,1.791-.468,3.231,3.231,0,0,1,2.43.964,3.791,3.791,0,0,1,1.008,2.557l.007.39a4.4,4.4,0,0,1-.42,1.955,3.108,3.108,0,0,1-1.2,1.333,3.434,3.434,0,0,1-1.808.472A3.209,3.209,0,0,1,26.917-.906a3.993,3.993,0,0,1-.94-2.779Zm1.661.144a2.98,2.98,0,0,0,.472,1.788,1.533,1.533,0,0,0,1.313.646,1.517,1.517,0,0,0,1.309-.656A3.292,3.292,0,0,0,31.2-3.767a2.942,2.942,0,0,0-.482-1.777A1.539,1.539,0,0,0,29.408-6.2a1.525,1.525,0,0,0-1.292.646A3.23,3.23,0,0,0,27.638-3.623Z" transform="translate(2.407 15)" fill="#fff"/><g transform="translate(40.407 -2)"><rect width="24" height="24" fill="none"/><g transform="translate(2 3)"><g transform="translate(0 0)"><path d="M16.5,18.675H15.149a3.322,3.322,0,0,1-2.365-.979L9.658,14.28c-.355-.356-.941-1.079-.586-1.435a1.514,1.514,0,0,1,1.875-.205l1.563,1.047V7.831a1.164,1.164,0,0,1,2.328,0V9.355a1.167,1.167,0,0,1,1.711.867,1.165,1.165,0,0,1,1.72.861,1.144,1.144,0,0,1,.564-.148A1.165,1.165,0,0,1,20,12.1l-.16,3.395a3.342,3.342,0,0,1-3.335,3.183ZM3.16,17.033v-.012H3.134a.951.951,0,0,1-.95-.95L2.208,5.7H1a1,1,0,0,1-1-1V1A1,1,0,0,1,1,0H4.7a1,1,0,0,1,1,1V4.7a1,1,0,0,1-1,1H3.633L3.628,8h3.1a.713.713,0,0,1,0,1.427h-3.1L3.62,11.8H6.729a.713.713,0,1,1,0,1.426H3.617l-.005,2.377H6.729a.713.713,0,0,1,0,1.426Z" transform="translate(0 0)" fill="#fff"/></g><path d="M-9812.076,7649.684a2.963,2.963,0,0,0-.416-2.874,2.8,2.8,0,0,0-3.6-.658,2.766,2.766,0,0,0-1.156,3.376.57.57,0,0,1-1.067.4,3.9,3.9,0,0,1,5.467-4.853,3.963,3.963,0,0,1,1.976,4.584c-.1.335-.2.646-.6.665h-.032A.573.573,0,0,1-9812.076,7649.684Z" transform="translate(9828.379 -7641.216)" fill="#fff"/></g></g></g></g></svg>