<svg xmlns="http://www.w3.org/2000/svg" width="82" height="32" viewBox="0 0 82 32"><g transform="translate(0 -12)"><rect width="82" height="32" rx="16" transform="translate(0 12)" fill="#2a3b3d"/><g transform="translate(-256 17)"><path d="M8.641-1.292a3.307,3.307,0,0,1-1.5,1.066A6.108,6.108,0,0,1,4.97.137,4.284,4.284,0,0,1,2.755-.431,3.779,3.779,0,0,1,1.268-2.054,5.68,5.68,0,0,1,.725-4.519V-5.3A5.268,5.268,0,0,1,1.8-8.822,3.746,3.746,0,0,1,4.819-10.09a3.963,3.963,0,0,1,2.639.824A3.549,3.549,0,0,1,8.634-6.9h-1.7A1.907,1.907,0,0,0,4.854-8.7a2.044,2.044,0,0,0-1.767.837A4.262,4.262,0,0,0,2.461-5.4v.765a4.048,4.048,0,0,0,.68,2.5,2.244,2.244,0,0,0,1.89.891,2.492,2.492,0,0,0,1.887-.6V-3.794H4.867V-5.106H8.641Zm1.429-2.475A4.361,4.361,0,0,1,10.5-5.725a3.145,3.145,0,0,1,1.21-1.34A3.409,3.409,0,0,1,13.5-7.533a3.231,3.231,0,0,1,2.43.964,3.791,3.791,0,0,1,1.008,2.557l.007.39a4.4,4.4,0,0,1-.42,1.955,3.108,3.108,0,0,1-1.2,1.333,3.434,3.434,0,0,1-1.808.472A3.209,3.209,0,0,1,11.009-.906a3.993,3.993,0,0,1-.94-2.779Zm1.661.144A2.98,2.98,0,0,0,12.2-1.835a1.533,1.533,0,0,0,1.313.646,1.517,1.517,0,0,0,1.309-.656,3.292,3.292,0,0,0,.468-1.921,2.942,2.942,0,0,0-.482-1.777A1.539,1.539,0,0,0,13.5-6.2a1.525,1.525,0,0,0-1.292.646A3.23,3.23,0,0,0,11.73-3.623ZM23.919-9.194v1.8h1.306v1.23H23.919v4.129a.909.909,0,0,0,.167.612.777.777,0,0,0,.6.188,2.559,2.559,0,0,0,.581-.068V-.021a4.091,4.091,0,0,1-1.094.157q-1.914,0-1.914-2.112v-4.19H21.041V-7.4h1.217v-1.8Zm2.058,5.428a4.361,4.361,0,0,1,.431-1.958,3.145,3.145,0,0,1,1.21-1.34,3.409,3.409,0,0,1,1.791-.468,3.231,3.231,0,0,1,2.43.964,3.791,3.791,0,0,1,1.008,2.557l.007.39a4.4,4.4,0,0,1-.42,1.955,3.108,3.108,0,0,1-1.2,1.333,3.434,3.434,0,0,1-1.808.472A3.209,3.209,0,0,1,26.917-.906a3.993,3.993,0,0,1-.94-2.779Zm1.661.144a2.98,2.98,0,0,0,.472,1.788,1.533,1.533,0,0,0,1.313.646,1.517,1.517,0,0,0,1.309-.656A3.292,3.292,0,0,0,31.2-3.767a2.942,2.942,0,0,0-.482-1.777A1.539,1.539,0,0,0,29.408-6.2a1.525,1.525,0,0,0-1.292.646A3.23,3.23,0,0,0,27.638-3.623Z" transform="translate(268 16)" fill="#fff"/><g transform="translate(307.001)"><rect width="22" height="22" transform="translate(-0.001)" fill="none"/><g transform="translate(1.833 2.75)"><g transform="translate(0 0)"><g transform="translate(0 0)"><path d="M15.126,17.118h-1.24a3.044,3.044,0,0,1-2.168-.9L8.852,13.09c-.326-.326-.862-.989-.536-1.315a1.389,1.389,0,0,1,1.718-.188l1.433.959V7.178a1.067,1.067,0,0,1,2.135,0v1.4a1.05,1.05,0,0,1,.508-.129,1.068,1.068,0,0,1,1.06.923,1.056,1.056,0,0,1,.517-.134,1.068,1.068,0,0,1,1.06.923,1.047,1.047,0,0,1,.517-.135,1.067,1.067,0,0,1,1.07,1.065L18.186,14.2a3.062,3.062,0,0,1-3.057,2.918ZM2.9,15.612V15.6H2.872A.872.872,0,0,1,2,14.73l.023-9.5H1a1,1,0,0,1-1-1V1A1,1,0,0,1,1,0H4.227a1,1,0,0,1,1,1V4.228a1,1,0,0,1-1,1h-.9l0,2.107H6.168a.653.653,0,0,1,0,1.307H3.323l0,2.178H6.168a.653.653,0,1,1,0,1.307H3.316l0,2.178H6.168a.654.654,0,0,1,0,1.308Z" fill="#fff"/></g></g><path d="M5.971,4.648a2.718,2.718,0,0,0-.382-2.632,2.573,2.573,0,0,0-3.3-.6,2.539,2.539,0,0,0-1.06,3.1.521.521,0,0,1-.977.366A3.575,3.575,0,0,1,5.259.427a3.632,3.632,0,0,1,1.811,4.2c-.087.309-.181.593-.55.611H6.492A.526.526,0,0,1,5.971,4.648Z" transform="translate(8.974 3.113)" fill="#fff"/></g></g></g></g></svg>