<svg xmlns="http://www.w3.org/2000/svg" width="24" height="24" viewBox="0 0 24 24"><g transform="translate(-16 -40)"><path d="M0,.8C-.4.7-.8.4-.8,0A.86.86,0,0,1,0-.8H18a.86.86,0,0,1,.8.8.86.86,0,0,1-.8.8Z" transform="translate(19 52)" fill="#fff"/><path d="M0,.8C-.4.7-.8.4-.8,0A.86.86,0,0,1,0-.8H18a.86.86,0,0,1,.8.8.86.86,0,0,1-.8.8Z" transform="translate(19 46)" fill="#fff"/><path d="M0,.8C-.4.7-.8.4-.8,0A.86.86,0,0,1,0-.8H18a.86.86,0,0,1,.8.8.86.86,0,0,1-.8.8Z" transform="translate(19 58)" fill="#fff"/><rect width="24" height="24" transform="translate(16 40)" fill="none"/></g></svg>