<svg xmlns="http://www.w3.org/2000/svg" width="32" height="32" viewBox="0 0 32 32"><g transform="translate(-930 -55)"><rect width="32" height="32" transform="translate(930 55)" fill="#fff" opacity="0"/><path d="M11.222,3.759a1.958,1.958,0,0,1,1.472-.009c.533.213-.247-.472,11.475,11.289a1.411,1.411,0,0,1-1,2.51h-.5v8.9a2.587,2.587,0,0,1-2.39,2.6l-6.474,0V22.51H9.994v6.539H3.761a2.6,2.6,0,0,1-2.521-2.5l0-9H.77a1.412,1.412,0,0,1-1-2.51C11.563,3.206,10.71,3.971,11.222,3.759ZM11.8,5.145c-.127.053.611-.661-10.916,10.9H2.738c0,11.245-.1,10.634.232,11.072a1.019,1.019,0,0,0,.791.427H8.494V21.01H15.3v6.539h4.911a1.092,1.092,0,0,0,.953-1.1V16.05h1.894C11.562,4.515,12.269,5.2,12.137,5.143A.458.458,0,0,0,11.8,5.145Z" transform="translate(934.083 54.615)" fill="#212121"/></g></svg>