<svg xmlns="http://www.w3.org/2000/svg" width="24" height="24" viewBox="0 0 24 24"><g transform="translate(-60 -198)"><rect width="24" height="24" transform="translate(60 198)" fill="#fff" opacity="0"/><path d="M8.367,3.736a1.659,1.659,0,0,1,1.247-.007c.449.18-.166-.357,8.691,8.53a1.246,1.246,0,0,1-.884,2.2h-.193v6.5a2.131,2.131,0,0,1-1.976,2.141l-5.061,0V18.194H7.7v4.917H2.828A2.141,2.141,0,0,1,.746,21.049l0-6.585A1.41,1.41,0,0,1-.508,13.97a1.275,1.275,0,0,1,.2-1.711C8.539,3.385,7.933,3.916,8.367,3.736Zm.574,1.386c-.1.042-.178.163-7.831,7.842H2.245v8.028a.644.644,0,0,0,.582.619H6.2V16.694h5.49v4.917l3.521,0a.578.578,0,0,0,.423-.3c.133-.23.093.365.093-8.342H16.89C8.823,4.87,9.086,5.062,8.941,5.122Z" transform="translate(63.039 196.598)" fill="#fff"/></g></svg>