<svg xmlns="http://www.w3.org/2000/svg" width="28" height="28" viewBox="0 0 28 28"><g transform="translate(-28 -78)"><rect width="28" height="28" transform="translate(28 78)" fill="none"/><path d="M41.632,103.937H37.516a3.231,3.231,0,0,1-3.216-3.213V86.316A3.219,3.219,0,0,1,37.516,83.1h4.116a1.158,1.158,0,0,1,0,2.315H37.516a.9.9,0,0,0-.9.9v14.406a.908.908,0,0,0,.9.9h4.113a1.158,1.158,0,1,1,0,2.315Zm6.174-4.116a1.158,1.158,0,0,1-.819-1.976l3.17-3.169H40.6a1.158,1.158,0,1,1,0-2.315h9.554l-3.17-3.17a1.157,1.157,0,1,1,1.637-1.637L53.769,92.7a1.157,1.157,0,0,1,0,1.637l-5.145,5.145A1.153,1.153,0,0,1,47.806,99.822Z" transform="translate(-1.438 -1.164)" fill="#fff"/></g></svg>