<svg xmlns="http://www.w3.org/2000/svg" width="433.356" height="73.5" viewBox="0 0 433.356 73.5">
  <path id="Treadwill_logo" data-name="Treadwill logo" d="M52.43-68.6a6.037,6.037,0,0,1,4.312,1.568,5.39,5.39,0,0,1,1.666,4.116,5.235,5.235,0,0,1-1.666,4.067A6.152,6.152,0,0,1,52.43-57.33H37.044V-5.978a5.56,5.56,0,0,1-1.862,4.263A6.544,6.544,0,0,1,30.576,0a6.2,6.2,0,0,1-4.508-1.715A5.7,5.7,0,0,1,24.3-5.978V-57.33H8.918A6.037,6.037,0,0,1,4.606-58.9,5.39,5.39,0,0,1,2.94-63.014a5.2,5.2,0,0,1,1.715-4.018A6.08,6.08,0,0,1,8.918-68.6ZM89.082-53.41a7.5,7.5,0,0,1,4.949,1.666,4.967,4.967,0,0,1,2.009,3.92,6.071,6.071,0,0,1-1.568,4.557,5.17,5.17,0,0,1-3.724,1.519,9.778,9.778,0,0,1-3.332-.686q-.294-.1-1.323-.392a7.994,7.994,0,0,0-2.205-.294,8.709,8.709,0,0,0-4.9,1.568A11.44,11.44,0,0,0,75.117-36.8,17.5,17.5,0,0,0,73.6-29.2V-5.978a5.877,5.877,0,0,1-1.666,4.263A5.626,5.626,0,0,1,67.718,0,5.626,5.626,0,0,1,63.5-1.715a5.877,5.877,0,0,1-1.666-4.263V-46.452A5.877,5.877,0,0,1,63.5-50.715a5.626,5.626,0,0,1,4.214-1.715,5.626,5.626,0,0,1,4.214,1.715A5.877,5.877,0,0,1,73.6-46.452v1.274A14.847,14.847,0,0,1,80.066-51.3,19.885,19.885,0,0,1,89.082-53.41Zm60.172,25.97a5.032,5.032,0,0,1-1.862,3.822,6.234,6.234,0,0,1-4.116,1.47h-32.34a14.778,14.778,0,0,0,5.39,9.065A15.069,15.069,0,0,0,125.832-9.8a21.068,21.068,0,0,0,6.272-.735,16.334,16.334,0,0,0,3.577-1.568q1.323-.833,1.813-1.127a7.476,7.476,0,0,1,3.332-.882,4.812,4.812,0,0,1,3.528,1.47,4.7,4.7,0,0,1,1.47,3.43,6.116,6.116,0,0,1-2.744,4.8,23.415,23.415,0,0,1-7.35,3.822A28.716,28.716,0,0,1,126.42.98a28.905,28.905,0,0,1-14.357-3.43,23.941,23.941,0,0,1-9.457-9.457A27.578,27.578,0,0,1,99.274-25.48a30.047,30.047,0,0,1,3.528-14.8,25.049,25.049,0,0,1,9.31-9.751A24.064,24.064,0,0,1,124.46-53.41a22.893,22.893,0,0,1,12.2,3.528,26.372,26.372,0,0,1,9.163,9.506A25.554,25.554,0,0,1,149.254-27.44ZM124.46-42.63q-11.368,0-13.426,10.682H136.71v-.686a10.131,10.131,0,0,0-4.018-7.056A12.718,12.718,0,0,0,124.46-42.63Zm77.42-10.78a5.711,5.711,0,0,1,4.214,1.666,5.835,5.835,0,0,1,1.666,4.312V-5.978a5.877,5.877,0,0,1-1.666,4.263A5.626,5.626,0,0,1,201.88,0a5.549,5.549,0,0,1-4.165-1.666A6.163,6.163,0,0,1,196-5.88a20.11,20.11,0,0,1-6.615,4.851A19.94,19.94,0,0,1,180.614.98,22.405,22.405,0,0,1,168.364-2.5a24.391,24.391,0,0,1-8.673-9.653,30.122,30.122,0,0,1-3.185-14.014,30.814,30.814,0,0,1,3.136-14.063,24.1,24.1,0,0,1,8.575-9.7,21.826,21.826,0,0,1,12-3.479,22.7,22.7,0,0,1,8.82,1.715A23.162,23.162,0,0,1,196-47.334v-.1a5.877,5.877,0,0,1,1.666-4.263A5.626,5.626,0,0,1,201.88-53.41ZM182.084-9.8a13.086,13.086,0,0,0,10.388-4.655,17.285,17.285,0,0,0,4.018-11.711,17.473,17.473,0,0,0-4.018-11.76,13.028,13.028,0,0,0-10.388-4.7,12.924,12.924,0,0,0-10.29,4.7,17.473,17.473,0,0,0-4.018,11.76,17.418,17.418,0,0,0,3.969,11.711A12.942,12.942,0,0,0,182.084-9.8Zm80.85-62.72a5.711,5.711,0,0,1,4.214,1.666,5.834,5.834,0,0,1,1.666,4.312V-5.978a5.877,5.877,0,0,1-1.666,4.263A5.626,5.626,0,0,1,262.934,0a5.549,5.549,0,0,1-4.165-1.666,6.163,6.163,0,0,1-1.715-4.214,20.11,20.11,0,0,1-6.615,4.851A19.94,19.94,0,0,1,241.668.98,22.405,22.405,0,0,1,229.418-2.5a24.391,24.391,0,0,1-8.673-9.653,30.122,30.122,0,0,1-3.185-14.014A30.814,30.814,0,0,1,220.7-40.229a24.1,24.1,0,0,1,8.575-9.7,21.826,21.826,0,0,1,12-3.479A22.7,22.7,0,0,1,250.1-51.7a23.162,23.162,0,0,1,6.958,4.361V-66.542a5.877,5.877,0,0,1,1.666-4.263A5.626,5.626,0,0,1,262.934-72.52ZM243.138-9.8a13.086,13.086,0,0,0,10.388-4.655,17.285,17.285,0,0,0,4.018-11.711,17.473,17.473,0,0,0-4.018-11.76,13.028,13.028,0,0,0-10.388-4.7,12.924,12.924,0,0,0-10.29,4.7,17.473,17.473,0,0,0-4.018,11.76A17.418,17.418,0,0,0,232.8-14.455,12.942,12.942,0,0,0,243.138-9.8ZM359.66-68.894a6.393,6.393,0,0,1,4.361,1.813,5.878,5.878,0,0,1,2.009,4.557,7.514,7.514,0,0,1-.294,1.96L346.43-3.724a5.168,5.168,0,0,1-2.058,2.646A6.366,6.366,0,0,1,341.138,0a6.182,6.182,0,0,1-3.332-.98,6.558,6.558,0,0,1-2.45-2.842L321.44-35.476,307.426-3.822a6.558,6.558,0,0,1-2.45,2.842,6.182,6.182,0,0,1-3.332.98,6.366,6.366,0,0,1-3.234-1.078,5.168,5.168,0,0,1-2.058-2.646l-19.306-56.84a7.511,7.511,0,0,1-.294-1.96,5.878,5.878,0,0,1,2.009-4.557,6.5,6.5,0,0,1,4.459-1.813,6.289,6.289,0,0,1,3.528,1.029,5.235,5.235,0,0,1,2.156,2.793l14.6,44.3,12.74-30.576a6.592,6.592,0,0,1,2.254-2.793,5.174,5.174,0,0,1,3.332-.931,4.983,4.983,0,0,1,3.283.931,6.742,6.742,0,0,1,2.205,2.793L339.374-21.07l14.5-44a5.17,5.17,0,0,1,2.205-2.793A6.527,6.527,0,0,1,359.66-68.894ZM385.042-5.978a5.877,5.877,0,0,1-1.666,4.263A5.626,5.626,0,0,1,379.162,0a5.626,5.626,0,0,1-4.214-1.715,5.877,5.877,0,0,1-1.666-4.263V-46.452a5.877,5.877,0,0,1,1.666-4.263,5.626,5.626,0,0,1,4.214-1.715,5.626,5.626,0,0,1,4.214,1.715,5.877,5.877,0,0,1,1.666,4.263ZM379.064-58.8q-3.332,0-4.7-1.078T372.988-63.7v-1.862q0-2.744,1.47-3.822a8.06,8.06,0,0,1,4.7-1.078q3.43,0,4.8,1.078t1.372,3.822V-63.7q0,2.842-1.421,3.871T379.064-58.8ZM409.836-5.978a5.787,5.787,0,0,1-1.715,4.263A5.787,5.787,0,0,1,403.858,0a5.51,5.51,0,0,1-4.116-1.715,5.877,5.877,0,0,1-1.666-4.263V-66.542a5.787,5.787,0,0,1,1.715-4.263,5.787,5.787,0,0,1,4.263-1.715,5.51,5.51,0,0,1,4.116,1.715,5.877,5.877,0,0,1,1.666,4.263Zm26.46,0a5.787,5.787,0,0,1-1.715,4.263A5.787,5.787,0,0,1,430.318,0,5.51,5.51,0,0,1,426.2-1.715a5.877,5.877,0,0,1-1.666-4.263V-66.542a5.787,5.787,0,0,1,1.715-4.263,5.787,5.787,0,0,1,4.263-1.715,5.51,5.51,0,0,1,4.116,1.715,5.877,5.877,0,0,1,1.666,4.263Z" transform="translate(-2.94 72.52)" fill="#fff"/>
</svg>
