<svg xmlns="http://www.w3.org/2000/svg" width="24" height="24" viewBox="0 0 24 24"><g transform="translate(-28 -78)"><rect width="24" height="24" transform="translate(28 78)" fill="none"/><path d="M40.629,101.086H37.076A2.789,2.789,0,0,1,34.3,98.313V85.876A2.779,2.779,0,0,1,37.076,83.1h3.553a1,1,0,1,1,0,2H37.076a.778.778,0,0,0-.777.777V98.31a.784.784,0,0,0,.78.777h3.55a1,1,0,1,1,0,2Zm5.329-3.553a1,1,0,0,1-.707-1.706l2.736-2.735H39.741a1,1,0,1,1,0-2h8.246l-2.736-2.736a1,1,0,0,1,1.413-1.413l4.441,4.441a1,1,0,0,1,0,1.413l-4.441,4.441A1,1,0,0,1,45.958,97.534Z" transform="translate(-2.103 -1.703)" fill="#bf494e"/></g></svg>