<svg xmlns="http://www.w3.org/2000/svg" width="28" height="28" viewBox="0 0 28 28"><g transform="translate(23759 21142)"><rect width="28" height="28" transform="translate(-23759 -21142)" fill="none"/><g transform="translate(-23755.564 -21139.273)"><path d="M15.394,21.96A17.239,17.239,0,0,1,.091,8.071,3.763,3.763,0,0,1,.946,4.6l.031-.033a3.124,3.124,0,0,1,.246-.311l.668-.742A3.06,3.06,0,0,1,6.224,3.3L7.351,4.321a3.088,3.088,0,0,1,.217,4.351l-.667.74a3.061,3.061,0,0,1-1.39.883l-.2.061.094.191a12.941,12.941,0,0,0,6.833,6.293l.175.069.059-.179a3.056,3.056,0,0,1,.633-1.083l.668-.741a3.061,3.061,0,0,1,4.334-.219l1.127,1.023a3.091,3.091,0,0,1,.218,4.35l-.668.741a3.068,3.068,0,0,1-.75.607,4.164,4.164,0,0,1-2.179.574Q15.626,21.981,15.394,21.96Zm1.444-11.7a5.332,5.332,0,0,0-5.325-5.326.667.667,0,1,1,0-1.334,6.668,6.668,0,0,1,6.66,6.66.667.667,0,0,1-1.335,0Zm3.605-.445A8.493,8.493,0,0,0,11.96,1.334.667.667,0,0,1,11.96,0a9.83,9.83,0,0,1,9.818,9.818.667.667,0,1,1-1.335,0Z" transform="translate(0)" fill="#fff"/></g></g></svg>