<svg xmlns="http://www.w3.org/2000/svg" width="24" height="24" viewBox="0 0 24 24"><g transform="translate(12645 -998)"><rect width="24" height="24" transform="translate(-12645 998)" fill="none"/><path d="M-22736,8591.194a3.646,3.646,0,0,1-.656-.063,3.376,3.376,0,0,1-2.684-2.4h-4.5a1.144,1.144,0,0,1-1-.589,1.147,1.147,0,0,1,.012-1.17c.182-.3.359-.589.531-.866l.031-.048c.969-1.552,1.732-2.777,1.732-4.64,0-.2,0-.393,0-.575l0-.231v-.035a9.993,9.993,0,0,1,.256-2.983,6.534,6.534,0,0,1,3.854-4.264v-.279c0-.042,0-.081,0-.12a3.955,3.955,0,0,1,.094-1.193,2.336,2.336,0,0,1,2.3-1.733,2.335,2.335,0,0,1,2.3,1.733,3.656,3.656,0,0,1,.094,1.212c0,.053,0,.108,0,.168v.213a6.527,6.527,0,0,1,.611.281,6.009,6.009,0,0,0-1.1,1.145c-.324-.13-.635-.222-.963-.319l-.055-.017v-.635c0-.253,0-.464,0-.639a3.626,3.626,0,0,0-.033-1,.871.871,0,0,0-.857-.651.878.878,0,0,0-.857.651,3.973,3.973,0,0,0-.035,1.039c0,.3,0,.691,0,1.232l-.105.031a5.2,5.2,0,0,0-2.471,1.322,4.937,4.937,0,0,0-1.529,3.59c0,4.223-.1,4.394-1.832,7.258-.115.19-.236.393-.365.608h14.391l-1.1-1.832a7.687,7.687,0,0,1-.6-1.234,6.033,6.033,0,0,0,1.258.133c.137,0,.281-.006.439-.017.063.123.129.24.193.348.148.248.283.471.4.672.107.178.205.339.291.484.844,1.391.844,1.391.869,1.678a1.162,1.162,0,0,1-.977,1.253l-.012,0c-.055.015-.055.015-4.754.015A3.128,3.128,0,0,1-22736,8591.194Zm-1.707-2.427h0a1.961,1.961,0,0,0,1.7.919,1.7,1.7,0,0,0,1.586-.919Z" transform="translate(10103.293 -7570.293)" fill="#fff"/><circle cx="4" cy="4" r="4" transform="translate(-12630 1004)" fill="#ff2a2a"/></g></svg>