<svg xmlns="http://www.w3.org/2000/svg" width="32" height="32" viewBox="0 0 32 32"><g transform="translate(12645 -998)"><rect width="32" height="32" transform="translate(-12645 998)" fill="none"/><path d="M-22636.277,8684.761a4.68,4.68,0,0,1-.795-.068,4.308,4.308,0,0,1-3.434-3.217h-6.2a1.28,1.28,0,0,1-1.125-.661,1.277,1.277,0,0,1,.012-1.306l.855-1.425.434-.719c.637-1.06.723-1.2.854-1.454a9.693,9.693,0,0,0,.953-5.232l0-.011v-.024a11.78,11.78,0,0,1,.322-3.7,8.445,8.445,0,0,1,5.154-5.582c0-.24,0-.45,0-.644a5.377,5.377,0,0,1,.113-1.584,2.885,2.885,0,0,1,2.838-2.132,2.872,2.872,0,0,1,2.822,2.132,4.806,4.806,0,0,1,.113,1.486l0,.172c0,.168,0,.356,0,.569a8.426,8.426,0,0,1,1.756.9,5.933,5.933,0,0,0-1.273.973,9.723,9.723,0,0,0-1.982-.775v-.759c0-.295,0-.546,0-.758a5.013,5.013,0,0,0-.053-1.4,1.411,1.411,0,0,0-1.387-1.046,1.4,1.4,0,0,0-1.381,1.046,4.963,4.963,0,0,0-.059,1.464c0,.365,0,.845,0,1.452a7.234,7.234,0,0,0-3.359,1.808,6.847,6.847,0,0,0-2.115,4.968c0,5.564-.1,5.723-2.549,9.785-.182.3-.373.615-.578.957h20.076l-1.687-2.825a9.453,9.453,0,0,1-1.316-3.71,6.05,6.05,0,0,0,.629.033,6.183,6.183,0,0,0,.871-.063,8.181,8.181,0,0,0,1.1,2.968c.408.679.758,1.261,1.041,1.728.99,1.642.99,1.642,1.021,1.94v.016a1.294,1.294,0,0,1-1.092,1.4.048.048,0,0,0-.016,0c-.021.01-.031.015-2.518.015h-4a3.5,3.5,0,0,1-.762,1.768A4.146,4.146,0,0,1-22636.277,8684.761Zm-2.648-3.229a2.821,2.821,0,0,0,2.682,1.725,2.438,2.438,0,0,0,2.463-1.725Z" transform="translate(10007.641 -7656.473)" fill="#212121"/><circle cx="4" cy="4" r="4" transform="translate(-12625 1007)" fill="#ff2a2a"/></g></svg>