<svg xmlns="http://www.w3.org/2000/svg" width="24" height="24" viewBox="0 0 24 24"><g transform="translate(12645 -998)"><rect width="24" height="24" transform="translate(-12645 998)" fill="none"/><g transform="translate(-12683.632 1000.452)"><path d="M-10041.024,7637.681a3.4,3.4,0,0,1-2.685-2.406h-4.5a1.162,1.162,0,0,1-.993-1.758c1.226-2.043,2.295-3.342,2.295-5.551a13.5,13.5,0,0,1,.247-3.826,6.516,6.516,0,0,1,3.856-4.265,5.73,5.73,0,0,1,.091-1.592,2.392,2.392,0,0,1,4.6,0,5.245,5.245,0,0,1,.091,1.592,6.515,6.515,0,0,1,3.858,4.265c.7,2.464-.438,4.414,1.133,7.029,1.543,2.573,1.536,2.487,1.568,2.84a1.16,1.16,0,0,1-.976,1.251c-.1.016.3.017-4.77.016a3.146,3.146,0,0,1-3.16,2.465A3.707,3.707,0,0,1-10041.024,7637.681Zm2.234-2.363h-3.284A1.926,1.926,0,0,0-10038.79,7635.318Zm-2.479-16.626a13.026,13.026,0,0,0-.032,2.272,5.361,5.361,0,0,0-2.575,1.354,4.969,4.969,0,0,0-1.528,3.589c0,4.5-.108,4.378-2.2,7.867h14.392l-1.1-1.833c-2.374-3.953.325-6.775-2.631-9.622a5.486,5.486,0,0,0-2.575-1.354,12.439,12.439,0,0,0-.033-2.272.872.872,0,0,0-.857-.647A.874.874,0,0,0-10041.27,7618.692Z" transform="translate(10091.292 -7617.292)" fill="#fff"/></g></g></svg>