<svg xmlns="http://www.w3.org/2000/svg" width="32" height="32" viewBox="0 0 32 32"><g transform="translate(12645 -998)"><rect width="32" height="32" transform="translate(-12645 998)" fill="none"/><g transform="translate(-12639.607 1001.27)"><path d="M-9985.469,7772.42a4.263,4.263,0,0,1-3.429-3.213h-6.2a1.3,1.3,0,0,1-1.111-1.967c1.869-3.113,1.952-3.236,2.14-3.6,1.792-3.464.364-5.752,1.277-8.969a8.437,8.437,0,0,1,5.153-5.585,8.184,8.184,0,0,1,.11-2.228,2.943,2.943,0,0,1,5.657,0,8.048,8.048,0,0,1,.11,2.228,8.439,8.439,0,0,1,5.156,5.585c.918,3.239-.6,5.871,1.535,9.436,2.063,3.439,2.022,3.284,2.06,3.681a1.3,1.3,0,0,1-1.091,1.4c-.1.016.569.017-6.533.016a3.589,3.589,0,0,1-.761,1.768,4.13,4.13,0,0,1-3.276,1.516A4.553,4.553,0,0,1-9985.469,7772.42Zm3.294-3.156h-5.144C-9986.43,7771.521-9982.843,7771.6-9982.175,7769.264Zm-3.906-22a13.831,13.831,0,0,0-.056,2.915,7.239,7.239,0,0,0-3.356,1.812,6.879,6.879,0,0,0-2.115,4.968c0,5.966-.09,5.677-3.128,10.743h20.078l-1.693-2.825c-3.146-5.241.517-8.964-3.551-12.886a7.305,7.305,0,0,0-3.356-1.812,14.558,14.558,0,0,0-.053-2.915,1.409,1.409,0,0,0-1.385-1.043A1.407,1.407,0,0,0-9986.081,7747.269Z" transform="translate(9995.642 -7745.472)" fill="#212121"/></g></g></svg>