<svg xmlns="http://www.w3.org/2000/svg" width="40" height="40" viewBox="0 0 40 40">
  <g id="Notification" transform="translate(-1776 -59)">
    <rect id="Rectangle_2171" data-name="Rectangle 2171" width="40" height="40" transform="translate(1776 59)" fill="rgba(255,255,255,0)"/>
    <g id="Group_2304" data-name="Group 2304" transform="translate(1781.967 62.861)">
      <g id="baseline-notifications" transform="translate(0 0)">
        <path id="Path_1417" data-name="Path 1417" d="M18.09,35.233a3.549,3.549,0,0,0,3.539-3.539H14.551A3.539,3.539,0,0,0,18.09,35.233Zm10.682-8.847V17.539c0-5.432-2.9-9.979-7.962-11.182v-1.2a2.654,2.654,0,0,0-5.308,0v1.2c-5.078,1.2-7.962,5.733-7.962,11.182v8.847L4,29.925v1.769H32.31V29.925Z" transform="translate(-4 -2.5)" fill="#fcf8f1" stroke="#343434" stroke-width="3"/>
      </g>
    </g>
  </g>
</svg>
