<svg xmlns="http://www.w3.org/2000/svg" width="28" height="28" viewBox="0 0 28 28"><g transform="translate(-4732.001 -628.001)"><path d="M95,67.8V50.2A2.2,2.2,0,0,1,97.2,48h15.4a2.2,2.2,0,0,1,2.2,2.2v11a2.2,2.2,0,0,1-2.2,2.2H99.4l-4.4,4.4Zm4.4-10.148a.75.75,0,0,0,0,1.5h6a.75.75,0,0,0,0-1.5Zm0-3a.75.75,0,0,0,0,1.5h11a.75.75,0,1,0,0-1.5Zm0-3a.75.75,0,1,0,0,1.5h11a.75.75,0,1,0,0-1.5Z" transform="translate(4641.602 584.602)" fill="#fff"/><rect width="28" height="28" transform="translate(4732.001 628.001)" fill="none"/></g></svg>