<svg xmlns="http://www.w3.org/2000/svg" width="28" height="28" viewBox="0 0 28 28"><g transform="translate(-109.256 -115.75)"><rect width="28" height="28" transform="translate(109.256 115.75)" fill="none"/><path d="M13.281,10.888a3.092,3.092,0,0,1,.816-2.1l-3.06-3.047a3.141,3.141,0,0,1-2.981.186L5.6,8.988A3.109,3.109,0,0,1,3.126,14,3.111,3.111,0,1,1,4.368,8.033L6.85,4.943a3.124,3.124,0,1,1,5.261-.328L15.44,7.929a3.153,3.153,0,0,1,2.022.03l2.162-2.691a3.128,3.128,0,1,1,2.251.954,3.137,3.137,0,0,1-.91-.134l-2.209,2.75a3.119,3.119,0,1,1-5.475,2.051Z" transform="translate(111.257 123.75)" fill="#fff" stroke="rgba(0,0,0,0)" stroke-miterlimit="10" stroke-width="1"/></g></svg>