<svg xmlns="http://www.w3.org/2000/svg" width="28" height="28" viewBox="0 0 28 28"><g transform="translate(-347 -791)"><g transform="translate(347 791)"><rect width="28" height="28" fill="none"/><g transform="translate(4.667 4.667)"><path d="M0,0H18.667V18.667H0Z" fill="none"/></g></g><path d="M20.5,13.5a7.251,7.251,0,0,0,.065-.99,5.922,5.922,0,0,0-.076-.99l2.2-1.664a.507.507,0,0,0,.13-.642l-2.079-3.5a.536.536,0,0,0-.639-.232L17.516,6.5a7.7,7.7,0,0,0-1.754-.99l-.39-2.675a.52.52,0,0,0-.52-.432H10.694a.509.509,0,0,0-.509.432L9.8,5.507a7.873,7.873,0,0,0-1.754.99L5.453,5.486a.524.524,0,0,0-.639.232l-2.068,3.5a.471.471,0,0,0,.13.642l2.2,1.664a5.7,5.7,0,0,0-.022,1.98l-2.2,1.664a.507.507,0,0,0-.13.642L4.8,19.3a.536.536,0,0,0,.639.232L8.03,18.525a7.7,7.7,0,0,0,1.754.99l.39,2.675a.528.528,0,0,0,.52.432h4.158a.5.5,0,0,0,.509-.432l.39-2.675a7.479,7.479,0,0,0,1.754-.99l2.588,1.011a.524.524,0,0,0,.639-.232l2.079-3.5a.479.479,0,0,0-.13-.642Zm-7.731,2.8a3.857,3.857,0,0,1-3.9-3.792,3.9,3.9,0,0,1,7.8,0A3.857,3.857,0,0,1,12.773,16.3Z" transform="translate(348.407 792.39)" fill="#fff"/></g></svg>