<svg xmlns="http://www.w3.org/2000/svg" width="29.977" height="24.418" viewBox="0 0 29.977 24.418"><defs><style>.a{fill:none;stroke:#707070;stroke-width:0.5px;}</style></defs><g transform="translate(0.25 0.25)"><g transform="translate(0 0)"><path class="a" d="M74.6,41.206H94.821a2.192,2.192,0,0,1,2.184,2.184V55.957a2.192,2.192,0,0,1-2.184,2.184H80.88l-3.155,3.182a.675.675,0,0,1-.485.216.7.7,0,0,1-.7-.7v-2.7H74.6a2.192,2.192,0,0,1-2.184-2.184V43.39A2.192,2.192,0,0,1,74.6,41.206ZM91.72,52.02A2.022,2.022,0,1,0,89.7,50,2.037,2.037,0,0,0,91.72,52.02Zm-7.092,0A2.022,2.022,0,1,0,82.605,50,2.037,2.037,0,0,0,84.628,52.02Zm-7.065,0A2.022,2.022,0,1,0,75.54,50,2.037,2.037,0,0,0,77.563,52.02Z" transform="translate(-72.412 -41.206)"/><path class="a" d="M12.513,201.494v-4.288h2.211a1.439,1.439,0,0,1,1.429,1.429v8.252a1.418,1.418,0,0,1-1.429,1.483H13.456v1.78a.473.473,0,0,1-.458.458.447.447,0,0,1-.324-.135L10.6,208.4H1.429A1.439,1.439,0,0,1,0,206.968v-2.049H9.088A3.43,3.43,0,0,0,12.513,201.494Z" transform="translate(13.322 -186.689)"/></g></g></svg>