<svg xmlns="http://www.w3.org/2000/svg" width="28" height="28" viewBox="0 0 28 28"><g transform="translate(-108 -74)"><rect width="28" height="28" transform="translate(108 74)" fill="none"/><path d="M5.313,16.523V12.352a3.9,3.9,0,0,1,3.9-3.9h5.116a3.9,3.9,0,0,1,3.9,3.9v4.172Zm17.57-4.014H19.561v-.246a4.935,4.935,0,0,0-2.942-4.353,2.591,2.591,0,0,1,1.06-.217h2.55a2.658,2.658,0,0,1,2.655,2.655V12.51Zm-18.62,0H0V10.349A2.654,2.654,0,0,1,2.652,7.7H5.205a2.609,2.609,0,0,1,1.482.449,4.907,4.907,0,0,0-2.423,4.116v.246ZM7.755,3.634a3.633,3.633,0,1,1,3.633,3.631A3.633,3.633,0,0,1,7.755,3.634Zm8.864.813a2.419,2.419,0,1,1,2.415,2.417A2.424,2.424,0,0,1,16.619,4.447ZM1.288,4.441A2.422,2.422,0,1,1,3.711,6.864,2.426,2.426,0,0,1,1.288,4.441Z" transform="translate(110.674 78.848)" fill="#fff" stroke="rgba(0,0,0,0)" stroke-miterlimit="10" stroke-width="1"/></g></svg>