<svg xmlns="http://www.w3.org/2000/svg" width="42.688" height="42.688" viewBox="0 0 42.688 42.688">
  <g id="Like_theme_color" data-name="Like_theme color" transform="translate(-7.354 -9.756)">
    <path id="Path_1562" data-name="Path 1562" d="M4.079,43.48A3.318,3.318,0,0,1,.793,40.194V17.209a3.315,3.315,0,0,1,3.286-3.283h4.93a3.3,3.3,0,0,1,2.847,1.7c1.108-.679,2.2-1.076,2.9-1.481,1.651-.953,2.49-3.637,2.882-6.434.2-1.4.3-2.742.471-3.863a6.286,6.286,0,0,1,.4-1.6,2.456,2.456,0,0,1,.583-.872A2.188,2.188,0,0,1,20.5.793,7.438,7.438,0,0,1,26.2,3.2a10.287,10.287,0,0,1,2.193,5.1,29.652,29.652,0,0,1,.225,7.267h9.928A4.955,4.955,0,0,1,43.48,20.5a9.047,9.047,0,0,1-.618,2.8c-.347,1.12-.817,2.469-1.334,3.914-1.032,2.891-2.261,6.168-3.065,8.579a8.187,8.187,0,0,1-1.491,2.847,4.491,4.491,0,0,1-3.344,1.561h-19.7a4.8,4.8,0,0,1-1.635-.3v.3A3.315,3.315,0,0,1,9.009,43.48Zm0-3.286h4.93V17.209H4.079Zm9.848-3.283h19.7a.9.9,0,0,0,.859-.423,5.664,5.664,0,0,0,.862-1.747c.838-2.514,2.068-5.783,3.087-8.636.509-1.427.965-2.749,1.285-3.783s.475-1.964.475-1.827a1.606,1.606,0,0,0-1.651-1.635H26.916a1.644,1.644,0,0,1-1.648-1.651c0-1.939.421-5.4-.1-8.335a7.3,7.3,0,0,0-1.443-3.5A3.768,3.768,0,0,0,21.383,4.14c-.165.937-.277,2.533-.488,4.033-.429,3.058-1.234,6.929-4.507,8.819-1.217.7-2.4,1.113-3.1,1.6a1.808,1.808,0,0,0-.994,1.9V35.264a1.6,1.6,0,0,0,1.635,1.648Z" transform="translate(6.561 8.963)" fill="#f5bb56"/>
  </g>
</svg>
