<svg xmlns="http://www.w3.org/2000/svg" width="42.691" height="42.691" viewBox="0 0 42.691 42.691">
  <path id="Path_1561" data-name="Path 1561" d="M4.079,43.485A3.318,3.318,0,0,1,.793,40.2V17.211a3.315,3.315,0,0,1,3.286-3.283H9.01a3.3,3.3,0,0,1,2.847,1.7c1.108-.679,2.2-1.077,2.9-1.481,1.651-.953,2.49-3.638,2.882-6.435.2-1.4.3-2.742.472-3.863a6.286,6.286,0,0,1,.4-1.6,2.456,2.456,0,0,1,.583-.872A2.188,2.188,0,0,1,20.5.793,7.439,7.439,0,0,1,26.2,3.2a10.288,10.288,0,0,1,2.193,5.1,29.656,29.656,0,0,1,.225,7.268h9.929A4.956,4.956,0,0,1,43.485,20.5a9.048,9.048,0,0,1-.619,2.8c-.347,1.121-.817,2.469-1.334,3.915C40.5,30.1,39.271,33.38,38.468,35.79a8.188,8.188,0,0,1-1.491,2.847A4.491,4.491,0,0,1,33.633,40.2h-19.7a4.8,4.8,0,0,1-1.635-.3v.3A3.315,3.315,0,0,1,9.01,43.485Zm0-3.286H9.01V17.211H4.079Zm9.849-3.283h19.7a.9.9,0,0,0,.859-.423,5.664,5.664,0,0,0,.862-1.747c.838-2.514,2.068-5.783,3.088-8.637.509-1.427.966-2.749,1.286-3.783s.475-1.964.475-1.827a1.606,1.606,0,0,0-1.651-1.635H26.919a1.644,1.644,0,0,1-1.648-1.651c0-1.939.421-5.4-.1-8.336a7.3,7.3,0,0,0-1.443-3.5A3.769,3.769,0,0,0,21.386,4.14c-.165.937-.277,2.533-.488,4.033-.429,3.059-1.235,6.93-4.508,8.82-1.218.7-2.4,1.113-3.1,1.6a1.808,1.808,0,0,0-.994,1.9v14.77a1.6,1.6,0,0,0,1.635,1.648Z" transform="translate(-0.793 -0.794)" fill="#bfbfbf"/>
</svg>
