<svg xmlns="http://www.w3.org/2000/svg" width="20" height="20" viewBox="0 0 20 20"><g transform="translate(-0.321 -0.321)"><rect width="20" height="20" transform="translate(0.321 0.321)" fill="none"/><path d="M12.479,5.646h0a.731.731,0,0,0,0,1.1l3.308,3.026H2.853a.821.821,0,0,0-.853.78H2a.821.821,0,0,0,.853.78H15.8l-3.308,3.026a.731.731,0,0,0,0,1.1h0a.906.906,0,0,0,1.2,0L18.456,11.1a.731.731,0,0,0,0-1.1L13.681,5.646A.906.906,0,0,0,12.479,5.646Z" transform="translate(-0.295 -0.319)" fill="#647bcc"/></g></svg>