<svg xmlns="http://www.w3.org/2000/svg" width="56.755" height="65.519" viewBox="0 0 56.755 65.519"><g transform="translate(0 12.392)"><path d="M192,0a14.218,14.218,0,0,0,14.217,14.217A14.218,14.218,0,0,0,192,0Zm0,0" transform="translate(-177.84 -12.392)" fill="#00d400"/><path d="M254.217,0A14.218,14.218,0,0,0,240,14.217,14.218,14.218,0,0,0,254.217,0Zm0,0" transform="translate(-211.623 -12.392)" fill="#00d400"/><path d="M165.924,48H136V76.862h29.924Zm0,0" transform="translate(-122.585 -46.174)" fill="#b88217"/><path d="M101.427,248h-.164a2.734,2.734,0,0,0-1.816.691l-6.31,5.609H84.475l4.708-1.284a2.378,2.378,0,1,0-1.378-4.551L79.75,251.15H67.938L64,255.087l9.45,9.45,5.512-3.937H94.712l8.563-7.85a2.735,2.735,0,0,0-1.848-4.75Zm0,0" transform="translate(-52.948 -216.135)" fill="#ffd69f"/><path d="M23.135,216H8v3.784H62.863V216Zm0,0" transform="translate(-7.054 -187.595)" fill="#8c8c8c"/><g transform="translate(0 2.865)"><path d="M376,24h1.892v1.892H376Zm0,0" transform="translate(-331.542 -21.162)" fill="#ffb41f"/><path d="M392,8h1.892V9.892H392Zm0,0" transform="translate(-345.65 -7.054)" fill="#ffb41f"/><path d="M408,24h1.892v1.892H408Zm0,0" transform="translate(-359.759 -21.162)" fill="#ffb41f"/><path d="M392,40h1.892v1.892H392Zm0,0" transform="translate(-345.65 -35.27)" fill="#ffb41f"/><path d="M464,0h1.892V1.892H464Zm0,0" transform="translate(-409.137)" fill="#ffb41f"/><path d="M400,88h1.892v1.892H400Zm0,0" transform="translate(-352.704 -77.595)" fill="#ffb41f"/><path d="M72,80h1.892v1.892H72Zm0,0" transform="translate(-63.487 -70.541)" fill="#ffb41f"/><path d="M72,112h1.892v1.892H72Zm0,0" transform="translate(-63.487 -98.757)" fill="#ffb41f"/><path d="M88,96h1.892v1.892H88Zm0,0" transform="translate(-77.595 -84.649)" fill="#ffb41f"/><path d="M56,96h1.892v1.892H56Zm0,0" transform="translate(-49.379 -84.649)" fill="#ffb41f"/><path d="M0,40H1.892v1.892H0Zm0,0" transform="translate(0 -35.27)" fill="#ffb41f"/><path d="M72,0h1.892V1.892H72Zm0,0" transform="translate(-63.487)" fill="#ffb41f"/></g><path d="M22.962,315.025,11.937,304,8,307.937,19.812,319.75l3.937-3.937Zm0,0" transform="translate(-2.46 -266.623)" fill="#3d9ae2"/></g></svg>