<svg xmlns="http://www.w3.org/2000/svg" width="45.882" height="59.914" viewBox="0 0 45.882 59.914"><g transform="translate(-26.663 -13.075)"><path d="M206.633,29.682h15.009v-8.1h4.048a4.048,4.048,0,0,0,0-8.1h-4.048V8.09H204.1a4.048,4.048,0,0,0-4.048,4.048V28.094l1.552-.749a3.7,3.7,0,0,1,5.031,2.337Zm0,0" transform="translate(-173.388 4.985)" fill="#ffb41f"/><path d="M318.992,300.138a4.048,4.048,0,0,1-8.1,0V296.09h-6.747v5.4H300.1a4.048,4.048,0,0,0,0,8.1h4.048v8.1h17.543a4.048,4.048,0,0,0,4.048-4.048V296.09h-6.747Zm0,0" transform="translate(-253.194 -244.692)" fill="#1cc8eb"/><path d="M361.594,168.09H344.051v5.4H348.1a4.048,4.048,0,1,1,0,8.1h-4.048v8.1H350.8v4.048a4.048,4.048,0,1,0,8.1,0v-4.048h6.747V172.138A4.049,4.049,0,0,0,361.594,168.09Zm0,0" transform="translate(-293.098 -138.284)" fill="#8ef059"/><path d="M233.594,309.585a4.048,4.048,0,0,1,0-8.1h4.048v-5.4H216.051v17.543a4.048,4.048,0,0,0,4.048,4.048h17.543v-8.1Zm0,0" transform="translate(-186.689 -244.692)" fill="#ebe023"/><g transform="translate(32.568 37.635)"><path d="M248.051,192.09h1.619v1.619h-1.619Zm0,0" transform="translate(-244.24 -188.851)" fill="#aba8b1"/><path d="M248.051,160.09h1.619v1.619h-1.619Zm0,0" transform="translate(-244.24 -160.09)" fill="#aba8b1"/><path d="M280.051,160.09h1.619v1.619h-1.619Zm0,0" transform="translate(-273.001 -160.09)" fill="#aba8b1"/><path d="M221.73,193.947l-2.666,2.666V192.09h-1.619v6.142l-.81.81-.81-.81v-2.9h-1.619v1.284l-2.666-2.666-1.145,1.145,5.668,5.667a.809.809,0,0,0,1.145,0l5.668-5.667Zm0,0" transform="translate(-210.395 -188.852)" fill="#aba8b1"/></g></g></svg>