<svg xmlns="http://www.w3.org/2000/svg" xmlns:xlink="http://www.w3.org/1999/xlink" width="280" height="164" viewBox="0 0 280 164"><defs><filter id="a" x="40.5" y="90.5" width="33" height="32" filterUnits="userSpaceOnUse"><feOffset input="SourceAlpha"/><feGaussianBlur stdDeviation="4.5" result="b"/><feFlood flood-color="#df5713"/><feComposite operator="in" in2="b"/><feComposite in="SourceGraphic"/></filter><filter id="c" x="85.5" y="90.5" width="33" height="32" filterUnits="userSpaceOnUse"><feOffset input="SourceAlpha"/><feGaussianBlur stdDeviation="4.5" result="d"/><feFlood flood-color="#df5713"/><feComposite operator="in" in2="d"/><feComposite in="SourceGraphic"/></filter><clipPath id="e"><path d="M-16725.6,4522.168c2.375-6.2,14.605-7.95,24.209-9.809-.207,0,0-3.512,0-3.512h34.6v3.512s17.375,5.43,19.42,6.61,2.965,2.7,3.627,5.162C-16649.652,4528.7-16689.5,4546.956-16725.6,4522.168Z" transform="translate(16725.6 -4508.848)" fill="#ee7270"/></clipPath></defs><g transform="translate(5082 1841)"><rect width="280" height="164" transform="translate(-5082 -1841)" fill="none"/><g transform="translate(-5142 -2015)"><path d="M16901.084-3934.5a77.525,77.525,0,0,1-60.412,28.849,77.672,77.672,0,0,1-77.672-77.673,77.672,77.672,0,0,1,77.672-77.672,77.525,77.525,0,0,1,60.412,28.849A77.532,77.532,0,0,1,16961.5-4061a77.671,77.671,0,0,1,77.672,77.672,77.671,77.671,0,0,1-77.672,77.673A77.53,77.53,0,0,1,16901.084-3934.5Z" transform="translate(-16701 4239)" fill="#dbdbdb"/><path d="M29.8,0C35.64,0,54.1,2.024,58.937,5.639c9.632,7.192,5.116,19.62,5.116,35.3,0,23.3-16.384,43.443-34.258,43.443S-2.569,65.494-2.569,42.192c0-6.454-3.8-17.478-1.766-23.08C.8,4.968,16.872,0,29.8,0Z" transform="translate(228.544 209.644)" fill="#ef9246"/><g transform="translate(81.846 187.378)"><path d="M-16725.6,4522.168c2.375-6.2,14.605-7.95,24.209-9.809-.207,0,0-3.512,0-3.512h34.6v3.512s17.375,5.43,19.42,6.61,2.965,2.7,3.627,5.162C-16649.652,4528.7-16689.5,4546.956-16725.6,4522.168Z" transform="translate(16740.945 -4388.845)" fill="#ee7270"/><rect width="35" height="3" rx="1.5" transform="translate(39.154 117.622)" fill="#c74744"/><rect width="46" height="14" rx="7" transform="translate(33.154 104.622)" fill="#ee7270"/><g transform="translate(14.154 22.622)" fill="#fea060" stroke="#707070" stroke-width="1"><ellipse cx="44.5" cy="46.5" rx="44.5" ry="46.5" stroke="none"/><ellipse cx="44.5" cy="46.5" rx="44" ry="46" fill="none"/></g><path d="M-16602.141,4416.851c-3.859-3.542-23.594-15.78-15.854-39.918,13.512-25.712,9.051-19.546,12.2-26.5-3.633,8.282-14.082,22.732-16.588,26.135C-16625.828,4381.17-16630.285,4405.469-16602.141,4416.851Z" transform="translate(16641.557 -4306.383)" fill="#6e3e28"/><path d="M-16537.1,4359.874c22.613-3.279,58.367,29.674,20.271,60.646C-16502.625,4404.91-16496.633,4375.111-16537.1,4359.874Z" transform="translate(16595.838 -4311.18)" fill="#6e3e28"/><path d="M-16619.953,4369.161c-7.852-2.67-22.02-11.414-22.711-29.129a18.851,18.851,0,0,1,1.73-8.24c4.783-9.048,15.693-23.686,17.139-29.079,3.76,6.514,22.432,20.062,32.152,16.65,2.217-1.705-5.811-10.332-8.057-11.628-2.428-1.4,15.943,1.007,25.773,10.712,14.59,16.457,12.74,30.146-6.465,49.352-4.389,4.387,46.73-12.963,28.527-70.132-2.062-4.056-4.875-10.356-8.07-14.633-2.457-3.285-6.965-8.981-12.658-12.743-34.875-25.363-54.52-2-54.689,0-2.4-2.233-10.891-7.635-19.344,5.581-6.461,10.1-13.723,37.364-12.922,48.166C-16657.686,4348.756-16640.234,4369.334-16619.953,4369.161Z" transform="translate(16659.607 -4258.559)" fill="#8a4c33"/><path d="M-16578.055,4381.836c.078-.078,2.406,1.164,2.33,5.123-2.406-1.164-6.6-.078-10.092,4.347C-16587.066,4389.057-16582.465,4381.836-16578.055,4381.836Z" transform="translate(16621.305 -4322.728)" fill="#894c32" stroke="#707070" stroke-width="1"/><path d="M2.331,0C2.253-.074-.076,1.168,0,5.126c2.406-1.164,6.188.187,9.733,3.531C11.152,6.361,6.789,0,2.331,0Z" transform="translate(69.045 59.419) rotate(8)" fill="#894c32" stroke="#707070" stroke-width="1"/><ellipse cx="5.034" cy="6.473" rx="5.034" ry="6.473" transform="matrix(-0.985, -0.174, 0.174, -0.985, 73.838, 81.616)" fill="#e28f56"/><ellipse cx="5.034" cy="6.473" rx="5.034" ry="6.473" transform="translate(48.557 78.583) rotate(167)" fill="#e28f56"/><ellipse cx="3.596" cy="5.034" rx="3.596" ry="5.034" transform="translate(38.142 67.739) rotate(-6.024)" fill="#6e4315"/><ellipse cx="3.596" cy="5.034" rx="3.596" ry="5.034" transform="translate(67.672 67.843) rotate(8)" fill="#6e4315"/><ellipse cx="1.438" cy="1.918" rx="1.438" ry="1.918" transform="translate(40.626 68.442) rotate(-6.024)" fill="#8b6947"/><ellipse cx="1.438" cy="1.918" rx="1.438" ry="1.918" transform="translate(69.912 69.126) rotate(8)" fill="#8b6947"/><g transform="translate(36.841 82.637)"><path d="M.354.088C-.27.311.072.912.33,1.2s.685.129.944-.076.23-.5,0-.759S.977-.137.354.088Z" transform="translate(2.514 2.933) rotate(25.976)" fill="#ff8a2c"/><path d="M.352,1.274C-.27,1.051.07.451.329.159s.684-.129.944.076.23.5,0,.759S.976,1.5.352,1.274Z" transform="translate(38.708 1.224) rotate(154.024)" fill="#ff8a2c"/><path d="M.354.088C-.27.311.072.912.33,1.2s.685.129.944-.076.23-.5,0-.759S.977-.137.354.088Z" transform="translate(4.432 3.892) rotate(25.976)" fill="#ff8a2c"/><path d="M.352,1.274C-.27,1.051.07.451.329.159s.684-.129.944.076.23.5,0,.759S.976,1.5.352,1.274Z" transform="translate(36.791 2.183) rotate(154.024)" fill="#ff8a2c"/><path d="M.354.088C-.27.311.072.912.33,1.2s.685.129.944-.076.23-.5,0-.759S.977-.137.354.088Z" transform="translate(10.186 5.33) rotate(25.976)" fill="#ff8a2c"/><path d="M.352,1.274C-.27,1.051.07.451.329.159s.684-.129.944.076.23.5,0,.759S.976,1.5.352,1.274Z" transform="translate(31.037 3.621) rotate(154.024)" fill="#ff8a2c"/><path d="M.354.088C-.27.311.072.912.33,1.2s.685.129.944-.076.23-.5,0-.759S.977-.137.354.088Z" transform="translate(4.912 5.81) rotate(25.976)" fill="#ff8a2c"/><path d="M.352,1.274C-.27,1.051.07.451.329.159s.684-.129.944.076.23.5,0,.759S.976,1.5.352,1.274Z" transform="translate(36.311 4.101) rotate(154.024)" fill="#ff8a2c"/><path d="M.354.088C-.27.311.072.912.33,1.2s.685.129.944-.076.23-.5,0-.759S.977-.137.354.088Z" transform="translate(7.788 5.81) rotate(25.976)" fill="#ff8a2c"/><path d="M.352,1.274C-.27,1.051.07.451.329.159s.684-.129.944.076.23.5,0,.759S.976,1.5.352,1.274Z" transform="translate(33.434 4.101) rotate(154.024)" fill="#ff8a2c"/><path d="M.354.088C-.27.311.072.912.33,1.2s.685.129.944-.076.23-.5,0-.759S.977-.137.354.088Z" transform="translate(5.87 7.727) rotate(25.976)" fill="#ff8a2c"/><path d="M.352,1.274C-.27,1.051.07.451.329.159s.684-.129.944.076.23.5,0,.759S.976,1.5.352,1.274Z" transform="translate(35.352 6.018) rotate(154.024)" fill="#ff8a2c"/><path d="M.354.088C-.27.311.072.912.33,1.2s.685.129.944-.076.23-.5,0-.759S.977-.137.354.088Z" transform="translate(8.747 7.248) rotate(25.976)" fill="#ff8a2c"/><path d="M.352,1.274C-.27,1.051.07.451.329.159s.684-.129.944.076.23.5,0,.759S.976,1.5.352,1.274Z" transform="translate(32.476 5.539) rotate(154.024)" fill="#ff8a2c"/><path d="M.354.088C-.27.311.072.912.33,1.2s.685.129.944-.076.23-.5,0-.759S.977-.137.354.088Z" transform="translate(11.145 7.248) rotate(25.976)" fill="#ff8a2c"/><path d="M.352,1.274C-.27,1.051.07.451.329.159s.684-.129.944.076.23.5,0,.759S.976,1.5.352,1.274Z" transform="translate(30.078 5.539) rotate(154.024)" fill="#ff8a2c"/><path d="M.354.088C-.27.311.072.912.33,1.2s.685.129.944-.076.23-.5,0-.759S.977-.137.354.088Z" transform="translate(14.021 7.248) rotate(25.976)" fill="#ff8a2c"/><path d="M.352,1.274C-.27,1.051.07.451.329.159s.684-.129.944.076.23.5,0,.759S.976,1.5.352,1.274Z" transform="translate(27.201 5.539) rotate(154.024)" fill="#ff8a2c"/><path d="M.354.088C-.27.311.072.912.33,1.2s.685.129.944-.076.23-.5,0-.759S.977-.137.354.088Z" transform="translate(14.021 4.851) rotate(25.976)" fill="#ff8a2c"/><path d="M.352,1.274C-.27,1.051.07.451.329.159s.684-.129.944.076.23.5,0,.759S.976,1.5.352,1.274Z" transform="translate(27.201 3.142) rotate(154.024)" fill="#ff8a2c"/><path d="M.354.088C-.27.311.072.912.33,1.2s.685.129.944-.076.23-.5,0-.759S.977-.137.354.088Z" transform="translate(16.419 5.81) rotate(25.976)" fill="#ff8a2c"/><path d="M.352,1.274C-.27,1.051.07.451.329.159s.684-.129.944.076.23.5,0,.759S.976,1.5.352,1.274Z" transform="translate(24.804 4.101) rotate(154.024)" fill="#ff8a2c"/><path d="M.354.088C-.27.311.072.912.33,1.2s.685.129.944-.076.23-.5,0-.759S.977-.137.354.088Z" transform="translate(13.062 9.166) rotate(25.976)" fill="#ff8a2c"/><path d="M.352,1.274C-.27,1.051.07.451.329.159s.684-.129.944.076.23.5,0,.759S.976,1.5.352,1.274Z" transform="translate(28.16 7.457) rotate(154.024)" fill="#ff8a2c"/><path d="M.354.088C-.27.311.072.912.33,1.2s.685.129.944-.076.23-.5,0-.759S.977-.137.354.088Z" transform="translate(0.596 5.81) rotate(25.976)" fill="#ff8a2c"/><path d="M.352,1.274C-.27,1.051.07.451.329.159s.684-.129.944.076.23.5,0,.759S.976,1.5.352,1.274Z" transform="translate(40.626 4.101) rotate(154.024)" fill="#ff8a2c"/><path d="M.354.088C-.27.311.072.912.33,1.2s.685.129.944-.076.23-.5,0-.759S.977-.137.354.088Z" transform="translate(0.596 3.892) rotate(25.976)" fill="#ff8a2c"/><path d="M.352,1.274C-.27,1.051.07.451.329.159s.684-.129.944.076.23.5,0,.759S.976,1.5.352,1.274Z" transform="translate(40.626 2.183) rotate(154.024)" fill="#ff8a2c"/><path d="M.354.088C-.27.311.072.912.33,1.2s.685.129.944-.076.23-.5,0-.759S.977-.137.354.088Z" transform="translate(2.514 4.851) rotate(25.976)" fill="#ff8a2c"/><path d="M.352,1.274C-.27,1.051.07.451.329.159s.684-.129.944.076.23.5,0,.759S.976,1.5.352,1.274Z" transform="translate(38.708 3.142) rotate(154.024)" fill="#ff8a2c"/><path d="M.354.088C-.27.311.072.912.33,1.2s.685.129.944-.076.23-.5,0-.759S.977-.137.354.088Z" transform="translate(2.994 6.769) rotate(25.976)" fill="#ff8a2c"/><path d="M.352,1.274C-.27,1.051.07.451.329.159s.684-.129.944.076.23.5,0,.759S.976,1.5.352,1.274Z" transform="translate(38.229 5.059) rotate(154.024)" fill="#ff8a2c"/></g><g transform="matrix(1, 0, 0, 1, -21.85, -13.38)" filter="url(#a)"><ellipse cx="3" cy="2.5" rx="3" ry="2.5" transform="translate(54 104)" fill="#f5853a" opacity="0.84"/></g><g transform="matrix(1, 0, 0, 1, -21.85, -13.38)" filter="url(#c)"><ellipse cx="3" cy="2.5" rx="3" ry="2.5" transform="translate(99 104)" fill="#f5853a" opacity="0.84"/></g><path d="M-16651,4475.894c4.98-4.936,11.758-2.445,14.17,0C-16639.348,4474.527-16646.926,4473.774-16651,4475.894Z" transform="translate(16702.113 -4370.69)" fill="#b96726"/><g transform="translate(15.346 120.003)" clip-path="url(#e)"><path d="M16897.68-4049.126l-.59.528-11.168-9.332-8.238,6.422-2.227-2.139,5.742-4.47H16861v-2.877h74.8v2.877h-21.619l5.74,4.47-2.227,2.139-8.24-6.422-11.168,9.332Zm0-2.981,7.193-6.013h-14.387Z" transform="translate(-16856.396 4077.851)" fill="#fff"/></g></g><path d="M3.116,0l9.637.781c1.721,0,2.866,1.8,2.866,3.524s-1.88,3.16-3.6,3.16l-8.9-1.231A3.116,3.116,0,1,1,3.116,0Z" transform="translate(230.107 232.186) rotate(-25.976)" fill="#6d4214"/><path d="M3.116,7.464l9.637-.781c1.721,0,2.866-1.8,2.866-3.524S13.737,0,12.016,0l-8.9,1.231a3.116,3.116,0,1,0,0,6.233Z" transform="translate(283.459 238.895) rotate(-154.024)" fill="#6d4214"/><ellipse cx="3.5" cy="4.5" rx="3.5" ry="4.5" transform="translate(237 237)" fill="#d5823e"/><ellipse cx="3.596" cy="4.555" rx="3.596" ry="4.555" transform="translate(273.123 236.974)" fill="#d5823e"/><ellipse cx="2" cy="3.5" rx="2" ry="3.5" transform="translate(238 237)" fill="#6d4214"/><ellipse cx="2.158" cy="3.356" rx="2.158" ry="3.356" transform="translate(274.561 237.453)" fill="#6d4214"/><ellipse cx="1" cy="1.5" rx="1" ry="1.5" transform="translate(239 238)" fill="#8d6c47"/><path d="M-16455.977,4487.2v4.264s-16.324,3.729-20.865,5.85c-3.432,2.522-5.551,9.283-5.551,9.283s17.707,16.755,46.973,16.049c8.807.294,31.682-4.369,40.535-12.13.182-.157.391-.439.635-.683.809-3.33-4.484-9.589-6.3-11.307a190.1,190.1,0,0,0-20.486-6.357c.3-5.348,0-6.56,0-6.56Z" transform="translate(16696.193 -4189.372)" fill="#294562"/><ellipse cx="0.959" cy="1.438" rx="0.959" ry="1.438" transform="translate(275.52 238.412)" fill="#8d6c47"/><ellipse cx="1.438" cy="6.952" rx="1.438" ry="6.952" transform="matrix(0.999, 0.035, -0.035, 0.999, 253.548, 241.243)" fill="#f3a869"/><path d="M-16413,4352.87c3.563,2.229,3.633,11.56,3.027,23.568-.4,5.55,2.7,9.1,4.525,9.589a24.339,24.339,0,0,0,7.717,0c1.217-.326,4.5-2.968,4.5-9.589s-.871-18.614,2.711-22.886c-3.123,1.883-4.1,9.84-3.949,23.58,0,4.813-3.5,7.349-5.016,7.384s-4.172,0-5.3,0c-1.738-.467-3.957-3.781-3.957-8.3S-16406.672,4356.912-16413,4352.87Z" transform="translate(16660.072 -4120.274)" fill="#d7853e"/><g transform="translate(218.38 185.167)"><g transform="translate(6.95 26.602)"><path d="M-16453.48,4331.94c-.3,6.66-3,28.867-3,28.867S-16462.254,4337.392-16453.48,4331.94Z" transform="translate(16458.344 -4321.149)" fill="#523010"/><path d="M-16458.3,4331.94c.383,7.628,4.273,39.7,4.273,39.7S-16447.225,4338.183-16458.3,4331.94Z" transform="translate(16518.734 -4331.94)" fill="#523010"/><path d="M-16447.176,4324.667c-1.7.425,27.9,2.867,33.541,1.687s5.971-3.938,2.4-5.335c8.385,1.242,15.123,2.637,19.873,2.637a37.3,37.3,0,0,0-.465-4.114l-26.7-1.786s6.6,2.484,5.744,5.356C-16414.045,4325.132-16445.5,4324.24-16447.176,4324.667Z" transform="translate(16452.568 -4313.765)" fill="#d7833f"/></g><path d="M16901.658-3934.107a3.758,3.758,0,0,1-2.811-1.276,4.571,4.571,0,0,1-1.146-3.084,2.8,2.8,0,0,1-1.947.959c-2.109,0-3.8-3.281-4.678-6.352-.494,1.625-1.275,2.449-2.32,2.449-.943,0-2.115-.671-3.48-2a31.831,31.831,0,0,1-3.625-4.391,74.531,74.531,0,0,1-4-6.382v0a10.161,10.161,0,0,1,.09,1.918,4.215,4.215,0,0,1-.295,1.42,1.36,1.36,0,0,1-.883.845,7.019,7.019,0,0,1-2.525-3.021,22.014,22.014,0,0,1-1.57-4.345,40.574,40.574,0,0,1-1.027-5.594.046.046,0,0,0,0,.016,8.186,8.186,0,0,1-.854,2.541.969.969,0,0,1-.2.02c-.48,0-.967-.345-1.445-1.027a16.346,16.346,0,0,1-2.105-6.676,18.085,18.085,0,0,1,.564-8.077,4.617,4.617,0,0,1-1.127.154,2.307,2.307,0,0,1-2.363-1.822,9.114,9.114,0,0,1,.641-5.444,9.763,9.763,0,0,1,3.383-4.651c-1.836-4.815-3.328-9.2-4.432-13.034a72.073,72.073,0,0,1-2.146-9.514,27.909,27.909,0,0,1-.277-6.569,10.89,10.89,0,0,1,1.174-4.193,7.692,7.692,0,0,1,5.682-3.7,9.847,9.847,0,0,1-3.072-3.743,14.155,14.155,0,0,1-1.225-4.2,18.608,18.608,0,0,1-.035-4.843,3.6,3.6,0,0,1,.734-.918,3.419,3.419,0,0,1,2.344-.918c1.945,0,4.227,1.48,6.779,4.4a66.194,66.194,0,0,1,2.42-11.464,31.722,31.722,0,0,1,3.121-7.069,13.934,13.934,0,0,1,3.051-3.6,4.528,4.528,0,0,1,2.2-1.072,3.43,3.43,0,0,1,2.783,1.145,5,5,0,0,1,.914,2.637,18.959,18.959,0,0,1-.359,5.145,63.653,63.653,0,0,1,9.627-5.658,66.093,66.093,0,0,1,9.162-3.551,59.972,59.972,0,0,1,7.857-1.841,36.446,36.446,0,0,1,5.715-.527c1.547,0,2.6.177,2.809.473a2.575,2.575,0,0,1,.469,2.263c-.611,2.242-4.191,4.849-10.637,7.75a87.456,87.456,0,0,1,10.564-.6,105.02,105.02,0,0,1,18.176,1.559c5.057.934,8.184,2.085,8.363,3.08a1.386,1.386,0,0,1-.334,1.156c-.779.959-2.781,1.742-5.957,2.332a82.976,82.976,0,0,1-12.572,1.092,117.418,117.418,0,0,1,15.963,3.581c3.238.938,6.109,1.9,8.3,2.784a15.132,15.132,0,0,1,4.92,2.719,1.308,1.308,0,0,1,.393,1.469,3.443,3.443,0,0,1-1.881,1.456,19.672,19.672,0,0,1-4,1.136,70.037,70.037,0,0,1-12.756,1h-.006c-2,0-4.055-.058-6.123-.173,1.889.977,3.3,2.993,4.186,5.993a32.146,32.146,0,0,1,1.1,8.87,66.892,66.892,0,0,1-.83,10.244c-1.061,6.852-3.039,13.425-5.16,17.153a42.472,42.472,0,0,1,1.611,7.652,5.266,5.266,0,0,1-.459,3.363,1.091,1.091,0,0,1-.912.456,2.523,2.523,0,0,1-1.217-.4c.824,10.74-.385,13.781-1.18,14.639a1.105,1.105,0,0,1-.814.4c-.785,0-1.691-.975-2.484-2.676a33.587,33.587,0,0,1-2.3,8.925c-.887,1.96-1.891,3.084-2.75,3.084-.459,0-.869-.323-1.187-.934a8.151,8.151,0,0,1-.7-2.853,21.868,21.868,0,0,1-2.627,5.986,19.95,19.95,0,0,1-3.645,4.289c-2.406,2.125-5.174,3.445-7.223,3.445a3.475,3.475,0,0,1-.959-.124,13.151,13.151,0,0,1-3.143,4.879A4.984,4.984,0,0,1,16901.658-3934.107Zm-.48-34.816a13.3,13.3,0,0,0-7.822,2.812c-1.924,1.438-3.445,3.312-3.7,4.555a2.523,2.523,0,0,0,.191,2,.927.927,0,0,0,.75.308h20.352a1.533,1.533,0,0,0,1.154-.552,2.128,2.128,0,0,0,.082-1.921c-3.049-4.782-6.789-7.208-11.008-7.208Zm-2.457-10.411a41.35,41.35,0,0,1,8.277.623c.715.22,1.867,1.4,3.326,2.893l.008.007a45.265,45.265,0,0,0,4.346,4.069c1.795,1.4,3.3,2.079,4.615,2.079h.053a5.98,5.98,0,0,0,3.52-1.678,22.653,22.653,0,0,0,3.766-4.277,38.809,38.809,0,0,0,5.674-12.316c.02-.15.047-.322.074-.5l0-.022a181.261,181.261,0,0,0,2.135-21.822,50.48,50.48,0,0,0-.891-12.117c-.855-3.639-2.318-5.738-4.348-6.238-3.086-.771-27.068-1.822-27.416-1.837l.008,0a19.6,19.6,0,0,1,2.941,1.619,9.951,9.951,0,0,1,2.029,1.753,3.375,3.375,0,0,1,.922,2.135c-.129.479-1.346.829-3.619,1.04-1.906.177-4.559.263-8.107.263-3.342,0-6.965-.076-10.387-.154l-.707-.016-.381-.009h-.018c-2.887-.065-5.615-.127-7.605-.127a16.442,16.442,0,0,0-3.416.183,6.712,6.712,0,0,0-4.191,3.931c-2.033,9.865-1.857,18.29.525,25.042-.361,1.342-.578,5.777,0,6.934.133,1.139,1.736,5.2,3.947,8.979a26.875,26.875,0,0,0,3.658,5.039c1.418,1.468,2.734,2.212,3.908,2.212.057,0,.109,0,.166,0,3.166-.24,6.727-2.9,9.584-5.04h0l.008,0c1.766-1.321,3.16-2.365,3.99-2.482a30.275,30.275,0,0,1,3.611-.161Z" transform="translate(-16860.998 4061.011)" fill="#6d4214"/></g><path d="M-16650.7,4476.288c3.676-5.1,10.98-3.032,13.275,0C-16640.295,4474.222-16647.055,4474.174-16650.7,4476.288Z" transform="translate(16902.52 -4194.413)" fill="#bf7538"/><g transform="translate(217.537 307.381)" clip-path="url(#e)"><path d="M16897.68-4049.126l-.59.528-11.168-9.332-8.238,6.422-2.227-2.139,5.742-4.47H16861v-2.877h74.8v2.877h-21.619l5.74,4.47-2.227,2.139-8.24-6.422-11.168,9.332Zm0-2.981,7.193-6.013h-14.387Z" transform="translate(-16856.396 4077.851)" fill="#fff"/></g></g></g></svg>