<svg xmlns="http://www.w3.org/2000/svg" width="60" height="59.343" viewBox="0 0 60 59.343"><g transform="translate(-2.77 -3)"><path d="M42.908,16.318V33.045a2.044,2.044,0,0,1-.617,1.474,3.223,3.223,0,0,1-.282.251,2.139,2.139,0,0,1-1.192.366,2.1,2.1,0,0,1-2.091-2.091v4.182a.845.845,0,0,1-.01.167,2.1,2.1,0,0,1-2.08,1.924,2.42,2.42,0,0,1-.481-.052,2.107,2.107,0,0,1-1.61-2.039v3.136a1.872,1.872,0,0,1-.094.6,2.077,2.077,0,0,1-1.4,1.4,1.934,1.934,0,0,1-1.192,0,2.091,2.091,0,0,1-1.4-1.4,1.872,1.872,0,0,1-.094-.6V37.226a2.044,2.044,0,0,1-.617,1.474,2.1,2.1,0,0,1-.993.565,2.42,2.42,0,0,1-.481.052,2.091,2.091,0,0,1-2.08-1.924.845.845,0,0,1-.01-.167V27.817a1.856,1.856,0,0,1-.1.638,1.882,1.882,0,0,1-.47.784.184.184,0,0,1-.042.052,2.065,2.065,0,0,1-3.021-.084A2.014,2.014,0,0,1,22,27.817V15.272l4.182-4.182V9h13.59v2.091Z" transform="translate(0.316 0.272)" fill="#f3bd74"/><rect width="2.091" height="5.76" rx="1" transform="translate(37.879 25.535)" fill="#e6aa59"/><rect width="2.091" height="2.864" rx="1" transform="translate(33.776 25.559)" fill="#e6aa59"/><rect width="2.091" height="3.669" rx="1" transform="translate(29.673 25.552)" fill="#e6aa59"/><path d="M38.6,35.812a2.036,2.036,0,0,1-.606,1.38l-1.965,1.965-.962.951-1.4,1.4-.6.606-1.714,1.7a2.071,2.071,0,0,1,1.464-.585.691.691,0,0,1,.251.031,1.915,1.915,0,0,1,1.223.575,2.091,2.091,0,0,1,0,2.959l-1.223,1.223-1.045,1.045-6.6,6.607H19.512l-1.474,1.474L8.42,47.542,9.9,46.057l1.474-5.907L23.16,28.359l.042-.042a2.125,2.125,0,0,1,1.484-.617,2.084,2.084,0,0,1,1.474.617.454.454,0,0,1,.063.073,2.085,2.085,0,0,1-.063,2.885l.638-.638,2.321-2.321A2.091,2.091,0,0,1,30.6,27.7a1.539,1.539,0,0,1,.376.042,2.078,2.078,0,0,1,1.7,2.154,2.036,2.036,0,0,1-.606,1.38l2.216-2.216a2.153,2.153,0,0,1,1.474-.606,2.091,2.091,0,0,1,1.484,3.565l-1.223,1.223-.868.868-.125.125a1.107,1.107,0,0,1,.125-.1,1.986,1.986,0,0,1,1.255-.5.356.356,0,0,1,.1-.01,2.091,2.091,0,0,1,2.08,2.2Z" transform="translate(0.257 0.019)" fill="#f5c380"/><path d="M57.5,45.26,61.936,49.7,50.113,61.527,45.68,57.094l.732-.742,9.618-9.607Z" transform="translate(0.834 0.816)" fill="#3d9ae2"/><path d="M41.727,3V9.272H25V3Z" transform="translate(0.426)" fill="#3d9ae2"/><path d="M18.294,56.352l.732.742-4.433,4.433L2.77,49.7,7.2,45.26l1.474,1.484Z" transform="translate(0 0.816)" fill="#3d9ae2"/><path d="M56.891,47.542l-9.618,9.607L45.8,55.675H39.882L32.24,48.023,31.017,46.8a2.091,2.091,0,0,1,0-2.959,1.915,1.915,0,0,1,1.223-.575.691.691,0,0,1,.251-.031,2.071,2.071,0,0,1,1.464.585l-1.714-1.7-.6-.606-1.4-1.4-.962-.951-1.965-1.965a2.036,2.036,0,0,1-.606-1.38,2.091,2.091,0,0,1,2.08-2.2.355.355,0,0,1,.1.01,1.986,1.986,0,0,1,1.255.5,1.107,1.107,0,0,1,.125.1l-.125-.125-.868-.868-1.223-1.223a2.091,2.091,0,0,1,1.484-3.565,2.153,2.153,0,0,1,1.474.606l2.216,2.216a2.036,2.036,0,0,1-.606-1.38,2.078,2.078,0,0,1,1.7-2.154,1.539,1.539,0,0,1,.376-.042,2.091,2.091,0,0,1,1.484.617l2.321,2.321.638.638A2.1,2.1,0,0,1,40.625,27.7a2.125,2.125,0,0,1,1.484.617l.585.585L53.933,40.151l1.474,5.907Z" transform="translate(-0.028 0.019)" fill="#ffd69f"/><rect width="7.318" height="2.091" rx="1" transform="translate(20.134 36.243) rotate(-45)" fill="#e5ae64"/><rect width="5.086" height="2.091" rx="1" transform="translate(23.044 39.128) rotate(-45)" fill="#e5ae64"/><rect width="4.538" height="2.091" rx="1" transform="translate(25.946 42.026) rotate(-45)" fill="#e5ae64"/><rect width="8.715" height="2.091" rx="1" transform="translate(25.919 47.807) rotate(-44.838)" fill="#e5ae64"/><g transform="translate(7.19 9.553)"><path d="M11.246,36.017a21.986,21.986,0,0,1,7.438-19.976l1.359,1.589a19.849,19.849,0,0,0-6.952,15.095,20.061,20.061,0,0,0,.222,2.98Z" transform="translate(-6.816 -8.96)" fill="#ff9292"/><path d="M32.048,53.092c-.368,0-.732-.009-1.1-.026l.1-2.091c.659.032,1.33.032,1.986,0l.1,2.091c-.367.017-.731.026-1.1.026Z" transform="translate(-6.467 -8.477)" fill="#ff9292"/><path d="M53.288,34.92l-2.08-.209c.065-.653.1-1.322.1-1.986A19.849,19.849,0,0,0,44.354,17.63l1.359-1.589a21.939,21.939,0,0,1,7.68,16.684c0,.732-.037,1.472-.1,2.2Z" transform="translate(-6.416 -8.96)" fill="#ff9292"/><path d="M7.568,38.477A26.179,26.179,0,0,1,22.245,9.268l.872,1.9a24.085,24.085,0,0,0-13.5,26.874Z" transform="translate(-6.998 -9.268)" fill="#ff9292"/><path d="M32.189,57.105a26.358,26.358,0,0,1-4.36-.362l.352-2.061a24.442,24.442,0,0,0,8.016,0l.347,2.062a26.344,26.344,0,0,1-4.355.362Z" transform="translate(-6.609 -8.308)" fill="#ff9292"/><path d="M57.045,38.428,55,37.993A24.085,24.085,0,0,0,43.5,12.156l1.045-1.811a26.181,26.181,0,0,1,12.5,28.083Z" transform="translate(-6.455 -9.219)" fill="#ff9292"/></g><rect width="2.091" height="7.318" rx="1" transform="translate(38.735 32.548) rotate(-45)" fill="#ecb772"/><rect width="2.091" height="11.5" rx="1" transform="translate(32.907 32.516) rotate(-45)" fill="#ecb772"/><rect width="2.091" height="11.5" rx="1" transform="translate(30.014 35.41) rotate(-45)" fill="#ecb772"/><rect width="2.091" height="6.272" rx="1" transform="translate(33.674 44.869) rotate(-45)" fill="#ecb772"/><path d="M26.045,21A1.045,1.045,0,0,0,25,22.045v4.182a1.045,1.045,0,1,0,2.091,0V22.045A1.045,1.045,0,0,0,26.045,21Z" transform="translate(0.571 0.434)" fill="#e6aa59"/></g></svg>