<svg width="155" height="155" viewBox="0 0 155 155" fill="none" xmlns="http://www.w3.org/2000/svg">
<rect width="155" height="155" fill="white"/>
<path d="M4.84375 25.1875V45.5312H25.1875H45.5312V25.1875V4.84375H25.1875H4.84375V25.1875ZM39.7187 25.1875V39.7188H25.1875H10.6562V25.1875V10.6563H25.1875H39.7187V25.1875Z" fill="#2A3B3D"/>
<path d="M16.4688 25.1875V33.9062H25.1875H33.9062V25.1875V16.4688H25.1875H16.4688V25.1875Z" fill="#2A3B3D"/>
<path d="M51.3437 7.75C51.3437 10.3656 51.6344 10.6563 54.25 10.6563C56.8656 10.6563 57.1562 10.9469 57.1562 13.5625C57.1562 16.1781 56.8656 16.4688 54.25 16.4688H51.3437V25.1875V33.9063H54.25C56.8656 33.9063 57.1562 34.1969 57.1562 36.8125C57.1562 39.4281 56.8656 39.7188 54.25 39.7188C51.6344 39.7188 51.3437 40.0094 51.3437 42.625C51.3437 45.2406 51.6344 45.5313 54.25 45.5313C56.8656 45.5313 57.1562 45.2406 57.1562 42.625C57.1562 40.0094 57.4469 39.7188 60.0625 39.7188C62.6781 39.7188 62.9687 40.0094 62.9687 42.625C62.9687 45.2406 63.2594 45.5313 65.875 45.5313C68.4906 45.5313 68.7812 45.8219 68.7812 48.4375C68.7812 51.0531 68.4906 51.3438 65.875 51.3438C63.2594 51.3438 62.9687 51.6344 62.9687 54.25C62.9687 56.8656 63.2594 57.1563 65.875 57.1563C68.4906 57.1563 68.7812 57.4469 68.7812 60.0625V62.9688H62.9687H57.1562V57.1563V51.3438H54.25H51.3437V57.1563V62.9688H45.5312H39.7187V60.0625C39.7187 57.4469 40.0094 57.1563 42.625 57.1563C45.2406 57.1563 45.5312 56.8656 45.5312 54.25C45.5312 51.6344 45.2406 51.3438 42.625 51.3438C40.0094 51.3438 39.7187 51.6344 39.7187 54.25C39.7187 56.8656 39.4281 57.1563 36.8125 57.1563C34.1969 57.1563 33.9062 57.4469 33.9062 60.0625C33.9062 62.6781 33.6156 62.9688 31 62.9688H28.0937V57.1563V51.3438H16.4687H4.84375V57.1563V62.9688H7.75C10.3656 62.9688 10.6562 62.6781 10.6562 60.0625C10.6562 57.4469 10.9469 57.1563 13.5625 57.1563C16.1781 57.1563 16.4687 57.4469 16.4687 60.0625C16.4687 62.6781 16.7594 62.9688 19.375 62.9688C21.9906 62.9688 22.2812 63.2594 22.2812 65.875V68.7813H28.0937H33.9062V65.875C33.9062 63.2594 34.1969 62.9688 36.8125 62.9688C39.4281 62.9688 39.7187 63.2594 39.7187 65.875V68.7813H45.5312H51.3437V71.6875C51.3437 74.3031 51.6344 74.5938 54.25 74.5938C56.8656 74.5938 57.1562 74.8844 57.1562 77.5V80.4063H51.3437H45.5312V77.5C45.5312 74.8844 45.2406 74.5938 42.625 74.5938C40.0094 74.5938 39.7187 74.8844 39.7187 77.5C39.7187 80.1156 40.0094 80.4063 42.625 80.4063C45.2406 80.4063 45.5312 80.6969 45.5312 83.3125C45.5312 85.9281 45.2406 86.2188 42.625 86.2188C40.0094 86.2188 39.7187 86.5094 39.7187 89.125C39.7187 91.7406 39.4281 92.0313 36.8125 92.0313C34.1969 92.0313 33.9062 91.7406 33.9062 89.125V86.2188H28.0937H22.2812V80.4063V74.5938H19.375H16.4687V80.4063V86.2188H13.5625C10.9469 86.2188 10.6562 86.5094 10.6562 89.125C10.6562 91.7406 10.3656 92.0313 7.75 92.0313C5.13437 92.0313 4.84375 92.3219 4.84375 94.9375C4.84375 97.5531 5.13437 97.8438 7.75 97.8438C10.3656 97.8438 10.6562 97.5531 10.6562 94.9375C10.6562 92.3219 10.9469 92.0313 13.5625 92.0313C16.1781 92.0313 16.4687 92.3219 16.4687 94.9375V97.8438H22.2812H28.0937V100.75C28.0937 103.366 28.3844 103.656 31 103.656C33.6156 103.656 33.9062 103.366 33.9062 100.75C33.9062 98.1344 34.1969 97.8438 36.8125 97.8438C39.4281 97.8438 39.7187 98.1344 39.7187 100.75V103.656H45.5312H51.3437V106.563V109.469H57.1562H62.9687V103.656V97.8438H68.7812H74.5937V94.9375V92.0313H83.3125H92.0312V89.125C92.0312 86.5094 92.3219 86.2188 94.9375 86.2188C97.5531 86.2188 97.8437 86.5094 97.8437 89.125C97.8437 91.7406 98.1344 92.0313 100.75 92.0313C103.366 92.0313 103.656 92.3219 103.656 94.9375C103.656 97.5531 103.366 97.8438 100.75 97.8438C98.1344 97.8438 97.8437 98.1344 97.8437 100.75C97.8437 103.366 97.5531 103.656 94.9375 103.656C92.3219 103.656 92.0312 103.366 92.0312 100.75V97.8438H86.2187H80.4062V100.75V103.656H86.2187H92.0312V106.563V109.469H86.2187H80.4062V112.375C80.4062 114.991 80.1156 115.281 77.5 115.281C74.8844 115.281 74.5937 115.572 74.5937 118.188C74.5937 120.803 74.8844 121.094 77.5 121.094C80.1156 121.094 80.4062 120.803 80.4062 118.188C80.4062 115.572 80.6969 115.281 83.3125 115.281H86.2187V121.094V126.906H83.3125H80.4062V138.531V150.156H86.2187H92.0312V147.25C92.0312 144.634 92.3219 144.344 94.9375 144.344H97.8437V135.625V126.906H103.656H109.469V129.813C109.469 132.428 109.178 132.719 106.562 132.719H103.656V138.531V144.344H109.469H115.281V147.25V150.156H132.719H150.156V147.25V144.344H144.344H138.531V141.438C138.531 138.822 138.822 138.531 141.437 138.531C144.053 138.531 144.344 138.241 144.344 135.625C144.344 133.009 144.634 132.719 147.25 132.719H150.156V112.375V92.0313H147.25C144.634 92.0313 144.344 91.7406 144.344 89.125C144.344 86.5094 144.634 86.2188 147.25 86.2188H150.156V80.4063V74.5938H144.344H138.531V71.6875V68.7813H132.719H126.906V71.6875V74.5938H121.094H115.281V71.6875C115.281 69.0719 115.572 68.7813 118.187 68.7813H121.094V62.9688V57.1563H129.812H138.531V60.0625C138.531 62.6781 138.822 62.9688 141.437 62.9688C144.053 62.9688 144.344 62.6781 144.344 60.0625C144.344 57.4469 144.634 57.1563 147.25 57.1563C149.866 57.1563 150.156 56.8656 150.156 54.25C150.156 51.6344 149.866 51.3438 147.25 51.3438C144.634 51.3438 144.344 51.6344 144.344 54.25C144.344 56.8656 144.053 57.1563 141.437 57.1563C138.822 57.1563 138.531 56.8656 138.531 54.25V51.3438H129.812H121.094V54.25C121.094 56.8656 120.803 57.1563 118.187 57.1563H115.281V62.9688V68.7813H109.469H103.656V65.875C103.656 63.2594 103.947 62.9688 106.562 62.9688H109.469V57.1563V51.3438H103.656H97.8437V60.0625V68.7813H100.75H103.656V74.5938V80.4063H100.75C98.1344 80.4063 97.8437 80.1156 97.8437 77.5V74.5938H92.0312H86.2187V71.6875V68.7813H80.4062H74.5937V62.9688V57.1563H71.6875C69.0719 57.1563 68.7812 56.8656 68.7812 54.25V51.3438H74.5937H80.4062V45.5313V39.7188H83.3125C85.9281 39.7188 86.2187 40.0094 86.2187 42.625C86.2187 45.2406 86.5094 45.5313 89.125 45.5313C91.7406 45.5313 92.0312 45.2406 92.0312 42.625C92.0312 40.0094 91.7406 39.7188 89.125 39.7188C86.5094 39.7188 86.2187 39.4281 86.2187 36.8125V33.9063H94.9375H103.656V31C103.656 28.3844 103.366 28.0938 100.75 28.0938C98.1344 28.0938 97.8437 27.8031 97.8437 25.1875C97.8437 22.5719 97.5531 22.2813 94.9375 22.2813C92.3219 22.2813 92.0312 21.9906 92.0312 19.375C92.0312 16.7594 91.7406 16.4688 89.125 16.4688C86.5094 16.4688 86.2187 16.1781 86.2187 13.5625C86.2187 10.9469 86.5094 10.6563 89.125 10.6563C91.7406 10.6563 92.0312 10.3656 92.0312 7.75C92.0312 5.13438 91.7406 4.84375 89.125 4.84375C86.5094 4.84375 86.2187 5.13438 86.2187 7.75V10.6563H80.4062H74.5937V7.75V4.84375H62.9687H51.3437V7.75ZM68.7812 13.5625V16.4688H74.5937H80.4062V19.375C80.4062 21.9906 80.1156 22.2813 77.5 22.2813H74.5937V33.9063V45.5313H71.6875C69.0719 45.5313 68.7812 45.2406 68.7812 42.625C68.7812 40.0094 68.4906 39.7188 65.875 39.7188H62.9687V33.9063V28.0938H60.0625H57.1562V22.2813V16.4688H60.0625C62.6781 16.4688 62.9687 16.1781 62.9687 13.5625C62.9687 10.9469 63.2594 10.6563 65.875 10.6563C68.4906 10.6563 68.7812 10.9469 68.7812 13.5625ZM57.1562 65.875C57.1562 68.4906 56.8656 68.7813 54.25 68.7813C51.6344 68.7813 51.3437 68.4906 51.3437 65.875C51.3437 63.2594 51.6344 62.9688 54.25 62.9688C56.8656 62.9688 57.1562 63.2594 57.1562 65.875ZM74.5937 71.6875C74.5937 74.3031 74.3031 74.5938 71.6875 74.5938C69.0719 74.5938 68.7812 74.3031 68.7812 71.6875C68.7812 69.0719 69.0719 68.7813 71.6875 68.7813C74.3031 68.7813 74.5937 69.0719 74.5937 71.6875ZM132.719 77.5V80.4063H138.531H144.344V83.3125V86.2188H138.531H132.719V89.125V92.0313H138.531H144.344V94.9375V97.8438H135.625H126.906V86.2188V74.5938H129.812C132.428 74.5938 132.719 74.8844 132.719 77.5ZM74.5937 86.2188V92.0313H65.875H57.1562V89.125C57.1562 86.5094 57.4469 86.2188 60.0625 86.2188C62.6781 86.2188 62.9687 85.9281 62.9687 83.3125V80.4063H68.7812H74.5937V86.2188ZM109.469 83.3125V86.2188H115.281H121.094V89.125C121.094 91.7406 120.803 92.0313 118.187 92.0313C115.572 92.0313 115.281 92.3219 115.281 94.9375C115.281 97.5531 114.991 97.8438 112.375 97.8438H109.469V92.0313V86.2188H106.562C103.947 86.2188 103.656 85.9281 103.656 83.3125C103.656 80.6969 103.947 80.4063 106.562 80.4063C109.178 80.4063 109.469 80.6969 109.469 83.3125ZM51.3437 89.125C51.3437 91.7406 51.0531 92.0313 48.4375 92.0313C45.8219 92.0313 45.5312 92.3219 45.5312 94.9375C45.5312 97.5531 45.2406 97.8438 42.625 97.8438C40.0094 97.8438 39.7187 97.5531 39.7187 94.9375C39.7187 92.3219 40.0094 92.0313 42.625 92.0313C45.2406 92.0313 45.5312 91.7406 45.5312 89.125C45.5312 86.5094 45.8219 86.2188 48.4375 86.2188C51.0531 86.2188 51.3437 86.5094 51.3437 89.125ZM57.1562 100.75C57.1562 103.366 56.8656 103.656 54.25 103.656C51.6344 103.656 51.3437 103.366 51.3437 100.75C51.3437 98.1344 51.6344 97.8438 54.25 97.8438C56.8656 97.8438 57.1562 98.1344 57.1562 100.75ZM121.094 112.375V121.094H112.375H103.656V112.375V103.656H112.375H121.094V112.375ZM132.719 109.469V115.281H138.531H144.344V118.188C144.344 120.803 144.053 121.094 141.437 121.094C138.822 121.094 138.531 121.384 138.531 124C138.531 126.616 138.241 126.906 135.625 126.906C133.009 126.906 132.719 126.616 132.719 124C132.719 121.384 132.428 121.094 129.812 121.094H126.906V112.375V103.656H129.812H132.719V109.469ZM144.344 106.563C144.344 109.178 144.053 109.469 141.437 109.469C138.822 109.469 138.531 109.178 138.531 106.563C138.531 103.947 138.822 103.656 141.437 103.656C144.053 103.656 144.344 103.947 144.344 106.563ZM97.8437 112.375C97.8437 114.991 97.5531 115.281 94.9375 115.281C92.3219 115.281 92.0312 114.991 92.0312 112.375C92.0312 109.759 92.3219 109.469 94.9375 109.469C97.5531 109.469 97.8437 109.759 97.8437 112.375ZM97.8437 124C97.8437 126.616 97.5531 126.906 94.9375 126.906H92.0312V132.719V138.531H89.125H86.2187V132.719V126.906H89.125C91.7406 126.906 92.0312 126.616 92.0312 124C92.0312 121.384 92.3219 121.094 94.9375 121.094C97.5531 121.094 97.8437 121.384 97.8437 124ZM121.094 135.625V144.344H118.187H115.281V135.625V126.906H118.187H121.094V135.625ZM132.719 138.531V144.344H129.812H126.906V138.531V132.719H129.812H132.719V138.531Z" fill="#2A3B3D"/>
<path d="M62.9688 22.2813V28.0938H65.875H68.7812V22.2813V16.4688H65.875H62.9688V22.2813Z" fill="#2A3B3D"/>
<path d="M109.469 112.375C109.469 114.991 109.759 115.281 112.375 115.281C114.991 115.281 115.281 114.991 115.281 112.375C115.281 109.759 114.991 109.469 112.375 109.469C109.759 109.469 109.469 109.759 109.469 112.375Z" fill="#2A3B3D"/>
<path d="M97.8438 7.75C97.8438 10.3656 98.1344 10.6562 100.75 10.6562C103.366 10.6562 103.656 10.3656 103.656 7.75C103.656 5.13438 103.366 4.84375 100.75 4.84375C98.1344 4.84375 97.8438 5.13438 97.8438 7.75Z" fill="#2A3B3D"/>
<path d="M109.469 25.1875V45.5312H129.812H150.156V25.1875V4.84375H129.812H109.469V25.1875ZM144.344 25.1875V39.7188H129.812H115.281V25.1875V10.6563H129.812H144.344V25.1875Z" fill="#2A3B3D"/>
<path d="M121.094 25.1875V33.9062H129.812H138.531V25.1875V16.4688H129.812H121.094V25.1875Z" fill="#2A3B3D"/>
<path d="M97.8438 42.625C97.8438 45.2406 98.1344 45.5312 100.75 45.5312C103.366 45.5312 103.656 45.2406 103.656 42.625C103.656 40.0094 103.366 39.7188 100.75 39.7188C98.1344 39.7188 97.8438 40.0094 97.8438 42.625Z" fill="#2A3B3D"/>
<path d="M86.2187 54.25C86.2187 56.8656 85.9281 57.1563 83.3125 57.1563C80.6969 57.1563 80.4062 57.4469 80.4062 60.0625C80.4062 62.6781 80.6969 62.9688 83.3125 62.9688C85.9281 62.9688 86.2187 62.6781 86.2187 60.0625C86.2187 57.4469 86.5094 57.1563 89.125 57.1563C91.7406 57.1563 92.0312 56.8656 92.0312 54.25C92.0312 51.6344 91.7406 51.3438 89.125 51.3438C86.5094 51.3438 86.2187 51.6344 86.2187 54.25Z" fill="#2A3B3D"/>
<path d="M28.0938 77.5C28.0938 80.1156 28.3844 80.4062 31 80.4062C33.6156 80.4062 33.9062 80.1156 33.9062 77.5C33.9062 74.8844 33.6156 74.5938 31 74.5938C28.3844 74.5938 28.0938 74.8844 28.0938 77.5Z" fill="#2A3B3D"/>
<path d="M68.7812 106.563C68.7812 109.178 69.0719 109.469 71.6875 109.469C74.3031 109.469 74.5937 109.178 74.5937 106.563C74.5937 103.947 74.3031 103.656 71.6875 103.656C69.0719 103.656 68.7812 103.947 68.7812 106.563Z" fill="#2A3B3D"/>
<path d="M4.84375 129.813V150.156H25.1875H45.5312V129.813V109.469H25.1875H4.84375V129.813ZM39.7187 129.813V144.344H25.1875H10.6562V129.813V115.281H25.1875H39.7187V129.813Z" fill="#2A3B3D"/>
<path d="M16.4688 129.813V138.531H25.1875H33.9062V129.813V121.094H25.1875H16.4688V129.813Z" fill="#2A3B3D"/>
<path d="M57.1562 124C57.1562 126.616 56.8656 126.906 54.25 126.906H51.3438V138.531V150.156H60.0625H68.7812V147.25C68.7812 144.634 69.0719 144.344 71.6875 144.344H74.5937V135.625V126.906H68.7812H62.9687V124C62.9687 121.384 62.6781 121.094 60.0625 121.094C57.4469 121.094 57.1562 121.384 57.1562 124ZM68.7812 138.531V144.344H65.875C63.2594 144.344 62.9687 144.053 62.9687 141.438C62.9687 138.822 62.6781 138.531 60.0625 138.531C57.4469 138.531 57.1562 138.241 57.1562 135.625V132.719H62.9687H68.7812V138.531Z" fill="#2A3B3D"/>
</svg>
