<svg width="155" height="155" viewBox="0 0 155 155" fill="none" xmlns="http://www.w3.org/2000/svg">
<rect width="155" height="155" fill="white"/>
<path d="M6.78125 23.7344V40.6875H23.7344H40.6875V23.7344V6.78125H23.7344H6.78125V23.7344ZM35.8437 23.7344V35.8438H23.7344H11.625V23.7344V11.625H23.7344H35.8437V23.7344Z" fill="#2A3B3D"/>
<path d="M16.4688 23.7344V31H23.7344H31V23.7344V16.4688H23.7344H16.4688V23.7344Z" fill="#2A3B3D"/>
<path d="M45.5312 9.20312C45.5312 11.4312 45.8219 11.625 50.375 11.625C54.9281 11.625 55.2188 11.4312 55.2188 9.20312C55.2188 6.975 54.9281 6.78125 50.375 6.78125C45.8219 6.78125 45.5312 6.975 45.5312 9.20312Z" fill="#2A3B3D"/>
<path d="M79.4375 9.20311C79.4375 11.1406 78.9531 11.625 77.0156 11.625C75.0781 11.625 74.5938 12.1094 74.5938 14.0469C74.5938 16.3719 74.4 16.4687 67.3281 16.4687H60.0625V21.3125C60.0625 25.8656 59.8688 26.1562 57.6406 26.1562C55.7031 26.1562 55.2188 25.6719 55.2188 23.7344C55.2188 21.7969 54.7344 21.3125 52.7969 21.3125C50.8594 21.3125 50.375 20.8281 50.375 18.8906C50.375 16.9531 49.8906 16.4687 47.9531 16.4687C45.6281 16.4687 45.5313 16.6625 45.5313 23.7344C45.5313 30.8062 45.6281 31 47.9531 31C49.8906 31 50.375 31.4844 50.375 33.4219C50.375 35.3594 49.8906 35.8437 47.9531 35.8437C46.0156 35.8437 45.5313 36.3281 45.5313 38.2656C45.5313 40.2031 46.0156 40.6875 47.9531 40.6875C49.8906 40.6875 50.375 41.1719 50.375 43.1094C50.375 45.0469 49.8906 45.5312 47.9531 45.5312C46.0156 45.5312 45.5313 46.0156 45.5313 47.9531C45.5313 49.8906 45.0469 50.375 43.1094 50.375C41.1719 50.375 40.6875 49.8906 40.6875 47.9531C40.6875 46.0156 40.2031 45.5312 38.2656 45.5312C36.3281 45.5312 35.8438 46.0156 35.8438 47.9531C35.8438 49.8906 35.3594 50.375 33.4219 50.375C31.1938 50.375 31 50.6656 31 55.2187C31 59.7719 30.8063 60.0625 28.5781 60.0625C26.6406 60.0625 26.1563 59.5781 26.1563 57.6406C26.1563 55.3156 25.9625 55.2187 18.8906 55.2187C11.8188 55.2187 11.625 55.3156 11.625 57.6406C11.625 59.5781 11.1406 60.0625 9.20313 60.0625C7.26563 60.0625 6.78125 60.5469 6.78125 62.4844C6.78125 64.4219 7.26563 64.9062 9.20313 64.9062C11.1406 64.9062 11.625 64.4219 11.625 62.4844C11.625 60.1594 11.8188 60.0625 18.8906 60.0625C25.9625 60.0625 26.1563 60.1594 26.1563 62.4844C26.1563 64.4219 26.6406 64.9062 28.5781 64.9062C30.5156 64.9062 31 64.4219 31 62.4844C31 60.2562 31.2906 60.0625 35.8438 60.0625C40.3969 60.0625 40.6875 60.2562 40.6875 62.4844C40.6875 64.4219 40.2031 64.9062 38.2656 64.9062C36.3281 64.9062 35.8438 65.3906 35.8438 67.3281C35.8438 69.5562 35.5531 69.75 31 69.75C26.4469 69.75 26.1563 69.9437 26.1563 72.1719C26.1563 74.1094 26.6406 74.5937 28.5781 74.5937C30.5156 74.5937 31 75.0781 31 77.0156C31 79.3406 31.1938 79.4375 38.2656 79.4375C45.3375 79.4375 45.5313 79.5344 45.5313 81.8594C45.5313 84.1844 45.3375 84.2812 38.2656 84.2812C31.1938 84.2812 31 84.3781 31 86.7031C31 88.6406 30.5156 89.125 28.5781 89.125C26.6406 89.125 26.1563 88.6406 26.1563 86.7031C26.1563 84.7656 25.6719 84.2812 23.7344 84.2812C21.7969 84.2812 21.3125 83.7969 21.3125 81.8594C21.3125 79.9219 20.8281 79.4375 18.8906 79.4375C16.9531 79.4375 16.4688 78.9531 16.4688 77.0156C16.4688 75.0781 16.9531 74.5937 18.8906 74.5937C21.1188 74.5937 21.3125 74.3031 21.3125 69.75C21.3125 65.1969 21.1188 64.9062 18.8906 64.9062C16.9531 64.9062 16.4688 65.3906 16.4688 67.3281C16.4688 69.2656 15.9844 69.75 14.0469 69.75C12.1094 69.75 11.625 70.2344 11.625 72.1719C11.625 74.1094 11.1406 74.5937 9.20313 74.5937C6.87813 74.5937 6.78125 74.7875 6.78125 81.8594C6.78125 88.9312 6.87813 89.125 9.20313 89.125C11.1406 89.125 11.625 89.6094 11.625 91.5469C11.625 93.4844 11.1406 93.9687 9.20313 93.9687C7.26563 93.9687 6.78125 94.4531 6.78125 96.3906C6.78125 98.3281 7.26563 98.8125 9.20313 98.8125C11.1406 98.8125 11.625 98.3281 11.625 96.3906C11.625 94.4531 12.1094 93.9687 14.0469 93.9687C16.275 93.9687 16.4688 94.2594 16.4688 98.8125C16.4688 103.366 16.275 103.656 14.0469 103.656C12.1094 103.656 11.625 104.141 11.625 106.078C11.625 108.016 12.1094 108.5 14.0469 108.5C15.9844 108.5 16.4688 108.016 16.4688 106.078C16.4688 104.141 16.9531 103.656 18.8906 103.656C20.8281 103.656 21.3125 104.141 21.3125 106.078C21.3125 108.306 21.6031 108.5 26.1563 108.5H31V101.234C31 94.1625 31.0969 93.9687 33.4219 93.9687C35.3594 93.9687 35.8438 94.4531 35.8438 96.3906C35.8438 98.3281 36.3281 98.8125 38.2656 98.8125C40.2031 98.8125 40.6875 99.2969 40.6875 101.234C40.6875 103.172 40.2031 103.656 38.2656 103.656C36.3281 103.656 35.8438 104.141 35.8438 106.078C35.8438 108.016 36.3281 108.5 38.2656 108.5C40.2031 108.5 40.6875 108.016 40.6875 106.078C40.6875 104.141 41.1719 103.656 43.1094 103.656C45.0469 103.656 45.5313 103.172 45.5313 101.234C45.5313 99.2969 45.0469 98.8125 43.1094 98.8125C41.1719 98.8125 40.6875 98.3281 40.6875 96.3906C40.6875 94.4531 40.2031 93.9687 38.2656 93.9687C36.3281 93.9687 35.8438 93.4844 35.8438 91.5469C35.8438 89.3187 36.1344 89.125 40.6875 89.125C45.2406 89.125 45.5313 89.3187 45.5313 91.5469C45.5313 93.4844 46.0156 93.9687 47.9531 93.9687C49.8906 93.9687 50.375 94.4531 50.375 96.3906C50.375 98.3281 50.8594 98.8125 52.7969 98.8125C54.7344 98.8125 55.2188 98.3281 55.2188 96.3906C55.2188 94.4531 55.7031 93.9687 57.6406 93.9687C59.5781 93.9687 60.0625 94.4531 60.0625 96.3906C60.0625 98.3281 60.5469 98.8125 62.4844 98.8125C64.4219 98.8125 64.9063 99.2969 64.9063 101.234C64.9063 103.462 64.6156 103.656 60.0625 103.656C55.5094 103.656 55.2188 103.85 55.2188 106.078C55.2188 108.306 54.9281 108.5 50.375 108.5C45.8219 108.5 45.5313 108.694 45.5313 110.922C45.5313 112.859 46.0156 113.344 47.9531 113.344C49.8906 113.344 50.375 113.828 50.375 115.766C50.375 117.703 50.8594 118.187 52.7969 118.187C54.7344 118.187 55.2188 118.672 55.2188 120.609C55.2188 122.547 54.7344 123.031 52.7969 123.031C50.8594 123.031 50.375 123.516 50.375 125.453C50.375 127.391 49.8906 127.875 47.9531 127.875H45.5313V137.562V147.25H47.9531H50.375V137.562V127.875H52.7969C54.7344 127.875 55.2188 128.359 55.2188 130.297C55.2188 132.234 55.7031 132.719 57.6406 132.719C59.8688 132.719 60.0625 133.009 60.0625 137.562C60.0625 142.116 59.8688 142.406 57.6406 142.406C55.7031 142.406 55.2188 142.891 55.2188 144.828C55.2188 146.766 55.7031 147.25 57.6406 147.25C59.5781 147.25 60.0625 146.766 60.0625 144.828C60.0625 142.891 60.5469 142.406 62.4844 142.406C64.4219 142.406 64.9063 142.891 64.9063 144.828C64.9063 146.766 65.3906 147.25 67.3281 147.25C69.2656 147.25 69.75 146.766 69.75 144.828C69.75 142.891 69.2656 142.406 67.3281 142.406C65.1 142.406 64.9063 142.116 64.9063 137.562C64.9063 133.009 65.1 132.719 67.3281 132.719C69.2656 132.719 69.75 133.203 69.75 135.141C69.75 137.078 70.2344 137.562 72.1719 137.562C74.4 137.562 74.5938 137.853 74.5938 142.406C74.5938 146.959 74.7875 147.25 77.0156 147.25C78.9531 147.25 79.4375 146.766 79.4375 144.828C79.4375 142.6 79.7281 142.406 84.2813 142.406H89.125V137.562C89.125 133.009 89.3188 132.719 91.5469 132.719C93.4844 132.719 93.9688 133.203 93.9688 135.141C93.9688 137.078 94.4531 137.562 96.3906 137.562C98.6188 137.562 98.8125 137.272 98.8125 132.719C98.8125 128.166 98.6188 127.875 96.3906 127.875C94.4531 127.875 93.9688 127.391 93.9688 125.453C93.9688 123.516 93.4844 123.031 91.5469 123.031C89.6094 123.031 89.125 123.516 89.125 125.453C89.125 127.391 88.6406 127.875 86.7031 127.875C84.7656 127.875 84.2813 127.391 84.2813 125.453C84.2813 123.225 83.9906 123.031 79.4375 123.031H74.5938V127.875C74.5938 132.428 74.4 132.719 72.1719 132.719C69.9438 132.719 69.75 132.428 69.75 127.875C69.75 123.322 69.5563 123.031 67.3281 123.031C65.3906 123.031 64.9063 123.516 64.9063 125.453C64.9063 127.391 64.4219 127.875 62.4844 127.875C60.2563 127.875 60.0625 127.584 60.0625 123.031V118.187H67.3281C74.4 118.187 74.5938 118.091 74.5938 115.766C74.5938 113.828 75.0781 113.344 77.0156 113.344C78.9531 113.344 79.4375 112.859 79.4375 110.922C79.4375 108.984 79.9219 108.5 81.8594 108.5C84.0875 108.5 84.2813 108.791 84.2813 113.344V118.187H93.9688H103.656V125.453V132.719H108.5C113.053 132.719 113.344 132.525 113.344 130.297C113.344 128.069 113.634 127.875 118.188 127.875C122.741 127.875 123.031 128.069 123.031 130.297C123.031 132.234 122.547 132.719 120.609 132.719C118.381 132.719 118.188 133.009 118.188 137.562C118.188 142.116 118.381 142.406 120.609 142.406C122.838 142.406 123.031 142.116 123.031 137.562V132.719H127.875C132.428 132.719 132.719 132.912 132.719 135.141C132.719 137.078 132.234 137.562 130.297 137.562C128.069 137.562 127.875 137.853 127.875 142.406C127.875 146.959 128.069 147.25 130.297 147.25C132.525 147.25 132.719 146.959 132.719 142.406C132.719 137.853 132.913 137.562 135.141 137.562C137.369 137.562 137.563 137.853 137.563 142.406C137.563 146.959 137.756 147.25 139.984 147.25C142.213 147.25 142.406 146.959 142.406 142.406C142.406 137.853 142.6 137.562 144.828 137.562C147.056 137.562 147.25 137.272 147.25 132.719C147.25 128.166 147.056 127.875 144.828 127.875C142.891 127.875 142.406 127.391 142.406 125.453C142.406 123.516 142.891 123.031 144.828 123.031C146.766 123.031 147.25 122.547 147.25 120.609C147.25 118.672 146.766 118.187 144.828 118.187C142.891 118.187 142.406 117.703 142.406 115.766C142.406 113.828 142.891 113.344 144.828 113.344C146.766 113.344 147.25 112.859 147.25 110.922C147.25 108.694 146.959 108.5 142.406 108.5H137.563V101.234C137.563 94.1625 137.659 93.9687 139.984 93.9687C142.309 93.9687 142.406 93.775 142.406 86.7031C142.406 79.6312 142.503 79.4375 144.828 79.4375C147.056 79.4375 147.25 79.1469 147.25 74.5937V69.75H142.406C137.853 69.75 137.563 69.5562 137.563 67.3281C137.563 65.1 137.272 64.9062 132.719 64.9062H127.875V57.6406V50.375H132.719C137.272 50.375 137.563 50.1812 137.563 47.9531C137.563 45.6281 137.369 45.5312 130.297 45.5312C123.225 45.5312 123.031 45.6281 123.031 47.9531C123.031 50.1812 122.741 50.375 118.188 50.375C113.634 50.375 113.344 50.1812 113.344 47.9531C113.344 46.0156 112.859 45.5312 110.922 45.5312C108.984 45.5312 108.5 46.0156 108.5 47.9531C108.5 50.1812 108.209 50.375 103.656 50.375C99.1031 50.375 98.8125 50.1812 98.8125 47.9531C98.8125 46.0156 98.3281 45.5312 96.3906 45.5312C94.4531 45.5312 93.9688 45.0469 93.9688 43.1094C93.9688 41.1719 94.4531 40.6875 96.3906 40.6875C98.3281 40.6875 98.8125 40.2031 98.8125 38.2656C98.8125 36.3281 99.2969 35.8437 101.234 35.8437C103.172 35.8437 103.656 36.3281 103.656 38.2656C103.656 40.2031 104.141 40.6875 106.078 40.6875C108.016 40.6875 108.5 40.2031 108.5 38.2656C108.5 36.3281 108.016 35.8437 106.078 35.8437C104.141 35.8437 103.656 35.3594 103.656 33.4219C103.656 31.4844 104.141 31 106.078 31C108.016 31 108.5 30.5156 108.5 28.5781C108.5 26.6406 108.016 26.1562 106.078 26.1562C104.141 26.1562 103.656 25.6719 103.656 23.7344C103.656 21.7969 104.141 21.3125 106.078 21.3125C108.403 21.3125 108.5 21.1187 108.5 14.0469V6.78123H93.9688H79.4375V9.20311ZM93.9688 16.4687C93.9688 21.0219 94.1625 21.3125 96.3906 21.3125C98.6188 21.3125 98.8125 21.0219 98.8125 16.4687C98.8125 11.9156 99.0063 11.625 101.234 11.625C103.463 11.625 103.656 11.9156 103.656 16.4687C103.656 21.0219 103.463 21.3125 101.234 21.3125C99.2969 21.3125 98.8125 21.7969 98.8125 23.7344C98.8125 25.6719 98.3281 26.1562 96.3906 26.1562C94.4531 26.1562 93.9688 25.6719 93.9688 23.7344C93.9688 21.5062 93.6781 21.3125 89.125 21.3125C84.5719 21.3125 84.2813 21.5062 84.2813 23.7344C84.2813 25.6719 84.7656 26.1562 86.7031 26.1562C88.9313 26.1562 89.125 26.4469 89.125 31C89.125 35.5531 89.3188 35.8437 91.5469 35.8437C93.4844 35.8437 93.9688 35.3594 93.9688 33.4219C93.9688 31.4844 94.4531 31 96.3906 31C98.3281 31 98.8125 31.4844 98.8125 33.4219C98.8125 35.3594 98.3281 35.8437 96.3906 35.8437C94.4531 35.8437 93.9688 36.3281 93.9688 38.2656C93.9688 40.2031 93.4844 40.6875 91.5469 40.6875C89.6094 40.6875 89.125 41.1719 89.125 43.1094C89.125 45.0469 88.6406 45.5312 86.7031 45.5312C84.7656 45.5312 84.2813 46.0156 84.2813 47.9531C84.2813 49.8906 83.7969 50.375 81.8594 50.375C79.9219 50.375 79.4375 50.8594 79.4375 52.7969C79.4375 54.7344 78.9531 55.2187 77.0156 55.2187C75.0781 55.2187 74.5938 55.7031 74.5938 57.6406C74.5938 59.9656 74.4 60.0625 67.3281 60.0625H60.0625V64.9062C60.0625 69.4594 59.8688 69.75 57.6406 69.75C55.7031 69.75 55.2188 70.2344 55.2188 72.1719C55.2188 74.1094 54.7344 74.5937 52.7969 74.5937C50.8594 74.5937 50.375 75.0781 50.375 77.0156C50.375 78.9531 50.8594 79.4375 52.7969 79.4375C54.7344 79.4375 55.2188 79.9219 55.2188 81.8594C55.2188 83.7969 55.7031 84.2812 57.6406 84.2812C59.8688 84.2812 60.0625 83.9906 60.0625 79.4375C60.0625 74.8844 60.2563 74.5937 62.4844 74.5937C64.7125 74.5937 64.9063 74.3031 64.9063 69.75V64.9062H74.5938H84.2813V60.0625C84.2813 55.5094 84.475 55.2187 86.7031 55.2187C88.6406 55.2187 89.125 54.7344 89.125 52.7969C89.125 50.8594 89.6094 50.375 91.5469 50.375C93.8719 50.375 93.9688 50.5687 93.9688 57.6406C93.9688 64.7125 93.8719 64.9062 91.5469 64.9062C89.6094 64.9062 89.125 65.3906 89.125 67.3281C89.125 69.5562 89.4156 69.75 93.9688 69.75C98.5219 69.75 98.8125 69.9437 98.8125 72.1719C98.8125 74.4969 98.6188 74.5937 91.5469 74.5937C84.475 74.5937 84.2813 74.6906 84.2813 77.0156C84.2813 78.9531 83.7969 79.4375 81.8594 79.4375C79.9219 79.4375 79.4375 79.9219 79.4375 81.8594C79.4375 83.7969 79.9219 84.2812 81.8594 84.2812C83.7969 84.2812 84.2813 84.7656 84.2813 86.7031C84.2813 88.6406 84.7656 89.125 86.7031 89.125C88.9313 89.125 89.125 88.8344 89.125 84.2812V79.4375H98.8125H108.5V77.0156C108.5 75.0781 108.016 74.5937 106.078 74.5937C103.85 74.5937 103.656 74.3031 103.656 69.75C103.656 65.1969 103.85 64.9062 106.078 64.9062C108.016 64.9062 108.5 64.4219 108.5 62.4844C108.5 60.5469 108.984 60.0625 110.922 60.0625C112.859 60.0625 113.344 59.5781 113.344 57.6406C113.344 55.7031 112.859 55.2187 110.922 55.2187C108.984 55.2187 108.5 54.7344 108.5 52.7969C108.5 50.8594 108.984 50.375 110.922 50.375C112.859 50.375 113.344 50.8594 113.344 52.7969C113.344 54.7344 113.828 55.2187 115.766 55.2187C117.703 55.2187 118.188 55.7031 118.188 57.6406C118.188 59.5781 117.703 60.0625 115.766 60.0625C113.828 60.0625 113.344 60.5469 113.344 62.4844C113.344 64.8094 113.538 64.9062 120.609 64.9062C127.681 64.9062 127.875 65.0031 127.875 67.3281C127.875 69.2656 128.359 69.75 130.297 69.75C132.525 69.75 132.719 70.0406 132.719 74.5937C132.719 79.1469 132.913 79.4375 135.141 79.4375C137.369 79.4375 137.563 79.7281 137.563 84.2812C137.563 88.8344 137.369 89.125 135.141 89.125C133.203 89.125 132.719 88.6406 132.719 86.7031C132.719 84.7656 132.234 84.2812 130.297 84.2812C128.069 84.2812 127.875 83.9906 127.875 79.4375C127.875 74.8844 127.681 74.5937 125.453 74.5937C123.516 74.5937 123.031 74.1094 123.031 72.1719C123.031 69.8469 122.838 69.75 115.766 69.75C108.694 69.75 108.5 69.8469 108.5 72.1719C108.5 74.1094 108.984 74.5937 110.922 74.5937C112.859 74.5937 113.344 75.0781 113.344 77.0156C113.344 78.9531 112.859 79.4375 110.922 79.4375C108.984 79.4375 108.5 79.9219 108.5 81.8594C108.5 84.1844 108.306 84.2812 101.234 84.2812H93.9688V89.125C93.9688 93.6781 93.775 93.9687 91.5469 93.9687C89.6094 93.9687 89.125 94.4531 89.125 96.3906C89.125 98.3281 88.6406 98.8125 86.7031 98.8125C84.475 98.8125 84.2813 98.5219 84.2813 93.9687C84.2813 89.4156 84.0875 89.125 81.8594 89.125H79.4375V98.8125V108.5H77.0156C75.0781 108.5 74.5938 108.016 74.5938 106.078C74.5938 104.141 74.1094 103.656 72.1719 103.656C69.9438 103.656 69.75 103.366 69.75 98.8125C69.75 94.2594 69.9438 93.9687 72.1719 93.9687C74.1094 93.9687 74.5938 93.4844 74.5938 91.5469C74.5938 89.3187 74.3031 89.125 69.75 89.125C65.1969 89.125 64.9063 89.3187 64.9063 91.5469C64.9063 93.4844 64.4219 93.9687 62.4844 93.9687C60.5469 93.9687 60.0625 93.4844 60.0625 91.5469C60.0625 89.3187 59.7719 89.125 55.2188 89.125H50.375V84.2812C50.375 79.7281 50.1813 79.4375 47.9531 79.4375C46.0156 79.4375 45.5313 78.9531 45.5313 77.0156C45.5313 74.7875 45.2406 74.5937 40.6875 74.5937C36.1344 74.5937 35.8438 74.4 35.8438 72.1719C35.8438 69.9437 36.1344 69.75 40.6875 69.75C45.2406 69.75 45.5313 69.9437 45.5313 72.1719C45.5313 74.1094 46.0156 74.5937 47.9531 74.5937C49.8906 74.5937 50.375 74.1094 50.375 72.1719C50.375 70.2344 50.8594 69.75 52.7969 69.75C54.7344 69.75 55.2188 69.2656 55.2188 67.3281C55.2188 65.3906 54.7344 64.9062 52.7969 64.9062C50.8594 64.9062 50.375 64.4219 50.375 62.4844C50.375 60.5469 49.8906 60.0625 47.9531 60.0625C46.0156 60.0625 45.5313 59.5781 45.5313 57.6406C45.5313 55.4125 45.8219 55.2187 50.375 55.2187C54.9281 55.2187 55.2188 55.025 55.2188 52.7969C55.2188 50.8594 54.7344 50.375 52.7969 50.375C50.8594 50.375 50.375 49.8906 50.375 47.9531C50.375 46.0156 50.8594 45.5312 52.7969 45.5312C54.7344 45.5312 55.2188 45.0469 55.2188 43.1094C55.2188 41.1719 54.7344 40.6875 52.7969 40.6875C50.8594 40.6875 50.375 40.2031 50.375 38.2656C50.375 36.3281 50.8594 35.8437 52.7969 35.8437C54.7344 35.8437 55.2188 35.3594 55.2188 33.4219C55.2188 31.1937 55.5094 31 60.0625 31H64.9063V26.1562V21.3125H74.5938H84.2813V16.4687V11.625H89.125H93.9688V16.4687ZM40.6875 52.7969C40.6875 54.7344 40.2031 55.2187 38.2656 55.2187C36.3281 55.2187 35.8438 54.7344 35.8438 52.7969C35.8438 50.8594 36.3281 50.375 38.2656 50.375C40.2031 50.375 40.6875 50.8594 40.6875 52.7969ZM103.656 57.6406C103.656 59.5781 103.172 60.0625 101.234 60.0625C99.2969 60.0625 98.8125 59.5781 98.8125 57.6406C98.8125 55.7031 99.2969 55.2187 101.234 55.2187C103.172 55.2187 103.656 55.7031 103.656 57.6406ZM16.4688 81.8594C16.4688 83.7969 16.9531 84.2812 18.8906 84.2812C21.1188 84.2812 21.3125 84.5719 21.3125 89.125C21.3125 93.6781 21.1188 93.9687 18.8906 93.9687C16.6625 93.9687 16.4688 93.6781 16.4688 89.125C16.4688 84.5719 16.275 84.2812 14.0469 84.2812C12.1094 84.2812 11.625 83.7969 11.625 81.8594C11.625 79.9219 12.1094 79.4375 14.0469 79.4375C15.9844 79.4375 16.4688 79.9219 16.4688 81.8594ZM123.031 86.7031C123.031 88.6406 123.516 89.125 125.453 89.125C127.391 89.125 127.875 89.6094 127.875 91.5469C127.875 93.4844 128.359 93.9687 130.297 93.9687C132.525 93.9687 132.719 94.2594 132.719 98.8125V103.656H123.031H113.344V101.234C113.344 99.2969 112.859 98.8125 110.922 98.8125C108.984 98.8125 108.5 99.2969 108.5 101.234C108.5 103.172 108.016 103.656 106.078 103.656C104.141 103.656 103.656 103.172 103.656 101.234C103.656 99.2969 103.172 98.8125 101.234 98.8125C99.0063 98.8125 98.8125 98.5219 98.8125 93.9687C98.8125 89.4156 99.0063 89.125 101.234 89.125C103.463 89.125 103.656 89.4156 103.656 93.9687C103.656 98.5219 103.85 98.8125 106.078 98.8125C108.306 98.8125 108.5 98.5219 108.5 93.9687C108.5 89.4156 108.694 89.125 110.922 89.125C112.859 89.125 113.344 88.6406 113.344 86.7031C113.344 84.475 113.634 84.2812 118.188 84.2812C122.741 84.2812 123.031 84.475 123.031 86.7031ZM26.1563 101.234C26.1563 103.172 25.6719 103.656 23.7344 103.656C21.7969 103.656 21.3125 103.172 21.3125 101.234C21.3125 99.2969 21.7969 98.8125 23.7344 98.8125C25.6719 98.8125 26.1563 99.2969 26.1563 101.234ZM64.9063 110.922C64.9063 112.859 64.4219 113.344 62.4844 113.344C60.5469 113.344 60.0625 113.828 60.0625 115.766C60.0625 117.703 59.5781 118.187 57.6406 118.187C55.4125 118.187 55.2188 117.897 55.2188 113.344V108.5H60.0625C64.6156 108.5 64.9063 108.694 64.9063 110.922ZM98.8125 110.922C98.8125 113.15 98.5219 113.344 93.9688 113.344C89.4156 113.344 89.125 113.15 89.125 110.922C89.125 108.694 89.4156 108.5 93.9688 108.5C98.5219 108.5 98.8125 108.694 98.8125 110.922ZM123.031 115.766V123.031H115.766H108.5V115.766V108.5H115.766H123.031V115.766ZM137.563 118.187C137.563 122.741 137.369 123.031 135.141 123.031C133.203 123.031 132.719 123.516 132.719 125.453C132.719 127.681 133.009 127.875 137.563 127.875H142.406V132.719C142.406 137.272 142.213 137.562 139.984 137.562C138.047 137.562 137.563 137.078 137.563 135.141C137.563 133.203 137.078 132.719 135.141 132.719C133.203 132.719 132.719 132.234 132.719 130.297C132.719 128.359 132.234 127.875 130.297 127.875C128.359 127.875 127.875 127.391 127.875 125.453C127.875 123.516 128.359 123.031 130.297 123.031C132.525 123.031 132.719 122.741 132.719 118.187C132.719 113.634 132.913 113.344 135.141 113.344C137.369 113.344 137.563 113.634 137.563 118.187ZM84.2813 135.141C84.2813 137.369 83.9906 137.562 79.4375 137.562C74.8844 137.562 74.5938 137.369 74.5938 135.141C74.5938 132.912 74.8844 132.719 79.4375 132.719C83.9906 132.719 84.2813 132.912 84.2813 135.141Z" fill="#2A3B3D"/>
<path d="M69.75 28.5781C69.75 30.5156 69.2656 31 67.3281 31C65.1 31 64.9063 31.2906 64.9063 35.8437C64.9063 40.3969 64.7125 40.6875 62.4844 40.6875C60.5469 40.6875 60.0625 40.2031 60.0625 38.2656C60.0625 36.3281 59.5781 35.8437 57.6406 35.8437C55.7031 35.8437 55.2188 36.3281 55.2188 38.2656C55.2188 40.2031 55.7031 40.6875 57.6406 40.6875C59.5781 40.6875 60.0625 41.1719 60.0625 43.1094C60.0625 45.0469 60.5469 45.5312 62.4844 45.5312C64.4219 45.5312 64.9063 45.0469 64.9063 43.1094C64.9063 41.1719 65.3906 40.6875 67.3281 40.6875C69.5563 40.6875 69.75 40.9781 69.75 45.5312V50.375H74.5938H79.4375V40.6875V31H77.0156C75.0781 31 74.5938 30.5156 74.5938 28.5781C74.5938 26.6406 74.1094 26.1562 72.1719 26.1562C70.2344 26.1562 69.75 26.6406 69.75 28.5781ZM74.5938 35.8437C74.5938 40.3969 74.4 40.6875 72.1719 40.6875C69.9438 40.6875 69.75 40.3969 69.75 35.8437C69.75 31.2906 69.9438 31 72.1719 31C74.4 31 74.5938 31.2906 74.5938 35.8437Z" fill="#2A3B3D"/>
<path d="M84.2812 38.2656C84.2812 40.2031 84.7656 40.6875 86.7031 40.6875C88.6406 40.6875 89.125 40.2031 89.125 38.2656C89.125 36.3281 88.6406 35.8437 86.7031 35.8437C84.7656 35.8437 84.2812 36.3281 84.2812 38.2656Z" fill="#2A3B3D"/>
<path d="M69.75 72.1719C69.75 74.1094 69.2656 74.5937 67.3281 74.5937C65.1 74.5937 64.9063 74.8844 64.9063 79.4375C64.9063 83.9906 64.7125 84.2812 62.4844 84.2812C60.5469 84.2812 60.0625 84.7656 60.0625 86.7031C60.0625 88.6406 60.5469 89.125 62.4844 89.125C64.4219 89.125 64.9063 88.6406 64.9063 86.7031C64.9063 84.475 65.1969 84.2812 69.75 84.2812C74.3031 84.2812 74.5938 84.0875 74.5938 81.8594C74.5938 79.9219 75.0781 79.4375 77.0156 79.4375C78.9531 79.4375 79.4375 78.9531 79.4375 77.0156C79.4375 75.0781 78.9531 74.5937 77.0156 74.5937C75.0781 74.5937 74.5938 74.1094 74.5938 72.1719C74.5938 70.2344 74.1094 69.75 72.1719 69.75C70.2344 69.75 69.75 70.2344 69.75 72.1719ZM74.5938 77.0156C74.5938 78.9531 74.1094 79.4375 72.1719 79.4375C70.2344 79.4375 69.75 78.9531 69.75 77.0156C69.75 75.0781 70.2344 74.5937 72.1719 74.5937C74.1094 74.5937 74.5938 75.0781 74.5938 77.0156Z" fill="#2A3B3D"/>
<path d="M118.188 93.9687C118.188 98.5219 118.381 98.8125 120.609 98.8125C122.838 98.8125 123.031 98.5219 123.031 93.9687C123.031 89.4156 122.838 89.125 120.609 89.125C118.381 89.125 118.188 89.4156 118.188 93.9687Z" fill="#2A3B3D"/>
<path d="M113.344 115.766C113.344 117.703 113.828 118.188 115.766 118.188C117.703 118.188 118.188 117.703 118.188 115.766C118.188 113.828 117.703 113.344 115.766 113.344C113.828 113.344 113.344 113.828 113.344 115.766Z" fill="#2A3B3D"/>
<path d="M113.344 23.7344V40.6875H130.297H147.25V23.7344V6.78125H130.297H113.344V23.7344ZM142.406 23.7344V35.8438H130.297H118.187V23.7344V11.625H130.297H142.406V23.7344Z" fill="#2A3B3D"/>
<path d="M123.031 23.7344V31H130.297H137.562V23.7344V16.4688H130.297H123.031V23.7344Z" fill="#2A3B3D"/>
<path d="M6.78125 47.9531V50.375H16.4688H26.1563V47.9531V45.5312H16.4688H6.78125V47.9531Z" fill="#2A3B3D"/>
<path d="M142.406 50.375V55.2187H137.562C133.009 55.2187 132.719 55.4125 132.719 57.6406C132.719 59.8687 133.009 60.0625 137.562 60.0625C142.116 60.0625 142.406 60.2562 142.406 62.4844C142.406 64.4219 142.891 64.9062 144.828 64.9062C146.766 64.9062 147.25 64.4219 147.25 62.4844C147.25 60.5469 146.766 60.0625 144.828 60.0625C142.891 60.0625 142.406 59.5781 142.406 57.6406C142.406 55.7031 142.891 55.2187 144.828 55.2187C147.056 55.2187 147.25 54.9281 147.25 50.375C147.25 45.8219 147.056 45.5312 144.828 45.5312C142.6 45.5312 142.406 45.8219 142.406 50.375Z" fill="#2A3B3D"/>
<path d="M6.78125 130.297V147.25H23.7344H40.6875V130.297V113.344H23.7344H6.78125V130.297ZM35.8437 130.297V142.406H23.7344H11.625V130.297V118.188H23.7344H35.8437V130.297Z" fill="#2A3B3D"/>
<path d="M16.4688 130.297V137.562H23.7344H31V130.297V123.031H23.7344H16.4688V130.297Z" fill="#2A3B3D"/>
<path d="M103.656 139.984C103.656 142.212 103.366 142.406 98.8125 142.406C94.2594 142.406 93.9688 142.6 93.9688 144.828V147.25H103.656H113.344V142.406V137.562H108.5C103.947 137.562 103.656 137.756 103.656 139.984Z" fill="#2A3B3D"/>
</svg>
