<svg width="155" height="155" viewBox="0 0 155 155" fill="none" xmlns="http://www.w3.org/2000/svg">
<rect width="155" height="155" fill="white"/>
<path d="M4.84375 25.1875V45.5312H25.1875H45.5312V25.1875V4.84375H25.1875H4.84375V25.1875ZM39.7187 25.1875V39.7188H25.1875H10.6562V25.1875V10.6563H25.1875H39.7187V25.1875Z" fill="#2A3B3D"/>
<path d="M16.4688 25.1875V33.9062H25.1875H33.9062V25.1875V16.4688H25.1875H16.4688V25.1875Z" fill="#2A3B3D"/>
<path d="M68.7813 7.75C68.7813 10.3656 69.0719 10.6563 71.6875 10.6563C74.3031 10.6563 74.5937 10.9469 74.5937 13.5625V16.4687H65.875H57.1562V13.5625C57.1562 10.9469 56.8656 10.6563 54.25 10.6563C51.6344 10.6563 51.3437 10.9469 51.3437 13.5625C51.3437 16.1781 51.6344 16.4687 54.25 16.4687C56.8656 16.4687 57.1562 16.7594 57.1562 19.375C57.1562 21.9906 56.8656 22.2812 54.25 22.2812C51.6344 22.2812 51.3437 22.5719 51.3437 25.1875V28.0937H57.1562H62.9688V25.1875V22.2812H71.6875H80.4062V28.0937V33.9062H83.3125C85.9281 33.9062 86.2187 33.6156 86.2187 31V28.0937H92.0312H97.8437V31C97.8437 33.6156 97.5531 33.9062 94.9375 33.9062C92.3219 33.9062 92.0312 34.1969 92.0312 36.8125C92.0312 39.4281 91.7406 39.7187 89.125 39.7187H86.2187V45.5313V51.3438H80.4062H74.5937V48.4375C74.5937 45.8219 74.8844 45.5313 77.5 45.5313C80.1156 45.5313 80.4062 45.2406 80.4062 42.625C80.4062 40.0094 80.1156 39.7187 77.5 39.7187C74.8844 39.7187 74.5937 40.0094 74.5937 42.625C74.5937 45.2406 74.3031 45.5313 71.6875 45.5313H68.7813V39.7187V33.9062H71.6875C74.3031 33.9062 74.5937 33.6156 74.5937 31C74.5937 28.3844 74.3031 28.0937 71.6875 28.0937C69.0719 28.0937 68.7813 28.3844 68.7813 31C68.7813 33.6156 68.4906 33.9062 65.875 33.9062H62.9688V39.7187V45.5313H65.875C68.4906 45.5313 68.7813 45.8219 68.7813 48.4375V51.3438H54.25H39.7187V54.25C39.7187 56.8656 39.4281 57.1563 36.8125 57.1563C34.1969 57.1563 33.9063 56.8656 33.9063 54.25V51.3438H19.375H4.84375V54.25V57.1563H16.4687H28.0937V60.0625V62.9688H16.4687H4.84375V65.875C4.84375 68.4906 5.13437 68.7813 7.75 68.7813H10.6562V74.5938V80.4063H7.75H4.84375V92.0312V103.656H7.75H10.6562V92.0312V80.4063H13.5625H16.4687V92.0312V103.656H22.2812H28.0937V97.8438V92.0312H31H33.9063V97.8438V103.656H42.625H51.3437V109.469V115.281H54.25C56.8656 115.281 57.1562 115.572 57.1562 118.187C57.1562 120.803 56.8656 121.094 54.25 121.094H51.3437V135.625V150.156H60.0625H68.7813V147.25V144.344H74.5937H80.4062V147.25V150.156H86.2187H92.0312V141.438V132.719H94.9375C97.5531 132.719 97.8437 132.428 97.8437 129.813V126.906H103.656H109.469V129.813C109.469 132.428 109.759 132.719 112.375 132.719C114.991 132.719 115.281 132.428 115.281 129.813C115.281 127.197 115.572 126.906 118.188 126.906C120.803 126.906 121.094 127.197 121.094 129.813C121.094 132.428 121.384 132.719 124 132.719C126.616 132.719 126.906 133.009 126.906 135.625V138.531H121.094H115.281V144.344V150.156H132.719H150.156V138.531V126.906H147.25C144.634 126.906 144.344 126.616 144.344 124V121.094H138.531H132.719V118.187V115.281H141.437H150.156V112.375V109.469H141.437H132.719V106.563C132.719 103.947 133.009 103.656 135.625 103.656C138.241 103.656 138.531 103.366 138.531 100.75C138.531 98.1344 138.241 97.8438 135.625 97.8438C133.009 97.8438 132.719 98.1344 132.719 100.75C132.719 103.366 132.428 103.656 129.813 103.656H126.906V97.8438V92.0312H129.813H132.719V86.2187V80.4063H135.625H138.531V86.2187V92.0312H141.437C144.053 92.0312 144.344 92.3219 144.344 94.9375C144.344 97.5531 144.634 97.8438 147.25 97.8438H150.156V92.0312V86.2187H147.25C144.634 86.2187 144.344 85.9281 144.344 83.3125C144.344 80.6969 144.634 80.4063 147.25 80.4063H150.156V71.6875V62.9688H147.25H144.344V57.1563V51.3438H141.437H138.531V60.0625V68.7813H141.437C144.053 68.7813 144.344 69.0719 144.344 71.6875V74.5938H138.531H132.719V77.5C132.719 80.1156 132.428 80.4063 129.813 80.4063C127.197 80.4063 126.906 80.1156 126.906 77.5C126.906 74.8844 126.616 74.5938 124 74.5938C121.384 74.5938 121.094 74.3031 121.094 71.6875V68.7813H126.906H132.719V65.875V62.9688H126.906H121.094V57.1563V51.3438H118.188H115.281V57.1563V62.9688H112.375H109.469V57.1563V51.3438H106.562C103.947 51.3438 103.656 51.6344 103.656 54.25C103.656 56.8656 103.366 57.1563 100.75 57.1563H97.8437V51.3438V45.5313H100.75H103.656V36.8125V28.0937H100.75C98.1344 28.0937 97.8437 27.8031 97.8437 25.1875C97.8437 22.5719 98.1344 22.2812 100.75 22.2812C103.366 22.2812 103.656 21.9906 103.656 19.375C103.656 16.7594 103.366 16.4687 100.75 16.4687C98.1344 16.4687 97.8437 16.1781 97.8437 13.5625C97.8437 10.9469 98.1344 10.6563 100.75 10.6563C103.366 10.6563 103.656 10.3656 103.656 7.75C103.656 5.13438 103.366 4.84375 100.75 4.84375C98.1344 4.84375 97.8437 5.13438 97.8437 7.75C97.8437 10.3656 97.5531 10.6563 94.9375 10.6563C92.3219 10.6563 92.0312 10.3656 92.0312 7.75C92.0312 5.13438 91.7406 4.84375 89.125 4.84375C86.5094 4.84375 86.2187 5.13438 86.2187 7.75V10.6563H80.4062H74.5937V7.75C74.5937 5.13438 74.3031 4.84375 71.6875 4.84375C69.0719 4.84375 68.7813 5.13438 68.7813 7.75ZM86.2187 19.375C86.2187 21.9906 85.9281 22.2812 83.3125 22.2812C80.6969 22.2812 80.4062 21.9906 80.4062 19.375C80.4062 16.7594 80.6969 16.4687 83.3125 16.4687C85.9281 16.4687 86.2187 16.7594 86.2187 19.375ZM97.8437 42.625C97.8437 45.2406 97.5531 45.5313 94.9375 45.5313C92.3219 45.5313 92.0312 45.2406 92.0312 42.625C92.0312 40.0094 92.3219 39.7187 94.9375 39.7187C97.5531 39.7187 97.8437 40.0094 97.8437 42.625ZM45.5312 60.0625C45.5312 62.6781 45.8219 62.9688 48.4375 62.9688C51.0531 62.9688 51.3437 63.2594 51.3437 65.875C51.3437 68.4906 51.6344 68.7813 54.25 68.7813H57.1562V74.5938V80.4063H54.25H51.3437V74.5938V68.7813H48.4375C45.8219 68.7813 45.5312 69.0719 45.5312 71.6875C45.5312 74.3031 45.2406 74.5938 42.625 74.5938C40.0094 74.5938 39.7187 74.8844 39.7187 77.5C39.7187 80.1156 40.0094 80.4063 42.625 80.4063C45.2406 80.4063 45.5312 80.6969 45.5312 83.3125V86.2187H51.3437H57.1562V89.125C57.1562 91.7406 57.4469 92.0312 60.0625 92.0312C62.6781 92.0312 62.9688 91.7406 62.9688 89.125V86.2187H68.7813H74.5937V83.3125V80.4063H68.7813H62.9688V77.5V74.5938H68.7813H74.5937V71.6875V68.7813H68.7813H62.9688V62.9688V57.1563H65.875C68.4906 57.1563 68.7813 57.4469 68.7813 60.0625C68.7813 62.6781 69.0719 62.9688 71.6875 62.9688C74.3031 62.9688 74.5937 62.6781 74.5937 60.0625C74.5937 57.4469 74.8844 57.1563 77.5 57.1563C80.1156 57.1563 80.4062 57.4469 80.4062 60.0625C80.4062 62.6781 80.6969 62.9688 83.3125 62.9688C85.9281 62.9688 86.2187 62.6781 86.2187 60.0625V57.1563H92.0312H97.8437V60.0625V62.9688H92.0312H86.2187V65.875C86.2187 68.4906 86.5094 68.7813 89.125 68.7813C91.7406 68.7813 92.0312 69.0719 92.0312 71.6875V74.5938H86.2187H80.4062V80.4063V86.2187H83.3125C85.9281 86.2187 86.2187 85.9281 86.2187 83.3125V80.4063H92.0312H97.8437V77.5C97.8437 74.8844 98.1344 74.5938 100.75 74.5938C103.366 74.5938 103.656 74.8844 103.656 77.5C103.656 80.1156 103.366 80.4063 100.75 80.4063C98.1344 80.4063 97.8437 80.6969 97.8437 83.3125C97.8437 85.9281 98.1344 86.2187 100.75 86.2187H103.656V92.0312V97.8438H97.8437H92.0312V100.75C92.0312 103.366 92.3219 103.656 94.9375 103.656H97.8437V112.375V121.094H86.2187H74.5937V124C74.5937 126.616 74.8844 126.906 77.5 126.906C80.1156 126.906 80.4062 127.197 80.4062 129.813C80.4062 132.428 80.1156 132.719 77.5 132.719C74.8844 132.719 74.5937 133.009 74.5937 135.625C74.5937 138.241 74.3031 138.531 71.6875 138.531C69.0719 138.531 68.7813 138.822 68.7813 141.438V144.344H62.9688H57.1562V141.438V138.531H62.9688H68.7813V135.625V132.719H62.9688H57.1562V126.906V121.094H60.0625H62.9688V109.469V97.8438H51.3437H39.7187V94.9375C39.7187 92.3219 40.0094 92.0312 42.625 92.0312C45.2406 92.0312 45.5312 91.7406 45.5312 89.125V86.2187H36.8125H28.0937V89.125C28.0937 91.7406 27.8031 92.0312 25.1875 92.0312C22.5719 92.0312 22.2812 91.7406 22.2812 89.125C22.2812 86.5094 22.5719 86.2187 25.1875 86.2187C27.8031 86.2187 28.0937 85.9281 28.0937 83.3125C28.0937 80.6969 28.3844 80.4063 31 80.4063C33.6156 80.4063 33.9063 80.1156 33.9063 77.5C33.9063 74.8844 33.6156 74.5938 31 74.5938H28.0937V68.7813V62.9688H33.9063H39.7187V60.0625C39.7187 57.4469 40.0094 57.1563 42.625 57.1563C45.2406 57.1563 45.5312 57.4469 45.5312 60.0625ZM22.2812 71.6875C22.2812 74.3031 21.9906 74.5938 19.375 74.5938C16.7594 74.5938 16.4687 74.3031 16.4687 71.6875C16.4687 69.0719 16.7594 68.7813 19.375 68.7813C21.9906 68.7813 22.2812 69.0719 22.2812 71.6875ZM115.281 71.6875C115.281 74.3031 114.991 74.5938 112.375 74.5938C109.759 74.5938 109.469 74.3031 109.469 71.6875C109.469 69.0719 109.759 68.7813 112.375 68.7813C114.991 68.7813 115.281 69.0719 115.281 71.6875ZM115.281 83.3125C115.281 85.9281 114.991 86.2187 112.375 86.2187C109.759 86.2187 109.469 85.9281 109.469 83.3125C109.469 80.6969 109.759 80.4063 112.375 80.4063C114.991 80.4063 115.281 80.6969 115.281 83.3125ZM126.906 83.3125C126.906 85.9281 126.616 86.2187 124 86.2187C121.384 86.2187 121.094 85.9281 121.094 83.3125C121.094 80.6969 121.384 80.4063 124 80.4063C126.616 80.4063 126.906 80.6969 126.906 83.3125ZM115.281 94.9375C115.281 97.5531 114.991 97.8438 112.375 97.8438C109.759 97.8438 109.469 97.5531 109.469 94.9375C109.469 92.3219 109.759 92.0312 112.375 92.0312C114.991 92.0312 115.281 92.3219 115.281 94.9375ZM121.094 112.375V121.094H112.375H103.656V112.375V103.656H112.375H121.094V112.375ZM132.719 112.375C132.719 114.991 132.428 115.281 129.813 115.281C127.197 115.281 126.906 114.991 126.906 112.375C126.906 109.759 127.197 109.469 129.813 109.469C132.428 109.469 132.719 109.759 132.719 112.375ZM132.719 124C132.719 126.616 132.428 126.906 129.813 126.906C127.197 126.906 126.906 126.616 126.906 124C126.906 121.384 127.197 121.094 129.813 121.094C132.428 121.094 132.719 121.384 132.719 124ZM92.0312 129.813C92.0312 132.428 91.7406 132.719 89.125 132.719C86.5094 132.719 86.2187 132.428 86.2187 129.813C86.2187 127.197 86.5094 126.906 89.125 126.906C91.7406 126.906 92.0312 127.197 92.0312 129.813ZM144.344 138.531V144.344H138.531H132.719V141.438C132.719 138.822 133.009 138.531 135.625 138.531C138.241 138.531 138.531 138.241 138.531 135.625C138.531 133.009 138.822 132.719 141.437 132.719H144.344V138.531ZM86.2187 141.438C86.2187 144.053 85.9281 144.344 83.3125 144.344C80.6969 144.344 80.4062 144.053 80.4062 141.438C80.4062 138.822 80.6969 138.531 83.3125 138.531C85.9281 138.531 86.2187 138.822 86.2187 141.438Z" fill="#2A3B3D"/>
<path d="M39.7187 65.875C39.7187 68.4906 39.4281 68.7813 36.8125 68.7813C34.1969 68.7813 33.9062 69.0719 33.9062 71.6875C33.9062 74.3031 34.1969 74.5938 36.8125 74.5938C39.4281 74.5938 39.7187 74.3031 39.7187 71.6875C39.7187 69.0719 40.0094 68.7813 42.625 68.7813C45.2406 68.7813 45.5312 68.4906 45.5312 65.875C45.5312 63.2594 45.2406 62.9688 42.625 62.9688C40.0094 62.9688 39.7187 63.2594 39.7187 65.875Z" fill="#2A3B3D"/>
<path d="M86.2188 89.125V92.0312H92.0312H97.8437V89.125V86.2188H92.0312H86.2188V89.125Z" fill="#2A3B3D"/>
<path d="M68.7812 100.75V109.469H74.5937H80.4062V112.375V115.281H86.2187H92.0312V112.375C92.0312 109.759 91.7406 109.469 89.125 109.469H86.2187V103.656V97.8438H80.4062H74.5937V94.9375C74.5937 92.3219 74.3031 92.0313 71.6875 92.0313H68.7812V100.75Z" fill="#2A3B3D"/>
<path d="M68.7812 118.188C68.7812 120.803 68.4906 121.094 65.875 121.094C63.2594 121.094 62.9688 121.384 62.9688 124C62.9688 126.616 63.2594 126.906 65.875 126.906C68.4906 126.906 68.7812 127.197 68.7812 129.813C68.7812 132.428 69.0719 132.719 71.6875 132.719C74.3031 132.719 74.5937 132.428 74.5937 129.813C74.5937 127.197 74.3031 126.906 71.6875 126.906C69.0719 126.906 68.7812 126.616 68.7812 124C68.7812 121.384 69.0719 121.094 71.6875 121.094C74.3031 121.094 74.5937 120.803 74.5937 118.188C74.5937 115.572 74.3031 115.281 71.6875 115.281C69.0719 115.281 68.7812 115.572 68.7812 118.188Z" fill="#2A3B3D"/>
<path d="M109.469 112.375C109.469 114.991 109.759 115.281 112.375 115.281C114.991 115.281 115.281 114.991 115.281 112.375C115.281 109.759 114.991 109.469 112.375 109.469C109.759 109.469 109.469 109.759 109.469 112.375Z" fill="#2A3B3D"/>
<path d="M109.469 25.1875V45.5312H129.812H150.156V25.1875V4.84375H129.812H109.469V25.1875ZM144.344 25.1875V39.7188H129.812H115.281V25.1875V10.6563H129.812H144.344V25.1875Z" fill="#2A3B3D"/>
<path d="M121.094 25.1875V33.9062H129.812H138.531V25.1875V16.4688H129.812H121.094V25.1875Z" fill="#2A3B3D"/>
<path d="M51.3438 39.7188V45.5312H54.25H57.1562V39.7188V33.9063H54.25H51.3438V39.7188Z" fill="#2A3B3D"/>
<path d="M126.906 54.25C126.906 56.8656 127.197 57.1562 129.812 57.1562C132.428 57.1562 132.719 56.8656 132.719 54.25C132.719 51.6344 132.428 51.3438 129.812 51.3438C127.197 51.3438 126.906 51.6344 126.906 54.25Z" fill="#2A3B3D"/>
<path d="M4.84375 129.813V150.156H25.1875H45.5312V129.813V109.469H25.1875H4.84375V129.813ZM39.7187 129.813V144.344H25.1875H10.6562V129.813V115.281H25.1875H39.7187V129.813Z" fill="#2A3B3D"/>
<path d="M16.4688 129.813V138.531H25.1875H33.9062V129.813V121.094H25.1875H16.4688V129.813Z" fill="#2A3B3D"/>
<path d="M97.8438 141.438V144.344H103.656H109.469V141.438V138.531H103.656H97.8438V141.438Z" fill="#2A3B3D"/>
</svg>
