<svg width="155" height="155" viewBox="0 0 155 155" fill="none" xmlns="http://www.w3.org/2000/svg">
<rect width="155" height="155" fill="white"/>
<path d="M4.84375 25.1875V45.5312H25.1875H45.5312V25.1875V4.84375H25.1875H4.84375V25.1875ZM39.7187 25.1875V39.7188H25.1875H10.6562V25.1875V10.6563H25.1875H39.7187V25.1875Z" fill="#2A3B3D"/>
<path d="M16.4688 25.1875V33.9062H25.1875H33.9062V25.1875V16.4688H25.1875H16.4688V25.1875Z" fill="#2A3B3D"/>
<path d="M51.3437 7.75V10.6563H57.1562H62.9687V13.5625C62.9687 16.1781 63.2594 16.4688 65.875 16.4688C68.4906 16.4688 68.7812 16.7594 68.7812 19.375C68.7812 21.9906 69.0719 22.2813 71.6875 22.2813H74.5937V33.9063V45.5313H71.6875C69.0719 45.5313 68.7812 45.2406 68.7812 42.625C68.7812 40.0094 68.4906 39.7188 65.875 39.7188H62.9687V31V22.2813H60.0625C57.4469 22.2813 57.1562 21.9906 57.1562 19.375C57.1562 16.7594 56.8656 16.4688 54.25 16.4688H51.3437V25.1875V33.9063H54.25C56.8656 33.9063 57.1562 34.1969 57.1562 36.8125C57.1562 39.4281 56.8656 39.7188 54.25 39.7188C51.6344 39.7188 51.3437 40.0094 51.3437 42.625C51.3437 45.2406 51.6344 45.5313 54.25 45.5313C56.8656 45.5313 57.1562 45.8219 57.1562 48.4375C57.1562 51.0531 56.8656 51.3438 54.25 51.3438C51.6344 51.3438 51.3437 51.6344 51.3437 54.25C51.3437 56.8656 51.0531 57.1563 48.4375 57.1563C45.8219 57.1563 45.5312 56.8656 45.5312 54.25C45.5312 51.6344 45.2406 51.3438 42.625 51.3438C40.0094 51.3438 39.7187 51.6344 39.7187 54.25C39.7187 56.8656 40.0094 57.1563 42.625 57.1563C45.2406 57.1563 45.5312 57.4469 45.5312 60.0625C45.5312 62.6781 45.2406 62.9688 42.625 62.9688C40.0094 62.9688 39.7187 63.2594 39.7187 65.875C39.7187 68.4906 39.4281 68.7813 36.8125 68.7813H33.9062V62.9688V57.1563H31C28.3844 57.1563 28.0937 56.8656 28.0937 54.25V51.3438H16.4687H4.84375V54.25C4.84375 56.8656 5.13437 57.1563 7.75 57.1563H10.6562V62.9688V68.7813H7.75H4.84375V74.5938V80.4063H7.75H10.6562V86.2188V92.0313H7.75C5.13437 92.0313 4.84375 92.3219 4.84375 94.9375C4.84375 97.5531 5.13437 97.8438 7.75 97.8438C10.3656 97.8438 10.6562 97.5531 10.6562 94.9375C10.6562 92.3219 10.9469 92.0313 13.5625 92.0313H16.4687V97.8438V103.656H19.375H22.2812V97.8438V92.0313H25.1875H28.0937V97.8438V103.656H36.8125H45.5312V100.75C45.5312 98.1344 45.2406 97.8438 42.625 97.8438C40.0094 97.8438 39.7187 97.5531 39.7187 94.9375V92.0313H51.3437H62.9687V94.9375V97.8438H57.1562H51.3437V103.656V109.469H54.25H57.1562V118.188V126.906H54.25H51.3437V138.531V150.156H54.25C56.8656 150.156 57.1562 149.866 57.1562 147.25C57.1562 144.634 57.4469 144.344 60.0625 144.344H62.9687V138.531V132.719H65.875H68.7812V138.531V144.344H71.6875H74.5937V135.625V126.906H71.6875C69.0719 126.906 68.7812 126.616 68.7812 124C68.7812 121.384 68.4906 121.094 65.875 121.094C63.2594 121.094 62.9687 120.803 62.9687 118.188C62.9687 115.572 63.2594 115.281 65.875 115.281C68.4906 115.281 68.7812 114.991 68.7812 112.375C68.7812 109.759 69.0719 109.469 71.6875 109.469C74.3031 109.469 74.5937 109.178 74.5937 106.563C74.5937 103.947 74.3031 103.656 71.6875 103.656C69.0719 103.656 68.7812 103.947 68.7812 106.563V109.469H62.9687H57.1562V106.563C57.1562 103.947 57.4469 103.656 60.0625 103.656C62.6781 103.656 62.9687 103.366 62.9687 100.75V97.8438H68.7812H74.5937V94.9375V92.0313H83.3125H92.0312V89.125C92.0312 86.5094 92.3219 86.2188 94.9375 86.2188C97.5531 86.2188 97.8437 86.5094 97.8437 89.125C97.8437 91.7406 98.1344 92.0313 100.75 92.0313C103.366 92.0313 103.656 92.3219 103.656 94.9375C103.656 97.5531 103.366 97.8438 100.75 97.8438C98.1344 97.8438 97.8437 98.1344 97.8437 100.75C97.8437 103.366 97.5531 103.656 94.9375 103.656C92.3219 103.656 92.0312 103.366 92.0312 100.75V97.8438H86.2187H80.4062V100.75V103.656H86.2187H92.0312V106.563V109.469H86.2187H80.4062V112.375C80.4062 114.991 80.1156 115.281 77.5 115.281C74.8844 115.281 74.5937 115.572 74.5937 118.188C74.5937 120.803 74.8844 121.094 77.5 121.094C80.1156 121.094 80.4062 120.803 80.4062 118.188C80.4062 115.572 80.6969 115.281 83.3125 115.281H86.2187V121.094V126.906H83.3125H80.4062V138.531V150.156H86.2187H92.0312V147.25C92.0312 144.634 92.3219 144.344 94.9375 144.344H97.8437V135.625V126.906H103.656H109.469V129.813C109.469 132.428 109.178 132.719 106.562 132.719H103.656V138.531V144.344H109.469H115.281V147.25V150.156H132.719H150.156V147.25V144.344H144.344H138.531V141.438C138.531 138.822 138.822 138.531 141.437 138.531C144.053 138.531 144.344 138.241 144.344 135.625C144.344 133.009 144.634 132.719 147.25 132.719H150.156V112.375V92.0313H147.25C144.634 92.0313 144.344 91.7406 144.344 89.125C144.344 86.5094 144.634 86.2188 147.25 86.2188H150.156V80.4063V74.5938H144.344H138.531V71.6875V68.7813H132.719H126.906V71.6875V74.5938H121.094H115.281V71.6875C115.281 69.0719 115.572 68.7813 118.187 68.7813H121.094V62.9688V57.1563H129.812H138.531V60.0625C138.531 62.6781 138.822 62.9688 141.437 62.9688C144.053 62.9688 144.344 62.6781 144.344 60.0625C144.344 57.4469 144.634 57.1563 147.25 57.1563C149.866 57.1563 150.156 56.8656 150.156 54.25C150.156 51.6344 149.866 51.3438 147.25 51.3438C144.634 51.3438 144.344 51.6344 144.344 54.25C144.344 56.8656 144.053 57.1563 141.437 57.1563C138.822 57.1563 138.531 56.8656 138.531 54.25V51.3438H129.812H121.094V54.25C121.094 56.8656 120.803 57.1563 118.187 57.1563H115.281V62.9688V68.7813H109.469H103.656V65.875C103.656 63.2594 103.947 62.9688 106.562 62.9688H109.469V57.1563V51.3438H103.656H97.8437V60.0625V68.7813H100.75H103.656V74.5938V80.4063H100.75C98.1344 80.4063 97.8437 80.1156 97.8437 77.5V74.5938H92.0312H86.2187V71.6875V68.7813H80.4062H74.5937V57.1563V45.5313H77.5C80.1156 45.5313 80.4062 45.2406 80.4062 42.625C80.4062 40.0094 80.6969 39.7188 83.3125 39.7188C85.9281 39.7188 86.2187 40.0094 86.2187 42.625C86.2187 45.2406 86.5094 45.5313 89.125 45.5313C91.7406 45.5313 92.0312 45.2406 92.0312 42.625C92.0312 40.0094 91.7406 39.7188 89.125 39.7188C86.5094 39.7188 86.2187 39.4281 86.2187 36.8125V33.9063H94.9375H103.656V31C103.656 28.3844 103.366 28.0938 100.75 28.0938C98.1344 28.0938 97.8437 27.8031 97.8437 25.1875C97.8437 22.5719 97.5531 22.2813 94.9375 22.2813C92.3219 22.2813 92.0312 21.9906 92.0312 19.375C92.0312 16.7594 91.7406 16.4688 89.125 16.4688C86.5094 16.4688 86.2187 16.1781 86.2187 13.5625C86.2187 10.9469 86.5094 10.6563 89.125 10.6563C91.7406 10.6563 92.0312 10.3656 92.0312 7.75C92.0312 5.13438 91.7406 4.84375 89.125 4.84375C86.5094 4.84375 86.2187 5.13438 86.2187 7.75C86.2187 10.3656 85.9281 10.6563 83.3125 10.6563C80.6969 10.6563 80.4062 10.9469 80.4062 13.5625C80.4062 16.1781 80.1156 16.4688 77.5 16.4688H74.5937V10.6563V4.84375H71.6875C69.0719 4.84375 68.7812 5.13438 68.7812 7.75C68.7812 10.3656 68.4906 10.6563 65.875 10.6563C63.2594 10.6563 62.9687 10.3656 62.9687 7.75V4.84375H57.1562H51.3437V7.75ZM62.9687 42.625C62.9687 45.2406 63.2594 45.5313 65.875 45.5313H68.7812V57.1563V68.7813H71.6875C74.3031 68.7813 74.5937 69.0719 74.5937 71.6875C74.5937 74.3031 74.3031 74.5938 71.6875 74.5938C69.0719 74.5938 68.7812 74.8844 68.7812 77.5C68.7812 80.1156 69.0719 80.4063 71.6875 80.4063H74.5937V86.2188V92.0313H71.6875H68.7812V86.2188V80.4063H65.875C63.2594 80.4063 62.9687 80.6969 62.9687 83.3125V86.2188H57.1562H51.3437V83.3125V80.4063H57.1562H62.9687V77.5C62.9687 74.8844 62.6781 74.5938 60.0625 74.5938C57.4469 74.5938 57.1562 74.3031 57.1562 71.6875C57.1562 69.0719 56.8656 68.7813 54.25 68.7813H51.3437V62.9688V57.1563H54.25C56.8656 57.1563 57.1562 56.8656 57.1562 54.25C57.1562 51.6344 57.4469 51.3438 60.0625 51.3438C62.6781 51.3438 62.9687 51.0531 62.9687 48.4375C62.9687 45.8219 62.6781 45.5313 60.0625 45.5313C57.4469 45.5313 57.1562 45.2406 57.1562 42.625C57.1562 40.0094 57.4469 39.7188 60.0625 39.7188C62.6781 39.7188 62.9687 40.0094 62.9687 42.625ZM28.0937 60.0625V62.9688H22.2812H16.4687V60.0625V57.1563H22.2812H28.0937V60.0625ZM22.2812 71.6875C22.2812 74.3031 21.9906 74.5938 19.375 74.5938C16.7594 74.5938 16.4687 74.3031 16.4687 71.6875C16.4687 69.0719 16.7594 68.7813 19.375 68.7813C21.9906 68.7813 22.2812 69.0719 22.2812 71.6875ZM45.5312 71.6875C45.5312 74.3031 45.2406 74.5938 42.625 74.5938C40.0094 74.5938 39.7187 74.3031 39.7187 71.6875C39.7187 69.0719 40.0094 68.7813 42.625 68.7813C45.2406 68.7813 45.5312 69.0719 45.5312 71.6875ZM132.719 77.5V80.4063H138.531H144.344V83.3125V86.2188H138.531H132.719V89.125V92.0313H138.531H144.344V94.9375V97.8438H135.625H126.906V86.2188V74.5938H129.812C132.428 74.5938 132.719 74.8844 132.719 77.5ZM22.2812 83.3125C22.2812 85.9281 21.9906 86.2188 19.375 86.2188C16.7594 86.2188 16.4687 85.9281 16.4687 83.3125C16.4687 80.6969 16.7594 80.4063 19.375 80.4063C21.9906 80.4063 22.2812 80.6969 22.2812 83.3125ZM45.5312 83.3125C45.5312 85.9281 45.2406 86.2188 42.625 86.2188C40.0094 86.2188 39.7187 86.5094 39.7187 89.125C39.7187 91.7406 39.4281 92.0313 36.8125 92.0313C34.1969 92.0313 33.9062 91.7406 33.9062 89.125C33.9062 86.5094 33.6156 86.2188 31 86.2188C28.3844 86.2188 28.0937 85.9281 28.0937 83.3125V80.4063H36.8125H45.5312V83.3125ZM109.469 83.3125V86.2188H115.281H121.094V89.125C121.094 91.7406 120.803 92.0313 118.187 92.0313C115.572 92.0313 115.281 92.3219 115.281 94.9375C115.281 97.5531 114.991 97.8438 112.375 97.8438H109.469V92.0313V86.2188H106.562C103.947 86.2188 103.656 85.9281 103.656 83.3125C103.656 80.6969 103.947 80.4063 106.562 80.4063C109.178 80.4063 109.469 80.6969 109.469 83.3125ZM121.094 112.375V121.094H112.375H103.656V112.375V103.656H112.375H121.094V112.375ZM132.719 109.469V115.281H135.625H138.531V121.094V126.906H135.625C133.009 126.906 132.719 126.616 132.719 124C132.719 121.384 132.428 121.094 129.812 121.094H126.906V112.375V103.656H129.812H132.719V109.469ZM144.344 106.563C144.344 109.178 144.053 109.469 141.437 109.469C138.822 109.469 138.531 109.178 138.531 106.563C138.531 103.947 138.822 103.656 141.437 103.656C144.053 103.656 144.344 103.947 144.344 106.563ZM97.8437 112.375C97.8437 114.991 97.5531 115.281 94.9375 115.281C92.3219 115.281 92.0312 114.991 92.0312 112.375C92.0312 109.759 92.3219 109.469 94.9375 109.469C97.5531 109.469 97.8437 109.759 97.8437 112.375ZM97.8437 124C97.8437 126.616 97.5531 126.906 94.9375 126.906H92.0312V132.719V138.531H89.125H86.2187V132.719V126.906H89.125C91.7406 126.906 92.0312 126.616 92.0312 124C92.0312 121.384 92.3219 121.094 94.9375 121.094C97.5531 121.094 97.8437 121.384 97.8437 124ZM62.9687 129.813C62.9687 132.428 62.6781 132.719 60.0625 132.719C57.4469 132.719 57.1562 132.428 57.1562 129.813C57.1562 127.197 57.4469 126.906 60.0625 126.906C62.6781 126.906 62.9687 127.197 62.9687 129.813ZM121.094 135.625V144.344H118.187H115.281V135.625V126.906H118.187H121.094V135.625ZM132.719 138.531V144.344H129.812H126.906V138.531V132.719H129.812H132.719V138.531Z" fill="#2A3B3D"/>
<path d="M57.1562 60.0625C57.1562 62.6781 57.4469 62.9688 60.0625 62.9688C62.6781 62.9688 62.9687 62.6781 62.9687 60.0625C62.9687 57.4469 62.6781 57.1563 60.0625 57.1563C57.4469 57.1563 57.1562 57.4469 57.1562 60.0625Z" fill="#2A3B3D"/>
<path d="M109.469 112.375C109.469 114.991 109.759 115.281 112.375 115.281C114.991 115.281 115.281 114.991 115.281 112.375C115.281 109.759 114.991 109.469 112.375 109.469C109.759 109.469 109.469 109.759 109.469 112.375Z" fill="#2A3B3D"/>
<path d="M97.8438 7.75C97.8438 10.3656 98.1344 10.6562 100.75 10.6562C103.366 10.6562 103.656 10.3656 103.656 7.75C103.656 5.13438 103.366 4.84375 100.75 4.84375C98.1344 4.84375 97.8438 5.13438 97.8438 7.75Z" fill="#2A3B3D"/>
<path d="M109.469 25.1875V45.5312H129.812H150.156V25.1875V4.84375H129.812H109.469V25.1875ZM144.344 25.1875V39.7188H129.812H115.281V25.1875V10.6563H129.812H144.344V25.1875Z" fill="#2A3B3D"/>
<path d="M121.094 25.1875V33.9062H129.812H138.531V25.1875V16.4688H129.812H121.094V25.1875Z" fill="#2A3B3D"/>
<path d="M97.8438 42.625C97.8438 45.2406 98.1344 45.5312 100.75 45.5312C103.366 45.5312 103.656 45.2406 103.656 42.625C103.656 40.0094 103.366 39.7188 100.75 39.7188C98.1344 39.7188 97.8438 40.0094 97.8438 42.625Z" fill="#2A3B3D"/>
<path d="M86.2187 54.25C86.2187 56.8656 85.9281 57.1563 83.3125 57.1563C80.6969 57.1563 80.4062 57.4469 80.4062 60.0625C80.4062 62.6781 80.6969 62.9688 83.3125 62.9688C85.9281 62.9688 86.2187 62.6781 86.2187 60.0625C86.2187 57.4469 86.5094 57.1563 89.125 57.1563C91.7406 57.1563 92.0312 56.8656 92.0312 54.25C92.0312 51.6344 91.7406 51.3438 89.125 51.3438C86.5094 51.3438 86.2187 51.6344 86.2187 54.25Z" fill="#2A3B3D"/>
<path d="M4.84375 129.813V150.156H25.1875H45.5312V129.813V109.469H25.1875H4.84375V129.813ZM39.7187 129.813V144.344H25.1875H10.6562V129.813V115.281H25.1875H39.7187V129.813Z" fill="#2A3B3D"/>
<path d="M16.4688 129.813V138.531H25.1875H33.9062V129.813V121.094H25.1875H16.4688V129.813Z" fill="#2A3B3D"/>
</svg>
