<svg xmlns="http://www.w3.org/2000/svg" width="155" height="155" viewBox="0 0 155 155">
  <g id="qrcode_Join_the_study" data-name="qrcode_Join the study" transform="translate(0.08 0.276)">
    <rect id="Rectangle_5495" data-name="Rectangle 5495" width="155" height="155" transform="translate(-0.08 -0.276)" fill="#fff"/>
    <g id="elements" transform="translate(5.69 5.558)">
      <path id="Path_301" data-name="Path 301" d="M10,10h5.73v5.73H10Zm5.73,0h5.73v5.73H15.73Zm5.73,0h5.73v5.73h-5.73Zm5.73,0h5.73v5.73h-5.73Zm5.73,0h5.73v5.73h-5.73Zm5.73,0h5.73v5.73h-5.73Zm5.73,0h5.73v5.73h-5.73Zm28.648,0h5.73v5.73h-5.73Zm17.189,0h5.73v5.73h-5.73Zm11.459,0h5.73v5.73h-5.73Zm11.459,0h5.73v5.73h-5.73Zm5.73,0h5.73v5.73h-5.73Zm5.73,0h5.73v5.73h-5.73Zm5.73,0h5.73v5.73h-5.73Zm5.73,0h5.73v5.73h-5.73Zm5.73,0h5.73v5.73h-5.73Zm5.73,0h5.73v5.73h-5.73ZM10,15.73h5.73v5.73H10Zm34.377,0h5.73v5.73h-5.73Zm11.459,0h5.73v5.73h-5.73Zm22.918,0h5.73v5.73h-5.73Zm5.73,0h5.73v5.73h-5.73Zm5.73,0h5.73v5.73h-5.73Zm5.73,0h5.73v5.73h-5.73Zm17.189,0h5.73v5.73h-5.73Zm34.377,0h5.73v5.73h-5.73ZM10,21.459h5.73v5.73H10Zm11.459,0h5.73v5.73h-5.73Zm5.73,0h5.73v5.73h-5.73Zm5.73,0h5.73v5.73h-5.73Zm11.459,0h5.73v5.73h-5.73Zm17.189,0H67.3v5.73h-5.73Zm5.73,0h5.73v5.73H67.3Zm22.918,0h5.73v5.73h-5.73Zm5.73,0h5.73v5.73h-5.73Zm5.73,0h5.73v5.73h-5.73Zm11.459,0h5.73v5.73h-5.73Zm11.459,0h5.73v5.73h-5.73Zm5.73,0h5.73v5.73h-5.73Zm5.73,0h5.73v5.73h-5.73Zm11.459,0h5.73v5.73h-5.73ZM10,27.189h5.73v5.73H10Zm11.459,0h5.73v5.73h-5.73Zm5.73,0h5.73v5.73h-5.73Zm5.73,0h5.73v5.73h-5.73Zm11.459,0h5.73v5.73h-5.73Zm11.459,0h5.73v5.73h-5.73Zm5.73,0H67.3v5.73h-5.73Zm22.918,0h5.73v5.73h-5.73Zm5.73,0h5.73v5.73h-5.73Zm5.73,0h5.73v5.73h-5.73Zm17.189,0h5.73v5.73h-5.73Zm11.459,0h5.73v5.73h-5.73Zm5.73,0h5.73v5.73h-5.73Zm5.73,0h5.73v5.73h-5.73Zm11.459,0h5.73v5.73h-5.73ZM10,32.918h5.73v5.73H10Zm11.459,0h5.73v5.73h-5.73Zm5.73,0h5.73v5.73h-5.73Zm5.73,0h5.73v5.73h-5.73Zm11.459,0h5.73v5.73h-5.73Zm28.648,0h5.73v5.73h-5.73Zm11.459,0h5.73v5.73h-5.73Zm17.189,0h5.73v5.73h-5.73Zm11.459,0h5.73v5.73h-5.73Zm11.459,0h5.73v5.73h-5.73Zm5.73,0h5.73v5.73h-5.73Zm5.73,0h5.73v5.73h-5.73Zm11.459,0h5.73v5.73h-5.73ZM10,38.648h5.73v5.73H10Zm34.377,0h5.73v5.73h-5.73Zm11.459,0h5.73v5.73h-5.73Zm11.459,0h5.73v5.73H67.3Zm28.648,0h5.73v5.73h-5.73Zm5.73,0h5.73v5.73h-5.73Zm11.459,0h5.73v5.73h-5.73Zm34.377,0h5.73v5.73h-5.73ZM10,44.377h5.73v5.73H10Zm5.73,0h5.73v5.73H15.73Zm5.73,0h5.73v5.73h-5.73Zm5.73,0h5.73v5.73h-5.73Zm5.73,0h5.73v5.73h-5.73Zm5.73,0h5.73v5.73h-5.73Zm5.73,0h5.73v5.73h-5.73Zm11.459,0h5.73v5.73h-5.73Zm11.459,0h5.73v5.73H67.3Zm11.459,0h5.73v5.73h-5.73Zm11.459,0h5.73v5.73h-5.73Zm11.459,0h5.73v5.73h-5.73Zm11.459,0h5.73v5.73h-5.73Zm5.73,0h5.73v5.73h-5.73Zm5.73,0h5.73v5.73h-5.73Zm5.73,0h5.73v5.73h-5.73Zm5.73,0h5.73v5.73h-5.73Zm5.73,0h5.73v5.73h-5.73Zm5.73,0h5.73v5.73h-5.73Zm-68.755,5.73h5.73v5.73h-5.73Zm11.459,0h5.73v5.73h-5.73Zm5.73,0h5.73v5.73h-5.73ZM10,55.837h5.73v5.73H10Zm5.73,0h5.73v5.73H15.73Zm5.73,0h5.73v5.73h-5.73Zm5.73,0h5.73v5.73h-5.73Zm5.73,0h5.73v5.73h-5.73Zm11.459,0h5.73v5.73h-5.73Zm5.73,0h5.73v5.73h-5.73Zm5.73,0h5.73v5.73h-5.73Zm5.73,0H67.3v5.73h-5.73Zm5.73,0h5.73v5.73H67.3Zm5.73,0h5.73v5.73h-5.73Zm5.73,0h5.73v5.73h-5.73Zm5.73,0h5.73v5.73h-5.73Zm5.73,0h5.73v5.73h-5.73Zm5.73,0h5.73v5.73h-5.73Zm11.459,0h5.73v5.73H107.4Zm11.459,0h5.73v5.73h-5.73Zm11.459,0h5.73v5.73h-5.73Zm11.459,0h5.73v5.73h-5.73ZM15.73,61.566h5.73V67.3H15.73Zm5.73,0h5.73V67.3h-5.73Zm40.107,0H67.3V67.3h-5.73Zm11.459,0h5.73V67.3h-5.73Zm11.459,0h5.73V67.3h-5.73Zm17.189,0h5.73V67.3h-5.73Zm5.73,0h5.73V67.3H107.4Zm11.459,0h5.73V67.3h-5.73Zm22.918,0h5.73V67.3h-5.73ZM10,67.3h5.73v5.73H10Zm5.73,0h5.73v5.73H15.73Zm5.73,0h5.73v5.73h-5.73Zm5.73,0h5.73v5.73h-5.73Zm5.73,0h5.73v5.73h-5.73Zm11.459,0h5.73v5.73h-5.73Zm5.73,0h5.73v5.73h-5.73Zm5.73,0h5.73v5.73h-5.73Zm5.73,0H67.3v5.73h-5.73Zm28.648,0h5.73v5.73h-5.73Zm5.73,0h5.73v5.73h-5.73Zm5.73,0h5.73v5.73h-5.73Zm5.73,0h5.73v5.73H107.4Zm5.73,0h5.73v5.73h-5.73Zm5.73,0h5.73v5.73h-5.73Zm5.73,0h5.73v5.73h-5.73Zm5.73,0h5.73v5.73h-5.73Zm11.459,0h5.73v5.73h-5.73Zm5.73,0h5.73v5.73h-5.73ZM15.73,73.025h5.73v5.73H15.73Zm5.73,0h5.73v5.73h-5.73Zm11.459,0h5.73v5.73h-5.73Zm28.648,0H67.3v5.73h-5.73Zm5.73,0h5.73v5.73H67.3Zm11.459,0h5.73v5.73h-5.73Zm17.189,0h5.73v5.73h-5.73Zm5.73,0h5.73v5.73h-5.73Zm5.73,0h5.73v5.73H107.4Zm11.459,0h5.73v5.73h-5.73Zm28.648,0h5.73v5.73h-5.73ZM10,78.755h5.73v5.73H10Zm22.918,0h5.73v5.73h-5.73Zm5.73,0h5.73v5.73h-5.73Zm5.73,0h5.73v5.73h-5.73Zm11.459,0h5.73v5.73h-5.73Zm5.73,0H67.3v5.73h-5.73Zm11.459,0h5.73v5.73h-5.73Zm5.73,0h5.73v5.73h-5.73Zm5.73,0h5.73v5.73h-5.73Zm5.73,0h5.73v5.73h-5.73Zm5.73,0h5.73v5.73h-5.73Zm11.459,0h5.73v5.73H107.4Zm5.73,0h5.73v5.73h-5.73Zm5.73,0h5.73v5.73h-5.73Zm5.73,0h5.73v5.73h-5.73Zm11.459,0h5.73v5.73h-5.73Zm5.73,0h5.73v5.73h-5.73Zm5.73,0h5.73v5.73h-5.73ZM10,84.484h5.73v5.73H10Zm11.459,0h5.73v5.73h-5.73Zm11.459,0h5.73v5.73h-5.73Zm22.918,0h5.73v5.73h-5.73Zm5.73,0H67.3v5.73h-5.73Zm5.73,0h5.73v5.73H67.3Zm5.73,0h5.73v5.73h-5.73Zm11.459,0h5.73v5.73h-5.73Zm17.189,0h5.73v5.73h-5.73Zm5.73,0h5.73v5.73H107.4Zm11.459,0h5.73v5.73h-5.73Zm11.459,0h5.73v5.73h-5.73Zm11.459,0h5.73v5.73h-5.73ZM10,90.214h5.73v5.73H10Zm11.459,0h5.73v5.73h-5.73Zm11.459,0h5.73v5.73h-5.73Zm11.459,0h5.73v5.73h-5.73Zm5.73,0h5.73v5.73h-5.73Zm5.73,0h5.73v5.73h-5.73Zm5.73,0H67.3v5.73h-5.73Zm5.73,0h5.73v5.73H67.3Zm22.918,0h5.73v5.73h-5.73Zm5.73,0h5.73v5.73h-5.73Zm11.459,0h5.73v5.73H107.4Zm5.73,0h5.73v5.73h-5.73Zm5.73,0h5.73v5.73h-5.73Zm5.73,0h5.73v5.73h-5.73Zm5.73,0h5.73v5.73h-5.73Zm11.459,0h5.73v5.73h-5.73Zm5.73,0h5.73v5.73h-5.73ZM10,95.944h5.73v5.73H10Zm11.459,0h5.73v5.73h-5.73Zm5.73,0h5.73v5.73h-5.73Zm5.73,0h5.73v5.73h-5.73Zm17.189,0h5.73v5.73h-5.73Zm5.73,0h5.73v5.73h-5.73Zm5.73,0H67.3v5.73h-5.73Zm11.459,0h5.73v5.73h-5.73Zm34.377,0h5.73v5.73H107.4Zm11.459,0h5.73v5.73h-5.73Zm5.73,0h5.73v5.73h-5.73Zm22.918,0h5.73v5.73h-5.73ZM10,101.673h5.73v5.73H10Zm17.189,0h5.73v5.73h-5.73Zm5.73,0h5.73v5.73h-5.73Zm11.459,0h5.73v5.73h-5.73Zm5.73,0h5.73v5.73h-5.73Zm5.73,0h5.73v5.73h-5.73Zm17.189,0h5.73v5.73h-5.73Zm5.73,0h5.73v5.73h-5.73Zm5.73,0h5.73v5.73h-5.73Zm11.459,0h5.73v5.73h-5.73Zm5.73,0h5.73v5.73h-5.73Zm5.73,0h5.73v5.73H107.4Zm5.73,0h5.73v5.73h-5.73Zm5.73,0h5.73v5.73h-5.73Zm5.73,0h5.73v5.73h-5.73Zm11.459,0h5.73v5.73h-5.73ZM55.837,107.4h5.73v5.73h-5.73Zm17.189,0h5.73v5.73h-5.73Zm5.73,0h5.73v5.73h-5.73Zm5.73,0h5.73v5.73h-5.73Zm17.189,0h5.73v5.73h-5.73Zm22.918,0h5.73v5.73h-5.73Zm5.73,0h5.73v5.73h-5.73ZM10,113.132h5.73v5.73H10Zm5.73,0h5.73v5.73H15.73Zm5.73,0h5.73v5.73h-5.73Zm5.73,0h5.73v5.73h-5.73Zm5.73,0h5.73v5.73h-5.73Zm5.73,0h5.73v5.73h-5.73Zm5.73,0h5.73v5.73h-5.73Zm11.459,0h5.73v5.73h-5.73Zm5.73,0H67.3v5.73h-5.73Zm5.73,0h5.73v5.73H67.3Zm17.189,0h5.73v5.73h-5.73Zm5.73,0h5.73v5.73h-5.73Zm11.459,0h5.73v5.73h-5.73Zm11.459,0h5.73v5.73h-5.73Zm11.459,0h5.73v5.73h-5.73Zm11.459,0h5.73v5.73h-5.73Zm5.73,0h5.73v5.73h-5.73Zm5.73,0h5.73v5.73h-5.73ZM10,118.862h5.73v5.73H10Zm34.377,0h5.73v5.73h-5.73Zm28.648,0h5.73v5.73h-5.73Zm28.648,0h5.73v5.73h-5.73Zm22.918,0h5.73v5.73h-5.73Zm5.73,0h5.73v5.73h-5.73ZM10,124.591h5.73v5.73H10Zm11.459,0h5.73v5.73h-5.73Zm5.73,0h5.73v5.73h-5.73Zm5.73,0h5.73v5.73h-5.73Zm11.459,0h5.73v5.73h-5.73Zm11.459,0h5.73v5.73h-5.73Zm11.459,0h5.73v5.73H67.3Zm11.459,0h5.73v5.73h-5.73Zm5.73,0h5.73v5.73h-5.73Zm5.73,0h5.73v5.73h-5.73Zm5.73,0h5.73v5.73h-5.73Zm5.73,0h5.73v5.73h-5.73Zm5.73,0h5.73v5.73H107.4Zm5.73,0h5.73v5.73h-5.73Zm5.73,0h5.73v5.73h-5.73Zm5.73,0h5.73v5.73h-5.73Zm11.459,0h5.73v5.73h-5.73Zm5.73,0h5.73v5.73h-5.73ZM10,130.321h5.73v5.73H10Zm11.459,0h5.73v5.73h-5.73Zm5.73,0h5.73v5.73h-5.73Zm5.73,0h5.73v5.73h-5.73Zm11.459,0h5.73v5.73h-5.73Zm11.459,0h5.73v5.73h-5.73Zm5.73,0H67.3v5.73h-5.73Zm5.73,0h5.73v5.73H67.3Zm5.73,0h5.73v5.73h-5.73Zm11.459,0h5.73v5.73h-5.73Zm11.459,0h5.73v5.73h-5.73Zm17.189,0h5.73v5.73h-5.73Zm11.459,0h5.73v5.73h-5.73Zm5.73,0h5.73v5.73h-5.73Zm5.73,0h5.73v5.73h-5.73Zm5.73,0h5.73v5.73h-5.73Zm5.73,0h5.73v5.73h-5.73ZM10,136.05h5.73v5.73H10Zm11.459,0h5.73v5.73h-5.73Zm5.73,0h5.73v5.73h-5.73Zm5.73,0h5.73v5.73h-5.73Zm11.459,0h5.73v5.73h-5.73Zm11.459,0h5.73v5.73h-5.73Zm11.459,0h5.73v5.73H67.3Zm11.459,0h5.73v5.73h-5.73Zm5.73,0h5.73v5.73h-5.73Zm5.73,0h5.73v5.73h-5.73Zm40.107,0h5.73v5.73h-5.73Zm5.73,0h5.73v5.73h-5.73Zm11.459,0h5.73v5.73h-5.73ZM10,141.78h5.73v5.73H10Zm34.377,0h5.73v5.73h-5.73Zm11.459,0h5.73v5.73h-5.73Zm11.459,0h5.73v5.73H67.3Zm5.73,0h5.73v5.73h-5.73Zm5.73,0h5.73v5.73h-5.73Zm11.459,0h5.73v5.73h-5.73Zm11.459,0h5.73v5.73h-5.73Zm5.73,0h5.73v5.73H107.4Zm11.459,0h5.73v5.73h-5.73Zm5.73,0h5.73v5.73h-5.73Zm5.73,0h5.73v5.73h-5.73Zm17.189,0h5.73v5.73h-5.73ZM10,147.51h5.73v5.73H10Zm5.73,0h5.73v5.73H15.73Zm5.73,0h5.73v5.73h-5.73Zm5.73,0h5.73v5.73h-5.73Zm5.73,0h5.73v5.73h-5.73Zm5.73,0h5.73v5.73h-5.73Zm5.73,0h5.73v5.73h-5.73Zm11.459,0h5.73v5.73h-5.73Zm5.73,0H67.3v5.73h-5.73Zm22.918,0h5.73v5.73h-5.73Zm5.73,0h5.73v5.73h-5.73Zm28.648,0h5.73v5.73h-5.73Zm5.73,0h5.73v5.73h-5.73Zm5.73,0h5.73v5.73h-5.73Zm5.73,0h5.73v5.73h-5.73Zm5.73,0h5.73v5.73h-5.73Zm5.73,0h5.73v5.73h-5.73Z" transform="translate(-10 -10)" fill="#2a3b3d"/>
    </g>
  </g>
</svg>
