<svg xmlns="http://www.w3.org/2000/svg" width="59.19" height="59.2" viewBox="0 0 59.19 59.2"><g transform="translate(-0.005)"><path d="M29.728,50.447A20.723,20.723,0,1,1,50.452,29.723,20.747,20.747,0,0,1,29.728,50.447" transform="translate(-0.119 -0.119)" fill="#87e99b"/><path d="M29.992,14.947A.987.987,0,0,1,29,13.96V11.987a.987.987,0,0,1,1.974,0V13.96a.987.987,0,0,1-.987.987" transform="translate(-0.382 -0.145)" fill="#fff"/><path d="M29.992,48.947A.987.987,0,0,1,29,47.96V45.987a.987.987,0,0,1,1.974,0V47.96a.987.987,0,0,1-.987.987" transform="translate(-0.382 -0.593)" fill="#fff"/><path d="M47.965,30.974H45.992a.987.987,0,1,1,0-1.974h1.974a.987.987,0,0,1,0,1.974" transform="translate(-0.593 -0.382)" fill="#fff"/><path d="M13.965,30.974H11.992a.987.987,0,1,1,0-1.974h1.974a.987.987,0,0,1,0,1.974" transform="translate(-0.145 -0.382)" fill="#fff"/><path d="M29.952,32.895A3.947,3.947,0,1,1,33.9,28.947a3.951,3.951,0,0,1-3.947,3.947m0-5.921a1.974,1.974,0,1,0,1.974,1.974,1.976,1.976,0,0,0-1.974-1.974" transform="translate(-0.343 -0.329)" fill="#fff"/><path d="M29.992,26.895A.987.987,0,0,1,29,25.908V19.987a.987.987,0,0,1,1.974,0v5.921a.987.987,0,0,1-.987.987" transform="translate(-0.382 -0.25)" fill="#fff"/><path d="M18.992,40.857a.987.987,0,0,1-.7-1.685l8.762-8.762a.987.987,0,0,1,1.4,1.4l-8.762,8.762a.984.984,0,0,1-.7.289" transform="translate(-0.237 -0.397)" fill="#fff"/><path d="M.992,30.592A.987.987,0,0,1,0,29.6,29.591,29.591,0,0,1,50.027,8.186a.987.987,0,1,1-1.362,1.428A27.618,27.618,0,0,0,1.979,29.6a.987.987,0,0,1-.987.987" fill="#61b873"/><path d="M50.873,9.868H41.992a.987.987,0,0,1,0-1.974H48.9V.987a.987.987,0,0,1,1.974,0Z" transform="translate(-0.54)" fill="#61b873"/><path d="M29.037,59.582a1,1,0,1,1,.02,0Zm1.993-1a.985.985,0,1,1,1.964-.158.97.97,0,0,1-.9,1.057v.009h-.079a.988.988,0,0,1-.987-.908m-5.043.79v-.01a.961.961,0,1,1,.118.01Zm7.983-1.085a.989.989,0,1,1,1.155.788.976.976,0,0,1-.178.011.992.992,0,0,1-.977-.8m-11,.553a.987.987,0,1,1,.444-1.924.984.984,0,0,1-.217,1.944.884.884,0,0,1-.227-.02m13.9-1.156a.974.974,0,0,1,.661-1.223.983.983,0,1,1-.661,1.223M20.028,58a1.006,1.006,0,1,1,.326.048A1.239,1.239,0,0,1,20.028,58M39.7,56.789a.989.989,0,1,1,1.293.533,1.058,1.058,0,0,1-.385.069.985.985,0,0,1-.908-.6m-22.509.068a.989.989,0,0,1-.474-1.312.985.985,0,1,1,.888,1.4,1.028,1.028,0,0,1-.414-.089m25.223-1.262a.982.982,0,1,1,1.332.395.9.9,0,0,1-.464.127.974.974,0,0,1-.868-.522m-27.927-.168a.986.986,0,1,1,.5.138.946.946,0,0,1-.5-.138m30.5-1.293a1,1,0,1,1,.809.423.971.971,0,0,1-.809-.423m-33.039-.4h0a.988.988,0,0,1,1.174-1.589,1,1,0,0,1,.207,1.382.977.977,0,0,1-.8.395.961.961,0,0,1-.582-.187m35.447-1.313a.986.986,0,1,1,.75.346.986.986,0,0,1-.75-.346m-37.805-.64h0a.988.988,0,0,1,1.332-1.46v.009a.985.985,0,0,1,.059,1.392,1.014,1.014,0,0,1-.73.316,1,1,0,0,1-.661-.257m40.026-1.322A.984.984,0,1,1,51,50.424a.978.978,0,0,1-1.391.03M7.446,49.584a.983.983,0,1,1,.74.337.948.948,0,0,1-.74-.337m44.17-1.3a.991.991,0,1,1,.612.207,1.017,1.017,0,0,1-.612-.207M5.531,47.2a.99.99,0,1,1,1.382.228.966.966,0,0,1-.572.187,1,1,0,0,1-.809-.414m47.861-1.282a.989.989,0,1,1,1.362-.317.976.976,0,0,1-.839.465,1.026,1.026,0,0,1-.523-.148M3.883,44.621a.983.983,0,0,1,1.707-.977H5.6a.987.987,0,0,1-.375,1.342.96.96,0,0,1-.484.128.984.984,0,0,1-.859-.493m51.029-1.244a.991.991,0,1,1,.434.1.952.952,0,0,1-.434-.1M2.5,41.888a.987.987,0,1,1,1.3.5.941.941,0,0,1-.395.09,1,1,0,0,1-.908-.592m53.663-1.194a.985.985,0,1,1,.336.059,1,1,0,0,1-.336-.059M1.416,39.026a.987.987,0,0,1,.641-1.244.976.976,0,0,1,1.234.642.992.992,0,0,1-.632,1.243,1.086,1.086,0,0,1-.306.039.992.992,0,0,1-.937-.681M57.132,37.9a.992.992,0,1,1,.484-1.924.994.994,0,0,1-.247,1.955,1.026,1.026,0,0,1-.237-.031M.637,36.066a.983.983,0,1,1,1.924-.4.975.975,0,0,1-.76,1.164.739.739,0,0,1-.207.02.971.971,0,0,1-.957-.78M57.8,35.01a.982.982,0,0,1-.839-1.115.987.987,0,1,1,.977,1.125.7.7,0,0,1-.138-.01M.163,33.036a.977.977,0,0,1,.878-1.076.987.987,0,0,1,.207,1.964H1.14a.984.984,0,0,1-.977-.888m58.005-.957a1.008,1.008,0,1,1,.039,0ZM0,29.987a.987.987,0,1,1,.987.987A.99.99,0,0,1,0,29.987" transform="translate(0 -0.382)" fill="#61b873"/></g></svg>