<svg xmlns="http://www.w3.org/2000/svg" xmlns:xlink="http://www.w3.org/1999/xlink" width="98" height="34" viewBox="0 0 98 34">
  <defs>
    <radialGradient id="radial-gradient" cx="0.312" cy="0.375" r="1.899" gradientTransform="matrix(0.347, 0.02, -0.003, 0.488, 0.205, 0.185)" gradientUnits="objectBoundingBox">
      <stop offset="0" stop-color="#dbdbdb"/>
      <stop offset="0.351" stop-color="#dbdbdb"/>
      <stop offset="1" stop-color="#b1bbc1"/>
    </radialGradient>
  </defs>
  <g id="Button_small" transform="translate(0.428)">
    <g id="Rectangle_1738" data-name="Rectangle 1738" transform="translate(-0.428)" stroke="#8b98a0" stroke-width="1" fill="url(#radial-gradient)">
      <rect width="98" height="34" rx="17" stroke="none"/>
      <rect x="0.5" y="0.5" width="97" height="33" rx="16.5" fill="none"/>
    </g>
    <path id="Path_6793" data-name="Path 6793" d="M1155.9,472.3c5.629-4.844,18.062-12,24.341-8.588-.02-.1,7.268-10.158,7.2-10.549,0-.044-4.62.032-27.492-.054-8.564,0-15.622,7.676-15.622,16.24a15.437,15.437,0,0,0,1.153,5.865C1147.943,475.834,1151.774,475.851,1155.9,472.3Z" transform="translate(-1143.416 -452.163)" fill="#dbdbdb"/>
    <path id="Path_6794" data-name="Path 6794" d="M1087.558,465.528c54.715-4.981,74.126-5.207,78.406,4.855.341-10.432-7.5-17.241-16.092-17.172-7.374,0-64.471-.47-68.5,5.44C1081.368,460.726,1081.445,469.513,1087.558,465.528Z" transform="translate(-1069.416 -452.163)" fill="#dbdbdb"/>
  </g>
</svg>
