<svg xmlns="http://www.w3.org/2000/svg" xmlns:xlink="http://www.w3.org/1999/xlink" width="88" height="88" viewBox="0 0 88 88"><defs><radialGradient id="a" cx="0.499" cy="0.858" r="0.516" gradientUnits="objectBoundingBox"><stop offset="0" stop-color="#e7ecef"/><stop offset="1" stop-color="#bfc8cd"/></radialGradient><linearGradient id="b" x1="0.402" y1="0.209" x2="0.713" y2="1.399" gradientUnits="objectBoundingBox"><stop offset="0" stop-color="#fff"/><stop offset="1" stop-color="#b7c6ce"/></linearGradient><linearGradient id="c" x1="0.362" y1="-0.019" x2="0.555" y2="0.973" gradientUnits="objectBoundingBox"><stop offset="0" stop-color="#fffbd4"/><stop offset="1"/></linearGradient><linearGradient id="d" x1="0.31" y1="-0.122" x2="0.718" y2="1.061" gradientUnits="objectBoundingBox"><stop offset="0" stop-color="#fff"/><stop offset="1"/></linearGradient><linearGradient id="e" x1="184.661" y1="1" x2="184.661" y2="-0.003" xlink:href="#b"/></defs><g transform="translate(2025.409 -3496.145)"><g transform="translate(-2025.409 3496.145)" stroke="#8b98a0" stroke-width="1" fill="url(#a)"><circle cx="44" cy="44" r="44" stroke="none"/><circle cx="44" cy="44" r="43.5" fill="none"/></g><path d="M-1951.986,3509.347a42.476,42.476,0,0,1,11.824,29.423,42.67,42.67,0,0,1-42.622,42.625,42.464,42.464,0,0,1-29.423-11.827,42.5,42.5,0,0,0,30.8,13.2,42.671,42.671,0,0,0,42.625-42.625A42.508,42.508,0,0,0-1951.986,3509.347Z" opacity="0.8" fill="url(#b)" style="mix-blend-mode:multiply;isolation:isolate"/><g style="mix-blend-mode:screen;isolation:isolate"><path d="M-1991.923,3547.987c14.953-12.869,34.3-24.882,50.982-15.823a41.32,41.32,0,0,0-40.468-33.272,41.3,41.3,0,0,0-41.25,41.256,40.989,40.989,0,0,0,3.064,15.579C-2013.053,3557.373-2002.878,3557.419-1991.923,3547.987Z" fill="url(#c)"/></g><path d="M-2019.906,3542.9a41.3,41.3,0,0,1,41.249-41.256,41.093,41.093,0,0,1,27.745,10.753,41.154,41.154,0,0,0-30.5-13.506,41.3,41.3,0,0,0-41.25,41.256,41.157,41.157,0,0,0,13.505,30.5A41.1,41.1,0,0,1-2019.906,3542.9Z" fill="url(#d)" style="mix-blend-mode:screen;isolation:isolate"/><path d="M-1958.034,3541.521l-22-22v11h-22v22h22v11Z" opacity="0.8" fill="url(#e)" style="mix-blend-mode:multiply;isolation:isolate"/><path d="M-1956.939,3540.145l-22-22v11h-22v22h22v11Z"/></g></svg>