<svg xmlns="http://www.w3.org/2000/svg" xmlns:xlink="http://www.w3.org/1999/xlink" width="88" height="88" viewBox="0 0 88 88"><defs><radialGradient id="a" cx="0.499" cy="0.858" r="0.516" gradientUnits="objectBoundingBox"><stop offset="0" stop-color="#e7ecef"/><stop offset="1" stop-color="#bfc8cd"/></radialGradient><linearGradient id="b" x1="0.402" y1="0.209" x2="0.713" y2="1.399" gradientUnits="objectBoundingBox"><stop offset="0" stop-color="#fff"/><stop offset="1" stop-color="#b7c6ce"/></linearGradient><linearGradient id="c" x1="0.362" y1="-0.019" x2="0.555" y2="0.973" gradientUnits="objectBoundingBox"><stop offset="0" stop-color="#fffbd4"/><stop offset="1"/></linearGradient><linearGradient id="d" x1="0.31" y1="-0.122" x2="0.718" y2="1.061" gradientUnits="objectBoundingBox"><stop offset="0" stop-color="#fff"/><stop offset="1"/></linearGradient><linearGradient id="e" x1="0" y1="0.5" x2="1" y2="0.5" xlink:href="#b"/></defs><g transform="translate(1386.888 -3496.145)"><g transform="translate(-1386.888 3496.145)" stroke="#8b98a0" stroke-width="1" fill="url(#a)"><circle cx="44" cy="44" r="44" stroke="none"/><circle cx="44" cy="44" r="43.5" fill="none"/></g><path d="M-1313.465,3509.347a42.476,42.476,0,0,1,11.824,29.423,42.67,42.67,0,0,1-42.622,42.625,42.466,42.466,0,0,1-29.423-11.827,42.5,42.5,0,0,0,30.8,13.2,42.671,42.671,0,0,0,42.625-42.625A42.5,42.5,0,0,0-1313.465,3509.347Z" opacity="0.8" fill="url(#b)" style="mix-blend-mode:multiply;isolation:isolate"/><g style="mix-blend-mode:screen;isolation:isolate"><path d="M-1353.4,3547.987c14.953-12.869,34.3-24.882,50.983-15.823a41.321,41.321,0,0,0-40.469-33.272,41.3,41.3,0,0,0-41.25,41.256,40.989,40.989,0,0,0,3.064,15.579C-1374.532,3557.373-1364.356,3557.419-1353.4,3547.987Z" fill="url(#c)"/></g><path d="M-1381.385,3542.9a41.3,41.3,0,0,1,41.25-41.256,41.09,41.09,0,0,1,27.744,10.753,41.154,41.154,0,0,0-30.5-13.506,41.3,41.3,0,0,0-41.25,41.256,41.157,41.157,0,0,0,13.506,30.5A41.1,41.1,0,0,1-1381.385,3542.9Z" fill="url(#d)" style="mix-blend-mode:screen;isolation:isolate"/><g opacity="0.8" style="mix-blend-mode:multiply;isolation:isolate"><path d="M-1342.212,3553.66l-.163-1.911c-.49-3.97.979-8.306,5.059-12.718,3.671-3.9,5.711-6.764,5.711-10.072,0-3.749-2.611-6.249-7.751-6.322a15.64,15.64,0,0,0-8.241,2.279l-1.958-4.631c2.692-1.765,7.343-2.942,11.668-2.942,9.382,0,13.625,5.22,13.625,10.808,0,5-3.1,8.6-7.016,12.792-3.591,3.823-4.9,7.057-4.651,10.806l.082,1.911Zm-1.795,10.294a4.582,4.582,0,0,1,4.9-4.633,4.514,4.514,0,0,1,4.813,4.633c0,2.572-1.876,4.557-4.9,4.557A4.538,4.538,0,0,1-1344.007,3563.954Z" fill="url(#e)"/></g><path d="M-1346.3,3553.14l-.163-1.911c-.49-3.97.979-8.307,5.058-12.718,3.672-3.9,5.712-6.764,5.712-10.072,0-3.749-2.611-6.249-7.751-6.322a15.646,15.646,0,0,0-8.241,2.278l-1.958-4.63c2.692-1.765,7.343-2.942,11.667-2.942,9.383,0,13.626,5.22,13.626,10.808,0,5-3.1,8.6-7.017,12.792-3.59,3.823-4.9,7.057-4.65,10.806l.081,1.911Zm-1.795,10.293a4.582,4.582,0,0,1,4.9-4.632,4.514,4.514,0,0,1,4.813,4.632c0,2.573-1.876,4.558-4.9,4.558A4.538,4.538,0,0,1-1348.095,3563.433Z"/></g></svg>