<svg xmlns="http://www.w3.org/2000/svg" xmlns:xlink="http://www.w3.org/1999/xlink" width="88" height="87.997" viewBox="0 0 88 87.997"><defs><radialGradient id="a" cx="0.499" cy="0.858" r="0.517" gradientTransform="translate(0)" gradientUnits="objectBoundingBox"><stop offset="0" stop-color="#e7ecef"/><stop offset="1" stop-color="#bfc8cd"/></radialGradient><linearGradient id="b" x1="0.402" y1="0.209" x2="0.713" y2="1.399" gradientUnits="objectBoundingBox"><stop offset="0" stop-color="#fff"/><stop offset="1" stop-color="#b7c6ce"/></linearGradient><linearGradient id="c" x1="0.31" y1="-0.122" x2="0.718" y2="1.061" gradientUnits="objectBoundingBox"><stop offset="0" stop-color="#fff"/><stop offset="1"/></linearGradient></defs><g transform="translate(-16.27 -546.518)"><g transform="translate(16.27 546.518)"><g transform="translate(0)"><g stroke="#8b98a0" stroke-width="1" fill="url(#a)"><ellipse cx="44" cy="43.998" rx="44" ry="43.998" stroke="none"/><ellipse cx="44" cy="43.998" rx="43.5" ry="43.498" fill="none"/></g><path d="M1313.737,458.975a42.462,42.462,0,0,1-60.037,60.034,42.464,42.464,0,1,0,60.037-60.034Z" transform="translate(-1240.269 -445.544)" opacity="0.8" fill="url(#b)"/><g transform="translate(2.742 2.738)"><path d="M1275.236,498.706c14.957-12.828,34.314-24.8,50.994-15.774a41.27,41.27,0,0,0-81.737,7.96,40.762,40.762,0,0,0,3.065,15.531C1254.1,508.064,1264.279,508.109,1275.236,498.706Z" transform="translate(-1244.493 -449.764)" fill="#dbdbdb"/><path d="M-2019.906,3542.9a41.3,41.3,0,0,1,41.249-41.256,41.093,41.093,0,0,1,27.745,10.753,41.154,41.154,0,0,0-30.5-13.506,41.3,41.3,0,0,0-41.25,41.256,41.157,41.157,0,0,0,13.505,30.5A41.1,41.1,0,0,1-2019.906,3542.9Z" transform="translate(2022.397 -3499.4)" fill="url(#c)" style="mix-blend-mode:screen;isolation:isolate"/><g transform="translate(16.545 14.597)"><g transform="translate(1.546)" opacity="0.8"><path d="M1178.179,507.8l6.76-2.179c2.125-.831,4.144-1.121,5.132-3.8a28.429,28.429,0,0,1,2.261-4.823,19.884,19.884,0,0,0,1.38-2.643,12.66,12.66,0,0,0-9.959-17.456,11.989,11.989,0,0,0-13.464,12.3s.846,9.578,5.354,10.988" transform="translate(-1158.089 -465.176)" fill="none" stroke="#707070" stroke-miterlimit="10" stroke-width="4"/><line y1="3.099" x2="10.707" transform="translate(20.935 44.599)" fill="none" stroke="#707070" stroke-miterlimit="10" stroke-width="4"/><path d="M1178.827,512.846s3.694,2.765,6.839-.447" transform="translate(-1156.946 -460.415)" fill="none" stroke="#707070" stroke-miterlimit="10" stroke-width="4"/><line x1="4.226" y2="3.099" transform="translate(7.27 37.978)" fill="none" stroke="#707070" stroke-miterlimit="10" stroke-width="4"/><line x1="3.253" y2="4.109" transform="translate(39.595 6.482)" fill="none" stroke="#707070" stroke-miterlimit="10" stroke-width="4"/><line x2="0.136" y2="5.239" transform="translate(25.094)" fill="none" stroke="#707070" stroke-miterlimit="10" stroke-width="4"/><line x2="3.677" y2="3.734" transform="translate(6.981 6.387)" fill="none" stroke="#707070" stroke-miterlimit="10" stroke-width="4"/><line x2="5.241" y2="0.007" transform="translate(0 24.31)" fill="none" stroke="#707070" stroke-miterlimit="10" stroke-width="4"/><line x2="5.241" y2="0.007" transform="translate(44.237 24.31)" fill="none" stroke="#707070" stroke-miterlimit="10" stroke-width="4"/><line x2="3.657" y2="3.755" transform="translate(39.394 38.214)" fill="none" stroke="#707070" stroke-miterlimit="10" stroke-width="4"/></g><path d="M1176.816,507.8l6.759-2.179c2.125-.831,4.144-1.121,5.132-3.8a28.579,28.579,0,0,1,2.261-4.823,19.785,19.785,0,0,0,1.38-2.643,12.659,12.659,0,0,0-9.959-17.456,11.988,11.988,0,0,0-13.463,12.3s.845,9.578,5.353,10.988" transform="translate(-1156.725 -465.176)" fill="none" stroke="#000" stroke-linecap="round" stroke-miterlimit="10" stroke-width="4"/><line y1="3.099" x2="10.707" transform="translate(20.935 44.599)" fill="none" stroke="#000" stroke-linecap="round" stroke-miterlimit="10" stroke-width="4"/><path d="M1177.464,512.846s3.694,2.765,6.837-.447" transform="translate(-1155.582 -460.415)" fill="none" stroke="#000" stroke-linecap="round" stroke-miterlimit="10" stroke-width="4"/><line x1="4.226" y2="3.099" transform="translate(7.27 37.978)" fill="none" stroke="#000" stroke-linecap="round" stroke-miterlimit="10" stroke-width="4"/><line x1="3.253" y2="4.109" transform="translate(39.595 6.482)" fill="none" stroke="#000" stroke-linecap="round" stroke-miterlimit="10" stroke-width="4"/><line x2="0.136" y2="5.239" transform="translate(25.094)" fill="none" stroke="#000" stroke-linecap="round" stroke-miterlimit="10" stroke-width="4"/><line x2="3.677" y2="3.734" transform="translate(6.981 6.387)" fill="none" stroke="#000" stroke-linecap="round" stroke-miterlimit="10" stroke-width="4"/><line x2="5.241" y2="0.007" transform="translate(0 24.31)" fill="none" stroke="#000" stroke-linecap="round" stroke-miterlimit="10" stroke-width="4"/><line x2="5.241" y2="0.007" transform="translate(44.237 24.31)" fill="none" stroke="#000" stroke-linecap="round" stroke-miterlimit="10" stroke-width="4"/><line x2="3.657" y2="3.755" transform="translate(39.394 38.214)" fill="none" stroke="#000" stroke-linecap="round" stroke-miterlimit="10" stroke-width="4"/></g></g></g></g></g></svg>