<svg xmlns="http://www.w3.org/2000/svg" xmlns:xlink="http://www.w3.org/1999/xlink" width="88" height="88" viewBox="0 0 88 88"><defs><radialGradient id="a" cx="0.499" cy="0.858" r="0.516" gradientTransform="translate(0.001 -0.001)" gradientUnits="objectBoundingBox"><stop offset="0" stop-color="#e7ecef"/><stop offset="1" stop-color="#bfc8cd"/></radialGradient><linearGradient id="b" x1="0.402" y1="0.209" x2="0.713" y2="1.399" gradientUnits="objectBoundingBox"><stop offset="0" stop-color="#fff"/><stop offset="1" stop-color="#b7c6ce"/></linearGradient><linearGradient id="c" x1="0.362" y1="-0.019" x2="0.555" y2="0.973" gradientUnits="objectBoundingBox"><stop offset="0" stop-color="#fffbd4"/><stop offset="1"/></linearGradient><linearGradient id="d" x1="0.31" y1="-0.122" x2="0.718" y2="1.061" gradientUnits="objectBoundingBox"><stop offset="0" stop-color="#fff"/><stop offset="1"/></linearGradient></defs><g transform="translate(907.997 -3496.145)"><path d="M-864,3583.458a43.361,43.361,0,0,1-43.312-43.313A43.361,43.361,0,0,1-864,3496.832a43.362,43.362,0,0,1,43.313,43.313A43.362,43.362,0,0,1-864,3583.458Z" fill="url(#a)"/><path d="M-864,3497.52a42.674,42.674,0,0,1,42.625,42.625A42.673,42.673,0,0,1-864,3582.77a42.673,42.673,0,0,1-42.625-42.625A42.674,42.674,0,0,1-864,3497.52m0-1.375a44,44,0,0,0-44,44,44,44,0,0,0,44,44,44,44,0,0,0,44-44,44,44,0,0,0-44-44Z" fill="#8b98a0"/><g opacity="0.8" style="mix-blend-mode:multiply;isolation:isolate"><path d="M-834.574,3509.347a42.474,42.474,0,0,1,11.824,29.423,42.67,42.67,0,0,1-42.622,42.625,42.466,42.466,0,0,1-29.423-11.827,42.492,42.492,0,0,0,30.8,13.2,42.671,42.671,0,0,0,42.625-42.625A42.5,42.5,0,0,0-834.574,3509.347Z" fill="url(#b)"/></g><g style="mix-blend-mode:screen;isolation:isolate"><path d="M-874.511,3547.987c14.953-12.87,34.3-24.882,50.982-15.824A41.32,41.32,0,0,0-864,3498.892a41.3,41.3,0,0,0-41.25,41.255,40.986,40.986,0,0,0,3.064,15.579C-895.641,3557.373-885.465,3557.418-874.511,3547.987Z" fill="url(#c)"/></g><g style="mix-blend-mode:screen;isolation:isolate"><path d="M-902.494,3542.9a41.3,41.3,0,0,1,41.25-41.255A41.085,41.085,0,0,1-833.5,3512.4a41.154,41.154,0,0,0-30.5-13.506,41.3,41.3,0,0,0-41.25,41.255,41.16,41.16,0,0,0,13.506,30.5A41.1,41.1,0,0,1-902.494,3542.9Z" fill="url(#d)"/></g><path d="M-834.434,3535.629l-10.723-8.165v-13.507h-7.66v7.673l-11.18-8.513-29.562,22.51,4.648,6.075,3.184-2.425v27.9h43.461v-27.9l3.183,2.424Zm-12.088,27.3h-9.814V3546.8h-15.321v16.132h-9.814v-26.352l17.475-13.31,17.474,13.31Z"/></g></svg>