<svg xmlns="http://www.w3.org/2000/svg" xmlns:xlink="http://www.w3.org/1999/xlink" width="88" height="88" viewBox="0 0 88 88"><defs><radialGradient id="a" cx="0.499" cy="0.858" r="0.516" gradientUnits="objectBoundingBox"><stop offset="0" stop-color="#e7ecef"/><stop offset="1" stop-color="#bfc8cd"/></radialGradient><linearGradient id="b" x1="0.402" y1="0.209" x2="0.713" y2="1.399" gradientUnits="objectBoundingBox"><stop offset="0" stop-color="#fff"/><stop offset="1" stop-color="#b7c6ce"/></linearGradient><linearGradient id="c" x1="0.362" y1="-0.019" x2="0.555" y2="0.973" gradientUnits="objectBoundingBox"><stop offset="0" stop-color="#fffbd4"/><stop offset="1"/></linearGradient><linearGradient id="d" x1="0.31" y1="-0.122" x2="0.718" y2="1.061" gradientUnits="objectBoundingBox"><stop offset="0" stop-color="#fff"/><stop offset="1"/></linearGradient><linearGradient id="e" x1="0.5" y1="1.289" x2="0.5" y2="-0.073" xlink:href="#b"/><linearGradient id="f" x1="0.5" y1="12.089" x2="0.5" y2="-8.171" xlink:href="#b"/></defs><g transform="translate(1865.779 -3496.145)"><g transform="translate(-1865.779 3496.145)" stroke="#8b98a0" stroke-width="1" fill="url(#a)"><circle cx="44" cy="44" r="44" stroke="none"/><circle cx="44" cy="44" r="43.5" fill="none"/></g><path d="M-1792.356,3509.347a42.465,42.465,0,0,1,11.827,29.423,42.673,42.673,0,0,1-42.625,42.625,42.466,42.466,0,0,1-29.423-11.827,42.5,42.5,0,0,0,30.8,13.2,42.668,42.668,0,0,0,42.622-42.625A42.5,42.5,0,0,0-1792.356,3509.347Z" opacity="0.8" fill="url(#b)" style="mix-blend-mode:multiply;isolation:isolate"/><g style="mix-blend-mode:screen;isolation:isolate"><path d="M-1832.29,3547.987c14.95-12.869,34.3-24.882,50.982-15.823a41.321,41.321,0,0,0-40.471-33.272,41.3,41.3,0,0,0-41.25,41.256,41.047,41.047,0,0,0,3.064,15.579C-1853.42,3557.373-1843.247,3557.419-1832.29,3547.987Z" fill="url(#c)"/></g><path d="M-1860.276,3542.9a41.3,41.3,0,0,1,41.25-41.256,41.09,41.09,0,0,1,27.744,10.753,41.145,41.145,0,0,0-30.5-13.506,41.3,41.3,0,0,0-41.25,41.256,41.157,41.157,0,0,0,13.506,30.5A41.1,41.1,0,0,1-1860.276,3542.9Z" fill="url(#d)" style="mix-blend-mode:screen;isolation:isolate"/><g opacity="0.8" style="mix-blend-mode:multiply;isolation:isolate"><path d="M-1844.262,3533.761v16.5h10.761l-.155-.2,12.769-13.429v-12.874l-12.614,10.006Zm23.375,26.192v-12.1l-6.792,6.792Z" opacity="0.8" fill="url(#e)" style="mix-blend-mode:multiply;isolation:isolate"/><rect width="60.594" height="2.434" transform="translate(-1842.504 3562.753) rotate(-44.954)" opacity="0.8" fill="url(#f)" style="mix-blend-mode:multiply;isolation:isolate"/></g><path d="M-1840.137,3532.386v16.5h10.761l-.156-.2,12.77-13.43v-12.875l-12.614,10.008Zm23.375,26.191v-12.1l-6.792,6.792Z"/><rect width="60.593" height="2.435" transform="matrix(0.707, -0.707, 0.707, 0.707, -1838.364, 3561.393)"/></g></svg>