<svg xmlns="http://www.w3.org/2000/svg" xmlns:xlink="http://www.w3.org/1999/xlink" width="88" height="88" viewBox="0 0 88 88"><defs><radialGradient id="a" cx="0.499" cy="0.858" r="0.516" gradientTransform="translate(0.001 -0.001)" gradientUnits="objectBoundingBox"><stop offset="0" stop-color="#e7ecef"/><stop offset="1" stop-color="#bfc8cd"/></radialGradient><linearGradient id="b" x1="0.402" y1="0.209" x2="0.713" y2="1.399" gradientUnits="objectBoundingBox"><stop offset="0" stop-color="#fff"/><stop offset="1" stop-color="#b7c6ce"/></linearGradient><linearGradient id="c" x1="0.362" y1="-0.019" x2="0.555" y2="0.973" gradientUnits="objectBoundingBox"><stop offset="0" stop-color="#fffbd4"/><stop offset="1"/></linearGradient><linearGradient id="d" x1="0.31" y1="-0.122" x2="0.718" y2="1.061" gradientUnits="objectBoundingBox"><stop offset="0" stop-color="#fff"/><stop offset="1"/></linearGradient><linearGradient id="e" x1="0.5" y1="0.997" x2="0.5" y2="-0.007" xlink:href="#b"/></defs><g transform="translate(1227.258 -3496.145)"><path d="M-1183.258,3583.458a43.362,43.362,0,0,1-43.312-43.313,43.362,43.362,0,0,1,43.312-43.313,43.362,43.362,0,0,1,43.313,43.313A43.362,43.362,0,0,1-1183.258,3583.458Z" fill="url(#a)"/><path d="M-1183.258,3497.52a42.673,42.673,0,0,1,42.625,42.625,42.673,42.673,0,0,1-42.625,42.625,42.673,42.673,0,0,1-42.625-42.625,42.674,42.674,0,0,1,42.625-42.625m0-1.375a44,44,0,0,0-44,44,44,44,0,0,0,44,44,44,44,0,0,0,44-44,44,44,0,0,0-44-44Z" fill="#8b98a0"/><g opacity="0.8" style="mix-blend-mode:multiply;isolation:isolate"><path d="M-1153.835,3509.347a42.471,42.471,0,0,1,11.825,29.423,42.671,42.671,0,0,1-42.623,42.625,42.463,42.463,0,0,1-29.422-11.827,42.488,42.488,0,0,0,30.8,13.2,42.671,42.671,0,0,0,42.625-42.625A42.5,42.5,0,0,0-1153.835,3509.347Z" fill="url(#b)"/></g><g style="mix-blend-mode:screen;isolation:isolate"><path d="M-1193.772,3547.987c14.954-12.87,34.306-24.882,50.983-15.824a41.321,41.321,0,0,0-40.469-33.271,41.3,41.3,0,0,0-41.25,41.255,40.967,40.967,0,0,0,3.065,15.579C-1214.9,3557.373-1204.726,3557.418-1193.772,3547.987Z" fill="url(#c)"/></g><g style="mix-blend-mode:screen;isolation:isolate"><path d="M-1221.755,3542.9a41.3,41.3,0,0,1,41.25-41.255,41.085,41.085,0,0,1,27.744,10.753,41.153,41.153,0,0,0-30.5-13.506,41.3,41.3,0,0,0-41.25,41.255,41.159,41.159,0,0,0,13.506,30.5A41.1,41.1,0,0,1-1221.755,3542.9Z" fill="url(#d)"/></g><path d="M-1192.883,3560.771l34.1-19.249-34.1-19.25Z" opacity="0.8" fill="url(#e)" style="mix-blend-mode:multiply;isolation:isolate"/><path d="M-1194.258,3559.394l34.1-19.249-34.1-19.25Z"/></g></svg>