<svg xmlns="http://www.w3.org/2000/svg" xmlns:xlink="http://www.w3.org/1999/xlink" width="88" height="88" viewBox="0 0 88 88"><defs><radialGradient id="a" cx="0.499" cy="0.858" r="0.516" gradientTransform="translate(0.001 -0.001)" gradientUnits="objectBoundingBox"><stop offset="0" stop-color="#e7ecef"/><stop offset="1" stop-color="#bfc8cd"/></radialGradient><linearGradient id="b" x1="0.402" y1="0.209" x2="0.713" y2="1.399" gradientUnits="objectBoundingBox"><stop offset="0" stop-color="#fff"/><stop offset="1" stop-color="#b7c6ce"/></linearGradient><linearGradient id="c" x1="0.362" y1="-0.019" x2="0.555" y2="0.973" gradientUnits="objectBoundingBox"><stop offset="0" stop-color="#fffbd4"/><stop offset="1"/></linearGradient><linearGradient id="d" x1="0.31" y1="-0.122" x2="0.718" y2="1.061" gradientUnits="objectBoundingBox"><stop offset="0" stop-color="#fff"/><stop offset="1"/></linearGradient></defs><g transform="translate(1546.518 -3496.145)"><path d="M-1502.518,3583.458a43.362,43.362,0,0,1-43.313-43.313,43.362,43.362,0,0,1,43.313-43.313,43.362,43.362,0,0,1,43.312,43.313A43.362,43.362,0,0,1-1502.518,3583.458Z" fill="url(#a)"/><path d="M-1502.518,3497.52a42.674,42.674,0,0,1,42.625,42.625,42.673,42.673,0,0,1-42.625,42.625,42.673,42.673,0,0,1-42.625-42.625,42.673,42.673,0,0,1,42.625-42.625m0-1.375a44,44,0,0,0-44,44,44,44,0,0,0,44,44,44,44,0,0,0,44-44,44,44,0,0,0-44-44Z" fill="#8b98a0"/><g opacity="0.8" style="mix-blend-mode:multiply;isolation:isolate"><path d="M-1473.095,3509.347a42.475,42.475,0,0,1,11.824,29.423,42.67,42.67,0,0,1-42.622,42.625,42.464,42.464,0,0,1-29.423-11.827,42.49,42.49,0,0,0,30.8,13.2,42.672,42.672,0,0,0,42.625-42.625A42.508,42.508,0,0,0-1473.095,3509.347Z" fill="url(#b)"/></g><g style="mix-blend-mode:screen;isolation:isolate"><path d="M-1513.032,3547.987c14.953-12.87,34.3-24.882,50.982-15.824a41.32,41.32,0,0,0-40.468-33.271,41.3,41.3,0,0,0-41.25,41.255,40.985,40.985,0,0,0,3.064,15.579C-1534.162,3557.373-1523.987,3557.418-1513.032,3547.987Z" fill="url(#c)"/></g><g style="mix-blend-mode:screen;isolation:isolate"><path d="M-1541.016,3542.9a41.3,41.3,0,0,1,41.25-41.255,41.088,41.088,0,0,1,27.745,10.753,41.154,41.154,0,0,0-30.5-13.506,41.3,41.3,0,0,0-41.25,41.255,41.158,41.158,0,0,0,13.505,30.5A41.1,41.1,0,0,1-1541.016,3542.9Z" fill="url(#d)"/></g><path d="M-1501.067,3515.4a24.763,24.763,0,0,0-14.309,4.583l-6.456-4.557-1.659,20.263,18.005-8.726-4.793-3.383a16.207,16.207,0,0,1,9.136-2.68c11.743,0,19.25,7.507,19.25,19.25s-7.507,19.25-19.25,19.25c-9.724,0-14.079-4.333-16.5-13.75h-6.875c2.813,10.945,12.15,19.25,23.451,19.25a24.778,24.778,0,0,0,24.75-24.75A24.779,24.779,0,0,0-1501.067,3515.4Z"/></g></svg>