<svg xmlns="http://www.w3.org/2000/svg" xmlns:xlink="http://www.w3.org/1999/xlink" width="88" height="87.997" viewBox="0 0 88 87.997"><defs><radialGradient id="a" cx="0.499" cy="0.858" r="0.517" gradientTransform="translate(0)" gradientUnits="objectBoundingBox"><stop offset="0" stop-color="#e7ecef"/><stop offset="1" stop-color="#bfc8cd"/></radialGradient><linearGradient id="b" x1="0.402" y1="0.209" x2="0.713" y2="1.399" gradientUnits="objectBoundingBox"><stop offset="0" stop-color="#fff"/><stop offset="1" stop-color="#b7c6ce"/></linearGradient><linearGradient id="c" x1="0.31" y1="-0.122" x2="0.718" y2="1.061" gradientUnits="objectBoundingBox"><stop offset="0" stop-color="#fff"/><stop offset="1"/></linearGradient></defs><g transform="translate(-16.27 -546.518)"><g transform="translate(16.27 546.518)"><g transform="translate(0)"><g stroke="#8b98a0" stroke-width="1" fill="url(#a)"><ellipse cx="44" cy="43.998" rx="44" ry="43.998" stroke="none"/><ellipse cx="44" cy="43.998" rx="43.5" ry="43.498" fill="none"/></g><path d="M1313.737,458.975a42.462,42.462,0,0,1-60.037,60.034,42.464,42.464,0,1,0,60.037-60.034Z" transform="translate(-1240.269 -445.544)" opacity="0.8" fill="url(#b)"/><g transform="translate(2.742 2.738)"><path d="M1275.236,498.706c14.957-12.828,34.314-24.8,50.994-15.774a41.27,41.27,0,0,0-81.737,7.96,40.762,40.762,0,0,0,3.065,15.531C1254.1,508.064,1264.279,508.109,1275.236,498.706Z" transform="translate(-1244.493 -449.764)" fill="#dbdbdb"/><path d="M-2019.906,3542.9a41.3,41.3,0,0,1,41.249-41.256,41.093,41.093,0,0,1,27.745,10.753,41.154,41.154,0,0,0-30.5-13.506,41.3,41.3,0,0,0-41.25,41.256,41.157,41.157,0,0,0,13.505,30.5A41.1,41.1,0,0,1-2019.906,3542.9Z" transform="translate(2022.397 -3499.4)" fill="url(#c)" style="mix-blend-mode:screen;isolation:isolate"/></g></g></g><g transform="translate(41.395 567.357)"><path d="M57.2,18.326A20.3,20.3,0,0,0,48.318,3.538,20.913,20.913,0,0,0,39.352.2C30.574-.959,21.33,2.95,18.018,11.694c-2.847,7.516-.04,14.978,5.058,20.669,1.84,2.054,2.095,5.915,2.095,8.516v5.275a1.456,1.456,0,0,0,1.446,1.466H45.439a1.456,1.456,0,0,0,1.443-1.37c.069-1.038.183-1.95.183-1.95.394-1.712,1.833-3.084,4.893-2.586,3.211.522,5.236-.448,5.416-2.616.059-.715.1-6.824.1-6.824.153-.089,1.16-.292,2.627-.63a1.509,1.509,0,0,0,.711-2.534c-3.335-3.346-3.783-4.906-3.866-5.241C56.531,22.2,57.352,20.079,57.2,18.326Zm-6.217-2a1.729,1.729,0,0,1-1.27.727.144.144,0,0,0-.131.184c.143.512.289,1.923-2.2,2.472-2.336.515-3.748,2.357-4.67,3.292a5.179,5.179,0,0,1-2.623,1.268,5.6,5.6,0,0,0-2.715,1.122c-.812.741-1.956,4.823-2.151,5.533a.142.142,0,0,1-.137.105h-1.2a.143.143,0,0,1-.139-.115l-.581-2.786c-.024-.117-5.655.353-6.088-2.2a.143.143,0,0,0-.188-.114c-.541.2-2.278.686-3.216-.788a2.954,2.954,0,0,1-.4-2.356.144.144,0,0,0-.081-.171c-.478-.208-2.2-1.19-1.97-4.418.189-2.6,1.925-3.756,1.682-4.156a2.5,2.5,0,0,1,1.343-3.5.149.149,0,0,0,.1-.13l.061-.678c.2-2.392,3.3-3.908,5.406-2.914a.148.148,0,0,0,.2-.089,1.793,1.793,0,0,1,.938-1.162,2.539,2.539,0,0,1,2.177-.046.14.14,0,0,0,.157-.035,3.2,3.2,0,0,1,2.282-.87,3.272,3.272,0,0,1,2.254.843.141.141,0,0,0,.151.015,3.344,3.344,0,0,1,2.5-.27,2.841,2.841,0,0,1,1.45,1.335.146.146,0,0,0,.163.074,4.81,4.81,0,0,1,2.9.164A3.016,3.016,0,0,1,46.688,8.3a.141.141,0,0,0,.128.094,2.546,2.546,0,0,1,1.434.456c.79.674.713,1.205.622,1.432a.144.144,0,0,0,.069.182,4.594,4.594,0,0,1,2,2.032A3.786,3.786,0,0,1,50.986,16.329Z" transform="translate(-16.882 0)" fill="#929292"/></g><g transform="translate(38.737 564.696)"><path d="M58.963,18.861A20.853,20.853,0,0,0,49.69,3.641,22.016,22.016,0,0,0,40.333.2C31.172-.987,21.524,3.037,18.068,12.035c-2.971,7.736-.042,15.416,5.279,21.273,1.92,2.114,2.186,6.088,2.186,8.765V47.5a1.509,1.509,0,0,0,1.509,1.509H46.686a1.51,1.51,0,0,0,1.506-1.41c.072-1.068.191-2.007.191-2.007.411-1.762,1.913-3.174,5.107-2.661,3.351.538,5.465-.461,5.653-2.692.062-.736.1-7.023.1-7.023.16-.091,1.211-.3,2.742-.648a1.546,1.546,0,0,0,.742-2.608c-3.481-3.444-3.948-5.049-4.034-5.395C58.263,22.85,59.12,20.665,58.963,18.861Zm-6.488-2.055a1.812,1.812,0,0,1-1.326.748.149.149,0,0,0-.137.189c.15.527.3,1.979-2.3,2.544-2.438.53-3.912,2.426-4.874,3.389A5.436,5.436,0,0,1,41.1,24.982a5.885,5.885,0,0,0-2.834,1.154c-.847.763-2.042,4.964-2.245,5.694a.148.148,0,0,1-.143.108H34.632a.149.149,0,0,1-.146-.118l-.606-2.867c-.025-.12-5.9.363-6.354-2.26a.149.149,0,0,0-.2-.117c-.565.2-2.378.706-3.356-.811a3,3,0,0,1-.413-2.425.148.148,0,0,0-.084-.176c-.5-.214-2.3-1.224-2.056-4.547.2-2.679,2.009-3.866,1.756-4.278a2.556,2.556,0,0,1,1.4-3.6.153.153,0,0,0,.109-.134l.063-.7c.208-2.462,3.443-4.022,5.642-3a.155.155,0,0,0,.214-.092,1.854,1.854,0,0,1,.979-1.2,2.683,2.683,0,0,1,2.272-.047.147.147,0,0,0,.164-.036,3.365,3.365,0,0,1,2.382-.9,3.439,3.439,0,0,1,2.352.868.149.149,0,0,0,.158.015,3.533,3.533,0,0,1,2.607-.278,2.947,2.947,0,0,1,1.513,1.374.153.153,0,0,0,.17.077,5.087,5.087,0,0,1,3.029.169,3.123,3.123,0,0,1,1.758,1.673.147.147,0,0,0,.133.1,2.684,2.684,0,0,1,1.5.47c.825.694.744,1.24.649,1.474a.147.147,0,0,0,.072.187,4.765,4.765,0,0,1,2.088,2.091A3.85,3.85,0,0,1,52.475,16.806Z" transform="translate(-16.882 0)"/></g></g></svg>