<svg xmlns="http://www.w3.org/2000/svg" xmlns:xlink="http://www.w3.org/1999/xlink" width="88" height="88" viewBox="0 0 88 88"><defs><radialGradient id="a" cx="0.499" cy="0.858" r="0.516" gradientUnits="objectBoundingBox"><stop offset="0" stop-color="#e7ecef"/><stop offset="1" stop-color="#bfc8cd"/></radialGradient><linearGradient id="b" x1="0.402" y1="0.209" x2="0.713" y2="1.399" gradientUnits="objectBoundingBox"><stop offset="0" stop-color="#fff"/><stop offset="1" stop-color="#b7c6ce"/></linearGradient><linearGradient id="c" x1="0.362" y1="-0.019" x2="0.555" y2="0.973" gradientUnits="objectBoundingBox"><stop offset="0" stop-color="#fffbd4"/><stop offset="1"/></linearGradient><linearGradient id="d" x1="0.31" y1="-0.122" x2="0.718" y2="1.061" gradientUnits="objectBoundingBox"><stop offset="0" stop-color="#fff"/><stop offset="1"/></linearGradient><linearGradient id="e" x1="0.5" y1="1.314" x2="0.5" y2="-0.316" xlink:href="#b"/></defs><g transform="translate(748.367 -3496.145)"><g transform="translate(-748.367 3496.145)" stroke="#8b98a0" stroke-width="1" fill="url(#a)"><circle cx="44" cy="44" r="44" stroke="none"/><circle cx="44" cy="44" r="43.5" fill="none"/></g><path d="M-674.944,3509.347a42.473,42.473,0,0,1,11.825,29.423,42.671,42.671,0,0,1-42.623,42.625,42.463,42.463,0,0,1-29.422-11.827,42.492,42.492,0,0,0,30.8,13.2,42.671,42.671,0,0,0,42.625-42.625A42.5,42.5,0,0,0-674.944,3509.347Z" opacity="0.8" fill="url(#b)" style="mix-blend-mode:multiply;isolation:isolate"/><g style="mix-blend-mode:screen;isolation:isolate"><path d="M-714.881,3547.987c14.954-12.869,34.306-24.882,50.983-15.823a41.32,41.32,0,0,0-40.469-33.272,41.3,41.3,0,0,0-41.25,41.256,40.972,40.972,0,0,0,3.065,15.579C-736.011,3557.373-725.835,3557.419-714.881,3547.987Z" fill="url(#c)"/></g><path d="M-742.864,3542.9a41.3,41.3,0,0,1,41.25-41.256A41.09,41.09,0,0,1-673.87,3512.4a41.153,41.153,0,0,0-30.5-13.506,41.3,41.3,0,0,0-41.25,41.256,41.158,41.158,0,0,0,13.506,30.5A41.1,41.1,0,0,1-742.864,3542.9Z" fill="url(#d)" style="mix-blend-mode:screen;isolation:isolate"/><path d="M-729.117,3533.27v16.5H-718.7l12.954,9.869v-36.193l-12.952,9.823Z" opacity="0.8" fill="url(#e)" style="mix-blend-mode:multiply;isolation:isolate"/><path d="M-689.422,3516.772l-3.118,4.906c5.675,2.445,9.977,10.547,9.977,19.866,0,9.235-4.227,17.278-9.831,19.8l3.05,4.931c7.332-3.744,12.553-13.4,12.553-24.728C-676.791,3530.171-682.05,3520.484-689.422,3516.772Z" opacity="0.8" fill="url(#e)" style="mix-blend-mode:multiply;isolation:isolate"/><path d="M-695.486,3526.319l-3.053,4.8a14.1,14.1,0,0,1,4.219,10.424,14.227,14.227,0,0,1-4,10.224l3.011,4.861c4.066-3.213,6.757-8.77,6.757-15.085C-688.551,3535.134-691.318,3529.509-695.486,3526.319Z" opacity="0.8" fill="url(#e)" style="mix-blend-mode:multiply;isolation:isolate"/><path d="M-730.492,3531.9v16.5h10.42l12.955,9.868V3522.07l-12.955,9.825Z"/><path d="M-690.8,3515.4l-3.118,4.907c5.675,2.445,9.977,10.547,9.977,19.866,0,9.234-4.229,17.277-9.831,19.8l3.048,4.93c7.331-3.744,12.552-13.4,12.552-24.727C-678.169,3528.795-683.427,3519.108-690.8,3515.4Z"/><path d="M-696.863,3524.942l-3.051,4.8a14.1,14.1,0,0,1,4.216,10.424,14.227,14.227,0,0,1-4,10.224l3.011,4.861c4.066-3.214,6.757-8.77,6.757-15.085C-689.926,3533.758-692.7,3528.133-696.863,3524.942Z"/></g></svg>