<svg xmlns="http://www.w3.org/2000/svg" xmlns:xlink="http://www.w3.org/1999/xlink" width="53.215" height="53.215" viewBox="0 0 53.215 53.215"><defs><linearGradient id="a" x1="0.5" y1="1" x2="0.5" y2="-0.013" gradientUnits="objectBoundingBox"><stop offset="0" stop-color="#fff"/><stop offset="1" stop-color="#b7c6ce"/></linearGradient><linearGradient id="b" x1="0.5" y1="1.895" x2="0.5" y2="-0.458" xlink:href="#a"/></defs><g transform="translate(544.582 -3510.647)"><g transform="translate(-543.06 3512.17)"><path d="M-517.477,3511.906a25.848,25.848,0,0,0-25.847,25.847,25.846,25.846,0,0,0,25.847,25.845,25.844,25.844,0,0,0,25.847-25.845A25.846,25.846,0,0,0-517.477,3511.906Zm0,46.039a20.215,20.215,0,0,1-20.193-20.192,20.216,20.216,0,0,1,20.193-20.193,20.216,20.216,0,0,1,20.193,20.193A20.215,20.215,0,0,1-517.477,3557.945Z" transform="translate(543.324 -3511.906)" opacity="0.8" fill="url(#a)" style="mix-blend-mode:multiply;isolation:isolate"/><path d="M-508.906,3535.93l-10.881.008v-13.7a2.425,2.425,0,0,0-2.422-2.423,2.422,2.422,0,0,0-2.424,2.423v17.4a2.424,2.424,0,0,0,2.424,2.423,2.4,2.4,0,0,0,1.425-.474l11.883-.007a2.827,2.827,0,0,0,2.824-2.827A2.829,2.829,0,0,0-508.906,3535.93Z" transform="translate(547.238 -3510.25)" opacity="0.8" fill="url(#b)" style="mix-blend-mode:multiply;isolation:isolate"/></g><g transform="translate(-544.582 3510.647)"><path d="M-518.735,3510.647a25.848,25.848,0,0,0-25.847,25.847,25.846,25.846,0,0,0,25.847,25.847,25.845,25.845,0,0,0,25.847-25.847A25.847,25.847,0,0,0-518.735,3510.647Zm0,46.04a20.216,20.216,0,0,1-20.193-20.193,20.216,20.216,0,0,1,20.193-20.193,20.216,20.216,0,0,1,20.193,20.193A20.216,20.216,0,0,1-518.735,3556.687Z" transform="translate(544.582 -3510.647)"/><path d="M-510.165,3534.673l-10.881.008v-13.7a2.426,2.426,0,0,0-2.424-2.424,2.423,2.423,0,0,0-2.423,2.424v17.4a2.424,2.424,0,0,0,2.423,2.424,2.4,2.4,0,0,0,1.426-.474l11.883-.007a2.828,2.828,0,0,0,2.824-2.828A2.828,2.828,0,0,0-510.165,3534.673Z" transform="translate(548.496 -3508.991)"/></g></g></svg>