<svg xmlns="http://www.w3.org/2000/svg" xmlns:xlink="http://www.w3.org/1999/xlink" width="88" height="88" viewBox="0 0 88 88"><defs><radialGradient id="a" cx="0.499" cy="0.858" r="0.516" gradientUnits="objectBoundingBox"><stop offset="0" stop-color="#e7ecef"/><stop offset="1" stop-color="#bfc8cd"/></radialGradient><linearGradient id="b" x1="0.402" y1="0.209" x2="0.713" y2="1.399" gradientUnits="objectBoundingBox"><stop offset="0" stop-color="#fff"/><stop offset="1" stop-color="#b7c6ce"/></linearGradient><linearGradient id="c" x1="0.362" y1="-0.019" x2="0.555" y2="0.973" gradientUnits="objectBoundingBox"><stop offset="0" stop-color="#fffbd4"/><stop offset="1"/></linearGradient><linearGradient id="d" x1="0.31" y1="-0.122" x2="0.718" y2="1.061" gradientUnits="objectBoundingBox"><stop offset="0" stop-color="#fff"/><stop offset="1"/></linearGradient><linearGradient id="e" x1="0.5" y1="1" x2="0.5" y2="-0.013" xlink:href="#b"/><linearGradient id="f" x1="0.5" y1="1.895" x2="0.5" y2="-0.458" xlink:href="#b"/></defs><g transform="translate(748.367 -3496.145)"><g transform="translate(-748.367 3496.145)" stroke="#8b98a0" stroke-width="1" fill="url(#a)"><circle cx="44" cy="44" r="44" stroke="none"/><circle cx="44" cy="44" r="43.5" fill="none"/></g><path d="M-674.944,3509.347a42.473,42.473,0,0,1,11.825,29.423,42.671,42.671,0,0,1-42.623,42.625,42.463,42.463,0,0,1-29.422-11.827,42.492,42.492,0,0,0,30.8,13.2,42.671,42.671,0,0,0,42.625-42.625A42.5,42.5,0,0,0-674.944,3509.347Z" opacity="0.8" fill="url(#b)" style="mix-blend-mode:multiply;isolation:isolate"/><g style="mix-blend-mode:screen;isolation:isolate"><path d="M-714.881,3547.987c14.954-12.869,34.306-24.882,50.983-15.823a41.32,41.32,0,0,0-40.469-33.272,41.3,41.3,0,0,0-41.25,41.256,40.972,40.972,0,0,0,3.065,15.579C-736.011,3557.373-725.835,3557.419-714.881,3547.987Z" fill="url(#c)"/></g><path d="M-742.864,3542.9a41.3,41.3,0,0,1,41.25-41.256A41.09,41.09,0,0,1-673.87,3512.4a41.153,41.153,0,0,0-30.5-13.506,41.3,41.3,0,0,0-41.25,41.256,41.158,41.158,0,0,0,13.506,30.5A41.1,41.1,0,0,1-742.864,3542.9Z" fill="url(#d)" style="mix-blend-mode:screen;isolation:isolate"/><g transform="translate(-185.573 4.427)"><g transform="translate(-543.06 3512.17)"><path d="M-517.477,3511.906a25.848,25.848,0,0,0-25.847,25.847,25.846,25.846,0,0,0,25.847,25.845,25.844,25.844,0,0,0,25.847-25.845A25.846,25.846,0,0,0-517.477,3511.906Zm0,46.039a20.215,20.215,0,0,1-20.193-20.192,20.216,20.216,0,0,1,20.193-20.193,20.216,20.216,0,0,1,20.193,20.193A20.215,20.215,0,0,1-517.477,3557.945Z" transform="translate(543.324 -3511.906)" opacity="0.8" fill="url(#e)" style="mix-blend-mode:multiply;isolation:isolate"/><path d="M-508.906,3535.93l-10.881.008v-13.7a2.425,2.425,0,0,0-2.422-2.423,2.422,2.422,0,0,0-2.424,2.423v17.4a2.424,2.424,0,0,0,2.424,2.423,2.4,2.4,0,0,0,1.425-.474l11.883-.007a2.827,2.827,0,0,0,2.824-2.827A2.829,2.829,0,0,0-508.906,3535.93Z" transform="translate(547.238 -3510.25)" opacity="0.8" fill="url(#f)" style="mix-blend-mode:multiply;isolation:isolate"/></g><g transform="translate(-544.582 3510.647)"><path d="M-518.735,3510.647a25.848,25.848,0,0,0-25.847,25.847,25.846,25.846,0,0,0,25.847,25.847,25.845,25.845,0,0,0,25.847-25.847A25.847,25.847,0,0,0-518.735,3510.647Zm0,46.04a20.216,20.216,0,0,1-20.193-20.193,20.216,20.216,0,0,1,20.193-20.193,20.216,20.216,0,0,1,20.193,20.193A20.216,20.216,0,0,1-518.735,3556.687Z" transform="translate(544.582 -3510.647)"/><path d="M-510.165,3534.673l-10.881.008v-13.7a2.426,2.426,0,0,0-2.424-2.424,2.423,2.423,0,0,0-2.423,2.424v17.4a2.424,2.424,0,0,0,2.423,2.424,2.4,2.4,0,0,0,1.426-.474l11.883-.007a2.828,2.828,0,0,0,2.824-2.828A2.828,2.828,0,0,0-510.165,3534.673Z" transform="translate(548.496 -3508.991)"/></g></g></g></svg>