<svg xmlns="http://www.w3.org/2000/svg" width="24" height="24" viewBox="0 0 24 24"><g transform="translate(-71.489 -167.045)"><rect width="24" height="24" transform="translate(71.489 167.045)" fill="none"/><path d="M-8988.67,7908.266a1,1,0,0,1-1-1v-7.988a1,1,0,0,1,1-1h11.985a1,1,0,0,1,1,1v7.988a1,1,0,0,1-1,1Zm0-1h11.987v-7.988h-11.987Zm4.73-2.149a.507.507,0,0,1-.074-.262v-3.19a.5.5,0,0,1,.5-.5.5.5,0,0,1,.262.074l2.554,1.6a.5.5,0,0,1,.16.688.512.512,0,0,1-.16.16l-2.554,1.587a.492.492,0,0,1-.263.076A.5.5,0,0,1-8983.939,7905.116Zm-6.73-1.881h-1.321a1,1,0,0,1-1-1v-7.988a1,1,0,0,1,1-1h11.982a1,1,0,0,1,1,1v3.03h-1v-3.03h-11.982v7.99h1.321v1Zm-3.319-4.2h-1.521a1,1,0,0,1-1-1v-7.988a1,1,0,0,1,1-1h11.984a1,1,0,0,1,1,1v2.2h-1v-2.2h-11.984v7.991h1.521v1Z" transform="translate(9069.978 -7719.147)" fill="#9e9e9e" stroke="rgba(0,0,0,0)" stroke-miterlimit="10" stroke-width="1"/></g></svg>