<svg xmlns="http://www.w3.org/2000/svg" width="35.998" height="35.998" viewBox="0 0 35.998 35.998">
  <g id="Completed" transform="translate(-0.001 0)">
    <g id="Group_2435" data-name="Group 2435">
      <path id="Union_13" data-name="Union 13" d="M5.271,30.726A18,18,0,0,1,30.726,5.271,18,18,0,1,1,5.271,30.726ZM2.11,18A15.889,15.889,0,1,0,18,2.11,15.907,15.907,0,0,0,2.11,18Zm12.937,5.774L9.4,18.125a1.055,1.055,0,1,1,1.492-1.491l4.9,4.9,9.312-9.313A1.055,1.055,0,0,1,26.6,13.714L16.538,23.774a1.055,1.055,0,0,1-1.491,0Z" fill="#f5bb56"/>
    </g>
  </g>
</svg>
