<svg xmlns="http://www.w3.org/2000/svg" width="28" height="28" viewBox="0 0 28 28"><g transform="translate(0.308 0.156)"><rect width="28" height="28" transform="translate(-0.308 -0.156)" fill="none"/><g transform="translate(2.162 1.848)"><path d="M3.378,19.7a11.539,11.539,0,1,1,16.318,0,11.538,11.538,0,0,1-16.318,0Z" transform="translate(0.001 0.001)" fill="#fff"/></g><g transform="translate(2.162 1.848)"><path d="M3.378,19.7a11.539,11.539,0,1,1,16.318,0,11.538,11.538,0,0,1-16.318,0ZM1.352,11.538A10.186,10.186,0,1,0,11.538,1.352,10.185,10.185,0,0,0,1.352,11.538Zm8.293,3.7-3.62-3.621a.676.676,0,1,1,.956-.956L10.123,13.8l5.969-5.97a.677.677,0,1,1,.959.957L10.6,15.24A.676.676,0,0,1,9.645,15.24Z" transform="translate(0.001 0.001)" fill="#f5bb56"/></g></g></svg>