<svg xmlns="http://www.w3.org/2000/svg" width="24" height="24" viewBox="0 0 24 24"><g transform="translate(-17 -49)"><path d="M314.263,301.5a2,2,0,0,1-2-2v-16a2,2,0,0,1,2-2h8l6,6v12a2,2,0,0,1-2,2Zm-1-18v16a1,1,0,0,0,1,1h12a1,1,0,0,0,1-1v-10.58l-3.983-.006a2.364,2.364,0,0,1-2.4-2.322V282.5h-6.619A1,1,0,0,0,313.263,283.5Zm8.652,3.092a1.343,1.343,0,0,0,1.363,1.322l3.983.006v-.006l-5.346-5.346Zm-3.121,5.857h6a.5.5,0,0,1,.5.5h0a.5.5,0,0,1-.5.5h-6a.5.5,0,0,1-.5-.5h0A.5.5,0,0,1,318.794,292.447Zm-2.857-.24h0a.706.706,0,0,1,.706.706h0a.706.706,0,0,1-.706.706h0a.706.706,0,0,1-.706-.706h0A.706.706,0,0,1,315.937,292.207Zm0,2.018h0a.706.706,0,0,1,.706.706h0a.706.706,0,0,1-.706.706h0a.706.706,0,0,1-.706-.706h0A.706.706,0,0,1,315.937,294.225Zm0,2.015h0a.707.707,0,0,1,.706.706h0a.706.706,0,0,1-.706.706h0a.706.706,0,0,1-.706-.706h0A.707.707,0,0,1,315.937,296.24Zm2.857-1.793h6a.5.5,0,0,1,.5.5h0a.5.5,0,0,1-.5.5h-6a.5.5,0,0,1-.5-.5h0A.5.5,0,0,1,318.794,294.447Zm0,2h6a.5.5,0,0,1,.5.5h0a.5.5,0,0,1-.5.5h-6a.5.5,0,0,1-.5-.5h0A.5.5,0,0,1,318.794,296.447Z" transform="translate(-291.264 -230.498)" fill="#9e9e9e" style="isolation:isolate"/><rect width="24" height="24" transform="translate(17 49)" fill="none"/></g></svg>