<svg xmlns="http://www.w3.org/2000/svg" width="24" height="24" viewBox="0 0 24 24"><g transform="translate(-17 -109)"><path d="M438.151,311.711a1.979,1.979,0,0,0,1.941-2.011v-2.99a8.341,8.341,0,0,0-1.489-5.163,4.111,4.111,0,0,0-3.307-1.639H426.71a4.115,4.115,0,0,0-3.323,1.656,8.4,8.4,0,0,0-1.479,5.219V309.7a1.983,1.983,0,0,0,1.947,2.011,6.839,6.839,0,0,0,3.209-1.295,9.673,9.673,0,0,1,3.839-1.592l.1-.01.1.01a9.682,9.682,0,0,1,3.834,1.591,6.847,6.847,0,0,0,3.213,1.3m0,.908c-2.483,0-4.563-2.6-7.148-2.893-2.591.288-4.666,2.893-7.148,2.893A2.889,2.889,0,0,1,421,309.7v-2.917c0-5.036,2.558-7.782,5.71-7.782H435.3c3.135,0,5.68,2.72,5.7,7.7v3A2.884,2.884,0,0,1,438.151,312.618Zm-1.263-5.446a.456.456,0,1,0-.448-.454.452.452,0,0,0,.448.454m-2.718-2.727a.453.453,0,1,0-.458-.454.455.455,0,0,0,.458.454m2.718,3.635a1.364,1.364,0,1,1,1.365-1.362A1.36,1.36,0,0,1,436.888,308.081Zm-9.527,0h-1.816v-1.816h-1.819v-1.819h1.819v-1.814h1.816v1.814h1.814v1.819h-1.814Zm6.809-2.727a1.361,1.361,0,1,1,1.362-1.362A1.362,1.362,0,0,1,434.17,305.353Z" transform="translate(-402.001 -184.751)" fill="#9e9e9e" style="isolation:isolate"/><rect width="24" height="24" transform="translate(17 109)" fill="none"/></g></svg>