<svg xmlns="http://www.w3.org/2000/svg" width="24" height="24" viewBox="0 0 24 24"><g transform="translate(-0.234)"><path d="M2.133,20A2.072,2.072,0,0,1,0,18V2A2.073,2.073,0,0,1,2.133,0H13.867A2.069,2.069,0,0,1,16,2V18a2.068,2.068,0,0,1-2.131,2ZM1.067,18a1.035,1.035,0,0,0,1.065,1H13.867a1.035,1.035,0,0,0,1.065-1V3.72H1.067ZM14.933,2.721V2a1.037,1.037,0,0,0-1.065-1H2.133A1.036,1.036,0,0,0,1.067,2v.722ZM7.638,13.276a.646.646,0,1,1,.646.646A.648.648,0,0,1,7.638,13.276Zm-2.235,0a.646.646,0,1,1,.644.646A.646.646,0,0,1,5.4,13.276Zm-2.228,0a.648.648,0,1,1,.649.646A.651.651,0,0,1,3.175,13.276Zm.369-2.04a.5.5,0,1,1,0-1.006h8.531a.5.5,0,1,1,0,1.006Zm3.7-2h-3.7a.5.5,0,1,1,0-1h8.531a.5.5,0,1,1,0,1ZM3.485,7.113a.5.5,0,0,1,0-1h8.646a.5.5,0,0,1,0,1Z" transform="translate(4.234 2)" fill="#9e9e9e"/><rect width="24" height="24" transform="translate(0.234)" fill="none"/></g></svg>