<svg xmlns="http://www.w3.org/2000/svg" width="28" height="27" viewBox="0 0 28 27"><g transform="translate(0.308 -0.297)"><rect width="28" height="27" transform="translate(-0.308 0.297)" fill="none"/><path d="M3.378,19.7a11.539,11.539,0,1,1,16.318,0,11.538,11.538,0,0,1-16.318,0Z" transform="translate(2.164 1.85)" fill="#fff"/><path d="M3.378,19.7a11.539,11.539,0,1,1,16.318,0,11.538,11.538,0,0,1-16.318,0ZM1.352,11.538A10.186,10.186,0,1,0,11.538,1.352,10.185,10.185,0,0,0,1.352,11.538Z" transform="translate(2.164 1.85)" fill="#fbe4bb"/></g></svg>