<svg xmlns="http://www.w3.org/2000/svg" width="24" height="24" viewBox="0 0 24 24"><g transform="translate(-17 -81)"><path d="M395.44,310.021H383.715a2.071,2.071,0,0,1-2.132-2v-16a2.071,2.071,0,0,1,2.132-2H395.44a2.071,2.071,0,0,1,2.132,2v16A2.071,2.071,0,0,1,395.44,310.021Zm-11.725-19a1.036,1.036,0,0,0-1.066,1v16a1.036,1.036,0,0,0,1.066,1H395.44a1.036,1.036,0,0,0,1.066-1v-16a1.036,1.036,0,0,0-1.066-1Zm9.594,7v-4h-7.464v4h7.464m-2.665,9h-5.328a.5.5,0,1,1,0-1h5.328a.5.5,0,1,1,0,1Zm3.2-2h-8.528a.5.5,0,1,1,0-1h8.528a.5.5,0,1,1,0,1Zm0-2h-8.528a.5.5,0,1,1,0-1h8.528a.5.5,0,1,1,0,1Zm.531-4h-9.6v-6h9.6Z" transform="translate(-360.582 -207.021)" fill="#9e9e9e" style="isolation:isolate"/><rect width="24" height="24" transform="translate(17 81)" fill="none"/></g></svg>