<svg xmlns="http://www.w3.org/2000/svg" width="24" height="24" viewBox="0 0 24 24"><g transform="translate(-77 -208)"><rect width="24" height="24" transform="translate(77 208)" fill="none"/><path d="M-8974,7819.969v-2.032a5.008,5.008,0,0,1,5-5h2a5.009,5.009,0,0,1,5,5v2.025h-1v-2.025a4,4,0,0,0-4-4h-2a4,4,0,0,0-4,4v2.032Zm15-4v-2a2,2,0,0,0-1.994-2.005H-8961a2,2,0,0,0-1.732,1.012,8.96,8.96,0,0,0-.895-.444,2.984,2.984,0,0,1,2.627-1.568,3.007,3.007,0,0,1,3,3.006v2Zm-19,0v-2a3.007,3.007,0,0,1,3-3.006,3.008,3.008,0,0,1,2.635,1.568,7.854,7.854,0,0,0-.895.444,2.012,2.012,0,0,0-1.74-1.012,2,2,0,0,0-2,2v2.008Zm6.5-7.467a3.5,3.5,0,0,1,3.5-3.5,3.5,3.5,0,0,1,3.5,3.5,3.5,3.5,0,0,1-3.5,3.5A3.5,3.5,0,0,1-8971.5,7808.5Zm1,0a2.5,2.5,0,0,0,2.5,2.5,2.5,2.5,0,0,0,2.5-2.5,2.5,2.5,0,0,0-2.5-2.5A2.5,2.5,0,0,0-8970.5,7808.5Zm7.5-.034a2,2,0,0,1,2-2,2,2,0,0,1,2,2,2,2,0,0,1-2,2A2,2,0,0,1-8963,7808.467Zm1,0a1,1,0,0,0,1,1,1,1,0,0,0,1-1,1,1,0,0,0-1-1A1,1,0,0,0-8962,7808.467Zm-15,0a2,2,0,0,1,2-2,2,2,0,0,1,2,2,2,2,0,0,1-2,2A2,2,0,0,1-8977,7808.467Zm1,0a1,1,0,0,0,1,1,1,1,0,0,0,1-1,1,1,0,0,0-1-1A1,1,0,0,0-8976,7808.467Z" transform="translate(9057 -7592.969)" fill="#9e9e9e" stroke="rgba(0,0,0,0)" stroke-miterlimit="10" stroke-width="1"/></g></svg>