<svg xmlns="http://www.w3.org/2000/svg" width="24" height="24" viewBox="0 0 24 24"><g transform="translate(-17 -173)"><path d="M434.5,355.5h-12a2,2,0,0,1-2-2v-16a2,2,0,0,1,2-2h12a2,2,0,0,1,2,2v2.8l-1,.894V337.5a1,1,0,0,0-1-1h-12a1,1,0,0,0-1,1v16a1,1,0,0,0,1,1h12a1,1,0,0,0,1-1v-7.756l1-1.053V353.5A2,2,0,0,1,434.5,355.5Zm-7-2h-4v-4h4Zm-3-1h2v-2h-2Zm3-5h-4v-4h4Zm-3-1h2v-2h-2Zm9,7h-4v-4h4Zm-3-1h2v-2h-2Zm-6.5-14h8a.5.5,0,0,1,.5.5h0a.5.5,0,0,1-.5.5h-8a.5.5,0,0,1-.5-.5h0A.5.5,0,0,1,424,338.5Zm7.094,9.16h0a.9.9,0,0,1-.081-.093l-2.152-2.48c-.335-.336-.519-.718-.182-1.054s.677-.122,1.01.212l.272.229,1.722,1.451,4.483-4.006c.335-.335.7-.456,1.031-.122s.049.667-.285,1l-.251.265-4.327,4.564-.033.033h0a.855.855,0,0,1-1.208,0Z" transform="translate(-399.497 -160.5)" fill="#9e9e9e"/><rect width="24" height="24" transform="translate(17 173)" fill="none"/></g></svg>