<svg id="Therapist" xmlns="http://www.w3.org/2000/svg" width="42.351" height="47.819" viewBox="0 0 42.351 47.819">
  <g id="OBJECTS" transform="translate(0 0)">
    <g id="body" transform="translate(0.208 3.868)">
      <path id="Path_10491" data-name="Path 10491" d="M40.2,87.527c-2.912-2.743-11.385-3.277-12.723-3.352a.267.267,0,0,0-.253.145,6.226,6.226,0,0,1-5.692,3.207,6.3,6.3,0,0,1-5.617-3.277.267.267,0,0,0-.253-.14c-1.339.07-9.873.637-12.822,3.417A10.811,10.811,0,0,0,.456,91.941a.272.272,0,0,0,.262.351H42.311a.271.271,0,0,0,.262-.351A11.058,11.058,0,0,0,40.2,87.527Z" transform="translate(-0.445 -48.603)" fill="#fccfa9"/>
      <path id="Path_10492" data-name="Path 10492" d="M39.023,76.176a6.216,6.216,0,0,0,5.744-3.3.253.253,0,0,0,.028-.108V62.957a.267.267,0,0,0-.267-.267h-10.9a.276.276,0,0,0-.272.271V72.7a.248.248,0,0,0,0,.1A6.056,6.056,0,0,0,39.023,76.176Z" transform="translate(-17.946 -37.21)" fill="#fccfa9"/>
      <path id="Path_10493" data-name="Path 10493" d="M33.35,70.592a.267.267,0,0,0,.192.257,19.3,19.3,0,0,0,5.533.73,19.085,19.085,0,0,0,5.725-.791h0V66H33.626a.272.272,0,0,0-.272.267Z" transform="translate(-17.946 -38.971)" fill="#fdcc86"/>
      <path id="Path_10494" data-name="Path 10494" d="M42.456,23.586c-.084-3.778-3.277-.749-3.277-.749v-4.4A10.311,10.311,0,0,0,28.768,8.26H25.726A10.341,10.341,0,0,0,15.315,18.437v4.087a.234.234,0,0,1-.374.178c-.871-.66-2.935-1.924-3.005,1.049-.14,6.277,2.949,4.358,3.38,4.059h0a8.309,8.309,0,0,0,.426,2.242c1.212,4.241,5.739,10.018,11.506,10.018h0c6.249,0,9.751-5.585,11.305-10.2a11.024,11.024,0,0,0,.637-2.149h0C39.881,28.155,42.592,29.48,42.456,23.586Z" transform="translate(-6.553 -8.26)" fill="#fccfa9"/>
      <path id="Path_10495" data-name="Path 10495" d="M15.79,41.31c0,1.484-.52,2.692-1.311,2.692s-1.428-1.2-1.428-2.687-.126-2.453.655-2.579C15.013,38.53,15.79,39.831,15.79,41.31Z" transform="translate(-7.146 -24.458)" fill="#f7c09a"/>
      <path id="Path_10496" data-name="Path 10496" d="M14.856,39.152s-2.018-.824-1.676,3.436c0,0-.707-3.745.468-3.82C14.618,38.684,14.856,39.152,14.856,39.152Z" transform="translate(-7.106 -24.481)" fill="#eab28c"/>
      <path id="Path_10497" data-name="Path 10497" d="M70.38,40.74c0,1.484.52,2.692,1.311,2.692s1.428-1.2,1.428-2.687.126-2.453-.655-2.579C71.138,37.96,70.38,39.261,70.38,40.74Z" transform="translate(-37.642 -24.155)" fill="#f7c09a"/>
      <path id="Path_10498" data-name="Path 10498" d="M72.27,38.552s2.018-.824,1.676,3.436c0,0,.707-3.745-.468-3.82C72.518,38.084,72.27,38.552,72.27,38.552Z" transform="translate(-38.647 -24.162)" fill="#eab28c"/>
    </g>
    <path id="Path_10499" data-name="Path 10499" d="M39.86,86.1c-3.16-3.179-12.639-4.288-12.878-4.316h0S25.531,86.1,21.21,86.1a6.117,6.117,0,0,1-5.669-3.979v-.033S5.692,82.861,2.49,86.1A12.117,12.117,0,0,0,0,91.161H42.351A12.343,12.343,0,0,0,39.86,86.1Z" transform="translate(0 -43.496)" fill="#e6e7e8"/>
    <path id="Path_10500" data-name="Path 10500" d="M44.771,92.044,42.046,96.22l-1.109-.028-2.453-4.213A.669.669,0,0,1,39.06,91l5.177.037a.669.669,0,0,1,.534,1.006Z" transform="translate(-20.429 -48.4)" fill="#2b388f"/>
    <path id="Path_10501" data-name="Path 10501" d="M30.61,78.69s-2.341.679-2.135,1.872,5.29,7.228,5.29,7.228a10.962,10.962,0,0,1,2.809-3.347C36.583,84.453,33.508,84.378,30.61,78.69Z" transform="translate(-15.139 -41.853)" fill="#808184"/>
    <path id="Path_10502" data-name="Path 10502" d="M50.959,78.69s2.341.679,2.135,1.872-5.285,7.228-5.285,7.228A10.854,10.854,0,0,0,45,84.453S48.061,84.378,50.959,78.69Z" transform="translate(-23.935 -41.853)" fill="#808184"/>
    <path id="Path_10503" data-name="Path 10503" d="M38.92,58.63h6.872S42.356,64.753,38.92,58.63Z" transform="translate(-20.701 -31.183)" fill="#f2a491"/>
    <path id="Path_10504" data-name="Path 10504" d="M42.739,49.278a1.62,1.62,0,0,0,0,1.662c.028.051.234-.061.206-.108a1.568,1.568,0,0,1,0-1.61c.037-.061-.169,0-.2.061Z" transform="translate(-22.61 -26.166)" fill="#f2c691"/>
    <path id="Path_10505" data-name="Path 10505" d="M47.989,49.311a1.587,1.587,0,0,1,.047,1.4c-.061.136.159.14.206.033a1.755,1.755,0,0,0-.047-1.559c-.056-.108-.262,0-.206.108Z" transform="translate(-25.519 -26.138)" fill="#f2c691"/>
    <circle id="Ellipse_4266" data-name="Ellipse 4266" cx="1.18" cy="1.18" r="1.18" transform="translate(15.359 17.649)" fill="#231f20"/>
    <circle id="Ellipse_4269" data-name="Ellipse 4269" cx="1.18" cy="1.18" r="1.18" transform="translate(24.253 17.649)" fill="#231f20"/>
    <circle id="Ellipse_4267" data-name="Ellipse 4267" cx="0.393" cy="0.393" r="0.393" transform="translate(16.057 18.917) rotate(-45)" fill="#fff"/>
    <circle id="Ellipse_4268" data-name="Ellipse 4268" cx="0.393" cy="0.393" r="0.393" transform="translate(24.952 18.917) rotate(-45)" fill="#fff"/>
    <path id="Path_10507" data-name="Path 10507" d="M35.385,33.951H30.39S32.656,30.131,35.385,33.951Z" transform="translate(-16.164 -17.154)" fill="#9e9e9a"/>
    <path id="Path_10508" data-name="Path 10508" d="M54.455,33.951H49.46S51.726,30.131,54.455,33.951Z" transform="translate(-26.307 -17.154)" fill="#9e9e9a"/>
    <path id="Path_10509" data-name="Path 10509" d="M45.511,56.98l-2.069-1.685a2.739,2.739,0,0,0-3.581-.253,2.731,2.731,0,0,0-3.623.215L34.15,56.943a11.6,11.6,0,0,0,5.683-.393v.037A15.391,15.391,0,0,0,45.511,56.98Z" transform="translate(-18.164 -28.967)" fill="#9e9e9a"/>
    <path id="Path_10510" data-name="Path 10510" d="M18.591,24.6,19.4,11.065l4.517-2.837a15.749,15.749,0,0,0,11.015,0l4.438,2.781,1.081,13.107.768.5.328-6.086c2.013-5.187,2.748-9.1-.375-13.7a8.917,8.917,0,0,0-3.913-3.5C33.36-.193,25.468-1.017,20.871,2.293a11.431,11.431,0,0,0-2.9,3.221c-2.528,4-1.648,8.089-.3,12.639l.239,6.83Z" transform="translate(-8.7 0.002)" fill="#9e9e9a"/>
  </g>
</svg>
