<svg xmlns="http://www.w3.org/2000/svg" width="24" height="24" viewBox="0 0 24 24"><g transform="translate(-55 -129)"><rect width="24" height="24" transform="translate(55 129)" fill="none"/><path d="M-9012.488,7864.926a2.937,2.937,0,0,1-2.093-2.014,25.51,25.51,0,0,1-.419-4.733,25.681,25.681,0,0,1,.407-4.645,2.925,2.925,0,0,1,2.023-2.111,56.479,56.479,0,0,1,7.554-.418,63.275,63.275,0,0,1,7.457.364,2.926,2.926,0,0,1,2.1,2.1l.007.034a25.6,25.6,0,0,1,.407,4.684,25.666,25.666,0,0,1-.407,4.611,2.918,2.918,0,0,1-2.022,2.115,57.181,57.181,0,0,1-7.555.418c-.215,0-.43,0-.645,0A57.775,57.775,0,0,1-9012.488,7864.926Zm14.821-.993a1.9,1.9,0,0,0,1.242-1.349,24.488,24.488,0,0,0,.385-4.4,24.583,24.583,0,0,0-.387-4.482,1.914,1.914,0,0,0-1.321-1.353,63.669,63.669,0,0,0-7.27-.341c-.215,0-.433,0-.647,0a56.3,56.3,0,0,0-6.708.4,1.9,1.9,0,0,0-1.242,1.346,24.443,24.443,0,0,0-.385,4.432,24.666,24.666,0,0,0,.392,4.507,1.9,1.9,0,0,0,1.313,1.26,57.017,57.017,0,0,0,7.271.382A55.808,55.808,0,0,0-8997.667,7863.933Zm-9.545-2.5a.5.5,0,0,1-.249-.432v-5.634a.5.5,0,0,1,.249-.432.506.506,0,0,1,.5,0l4.947,2.821a.5.5,0,0,1,.254.435.5.5,0,0,1-.254.437l-4.95,2.814a.5.5,0,0,1-.246.063A.476.476,0,0,1-9007.212,7861.43Zm.751-1.29,3.438-1.957-3.438-1.959Z" transform="translate(9072.5 -7717.504)" fill="#9e9e9e" stroke="rgba(0,0,0,0)" stroke-miterlimit="10" stroke-width="1"/></g></svg>