<svg xmlns="http://www.w3.org/2000/svg" width="48" height="48" viewBox="0 0 48 48"><g transform="translate(-190 -242)"><rect width="48" height="48" rx="24" transform="translate(190 242)" fill="#f5bf5e"/><path d="M22.945.793A1.865,1.865,0,0,1,24.793,2.64V15.562a1.864,1.864,0,0,1-1.847,1.846H20.173a1.853,1.853,0,0,1-1.6-.955c-.623.382-1.235.605-1.629.833-.928.536-1.4,2.045-1.62,3.617-.11.786-.169,1.541-.265,2.172a3.534,3.534,0,0,1-.225.9,1.381,1.381,0,0,1-.328.49,1.23,1.23,0,0,1-.789.328,4.182,4.182,0,0,1-3.208-1.355,5.783,5.783,0,0,1-1.233-2.869,16.67,16.67,0,0,1-.126-4.086H3.567A2.786,2.786,0,0,1,.793,13.715a5.086,5.086,0,0,1,.348-1.573c.195-.63.46-1.388.75-2.2.58-1.625,1.271-3.468,1.723-4.823a4.6,4.6,0,0,1,.838-1.6,2.525,2.525,0,0,1,1.88-.878H17.408a2.7,2.7,0,0,1,.919.171V2.64A1.864,1.864,0,0,1,20.173.793Zm0,1.847H20.173V15.562h2.772ZM17.409,4.486H6.331a.505.505,0,0,0-.483.238,3.184,3.184,0,0,0-.485.982C4.892,7.119,4.2,8.957,3.628,10.561c-.286.8-.543,1.545-.723,2.127s-.267,1.1-.267,1.027a.9.9,0,0,0,.928.919h6.539a.924.924,0,0,1,.926.928,25.584,25.584,0,0,0,.054,4.686,4.105,4.105,0,0,0,.811,1.968,2.119,2.119,0,0,0,1.319.694c.093-.527.156-1.424.274-2.267.241-1.719.694-3.9,2.534-4.958.685-.4,1.347-.625,1.745-.9a1.016,1.016,0,0,0,.559-1.071v-8.3a.9.9,0,0,0-.919-.926Z" transform="translate(201.208 255.207)" fill="#fff"/></g></svg>