<svg xmlns="http://www.w3.org/2000/svg" width="48" height="48" viewBox="0 0 48 48"><rect width="48" height="48" rx="24" fill="#f5bb56"/><path d="M2.64,24.793A1.865,1.865,0,0,1,.793,22.945V10.023A1.864,1.864,0,0,1,2.64,8.177H5.412a1.853,1.853,0,0,1,1.6.955c.623-.382,1.235-.605,1.629-.833.928-.536,1.4-2.045,1.62-3.617.11-.786.169-1.541.265-2.172a3.534,3.534,0,0,1,.225-.9,1.381,1.381,0,0,1,.328-.49A1.23,1.23,0,0,1,11.87.793a4.182,4.182,0,0,1,3.208,1.355,5.784,5.784,0,0,1,1.233,2.869A16.671,16.671,0,0,1,16.437,9.1h5.582a2.786,2.786,0,0,1,2.774,2.767,5.087,5.087,0,0,1-.348,1.573c-.195.63-.46,1.388-.75,2.2-.58,1.625-1.271,3.468-1.723,4.823a4.6,4.6,0,0,1-.838,1.6,2.525,2.525,0,0,1-1.88.878H8.177a2.7,2.7,0,0,1-.919-.171v.171a1.864,1.864,0,0,1-1.846,1.847Zm0-1.847H5.412V10.023H2.64ZM8.177,21.1H19.254a.505.505,0,0,0,.483-.238,3.184,3.184,0,0,0,.485-.982c.471-1.413,1.163-3.251,1.736-4.855.286-.8.543-1.545.723-2.127s.267-1.1.267-1.027a.9.9,0,0,0-.928-.919H15.48a.924.924,0,0,1-.926-.928A25.586,25.586,0,0,0,14.5,5.336a4.105,4.105,0,0,0-.811-1.968,2.119,2.119,0,0,0-1.319-.694c-.093.527-.156,1.424-.274,2.267-.241,1.719-.694,3.9-2.534,4.958-.685.4-1.347.625-1.745.9a1.016,1.016,0,0,0-.559,1.071v8.3a.9.9,0,0,0,.919.926Z" transform="translate(11.229 10.228)" fill="#fff"/></svg>