<svg xmlns="http://www.w3.org/2000/svg" xmlns:xlink="http://www.w3.org/1999/xlink" width="296" height="212" viewBox="0 0 296 212">
  <defs>
    <clipPath id="clip-path">
      <rect id="Rectangle_2793" data-name="Rectangle 2793" width="203.646" height="164.727" fill="#fff" stroke="#707070" stroke-width="1"/>
    </clipPath>
    <filter id="Path_11053" x="29.258" y="73.464" width="66.436" height="52.778" filterUnits="userSpaceOnUse">
      <feOffset dy="2" input="SourceAlpha"/>
      <feGaussianBlur stdDeviation="2" result="blur"/>
      <feFlood flood-opacity="0.161"/>
      <feComposite operator="in" in2="blur"/>
      <feComposite in="SourceGraphic"/>
    </filter>
    <filter id="Path_11053-2" x="70.337" y="3.163" width="64.773" height="50.244" filterUnits="userSpaceOnUse">
      <feOffset dy="2" input="SourceAlpha"/>
      <feGaussianBlur stdDeviation="2" result="blur-2"/>
      <feFlood flood-opacity="0.161"/>
      <feComposite operator="in" in2="blur-2"/>
      <feComposite in="SourceGraphic"/>
    </filter>
    <filter id="Path_11053-3" x="185.089" y="30.379" width="64.773" height="50.244" filterUnits="userSpaceOnUse">
      <feOffset dy="2" input="SourceAlpha"/>
      <feGaussianBlur stdDeviation="2" result="blur-3"/>
      <feFlood flood-opacity="0.161"/>
      <feComposite operator="in" in2="blur-3"/>
      <feComposite in="SourceGraphic"/>
    </filter>
    <filter id="Path_11053-4" x="195.089" y="117.163" width="64.773" height="50.244" filterUnits="userSpaceOnUse">
      <feOffset dy="2" input="SourceAlpha"/>
      <feGaussianBlur stdDeviation="2" result="blur-4"/>
      <feFlood flood-opacity="0.161"/>
      <feComposite operator="in" in2="blur-4"/>
      <feComposite in="SourceGraphic"/>
    </filter>
  </defs>
  <g id="Daydream" transform="translate(-33 -117)">
    <g id="Imagery" transform="translate(33 117)">
      <g id="imagery-2" data-name="imagery" transform="translate(35.258 7.163)">
        <g id="Group_11423" data-name="Group 11423" transform="translate(11.864 0.001)">
          <g id="Mask_Group_9597" data-name="Mask Group 9597" clip-path="url(#clip-path)">
            <g id="Ellipse_4017" data-name="Ellipse 4017" transform="translate(12.791 6.856) rotate(0.974)" fill="none" stroke="rgba(174,71,71,0.61)" stroke-width="1" stroke-dasharray="4 6">
              <ellipse cx="91.18" cy="91.286" rx="91.18" ry="91.286" stroke="none"/>
              <ellipse cx="91.18" cy="91.286" rx="90.68" ry="90.786" fill="none"/>
            </g>
          </g>
          <g id="Group_9650" data-name="Group 9650" transform="translate(62.119 58.514)">
            <path id="Path_7526" data-name="Path 7526" d="M182.151,66.539a10.076,10.076,0,0,0-2.924-6.945,11.376,11.376,0,0,0,2.806-7.515A10.315,10.315,0,0,0,176.8,43.3a9.911,9.911,0,0,0,1.431-5.133A11.252,11.252,0,0,0,170.455,27.8a8.284,8.284,0,0,0-2.441-8.425,9.413,9.413,0,0,0-5.29-2.433,11.8,11.8,0,0,0-3.142-4.575c-1.967-1.778-4.137,4.869-6.956,4.89-1.358.009-3.068-7.527-4.266-7.055a11.221,11.221,0,0,0-7.1,10.3,11.026,11.026,0,0,0-3.666-7.978,11.788,11.788,0,0,0-3.185,4.731,9.394,9.394,0,0,0-5.25,2.51,8.416,8.416,0,0,0-2.3,8.455,11.227,11.227,0,0,0-7.6,10.488,9.931,9.931,0,0,0,1.515,5.112,10.293,10.293,0,0,0-5.084,8.849,11.394,11.394,0,0,0,2.928,7.468,10.065,10.065,0,0,0-2.81,6.988,10.191,10.191,0,0,0,4.085,7.973,9.877,9.877,0,0,0-.317,2.452,10.661,10.661,0,0,0,12.357,10.767,12.51,12.51,0,0,0,4.183,4.737A12.839,12.839,0,0,0,141.765,82.5c.04,4.893,6.442,3.391,10.864,5.451,1.66.774.852,3.016,2.8,3,2.748-.02,4.611,3.311,6.683,1.906a12.494,12.494,0,0,0,4.26-4.906,10.644,10.644,0,0,0,12.18-10.947,9.89,9.89,0,0,0-.357-2.447,10.173,10.173,0,0,0,3.958-8.023Z" transform="translate(-111.56 -7.022)" fill="#ffd4d4"/>
            <path id="Path_7527" data-name="Path 7527" d="M182.151,66.738a10.076,10.076,0,0,0-2.924-6.946,11.376,11.376,0,0,0,2.806-7.515A10.315,10.315,0,0,0,176.8,43.5a9.911,9.911,0,0,0,1.431-5.133,11.252,11.252,0,0,0-7.774-10.375,8.284,8.284,0,0,0-2.441-8.425,9.413,9.413,0,0,0-5.29-2.433,11.8,11.8,0,0,0-3.142-4.575,10.908,10.908,0,0,0-7.368-2.916,10.682,10.682,0,0,0-3.854.752,11.221,11.221,0,0,0-7.1,10.3c-.025-3.058-.352-7.372-2.582-9.4-1.447,1.314-4.812-3.414-5.439-1.649-3.067.758-7.027,4.578-8.406,5.9-3.921,3.771,2.022,12.858,2.022,12.875a11.227,11.227,0,0,0-7.6,10.488,9.931,9.931,0,0,0,1.515,5.112,10.293,10.293,0,0,0-5.084,8.849,11.394,11.394,0,0,0,2.928,7.468,10.065,10.065,0,0,0-2.81,6.988,10.191,10.191,0,0,0,4.085,7.973,9.877,9.877,0,0,0-.317,2.452,10.661,10.661,0,0,0,3.655,8.28c2.388,2.08,4.525,8.814,7.651,8.31.966,1.911,3.457-2.28,5.234-1.085a12.839,12.839,0,0,0,5.658-10.548c.04,4.893,3.472,8.3,7.887,10.359,1.66.774,3.162,2.281,5.106,2.263a13.227,13.227,0,0,0,7.352-2.263,12.494,12.494,0,0,0,4.26-4.906,10.644,10.644,0,0,0,12.18-10.947,9.889,9.889,0,0,0-.357-2.447,10.173,10.173,0,0,0,3.959-8.032Z" transform="translate(-103.92 -7.22)" fill="#ffd4d4"/>
            <g id="brain_1_" data-name="brain (1)" transform="translate(0 0)">
              <g id="Path_7517" data-name="Path 7517" transform="translate(47.031 14.458)">
                <path id="Path_12170" data-name="Path 12170" d="M297.571,85.642a1.071,1.071,0,1,1,1.071-1.071A1.072,1.072,0,0,1,297.571,85.642Z" transform="translate(-295.829 -82.829)"/>
                <path id="Path_12171" data-name="Path 12171" d="M297.742,85.142a.4.4,0,1,0-.4-.4.4.4,0,0,0,.4.4m0,1.342a1.742,1.742,0,1,1,1.742-1.742A1.742,1.742,0,0,1,297.742,86.484Z" transform="translate(-296 -83)" fill="#f7f7f7"/>
              </g>
              <g id="Path_7518" data-name="Path 7518" transform="translate(29.612 14.458)">
                <path id="Path_12172" data-name="Path 12172" d="M197.571,85.642a1.071,1.071,0,1,1,1.071-1.071A1.072,1.072,0,0,1,197.571,85.642Z" transform="translate(-195.829 -82.829)"/>
                <path id="Path_12173" data-name="Path 12173" d="M197.742,85.142a.4.4,0,1,0-.4-.4.4.4,0,0,0,.4.4m0,1.342a1.742,1.742,0,1,1,1.742-1.742A1.742,1.742,0,0,1,197.742,86.484Z" transform="translate(-196 -83)" fill="#f7f7f7"/>
              </g>
              <path id="Path_7519" data-name="Path 7519" d="M26,59.049a12.1,12.1,0,0,0,3.641,8.625C28.445,74.9,34.2,82.217,41.678,82.217h.16a13.733,13.733,0,0,0,24.228-.607,13.733,13.733,0,0,0,24.228.607h.16A12.63,12.63,0,0,0,102.646,69.5a11.152,11.152,0,0,0-.157-1.826,12.025,12.025,0,0,0,1.4-15.613,13.93,13.93,0,0,0,2.243-7.47,12.1,12.1,0,0,0-4.413-9.359,11.776,11.776,0,0,0,.929-4.576A12.984,12.984,0,0,0,95.6,19.174a10.44,10.44,0,0,0-7.93-11.39A12.549,12.549,0,0,0,76.515,0,12.242,12.242,0,0,0,66.064,6.274,12.242,12.242,0,0,0,55.612,0,12.548,12.548,0,0,0,44.454,7.784a10.438,10.438,0,0,0-7.929,11.392,12.984,12.984,0,0,0-7.036,11.481,11.775,11.775,0,0,0,.929,4.576A12.1,12.1,0,0,0,26,44.593a13.929,13.929,0,0,0,2.243,7.47A12.078,12.078,0,0,0,26,59.049ZM76.515,3.489a8.8,8.8,0,0,1,7.1,4.131,10.382,10.382,0,0,0-5.771,2.935A1.745,1.745,0,1,0,80.3,13.018a6.969,6.969,0,0,1,11.9,4.927v.134a11.3,11.3,0,0,0-1.738-.134A12.63,12.63,0,0,0,78.26,30.66a1.745,1.745,0,0,0,3.489,0,9.217,9.217,0,0,1,8.71-9.232c4.874,0,8.71,4.528,8.71,9.232A8.572,8.572,0,0,1,98,34.924a1.745,1.745,0,0,0,.584,2.331,8.661,8.661,0,0,1,4.068,7.341,9.154,9.154,0,0,1-8.71,9.232,1.745,1.745,0,0,0,0,3.489,11.756,11.756,0,0,0,7.431-2.74,8.572,8.572,0,0,1,1.268,4.473,8.672,8.672,0,0,1-3.175,6.663,1.745,1.745,0,0,0-.58,1.745,8.589,8.589,0,0,1,.268,2.041c0,5.407-4.89,9.777-9.3,9.174-.122-.016-.246-.034-.368-.047a1.745,1.745,0,0,0-1.777,1A10.481,10.481,0,0,1,78.255,85.7,10.87,10.87,0,0,1,67.8,74.724,10.468,10.468,0,0,1,78.255,64.272a1.745,1.745,0,1,0,0-3.489A13.9,13.9,0,0,0,67.8,65.517l0-33.118a3.489,3.489,0,0,1,3.489-3.489,1.745,1.745,0,1,0,0-3.489,6.922,6.922,0,0,0-3.489.939V12.716a9.217,9.217,0,0,1,8.712-9.226ZM33.552,37.252a1.745,1.745,0,0,0,.582-2.331,8.571,8.571,0,0,1-1.166-4.264c0-4.7,3.833-9.232,8.71-9.232a9.217,9.217,0,0,1,8.71,9.232,1.745,1.745,0,1,0,3.489,0A12.63,12.63,0,0,0,41.683,17.942a11.3,11.3,0,0,0-1.74.135c0-.046,0-.09,0-.135a6.969,6.969,0,0,1,11.886-4.924,1.745,1.745,0,0,0,2.463-2.464,10.381,10.381,0,0,0-5.771-2.935,8.8,8.8,0,0,1,7.089-4.129,9.217,9.217,0,0,1,8.71,9.232V26.369a6.922,6.922,0,0,0-3.489-.939,1.745,1.745,0,1,0,0,3.489,3.489,3.489,0,0,1,3.489,3.489V65.524A13.9,13.9,0,0,0,53.87,60.794a1.745,1.745,0,1,0,0,3.489A10.468,10.468,0,0,1,64.322,74.735,10.87,10.87,0,0,1,53.87,85.709a10.481,10.481,0,0,1-9.459-6.075,1.745,1.745,0,0,0-1.777-1c-.123.015-.246.031-.368.047-4.957.678-10.54-4.936-9.029-11.215a1.745,1.745,0,0,0-.58-1.745,8.672,8.672,0,0,1-3.169-6.674,8.572,8.572,0,0,1,1.278-4.482A11.753,11.753,0,0,0,38.194,57.3a1.745,1.745,0,0,0,0-3.489,9.157,9.157,0,0,1-8.71-9.232,8.661,8.661,0,0,1,4.068-7.331Z" transform="translate(-26 0)" fill="#ae4747" stroke="#f7f7f7" stroke-width="1"/>
              <path id="Path_7520" data-name="Path 7520" d="M116.207,179.771a5.234,5.234,0,0,1-4.982,3.648,1.745,1.745,0,1,0,0,3.489,8.723,8.723,0,0,0,8.553-7.072,12.172,12.172,0,0,0,6.544-3,1.745,1.745,0,0,0-2.323-2.6,8.723,8.723,0,0,1-14.51-6.493,1.745,1.745,0,0,0-3.489,0,12.212,12.212,0,0,0,10.207,12.026Z" transform="translate(-92.064 -137.085)" fill="#ae4747" stroke="#f7f7f7" stroke-width="1"/>
              <path id="Path_7521" data-name="Path 7521" d="M107.745,389a1.745,1.745,0,1,0,0,3.489,9.217,9.217,0,0,1,8.71,9.232,1.745,1.745,0,0,0,3.489,0A12.63,12.63,0,0,0,107.745,389Z" transform="translate(-92.064 -321.24)" fill="#ae4747" stroke="#f7f7f7" stroke-width="1"/>
              <path id="Path_7522" data-name="Path 7522" d="M130.252,309a15.644,15.644,0,0,0-13.639,7.945,1.745,1.745,0,0,0,3.03,1.718,12.167,12.167,0,0,1,10.6-6.173,1.745,1.745,0,0,0,0-3.489Z" transform="translate(-100.64 -255.175)" fill="#ae4747" stroke="#f7f7f7" stroke-width="1"/>
              <path id="Path_7523" data-name="Path 7523" d="M286.443,174.372a1.745,1.745,0,0,0,.134,2.46,12.173,12.173,0,0,0,6.544,3,8.723,8.723,0,0,0,8.553,7.072,1.745,1.745,0,1,0,0-3.489,5.234,5.234,0,0,1-4.982-3.648A12.212,12.212,0,0,0,306.9,167.74a1.745,1.745,0,1,0-3.489,0,8.71,8.71,0,0,1-14.515,6.491A1.745,1.745,0,0,0,286.443,174.372Z" transform="translate(-240.711 -137.086)" fill="#ae4747" stroke="#f7f7f7" stroke-width="1"/>
              <path id="Path_7524" data-name="Path 7524" d="M338.194,389A12.63,12.63,0,0,0,326,401.717a1.745,1.745,0,0,0,3.489,0,9.217,9.217,0,0,1,8.71-9.232,1.745,1.745,0,1,0,0-3.489Z" transform="translate(-273.743 -321.241)" fill="#ae4747" stroke="#f7f7f7" stroke-width="1"/>
              <path id="Path_7525" data-name="Path 7525" d="M318.347,318.663a1.745,1.745,0,0,0,3.032-1.718A15.643,15.643,0,0,0,307.745,309a1.745,1.745,0,0,0,0,3.489,12.168,12.168,0,0,1,10.6,6.173Z" transform="translate(-257.227 -255.175)" fill="#ae4747" stroke="#f7f7f7" stroke-width="1"/>
            </g>
          </g>
        </g>
        <g transform="matrix(1, 0, 0, 1, -35.26, -7.16)" filter="url(#Path_11053)">
          <path id="Path_11053-5" data-name="Path 11053" d="M40.267,31.075c.837,1.615-9.852,7.705-16.78,2.411-6.9,4.087-14.835,1.543-15.08-3.937C3.954,28.7.005,25.851,0,21.318c0-3.37,1.23-6.1,5.261-7.893-.5-4.021.966-6.36,3.862-8.11s5.787-.532,7.9-.834C18.784,1.486,26.517-.468,29.369.1s9.086,1.5,10.338,6.471c.18.714-.016,1.106.279,1.074C46.316,7.624,50.4,12.4,50.915,18.71s-4.4,11.361-10.651,12.363Z" transform="translate(39 77.46) rotate(6.02)" fill="#fff5f5"/>
        </g>
        <g transform="matrix(1, 0, 0, 1, -35.26, -7.16)" filter="url(#Path_11053-2)">
          <path id="Path_11053-6" data-name="Path 11053" d="M40.267,31.075c.837,1.615-9.852,7.705-16.78,2.411-6.9,4.087-14.835,1.543-15.08-3.937C3.954,28.7.005,25.851,0,21.318c0-3.37,1.23-6.1,5.261-7.893-.5-4.021.966-6.36,3.862-8.11s5.787-.532,7.9-.834C18.784,1.486,26.517-.468,29.369.1s9.086,1.5,10.338,6.471c.18.714-.016,1.106.279,1.074C46.316,7.624,50.4,12.4,50.915,18.71s-4.4,11.361-10.651,12.363Z" transform="translate(78.2 7.16) rotate(3)" fill="#fff5f5"/>
        </g>
        <g transform="matrix(1, 0, 0, 1, -35.26, -7.16)" filter="url(#Path_11053-3)">
          <path id="Path_11053-7" data-name="Path 11053" d="M40.267,31.075c.837,1.615-9.852,7.705-16.78,2.411-6.9,4.087-14.835,1.543-15.08-3.937C3.954,28.7.005,25.851,0,21.318c0-3.37,1.23-6.1,5.261-7.893-.5-4.021.966-6.36,3.862-8.11s5.787-.532,7.9-.834C18.784,1.486,26.517-.468,29.369.1s9.086,1.5,10.338,6.471c.18.714-.016,1.106.279,1.074C46.316,7.624,50.4,12.4,50.915,18.71s-4.4,11.361-10.651,12.363Z" transform="translate(192.95 34.38) rotate(3)" fill="#fff5f5"/>
        </g>
        <g transform="matrix(1, 0, 0, 1, -35.26, -7.16)" filter="url(#Path_11053-4)">
          <path id="Path_11053-8" data-name="Path 11053" d="M40.267,31.075c.837,1.615-9.852,7.705-16.78,2.411-6.9,4.087-14.835,1.543-15.08-3.937C3.954,28.7.005,25.851,0,21.318c0-3.37,1.23-6.1,5.261-7.893-.5-4.021.966-6.36,3.862-8.11s5.787-.532,7.9-.834C18.784,1.486,26.517-.468,29.369.1s9.086,1.5,10.338,6.471c.18.714-.016,1.106.279,1.074C46.316,7.624,50.4,12.4,50.915,18.71s-4.4,11.361-10.651,12.363Z" transform="translate(202.95 121.16) rotate(3)" fill="#fff5f5"/>
        </g>
        <path id="Path_12175" data-name="Path 12175" d="M6.788-2.3,8.818-7.4h1.627L7.205,0H5.872L5.223-5.059,2.83,0H1.49L.813-7.4H2.345l.28,5.018L4.963-7.4H6.187ZM11.99,0H10.37l1.285-7.4h1.62Zm-.1-9.29a.914.914,0,0,1,.246-.643.9.9,0,0,1,.663-.28.862.862,0,0,1,.66.243.84.84,0,0,1,.263.625.864.864,0,0,1-.256.643.939.939,0,0,1-.653.267.876.876,0,0,1-.656-.236A.813.813,0,0,1,11.888-9.29ZM15.524,0H13.9l1.825-10.5h1.62Zm3.534,0h-1.62l1.825-10.5h1.62Z" transform="translate(15.742 95.387)" fill="#ae4747"/>
        <path id="Path_12176" data-name="Path 12176" d="M3.336-1.183a1.556,1.556,0,0,0,1.029-.338,1.552,1.552,0,0,0,.571-.919l1.531-.007a2.618,2.618,0,0,1-.53,1.333,3.08,3.08,0,0,1-1.166.937A3.234,3.234,0,0,1,3.288.137a2.786,2.786,0,0,1-1.62-.492A2.721,2.721,0,0,1,.69-1.678,4.232,4.232,0,0,1,.485-3.562L.506-3.8a4.84,4.84,0,0,1,.625-1.945A3.652,3.652,0,0,1,2.447-7.089a3.3,3.3,0,0,1,1.791-.444,2.588,2.588,0,0,1,1.921.8,2.813,2.813,0,0,1,.718,2H5.359a1.653,1.653,0,0,0-.311-1.039,1.138,1.138,0,0,0-.9-.431,1.641,1.641,0,0,0-1.5.807,4.5,4.5,0,0,0-.588,2.352Q2.017-1.21,3.336-1.183ZM11.683,0a2.194,2.194,0,0,1-.068-.69A2.743,2.743,0,0,1,9.639.137a2.266,2.266,0,0,1-1.6-.619,1.908,1.908,0,0,1-.591-1.535A2.265,2.265,0,0,1,8.463-3.855a4.4,4.4,0,0,1,2.57-.67l1.053.014.1-.506a1.526,1.526,0,0,0,0-.5.89.89,0,0,0-.978-.759,1.474,1.474,0,0,0-.913.263,1.139,1.139,0,0,0-.482.742l-1.62.014a2.028,2.028,0,0,1,.485-1.2,2.878,2.878,0,0,1,1.162-.8,3.934,3.934,0,0,1,1.531-.273,2.587,2.587,0,0,1,1.887.728,2.157,2.157,0,0,1,.561,1.815l-.567,3.466-.055.615a2.185,2.185,0,0,0,.1.786L13.289,0ZM10.015-1.189a1.786,1.786,0,0,0,.95-.236,2.5,2.5,0,0,0,.745-.646l.253-1.4-.772-.007a2.715,2.715,0,0,0-1.463.345,1.266,1.266,0,0,0-.622.947.837.837,0,0,0,.2.721A.986.986,0,0,0,10.015-1.189ZM17.486-7.4l-.164.868a2.822,2.822,0,0,1,2.194-1,1.788,1.788,0,0,1,1.538.742,2.96,2.96,0,0,1,.369,2.013L20.624,0H19l.807-4.8a2.456,2.456,0,0,0,.007-.547.872.872,0,0,0-.971-.834,1.969,1.969,0,0,0-1.62.909L16.3,0h-1.62l1.278-7.4ZM24.3-9.563l-.574,2.591H22.654l.554-3.527h1.237Zm3.473.369L27.46-7.4h1.265l-.212,1.23H27.241l-.7,4.143a1.416,1.416,0,0,0-.007.308q.041.444.547.465a3.088,3.088,0,0,0,.574-.062l-.109,1.3A3.715,3.715,0,0,1,26.53.13a1.513,1.513,0,0,1-1.268-.578,2.09,2.09,0,0,1-.332-1.494l.69-4.225H24.438l.219-1.23h1.176l.314-1.8Z" transform="translate(53.023 23.837)" fill="#ae4747"/>
        <path id="Path_12177" data-name="Path 12177" d="M6.788-2.3,8.818-7.4h1.627L7.205,0H5.872L5.223-5.059,2.83,0H1.49L.813-7.4H2.345l.28,5.018L4.963-7.4H6.187Zm3.869-1.422A4.867,4.867,0,0,1,11.3-5.7,3.793,3.793,0,0,1,12.64-7.075a3.319,3.319,0,0,1,1.818-.458,2.825,2.825,0,0,1,1.641.506,2.809,2.809,0,0,1,1.008,1.347,4.276,4.276,0,0,1,.222,1.9A4.957,4.957,0,0,1,16.69-1.7,3.779,3.779,0,0,1,15.336-.318a3.367,3.367,0,0,1-1.829.455,2.812,2.812,0,0,1-1.63-.5,2.819,2.819,0,0,1-1.008-1.34,4.221,4.221,0,0,1-.232-1.876Zm1.593.937a1.953,1.953,0,0,0,.379,1.152,1.214,1.214,0,0,0,.96.455,1.7,1.7,0,0,0,1.4-.643A3.381,3.381,0,0,0,15.7-3.637l.041-.67a2.367,2.367,0,0,0-.349-1.374,1.224,1.224,0,0,0-1.012-.526,1.771,1.771,0,0,0-1.641,1.019,3.805,3.805,0,0,0-.458,1.463A5.724,5.724,0,0,0,12.25-2.789ZM20.85-7.4l-.164.868a2.822,2.822,0,0,1,2.194-1,1.788,1.788,0,0,1,1.538.742,2.96,2.96,0,0,1,.369,2.013L23.987,0h-1.62l.807-4.8a2.456,2.456,0,0,0,.007-.547.872.872,0,0,0-.971-.834,1.969,1.969,0,0,0-1.62.909L19.667,0h-1.62l1.278-7.4Zm6.815-2.16-.574,2.591H26.018l.554-3.527h1.237Zm3.473.369-.314,1.8h1.265l-.212,1.23H30.6l-.7,4.143a1.416,1.416,0,0,0-.007.308q.041.444.547.465a3.088,3.088,0,0,0,.574-.062l-.109,1.3A3.715,3.715,0,0,1,29.894.13a1.513,1.513,0,0,1-1.268-.578,2.09,2.09,0,0,1-.332-1.494l.69-4.225H27.8l.219-1.23H29.2l.314-1.8Z" transform="translate(166.742 51.1)" fill="#ae4747"/>
        <path id="Path_12178" data-name="Path 12178" d="M3.336-1.183a1.556,1.556,0,0,0,1.029-.338,1.552,1.552,0,0,0,.571-.919l1.531-.007a2.618,2.618,0,0,1-.53,1.333,3.08,3.08,0,0,1-1.166.937A3.234,3.234,0,0,1,3.288.137a2.786,2.786,0,0,1-1.62-.492A2.721,2.721,0,0,1,.69-1.678,4.232,4.232,0,0,1,.485-3.562L.506-3.8a4.84,4.84,0,0,1,.625-1.945A3.652,3.652,0,0,1,2.447-7.089a3.3,3.3,0,0,1,1.791-.444,2.588,2.588,0,0,1,1.921.8,2.813,2.813,0,0,1,.718,2H5.359a1.653,1.653,0,0,0-.311-1.039,1.138,1.138,0,0,0-.9-.431,1.641,1.641,0,0,0-1.5.807,4.5,4.5,0,0,0-.588,2.352Q2.017-1.21,3.336-1.183ZM11.683,0a2.194,2.194,0,0,1-.068-.69A2.743,2.743,0,0,1,9.639.137a2.266,2.266,0,0,1-1.6-.619,1.908,1.908,0,0,1-.591-1.535A2.265,2.265,0,0,1,8.463-3.855a4.4,4.4,0,0,1,2.57-.67l1.053.014.1-.506a1.526,1.526,0,0,0,0-.5.89.89,0,0,0-.978-.759,1.474,1.474,0,0,0-.913.263,1.139,1.139,0,0,0-.482.742l-1.62.014a2.028,2.028,0,0,1,.485-1.2,2.878,2.878,0,0,1,1.162-.8,3.934,3.934,0,0,1,1.531-.273,2.587,2.587,0,0,1,1.887.728,2.157,2.157,0,0,1,.561,1.815l-.567,3.466-.055.615a2.185,2.185,0,0,0,.1.786L13.289,0ZM10.015-1.189a1.786,1.786,0,0,0,.95-.236,2.5,2.5,0,0,0,.745-.646l.253-1.4-.772-.007a2.715,2.715,0,0,0-1.463.345,1.266,1.266,0,0,0-.622.947.837.837,0,0,0,.2.721A.986.986,0,0,0,10.015-1.189ZM17.486-7.4l-.164.868a2.822,2.822,0,0,1,2.194-1,1.788,1.788,0,0,1,1.538.742,2.96,2.96,0,0,1,.369,2.013L20.624,0H19l.807-4.8a2.456,2.456,0,0,0,.007-.547.872.872,0,0,0-.971-.834,1.969,1.969,0,0,0-1.62.909L16.3,0h-1.62l1.278-7.4Z" transform="translate(180.742 137.665)" fill="#ae4747"/>
      </g>
      <rect id="Rectangle_4068" data-name="Rectangle 4068" width="296" height="201" fill="none"/>
    </g>
    <path id="Path_12174" data-name="Path 12174" d="M1.968-17.184H7.776a9.674,9.674,0,0,1,4.68,1.08,7.557,7.557,0,0,1,3.072,3.024,9.088,9.088,0,0,1,1.08,4.488A9.088,9.088,0,0,1,15.528-4.1,7.557,7.557,0,0,1,12.456-1.08,9.674,9.674,0,0,1,7.776,0H1.968ZM7.632-3.072A5.725,5.725,0,0,0,11.88-4.548a5.49,5.49,0,0,0,1.464-4.044,5.49,5.49,0,0,0-1.464-4.044,5.725,5.725,0,0,0-4.248-1.476H5.208v11.04Zm16.92-14.112h3.72L34.728,0H31.152l-1.44-4.1H23.136L21.7,0H18.12Zm4.1,10.1L27.144-11.4l-.624-2.064h-.192L25.7-11.4,24.168-7.08Zm11.3-.912-5.784-9.192H38.04L41.472-11.5h.192l3.312-5.688h3.912L43.2-7.992V0H39.96Zm12-9.192h5.808a9.674,9.674,0,0,1,4.68,1.08A7.557,7.557,0,0,1,65.52-13.08,9.088,9.088,0,0,1,66.6-8.592,9.088,9.088,0,0,1,65.52-4.1,7.557,7.557,0,0,1,62.448-1.08,9.674,9.674,0,0,1,57.768,0H51.96ZM57.624-3.072a5.725,5.725,0,0,0,4.248-1.476,5.49,5.49,0,0,0,1.464-4.044,5.49,5.49,0,0,0-1.464-4.044,5.725,5.725,0,0,0-4.248-1.476H55.2v11.04ZM70.44-17.184H76.7a6.263,6.263,0,0,1,2.988.7,5.024,5.024,0,0,1,2.028,1.932,5.451,5.451,0,0,1,.72,2.8A4.53,4.53,0,0,1,81.4-8.82a5.935,5.935,0,0,1-2.628,1.86l-.024.168,4.608,6.6V0h-3.72l-4.44-6.456H73.68V0H70.44Zm6.24,7.752a2.483,2.483,0,0,0,1.8-.672,2.267,2.267,0,0,0,.7-1.7,2.354,2.354,0,0,0-.66-1.68,2.347,2.347,0,0,0-1.788-.7H73.68v4.752Zm9.744-7.752h10.9v3.072H89.664v3.984h6.888v3.072H89.664v3.984H97.32V0h-10.9Zm19.824,0h3.72L116.424,0h-3.576l-1.44-4.1h-6.576L103.392,0H99.816Zm4.1,10.1L108.84-11.4l-.624-2.064h-.192L107.4-11.4l-1.536,4.32Zm9.168-10.1H123.7l4.56,12.072h.192l4.56-12.072h4.2V0h-3.216V-8.472l.192-2.856h-.192L129.624,0H127.1l-4.392-11.328h-.192l.192,2.856V0H119.52Z" transform="translate(115.526 329)" fill="#a42d2d"/>
  </g>
</svg>
