<svg xmlns="http://www.w3.org/2000/svg" xmlns:xlink="http://www.w3.org/1999/xlink" width="247.321" height="159.608" viewBox="0 0 247.321 159.608"><defs><linearGradient id="a" x1="0.5" y1="1" x2="0.5" gradientUnits="objectBoundingBox"><stop offset="0" stop-color="gray" stop-opacity="0.251"/><stop offset="0.54" stop-color="gray" stop-opacity="0.122"/><stop offset="1" stop-color="gray" stop-opacity="0.102"/></linearGradient></defs><g transform="translate(-67.881 -170.945)"><g transform="translate(0 8)"><rect width="166" height="10" rx="2" transform="translate(68 185)" fill="#d1d1d1"/><rect width="166" height="9" rx="2" transform="translate(68 200)" fill="#d1d1d1"/><rect width="166" height="10" rx="2" transform="translate(68 215)" fill="#d1d1d1"/><rect width="98" height="10" rx="2" transform="translate(68 232)" fill="#d1d1d1"/><text transform="translate(88 283)" fill="#8b8b8b" font-size="10" font-family="Roboto-Medium, Roboto" font-weight="500" opacity="0.33"><tspan x="0" y="0" xml:space="preserve"> --------------------------</tspan></text><g transform="translate(67.881 262.449)" opacity="0.33"><g transform="translate(0 0)"><g transform="translate(0 0)"><path d="M106.644,4.166,102.622.144a.5.5,0,0,0-.7,0l-.3.3a.5.5,0,0,0,0,.7L105,4.517,101.622,7.9a.5.5,0,0,0,0,.7l.3.3a.5.5,0,0,0,.7,0l4.026-4.026a.5.5,0,0,0,0-.7Z" transform="translate(-101.478)" fill="#8b8b8b"/></g></g><g transform="translate(7.787 0)"><g transform="translate(0)"><path d="M106.644,4.166,102.622.144a.5.5,0,0,0-.7,0l-.3.3a.5.5,0,0,0,0,.7L105,4.517,101.622,7.9a.5.5,0,0,0,0,.7l.3.3a.5.5,0,0,0,.7,0l4.026-4.026a.5.5,0,0,0,0-.7Z" transform="translate(-101.478)" fill="#8b8b8b"/></g></g></g></g><g transform="translate(249.822 242)"><path d="M119.338,357.069a8.606,8.606,0,0,0,3.324-1.794c-.444-.259-.737-.439-.737-.439s2.12-2.132,1.864-3.526.509-7.749.509-7.749,1.187-.9.551-3.2a14.7,14.7,0,0,1-.636-2.871,15.317,15.317,0,0,0,.127-3.608,9.118,9.118,0,0,1-.256-2.223l-.507-5.267-.274-1.97c-.462,1.51-1.235,2.509-2.446,1.66-2.8-1.969-.721-8.406-.721-8.406s.36-1.385.613-2.543l-.139-.369s.085-1.434-.636-1.926,0-11.112,0-11.112l.24-6.439h0V295.1a5.966,5.966,0,0,1,3.087-5.015l.173-.09c.01-.059.02-.117.029-.179.137-.835.29-1.84.391-2.835.011-.108.021-.214.031-.326a6.6,6.6,0,0,1-5.061-6.343,6.34,6.34,0,0,1,.238-1.724c.011-.042.024-.085.037-.126-.388-.388-.706-.5-.736-.248-.042.369-.36-.1-.382-.471s-.106-.1-.326-.1-.254-.39.085-.594-.064-.431-.163-.471-.106-.431,0-.431a.106.106,0,0,0,.038-.011h.011a.578.578,0,0,0,.054-.028h0l.067-.042.018-.011.073-.052h0c.194-.139.418-.326.418-.326l-.106-.082c-.106-.082.127-.287.326-.307h.041c.2-.031.517-.145.315-.24-.046-.021-.065-.046-.068-.072h0a.1.1,0,0,1,.036-.075h0a.429.429,0,0,1,.1-.069h0l.06-.028h0l.059-.02h0a.438.438,0,0,1,.064-.013h.119a4.6,4.6,0,0,0,.8-.284v-.431l.357-.166h0l.3-.13-.106-.4h.933l-.127-.349.429-.083.1-.02v-.163l.572-.225v-.246h.688l-.264-.206h.53c1.385-.949,5.284-.881,6.839-.362s2.008.9,4.126,5.358c1.355,2.848-.375,5.609-1.9,7.15h0c-.051.052-.1.1-.152.15l-.021.021-.135.129-.013.011-.145.132-.016.013-.127.111-.018.015-.137.113h0l-.124.1-.021.016a2.607,2.607,0,0,1-.237.163l-.023.015-.1.064h-.008c-.033.021-.065.039-.1.057l-.02.011-.073.039h-.016l-.077.034h-.013l-.054.02h-.015a.4.4,0,0,1-.054.011h-.057a.079.079,0,0,1-.029-.013,2.034,2.034,0,0,0-.63-.2l-.163.13c-.078.064-.163.124-.241.183-.02.119-.036.24-.051.365a6.565,6.565,0,0,0,.153,2.388c.016.06.034.121.052.181a3.21,3.21,0,0,1,1.761,1.342,46.313,46.313,0,0,1,2.629,4.511,6.53,6.53,0,0,0,.729,2.363c.46.453-.848,8.569-.848,8.569s1.569,3.115.163,3.67.127,1,.127,1-.424.943.382,1.024,1.272,1.518,1.272,1.518l2.5,2.706-.63.215c.054.085.109.173.163.272a10.3,10.3,0,0,1,1.267,7.666c-1.187,4.921-1.527,5.986-1.484,6.85s-1.355,4.265-1.016,5.043.528,3.486-.054,4.184a.68.68,0,0,0,.222,1.106s-.868,1.026-.434,1.722-.54,9.308-.54,9.308-1.569,2.215-1.484,2.911.806,1.067.163,1.354-.382.7-.382.7l-.163.013c.145.131.284.268.411.406a3.851,3.851,0,0,1,.347.437,2.031,2.031,0,0,1,.143.254c.571,1.256-.949,2.215-.949,2.215h-.519a36.783,36.783,0,0,1-7.615-.326l-.036.023s-7.462.4-8.944-.625S117.769,357.249,119.338,357.069Zm7.641.36.054-.008.085-.015h.06l.095-.015h.039c.07-.01.14-.02.209-.026a3.412,3.412,0,0,0,.966-.3c.215-.1.434-.212.652-.336l-.431-.01a3.031,3.031,0,0,1-.326-.011l-.194-.01h0c-.489,0-1.191.065-1.375.4a1.7,1.7,0,0,1,.166.329Z" transform="translate(-116.556 -271.331)" fill="url(#a)"/><path d="M171.64,349.9c.122,0,9.745,1.835,7.339-1.427a5.851,5.851,0,0,1-.979-2.045,6.742,6.742,0,0,1-.147-2.375,8.377,8.377,0,0,1,.8-2.756s-7.951-1.753-6.687-.408c.551.587.537,2.38.354,4.211-.1.99-.245,1.99-.377,2.82C171.757,349.081,171.6,349.9,171.64,349.9Z" transform="translate(-165.253 -329.122)" fill="#ffccd0"/><path d="M154.572,783.22s-2.487,2.293-4,2.473-3.629.83-2.2,1.85,8.6.621,8.6.621,1.662-1.086.775-2.456A9.48,9.48,0,0,0,154.572,783.22Z" transform="translate(-140.031 -699.73)" fill="#3f3d56"/><path d="M148.374,787.542a2.645,2.645,0,0,0,.894.347c2.389.569,7.71.274,7.71.274s1.662-1.086.775-2.456a9.48,9.48,0,0,0-3.18-2.487s-2.487,2.293-4,2.473l-.214.028C148.878,785.932,147.013,786.57,148.374,787.542Z" transform="translate(-140.031 -699.73)" opacity="0.1"/><path d="M194.646,800.372a2.644,2.644,0,0,0,.894.347l.163-.008s1.43-.933.928-2.161C195.15,798.762,193.286,799.4,194.646,800.372Z" transform="translate(-186.303 -712.559)" opacity="0.1"/><path d="M202.822,781.5s-2.487,2.283-4,2.471-3.629.832-2.2,1.851,8.6.62,8.6.62,1.662-1.085.775-2.447A9.669,9.669,0,0,0,202.822,781.5Z" transform="translate(-196.15 -698.29)" fill="#3f3d56"/><path d="M202.822,781.5s-2.487,2.283-4,2.471-3.629.832-2.2,1.851,8.6.62,8.6.62,1.662-1.085.775-2.447A9.669,9.669,0,0,0,202.822,781.5Z" transform="translate(-196.15 -698.29)" opacity="0.1"/><path d="M122.1,579.806a4.675,4.675,0,0,0,2.057.421h.015l.178.01c.1,0,.212.01.326.011,2.386.077,5.464-.2,5.464-.2s-.245-.408.367-.693-.082-.652-.163-1.346,1.421-2.9,1.421-2.9.938-8.563.52-9.256.418-1.713.418-1.713a.686.686,0,0,1-.214-1.1c.561-.693.377-3.384.051-4.159s1.019-4.159.979-5.016.285-1.916,1.427-6.81a10.541,10.541,0,0,0-1.218-7.63,7.721,7.721,0,0,0-.616-.933h-7.788l-.2,1.833-.01.1c-.065.618-.145,1.367-.235,2.226C123.8,553,121.156,579.119,122.1,579.806Z" transform="translate(-112.986 -494.924)" fill="#3f3d56"/><path d="M136.628,589.731a5.119,5.119,0,0,0,2.249.431,5.494,5.494,0,0,1,.815.011s.122-.279,1.59-1.3,0-3.344,0-3.344l1.527-6.239a6.28,6.28,0,0,0,.057-2.644.928.928,0,0,1,.7-1.223.859.859,0,0,1,0-1.509c1.029-.856,1.173-4,1.173-4s1.468-1.957.815-2.61.408-2.2.408-2.2,1.549-2.447,1.386-3.262-2.365-.53-1.713-3.14-3.368.979-3.368.979l-2.629-9.32C138.789,558.424,135.6,588.988,136.628,589.731Z" transform="translate(-127.508 -504.849)" opacity="0.1"/><path d="M134.827,581.517s4.4,2.773,4.689,2.243c.178-.326.845-.393,1.323-.395h.015c.284,0,.5.021.5.021s.122-.279,1.59-1.3,0-3.344,0-3.344l1.527-6.239a6.24,6.24,0,0,0,.064-2.644.928.928,0,0,1,.7-1.223.859.859,0,0,1,0-1.509c1.029-.856,1.173-4,1.173-4s1.468-1.957.815-2.61.408-2.2.408-2.2,1.549-2.447,1.386-3.262,0-.652.652-3.262c.489-1.967-.776-6.389-1.432-8.447-.214-.674-.362-1.094-.362-1.094l-6.069,1.222-6.082,1.225-.163,2.161.046.342.815,6.035.489,5.237a9.277,9.277,0,0,0,.245,2.2,15.753,15.753,0,0,1-.122,3.588,15.059,15.059,0,0,0,.612,2.854c.612,2.284-.53,3.181-.53,3.181s-.734,6.32-.489,7.707S134.827,581.517,134.827,581.517Z" transform="translate(-129.663 -498.061)" fill="#3f3d56"/><path d="M174.705,690c-.612.1-3.771.163-2.936.551S174.705,690,174.705,690Z" transform="translate(-160.593 -621.714)" opacity="0.1"/><path d="M173.035,700.062a13.231,13.231,0,0,0-1.672-.47,8.518,8.518,0,0,0-1.081,0c-.367.086-1.054.326-.669.471s1.191.02,1.654.163A5.488,5.488,0,0,0,173.035,700.062Z" transform="translate(-158.576 -629.715)" opacity="0.1"/><path d="M150.332,696.563c-.163-.021-1.427-.347-1.326,0S150.332,696.563,150.332,696.563Z" transform="translate(-132.528 -627.073)" opacity="0.1"/><path d="M137.864,634.63c-.122.163-.835,1.794-1.182,1.794S137.864,634.63,137.864,634.63Z" transform="translate(-118.043 -575.374)" opacity="0.1"/><path d="M176.136,340.893c.551.587.537,2.38.354,4.211a6.54,6.54,0,0,0,1.678.219c1.447,0,1.561-1.825,2.642-2.619.171-1.59,2.013-1.4,2.013-1.4S174.872,339.548,176.136,340.893Z" transform="translate(-169.424 -329.122)" opacity="0.1"/><path d="M164.536,295.162a6.524,6.524,0,1,0,.228-1.714A6.524,6.524,0,0,0,164.536,295.162Z" transform="translate(-162.315 -285.812)" fill="#ffccd0"/><path d="M171.64,379.914c.122,0,9.745,1.835,7.339-1.427a5.85,5.85,0,0,1-.979-2.045,7.209,7.209,0,0,0-4.33.414l-1.1.816a3.785,3.785,0,0,0-.634.263C171.757,379.09,171.6,379.914,171.64,379.914Z" transform="translate(-165.253 -359.131)" opacity="0.1"/><path d="M130.97,543.753l.046.343c.259.088,1.452.419,4.3-.75.458-.188,1.024-.409,1.652-.652,2.024-.775,4.712-1.75,6.675-2.447.941-.338,1.716-.613,2.171-.773a7.723,7.723,0,0,0-.617-.933h-7.788l-.2,1.833-6.082,1.218Z" transform="translate(-125.073 -494.957)" opacity="0.1"/><path d="M133.7,377.857s4.322-1.876,6.075.938a46.486,46.486,0,0,1,2.528,4.485,6.367,6.367,0,0,0,.693,2.324c.449.449-.815,8.522-.815,8.522s1.509,3.1.163,3.649.122,1,.122,1-.408.938.367,1.019,1.223,1.509,1.223,1.509l2.406,2.691s-7.856,2.773-10.942,4.037-4.226.775-4.348.734-2-5.179-2-5.179.082-1.427-.612-1.916,0-11.05,0-11.05l.238-6.594a5.961,5.961,0,0,1,2.97-4.986,4.126,4.126,0,0,1,.829-.367Z" transform="translate(-125.271 -359.97)" fill="#f17878"/><path d="M195.2,445.606l-.856,1.509s6.85,1.957,7.119.082c.041-.274-2.675-2.447-2.675-2.447Z" transform="translate(-191.06 -416.465)" fill="#e16565"/><path d="M195.2,445.606l-.856,1.509s6.85,1.957,7.119.082c.041-.274-2.675-2.447-2.675-2.447Z" transform="translate(-189.887 -416.465)" fill="#d56161" opacity="0.1"/><path d="M163.915,497.24s-3.262-1.06-2.569-.2S163.915,497.24,163.915,497.24Z" transform="translate(-148.11 -459.943)" opacity="0.1"/><path d="M186.182,501.46s-1.668,2.084-2.068,1.3S186.182,501.46,186.182,501.46Z" transform="translate(-174.099 -463.924)" opacity="0.1"/><path d="M164.535,293.474a4.218,4.218,0,0,1,.574.729c.571.9,1,.918,1,.918s0,1.941.264,2.143,1.774-.86,1.794-1.124,1.864-3.14,2.665.509l.15,2.957s2.642.326,3.994.621a6.524,6.524,0,1,0-10.438-6.754Z" transform="translate(-162.086 -285.838)" opacity="0.1"/><path d="M155.583,274.615h-.51l.256.2h-.664v.245l-.55.223v.163l-.511.1.122.346h-.9l.1.393-.612.281V277a3.6,3.6,0,0,1-.815.285c-.2,0-.541.184-.326.285s-.163.225-.341.245-.408.225-.3.307l.1.082a3.577,3.577,0,0,1-.652.468c-.1,0-.1.388,0,.429s.489.264.163.468-.285.592-.082.592.285-.266.307.1.326.837.367.47.672.041,1.243.938,1,.917,1,.917,0,1.941.264,2.143,1.774-.858,1.794-1.124,1.864-3.14,2.665.51l.148,2.955a32.485,32.485,0,0,1,4.751.856c.347.3,5.573-3.915,3.534-8.346s-2.474-4.812-3.97-5.327S156.915,273.669,155.583,274.615Z" transform="translate(-148.951 -273.465)" fill="#3f3d56"/><path d="M201.665,446.3a25.291,25.291,0,0,0,.326,4.118c.285.816-1.957,8.441-1.957,8.441s-1.794,4.021-1.468,5.26-.122,9.175-2.813,7.217-.693-8.359-.693-8.359.856-3.565.856-4,.9-7.046.9-7.046a9.933,9.933,0,0,0,.489-3.466c-.2-1.3-.285-3.711-.285-3.711Z" transform="translate(-191.609 -416.465)" fill="#ffccd0"/><path d="M195.687,416.25s3.272,1.06,3.409,3.955a12.585,12.585,0,0,1,0,3.14s-4.876-2.447-7.119-.082l.23-6.4Z" transform="translate(-188.364 -392.614)" opacity="0.1"/><path d="M197.687,416.25s3.272,1.06,3.409,3.955a12.589,12.589,0,0,1,0,3.14s-4.877-2.447-7.119-.082l.23-6.4Z" transform="translate(-190.69 -392.614)" fill="#e16565"/><g transform="translate(0.947 1.354)" opacity="0.1"><path d="M242.593,294.73c.073.091-.23.189-.393.207a.266.266,0,0,0-.049.011c-.011-.1.233-.215.4-.215Z" transform="translate(-240.941 -292.267)"/><path d="M235.826,289.711s-.15.07-.326.14v-.241l.326-.15Z" transform="translate(-233.078 -287.857)"/><path d="M246.25,298l.083.067s-.188.163-.365.294l-.062-.049c-.1-.082.122-.285.3-.307Z" transform="translate(-245.278 -295.004)"/><path d="M176.827,267.608l-.367.166-.06-.235h.409Z" transform="translate(-173.467 -266.46)"/><path d="M166.241,325.22l.148,2.955a32.484,32.484,0,0,1,4.751.856c.108.1.693-.251,1.385-.909-.825.866-1.585,1.346-1.711,1.235a32.484,32.484,0,0,0-4.751-.856l-.148-2.955c-.468-2.14-1.3-2.037-1.9-1.533C164.61,323.307,165.677,322.67,166.241,325.22Z" transform="translate(-158.117 -316.249)"/><path d="M221.37,303.385c.326-.2-.06-.427-.163-.468s-.1-.429,0-.429a.759.759,0,0,0,.251-.148c0,.108.021.228.075.251.1.041.489.264.163.468s-.285.592-.082.592.285-.266.307.1.326.837.367.47.672.041,1.243.938,1,.917,1,.917,0,1.941.264,2.143c.184.139.957-.326,1.427-.708-.24.356-1.51,1.218-1.753,1.034s-.264-2.143-.264-2.143-.429-.02-1-.917-1.2-1.3-1.243-.938-.347-.1-.367-.47-.1-.1-.307-.1S221.044,303.589,221.37,303.385Z" transform="translate(-221.13 -298.636)"/><path d="M171.969,265.013h-.442l-.007-.02.411-.083Z" transform="translate(-167.813 -264.259)"/><path d="M167,260.971v-.051h.126Z" transform="translate(-162.233 -260.92)"/></g></g><g transform="matrix(0.998, 0.07, -0.07, 0.998, 243.476, 165.673)"><g transform="translate(6.17 6.37)"><path d="M61.63,22.869a11.344,11.344,0,0,0,.161-1.587,11.418,11.418,0,0,0-7.542-10.734A11.39,11.39,0,0,0,38.244,7.8a11.335,11.335,0,0,0-5.7-1.569,11.454,11.454,0,0,0-10.427,6.748,11.339,11.339,0,0,0-5.2-1.3,11.457,11.457,0,0,0-6.239,21.074,9.5,9.5,0,0,0-1.216,4.587A9.5,9.5,0,0,0,22.114,46.4a11.337,11.337,0,0,0,17.863-.179,11.411,11.411,0,0,0,18.285-.9c.124,0,.252.041.376.041a11.444,11.444,0,0,0,2.991-22.5Z" transform="translate(-5.453 -5.653)" fill="#fff"/></g><g transform="translate(6.17 22.578)"><path d="M55.5,21.961c-.124,0-.252-.037-.376-.041a11.411,11.411,0,0,1-18.285.9A11.337,11.337,0,0,1,18.975,23,9.446,9.446,0,0,1,6.461,15.249a8.352,8.352,0,0,0-.133.977,9.5,9.5,0,0,0,12.647,9.065,11.337,11.337,0,0,0,17.863-.179,11.411,11.411,0,0,0,18.285-.9c.124,0,.252.041.376.041A11.47,11.47,0,0,0,66.969,12.786a11.159,11.159,0,0,0-.11-1.248A11.425,11.425,0,0,1,55.5,21.961Z" transform="translate(-2.314 -0.748)" fill="#ccc"/><path d="M10.683,17.783a11.424,11.424,0,0,1-5.1-8.6,11.709,11.709,0,0,0-.128,1.284,11.373,11.373,0,0,0,4.532,9.023A10.367,10.367,0,0,1,10.683,17.783Z" transform="translate(-5.453 -9.186)" fill="#ccc"/></g><g transform="translate(6.17 6.37)"><path d="M12.334,39.058a9.514,9.514,0,0,1,1.216-4.587A11.433,11.433,0,0,1,24.986,14.695,11.346,11.346,0,0,1,41.115,9.516a11.027,11.027,0,0,1,11.1-1.151A11.314,11.314,0,0,0,38.244,7.8a11.341,11.341,0,0,0-16.125,5.179,11.339,11.339,0,0,0-5.2-1.3,11.457,11.457,0,0,0-6.239,21.074A9.478,9.478,0,0,0,15.692,46.3,9.55,9.55,0,0,1,12.334,39.058Z" transform="translate(-5.453 -5.653)" fill="#ccc"/></g><g transform="translate(34.977 57.995)"><path d="M18.427,20.922a3.55,3.55,0,1,1-3.55-3.55A3.549,3.549,0,0,1,18.427,20.922Z" transform="translate(-10.152 -22.042)" fill="none" stroke="#020000" stroke-width="0.5"/></g><g transform="translate(29.068 74.683)"><path d="M14.242,18.829a1.457,1.457,0,1,1-1.457-1.457A1.457,1.457,0,0,1,14.242,18.829Z" transform="translate(-10.152 -22.042)" fill="none" stroke="#020000" stroke-width="0.5"/></g><g transform="translate(31.718 67.497)"><path d="M16.085,19.75a2.378,2.378,0,1,1-2.378-2.378A2.378,2.378,0,0,1,16.085,19.75Z" transform="translate(-10.152 -22.042)" fill="none" stroke="#020000" stroke-width="0.5"/></g><g transform="translate(5.253 5.453)"><path d="M31.69,52.3a12.28,12.28,0,0,1-9.161-4.129,10.116,10.116,0,0,1-2.739.4A10.534,10.534,0,0,1,9.267,38.056a10.16,10.16,0,0,1,.959-4.289,12.374,12.374,0,0,1,7.413-22.29,12.172,12.172,0,0,1,4.78,1,12.412,12.412,0,0,1,10.845-6.45,12.1,12.1,0,0,1,5.642,1.413,12.3,12.3,0,0,1,16.643,3.069A12.393,12.393,0,0,1,63.43,22a6.549,6.549,0,0,1-.069.945A12.356,12.356,0,0,1,59.416,47a12.311,12.311,0,0,1-18.7,1.33A12.26,12.26,0,0,1,31.69,52.3Zm-8.546-6.253.4.491a10.424,10.424,0,0,0,16.432-.165l.7-.895.729.872a10.491,10.491,0,0,0,16.817-.826l.284-.422.789.046h.018a10.516,10.516,0,0,0,2.8-20.675l-.78-.216.115-.8A10.194,10.194,0,0,0,61.6,22a10.57,10.57,0,0,0-6.941-9.872l-.271-.1-.161-.243a10.58,10.58,0,0,0-8.629-4.5,10.471,10.471,0,0,0-6.106,1.968l-.472.339-.509-.294a10.434,10.434,0,0,0-5.243-1.44,10.562,10.562,0,0,0-9.588,6.207l-.4.872-.853-.431a10.43,10.43,0,0,0-4.785-1.2A10.542,10.542,0,0,0,11.9,32.7l.716.459-.408.748A8.539,8.539,0,0,0,11.1,38.056a8.587,8.587,0,0,0,11.436,8.2Z" transform="translate(-5.253 -5.453)" fill="#020000" stroke="#fff" stroke-width="1"/></g></g></g></svg>