<svg xmlns="http://www.w3.org/2000/svg" xmlns:xlink="http://www.w3.org/1999/xlink" width="870px" height="540px" viewBox="0 0 870 540" preserveAspectRatio="xMidYMid meet"  ><rect id="svgEditorBackground" x="0" y="0" width="870" height="540" style="fill: none; stroke: none;"/><defs id="svgEditorDefs"><linearGradient gradientUnits="objectBoundingBox" id="lgrd2-peachpuff-sienna-v" spreadMethod="pad" x1="0%" x2="0%" y1="0%" y2="100%"><stop offset="0%" style="stop-color:peachpuff;  stop-opacity:0.84;"/><stop offset="100%" style="stop-color:sienna;  stop-opacity:1"/></linearGradient><polygon id="svgEditorShapeDefs" style="fill:#536E1B;stroke:none;vector-effect:non-scaling-stroke;stroke-width:1px;"/><linearGradient gradientUnits="objectBoundingBox" id="lgrd2-fire" spreadMethod="pad" x1="0%" x2="100%" y1="0%" y2="0%"><stop offset="0%" style="stop-color:rgb(255,255,0);stop-opacity:1"/><stop offset="100%" style="stop-color:rgb(255,0,0);stop-opacity:1"/></linearGradient><linearGradient id="lgrd3-fr-v" x1="0" x2="0" y1="0" y2="100%"><stop offset="0%" stop-color="blue"/><stop offset="50%" stop-color="black" stop-opacity="0"/><stop offset="100%" stop-color="red"/></linearGradient></defs><rect x="6" y="411" style="stroke:none; stroke-width: 1px;fill:khaki;" id="e1_rectangle" width="145" height="68" rx="0"  ry="0"/><g id="e8_group"><rect x="53" y="448" style="fill:black;stroke:none;stroke-width:1px;fill-opacity:0.86;" id="e6_rectangle" width="58" height="31"/><rect x="16" y="420" style="fill:black;stroke:none;stroke-width:1px;fill-opacity:0.47;" id="e5_rectangle" width="27" height="24" rx="0"  ry="0"/><rect x="46" y="420" style="fill:black;stroke:none;stroke-width:1px;fill-opacity:0.47;" id="e2_rectangle" width="27" height="24" rx="0"  ry="0"/><rect x="116" y="420" style="fill:black;stroke:none;stroke-width:1px;fill-opacity:0.47;" id="e4_rectangle" width="27" height="24" rx="0"  ry="0"/><rect x="86" y="420" style="fill:black;stroke:none;stroke-width:1px;fill-opacity:0.47;" id="e3_rectangle" width="27" height="24" rx="0"  ry="0"/><rect x="369" y="448" style="fill:#009974;stroke:none;stroke-width:1px;fill-opacity:1;" id="e55_rectangle" width="58" height="31" rx="0" transform="matrix(1.33267 0.00656333 -0.00656928 1.33146 -122.357 -160.745)" ry="0"/></g><rect x="151" y="253" style="fill:mediumseagreen;stroke:none;stroke-width:1px;fill-opacity:0.74;" id="e9_rectangle" width="122" height="227"/><text dy="-0.5em" style="fill:black;font-family:Arial;font-size:20px;" id="e12_texte" ><textPath id="e11_textPath" xlink:href="#e10_shape">T</textPath></text><path d="M-9.716739753638835,-8.371375365108097l7.114771146853883,-1.461616888987745v7.461616888987746l-7.114771146853883,-2.000000000000001Z" style="fill:mediumseagreen; stroke:none; vector-effect:non-scaling-stroke;stroke-width:1px;fill-opacity:0.74;" id="e13_shape" transform="matrix(0.0718723 6.95377 -16.5041 0.0302824 111.477 270.908)"/><g id="e15_group"><rect x="163" y="269" style="fill:rgb(255,255,140);stroke:none;stroke-width:1px;fill-opacity:0.86;" id="e14_rectangle" width="23" height="20" rx="0" ry="0"/><rect x="189" y="269" style="fill:rgb(255,255,140);stroke:none;stroke-width:1px;fill-opacity:0.86;" id="e15_rectangle" width="23" height="20" rx="0" ry="0"/><rect x="215" y="269" style="fill:rgb(255,255,140);stroke:none;stroke-width:1px;fill-opacity:0.86;" id="e7_rectangle" width="23" height="20" rx="0" ry="0"/><rect x="241" y="269" style="fill:rgb(255,255,140);stroke:none;stroke-width:1px;fill-opacity:0.86;" id="e8_rectangle" width="23" height="20" rx="0" ry="0"/></g><g id="e14_group" transform="matrix(1 0 0 1 0 24)"><rect x="163" y="269" style="fill:rgb(255,255,140);stroke:none;stroke-width:1px;fill-opacity:0.86;" id="e16_rectangle" width="23" height="20" rx="0"  ry="0"/><rect x="189" y="269" style="fill:rgb(255,255,140);stroke:none;stroke-width:1px;fill-opacity:0.86;" id="e17_rectangle" width="23" height="20" rx="0"  ry="0"/><rect x="215" y="269" style="fill:rgb(255,255,140);stroke:none;stroke-width:1px;fill-opacity:0.86;" id="e18_rectangle" width="23" height="20" rx="0"  ry="0"/><rect x="241" y="269" style="fill:rgb(255,255,140);stroke:none;stroke-width:1px;fill-opacity:0.86;" id="e19_rectangle" width="23" height="20" rx="0"  ry="0"/></g><g id="e16_group" transform="matrix(1 0 0 1 0 48)"><rect x="163" y="269" style="fill:rgb(255,255,140);stroke:none;stroke-width:1px;fill-opacity:0.86;" id="e20_rectangle" width="23" height="20" rx="0"  ry="0"/><rect x="189" y="269" style="fill:rgb(255,255,140);stroke:none;stroke-width:1px;fill-opacity:0.86;" id="e21_rectangle" width="23" height="20" rx="0"  ry="0"/><rect x="215" y="269" style="fill:rgb(255,255,140);stroke:none;stroke-width:1px;fill-opacity:0.86;" id="e22_rectangle" width="23" height="20" rx="0"  ry="0"/><rect x="241" y="269" style="fill:rgb(255,255,140);stroke:none;stroke-width:1px;fill-opacity:0.86;" id="e23_rectangle" width="23" height="20" rx="0"  ry="0"/></g><g id="e17_group" transform="matrix(1 0 0 1 0 48)"><rect x="163" y="293" style="fill:rgb(255,255,140);stroke:none;stroke-width:1px;fill-opacity:0.86;" id="e24_rectangle" width="23" height="20" rx="0"  ry="0"/><rect x="189" y="293" style="fill:rgb(255,255,140);stroke:none;stroke-width:1px;fill-opacity:0.86;" id="e25_rectangle" width="23" height="20" rx="0"  ry="0"/><rect x="215" y="293" style="fill:rgb(255,255,140);stroke:none;stroke-width:1px;fill-opacity:0.86;" id="e26_rectangle" width="23" height="20" rx="0"  ry="0"/><rect x="241" y="293" style="fill:rgb(255,255,140);stroke:none;stroke-width:1px;fill-opacity:0.86;" id="e27_rectangle" width="23" height="20" rx="0"  ry="0"/><rect x="163" y="317" style="fill:rgb(255,255,140);stroke:none;stroke-width:1px;fill-opacity:0.86;" id="e10_rectangle" width="23" height="20" rx="0"  ry="0"/><rect x="189" y="317" style="fill:rgb(255,255,140);stroke:none;stroke-width:1px;fill-opacity:0.86;" id="e11_rectangle" width="23" height="20" rx="0"  ry="0"/><rect x="215" y="317" style="fill:rgb(255,255,140);stroke:none;stroke-width:1px;fill-opacity:0.86;" id="e12_rectangle" width="23" height="20" rx="0"  ry="0"/><rect x="241" y="317" style="fill:rgb(255,255,140);stroke:none;stroke-width:1px;fill-opacity:0.86;" id="e13_rectangle" width="23" height="20" rx="0"  ry="0"/><rect x="163" y="341" style="fill:rgb(255,255,140);stroke:none;stroke-width:1px;fill-opacity:0.86;" id="e28_rectangle" width="23" height="20" rx="0"  ry="0"/><rect x="189" y="341" style="fill:rgb(255,255,140);stroke:none;stroke-width:1px;fill-opacity:0.86;" id="e29_rectangle" width="23" height="20" rx="0"  ry="0"/><rect x="215" y="341" style="fill:rgb(255,255,140);stroke:none;stroke-width:1px;fill-opacity:0.86;" id="e30_rectangle" width="23" height="20" rx="0"  ry="0"/><rect x="241" y="341" style="fill:rgb(255,255,140);stroke:none;stroke-width:1px;fill-opacity:0.86;" id="e31_rectangle" width="23" height="20" rx="0"  ry="0"/></g><rect x="185.0312427688" y="420.0277745731" style="fill:olive;stroke:none;stroke-width:1px;fill-opacity:0.86;" id="e37_rectangle" width="60" height="59"/><rect x="187.3950472319572" y="427.8391418457031" style="fill:aqua;stroke:none;stroke-width:1px;fill-opacity:0.86;" id="e39_rectangle" width="30" height="49.0001" rx="0" transform="matrix(0.8 0 0 1 39.979 0)" ry="0"/><rect x="219.89501674280126" y="427.8389892578125" style="fill:aqua;stroke:none;stroke-width:1px;fill-opacity:0.86;" id="e32_rectangle" width="30" height="49.0001" rx="0" transform="matrix(0.8 0 0 1 39.979 0)" ry="0"/><rect x="291.87465338666874" y="313.8750915527344" style="fill:fuchsia;stroke:none;stroke-width:1px;fill-opacity:0.59;" id="e40_rectangle" width="248" height="148" rx="0" transform="matrix(0.936478 0 0 1 14.9172 17)" ry="0"/><rect x="280.44432648799784" y="310.8750915527344" style="fill:black;stroke:none;stroke-width:1px;fill-opacity:0.86;" id="e41_rectangle" width="283" height="20" rx="0" transform="matrix(0.933052 0 0 0.38 15.6901 206.443)" ry="0"/><path d="M-3.74561549199505,-4.108071634041028l1.9999999999999982,8h4l2,-8Z" style="fill:black; stroke:none; vector-effect:non-scaling-stroke;stroke-width:1px;fill-opacity:0.9;" id="e42_shape" transform="matrix(-31.4606 0.0729408 -0.0285919 -9.08143 417.655 288.505)"/><rect x="300.87472760235823" y="340.8748474121094" style="fill:black;stroke:none;stroke-width:1px;fill-opacity:0.46;" id="e43_rectangle" width="16" height="26" rx="0"  ry="0"/><rect x="300.8747253417969" y="370.87484967267073" style="fill:black;stroke:none;stroke-width:1px;fill-opacity:0.46;" id="e33_rectangle" width="16" height="26" rx="0"  ry="0"/><rect x="300.8747253417969" y="400.8748474121094" style="fill:black;stroke:none;stroke-width:1px;fill-opacity:0.46;" id="e34_rectangle" width="16" height="26" rx="0"  ry="0"/><rect x="318.8747253417969" y="400.8748474121094" style="fill:black;stroke:none;stroke-width:1px;fill-opacity:0.46;" id="e35_rectangle" width="16" height="26" rx="0"  ry="0"/><rect x="318.8747253417969" y="370.8748474121094" style="fill:black;stroke:none;stroke-width:1px;fill-opacity:0.46;" id="e36_rectangle" width="16" height="26" rx="0"  ry="0"/><rect x="318.8747253417969" y="340.8748474121094" style="fill:black;stroke:none;stroke-width:1px;fill-opacity:0.46;" id="e38_rectangle" width="16" height="26" rx="0"  ry="0"/><g id="e44_group"><rect x="384.8747253417969" y="340.8748474121094" style="fill:black;stroke:none;stroke-width:1px;fill-opacity:0.46;" id="e42_rectangle" width="16" height="26" rx="0"  ry="0"/><rect x="384.8747253417969" y="370.8748474121094" style="fill:black;stroke:none;stroke-width:1px;fill-opacity:0.46;" id="e44_rectangle" width="16" height="26" rx="0" transform="matrix(1 0 0 1 0 0)" ry="0"/><rect x="384.8747253417969" y="398.8748474121094" style="fill:black;stroke:none;stroke-width:1px;fill-opacity:0.46;" id="e45_rectangle" width="16" height="26" rx="0" transform="matrix(1 0 0 1 0 0)" ry="0"/></g><rect x="402.8747253417969" y="340.8748474121094" style="fill:black;stroke:none;stroke-width:1px;fill-opacity:0.46;" id="e46_rectangle" width="16" height="26" rx="0" transform="matrix(1 0 0 1 0 0)" ry="0"/><rect x="402.8747253417969" y="370.8748474121094" style="fill:black;stroke:none;stroke-width:1px;fill-opacity:0.46;" id="e47_rectangle" width="16" height="26" rx="0" transform="matrix(1 0 0 1 0 0)" ry="0"/><rect x="402.8747253417969" y="398.8748474121094" style="fill:black;stroke:none;stroke-width:1px;fill-opacity:0.46;" id="e48_rectangle" width="16" height="26" rx="0" transform="matrix(1 0 0 1 0 0)" ry="0"/><g id="e18_group" transform="matrix(1 0 0 1 98 0)"><rect x="374.8747253417969" y="340.8748474121094" style="fill:black;stroke:none;stroke-width:1px;fill-opacity:0.46;" id="e49_rectangle" width="16" height="26" rx="0"  ry="0"/><rect x="374.8747253417969" y="370.8748474121094" style="fill:black;stroke:none;stroke-width:1px;fill-opacity:0.46;" id="e50_rectangle" width="16" height="26" rx="0" transform="matrix(1 0 0 1 0 0)" ry="0"/><rect x="374.8747253417969" y="398.8748474121094" style="fill:black;stroke:none;stroke-width:1px;fill-opacity:0.46;" id="e51_rectangle" width="16" height="26" rx="0" transform="matrix(1 0 0 1 0 0)" ry="0"/><rect x="394.8747253417969" y="398.8748474121094" style="fill:black;stroke:none;stroke-width:1px;fill-opacity:0.46;" id="e52_rectangle" width="16" height="26" rx="0" transform="matrix(1 0 0 1 0 0)" ry="0"/><rect x="394.8747253417969" y="370.8748474121094" style="fill:black;stroke:none;stroke-width:1px;fill-opacity:0.46;" id="e53_rectangle" width="16" height="26" rx="0" transform="matrix(1 0 0 1 0 0)" ry="0"/><rect x="394.8747253417969" y="340.8748474121094" style="fill:black;stroke:none;stroke-width:1px;fill-opacity:0.46;" id="e54_rectangle" width="16" height="26" rx="0"  ry="0"/></g><rect x="550" y="174" style="fill:blue;stroke:none;stroke-width:1px;fill-opacity:0.49;" id="e56_rectangle" width="156" height="307" rx="0" transform="matrix(0.840909 0 0 0.75252 83.9091 120.55)" ry="0"/><rect x="585.116" y="-108.252" style="fill:blue;stroke:none;stroke-width:1px;fill-opacity:0.49;" id="e57_rectangle" width="156" height="307" rx="0" transform="matrix(0.525776 0 0 0.203601 264.171 211.688)" ry="0"/><path d="M0,-3.464l-4,6.928h8Z" style="fill:black; stroke:none; vector-effect:non-scaling-stroke;stroke-width:1px;" id="e57_shape" transform="matrix(1.2033 0 0 14.5938 611 139.511)"/><circle id="e58_circle" cx="611" cy="82" style="fill:yellow;stroke:none;stroke-width:1px;fill-opacity:0.46;" r="10" /><g id="e60_group"><path d="M33.86666666666656,32.53333333333322v-1.5a2,2,0,0,0,-2,-2h-4a2,2,0,0,0,-2,2v3a2,2,0,0,0,2,2h4a2,2,0,0,0,2,-2Z" style="fill:yellow; stroke:none; vector-effect:non-scaling-stroke;stroke-width:1px;fill-opacity:0.63;" id="e59_shape" transform="matrix(3.75 0 0 3.75 464 153.125)"/><path d="M42.7999999999999,32.39999999999992v-1.5a2,2,0,0,0,-2,-2h-4a2,2,0,0,0,-2,2v3a2,2,0,0,0,2,2h4a2,2,0,0,0,2,-2Z" style="fill:yellow; stroke:none; vector-effect:non-scaling-stroke;stroke-width:1px;fill-opacity:0.63;" id="e9_shape" transform="matrix(3.75 0 0 3.75 464 153.125)"/><path d="M51.733333333333235,32.26666666666662v-1.5a2,2,0,0,0,-2,-2h-4a2,2,0,0,0,-2,2v3a2,2,0,0,0,2,2h4a2,2,0,0,0,2,-2Z" style="fill:yellow; stroke:none; vector-effect:non-scaling-stroke;stroke-width:1px;fill-opacity:0.63;" id="e14_shape" transform="matrix(3.75 0 0 3.75 464 153.125)"/><path d="M42.7999999999999,32.39999999999992v-1.5a2,2,0,0,0,-2,-2h-4a2,2,0,0,0,-2,2v3a2,2,0,0,0,2,2h4a2,2,0,0,0,2,-2Z" style="fill:yellow; stroke:none; vector-effect:non-scaling-stroke;stroke-width:1px;fill-opacity:0.63;" id="e6_shape" transform="matrix(3.75 0 0 3.75 464 153.125)"/><path d="M33.86666666666656,32.53333333333322v-1.5a2,2,0,0,0,-2,-2h-4a2,2,0,0,0,-2,2v3a2,2,0,0,0,2,2h4a2,2,0,0,0,2,-2Z" style="fill:yellow; stroke:none; vector-effect:non-scaling-stroke;stroke-width:1px;fill-opacity:0.63;" id="e7_shape" transform="matrix(3.75 0 0 3.75 464 153.125)"/><path d="M51.733333333333235,32.26666666666662v-1.5a2,2,0,0,0,-2,-2h-4a2,2,0,0,0,-2,2v3a2,2,0,0,0,2,2h4a2,2,0,0,0,2,-2Z" style="fill:yellow; stroke:none; vector-effect:non-scaling-stroke;stroke-width:1px;fill-opacity:0.63;" id="e8_shape" transform="matrix(3.75 0 0 3.75 464 153.125)"/><g id="e61_group"><path d="M42.7999999999999,56.93333333333317v-1.4999999999999645a2,2,0,0,0,-2,-2h-4a2,2,0,0,0,-2,2v3a2,2,0,0,0,2,2h4a2,2,0,0,0,2,-2Z" style="fill:yellow; stroke:none; vector-effect:non-scaling-stroke;stroke-width:1px;fill-opacity:0.63;" id="e10_shape" transform="matrix(3.75 0 0 3.75 464 153.125)"/><path d="M33.86666666666656,57.066666666666464v-1.499999999999936a2,2,0,0,0,-2,-2h-4a2,2,0,0,0,-2,2v3a2,2,0,0,0,2,2h4a2,2,0,0,0,2,-2Z" style="fill:yellow; stroke:none; vector-effect:non-scaling-stroke;stroke-width:1px;fill-opacity:0.63;" id="e11_shape" transform="matrix(3.75 0 0 3.75 464 153.125)"/><path d="M51.733333333333235,56.79999999999987v-1.499999999999993a2,2,0,0,0,-2,-2h-4a2,2,0,0,0,-2,2v3a2,2,0,0,0,2,2h4a2,2,0,0,0,2,-2Z" style="fill:yellow; stroke:none; vector-effect:non-scaling-stroke;stroke-width:1px;fill-opacity:0.63;" id="e12_shape" transform="matrix(3.75 0 0 3.75 464 153.125)"/></g><g id="e23_group" transform="matrix(1 0 0 1 0 0)"><path d="M42.7999999999999,56.93333333333317v-1.4999999999999645a2,2,0,0,0,-2,-2h-4a2,2,0,0,0,-2,2v3a2,2,0,0,0,2,2h4a2,2,0,0,0,2,-2Z" style="fill:yellow; stroke:none; vector-effect:non-scaling-stroke;stroke-width:1px;fill-opacity:0.63;" id="e31_shape" transform="matrix(3.75 0 0 3.75 464 153.125)"/><path d="M33.86666666666656,57.066666666666464v-1.499999999999936a2,2,0,0,0,-2,-2h-4a2,2,0,0,0,-2,2v3a2,2,0,0,0,2,2h4a2,2,0,0,0,2,-2Z" style="fill:yellow; stroke:none; vector-effect:non-scaling-stroke;stroke-width:1px;fill-opacity:0.63;" id="e32_shape" transform="matrix(3.75 0 0 3.75 464 153.125)"/><path d="M51.733333333333235,56.79999999999987v-1.499999999999993a2,2,0,0,0,-2,-2h-4a2,2,0,0,0,-2,2v3a2,2,0,0,0,2,2h4a2,2,0,0,0,2,-2Z" style="fill:yellow; stroke:none; vector-effect:non-scaling-stroke;stroke-width:1px;fill-opacity:0.63;" id="e33_shape" transform="matrix(3.75 0 0 3.75 464 153.125)"/></g><g id="e24_group" transform="matrix(1 0 0 1 0 30)"><path d="M42.7999999999999,56.93333333333317v-1.4999999999999645a2,2,0,0,0,-2,-2h-4a2,2,0,0,0,-2,2v3a2,2,0,0,0,2,2h4a2,2,0,0,0,2,-2Z" style="fill:yellow; stroke:none; vector-effect:non-scaling-stroke;stroke-width:1px;fill-opacity:0.63;" id="e34_shape" transform="matrix(3.75 0 0 3.75 464 153.125)"/><path d="M33.86666666666656,57.066666666666464v-1.499999999999936a2,2,0,0,0,-2,-2h-4a2,2,0,0,0,-2,2v3a2,2,0,0,0,2,2h4a2,2,0,0,0,2,-2Z" style="fill:yellow; stroke:none; vector-effect:non-scaling-stroke;stroke-width:1px;fill-opacity:0.63;" id="e35_shape" transform="matrix(3.75 0 0 3.75 464 153.125)"/><path d="M51.733333333333235,56.79999999999987v-1.499999999999993a2,2,0,0,0,-2,-2h-4a2,2,0,0,0,-2,2v3a2,2,0,0,0,2,2h4a2,2,0,0,0,2,-2Z" style="fill:yellow; stroke:none; vector-effect:non-scaling-stroke;stroke-width:1px;fill-opacity:0.63;" id="e36_shape" transform="matrix(3.75 0 0 3.75 464 153.125)"/></g><g id="e25_group" transform="matrix(1 0 0 1 0 30)"><path d="M42.7999999999999,56.93333333333317v-1.4999999999999645a2,2,0,0,0,-2,-2h-4a2,2,0,0,0,-2,2v3a2,2,0,0,0,2,2h4a2,2,0,0,0,2,-2Z" style="fill:yellow; stroke:none; vector-effect:non-scaling-stroke;stroke-width:1px;fill-opacity:0.63;" id="e37_shape" transform="matrix(3.75 0 0 3.75 464 153.125)"/><path d="M33.86666666666656,57.066666666666464v-1.499999999999936a2,2,0,0,0,-2,-2h-4a2,2,0,0,0,-2,2v3a2,2,0,0,0,2,2h4a2,2,0,0,0,2,-2Z" style="fill:yellow; stroke:none; vector-effect:non-scaling-stroke;stroke-width:1px;fill-opacity:0.63;" id="e38_shape" transform="matrix(3.75 0 0 3.75 464 153.125)"/><path d="M51.733333333333235,56.79999999999987v-1.499999999999993a2,2,0,0,0,-2,-2h-4a2,2,0,0,0,-2,2v3a2,2,0,0,0,2,2h4a2,2,0,0,0,2,-2Z" style="fill:yellow; stroke:none; vector-effect:non-scaling-stroke;stroke-width:1px;fill-opacity:0.63;" id="e39_shape" transform="matrix(3.75 0 0 3.75 464 153.125)"/></g><g id="e26_group" transform="matrix(1 0 0 1 0 62)"><path d="M42.7999999999999,56.93333333333317v-1.4999999999999645a2,2,0,0,0,-2,-2h-4a2,2,0,0,0,-2,2v3a2,2,0,0,0,2,2h4a2,2,0,0,0,2,-2Z" style="fill:yellow; stroke:none; vector-effect:non-scaling-stroke;stroke-width:1px;fill-opacity:0.63;" id="e40_shape" transform="matrix(3.75 0 0 3.75 464 153.125)"/><path d="M33.86666666666656,57.066666666666464v-1.499999999999936a2,2,0,0,0,-2,-2h-4a2,2,0,0,0,-2,2v3a2,2,0,0,0,2,2h4a2,2,0,0,0,2,-2Z" style="fill:yellow; stroke:none; vector-effect:non-scaling-stroke;stroke-width:1px;fill-opacity:0.63;" id="e41_shape" transform="matrix(3.75 0 0 3.75 464 153.125)"/><path d="M51.733333333333235,56.79999999999987v-1.499999999999993a2,2,0,0,0,-2,-2h-4a2,2,0,0,0,-2,2v3a2,2,0,0,0,2,2h4a2,2,0,0,0,2,-2Z" style="fill:yellow; stroke:none; vector-effect:non-scaling-stroke;stroke-width:1px;fill-opacity:0.63;" id="e43_shape" transform="matrix(3.75 0 0 3.75 464 153.125)"/></g><g id="e27_group" transform="matrix(1 0 0 1 0 62)"><path d="M42.7999999999999,56.93333333333317v-1.4999999999999645a2,2,0,0,0,-2,-2h-4a2,2,0,0,0,-2,2v3a2,2,0,0,0,2,2h4a2,2,0,0,0,2,-2Z" style="fill:yellow; stroke:none; vector-effect:non-scaling-stroke;stroke-width:1px;fill-opacity:0.63;" id="e44_shape" transform="matrix(3.75 0 0 3.75 464 153.125)"/><path d="M33.86666666666656,57.066666666666464v-1.499999999999936a2,2,0,0,0,-2,-2h-4a2,2,0,0,0,-2,2v3a2,2,0,0,0,2,2h4a2,2,0,0,0,2,-2Z" style="fill:yellow; stroke:none; vector-effect:non-scaling-stroke;stroke-width:1px;fill-opacity:0.63;" id="e45_shape" transform="matrix(3.75 0 0 3.75 464 153.125)"/><path d="M51.733333333333235,56.79999999999987v-1.499999999999993a2,2,0,0,0,-2,-2h-4a2,2,0,0,0,-2,2v3a2,2,0,0,0,2,2h4a2,2,0,0,0,2,-2Z" style="fill:yellow; stroke:none; vector-effect:non-scaling-stroke;stroke-width:1px;fill-opacity:0.63;" id="e46_shape" transform="matrix(3.75 0 0 3.75 464 153.125)"/></g></g><path d="M37.999999999999915,14.799999999999983v-1.5a2,2,0,0,0,-2,-2h-4a2,2,0,0,0,-2,2v3a2,2,0,0,0,2,2h4a2,2,0,0,0,2,-2Z" style="fill:yellow; stroke:none; vector-effect:non-scaling-stroke;stroke-width:1px;fill-opacity:0.63;" id="e1_shape" transform="matrix(1.20645 0 0 6.16524 541.981 131.379)"/><path d="M47.999999999999915,14.743619080323953v-1.5a2,2,0,0,0,-2,-2h-4a2,2,0,0,0,-2,2v3a2,2,0,0,0,2,2h4a2,2,0,0,0,2,-2Z" style="fill:yellow; stroke:none; vector-effect:non-scaling-stroke;stroke-width:1px;fill-opacity:0.63;" id="e15_shape" transform="matrix(1.20645 0 0 6.16524 541.981 131.379)"/><path d="M57.999999999999915,14.687238160647919v-1.5a2,2,0,0,0,-2,-2h-4a2,2,0,0,0,-2,2v3a2,2,0,0,0,2,2h4a2,2,0,0,0,2,-2Z" style="fill:yellow; stroke:none; vector-effect:non-scaling-stroke;stroke-width:1px;fill-opacity:0.63;" id="e2_shape" transform="matrix(1.20645 0 0 6.16524 541.981 131.379)"/><path d="M67.99999999999991,14.630857240971885v-1.5000000000000036a2,2,0,0,0,-2,-2h-4a2,2,0,0,0,-2,2v3a2,2,0,0,0,2,2h4a2,2,0,0,0,2,-2Z" style="fill:yellow; stroke:none; vector-effect:non-scaling-stroke;stroke-width:1px;fill-opacity:0.63;" id="e3_shape" transform="matrix(1.20645 0 0 6.16524 541.981 131.379)"/><path d="M77.99999999999991,14.574476321295851v-1.5000000000000036a2,2,0,0,0,-2,-2h-4a2,2,0,0,0,-2,2v3a2,2,0,0,0,2,2h4a2,2,0,0,0,2,-2Z" style="fill:yellow; stroke:none; vector-effect:non-scaling-stroke;stroke-width:1px;fill-opacity:0.63;" id="e4_shape" transform="matrix(1.20645 0 0 6.16524 541.981 131.379)"/><path d="M87.99999999999991,14.518095401619817v-1.5000000000000036a2,2,0,0,0,-2,-2h-4a2,2,0,0,0,-2,2v3a2,2,0,0,0,2,2h4a2,2,0,0,0,2,-2Z" style="fill:yellow; stroke:none; vector-effect:non-scaling-stroke;stroke-width:1px;fill-opacity:0.63;" id="e5_shape" transform="matrix(1.20645 0 0 6.16524 541.981 131.379)"/><g id="e19_group" transform="matrix(1 0 0 1 0 30)"><path d="M33.86666666666656,32.53333333333322v-1.5a2,2,0,0,0,-2,-2h-4a2,2,0,0,0,-2,2v3a2,2,0,0,0,2,2h4a2,2,0,0,0,2,-2Z" style="fill:yellow; stroke:none; vector-effect:non-scaling-stroke;stroke-width:1px;fill-opacity:0.63;" id="e19_shape" transform="matrix(3.75 0 0 3.75 464 153.125)"/><path d="M42.7999999999999,32.39999999999992v-1.5a2,2,0,0,0,-2,-2h-4a2,2,0,0,0,-2,2v3a2,2,0,0,0,2,2h4a2,2,0,0,0,2,-2Z" style="fill:yellow; stroke:none; vector-effect:non-scaling-stroke;stroke-width:1px;fill-opacity:0.63;" id="e20_shape" transform="matrix(3.75 0 0 3.75 464 153.125)"/><path d="M51.733333333333235,32.26666666666662v-1.5a2,2,0,0,0,-2,-2h-4a2,2,0,0,0,-2,2v3a2,2,0,0,0,2,2h4a2,2,0,0,0,2,-2Z" style="fill:yellow; stroke:none; vector-effect:non-scaling-stroke;stroke-width:1px;fill-opacity:0.63;" id="e21_shape" transform="matrix(3.75 0 0 3.75 464 153.125)"/></g><g id="e20_group" transform="matrix(1 0 0 1 0 30)"><path d="M33.86666666666656,32.53333333333322v-1.5a2,2,0,0,0,-2,-2h-4a2,2,0,0,0,-2,2v3a2,2,0,0,0,2,2h4a2,2,0,0,0,2,-2Z" style="fill:yellow; stroke:none; vector-effect:non-scaling-stroke;stroke-width:1px;fill-opacity:0.63;" id="e22_shape" transform="matrix(3.75 0 0 3.75 464 153.125)"/><path d="M42.7999999999999,32.39999999999992v-1.5a2,2,0,0,0,-2,-2h-4a2,2,0,0,0,-2,2v3a2,2,0,0,0,2,2h4a2,2,0,0,0,2,-2Z" style="fill:yellow; stroke:none; vector-effect:non-scaling-stroke;stroke-width:1px;fill-opacity:0.63;" id="e23_shape" transform="matrix(3.75 0 0 3.75 464 153.125)"/><path d="M51.733333333333235,32.26666666666662v-1.5a2,2,0,0,0,-2,-2h-4a2,2,0,0,0,-2,2v3a2,2,0,0,0,2,2h4a2,2,0,0,0,2,-2Z" style="fill:yellow; stroke:none; vector-effect:non-scaling-stroke;stroke-width:1px;fill-opacity:0.63;" id="e24_shape" transform="matrix(3.75 0 0 3.75 464 153.125)"/></g><g id="e21_group" transform="matrix(1 0 0 1 0 62)"><path d="M33.86666666666656,32.53333333333322v-1.5a2,2,0,0,0,-2,-2h-4a2,2,0,0,0,-2,2v3a2,2,0,0,0,2,2h4a2,2,0,0,0,2,-2Z" style="fill:yellow; stroke:none; vector-effect:non-scaling-stroke;stroke-width:1px;fill-opacity:0.63;" id="e25_shape" transform="matrix(3.75 0 0 3.75 464 153.125)"/><path d="M42.7999999999999,32.39999999999992v-1.5a2,2,0,0,0,-2,-2h-4a2,2,0,0,0,-2,2v3a2,2,0,0,0,2,2h4a2,2,0,0,0,2,-2Z" style="fill:yellow; stroke:none; vector-effect:non-scaling-stroke;stroke-width:1px;fill-opacity:0.63;" id="e26_shape" transform="matrix(3.75 0 0 3.75 464 153.125)"/><path d="M51.733333333333235,32.26666666666662v-1.5a2,2,0,0,0,-2,-2h-4a2,2,0,0,0,-2,2v3a2,2,0,0,0,2,2h4a2,2,0,0,0,2,-2Z" style="fill:yellow; stroke:none; vector-effect:non-scaling-stroke;stroke-width:1px;fill-opacity:0.63;" id="e27_shape" transform="matrix(3.75 0 0 3.75 464 153.125)"/></g><g id="e22_group" transform="matrix(1 0 0 1 0 62)"><path d="M33.86666666666656,32.53333333333322v-1.5a2,2,0,0,0,-2,-2h-4a2,2,0,0,0,-2,2v3a2,2,0,0,0,2,2h4a2,2,0,0,0,2,-2Z" style="fill:yellow; stroke:none; vector-effect:non-scaling-stroke;stroke-width:1px;fill-opacity:0.63;" id="e28_shape" transform="matrix(3.75 0 0 3.75 464 153.125)"/><path d="M42.7999999999999,32.39999999999992v-1.5a2,2,0,0,0,-2,-2h-4a2,2,0,0,0,-2,2v3a2,2,0,0,0,2,2h4a2,2,0,0,0,2,-2Z" style="fill:yellow; stroke:none; vector-effect:non-scaling-stroke;stroke-width:1px;fill-opacity:0.63;" id="e29_shape" transform="matrix(3.75 0 0 3.75 464 153.125)"/><path d="M51.733333333333235,32.26666666666662v-1.5a2,2,0,0,0,-2,-2h-4a2,2,0,0,0,-2,2v3a2,2,0,0,0,2,2h4a2,2,0,0,0,2,-2Z" style="fill:yellow; stroke:none; vector-effect:non-scaling-stroke;stroke-width:1px;fill-opacity:0.63;" id="e30_shape" transform="matrix(3.75 0 0 3.75 464 153.125)"/></g><rect x="677" y="334" style="fill:saddlebrown;stroke:none;stroke-width:1px;fill-opacity:0.25;" id="e62_rectangle" width="165" height="140"/><rect x="677" y="406.09491609492756" style="fill:saddlebrown;stroke:none;stroke-width:1px;fill-opacity:0.94;" id="e58_rectangle" width="165" height="140" rx="0" transform="matrix(1 0 0 0.544983 0 183.536)" ry="0"/><rect x="710.47998046875" y="218.52007574459213" style="fill:red;stroke:none;stroke-width:1px;fill-opacity:1;" id="e64_rectangle" width="73" height="128" rx="0" transform="matrix(0.760449 0 0 0.760449 144.321 207.431)" ry="0"/><rect x="814.895" y="387.839" style="fill:aqua;stroke:none;stroke-width:1px;fill-opacity:0.86;" id="e59_rectangle" width="30" height="49.0001" rx="0" transform="matrix(0.624 0 0 1 180.541 0)" ry="0"/><rect x="860.1515392718113" y="387.8389892578125" style="fill:aqua;stroke:none;stroke-width:1px;fill-opacity:0.86;" id="e60_rectangle" width="30" height="49.0001" rx="0" transform="matrix(0.624 0 0 1 180.541 0)" ry="0"/><rect x="905.408" y="383.839" style="fill:aqua;stroke:black;stroke-width:4.12px;fill-opacity:0.86;" id="e61_rectangle" width="30" height="49.0001" rx="0" transform="matrix(1.12081 0 0 0.701827 -264.203 113.226)" ry="0"/><rect x="943.9588012695312" y="382.44018130582504" style="fill:aqua;stroke:black;stroke-width:4.12px;fill-opacity:0.86;" id="e63_rectangle" width="30" height="49.0001" rx="0" transform="matrix(1.12081 0 0 0.701827 -264.203 113.226)" ry="0"/></svg>