<svg xmlns="http://www.w3.org/2000/svg" xmlns:se="http://svg-edit.googlecode.com" xmlns:xlink="http://www.w3.org/1999/xlink" xmlns:dc="http://purl.org/dc/elements/1.1/" xmlns:cc="http://creativecommons.org/ns#" xmlns:rdf="http://www.w3.org/1999/02/22-rdf-syntax-ns#" xmlns:inkscape="http://www.inkscape.org/namespaces/inkscape" width="175" height="171">
                                    <title>my vector image</title>
                                    <!-- Created with Vector Paint - http://www.vectorpaint.yaks.com/ https://chrome.google.com/webstore/detail/hnbpdiengicdefcjecjbnjnoifekhgdo -->
                                    <rect id="backgroundrect" width="100%" height="100%" x="0" y="0" fill="none" stroke="none" class="" style=""/>
                                <g style="" class="currentLayer"><title>Layer 1</title><path fill="#fbff3f" fill-opacity="1" stroke="#ebeb1a" stroke-opacity="1" stroke-width="8" stroke-dasharray="none" stroke-linejoin="round" stroke-linecap="butt" stroke-dashoffset="" fill-rule="nonzero" opacity="1" marker-start="" marker-mid="" marker-end="" d="M2,85.5 C2,39.36740331491711 40.26243093922653,2 87.5,2 C134.73756906077347,2 173,39.36740331491711 173,85.5 C173,131.6325966850829 134.73756906077347,169 87.5,169 C40.26243093922653,169 2,131.6325966850829 2,85.5 z" id="svg_1" class="" filter="url(#f141)"/><path fill="#009900" stroke="none" stroke-width="8" stroke-linejoin="round" stroke-dashoffset="" fill-rule="nonzero" marker-start="" marker-mid="" marker-end="" id="svg_5" d="M89.56692566217433,26.594348674153302 C56.49367202159088,26.594348674153302 29.683199685807885,52.10333971784605 29.683199685807885,83.57109307694695 C29.683199685807885,115.03884643604738 56.49367202159088,140.54783747974062 89.56692566217433,140.54783747974062 C122.64017930275628,140.54783747974062 149.4506516385407,115.03884643604738 149.4506516385407,83.57109307694695 C149.4506516385407,52.10333971784605 122.64017930275628,26.594348674153302 89.56692566217433,26.594348674153302 zM94.73784048949489,114.46257139633204 L94.73784048949489,122.48729933031626 L86.67038930869458,122.48729933031626 L86.67038930869458,114.55273687873914 C73.43202330057461,112.82783199795982 67.63071009190969,102.47840271329643 67.63071009190969,102.47840271329643 L75.87945231048236,95.91984392797129 C75.87945231048236,95.91984392797129 81.13689240583533,104.63453381426918 90.65467188879805,104.63453381426918 C95.91211198415104,104.63453381426918 99.90051481510166,101.95701101069577 99.90051481510166,97.3860130766312 C99.90051481510166,86.68768257744101 69.62079125653685,87.98528147639428 69.62079125653685,68.14495510908121 C69.62079125653685,59.52043070519052 76.78178724848419,53.3068528960203 86.66626905784084,51.840683747360025 L86.66626905784084,43.81595581337654 L94.73372023863418,43.81595581337654 L94.73372023863418,51.83676350899251 C101.62277967392451,52.699215949386165 109.7808763736101,56.149025710938076 109.7808763736101,63.57003693664949 L109.7808763736101,69.26222304321992 L99.08470514513688,69.26222304321992 L99.08470514513688,66.50237523397433 C99.08470514513688,63.656282180689416 95.2734731010862,61.758886811836675 91.0131337134839,61.758886811836675 C85.5744025803573,61.758886811836675 81.58599974940023,64.34624413300796 81.58599974940023,67.96854438263556 C81.58599974940023,78.92169037557652 111.86572330797767,76.24808781037086 111.86572330797767,97.03711186211112 C111.86984355883148,105.57931126032791 105.16207516131499,112.99640224767278 94.73784048949489,114.46257139633204 z" style="color: rgb(235, 235, 26);" class="" fill-opacity="1"/></g><defs><filter id="f141" x="-0.25" width="1.5" y="-0.25" height="1.5" inkscape:menu="Non realistic 3D shaders" inkscape:menu-tooltip="Imitation of black and white cartoon shading" inkscape:label="Comics" color-interpolation-filters="sRGB">
            <feGaussianBlur result="result8" stdDeviation="7"/>
            <feComposite in="result8" operator="xor" result="result6" in2="result8"/>
            <feDisplacementMap result="result4" scale="100" yChannelSelector="A" xChannelSelector="A" in2="result6" in="SourceGraphic"/>
            <feComposite k1="1" in="SourceGraphic" operator="arithmetic" result="result2" in2="result4"/>
            <feComposite in2="result2" operator="in" in="SourceGraphic" result="fbSourceGraphic"/>
        </filter></defs></svg>