<svg xmlns="http://www.w3.org/2000/svg" width="54.403" height="50.43" viewBox="0 0 54.403 50.43">
  <g id="Frog" transform="matrix(0.995, 0.105, -0.105, 0.995, 3.809, -1.16)">
    <ellipse id="Ellipse_1720" data-name="Ellipse 1720" cx="5.077" cy="5.077" rx="5.077" ry="5.077" transform="translate(3.921 7.18) rotate(-45)" fill="#926700"/>
    <path id="Path_6224" data-name="Path 6224" d="M16.613,2.138s4.942,3.305,2.337,5.717S11.164,9.5,9.288,10.864,7.5,15,6.072,15.36,3.213,14.2,5.089,12.59c.385-.33,1.88-1.531,1.466-2.217-.357-.592-2.173.181-2.629.3q-.536.139-1.082.232a3.551,3.551,0,0,1-1.807-.048A1.48,1.48,0,0,1,0,9.5,1.468,1.468,0,0,1,.981,8.29c1.448-.566,3.228.2,4.733.1,1.339-.09.893-1.429-.894-1.966s-1.608-2.5-.358-2.144,2.5,1.519,4.11,2.234,5.807.8,4.377-1.34S10,1.066,11.789.173,16.613,2.138,16.613,2.138Z" transform="translate(1.247 19.87)" fill="#e2a109"/>
    <path id="Path_6225" data-name="Path 6225" d="M2.645,3.766a14.377,14.377,0,0,1,20.88,1.568c2.961,3.605,7.339,5.279,14.936,6.953S55.07,22.717,49.792,26.837s-19.7,7.983-29.743,1.03S10.778,17.181,5.5,14.348C1.12,12-2.312,8.81,1.947,4.439Q2.288,4.089,2.645,3.766Z" transform="translate(0 4.746)" fill="#c58b00"/>
    <ellipse id="Ellipse_1721" data-name="Ellipse 1721" cx="5.077" cy="5.077" rx="5.077" ry="5.077" transform="translate(6.791 15.638) rotate(-76.656)" fill="#926700"/>
    <path id="Path_6226" data-name="Path 6226" d="M49.514,17.156A3.784,3.784,0,0,0,51.05,13.49c-7.816,3.637-20.376,5.963-28.272-.019C14.867,7.477,12.538,3.723,8.993,3.156S0,0,0,0C.725,1.843,2.827,3.381,5.222,4.667,10.5,7.5,9.729,11.233,19.771,18.186S44.235,21.276,49.514,17.156Z" transform="translate(0.277 14.427)" fill="#ffd571"/>
    <path id="Path_6227" data-name="Path 6227" d="M21.014,11.35C13.417,9.676,9.039,8,6.078,4.4A14.541,14.541,0,0,0,0,0C.024.015,3.043,2,3.993,4.49s7.4,9.15,15.984,10.42,8.4,2.949,9.81,3.427a1.323,1.323,0,0,0,1.683-.67A21.141,21.141,0,0,0,21.014,11.35Z" transform="translate(17.447 5.683)" fill="#926700"/>
    <g id="Group_2736" data-name="Group 2736" transform="translate(9.595 8.563)">
      <path id="Path_6228" data-name="Path 6228" d="M6.613,3.307A3.306,3.306,0,1,1,3.306,0,3.306,3.306,0,0,1,6.613,3.307Z" fill="#2b0b07"/>
      <path id="Path_6229" data-name="Path 6229" d="M3.59,2.219A1.817,1.817,0,1,1,2.219.045,1.818,1.818,0,0,1,3.59,2.219Z" transform="translate(2.517 0.826)" fill="#fff"/>
    </g>
    <path id="Path_6230" data-name="Path 6230" d="M3.779,1.052c.192.18.376.44.282.686a.5.5,0,0,1-.453.285,1.272,1.272,0,0,1-.546-.137,9.183,9.183,0,0,0-1.38-.574C1.121,1.169.456,1.175.085.732A.324.324,0,0,1,0,.564.343.343,0,0,1,.176.279,1.658,1.658,0,0,1,1.169,0,4.111,4.111,0,0,1,3.779,1.052Z" transform="translate(41.82 22.633)" fill="#d2970d"/>
    <path id="Path_6231" data-name="Path 6231" d="M2.627.019a.552.552,0,0,1,.358.624A.859.859,0,0,1,2.5,1.23a2.038,2.038,0,0,1-.766.171A1.792,1.792,0,0,1,.9,1.311a1.618,1.618,0,0,1-.881-.9C-.049.067.107-.023.393.044a4.521,4.521,0,0,0,.956.307C1.792.359,2.2-.1,2.627.019Z" transform="translate(46.252 24.394)" fill="#d2970d"/>
    <path id="Path_6232" data-name="Path 6232" d="M.2.144A.4.4,0,0,0,0,.5a.54.54,0,0,0,.181.29,1.165,1.165,0,0,0,.5.356,1.15,1.15,0,0,0,.3.026,2.266,2.266,0,0,0,.555-.047c.622-.157.58-.7.059-.957A1.668,1.668,0,0,0,.2.144Z" transform="translate(39.783 21.506)" fill="#d2970d"/>
    <path id="Path_6233" data-name="Path 6233" d="M1.105,1.651a.88.88,0,0,1-.54-.258C.219,1.1-.232.726.139.276a.749.749,0,0,1,.9-.21,1.7,1.7,0,0,1,.873.807C2.042,1.282,1.471,1.65,1.105,1.651Z" transform="translate(44.663 25.061)" fill="#d2970d"/>
    <path id="Path_6234" data-name="Path 6234" d="M.065.632A.311.311,0,0,0,0,.757a.327.327,0,0,0,.116.25,1.262,1.262,0,0,0,.445.36.687.687,0,0,0,.749-.182A.726.726,0,0,0,1.42.416C1.05-.387.426.134.065.632Z" transform="translate(49.081 25.743)" fill="#d2970d"/>
    <path id="Path_6235" data-name="Path 6235" d="M43.768,12.193a3.814,3.814,0,0,0,1.546-2.6C24.938,20.18,8.125,7.121,7.538,4.709,6.94,2.254,8.793,1.571,10.153,0A18.136,18.136,0,0,1,0,0H0C4.712,2.8,4.328,6.51,14.025,13.223,24.068,20.176,38.488,16.313,43.768,12.193Z" transform="translate(6.024 19.39)" fill="#ffc53b" opacity="0.5"/>
    <path id="Path_6236" data-name="Path 6236" d="M18.578.946c2.441,1.692,4.187,5.278,2.413,7.609-2.454,3.225-8.432,3.377-10.272,5.284s-1.195,5-2.732,5.687-3.442-.743-1.65-2.92c.368-.447,1.813-2.091,1.212-2.781-.518-.6-2.407.632-2.9.855q-.575.261-1.171.474a4.068,4.068,0,0,1-2.042.3A1.69,1.69,0,0,1,.009,14.13a1.676,1.676,0,0,1,.864-1.552c1.517-.921,3.669-.407,5.342-.817C7.7,11.4,6.938,9.978,4.824,9.727s-2.3-2.5-.824-2.34S7.112,8.6,9.06,9.089s6.687-.238,4.657-2.368c-.723-.759-2.127-1.782-2.308-2.839C11.03,1.66,14.13-.033,15.967,0A4.844,4.844,0,0,1,18.578.946Z" transform="translate(5.128 24.966)" fill="#b27e00"/>
    <path id="Path_6237" data-name="Path 6237" d="M20.21,5.265c-1.127-.777-2.219-1.916-3.184-2.612A13.913,13.913,0,0,0,12.11.2a6.617,6.617,0,0,0-5.3.857c-2.579,1.85-2.68,6.113.507,7.332,3.1,1.184,6.735.825,9.984.9-.092,1.3-7.243,4.086-11.05,3.9S.96,14.309,3.56,14.494s4.458.372,3.621.929S.4,15.052.031,16.444s2.6,2.415,6.221,1.207c2.043-.743,1.579.527-.743,1.517S5.7,21.83,8.017,20.437s7.707-5.479,12.071-7.986c1.5-.859,5.269-2.8,4.613-5.012-.494-1.664-1.892-1.081-3.121-1.464A5.22,5.22,0,0,1,20.21,5.265Z" transform="translate(26.693 25.495)" fill="#b27e00"/>
    <path id="Path_6238" data-name="Path 6238" d="M12.27,6.577a14.565,14.565,0,0,1-4.7-.1A7.251,7.251,0,0,1,3.483,4.124a2.478,2.478,0,0,1-.952-1.7c.005-.292.107-.574.139-.865A1.84,1.84,0,0,0,2.007,0c-.031.021-.065.037-.1.06-2.579,1.85-2.68,6.113.507,7.332,3.1,1.184,6.735.825,9.984.9a.443.443,0,0,1-.027.117c0,.013-.012.026-.017.039a.8.8,0,0,1-.044.085c-.009.015-.019.031-.03.046s-.041.057-.064.086l-.04.048c-.029.032-.061.064-.094.1l-.04.04c-.049.046-.1.092-.161.14l-.038.03c-.048.038-.1.076-.152.115l-.078.055-.137.093-.1.061-.146.09-.106.063c-.054.032-.11.064-.167.1l-.1.059c-.088.048-.178.1-.271.144l-.147.074-.156.078-.174.083L9.97,10.1l-.192.088-.134.059-.217.095-.074.031c-.287.121-.586.241-.9.357l-.066.025-.3.111-.062.022L7.7,11l-.017.005a24.668,24.668,0,0,1-4.081,1.034c5.485.295,9.8-3.184,11.054-4.249S15,6.425,12.27,6.577Z" transform="translate(31.593 26.493)" fill="#926700"/>
    <path id="Path_6239" data-name="Path 6239" d="M15.377,5.588c1.226-1.61.77-3.818-.433-5.588.011.045,1.262,5.464-5.175,7.35C5.815,8.788,4.9,8.636,3.989,10.233c-.858,1.5-1.785,5.56-3.98,4.9a1.573,1.573,0,0,0,2.365,1.429c1.537-.683.892-3.779,2.732-5.687S12.923,8.813,15.377,5.588Z" transform="translate(10.742 27.932)" fill="#926700"/>
  </g>
</svg>
