<svg xmlns="http://www.w3.org/2000/svg" viewBox="0 0 44.06 44.06"><defs><style>.cls-1{isolation:isolate;}.cls-2{fill:#fe0;}.cls-3{fill:#ffe100;}.cls-4{fill:#dab920;}.cls-5{opacity:0.48;mix-blend-mode:multiply;}</style></defs><title>GOLD COIN</title><g class="cls-1"><g id="Layer_2" data-name="Layer 2"><g id="Layer_1-2" data-name="Layer 1"><circle class="cls-2" cx="22.03" cy="22.03" r="20.67"/><ellipse class="cls-3" cx="22.03" cy="23.22" rx="20.24" ry="18.46"/><path class="cls-4" d="M22,2A20,20,0,1,1,2,22,20.05,20.05,0,0,1,22,2m0-2a22,22,0,1,0,22,22A22,22,0,0,0,22,0Z"/><g class="cls-5"><polygon points="30.56 36.51 22.07 32.09 13.61 36.57 15.19 27.13 8.31 20.47 17.79 19.06 21.99 10.46 26.26 19.03 35.74 20.37 28.91 27.08 30.56 36.51"/></g><polygon class="cls-4" points="30.56 35.51 22.07 31.09 13.61 35.57 15.19 26.13 8.31 19.47 17.79 18.06 21.99 9.46 26.26 18.03 35.74 19.37 28.91 26.08 30.56 35.51"/></g></g></g></svg>