<svg xmlns="http://www.w3.org/2000/svg" xmlns:se="http://svg-edit.googlecode.com" xmlns:xlink="http://www.w3.org/1999/xlink" xmlns:dc="http://purl.org/dc/elements/1.1/" xmlns:cc="http://creativecommons.org/ns#" xmlns:rdf="http://www.w3.org/1999/02/22-rdf-syntax-ns#" xmlns:inkscape="http://www.inkscape.org/namespaces/inkscape" width="111.40963745117188" height="109.40963745117188" style="">                                    <title>my vector image</title>                                    <!-- Created with Vector Paint - http://www.vectorpaint.yaks.com/ https://chrome.google.com/webstore/detail/hnbpdiengicdefcjecjbnjnoifekhgdo -->                                    <rect id="backgroundrect" width="100%" height="100%" x="0" y="0" fill="none" stroke="none" class="" style=""/>                                <g class="currentLayer" style=""><title>Layer 1</title><path fill="#d5d50b" fill-opacity="1" stroke="#b8b804" stroke-opacity="1" stroke-width="10" stroke-dasharray="none" stroke-linejoin="round" stroke-linecap="butt" stroke-dashoffset="" fill-rule="nonzero" opacity="1" marker-start="" marker-mid="" marker-end="" d="M5,53.33132895062455 C5,26.628937265196626 27.23820221271609,5 54.692772845698926,5 C82.14734347868173,5 104.38554569139785,26.628937265196626 104.38554569139785,53.33132895062455 C104.38554569139785,80.03372063605246 82.14734347868173,101.6626579012491 54.692772845698926,101.6626579012491 C27.23820221271609,101.6626579012491 5,80.03372063605246 5,53.33132895062455 z" id="svg_5" class="selected"/><path fill="#ffffff" stroke-width="2" stroke-linejoin="round" stroke-dashoffset="" fill-rule="nonzero" marker-start="" marker-mid="" marker-end="" id="svg_3" d="M54.541104768503104,6.41046006349269 C54.486758713691444,6.400631938619545 54.468018556631804,6.331974165065391 54.50041948705918,6.290840659942395 C54.543419621503126,6.227224885795492 54.635401052821315,6.184339812231109 54.70746958497837,6.224479774252329 C54.70890572957639,5.999726165776943 54.7080771361489,5.774960214348459 54.70829665977027,5.550201080624436 C54.88799121936585,5.514652341731148 55.06809206244909,5.4810881041297685 55.247849435397605,5.445833625115755 C55.247460050769845,5.696906771639206 55.24707082769905,5.947979918162656 55.24668154000547,6.199053064686108 C55.21851912151219,6.274992631275669 55.12752002124151,6.327652095862393 55.04828288286766,6.304104455504402 C55.0011090208377,6.289983406307049 54.98979967696974,6.2290924844583 55.01606803376726,6.191783808472176 C55.05203998731946,6.136130822333297 55.11899275315322,6.097920173740387 55.186301849057095,6.108344573107015 C55.205510004369906,6.106401495024202 55.23379546465743,6.137499274557645 55.225676774165876,6.102319725669913 C55.2250099962073,5.903731788376984 55.227335124231104,5.705090925018147 55.22396110368494,5.506544798671058 C55.194635022592315,5.495657280072008 55.14248126365735,5.520707141831926 55.104932546313684,5.522733809495028 C54.97936791060493,5.547171370309266 54.85353483182193,5.570313955012638 54.728258575318456,5.596180002624157 C54.73203852392692,5.816222383448537 54.73027590498825,6.036399470480965 54.72971316972335,6.256488379714939 C54.736364244317606,6.306728625494019 54.70867347526518,6.354054157214698 54.66656943275403,6.380243351093112 C54.630236787093295,6.40667187547837 54.585347954645265,6.41619895507917 54.5411048008145,6.410460160426878 L54.541104768503104,6.41046006349269 z" style="color: rgb(71, 118, 193);"/><path fill="#ffffff" stroke-width="2" stroke-linejoin="round" stroke-dashoffset="" fill-rule="nonzero" marker-start="" marker-mid="" marker-end="" id="svg_6" d="M53.35178261442155,19.851967434708598 C53.30884729293881,19.84420286555149 53.294041900518295,19.789960775853295 53.31963979109308,19.757463839833036 C53.35361143084779,19.707205109482935 53.42628004198757,19.67332437192657 53.48321675262233,19.705036373462995 C53.48435135807301,19.5274730072216 53.483696739714574,19.34989988960707 53.48387017120449,19.1723321582222 C53.62583528185832,19.144247386696854 53.76812137095697,19.117730441966778 53.91013610639979,19.08987814624045 C53.90982847865695,19.288234886191994 53.909520978549885,19.486591626143536 53.90921342738851,19.684948366095078 C53.8869641124027,19.744943331986942 53.81507157782403,19.786546187041935 53.75247141261896,19.76794271136308 C53.7152023792207,19.756786578888274 53.70626759423194,19.70868057903204 53.72702053292884,19.679205394437478 C53.75543965912813,19.63523755059622 53.808334731920326,19.605049775474615 53.86151131817597,19.61328542274693 C53.87668644590701,19.61175032176415 53.899032968298414,19.636318676657528 53.89261891326752,19.608525578403253 C53.89209213490047,19.451634025560715 53.89392906896195,19.29470065923857 53.891263472400425,19.13784213853438 C53.86809482246062,19.129240610551904 53.826891492905844,19.149030894713057 53.797226667078064,19.15063203444538 C53.698026126768326,19.169938579022528 53.59861350685627,19.188222046288452 53.499640796403376,19.208657146380578 C53.502627090611014,19.382498474757853 53.50123455878795,19.55644622584361 53.500789977859455,19.73032431332384 C53.50604456399087,19.770015899242498 53.4841678688841,19.807404757105516 53.45090417371425,19.828095154273086 C53.4222000878856,19.848974631076473 53.38673630934968,19.85650136373204 53.35178263994871,19.851967511290063 L53.35178261442155,19.851967434708598 z" style="color: rgb(71, 118, 193);" class=""/><path fill="#ffffff" stroke-width="2" stroke-linejoin="round" stroke-dashoffset="" fill-rule="nonzero" marker-start="" marker-mid="" marker-end="" id="svg_1" d="M39.40138616348934,90.15145468050706 C35.624579391565895,89.61296245494508 32.116536137007266,86.68405520673484 32.82903026135742,83.26502826408563 C33.18963831229836,79.51163424563306 36.721702174337636,76.4907795792563 40.27550064168037,74.50045539539936 C45.005139497491854,71.78070116852966 51.471882099095744,70.77036386596735 56.68403739881195,73.11610237535173 C56.989438497204254,54.196659787469635 56.81538580845249,35.272478969056884 56.86164804479643,16.350897493411722 C60.14846197339047,15.678662893544585 59.08573180027934,19.313571441955602 59.83221994929439,20.994554031949946 C60.54452650423617,25.937553359171325 64.46953655568993,29.816151529828577 68.37642564374201,33.279548015738726 C73.22356208062607,37.63288024721515 78.37053114906345,42.24872629370441 79.94602626410281,48.27998131740306 C81.66642460937777,55.27755315500316 78.91608849912818,62.436140661452136 75.34688003250196,68.70730264477892 C75.08842404033352,70.71714913060292 70.72387145511024,73.62493486215288 72.80329816520792,69.99303660022323 C76.30468856728103,63.780045432471105 79.19728728217571,56.6247529024257 76.80736579191391,49.744837220746014 C74.53146598710934,42.879977922602116 67.4376554040078,37.14679324741285 58.99296700428772,36.11878784072441 C58.93839016772267,50.61445105699861 59.12586579232732,65.11285472321927 58.79283044455449,79.60619585995437 C57.96262479277417,83.87542573729344 53.572671206449954,87.04315564786319 49.17032045447931,88.85196153734611 C46.134691272670416,89.96837678047255 42.70856309608241,90.64385189432329 39.40138909426162,90.1514596316361 L39.40138616348934,90.15145468050706 z" style="color: rgb(71, 118, 193);" class=""/><path fill="#ffffff" stroke-width="2" stroke-linejoin="round" stroke-dashoffset="" fill-rule="nonzero" marker-start="" marker-mid="" marker-end="" id="svg_4" d="M97.28946220970668,19.762450631671193 C97.19079648711451,19.745796240700507 97.09915197271445,19.655211522642993 97.11776524892018,19.549468470581445 C97.12718581398144,19.433384173570005 97.21945784541825,19.339955722254675 97.31229767411536,19.278399332871636 C97.4358552886532,19.194283261945408 97.60479319576241,19.163035731061147 97.74095612385595,19.235584310958686 C97.7489344563134,18.65044718390357 97.74438748440247,18.065163513704476 97.74559604423973,17.479960235512237 C97.83146113898106,17.459169484376428 97.8036982570593,17.57158928402143 97.82319959696797,17.6235784120716 C97.84180797308947,17.776454608710637 97.94434537473447,17.896411197285424 98.04640938230483,18.003526502623036 C98.17303651679381,18.13816558108476 98.30749651248965,18.28092363973401 98.34865492311367,18.46745721336919 C98.39359880193356,18.683876860110654 98.32174871373013,18.90527637057928 98.22850631248788,19.099229743633238 C98.22175437923704,19.16138991527013 98.10773431927154,19.251321390848624 98.16205749525571,19.13899469280398 C98.25352820979334,18.94684041630087 98.32909478219398,18.725542812271506 98.26666020584017,18.51276201401801 C98.20720434475184,18.30044687689419 98.02188484354889,18.123131969537198 97.80127485915169,18.091338002697345 C97.79984908776822,18.53965727477581 97.80474672195692,18.98806130299867 97.7960464692775,19.43630875821759 C97.77435808396173,19.568346734154808 97.65967444540219,19.666317716679636 97.54466694190039,19.72226014081056 C97.46536382558209,19.75678843121493 97.37585926984246,19.77767940438604 97.2894622862705,19.76245078479885 L97.28946220970668,19.762450631671193 z" style="color: rgb(71, 118, 193);"/><path fill="#ffffff" stroke-width="2" stroke-linejoin="round" stroke-dashoffset="" fill-rule="nonzero" marker-start="" marker-mid="" marker-end="" id="svg_8" d="M96.97606375627846,22.92810058162237 C96.77873223677801,22.894791787136633 96.59544313895034,22.713622282792265 96.63266970538166,22.502136099022405 C96.65151084259973,22.269967417563564 96.83605497497376,22.08311044456165 97.0217347022959,21.95999761943057 C97.26885002443622,21.791765414221057 97.60672596590042,21.729270328916567 97.87905192464717,21.874367543355977 C97.89500859557127,20.704092848514367 97.88591464832469,19.5335250672743 97.8883317689094,18.363118070108612 C98.06006202306637,18.321536552177133 98.00453623831146,18.54637623614294 98.04353893281758,18.65035453140203 C98.08075569907679,18.95610703982801 98.28583057959908,19.196020307330212 98.48995867161491,19.410250998685772 C98.74321303597014,19.67952925702086 99.01213312863862,19.965045481846133 99.09444998088726,20.338112769615634 C99.18433777237894,20.77095222610811 99.04063754185435,21.213751413805777 98.85415266913891,21.601658306001486 C98.84064879755145,21.72597869609492 98.61260859173946,21.905841714989247 98.7212549846245,21.68118823429432 C98.90419648259622,21.296879536555416 99.05532968431528,20.854284161812984 98.93046048458126,20.428722405037384 C98.81154871762202,20.004091970871656 98.44090957563098,19.6494620226022 97.99968944067135,19.585874064975027 C97.99683789683048,20.482512946810704 98.00663316889661,21.379321340999034 97.9892326569848,22.275816589061577 C97.94585587001731,22.539892640388352 97.71648850651714,22.73583467923083 97.4864734128886,22.847719569629163 C97.3278671205204,22.916776176444998 97.1488579416248,22.958558138522513 96.9760639094061,22.928100887877758 L96.97606375627846,22.92810058162237 z" style="color: rgb(71, 118, 193);"/></g></svg>