<svg xmlns="http://www.w3.org/2000/svg" xmlns:se="http://svg-edit.googlecode.com" xmlns:xlink="http://www.w3.org/1999/xlink" xmlns:dc="http://purl.org/dc/elements/1.1/" xmlns:cc="http://creativecommons.org/ns#" xmlns:rdf="http://www.w3.org/1999/02/22-rdf-syntax-ns#" xmlns:inkscape="http://www.inkscape.org/namespaces/inkscape" width="127" height="127">
                                    <title>my vector image</title>
                                    <!-- Created with Vector Paint - http://www.vectorpaint.yaks.com/ https://chrome.google.com/webstore/detail/hnbpdiengicdefcjecjbnjnoifekhgdo -->
                                    <rect id="backgroundrect" width="100%" height="100%" x="0" y="0" fill="none" stroke="none" class="" style=""/>
                                <g style="" class="currentLayer"><title>Layer 1</title><path fill="#484848" fill-opacity="1" stroke="#ffffff" stroke-opacity="1" stroke-width="9" stroke-dasharray="none" stroke-linejoin="round" stroke-linecap="butt" stroke-dashoffset="" fill-rule="nonzero" opacity="1" marker-start="" marker-mid="" marker-end="" d="M4.5,63.43975639343262 C4.5,30.876355071094153 30.825133337500347,4.5 63.3252979516983,4.5 C95.82546256589626,4.5 122.1505959033966,30.876355071094153 122.1505959033966,63.43975639343262 C122.1505959033966,96.00315771577107 95.82546256589626,122.37951278686523 63.3252979516983,122.37951278686523 C30.825133337500347,122.37951278686523 4.5,96.00315771577107 4.5,63.43975639343262 z" id="svg_4" class=""/><path fill="#ffffff" stroke="#ffffff" stroke-width="9" stroke-linejoin="round" stroke-dashoffset="" fill-rule="nonzero" marker-start="" marker-mid="" marker-end="" id="svg_1" d="M94.94146154322614,70.727612982454 C94.94146154322614,60.8565571983551 68.26016245420864,52.85447436805528 35.34712495702526,52.85447436805528 L35.34712495702526,38.555963860389134 L35.34712495702526,38.555963860389134 C68.26016245420864,38.555963860389134 94.94146154322614,46.55803901363497 94.94146154322614,56.42910247478783 L94.94146154322614,70.727612982454 C94.94146154322614,78.87773435758938 76.55770875095378,85.99567586920757 50.24570860362274,88.03320621299135 L50.24570860362274,95.18246242645625 L35.34712495702526,81.45149730265143 L50.24570860362274,66.5854414111237 L50.24570860362274,73.73469762458856 L50.24570860362274,73.73469762458856 C67.9880902825836,72.36077755627758 82.63653767513362,68.615237123353 89.96624385094553,63.578360607516096 " style="color: rgb(0, 0, 0);" class="" fill-opacity="1" opacity="0.93"/></g></svg>