<svg xmlns="http://www.w3.org/2000/svg" width="360" height="64" viewBox="0 0 360 64">
  <g id="right_arrow-mid" data-name="right arrow-mid" transform="translate(-133 -435)">
    <g id="Group_2704" data-name="Group 2704" transform="translate(5 310)">
      <rect id="Rectangle_2209" data-name="Rectangle 2209" width="360" height="64" rx="7" transform="translate(128 125)" opacity="0.8"/>
      <path id="Union_69" data-name="Union 69" d="M8778,11269.5l21.133-17.5v8.542H8822.5v18.334h-23.369V11287Z" transform="translate(-8632.565 -11110.565)"/>
      <path id="Union_69-2" data-name="Union 69" d="M8778,11269.5l21.133-17.5v8.542H8822.5v18.334h-23.369V11287Z" transform="translate(-8564.565 -11110.565)"/>
      <path id="Union_69-3" data-name="Union 69" d="M0,17.5,21.134,35V26.459H44.5V8.125H21.134V0Z" transform="translate(326.656 176.436) rotate(180)"/>
      <path id="Union_69-4" data-name="Union 69" d="M8778,11269.5l21.133-17.5v8.542H8822.5v18.334h-23.369V11287Z" transform="translate(-8428.565 -11110.565)"/>
      <path id="Union_69-5" data-name="Union 69" d="M8778,11269.5l21.133-17.5v8.542H8822.5v18.334h-23.369V11287Z" transform="translate(-8360.565 -11110.565)"/>
      <path id="Union_71" data-name="Union 71" d="M0,17.043,21.1,0V8.319H44.434V26.174H21.1v7.913Z" transform="translate(142.811 139.811)" fill="#fff"/>
      <path id="Union_72" data-name="Union 72" d="M0,17.043,21.1,0V8.319H44.434V26.174H21.1v7.913Z" transform="translate(210.982 139.811)" fill="#fff"/>
      <path id="Union_73" data-name="Union 73" d="M0,17.043,21.1,0V8.319H44.434V26.174H21.1v7.913Z" transform="translate(347.326 139.811)" fill="#fff"/>
      <path id="Union_74" data-name="Union 74" d="M0,17.043,21.1,34.086V25.767H44.434V7.913H21.1V0Z" transform="translate(328.936 173.897) rotate(180)" fill="#fff"/>
      <path id="Union_75" data-name="Union 75" d="M0,17.043,21.1,0V8.319H44.434V26.174H21.1v7.913Z" transform="translate(415.497 139.811)" fill="#fff"/>
    </g>
  </g>
</svg>
