<svg id="Stone-single" xmlns="http://www.w3.org/2000/svg" width="68.136" height="60.262" viewBox="0 0 68.136 60.262">
  <path id="Path_6041" data-name="Path 6041" d="M62.213,266.354c-2.152-1.453-2.74-3.223-2.976-5.737s-2.263-6.68-2.5-9.184a33.712,33.712,0,0,1,1.2-13.414c-1.492-.69-2.352-1.394-3.92,0-1.918,1.7-.348,5.388-1.917,9.34-1.293,3.257-3.232,6.469-2.09,10.955.674,2.649-.05,5.44,1.133,8.885-4.328-1.189-4.854-3.537-6.679-7.475-1.066-2.3-1.916-4.69-2.987-6.986a45.02,45.02,0,0,0-3.9-6.239c-1.648-2.426-1.466-4.748-1.441-7.538.016-1.847-2.694-5.8-3.98-7.215a3.01,3.01,0,0,0-3.888-.861,11.815,11.815,0,0,0-.62,1.382,27.214,27.214,0,0,0-1.3,7.712c-.476,1.561-1.933,6.416-2.21,7.8-.827,4.153-.053,15.663.007,25.078,6.025,1.272,13.7,3.305,19.823,3.974,3.642.4,12.928-1.942,13.534-2.231,3.924.173,6.32,1.652,8.628,2.221a18.2,18.2,0,0,0,4.854.194,15.731,15.731,0,0,0-1.288-4.283C68.08,269.406,65.1,268.3,62.213,266.354Z" transform="translate(-23.304 -217.283)" fill="#8a96a5"/>
  <g id="Group_2666" data-name="Group 2666" transform="translate(4.957 0.35)">
    <g id="Group_2664" data-name="Group 2664" transform="translate(35.43 32.984)">
      <path id="Path_6042" data-name="Path 6042" d="M107.132,274.634c-1.762.436-3.214-.8-4.486-.391-1.082.343-2.038,1.66-2.925,2.265-1.929,1.315-2.215.392-4.3.828-2.362.492-5.952,1.069-7.977.552-.256.186-.507.355-.748.5-.745.437-1.985,2.2-2.788,2.625-.323.169-.65.324-.977.471,2.385,1.451,4.663,2.682,6,5.444a15.732,15.732,0,0,1,1.288,4.283c6.762-.4,18.709-3.469,20.465-6.307a47.1,47.1,0,0,0-1.51-10.739C109.069,274.208,107.209,274.616,107.132,274.634Z" transform="translate(-82.926 -264.804)" fill="#9ba6b4"/>
      <path id="Path_6043" data-name="Path 6043" d="M97.589,272.829c2.09-.435,2.376.487,4.3-.827.886-.6,1.843-1.922,2.925-2.265,1.272-.4,2.724.828,4.486.391.077-.019,1.937-.427,2.033-.474-.8-3.191-1.22-6.175-2.041-9.356-1.5.828-6.1,1.982-7.192,3.181-3.138,3.43-1.858,5.126-8.246,6.636-.77.182-2.605,2.078-4.246,3.267C91.638,273.9,95.227,273.321,97.589,272.829Z" transform="translate(-85.099 -260.298)" fill="#a5afbf"/>
    </g>
    <path id="Path_6044" data-name="Path 6044" d="M83.253,264.526c1.791-1.05,4.1-3.553,4.994-3.763,6.388-1.51,5.108-3.205,8.246-6.636a16.588,16.588,0,0,1,4.254-2.85A62.778,62.778,0,0,0,90.893,235.5c-1.521-1.764-3.213-3.823-5.724-3.965-2.245-.128-4.683,1.033-6.652,2.28a27.838,27.838,0,0,0-4.788,4.532,33.713,33.713,0,0,0-1.2,13.414c.237,2.5,2.265,6.68,2.5,9.184s.824,4.284,2.976,5.737c.493.333.987.64,1.478.939.327-.147.654-.3.977-.471C81.268,266.73,82.508,264.963,83.253,264.526Z" transform="translate(-44.058 -217.962)" fill="#9daab9"/>
    <g id="Group_2665" data-name="Group 2665">
      <path id="Path_6045" data-name="Path 6045" d="M69.454,230.989a20.789,20.789,0,0,0-3.65-5.263,43.708,43.708,0,0,0-3.181-3.421c-1.232,8.742-9.94,19.172-17.317,22.583a35.185,35.185,0,0,1,3.173,5.182c1.07,2.3,1.921,4.688,2.987,6.986,1.826,3.938,2.352,6.287,6.679,7.475-1.183-3.445-.459-6.237-1.133-8.885-1.141-4.487.8-7.7,2.09-10.955,1.569-3.952,0-7.636,1.917-9.34,1.567-1.394,2.428-.69,3.92,0a27.837,27.837,0,0,1,4.788-4.532C69.636,230.876,69.542,230.932,69.454,230.989Z" transform="translate(-35.268 -214.965)" fill="#9ba6b4"/>
      <path id="Path_6046" data-name="Path 6046" d="M57.789,218.77a47.3,47.3,0,0,0-4.4-3.788c-2.017-1.528-5.033-4.432-7.781-3.294-1.676.694-3.216,2.208-4.677,3.261-1.72,1.239-3.465,2.451-5.137,3.753a18.75,18.75,0,0,0-5.364,5.981,3.01,3.01,0,0,1,3.888.861c1.286,1.415,4,5.367,3.98,7.215-.025,2.79-.207,5.112,1.441,7.538.243.358.486.707.729,1.057C47.849,237.942,56.557,227.512,57.789,218.77Z" transform="translate(-30.434 -211.43)" fill="#9daab9"/>
    </g>
  </g>
  <path id="Path_6047" data-name="Path 6047" d="M77.22,238.762a6.36,6.36,0,0,0-.717.128,37.206,37.206,0,0,1,4.492-3.061c.028-.016.057-.027.085-.043.2.013.4.023.6.03A13.8,13.8,0,0,0,77.22,238.762Zm12.637-2.237a6.6,6.6,0,0,1,2.036,1.352c.1.095.184.2.277.294A20.219,20.219,0,0,0,89.857,236.525Z" transform="translate(-40.451 -218.996)" fill="#bcb7bb"/>
  <path id="Path_6048" data-name="Path 6048" d="M74.944,285.143a15.709,15.709,0,0,1-5.638-2.707,9.843,9.843,0,0,0-5.829-4.733c0,2.142,3.031,3.472,3.591,3.942.253.239.2,1.81-.614,2.091-.875.3-2.553-.709-3.271-1.221-2.246-1.6-3.949-1.045-6.055-2.632-.825-.622-.345-3.1-2.96-5.265-2.261-1.87-3.477-6.33-4.171-12.079-1.552,4.261-.68,10.414.3,17.479-1.552,1.441-1.839,4.472-2.861,6.339a11.7,11.7,0,0,0-2.507-3.793c-1.882-1.909-3.8-2.191-6.168-3.035-3.731-1.331-4.749-5.768-6.463-9.052-.929-1.78-4.833-7.707-8.8-7.233-.913,4.413.006,18.555.041,20.2,3.746.506,15.717,3.984,20.363,4.046,1.368.25,13.052-1.01,13.705-2.072,3.949.813,7.328,2.837,12.427,2.5,6.324-.421,14.306-2.654,15.892-3.647C81.992,282.341,78.156,284.734,74.944,285.143Z" transform="translate(-23.09 -227.691)" fill="#6c7784"/>
  <g id="Group_2667" data-name="Group 2667" transform="translate(4.615 0)">
    <path id="Path_6049" data-name="Path 6049" d="M57.883,217.787c-1.28-1.218-3.149-2.005-4.624-3.159-2.955-2.312-5.92-4.613-8.073-3.367-3.237,1.874-12.1,8.684-13.295,10.165a15.15,15.15,0,0,0-1.965,3.792,4.465,4.465,0,0,1,1.849-.163c1.968.632,3.006,2.115,4.176,3.917,1.31,2.019,1.228,3.967,1.407,6.2a11.519,11.519,0,0,0,.48,1.864c.686,2.793,2.433,3.678,3.818,6.131a7.11,7.11,0,0,0-1.752-4.582c-.7-.7-.373-3.257-.071-4.291.315-1.079.8-2.1.371-3.234-.6-1.6-2.57-2.663-3.465-4.122a6.059,6.059,0,0,1-.436-6.22,7.024,7.024,0,0,1,1.28-1.578c1.291-1.008,2.567-2.035,3.835-3.07,1.538-1.254,3.022-2.732,5.054-3.02a6.248,6.248,0,0,1,2.519.194,41.761,41.761,0,0,1,5.125,3.111,15.429,15.429,0,0,1,3.454,2.5,27.088,27.088,0,0,0,3.756,3.788C60.144,220.932,59.231,219.071,57.883,217.787Z" transform="translate(-29.927 -210.911)" fill="#b2bdcb"/>
  </g>
  <path id="Path_6050" data-name="Path 6050" d="M89.731,235.564c-1.59-2.2-4.725-5.267-7.329-5.45a8.586,8.586,0,0,0-3.189.75,40.644,40.644,0,0,0-9.416,4.991c-2.024,1.519-3.25,3.127-2.858,5.863.767-1.234,2.9-.9,2.692.735-.482,3.748.068,9.321,2.048,12.476.791-3.658-1.021-5.951-.661-8.975a26.518,26.518,0,0,1,1.388-6.351c.879-2.139,2.476-2.789,4.26-3.857a26.288,26.288,0,0,1,3.531-2.013c3.2-1.28,5.64-.226,8.112,1.85,2.382,2,4.115,4.484,6.191,6.78C94.1,239.773,91.357,237.818,89.731,235.564Z" transform="translate(-37.318 -217.15)" fill="#b2bdcb"/>
  <path id="Path_6051" data-name="Path 6051" d="M107.7,257.419c-2.159-.788-3.768-1.137-4.732-3.834.148,3.453-.618,3.967-1.362,4.418-1.812.513-5.583,1.056-6.972,1.821-1.567.864-1.1,1.544-1.489,2.87-.545,1.847-2.005,4.05-3.734,4.779-1.917.809-2.962,2.725-2.94,5.542a10.106,10.106,0,0,1,4.667-3.282,22.256,22.256,0,0,0,5.958-2.26c1.473-.992,3.24-1.887,3.778-2.269,2.076-1.48,1-3.186,1.255-3.31,1.916-.929,3.477.345,4.393-1.22.41-.7,1.351-1.583,1.716-2.306A.783.783,0,0,0,107.7,257.419Z" transform="translate(-43.691 -224.781)" fill="#b2bdcb"/>
  <path id="Path_6052" data-name="Path 6052" d="M67.4,290.712a3.313,3.313,0,0,1-2.869-1.415,33.915,33.915,0,0,1-3.025-4.911c.374,3.836,1.293,5.217,1.583,6.624-.639,1.51-3.259,2.574-4.357,3.519a51.386,51.386,0,0,0,7.957-.616,8.624,8.624,0,0,1,4-1.027C70.691,290.894,68.43,290.835,67.4,290.712Z" transform="translate(-34.675 -234.793)" fill="#55616e"/>
  <path id="Path_6053" data-name="Path 6053" d="M34.035,290.009c-.639-1.51-4.389-3.083-5.608-3.968-.653-.475-.722-2.264-2.9-2.64-.524-2.447-.738-6.708-2.44-7.87.091,2.518.192,9.88.444,12.369C25.211,288.426,30.666,289.253,34.035,290.009Z" transform="translate(-23.09 -231.914)" fill="#55616e"/>
</svg>
