<svg id="Stone-double" xmlns="http://www.w3.org/2000/svg" width="82.322" height="97.383" viewBox="0 0 82.322 97.383">
  <g id="Group_2675" data-name="Group 2675" transform="translate(0 32.924)">
    <path id="Path_6041" data-name="Path 6041" d="M60.789,265.027c-2.072-1.4-2.639-3.1-2.866-5.525s-2.179-6.433-2.408-8.844a32.464,32.464,0,0,1,1.151-12.918c-1.436-.664-2.265-1.342-3.774,0-1.847,1.641-.335,5.189-1.846,8.994-1.245,3.136-3.112,6.229-2.013,10.55.649,2.551-.048,5.239,1.091,8.556-4.168-1.145-4.674-3.407-6.432-7.2-1.026-2.213-1.845-4.516-2.876-6.727a43.354,43.354,0,0,0-3.758-6.008c-1.587-2.337-1.412-4.572-1.388-7.259.016-1.779-2.595-5.585-3.833-6.948a2.9,2.9,0,0,0-3.744-.829,11.382,11.382,0,0,0-.6,1.331,26.207,26.207,0,0,0-1.256,7.427c-.458,1.5-1.862,6.178-2.128,7.515-.8,4-.051,15.083.007,24.149,5.8,1.225,13.193,3.183,19.089,3.826,3.507.383,12.45-1.87,13.033-2.148,3.779.167,6.086,1.591,8.309,2.138a17.519,17.519,0,0,0,4.675.187,15.149,15.149,0,0,0-1.24-4.124C66.439,267.966,63.566,266.9,60.789,265.027Z" transform="translate(-23.177 -217.772)" fill="#8a96a5"/>
    <g id="Group_2666" data-name="Group 2666" transform="translate(4.917 0.337)">
      <g id="Group_2664" data-name="Group 2664" transform="translate(34.119 31.763)">
        <path id="Path_6042" data-name="Path 6042" d="M106.235,274.617c-1.7.42-3.1-.766-4.32-.377-1.042.33-1.963,1.6-2.816,2.181-1.858,1.266-2.133.378-4.146.8-2.275.474-5.732,1.03-7.682.532-.246.179-.488.342-.72.478-.718.421-1.912,2.123-2.684,2.528-.311.163-.626.312-.941.454,2.3,1.4,4.491,2.582,5.774,5.242a15.148,15.148,0,0,1,1.24,4.124c6.512-.388,18.017-3.34,19.707-6.073a45.354,45.354,0,0,0-1.454-10.341C108.1,274.206,106.31,274.6,106.235,274.617Z" transform="translate(-82.926 -265.15)" fill="#9ba6b4"/>
        <path id="Path_6043" data-name="Path 6043" d="M97.294,272.365c2.013-.419,2.288.469,4.146-.8.853-.582,1.774-1.85,2.816-2.181,1.225-.389,2.623.8,4.32.377.074-.018,1.865-.411,1.958-.457-.773-3.072-1.174-5.947-1.966-9.01-1.44.8-5.87,1.909-6.926,3.063-3.022,3.3-1.789,4.936-7.941,6.39-.742.175-2.509,2-4.089,3.146C91.563,273.395,95.019,272.839,97.294,272.365Z" transform="translate(-85.266 -260.298)" fill="#a5afbf"/>
      </g>
      <path id="Path_6044" data-name="Path 6044" d="M82.849,263.3c1.724-1.011,3.953-3.421,4.809-3.624,6.151-1.454,4.919-3.087,7.941-6.39a15.972,15.972,0,0,1,4.1-2.745,60.453,60.453,0,0,0-9.488-15.193c-1.464-1.7-3.094-3.681-5.512-3.818-2.162-.123-4.51,1-6.406,2.2a26.8,26.8,0,0,0-4.61,4.364,32.464,32.464,0,0,0-1.151,12.918c.228,2.411,2.181,6.433,2.408,8.844s.794,4.125,2.866,5.525c.474.32.951.616,1.423.9.315-.142.63-.291.941-.454C80.938,265.427,82.132,263.725,82.849,263.3Z" transform="translate(-45.105 -218.464)" fill="#9daab9"/>
      <g id="Group_2665" data-name="Group 2665">
        <path id="Path_6045" data-name="Path 6045" d="M68.56,230.668a20.019,20.019,0,0,0-3.514-5.069,42.1,42.1,0,0,0-3.063-3.294c-1.186,8.419-9.572,18.462-16.676,21.747a33.884,33.884,0,0,1,3.056,4.99c1.031,2.211,1.85,4.514,2.876,6.727,1.758,3.792,2.265,6.054,6.432,7.2-1.139-3.317-.442-6.006-1.091-8.556-1.1-4.32.768-7.414,2.013-10.55,1.511-3.806,0-7.353,1.846-8.994,1.509-1.342,2.338-.664,3.774,0a26.8,26.8,0,0,1,4.61-4.364C68.736,230.558,68.645,230.612,68.56,230.668Z" transform="translate(-35.64 -215.236)" fill="#9ba6b4"/>
        <path id="Path_6046" data-name="Path 6046" d="M56.776,218.5a45.533,45.533,0,0,0-4.233-3.648c-1.943-1.472-4.847-4.268-7.493-3.173-1.614.668-3.1,2.126-4.5,3.14-1.656,1.193-3.336,2.36-4.947,3.614a18.056,18.056,0,0,0-5.165,5.759,2.9,2.9,0,0,1,3.744.829c1.238,1.363,3.849,5.169,3.833,6.948-.024,2.687-.2,4.922,1.388,7.259.234.344.468.681.7,1.018C47.2,236.961,55.59,226.917,56.776,218.5Z" transform="translate(-30.434 -211.43)" fill="#9daab9"/>
      </g>
    </g>
    <path id="Path_6047" data-name="Path 6047" d="M77.193,238.651a6.129,6.129,0,0,0-.69.123,35.827,35.827,0,0,1,4.326-2.948c.027-.016.055-.026.082-.042.192.013.385.022.578.029A13.284,13.284,0,0,0,77.193,238.651ZM89.362,236.5a6.357,6.357,0,0,1,1.961,1.3c.094.091.177.189.266.283A19.473,19.473,0,0,0,89.362,236.5Z" transform="translate(-41.642 -219.617)" fill="#bcb7bb"/>
    <path id="Path_6048" data-name="Path 6048" d="M73.024,284.306A15.126,15.126,0,0,1,67.6,281.7a9.479,9.479,0,0,0-5.613-4.558c0,2.062,2.918,3.344,3.458,3.8.244.23.194,1.743-.591,2.014-.843.291-2.458-.682-3.15-1.176-2.162-1.54-3.8-1.006-5.831-2.534-.794-.6-.332-2.987-2.85-5.07-2.177-1.8-3.348-6.1-4.016-11.632-1.494,4.1-.655,10.028.286,16.832-1.494,1.388-1.771,4.307-2.755,6.1a11.261,11.261,0,0,0-2.415-3.652c-1.812-1.838-3.661-2.11-5.939-2.922-3.593-1.282-4.573-5.555-6.224-8.717-.9-1.714-4.654-7.421-8.478-6.966-.879,4.25.006,17.868.04,19.452,3.607.487,15.135,3.836,19.609,3.9,1.317.241,12.569-.973,13.2-2,3.8.783,7.057,2.732,11.967,2.4,6.09-.405,13.776-2.556,15.3-3.512C79.811,281.608,76.117,283.912,73.024,284.306Z" transform="translate(-22.946 -228.982)" fill="#6c7784"/>
    <g id="Group_2667" data-name="Group 2667" transform="translate(4.587 0)">
      <path id="Path_6049" data-name="Path 6049" d="M56.848,217.533c-1.232-1.173-3.033-1.931-4.453-3.042-2.846-2.227-5.7-4.443-7.774-3.243-3.117,1.8-11.656,8.363-12.8,9.789a14.588,14.588,0,0,0-1.892,3.652,4.3,4.3,0,0,1,1.781-.157c1.895.609,2.895,2.036,4.021,3.772,1.262,1.944,1.182,3.82,1.355,5.97a11.093,11.093,0,0,0,.462,1.8c.66,2.69,2.343,3.542,3.677,5.9a6.847,6.847,0,0,0-1.687-4.412c-.671-.671-.359-3.136-.068-4.132.3-1.039.77-2.023.357-3.115-.582-1.543-2.474-2.565-3.337-3.969a5.835,5.835,0,0,1-.42-5.99,6.765,6.765,0,0,1,1.232-1.52c1.243-.97,2.472-1.96,3.693-2.956,1.481-1.208,2.91-2.631,4.867-2.909a6.016,6.016,0,0,1,2.426.187,40.209,40.209,0,0,1,4.935,3,14.857,14.857,0,0,1,3.327,2.41,26.084,26.084,0,0,0,3.617,3.648A29.851,29.851,0,0,0,56.848,217.533Z" transform="translate(-29.927 -210.911)" fill="#b2bdcb"/>
    </g>
    <path id="Path_6050" data-name="Path 6050" d="M88.884,235.362c-1.531-2.123-4.55-5.072-7.058-5.249a8.268,8.268,0,0,0-3.071.722,39.139,39.139,0,0,0-9.068,4.806c-1.949,1.462-3.13,3.011-2.752,5.646.738-1.188,2.8-.87,2.593.708-.464,3.609.065,8.976,1.972,12.014.762-3.522-.983-5.731-.636-8.643a25.538,25.538,0,0,1,1.337-6.116c.847-2.06,2.385-2.686,4.1-3.715a25.308,25.308,0,0,1,3.4-1.939c3.086-1.232,5.431-.218,7.811,1.782,2.294,1.926,3.963,4.318,5.962,6.529C93.093,239.415,90.451,237.533,88.884,235.362Z" transform="translate(-38.269 -217.63)" fill="#b2bdcb"/>
    <path id="Path_6051" data-name="Path 6051" d="M106.914,257.278c-2.079-.759-3.628-1.1-4.557-3.693.142,3.325-.595,3.821-1.312,4.254-1.745.494-5.377,1.017-6.714,1.754-1.509.832-1.056,1.486-1.434,2.764-.525,1.779-1.931,3.9-3.6,4.6-1.846.779-2.853,2.624-2.831,5.337a9.732,9.732,0,0,1,4.494-3.16,21.431,21.431,0,0,0,5.737-2.177c1.418-.955,3.121-1.817,3.638-2.185,2-1.425.963-3.068,1.209-3.187,1.845-.9,3.349.332,4.231-1.175.395-.673,1.3-1.524,1.653-2.22A.754.754,0,0,0,106.914,257.278Z" transform="translate(-45.131 -225.848)" fill="#b2bdcb"/>
    <path id="Path_6052" data-name="Path 6052" d="M67.079,290.478a3.191,3.191,0,0,1-2.762-1.362,32.655,32.655,0,0,1-2.913-4.729c.36,3.694,1.245,5.024,1.525,6.379-.615,1.454-3.139,2.478-4.2,3.389a49.483,49.483,0,0,0,7.663-.593,8.3,8.3,0,0,1,3.853-.989C70.249,290.653,68.071,290.6,67.079,290.478Z" transform="translate(-35.422 -236.629)" fill="#55616e"/>
    <path id="Path_6053" data-name="Path 6053" d="M33.688,289.473c-.616-1.454-4.227-2.968-5.4-3.821-.629-.457-.7-2.181-2.79-2.543-.505-2.357-.711-6.46-2.35-7.579.088,2.424-.577,7.485.382,11.785C29.094,288.97,30.444,288.745,33.688,289.473Z" transform="translate(-23.005 -233.529)" fill="#55616e"/>
  </g>
  <g id="Group_2687" data-name="Group 2687" transform="translate(5.782)">
    <path id="Path_6057" data-name="Path 6057" d="M66.614,266.534c-2.072-1.4-2.639-3.1-2.866-5.525s-2.179-6.433-2.408-8.844a32.464,32.464,0,0,1,1.151-12.918c-1.436-.664-2.265-1.342-3.774,0-1.847,1.641-.335,5.189-1.846,8.994-1.245,3.136-3.112,6.229-2.013,10.55.649,2.551-.048,5.239,1.091,8.556-4.168-1.145,5.535,7.409,6.119,7.131,3.779.167,6.086,1.591,8.309,2.138a17.522,17.522,0,0,0,4.675.187,15.149,15.149,0,0,0-1.24-4.124C72.264,269.473,69.391,268.41,66.614,266.534Z" transform="translate(-54.241 -231.756)" fill="#8a96a5"/>
    <g id="Group_2687-2" data-name="Group 2687" transform="translate(6.921 0.923)">
      <g id="Group_2664-2" data-name="Group 2664" transform="translate(6.875 18.701)">
        <path id="Path_6042-2" data-name="Path 6042" d="M106.235,274.617c-1.7.42-3.1-.766-4.32-.377-1.042.33-1.963,1.6-2.816,2.181-1.858,1.266-2.133.378-4.146.8-2.275.474-5.732,1.03-7.682.532-.246.179-.488.342-.72.478-.718.421-1.912,2.123-2.684,2.528-.311.163-.626.312-.941.454,2.3,1.4,4.491,2.582,5.774,5.242a15.148,15.148,0,0,1,1.24,4.124c6.512-.388,18.017-3.34,19.707-6.073a45.354,45.354,0,0,0-1.454-10.341C108.1,274.206,106.31,274.6,106.235,274.617Z" transform="translate(-82.926 -265.15)" fill="#9ba6b4"/>
        <path id="Path_6043-2" data-name="Path 6043" d="M97.294,272.365c2.013-.419,2.288.469,4.146-.8.853-.582,1.774-1.85,2.816-2.181,1.225-.389,2.623.8,4.32.377.074-.018,1.865-.411,1.958-.457-.773-3.072-1.174-5.947-1.966-9.01-1.44.8-5.87,1.909-6.926,3.063-3.022,3.3-1.789,4.936-7.941,6.39-.742.175-2.509,2-4.089,3.146C91.563,273.395,95.019,272.839,97.294,272.365Z" transform="translate(-85.266 -260.298)" fill="#a5afbf"/>
      </g>
      <path id="Path_6044-2" data-name="Path 6044" d="M82.849,263.3c1.724-1.011,3.953-3.421,4.809-3.624,6.151-1.454,4.919-3.087,7.941-6.39a15.972,15.972,0,0,1,4.1-2.745,60.453,60.453,0,0,0-9.488-15.193c-1.464-1.7-3.094-3.681-5.512-3.818-2.162-.123-4.51,1-6.406,2.2a26.8,26.8,0,0,0-4.61,4.364,32.464,32.464,0,0,0-1.151,12.918c.228,2.411,2.181,6.433,2.408,8.844s.794,4.125,2.866,5.525c.474.32.951.616,1.423.9.315-.142.63-.291.941-.454C80.938,265.427,82.132,263.725,82.849,263.3Z" transform="translate(-72.348 -231.526)" fill="#9daab9"/>
    </g>
    <path id="Path_6058" data-name="Path 6058" d="M78.883,284.306a15.126,15.126,0,0,1-5.429-2.607,9.479,9.479,0,0,0-5.613-4.558c0,2.062,2.918,3.344,3.458,3.8.244.23.194,1.743-.591,2.014-.843.291-2.458-.682-3.15-1.176-2.162-1.54-3.8-1.006-5.831-2.534-.794-.6-.332-2.987-2.85-5.07-2.177-1.8-3.348-6.1-4.016-11.632-1.494,4.1-.655,10.028.286,16.832-1.494,1.388,1.152,5.2,1.152,5.2s5.256,1.022,5.885,0c3.8.783,7.057,2.732,11.967,2.4,6.09-.405,13.776-2.556,15.3-3.512C85.67,281.608,81.976,283.912,78.883,284.306Z" transform="translate(-54.045 -240.648)" fill="#6c7784"/>
    <path id="Path_6059" data-name="Path 6059" d="M88.884,235.362c-1.531-2.123-4.55-5.072-7.058-5.249a8.268,8.268,0,0,0-3.071.722,39.139,39.139,0,0,0-9.068,4.806c-1.949,1.462-3.13,3.011-2.752,5.646.738-1.188,2.8-.87,2.593.708-.464,3.609.065,8.976,1.972,12.014.762-3.522-.983-5.731-.636-8.643a25.538,25.538,0,0,1,1.337-6.116c.847-2.06,2.385-2.686,4.1-3.715a25.308,25.308,0,0,1,3.4-1.939c3.086-1.232,5.431-.218,7.811,1.782,2.294,1.926,3.963,4.318,5.962,6.529C93.093,239.415,90.451,237.533,88.884,235.362Z" transform="translate(-63.508 -230.106)" fill="#b2bdcb"/>
    <path id="Path_6060" data-name="Path 6060" d="M106.914,257.278c-2.079-.759-3.628-1.1-4.557-3.693.142,3.325-.595,3.821-1.312,4.254-1.745.494-5.377,1.017-6.714,1.754-1.509.832-1.056,1.486-1.434,2.764-.525,1.779-1.931,3.9-3.6,4.6-1.846.779-2.853,2.624-2.831,5.337a9.732,9.732,0,0,1,4.494-3.16,21.431,21.431,0,0,0,5.737-2.177c1.418-.955,3.121-1.817,3.638-2.185,2-1.425.963-3.068,1.209-3.187,1.845-.9,3.349.332,4.231-1.175.395-.673,1.3-1.524,1.653-2.22A.754.754,0,0,0,106.914,257.278Z" transform="translate(-70.371 -237.514)" fill="#b2bdcb"/>
  </g>
  <g id="Group_2689" data-name="Group 2689" transform="translate(38.045 46.717)">
    <path id="Path_6057-2" data-name="Path 6057" d="M67.736,269.137c-2.264-1.529-2.884-3.392-3.132-6.037s-2.382-7.03-2.631-9.665a35.476,35.476,0,0,1,1.258-14.116c-1.57-.726-2.475-1.467-4.125,0-2.018,1.793-.366,5.67-2.017,9.829-1.36,3.427-3.4,6.807-2.2,11.528.709,2.787-.053,5.725,1.192,9.35-4.554-1.251,6.049,8.1,6.687,7.793,4.13.182,6.65,1.739,9.079,2.337a19.146,19.146,0,0,0,5.108.2,16.555,16.555,0,0,0-1.355-4.507C73.91,272.349,70.771,271.187,67.736,269.137Z" transform="translate(-54.215 -231.132)" fill="#8a96a5"/>
    <g id="Group_2687-3" data-name="Group 2687" transform="translate(7.563 1.008)">
      <g id="Group_2664-3" data-name="Group 2664" transform="translate(7.513 20.436)">
        <path id="Path_6042-3" data-name="Path 6042" d="M108.4,274.659c-1.854.459-3.382-.837-4.721-.412-1.139.361-2.145,1.747-3.078,2.383-2.03,1.384-2.33.413-4.53.871-2.486.518-6.263,1.125-8.395.581-.269.2-.533.374-.787.522-.784.46-2.089,2.32-2.933,2.762-.34.178-.684.341-1.028.5,2.509,1.526,4.907,2.822,6.309,5.728a16.553,16.553,0,0,1,1.355,4.507c7.116-.424,19.688-3.65,21.536-6.637a49.561,49.561,0,0,0-1.589-11.3C110.437,274.21,108.479,274.639,108.4,274.659Z" transform="translate(-82.926 -264.314)" fill="#9ba6b4"/>
        <path id="Path_6043-3" data-name="Path 6043" d="M98.007,273.485c2.2-.458,2.5.513,4.53-.871.933-.636,1.939-2.022,3.078-2.383,1.338-.425,2.867.871,4.721.412.081-.02,2.038-.449,2.139-.5-.844-3.358-1.283-6.5-2.148-9.846-1.574.872-6.415,2.086-7.569,3.348-3.3,3.609-1.955,5.394-8.678,6.983-.81.191-2.742,2.187-4.468,3.438C91.744,274.61,95.521,274,98.007,273.485Z" transform="translate(-84.863 -260.298)" fill="#a5afbf"/>
      </g>
      <path id="Path_6044-3" data-name="Path 6044" d="M83.823,266.252c1.884-1.105,4.319-3.739,5.255-3.96,6.722-1.589,5.375-3.373,8.677-6.983a17.456,17.456,0,0,1,4.476-3,66.063,66.063,0,0,0-10.369-16.6c-1.6-1.856-3.381-4.023-6.024-4.172-2.362-.134-4.928,1.087-7,2.4A29.289,29.289,0,0,0,73.8,238.7a35.477,35.477,0,0,0-1.258,14.116c.249,2.635,2.384,7.03,2.631,9.665s.867,4.508,3.132,6.037c.519.35,1.039.673,1.556.988.344-.155.688-.317,1.028-.5C81.734,268.572,83.039,266.712,83.823,266.252Z" transform="translate(-72.348 -231.526)" fill="#9daab9"/>
    </g>
    <path id="Path_6058-2" data-name="Path 6058" d="M81.188,286.325a16.53,16.53,0,0,1-5.933-2.849,10.359,10.359,0,0,0-6.134-4.981c0,2.254,3.189,3.654,3.779,4.148.266.251.212,1.9-.646,2.2-.921.318-2.686-.746-3.442-1.285-2.363-1.683-4.156-1.1-6.372-2.769-.868-.654-.363-3.264-3.115-5.54-2.379-1.967-3.659-6.661-4.389-12.711-1.633,4.484-.715,10.959.313,18.394-1.633,1.517,1.258,5.684,1.258,5.684s5.744,1.117,6.431,0c4.155.855,7.711,2.985,13.077,2.627,6.655-.443,15.054-2.793,16.724-3.838C88.6,283.377,84.567,285.9,81.188,286.325Z" transform="translate(-54.045 -238.617)" fill="#6c7784"/>
    <path id="Path_6059-2" data-name="Path 6059" d="M90.927,235.85c-1.673-2.32-4.972-5.542-7.713-5.735a9.033,9.033,0,0,0-3.356.789,42.769,42.769,0,0,0-9.909,5.252c-2.129,1.6-3.42,3.291-3.007,6.169.807-1.3,3.055-.951,2.833.773-.507,3.944.071,9.809,2.155,13.129.832-3.849-1.075-6.262-.7-9.445A27.905,27.905,0,0,1,72.7,240.1c.925-2.251,2.606-2.935,4.483-4.059a27.667,27.667,0,0,1,3.716-2.119c3.372-1.347,5.935-.238,8.536,1.947,2.507,2.105,4.331,4.718,6.515,7.135C95.526,240.279,92.639,238.222,90.927,235.85Z" transform="translate(-63.197 -230.106)" fill="#b2bdcb"/>
    <path id="Path_6060-2" data-name="Path 6060" d="M108.811,257.62c-2.272-.829-3.965-1.2-4.98-4.035.156,3.634-.65,4.175-1.433,4.649-1.906.54-5.875,1.112-7.336,1.916-1.649.909-1.154,1.624-1.567,3.02-.574,1.944-2.11,4.262-3.929,5.029-2.017.851-3.117,2.867-3.094,5.832a10.634,10.634,0,0,1,4.911-3.453,23.423,23.423,0,0,0,6.27-2.379c1.55-1.043,3.41-1.985,3.975-2.388,2.185-1.558,1.052-3.353,1.321-3.483,2.016-.978,3.659.363,4.623-1.284.431-.735,1.422-1.666,1.806-2.426A.824.824,0,0,0,108.811,257.62Z" transform="translate(-68.877 -236.023)" fill="#b2bdcb"/>
  </g>
  <g id="Group_2688" data-name="Group 2688" transform="translate(22.342 10.35)">
    <path id="Path_6057-3" data-name="Path 6057" d="M68.827,271.67c-2.451-1.655-3.122-3.672-3.39-6.536s-2.578-7.61-2.848-10.463a38.406,38.406,0,0,1,1.362-15.282c-1.7-.786-2.68-1.588-4.465,0-2.185,1.942-.4,6.139-2.184,10.641-1.473,3.71-3.682,7.37-2.381,12.481.767,3.017-.057,6.2,1.29,10.122-4.93-1.354,6.548,8.765,7.239,8.436,4.471.2,7.2,1.882,9.829,2.53a20.726,20.726,0,0,0,5.53.221,17.921,17.921,0,0,0-1.467-4.879C75.511,275.147,72.112,273.89,68.827,271.67Z" transform="translate(-54.189 -230.526)" fill="#8a96a5"/>
    <g id="Group_2687-4" data-name="Group 2687" transform="translate(8.188 1.092)">
      <g id="Group_2664-4" data-name="Group 2664" transform="translate(8.134 22.124)">
        <path id="Path_6042-4" data-name="Path 6042" d="M110.5,274.7c-2.007.5-3.662-.906-5.11-.446-1.233.391-2.322,1.892-3.332,2.58-2.2,1.5-2.523.447-4.9.943-2.691.56-6.781,1.218-9.088.629-.291.211-.577.4-.852.565-.849.5-2.261,2.511-3.176,2.99-.368.193-.741.369-1.113.537,2.717,1.653,5.313,3.055,6.831,6.2a17.922,17.922,0,0,1,1.467,4.879c7.7-.459,21.314-3.952,23.315-7.185a53.656,53.656,0,0,0-1.72-12.234C112.709,274.215,110.59,274.679,110.5,274.7Z" transform="translate(-82.926 -263.501)" fill="#9ba6b4"/>
        <path id="Path_6043-4" data-name="Path 6043" d="M98.7,274.574c2.381-.5,2.707.555,4.9-.943,1.01-.688,2.1-2.189,3.332-2.58,1.449-.46,3.1.943,5.11.446.088-.022,2.207-.486,2.316-.541-.914-3.635-1.389-7.035-2.325-10.659-1.7.944-6.944,2.258-8.194,3.624-3.575,3.908-2.117,5.839-9.394,7.56-.877.207-2.968,2.368-4.837,3.722C91.92,275.792,96.009,275.135,98.7,274.574Z" transform="translate(-84.471 -260.298)" fill="#a5afbf"/>
      </g>
      <path id="Path_6044-4" data-name="Path 6044" d="M84.771,269.121c2.04-1.2,4.676-4.048,5.689-4.287,7.277-1.72,5.819-3.652,9.394-7.56a18.9,18.9,0,0,1,4.846-3.247,71.518,71.518,0,0,0-11.225-17.973c-1.732-2.009-3.66-4.355-6.521-4.517-2.558-.145-5.335,1.177-7.579,2.6a31.71,31.71,0,0,0-5.454,5.163,38.407,38.407,0,0,0-1.362,15.282c.27,2.853,2.581,7.61,2.848,10.463s.939,4.88,3.39,6.536c.561.379,1.125.729,1.684,1.07.373-.168.745-.344,1.113-.537C82.51,271.632,83.922,269.619,84.771,269.121Z" transform="translate(-72.348 -231.526)" fill="#9daab9"/>
    </g>
    <path id="Path_6058-3" data-name="Path 6058" d="M83.43,288.29c-1.977-.286-6.127-2.569-6.423-3.084a11.214,11.214,0,0,0-6.641-5.393c0,2.44,3.453,3.955,4.091,4.491.288.272.23,2.062-.7,2.382-1,.345-2.908-.807-3.726-1.391-2.558-1.822-4.5-1.19-6.9-3-.94-.708-.393-3.534-3.372-6-2.576-2.13-3.961-7.211-4.751-13.761-1.768,4.854-.774,11.864.338,19.913-1.768,1.642,1.362,6.153,1.362,6.153s6.218,1.21,6.962,0c4.5.926,8.348,3.232,14.157,2.844,7.205-.48,16.3-3.023,18.1-4.155C91.459,285.1,87.088,287.825,83.43,288.29Z" transform="translate(-54.045 -236.641)" fill="#6c7784"/>
    <path id="Path_6059-3" data-name="Path 6059" d="M92.915,236.324c-1.812-2.511-5.383-6-8.35-6.209a9.78,9.78,0,0,0-3.633.854A46.3,46.3,0,0,0,70.2,236.655c-2.305,1.73-3.7,3.563-3.256,6.679.874-1.406,3.307-1.03,3.067.837-.549,4.27.077,10.619,2.333,14.213.9-4.167-1.163-6.78-.753-10.225a30.212,30.212,0,0,1,1.582-7.236c1-2.437,2.821-3.177,4.854-4.395a29.943,29.943,0,0,1,4.023-2.294c3.651-1.458,6.425-.258,9.241,2.108,2.714,2.279,4.688,5.108,7.054,7.724C97.894,241.119,94.768,238.892,92.915,236.324Z" transform="translate(-62.894 -230.106)" fill="#b2bdcb"/>
    <path id="Path_6060-3" data-name="Path 6060" d="M110.656,257.953c-2.46-.9-4.292-1.3-5.391-4.368.168,3.934-.7,4.52-1.552,5.033-2.064.584-6.361,1.2-7.942,2.075-1.785.984-1.25,1.759-1.7,3.27-.621,2.1-2.285,4.614-4.254,5.444-2.184.921-3.375,3.1-3.35,6.314a11.513,11.513,0,0,1,5.316-3.739c2.531-.727,5.059-1.41,6.788-2.575,1.678-1.13,3.692-2.149,4.3-2.585,2.365-1.686,1.139-3.629,1.43-3.771,2.183-1.059,3.962.393,5.005-1.39.467-.8,1.539-1.8,1.955-2.627A.893.893,0,0,0,110.656,257.953Z" transform="translate(-67.424 -234.572)" fill="#b2bdcb"/>
  </g>
</svg>
