<svg xmlns="http://www.w3.org/2000/svg" width="56" height="56" viewBox="0 0 56 56"><g transform="translate(700 -10444)"><rect width="56" height="56" transform="translate(-700 10444)" fill="#fff" opacity="0"/><g transform="translate(-647.916 10495.846) rotate(180)"><path d="M0,13.307H22.085A8.937,8.937,0,0,0,29.89,0L40.933,18.947A23.819,23.819,0,0,1,0,13.307Z" transform="translate(1.748 19.464)" fill="#f44336"/><path d="M0,23.833A23.853,23.853,0,0,1,23.833,0a21.26,21.26,0,0,1,2.979.2L16.087,19.364a8.959,8.959,0,0,0,3.277,12.214,8.854,8.854,0,0,0,4.449,1.192H1.748A23.5,23.5,0,0,1,0,23.833Z" transform="translate(0)" fill="#ffc107"/><path d="M0,19.166,10.725,0h.02A23.819,23.819,0,0,1,26.593,38.212L15.551,19.265l-.06-.1A8.937,8.937,0,0,0,0,19.166Z" transform="translate(16.087 0.199)" fill="#4caf50"/><path d="M1.192,4.48a8.937,8.937,0,0,1,15.491,0l.06.1A8.937,8.937,0,0,1,8.938,17.886h-.02a8.854,8.854,0,0,1-4.449-1.192A8.959,8.959,0,0,1,1.192,4.48Z" transform="translate(14.895 14.884)" fill="#f44336"/><path d="M1.192,4.48a8.937,8.937,0,0,1,15.491,0l.06.1A8.937,8.937,0,0,1,8.938,17.886h-.02a8.854,8.854,0,0,1-4.449-1.192A8.959,8.959,0,0,1,1.192,4.48Z" transform="translate(14.895 14.884)" fill="#2196f3"/><path d="M9.972,0A9.859,9.859,0,0,1,14.9,1.323,9.939,9.939,0,1,1,1.33,4.965h0A9.986,9.986,0,0,1,9.972,0ZM9.92,17.875A7.948,7.948,0,1,0,3.054,5.958h0A7.944,7.944,0,0,0,9.918,17.874h0Z" transform="translate(13.895 13.903)" fill="#fafafa"/></g></g></svg>