<svg xmlns="http://www.w3.org/2000/svg" width="192" height="192" viewBox="0 0 192 192">
  <g id="app_icon__192" data-name="app icon _192" transform="translate(-204.546 -2076)">
    <g id="Group_12504" data-name="Group 12504" transform="translate(204.985 2076)">
      <rect id="Rectangle_4268" data-name="Rectangle 4268" width="192" height="192" rx="16" transform="translate(-0.439)" fill="#f5bb56"/>
      <path id="Rectangle_4269" data-name="Rectangle 4269" d="M0,0H192a0,0,0,0,1,0,0V0a15,15,0,0,1-15,15H15A15,15,0,0,1,0,0V0A0,0,0,0,1,0,0Z" transform="translate(-0.439 177)" fill="#2a3b3d"/>
    </g>
    <path id="Path_12195" data-name="Path 12195" d="M68.7-84.7a7.938,7.938,0,0,1,5.67,2.062,7.088,7.088,0,0,1,2.191,5.412,6.884,6.884,0,0,1-2.191,5.348,8.089,8.089,0,0,1-5.67,2H48.473V-2.36a7.31,7.31,0,0,1-2.448,5.605A8.6,8.6,0,0,1,39.968,5.5,8.151,8.151,0,0,1,34.04,3.246,7.5,7.5,0,0,1,31.721-2.36V-69.881H11.49a7.938,7.938,0,0,1-5.67-2.062A7.088,7.088,0,0,1,3.63-77.355a6.838,6.838,0,0,1,2.255-5.283A8,8,0,0,1,11.49-84.7Z" transform="translate(260.469 2212.137)" fill="#fff"/>
  </g>
</svg>
