<svg xmlns="http://www.w3.org/2000/svg" width="56" height="40" viewBox="0 0 56 40"><g transform="translate(-822 -24)"><g transform="translate(825.99 27.41)"><path d="M47.011,5.32a6.049,6.049,0,0,0-4.23-4.28C39.024,0,24,0,24,0S8.975,0,5.219,1A6.174,6.174,0,0,0,.988,5.32C0,9.12,0,17,0,17s0,7.92.988,11.68a6.05,6.05,0,0,0,4.231,4.28C9.015,34,24,34,24,34s15.025,0,18.781-1a6.049,6.049,0,0,0,4.231-4.28C48,24.92,48,17.04,48,17.04s.04-7.92-.989-11.72Zm0,0" transform="translate(0 0)" fill="rgba(0,0,0,0.6)"/><path d="M204.969,119.7l14.6-8.607-14.6-8.607Zm0,0" transform="translate(-186.895 -94.091)" fill="#fff" opacity="0.9"/></g><rect width="56" height="40" transform="translate(822 24)" fill="none"/></g></svg>