<svg xmlns="http://www.w3.org/2000/svg" xmlns:xlink="http://www.w3.org/1999/xlink" width="76.404" height="90.329" viewBox="0 0 76.404 90.329"><defs><linearGradient id="a" x1="0.5" x2="0.5" y2="1" gradientUnits="objectBoundingBox"><stop offset="0" stop-color="#fff"/><stop offset="0.619" stop-color="#93e5eb"/><stop offset="1" stop-color="#33ced9"/></linearGradient><linearGradient id="b" x1="0.5" x2="0.5" y2="1" gradientUnits="objectBoundingBox"><stop offset="0" stop-color="#54a1a7"/><stop offset="1" stop-color="#249098"/></linearGradient><linearGradient id="c" x1="0.5" x2="0.5" y2="1" gradientUnits="objectBoundingBox"><stop offset="0" stop-color="#5bc3cb"/><stop offset="1" stop-color="#53b8bf"/></linearGradient></defs><g transform="translate(-145 -216.671)"><circle cx="35" cy="35" r="35" transform="translate(148 237)" fill="url(#a)"/><g transform="translate(125.504 261.44) rotate(-11)"><path d="M8506.784,6328a31.9,31.9,0,0,1-9.913-1.389c-.426-.111-.89-.233-1.389-.362a2.945,2.945,0,0,1-2.689,1.75h-9.823a.984.984,0,0,1-.982-.982v-23.575a.984.984,0,0,1,.982-.982h9.823a2.951,2.951,0,0,1,2.7,1.772c6.02-1.5,14-4.988,14-11.2v-.982a3.928,3.928,0,0,1,7.855-.094c.03.212.052.548.071,1.13a24.706,24.706,0,0,1-1.507,9.375h7.332a3.931,3.931,0,0,1,1.3,7.64,3.88,3.88,0,0,1,.665,2.183,3.942,3.942,0,0,0-1.964,5.894,3.928,3.928,0,0,0-1.965,5.894,3.933,3.933,0,0,1-3.929,3.929Zm4.67-35.95v.982c0,7.338-8.607,11.473-15.715,13.166v18.092q.886.225,1.629.421a29.98,29.98,0,0,0,9.416,1.325h10.563a1.965,1.965,0,0,0,0-3.929H8514.4a.982.982,0,1,1,0-1.964h4.911a1.965,1.965,0,1,0,0-3.929h-2.946a.982.982,0,1,1,0-1.964h4.911a1.965,1.965,0,1,0,0-3.929h-2.946a.982.982,0,0,1,0-1.965h4.911a1.964,1.964,0,0,0,0-3.929h-12.768a.982.982,0,1,1,0-1.965h3.307a23.053,23.053,0,0,0,1.6-10.411v0a1.964,1.964,0,0,0-3.929,0Zm-27.5,33.986h8.841a.982.982,0,0,0,.979-.982V6305.4a.981.981,0,0,0-.979-.982h-8.841Zm5.894-4.911v-7.858a.982.982,0,0,1,1.965,0v7.858a.982.982,0,0,1-1.965,0Zm0-11.788a.982.982,0,1,1,.98.982A.982.982,0,0,1,8489.846,6309.333Zm31.431-17.287a.982.982,0,0,1,0-1.965h3.929a.982.982,0,0,1,0,1.965Zm-19.646,0a.982.982,0,0,1,0-1.965h3.929a.982.982,0,0,1,0,1.965Zm16.649-5.845a.983.983,0,0,1,0-1.389l2.778-2.778a.982.982,0,1,1,1.389,1.389l-2.778,2.777a.978.978,0,0,1-1.389,0Zm-11.113,0-2.777-2.777a.982.982,0,0,1,1.389-1.389l2.777,2.778a.982.982,0,1,1-1.389,1.389Zm5.269-2.994v-4.52a.982.982,0,0,1,1.965,0v4.52a.982.982,0,0,1-1.965,0Z" transform="translate(-8455.987 -6277.706)" fill="url(#b)"/></g><g transform="translate(0 -1)"><g transform="translate(215 248.433)"><path d="M54.591,17.471l-1.673-.155-.665-1.543a.134.134,0,0,0-.246,0l-.665,1.543-1.673.155a.134.134,0,0,0-.076.234l1.262,1.109-.369,1.639a.134.134,0,0,0,.2.145l1.445-.858,1.445.858a.134.134,0,0,0,.2-.145L53.4,18.814,54.667,17.7A.134.134,0,0,0,54.591,17.471Z" transform="translate(-48.928 -15.632)" fill="url(#c)"/><g transform="translate(0 0)"><path d="M89.369,11.058c.085.118.326.627.464.924a.047.047,0,0,1-.074.053c-.238-.225-.644-.614-.729-.733a.209.209,0,1,1,.339-.244Z" transform="translate(-87.877 -10.971)" fill="url(#c)"/><path d="M355.753,11.058c-.085.118-.326.627-.464.924a.047.047,0,0,0,.074.053c.237-.225.644-.614.729-.733a.209.209,0,1,0-.339-.244Z" transform="translate(-350.84 -10.971)" fill="url(#c)"/><path d="M415.719,282.881c-.139-.045-.7-.12-1.021-.161a.047.047,0,0,0-.028.087c.286.158.781.427.92.472a.209.209,0,0,0,.13-.4Z" transform="translate(-409.459 -279.321)" fill="url(#c)"/><path d="M.145,282.881c.139-.045.7-.12,1.021-.161a.047.047,0,0,1,.028.087c-.286.158-.781.427-.92.472a.209.209,0,0,1-.13-.4Z" transform="translate(0 -279.321)" fill="url(#c)"/><path d="M239.794,400.761c0-.146.1-.7.163-1.02a.047.047,0,0,1,.091,0c.062.321.163.875.163,1.02a.209.209,0,1,1-.418,0Z" transform="translate(-236.795 -394.84)" fill="url(#c)"/></g><path d="M52.495,16.334l-.242-.561a.134.134,0,0,0-.246,0l-.665,1.543-1.673.155a.134.134,0,0,0-.076.234l1.262,1.109-.369,1.639a.134.134,0,0,0,.2.145l.192-.114A10.407,10.407,0,0,1,52.495,16.334Z" transform="translate(-48.928 -15.632)" fill="url(#c)"/></g><g transform="translate(145 248.433)"><path d="M54.591,17.471l-1.673-.155-.665-1.543a.134.134,0,0,0-.246,0l-.665,1.543-1.673.155a.134.134,0,0,0-.076.234l1.262,1.109-.369,1.639a.134.134,0,0,0,.2.145l1.445-.858,1.445.858a.134.134,0,0,0,.2-.145L53.4,18.814,54.667,17.7A.134.134,0,0,0,54.591,17.471Z" transform="translate(-48.928 -15.632)" fill="url(#c)"/><g transform="translate(0 0)"><path d="M89.369,11.058c.085.118.326.627.464.924a.047.047,0,0,1-.074.053c-.238-.225-.644-.614-.729-.733a.209.209,0,1,1,.339-.244Z" transform="translate(-87.877 -10.971)" fill="url(#c)"/><path d="M355.753,11.058c-.085.118-.326.627-.464.924a.047.047,0,0,0,.074.053c.237-.225.644-.614.729-.733a.209.209,0,1,0-.339-.244Z" transform="translate(-350.84 -10.971)" fill="url(#c)"/><path d="M415.719,282.881c-.139-.045-.7-.12-1.021-.161a.047.047,0,0,0-.028.087c.286.158.781.427.92.472a.209.209,0,0,0,.13-.4Z" transform="translate(-409.459 -279.321)" fill="url(#c)"/><path d="M.145,282.881c.139-.045.7-.12,1.021-.161a.047.047,0,0,1,.028.087c-.286.158-.781.427-.92.472a.209.209,0,0,1-.13-.4Z" transform="translate(0 -279.321)" fill="url(#c)"/><path d="M239.794,400.761c0-.146.1-.7.163-1.02a.047.047,0,0,1,.091,0c.062.321.163.875.163,1.02a.209.209,0,1,1-.418,0Z" transform="translate(-236.795 -394.84)" fill="url(#c)"/></g><path d="M52.495,16.334l-.242-.561a.134.134,0,0,0-.246,0l-.665,1.543-1.673.155a.134.134,0,0,0-.076.234l1.262,1.109-.369,1.639a.134.134,0,0,0,.2.145l.192-.114A10.407,10.407,0,0,1,52.495,16.334Z" transform="translate(-48.928 -15.632)" fill="url(#c)"/></g><g transform="translate(201.557 228.044)"><path d="M57.73,18.579l-2.714-.252-1.078-2.5a.218.218,0,0,0-.4,0l-1.078,2.5-2.714.252a.218.218,0,0,0-.123.38l2.048,1.8-.6,2.659a.218.218,0,0,0,.323.235l2.344-1.392,2.344,1.392a.218.218,0,0,0,.323-.235l-.6-2.659,2.048-1.8A.218.218,0,0,0,57.73,18.579Z" transform="translate(-48.542 -15.596)" fill="url(#c)"/><g transform="translate(0 0)"><path d="M89.6,11.112c.138.192.529,1.018.752,1.5a.075.075,0,0,1-.12.087c-.385-.364-1.044-1-1.183-1.189a.339.339,0,1,1,.551-.4Z" transform="translate(-87.184 -10.971)" fill="url(#c)"/><path d="M356.044,11.112c-.138.192-.529,1.018-.752,1.5a.075.075,0,0,0,.12.087c.385-.364,1.044-1,1.183-1.189a.339.339,0,1,0-.551-.4Z" transform="translate(-348.074 -10.971)" fill="url(#c)"/><path d="M416.387,282.982c-.225-.073-1.13-.195-1.656-.261a.075.075,0,0,0-.046.141c.464.257,1.267.692,1.492.766a.339.339,0,0,0,.21-.645Z" transform="translate(-406.23 -277.204)" fill="url(#c)"/><path d="M.235,282.982c.225-.073,1.13-.195,1.656-.261a.075.075,0,0,1,.046.141c-.464.257-1.267.692-1.492.766a.339.339,0,0,1-.21-.645Z" transform="translate(0 -277.204)" fill="url(#c)"/><path d="M239.794,401.42c0-.237.165-1.135.265-1.656a.076.076,0,0,1,.148,0c.1.521.265,1.419.265,1.656a.339.339,0,1,1-.679,0Z" transform="translate(-234.927 -391.813)" fill="url(#c)"/></g><path d="M54.33,16.733l-.392-.91a.218.218,0,0,0-.4,0l-1.078,2.5-2.714.252a.218.218,0,0,0-.123.38l2.048,1.8-.6,2.659a.218.218,0,0,0,.323.235l.312-.185A16.886,16.886,0,0,1,54.33,16.733Z" transform="translate(-48.542 -15.596)" fill="url(#c)"/></g><g transform="translate(154.1 228.044)"><path d="M49.746,18.579l2.715-.252,1.078-2.5a.218.218,0,0,1,.4,0l1.078,2.5,2.715.252a.218.218,0,0,1,.123.38l-2.048,1.8.6,2.66a.218.218,0,0,1-.323.235l-2.344-1.392-2.344,1.392a.218.218,0,0,1-.323-.235l.6-2.66-2.048-1.8A.218.218,0,0,1,49.746,18.579Z" transform="translate(-48.542 -15.596)" fill="url(#c)"/><g transform="translate(0 0)"><path d="M89.75,11.112c-.138.192-.529,1.018-.752,1.5a.075.075,0,0,0,.12.087c.385-.364,1.044-1,1.183-1.189a.339.339,0,1,0-.551-.4Z" transform="translate(-81.779 -10.971)" fill="url(#c)"/><path d="M355.9,11.112c.138.192.529,1.018.752,1.5a.076.076,0,0,1-.12.087c-.385-.364-1.044-1-1.183-1.189a.339.339,0,1,1,.551-.4Z" transform="translate(-353.478 -10.971)" fill="url(#c)"/><path d="M414.88,282.982c.225-.073,1.13-.195,1.657-.261a.075.075,0,0,1,.046.141c-.464.256-1.267.692-1.492.766a.339.339,0,0,1-.21-.645Z" transform="translate(-414.646 -277.204)" fill="url(#c)"/><path d="M1.742,282.982c-.225-.073-1.13-.195-1.657-.261a.075.075,0,0,0-.046.141c.464.256,1.267.692,1.492.766a.339.339,0,1,0,.21-.645Z" transform="translate(8.416 -277.204)" fill="url(#c)"/><path d="M240.473,401.42c0-.237-.165-1.135-.265-1.656a.075.075,0,0,0-.148,0c-.1.521-.265,1.419-.265,1.656a.339.339,0,0,0,.679,0Z" transform="translate(-234.948 -391.812)" fill="url(#c)"/></g><path d="M49.548,16.734l.392-.911a.218.218,0,0,1,.4,0l1.078,2.5,2.715.252a.218.218,0,0,1,.123.38l-2.048,1.8.6,2.66a.218.218,0,0,1-.323.235l-.312-.185A16.888,16.888,0,0,0,49.548,16.734Z" transform="translate(-44.943 -15.596)" fill="url(#c)"/></g><g transform="translate(176.154 217.671)"><path d="M61.241,19.817l-3.879-.36-1.541-3.578a.311.311,0,0,0-.571,0l-1.541,3.578-3.879.36a.311.311,0,0,0-.176.543l2.927,2.571-.856,3.8a.311.311,0,0,0,.462.336l3.35-1.989,3.35,1.989a.311.311,0,0,0,.462-.336l-.856-3.8,2.927-2.571A.311.311,0,0,0,61.241,19.817Z" transform="translate(-48.111 -15.555)" fill="url(#c)"/><g transform="translate(0 0)"><path d="M89.869,11.173c.2.275.756,1.454,1.075,2.142a.108.108,0,0,1-.172.124c-.551-.521-1.492-1.424-1.69-1.7a.485.485,0,0,1,.787-.567Z" transform="translate(-86.409 -10.971)" fill="url(#c)"/><path d="M356.37,11.173c-.2.275-.756,1.454-1.075,2.142a.108.108,0,0,0,.172.124c.551-.521,1.492-1.424,1.69-1.7a.485.485,0,1,0-.787-.567Z" transform="translate(-344.98 -10.971)" fill="url(#c)"/><path d="M417.135,283.094c-.322-.1-1.615-.278-2.367-.373a.108.108,0,0,0-.066.2c.663.366,1.81.989,2.132,1.094a.485.485,0,1,0,.3-.922Z" transform="translate(-402.62 -274.838)" fill="url(#c)"/><path d="M.335,283.094c.322-.1,1.615-.278,2.367-.373a.108.108,0,0,1,.066.2c-.663.366-1.81.989-2.132,1.094a.485.485,0,0,1-.3-.922Z" transform="translate(0 -274.838)" fill="url(#c)"/><path d="M239.794,402.156c0-.338.236-1.622.379-2.366a.108.108,0,0,1,.212,0c.143.744.379,2.028.379,2.366a.485.485,0,1,1-.97,0Z" transform="translate(-232.839 -388.428)" fill="url(#c)"/></g><path d="M56.381,17.18l-.56-1.3a.311.311,0,0,0-.571,0l-1.541,3.578-3.879.36a.311.311,0,0,0-.176.543l2.927,2.571-.856,3.8a.311.311,0,0,0,.462.336l.446-.265A24.13,24.13,0,0,1,56.381,17.18Z" transform="translate(-48.111 -15.555)" fill="url(#c)"/></g></g></g></svg>