<svg xmlns="http://www.w3.org/2000/svg" width="226.607" height="91.216" viewBox="0 0 226.607 91.216"><g transform="translate(-80.419 -239.83)"><rect width="106.152" height="21.432" rx="10.716" transform="translate(80.419 239.83)" fill="#eee"/><rect width="106.152" height="21.432" rx="10.716" transform="translate(80.419 309.614)" fill="#eee"/><rect width="106.177" height="21.432" rx="10.716" transform="translate(200.849 239.83)" fill="#eee"/><rect width="106.177" height="21.432" rx="10.716" transform="translate(200.849 274.722)" fill="#eee"/><g transform="translate(200.849 309.614)" fill="none" stroke="#27b535" stroke-width="0.5"><rect width="106.177" height="21.432" rx="10.716" stroke="none"/><rect x="0.25" y="0.25" width="105.677" height="20.932" rx="10.466" fill="none"/></g><g transform="translate(80.849 274.614)" fill="none" stroke="#27b535" stroke-width="0.5"><rect width="106.177" height="21.432" rx="10.716" stroke="none"/><rect x="0.25" y="0.25" width="105.677" height="20.932" rx="10.466" fill="none"/></g><g transform="translate(248.347 315.166)"><g transform="translate(0 -10.443)" fill="#27b535"><path d="M 5.663102626800537 21.59245681762695 C 5.656562805175781 21.59245681762695 5.653072834014893 21.58895683288574 5.651932716369629 21.58781623840332 L 0.2044026404619217 16.14008712768555 C 0.2031226307153702 16.1388053894043 0.1997526288032532 16.13544654846191 0.1997526288032532 16.12893676757813 C 0.1997526288032532 16.12442588806152 0.2013726383447647 16.12051582336426 0.2045726329088211 16.11730575561523 L 1.528042674064636 14.79384613037109 C 1.529082655906677 14.79281616210938 1.532712578773499 14.7891960144043 1.539512634277344 14.7891960144043 C 1.546182632446289 14.7891960144043 1.549672603607178 14.79268646240234 1.550822615623474 14.79383659362793 L 5.521952629089355 18.76476669311523 L 5.66337251663208 18.90617561340332 L 5.804792404174805 18.76475524902344 L 13.92215251922607 10.64740657806396 C 13.92306232452393 10.64650630950928 13.92683219909668 10.64275646209717 13.93362236022949 10.64275646209717 C 13.94027233123779 10.64275646209717 13.94390296936035 10.64637660980225 13.94510269165039 10.6475658416748 L 15.26838302612305 11.97102642059326 C 15.27485275268555 11.9774866104126 15.27471256256104 11.98750591278076 15.26822280883789 11.99400615692139 L 5.674572467803955 21.58765602111816 C 5.673382759094238 21.58883666992188 5.669772624969482 21.59245681762695 5.663102626800537 21.59245681762695 Z" stroke="none"/><path d="M 13.93353366851807 10.91885566711426 L 5.946212768554688 18.90617752075195 L 5.663382530212402 19.18901634216309 L 5.380532264709473 18.90618515014648 L 1.539436340332031 15.06529235839844 L 0.4759454727172852 16.1287841796875 L 5.663180351257324 21.31620788574219 L 14.99695682525635 11.982421875 L 13.93353366851807 10.91885566711426 M 13.93362236022949 10.44275093078613 C 13.9888801574707 10.44275093078613 14.04411315917969 10.46382713317871 14.08636283874512 10.5059757232666 L 15.40981292724609 11.82961654663086 C 15.49431228637695 11.91392707824707 15.49431228637695 12.05055618286133 15.40981292724609 12.13525581359863 L 5.81599235534668 21.72907638549805 C 5.77374267578125 21.77132606506348 5.718410491943359 21.79244995117188 5.663101196289063 21.79244995117188 C 5.607792854309082 21.79244995117188 5.552507400512695 21.77132606506348 5.510353088378906 21.72907638549805 L 0.06298255920410156 16.2815055847168 C -0.02132701873779297 16.19739532470703 -0.02132701873779297 16.06056594848633 0.06298255920410156 15.9760570526123 L 1.386622428894043 14.65242576599121 C 1.428873062133789 14.61027145385742 1.48420524597168 14.58919334411621 1.539512634277344 14.58919334411621 C 1.594820022583008 14.58919334411621 1.650102615356445 14.61027145385742 1.692252159118652 14.65242576599121 L 5.663372993469238 18.62333679199219 L 13.78073310852051 10.5059757232666 C 13.82308292388916 10.46382713317871 13.8783655166626 10.44275093078613 13.93362236022949 10.44275093078613 Z" stroke="none" fill="#fff"/></g></g><g transform="translate(128.347 280.166)"><g transform="translate(0 -10.443)" fill="#27b535"><path d="M 5.663102626800537 21.59245681762695 C 5.656562805175781 21.59245681762695 5.653072834014893 21.58895683288574 5.651932716369629 21.58781623840332 L 0.2044026404619217 16.14008712768555 C 0.2031226307153702 16.1388053894043 0.1997526288032532 16.13544654846191 0.1997526288032532 16.12893676757813 C 0.1997526288032532 16.12442588806152 0.2013726383447647 16.12051582336426 0.2045726329088211 16.11730575561523 L 1.528042674064636 14.79384613037109 C 1.529082655906677 14.79281616210938 1.532712578773499 14.7891960144043 1.539512634277344 14.7891960144043 C 1.546182632446289 14.7891960144043 1.549672603607178 14.79268646240234 1.550822615623474 14.79383659362793 L 5.521952629089355 18.76476669311523 L 5.66337251663208 18.90617561340332 L 5.804792404174805 18.76475524902344 L 13.92215251922607 10.64740657806396 C 13.92306232452393 10.64650630950928 13.92683219909668 10.64275646209717 13.93362236022949 10.64275646209717 C 13.94027233123779 10.64275646209717 13.94390296936035 10.64637660980225 13.94510269165039 10.6475658416748 L 15.26838302612305 11.97102642059326 C 15.27485275268555 11.9774866104126 15.27471256256104 11.98750591278076 15.26822280883789 11.99400615692139 L 5.674572467803955 21.58765602111816 C 5.673382759094238 21.58883666992188 5.669772624969482 21.59245681762695 5.663102626800537 21.59245681762695 Z" stroke="none"/><path d="M 13.93353366851807 10.91885566711426 L 5.946212768554688 18.90617752075195 L 5.663382530212402 19.18901634216309 L 5.380532264709473 18.90618515014648 L 1.539436340332031 15.06529235839844 L 0.4759454727172852 16.1287841796875 L 5.663180351257324 21.31620788574219 L 14.99695682525635 11.982421875 L 13.93353366851807 10.91885566711426 M 13.93362236022949 10.44275093078613 C 13.9888801574707 10.44275093078613 14.04411315917969 10.46382713317871 14.08636283874512 10.5059757232666 L 15.40981292724609 11.82961654663086 C 15.49431228637695 11.91392707824707 15.49431228637695 12.05055618286133 15.40981292724609 12.13525581359863 L 5.81599235534668 21.72907638549805 C 5.77374267578125 21.77132606506348 5.718410491943359 21.79244995117188 5.663101196289063 21.79244995117188 C 5.607792854309082 21.79244995117188 5.552507400512695 21.77132606506348 5.510353088378906 21.72907638549805 L 0.06298255920410156 16.2815055847168 C -0.02132701873779297 16.19739532470703 -0.02132701873779297 16.06056594848633 0.06298255920410156 15.9760570526123 L 1.386622428894043 14.65242576599121 C 1.428873062133789 14.61027145385742 1.48420524597168 14.58919334411621 1.539512634277344 14.58919334411621 C 1.594820022583008 14.58919334411621 1.650102615356445 14.61027145385742 1.692252159118652 14.65242576599121 L 5.663372993469238 18.62333679199219 L 13.78073310852051 10.5059757232666 C 13.82308292388916 10.46382713317871 13.8783655166626 10.44275093078613 13.93362236022949 10.44275093078613 Z" stroke="none" fill="#fff"/></g></g></g></svg>