<svg xmlns="http://www.w3.org/2000/svg" xmlns:xlink="http://www.w3.org/1999/xlink" width="60" height="60" viewBox="0 0 60 60"><defs><linearGradient id="a" x1="0.5" x2="0.5" y2="1" gradientUnits="objectBoundingBox"><stop offset="0" stop-color="#f5feff"/><stop offset="1" stop-color="#69e6ef"/></linearGradient></defs><g transform="translate(2432 13353)"><circle cx="30" cy="30" r="30" transform="translate(-2432 -13353)" fill="url(#a)"/><g transform="translate(-2446 -13337.541)"><path d="M8380.331,6297.759l3.274-3.274c-17.2,0-16.369.1-17.674-.271a7.236,7.236,0,0,1-5.26-6.955v-4.875h3.242c0,4.5-.082,5.14.147,5.95a4,4,0,0,0,2.765,2.763c.75.21-.288.147,16.779.147l-3.272-3.274,2.291-2.293,7.187,7.187-7.187,7.184Zm5.565-13.556c0-5.239.051-5.243-.146-5.944a4,4,0,0,0-2.763-2.764c-.752-.211.194-.147-16.783-.147l3.272,3.272-2.291,2.293-7.187-7.187,7.187-7.184,2.291,2.291-3.272,3.272h15.705a7.234,7.234,0,0,1,7.229,7.226v4.873Z" transform="translate(-8332.102 -6267.955)" fill="#4699a0"/></g></g></svg>