<svg xmlns="http://www.w3.org/2000/svg" width="220" height="148" viewBox="0 0 220 148">
  <g id="Thinking_Errors" data-name="Thinking Errors" transform="translate(-54 -21)">
    <rect id="Rectangle_4064" data-name="Rectangle 4064" width="220" height="148" transform="translate(54 21)" fill="none"/>
    <g id="Thinking_errors-2" data-name="Thinking errors" transform="translate(102.709 26.012)">
      <g id="Group_11813" data-name="Group 11813" transform="translate(0 55.664)">
        <g id="Group_11354" data-name="Group 11354" transform="translate(2.348 0)">
          <rect id="Rectangle_3615" data-name="Rectangle 3615" width="1.371" height="8.225" rx="0.685" transform="translate(7.752 0.424) rotate(-18)" fill="#418b91"/>
          <rect id="Rectangle_3616" data-name="Rectangle 3616" width="1.371" height="8.225" rx="0.685" transform="translate(18.784 0.627) rotate(22)" fill="#418b91"/>
          <rect id="Rectangle_3617" data-name="Rectangle 3617" width="1.371" height="8.225" rx="0.685" transform="translate(0 6.86) rotate(-57)" fill="#418b91"/>
        </g>
        <g id="Group_11458" data-name="Group 11458" transform="translate(0 18.699)">
          <path id="Path_7526" data-name="Path 7526" d="M164.05,48.1c-.016-1.811-.183-3.412-1.495-4.65a7.284,7.284,0,0,0,2.07-5.058,6.882,6.882,0,0,0-3.856-5.909,6.245,6.245,0,0,0,1.056-3.457,7.7,7.7,0,0,0-5.735-6.987c0-.035.65-2.286-2.334-4.826-1.033-.878-1.858-2.32-3.369-2.486-.47-1.15-1.564-1.671-2.6-2.53-1.451-1.2-2.805,1.861-4.885,1.875-1,.007-2.036,2.238-2.92,2.557-2.182-1.858-4.955-6.1-4.928-3.08-.018-2.059-1.56-.426-3.2-1.8a7.94,7.94,0,0,0-2.349,3.185c-1.507.186-2.5,1.861-3.516,2.752-2.893,2.54-2.055,4.623-2.055,4.635a7.657,7.657,0,0,0-5.609,7.063,6.268,6.268,0,0,0,1.117,3.442,6.843,6.843,0,0,0-3.75,5.959,7.317,7.317,0,0,0,2.16,5.03,6.476,6.476,0,0,0-2.073,4.706,6.7,6.7,0,0,0,3.013,5.369,6.106,6.106,0,0,0-.234,1.651c.035,3.887,2.975,5.775,7.477,5.745.308,0,1.341,1.537,1.639,1.505a8.723,8.723,0,0,0,3.085,3.191c2.54-1.592,4.266-1.674,4.854-2.19.029,3.3,1.46-5,4.717-3.611,1.225.522,3.245,4.4,4.68,4.39,2.027-.014,3.4,2.23,4.93,1.283a8.692,8.692,0,0,0,3.142-3.3c.3.027,1.162-1.261,1.471-1.263,4.5-.03,7.549-2.221,7.514-6.108a6.123,6.123,0,0,0-.263-1.647C163.581,52.236,164.07,50.28,164.05,48.1Z" transform="translate(-115.683 -11.526)" fill="#c7ecef"/>
          <g id="brain_1_" data-name="brain (1)" transform="translate(0 0)">
            <g id="Path_7517" data-name="Path 7517" transform="translate(-267.222 -74.154)" fill="#418b91">
              <path d="M 297.0658874511719 85.38168334960938 C 296.34033203125 85.38168334960938 295.7500305175781 84.79140472412109 295.7500305175781 84.06584167480469 C 295.7500305175781 83.34029388427734 296.34033203125 82.75001525878906 297.0658874511719 82.75001525878906 C 297.7914123535156 82.75001525878906 298.3816528320313 83.34029388427734 298.3816528320313 84.06584167480469 C 298.3816528320313 84.79140472412109 297.7914123535156 85.38168334960938 297.0658874511719 85.38168334960938 Z" stroke="none"/>
              <path d="M 297.0658874511719 85.13168334960938 C 297.6541442871094 85.13168334960938 298.1316528320313 84.65420532226563 298.1316528320313 84.06584167480469 C 298.1316528320313 83.47750854492188 297.6541442871094 83.00001525878906 297.0658874511719 83.00001525878906 C 296.4774780273438 83.00001525878906 296.0000305175781 83.47750854492188 296.0000305175781 84.06584167480469 C 296.0000305175781 84.65420532226563 296.4774780273438 85.13168334960938 297.0658874511719 85.13168334960938 M 297.0658874511719 85.63168334960938 C 296.2024536132813 85.63168334960938 295.5000305175781 84.92925262451172 295.5000305175781 84.06584167480469 C 295.5000305175781 83.20243835449219 296.2024536132813 82.50001525878906 297.0658874511719 82.50001525878906 C 297.9292602539063 82.50001525878906 298.6316528320313 83.20243835449219 298.6316528320313 84.06584167480469 C 298.6316528320313 84.92925262451172 297.9292602539063 85.63168334960938 297.0658874511719 85.63168334960938 Z" stroke="none" fill="#f7f7f7"/>
            </g>
            <g id="Path_7518" data-name="Path 7518" transform="translate(-177.881 -74.154)" fill="#418b91">
              <path d="M 197.0658264160156 85.38168334960938 C 196.3402709960938 85.38168334960938 195.75 84.79140472412109 195.75 84.06584167480469 C 195.75 83.34029388427734 196.3402709960938 82.75001525878906 197.0658264160156 82.75001525878906 C 197.7913970947266 82.75001525878906 198.3816833496094 83.34029388427734 198.3816833496094 84.06584167480469 C 198.3816833496094 84.79140472412109 197.7913970947266 85.38168334960938 197.0658264160156 85.38168334960938 Z" stroke="none"/>
              <path d="M 197.0658264160156 85.13168334960938 C 197.6541748046875 85.13168334960938 198.1316833496094 84.65420532226563 198.1316833496094 84.06584167480469 C 198.1316833496094 83.47750854492188 197.6541748046875 83.00001525878906 197.0658264160156 83.00001525878906 C 196.4775085449219 83.00001525878906 196 83.47750854492188 196 84.06584167480469 C 196 84.65420532226563 196.4775085449219 85.13168334960938 197.0658264160156 85.13168334960938 M 197.0658264160156 85.63168334960938 C 196.2024230957031 85.63168334960938 195.5 84.92925262451172 195.5 84.06584167480469 C 195.5 83.20243835449219 196.2024230957031 82.50001525878906 197.0658264160156 82.50001525878906 C 197.9292449951172 82.50001525878906 198.6316833496094 83.20243835449219 198.6316833496094 84.06584167480469 C 198.6316833496094 84.92925262451172 197.9292449951172 85.63168334960938 197.0658264160156 85.63168334960938 Z" stroke="none" fill="#f7f7f7"/>
            </g>
            <path id="Path_7519" data-name="Path 7519" d="M26,36.132a7.406,7.406,0,0,0,2.227,5.278,7.736,7.736,0,0,0,7.365,8.9h.1a8.4,8.4,0,0,0,14.824-.371,8.4,8.4,0,0,0,14.824.371h.1A7.728,7.728,0,0,0,72.9,42.527a6.823,6.823,0,0,0-.1-1.117,7.358,7.358,0,0,0,.855-9.554,8.524,8.524,0,0,0,1.372-4.571,7.4,7.4,0,0,0-2.7-5.727,7.205,7.205,0,0,0,.568-2.8,7.944,7.944,0,0,0-4.309-7.026,6.388,6.388,0,0,0-4.852-6.971A7.679,7.679,0,0,0,56.909,0a7.49,7.49,0,0,0-6.4,3.839A7.491,7.491,0,0,0,44.119,0a7.678,7.678,0,0,0-6.827,4.762,6.387,6.387,0,0,0-4.852,6.971,7.945,7.945,0,0,0-4.309,7.026,7.205,7.205,0,0,0,.568,2.8A7.4,7.4,0,0,0,26,27.285a8.523,8.523,0,0,0,1.372,4.57A7.394,7.394,0,0,0,26,36.132Zm30.909-34a5.385,5.385,0,0,1,4.342,2.528,6.352,6.352,0,0,0-3.535,1.8,1.066,1.066,0,1,0,1.506,1.508A4.264,4.264,0,0,1,66.5,10.978c0,.028,0,.056,0,.084a6.911,6.911,0,0,0-1.063-.084,7.728,7.728,0,0,0-7.461,7.781,1.066,1.066,0,0,0,2.132,0,5.338,5.338,0,1,1,10.658,0,5.245,5.245,0,0,1-.714,2.609,1.066,1.066,0,0,0,.357,1.426A5.3,5.3,0,0,1,72.9,27.285a5.6,5.6,0,0,1-5.329,5.649,1.066,1.066,0,1,0,0,2.132,7.193,7.193,0,0,0,4.547-1.676,5.245,5.245,0,0,1,.782,2.742,5.306,5.306,0,0,1-1.943,4.077,1.066,1.066,0,0,0-.354,1.068,5.259,5.259,0,0,1,.166,1.249c0,3.308-2.992,5.982-5.69,5.613-.075-.01-.15-.02-.225-.029a1.065,1.065,0,0,0-1.087.61,6.413,6.413,0,0,1-5.788,3.718,6.649,6.649,0,0,1-6.4-6.715,6.4,6.4,0,0,1,6.4-6.4,1.066,1.066,0,1,0,0-2.132,8.507,8.507,0,0,0-6.4,2.9V19.825a2.134,2.134,0,0,1,2.132-2.132,1.066,1.066,0,0,0,0-2.132,4.236,4.236,0,0,0-2.132.574V7.781A5.64,5.64,0,0,1,56.909,2.132ZM30.621,22.794a1.066,1.066,0,0,0,.357-1.426,5.245,5.245,0,0,1-.714-2.609,5.628,5.628,0,0,1,5.329-5.649,5.64,5.64,0,0,1,5.329,5.649,1.066,1.066,0,0,0,2.132,0,7.728,7.728,0,0,0-7.461-7.781,6.911,6.911,0,0,0-1.063.084c0-.028,0-.055,0-.084a4.264,4.264,0,0,1,7.279-3.015,1.066,1.066,0,1,0,1.507-1.508,6.352,6.352,0,0,0-3.535-1.8,5.385,5.385,0,0,1,4.342-2.528,5.64,5.64,0,0,1,5.329,5.649v8.354a4.236,4.236,0,0,0-2.132-.574,1.066,1.066,0,0,0,0,2.132,2.134,2.134,0,0,1,2.132,2.132V40.093a8.507,8.507,0,0,0-6.4-2.9,1.066,1.066,0,1,0,0,2.132,6.4,6.4,0,0,1,6.4,6.4,6.649,6.649,0,0,1-6.4,6.715,6.413,6.413,0,0,1-5.787-3.718,1.066,1.066,0,0,0-1.087-.61c-.075.009-.15.019-.225.029-3.033.415-6.449-3.02-5.525-6.863a1.066,1.066,0,0,0-.354-1.068,5.306,5.306,0,0,1-1.943-4.077,5.245,5.245,0,0,1,.782-2.743,7.191,7.191,0,0,0,4.547,1.677,1.066,1.066,0,1,0,0-2.132,5.6,5.6,0,0,1-5.329-5.649A5.3,5.3,0,0,1,30.621,22.794Z" transform="translate(-26)" fill="#418b91"/>
            <path id="Path_7520" data-name="Path 7520" d="M112.246,174.426a3.2,3.2,0,0,1-3.048,2.232,1.066,1.066,0,1,0,0,2.132,5.337,5.337,0,0,0,5.233-4.328,7.448,7.448,0,0,0,4-1.836,1.066,1.066,0,0,0-1.421-1.589,5.339,5.339,0,0,1-8.882-3.972,1.066,1.066,0,0,0-2.132,0A7.472,7.472,0,0,0,112.246,174.426Z" transform="translate(-97.473 -148.307)" fill="#418b91" stroke="#f7f7f7" stroke-width="0.5"/>
            <path id="Path_7521" data-name="Path 7521" d="M107.066,389a1.066,1.066,0,0,0,0,2.132,5.64,5.64,0,0,1,5.329,5.649,1.066,1.066,0,0,0,2.132,0A7.728,7.728,0,0,0,107.066,389Z" transform="translate(-97.473 -347.539)" fill="#418b91" stroke="#f7f7f7" stroke-width="0.5"/>
            <path id="Path_7522" data-name="Path 7522" d="M124.882,309a9.573,9.573,0,0,0-8.346,4.861,1.066,1.066,0,0,0,1.854,1.051,7.444,7.444,0,0,1,6.491-3.781,1.066,1.066,0,0,0,0-2.132Z" transform="translate(-106.763 -276.066)" fill="#418b91" stroke="#f7f7f7" stroke-width="0.5"/>
            <path id="Path_7523" data-name="Path 7523" d="M286.271,171.122a1.066,1.066,0,0,0,.084,1.5,7.449,7.449,0,0,0,4,1.836,5.337,5.337,0,0,0,5.233,4.328,1.066,1.066,0,1,0,0-2.132,3.2,3.2,0,0,1-3.048-2.232,7.472,7.472,0,0,0,6.246-7.36,1.066,1.066,0,0,0-2.132,0,5.329,5.329,0,0,1-8.882,3.972A1.066,1.066,0,0,0,286.271,171.122Z" transform="translate(-258.288 -148.307)" fill="#418b91" stroke="#f7f7f7" stroke-width="0.5"/>
            <path id="Path_7524" data-name="Path 7524" d="M333.461,389A7.728,7.728,0,0,0,326,396.781a1.066,1.066,0,0,0,2.132,0,5.64,5.64,0,0,1,5.329-5.649,1.066,1.066,0,0,0,0-2.132Z" transform="translate(-294.025 -347.539)" fill="#418b91" stroke="#f7f7f7" stroke-width="0.5"/>
            <path id="Path_7525" data-name="Path 7525" d="M313.557,314.912a1.066,1.066,0,0,0,1.855-1.051A9.572,9.572,0,0,0,307.066,309a1.066,1.066,0,0,0,0,2.132A7.445,7.445,0,0,1,313.557,314.912Z" transform="translate(-276.156 -276.066)" fill="#418b91" stroke="#f7f7f7" stroke-width="0.5"/>
          </g>
        </g>
      </g>
      <g id="chat_6_" data-name="chat (6)" transform="translate(37.683 0)">
        <path id="Subtraction_61" data-name="Subtraction 61" d="M20636.09,19482.947a5.48,5.48,0,1,1,5.48-5.48A5.488,5.488,0,0,1,20636.09,19482.947Zm0-9.133a3.655,3.655,0,1,0,3.656,3.652A3.659,3.659,0,0,0,20636.09,19473.814Z" transform="translate(-20621.568 -19420.23)" fill="#5ca5ab"/>
        <path id="Subtraction_62" data-name="Subtraction 62" d="M20634.127,19479.025a3.52,3.52,0,1,1,3.523-3.518A3.524,3.524,0,0,1,20634.127,19479.025Zm0-5.4a1.88,1.88,0,1,0,1.881,1.879A1.88,1.88,0,0,0,20634.127,19473.629Z" transform="translate(-20630.607 -19407.271)" fill="#5ca5ab"/>
        <path id="Subtraction_63" data-name="Subtraction 63" d="M20656.172,19530.072c-.568,0-1.152-.031-1.74-.088a16.337,16.337,0,0,1-8.9-3.811,16.582,16.582,0,0,1-5.234-8.156,14.858,14.858,0,0,1-9.605-15.5,14.707,14.707,0,0,1,2.5-6.768,15.05,15.05,0,0,1,5.412-4.818,16.725,16.725,0,0,1,5.629-10.1,16.449,16.449,0,0,1,10.7-3.971,16.811,16.811,0,0,1,1.746.094,12.843,12.843,0,0,1,1.627.285,19.811,19.811,0,0,1,13.432-5.254,18.932,18.932,0,0,1,2.094.109,19.836,19.836,0,0,1,17.283,15.369c.34-.02.707-.031,1.086-.031a15.33,15.33,0,0,1,1.643.088,18.226,18.226,0,0,1,16.211,20.006,18.279,18.279,0,0,1-1.736,6.082,18.048,18.048,0,0,1-8.611,8.461c-.15.07-.289.133-.43.193l-1.293-2.32a15.128,15.128,0,0,0,9.7-12.623,15.3,15.3,0,0,0-13.6-16.789,12.316,12.316,0,0,0-1.324-.068,17.983,17.983,0,0,0-2.287.162,1.555,1.555,0,0,1-.229.016,1.68,1.68,0,0,1-1.674-1.461,16.938,16.938,0,0,0-15.012-14.465c-.623-.062-1.223-.094-1.787-.094a16.846,16.846,0,0,0-12.074,5.068,1.679,1.679,0,0,1-1.207.5,1.6,1.6,0,0,1-.436-.057l-.016-.006-.027-.006a13.89,13.89,0,0,0-2.053-.432,14.13,14.13,0,0,0-1.43-.072,13.536,13.536,0,0,0-13.492,12.158,1.956,1.956,0,0,1-1,1.549,11.832,11.832,0,0,0,1.389,22.168,1.7,1.7,0,0,1,1.168,1.252,13.544,13.544,0,0,0,11.773,10.578,12.988,12.988,0,0,0,1.414.072,13.568,13.568,0,0,0,4.143-.646,6.08,6.08,0,0,0,1.025,2.611A16.357,16.357,0,0,1,20656.172,19530.072Z" transform="translate(-20613.057 -19467.947)" fill="#5ca5ab"/>
      </g>
      <g id="Group_11842" data-name="Group 11842" transform="translate(87.826 33.527)">
        <g id="warning" transform="translate(0)">
          <g id="Group_11840" data-name="Group 11840" transform="translate(0 0)">
            <g id="Group_11839" data-name="Group 11839" transform="translate(0)">
              <path id="Path_11046" data-name="Path 11046" d="M31.381,53.637a1.24,1.24,0,1,0-2.3.919,2.65,2.65,0,0,1-.283,2.47,2.616,2.616,0,0,1-2.2,1.162H5.15a2.663,2.663,0,0,1-2.263-4.064L13.61,36.762a2.659,2.659,0,0,1,4.525,0L26.067,49.6a1.24,1.24,0,1,0,2.11-1.3L20.245,35.459a5.138,5.138,0,0,0-8.745,0L.777,52.822A5.143,5.143,0,0,0,5.15,60.668H26.6a5.061,5.061,0,0,0,4.25-2.251A5.127,5.127,0,0,0,31.381,53.637Z" transform="translate(0 -33.02)" fill="#f17878"/>
            </g>
          </g>
        </g>
        <path id="Path_11049" data-name="Path 11049" d="M237.307,362.512a1.261,1.261,0,0,0,0-2.521h0a1.261,1.261,0,0,0,0,2.521Z" transform="translate(-221.182 -339.707)" fill="#f17878"/>
        <path id="Path_11050" data-name="Path 11050" d="M238.563,153.537v-9.266a1.261,1.261,0,1,0-2.521,0v9.266a1.261,1.261,0,1,0,2.521,0Z" transform="translate(-221.178 -136.404)" fill="#f17878"/>
      </g>
    </g>
  </g>
</svg>
