<svg xmlns="http://www.w3.org/2000/svg" xmlns:xlink="http://www.w3.org/1999/xlink" width="316" height="316" viewBox="0 0 316 316"><defs><filter id="a" x="21" y="231" width="60" height="60" filterUnits="userSpaceOnUse"><feOffset input="SourceAlpha"/><feGaussianBlur stdDeviation="2" result="b"/><feFlood flood-opacity="0.161"/><feComposite operator="in" in2="b"/><feComposite in="SourceGraphic"/></filter><filter id="c" x="9" y="123" width="60" height="60" filterUnits="userSpaceOnUse"><feOffset input="SourceAlpha"/><feGaussianBlur stdDeviation="2" result="d"/><feFlood flood-opacity="0.161"/><feComposite operator="in" in2="d"/><feComposite in="SourceGraphic"/></filter><filter id="e" x="43" y="50" width="60" height="60" filterUnits="userSpaceOnUse"><feOffset input="SourceAlpha"/><feGaussianBlur stdDeviation="2" result="f"/><feFlood flood-opacity="0.161"/><feComposite operator="in" in2="f"/><feComposite in="SourceGraphic"/></filter><filter id="g" x="126" y="20" width="60" height="60" filterUnits="userSpaceOnUse"><feOffset input="SourceAlpha"/><feGaussianBlur stdDeviation="2" result="h"/><feFlood flood-opacity="0.161"/><feComposite operator="in" in2="h"/><feComposite in="SourceGraphic"/></filter><filter id="i" x="209" y="50" width="60" height="60" filterUnits="userSpaceOnUse"><feOffset input="SourceAlpha"/><feGaussianBlur stdDeviation="2" result="j"/><feFlood flood-opacity="0.161"/><feComposite operator="in" in2="j"/><feComposite in="SourceGraphic"/></filter><filter id="k" x="247" y="123" width="60" height="60" filterUnits="userSpaceOnUse"><feOffset input="SourceAlpha"/><feGaussianBlur stdDeviation="2" result="l"/><feFlood flood-opacity="0.161"/><feComposite operator="in" in2="l"/><feComposite in="SourceGraphic"/></filter><filter id="m" x="238" y="230" width="60" height="60" filterUnits="userSpaceOnUse"><feOffset input="SourceAlpha"/><feGaussianBlur stdDeviation="2" result="n"/><feFlood flood-opacity="0.161"/><feComposite operator="in" in2="n"/><feComposite in="SourceGraphic"/></filter><clipPath id="o"><circle cx="24" cy="24" r="24" transform="translate(49 320)" fill="#fff9e8"/></clipPath><clipPath id="p"><circle cx="24" cy="24" r="24" transform="translate(37 212)" fill="#fff9e8"/></clipPath><clipPath id="q"><circle cx="24" cy="24" r="24" transform="translate(71 137)" fill="#fff9e8"/></clipPath><clipPath id="r"><circle cx="24" cy="24" r="24" transform="translate(154 109)" fill="#fff9e8"/></clipPath><clipPath id="s"><circle cx="24" cy="24" r="24" transform="translate(237 141)" fill="#fff9e8"/></clipPath><clipPath id="t"><circle cx="24" cy="24" r="24" transform="translate(275 212)" fill="#fff9e8"/></clipPath><clipPath id="u"><circle cx="24" cy="24" r="24" transform="translate(266 319)" fill="#fff9e8"/></clipPath><filter id="v" x="81" y="94" width="154" height="154" filterUnits="userSpaceOnUse"><feOffset input="SourceAlpha"/><feGaussianBlur stdDeviation="5" result="w"/><feFlood flood-color="#a77d1b" flood-opacity="0.4"/><feComposite operator="in" in2="w"/><feComposite in="SourceGraphic"/></filter></defs><g transform="translate(-22 -88)"><g transform="translate(0 5)"><g transform="translate(40.595 119.409)"><g transform="translate(16.542 174.736)" opacity="0.6" style="isolation:isolate"><path d="M30.338,187.928q-.929-1.486-1.807-3l1-.582q.867,1.5,1.786,2.964Zm-3.51-6.055q-.827-1.545-1.6-3.115l1.042-.512q.764,1.552,1.58,3.078Zm-3.089-6.281q-.719-1.6-1.382-3.217l1.074-.44q.654,1.6,1.365,3.181Zm-2.651-6.477q-.607-1.643-1.158-3.3l1.1-.364q.543,1.643,1.145,3.264Zm-2.2-6.644q-.492-1.677-.929-3.373l1.123-.29q.432,1.679.919,3.337ZM17.141,155.7q-.378-1.707-.7-3.43l1.141-.21q.315,1.7.688,3.39Z" transform="translate(-16.444 -152.056)" fill="#af890c"/></g><g transform="translate(15.534 159.778) rotate(10)" opacity="0.6" style="isolation:isolate"><path d="M18.885,162.472q-.492-1.677-.929-3.373l1.123-.29q.432,1.679.919,3.337Z" transform="translate(-16.444 -152.056)" fill="#af890c"/></g><g transform="translate(249.91 175.258)" opacity="0.6" style="isolation:isolate"><path d="M218.63,188.839l-1.015-.561q.839-1.516,1.631-3.056l1.03.53Q219.477,187.307,218.63,188.839Zm3.2-6.221-1.046-.5q.743-1.563,1.44-3.15l1.063.467Q222.58,181.039,221.827,182.617Zm2.813-6.4-1.077-.433q.647-1.606,1.246-3.232l1.088.4Q225.294,174.59,224.64,176.213Zm2.414-6.565-1.1-.367q.548-1.643,1.046-3.3l1.11.333Q227.607,167.99,227.054,169.648Zm2.01-6.7-1.121-.3q.445-1.672.842-3.359l1.129.266Q229.515,161.261,229.065,162.949Zm1.6-6.808-1.137-.232q.343-1.695.636-3.4l1.144.195Q231.009,154.425,230.662,156.14Z" transform="translate(-217.615 -152.506)" fill="#af890c"/></g><g transform="translate(15.834 10.347)" opacity="0.6" style="isolation:isolate"><path d="M15.967,139.3a24.551,24.551,0,0,1-.133-3.018l0-.55,1.16.01,0,.539a23.992,23.992,0,0,0,.121,2.846Zm1.14-7.029-1.159-.059c.055-1.067.132-2.239.237-3.5l1.157.1C17.238,130.056,17.162,131.214,17.108,132.27Zm.57-6.924-1.153-.126c.123-1.108.266-2.269.429-3.477l1.151.157Q17.859,123.7,17.677,125.346Zm.937-6.88-1.145-.184q.27-1.677.6-3.449l1.14.211Q18.882,116.8,18.615,118.466Zm1.266-6.828-1.135-.238q.35-1.676.758-3.415l1.129.264Q20.228,109.974,19.88,111.638Zm1.581-6.758-1.123-.29q.432-1.667.915-3.376l1.116.317Q21.888,103.225,21.461,104.879ZM23.356,98.2l-1.108-.343q.51-1.65,1.074-3.328l1.1.37Q23.862,96.566,23.356,98.2Zm2.211-6.576-1.09-.4q.592-1.625,1.235-3.271l1.08.423Q26.153,90.016,25.567,91.628ZM28.1,85.174l-1.07-.451q.673-1.6,1.4-3.2L29.485,82Q28.765,83.588,28.1,85.174Zm2.857-6.316-1.045-.506q.757-1.563,1.567-3.126l1.03.534Q31.7,77.309,30.955,78.857ZM34.143,72.7l-1.015-.561q.84-1.519,1.735-3.036l1,.59Q34.975,71.2,34.143,72.7Zm3.523-5.964-.983-.618q.926-1.47,1.906-2.933l.963.647Q38.583,65.283,37.666,66.74Zm3.857-5.752-.943-.674Q41.589,58.9,42.654,57.5l.923.7Q42.523,59.589,41.523,60.989Zm4.191-5.509-.9-.729q1.095-1.352,2.242-2.684l.879.758Q46.8,54.143,45.715,55.48Zm4.518-5.241-.855-.784q1.173-1.281,2.4-2.539l.831.81Q51.395,48.973,50.233,50.239Zm4.834-4.951-.805-.835q1.253-1.2,2.559-2.384l.776.861Q56.306,44.1,55.067,45.288ZM60.2,40.651l-.751-.884q1.324-1.122,2.7-2.218l.722.908Q61.512,39.541,60.2,40.651Zm5.415-4.3-.693-.932q1.392-1.035,2.836-2.043l.664.951Q66.994,35.323,65.618,36.35Zm5.675-3.957-.633-.972q1.453-.947,2.957-1.864l.6.991Q72.732,31.454,71.292,32.393Zm5.907-3.6-.573-1.008q1.507-.858,3.063-1.682l.544,1.025Q78.691,27.943,77.2,28.792Zm6.113-3.241L82.8,24.511q1.554-.767,3.155-1.5l.483,1.054Q84.851,24.792,83.313,25.551ZM89.6,22.668,89.151,21.6q1.592-.677,3.233-1.32l.423,1.08Q91.183,22,89.6,22.668Zm6.443-2.529-.394-1.092q1.627-.59,3.3-1.146l.367,1.1Q97.66,19.553,96.047,20.139Zm6.569-2.189-.339-1.109q1.655-.5,3.353-.977l.31,1.117Q104.259,17.449,102.616,17.95Zm6.673-1.857L109,14.969q1.677-.425,3.394-.817l.259,1.131Q110.953,15.673,109.289,16.093Zm6.753-1.542-.232-1.137q1.695-.346,3.427-.662l.208,1.14Q117.725,14.205,116.041,14.551Zm6.818-1.242-.183-1.145q1.709-.275,3.451-.519l.161,1.15Q124.555,13.037,122.859,13.309Zm6.867-.958-.138-1.152q1.717-.207,3.469-.382l.116,1.154Q131.433,12.145,129.726,12.35Zm6.9-.693-.094-1.158q1.006-.08,2.023-.153l.081,1.157Q137.63,11.575,136.629,11.658Z" transform="translate(-15.834 -10.347)" fill="#af890c"/></g><g transform="translate(140.166 10.347)" opacity="0.6" style="isolation:isolate"><path d="M245.184,138.544l-1.146-.172a22.861,22.861,0,0,0,.129-3.02v-.364l1.16-.012v.376A25.759,25.759,0,0,1,245.184,138.544Zm-1.117-7.028c-.051-1.057-.124-2.216-.224-3.467l1.155-.094c.1,1.266.175,2.436.226,3.5Zm-.552-6.925q-.179-1.65-.418-3.448l1.15-.153q.242,1.811.421,3.477Zm-.921-6.885q-.264-1.665-.586-3.423l1.141-.209q.324,1.77.59,3.45Zm-1.251-6.829q-.348-1.664-.747-3.39l1.131-.262q.4,1.738.751,3.416Zm-1.573-6.76q-.426-1.655-.906-3.35l1.117-.317q.484,1.709.913,3.377Zm-1.891-6.677q-.506-1.636-1.065-3.3l1.1-.37q.566,1.677,1.073,3.328Zm-2.211-6.574q-.588-1.611-1.227-3.242l1.079-.425q.647,1.643,1.238,3.27Zm-2.538-6.452q-.668-1.583-1.392-3.175l1.056-.48q.731,1.606,1.4,3.2ZM230.263,78.1q-.753-1.545-1.561-3.094l1.029-.537q.816,1.561,1.574,3.123Zm-3.2-6.144q-.837-1.5-1.728-3l1-.593q.9,1.512,1.745,3.03Zm-3.544-5.951q-.922-1.453-1.9-2.894l.961-.652q.987,1.456,1.916,2.924Zm-3.882-5.733q-1.006-1.4-2.067-2.775l.919-.708q1.074,1.4,2.088,2.8Zm-4.22-5.487q-1.091-1.329-2.234-2.643l.875-.762q1.154,1.324,2.256,2.669Zm-4.55-5.213q-1.169-1.26-2.394-2.5l.825-.817q1.239,1.251,2.42,2.524ZM206,44.657q-1.248-1.182-2.549-2.34l.773-.867q1.312,1.169,2.573,2.365Zm-5.168-4.6q-1.319-1.1-2.691-2.174l.715-.914q1.389,1.086,2.719,2.2Zm-5.45-4.261q-1.383-1.014-2.821-2l.654-.957q1.453,1,2.853,2.021Zm-5.705-3.911q-1.446-.926-2.942-1.821l.6-1q1.51.9,2.971,1.84Zm-5.938-3.553q-1.5-.835-3.044-1.641l.535-1.028q1.563.811,3.076,1.657Zm-6.138-3.19q-1.542-.748-3.136-1.461l.473-1.059q1.61.72,3.168,1.474Zm-6.313-2.833q-1.585-.659-3.214-1.284l.415-1.082q1.644.63,3.243,1.295Zm-6.464-2.483q-1.618-.572-3.278-1.111l.357-1.1q1.677.546,3.308,1.123Zm-6.584-2.139q-1.644-.489-3.332-.947l.3-1.119q1.7.461,3.358.954Zm-6.685-1.813q-1.667-.411-3.373-.788l.252-1.133q1.719.381,3.4.795Zm-6.764-1.5q-1.684-.334-3.4-.638l.2-1.141q1.733.3,3.431.642Zm-6.825-1.2q-1.7-.263-3.431-.5l.154-1.15q1.747.233,3.455.5Zm-6.871-.923q-1.709-.195-3.45-.362l.111-1.154q1.75.167,3.47.364Zm-6.906-.66-1.174-.087.082-1.157,1.181.087Z" transform="translate(-123.012 -10.347)" fill="#af890c"/></g></g><g transform="matrix(1, 0, 0, 1, 22, 83)" filter="url(#a)"><circle cx="24" cy="24" r="24" transform="translate(27 237)" fill="#fff9e8"/></g><g transform="matrix(1, 0, 0, 1, 22, 83)" filter="url(#c)"><circle cx="24" cy="24" r="24" transform="translate(15 129)" fill="#fff9e8"/></g><g transform="matrix(1, 0, 0, 1, 22, 83)" filter="url(#e)"><circle cx="24" cy="24" r="24" transform="translate(49 56)" fill="#fff9e8"/></g><g transform="matrix(1, 0, 0, 1, 22, 83)" filter="url(#g)"><circle cx="24" cy="24" r="24" transform="translate(132 26)" fill="#fff9e8"/></g><g transform="matrix(1, 0, 0, 1, 22, 83)" filter="url(#i)"><circle cx="24" cy="24" r="24" transform="translate(215 56)" fill="#fff9e8"/></g><g transform="matrix(1, 0, 0, 1, 22, 83)" filter="url(#k)"><circle cx="24" cy="24" r="24" transform="translate(253 129)" fill="#fff9e8"/></g><g transform="matrix(1, 0, 0, 1, 22, 83)" filter="url(#m)"><circle cx="24" cy="24" r="24" transform="translate(244 236)" fill="#fff9e8"/></g><g opacity="0.9"><g clip-path="url(#o)"><g transform="translate(49.573 320.615)"><g transform="translate(-0.615 -0.657)"><path d="M83.119,148.845a20.308,20.308,0,1,1-20.308-20.308A20.308,20.308,0,0,1,83.119,148.845Zm0,0" transform="translate(-38.862 -124.974)" fill="#fcbd1d"/><circle cx="24" cy="24" r="24" transform="translate(0.042 0.042)" fill="#d4af37"/><circle cx="22.769" cy="22.769" r="22.769" transform="translate(1.273 1.273)" fill="#ffde74"/><path d="M99.637,168.682a16.991,16.991,0,1,1-16.991-16.99,16.992,16.992,0,0,1,16.991,16.99Zm0,0" transform="translate(-58.697 -144.81)" fill="#fcbd1d"/><path d="M108.34,179.022a15.353,15.353,0,1,1-15.354-15.354,15.353,15.353,0,0,1,15.354,15.354Zm0,0" transform="translate(-69.038 -155.151)" fill="#fcbd1d"/><g transform="translate(17.838 16.406)"><path d="M16.47,4.246v8.929H10.22l-.357-1.785h-5v6.25H3.077V2.462L10.892,3.85Zm-5.357,7.145Z" transform="translate(-2.479 -1.863)" fill="#fcbd1d"/><path d="M11.265,4.2h4.878v8.711h-6.1L9.7,11.172H4.819v6.1H3.077V2.462h7.84Zm-.348,6.969h1.742V9.43H14.4V7.688H12.659V5.946H10.917V7.688l-.871-1.742V4.2H8.3V5.946H6.561V4.2H4.819V5.946H6.561V7.688H4.819V9.43H6.561V7.688H8.3V9.43h1.742V7.688l.871,1.742ZM8.3,7.688V5.946h1.742V7.688Zm2.614,0h1.742V9.43H10.917Z" transform="translate(-3.077 -2.462)" fill="#fcbd1d"/></g></g><g transform="translate(1.789 1.748)"><path d="M111.7,180.7a17.034,17.034,0,1,1-17.034-17.034A17.034,17.034,0,0,1,111.7,180.7Zm0,0" transform="translate(-73.117 -159.225)" fill="#ffde74"/><path d="M112.71,181.207a17.538,17.538,0,1,1-17.538-17.538,17.538,17.538,0,0,1,17.538,17.538Zm0,0" transform="translate(-73.732 -159.839)" fill="#d4af37"/><g transform="translate(14.948 14.056)"><path d="M16.35,4.172v8.8l-6.692.049-.329-1.759H4.536v6.154H3.077V2.462L8.8,3.084Zm-5.87,7.089Z" transform="translate(-1.868 -1.252)" fill="#715100"/><path d="M11.8,4.316h5.194v9.274H10.5l-.369-1.855h-5.2v6.492H3.077V2.462h8.347Zm-.369,7.42h1.855V9.881h1.855V8.026H13.279V6.171H11.424V8.026L10.5,6.171V4.316H8.642V6.171H6.786V4.316H4.932V6.171H6.786V8.026H4.932V9.881H6.786V8.026H8.641V9.881H10.5V8.026l.927,1.855ZM8.644,8.026V6.171H10.5V8.026Zm2.782,0h1.855V9.881H11.424Z" transform="translate(-3.077 -2.462)" fill="#fff"/></g></g></g></g><g clip-path="url(#p)"><g transform="translate(37.573 212.615)"><g transform="translate(-0.615 -0.657)"><path d="M83.119,148.845a20.308,20.308,0,1,1-20.308-20.308A20.308,20.308,0,0,1,83.119,148.845Zm0,0" transform="translate(-38.862 -124.974)" fill="#fcbd1d"/><circle cx="24" cy="24" r="24" transform="translate(0.042 0.042)" fill="#d4af37"/><circle cx="22.769" cy="22.769" r="22.769" transform="translate(1.273 1.273)" fill="#ffde74"/><path d="M99.637,168.682a16.991,16.991,0,1,1-16.991-16.99,16.992,16.992,0,0,1,16.991,16.99Zm0,0" transform="translate(-58.697 -144.81)" fill="#fcbd1d"/><path d="M108.34,179.022a15.353,15.353,0,1,1-15.354-15.354,15.353,15.353,0,0,1,15.354,15.354Zm0,0" transform="translate(-69.038 -155.151)" fill="#fcbd1d"/><g transform="translate(17.838 16.406)"><path d="M16.47,4.246v8.929H10.22l-.357-1.785h-5v6.25H3.077V2.462L10.892,3.85Zm-5.357,7.145Z" transform="translate(-2.479 -1.863)" fill="#fcbd1d"/><path d="M11.265,4.2h4.878v8.711h-6.1L9.7,11.172H4.819v6.1H3.077V2.462h7.84Zm-.348,6.969h1.742V9.43H14.4V7.688H12.659V5.946H10.917V7.688l-.871-1.742V4.2H8.3V5.946H6.561V4.2H4.819V5.946H6.561V7.688H4.819V9.43H6.561V7.688H8.3V9.43h1.742V7.688l.871,1.742ZM8.3,7.688V5.946h1.742V7.688Zm2.614,0h1.742V9.43H10.917Z" transform="translate(-3.077 -2.462)" fill="#fcbd1d"/></g></g><g transform="translate(1.789 1.748)"><path d="M111.7,180.7a17.034,17.034,0,1,1-17.034-17.034A17.034,17.034,0,0,1,111.7,180.7Zm0,0" transform="translate(-73.117 -159.225)" fill="#ffde74"/><path d="M112.71,181.207a17.538,17.538,0,1,1-17.538-17.538,17.538,17.538,0,0,1,17.538,17.538Zm0,0" transform="translate(-73.732 -159.839)" fill="#d4af37"/><g transform="translate(15.55 13.268)"><path d="M26.3,29.736h0a3.855,3.855,0,0,0-3.361-3.07c-.015.72-1.042,1.3-2.308,1.3s-2.293-.581-2.308-1.3a3.856,3.856,0,0,0-3.361,3.07H26.3Z" transform="translate(-13.884 -20.187)" fill="#715100"/><path d="M26.311,57.268H16.062a.223.223,0,0,0,0,.445h10.25a.223.223,0,0,0,0-.445Z" transform="translate(-14.438 -39.436)" fill="#715100"/><path d="M24.514,35.706H13.108a1.066,1.066,0,0,0-1.046,1.081v.025l0,.025.946,5.665a1.065,1.065,0,0,0,1.046,1.054h9.5A1.065,1.065,0,0,0,24.609,42.5l.946-5.665,0-.025v-.025a1.065,1.065,0,0,0-1.045-1.081ZM18.813,40a.465.465,0,1,1,.45-.465.458.458,0,0,1-.45.465Z" transform="translate(-12.065 -25.904)" fill="#715100"/><g transform="translate(3.307)"><path d="M22.743,18.94a1.248,1.248,0,0,1-.942,0l-1.042-.475L20,18.12a2.565,2.565,0,0,0-.046.484,2.7,2.7,0,0,0,2.316,2.769A2.7,2.7,0,0,0,24.588,18.6a2.565,2.565,0,0,0-.046-.484l-.757.345Z" transform="translate(-18.935 -15.148)" fill="#715100"/><path d="M21.958,4.587c.193-.079.193-.208,0-.287L19.114,3.138a1.066,1.066,0,0,0-.7,0L15.569,4.3c-.193.079-.193.208,0,.287l.215.088-.018.137a.169.169,0,0,0-.145.163.166.166,0,0,0,.123.158l-.13,1.734a.751.751,0,0,0,.034.257l.106.3c.012.034.028.052.044.052s.032-.017.044-.052l.106-.3a.751.751,0,0,0,.034-.257l-.131-1.734a.164.164,0,0,0-.025-.321l-.017-.127.5.2.246.1v.891l.8.33,1.058.431a1.067,1.067,0,0,0,.7,0l1.058-.431.8-.33v-.89l.246-.1Z" transform="translate(-15.426 -3.077)" fill="#715100"/></g></g><g transform="translate(14.301 12.07)"><path d="M26.857,29.769h0a3.991,3.991,0,0,0-3.527-3.1c-.016.727-1.094,1.314-2.422,1.314s-2.406-.587-2.422-1.314a3.992,3.992,0,0,0-3.527,3.1Z" transform="translate(-13.872 -20.123)" fill="#fff"/><path d="M26.853,57.268H16.071a.225.225,0,1,0,0,.449H26.853a.225.225,0,1,0,0-.449Z" transform="translate(-14.423 -39.209)" fill="#fff"/><path d="M25.052,35.706h-11.9a1.094,1.094,0,0,0-1.09,1.094v.025l0,.025.985,5.723a1.094,1.094,0,0,0,1.092,1.065h9.916a1.094,1.094,0,0,0,1.092-1.065l.985-5.723,0-.025V36.8a1.093,1.093,0,0,0-1.091-1.094ZM19.1,40.044a.47.47,0,1,1,.47-.47A.47.47,0,0,1,19.1,40.044Z" transform="translate(-12.065 -25.762)" fill="#fff"/><g transform="translate(3.567)"><path d="M22.892,18.94a1.378,1.378,0,0,1-.992,0l-1.1-.475L20,18.12a2.44,2.44,0,0,0-.049.484,2.746,2.746,0,0,0,2.438,2.769A2.748,2.748,0,0,0,24.828,18.6a2.44,2.44,0,0,0-.049-.484l-.8.345Z" transform="translate(-18.935 -14.727)" fill="#fff"/><path d="M22.2,4.732c.2-.087.2-.228,0-.314L19.249,3.142a1.049,1.049,0,0,0-.726,0L15.577,4.417c-.2.087-.2.228,0,.314l.223.1-.018.15a.181.181,0,0,0-.025.351l-.135,1.9a.866.866,0,0,0,.035.281l.11.33c.012.038.029.057.046.057s.033-.019.046-.057l.11-.33A.866.866,0,0,0,16,7.228l-.135-1.9a.181.181,0,0,0-.025-.351l-.017-.14.516.223.253.11v.975l.834.361,1.1.475a1.05,1.05,0,0,0,.726,0l1.1-.475.834-.361V5.169l.253-.11Z" transform="translate(-15.426 -3.077)" fill="#fff"/></g></g></g></g></g><g transform="translate(0 2)" clip-path="url(#q)"><g transform="translate(71.573 137.615)"><g transform="translate(-0.615 -0.657)"><path d="M83.119,148.845a20.308,20.308,0,1,1-20.308-20.308A20.308,20.308,0,0,1,83.119,148.845Zm0,0" transform="translate(-38.862 -124.974)" fill="#fcbd1d"/><circle cx="24" cy="24" r="24" transform="translate(0.042 0.042)" fill="#d4af37"/><circle cx="22.769" cy="22.769" r="22.769" transform="translate(1.273 1.273)" fill="#ffde74"/><path d="M99.637,168.682a16.991,16.991,0,1,1-16.991-16.99,16.992,16.992,0,0,1,16.991,16.99Zm0,0" transform="translate(-58.697 -144.81)" fill="#fcbd1d"/><path d="M108.34,179.022a15.353,15.353,0,1,1-15.354-15.354,15.353,15.353,0,0,1,15.354,15.354Zm0,0" transform="translate(-69.038 -155.151)" fill="#fcbd1d"/><g transform="translate(17.838 16.406)"><path d="M16.47,4.246v8.929H10.22l-.357-1.785h-5v6.25H3.077V2.462L10.892,3.85Zm-5.357,7.145Z" transform="translate(-2.479 -1.863)" fill="#fcbd1d"/><path d="M11.265,4.2h4.878v8.711h-6.1L9.7,11.172H4.819v6.1H3.077V2.462h7.84Zm-.348,6.969h1.742V9.43H14.4V7.688H12.659V5.946H10.917V7.688l-.871-1.742V4.2H8.3V5.946H6.561V4.2H4.819V5.946H6.561V7.688H4.819V9.43H6.561V7.688H8.3V9.43h1.742V7.688l.871,1.742ZM8.3,7.688V5.946h1.742V7.688Zm2.614,0h1.742V9.43H10.917Z" transform="translate(-3.077 -2.462)" fill="#fcbd1d"/></g></g><g transform="translate(1.789 1.748)"><path d="M111.7,180.7a17.034,17.034,0,1,1-17.034-17.034A17.034,17.034,0,0,1,111.7,180.7Zm0,0" transform="translate(-73.117 -159.225)" fill="#ffde74"/><path d="M112.71,181.207a17.538,17.538,0,1,1-17.538-17.538,17.538,17.538,0,0,1,17.538,17.538Zm0,0" transform="translate(-73.732 -159.839)" fill="#d4af37"/><g transform="translate(-320.516 -86.054)"><g transform="translate(0.789 -2.202)"><g transform="translate(332.799 101.75) rotate(-9)"><path d="M10.031,2.585,8.369,2.37,7.144,1.023C6.908.793,6.073-.014,5.742,0l-1.8.076H3.885a.46.46,0,0,0-.351.19l-1.45,2a.382.382,0,0,0,.591.481L4.152,1.129l.632.028-1.4,2.474L2.2,4.862.61,4.63A.533.533,0,0,0,.417,5.676L2.311,6.1a.567.567,0,0,0,.507-.139L4.336,4.532c.014,0,2.169.4,2.169.4L8.228,6.454a.486.486,0,0,0,.686-.686L7.247,3.877a.512.512,0,0,0-.258-.158L6.932,3.7l-.492-.127.576-1,.7.682.025.025a.488.488,0,0,0,.311.137l1.886.116a.476.476,0,0,0,.091-.948Z" transform="translate(0 1.622)" fill="#715100"/><path d="M.889,2.577A1.326,1.326,0,1,0,.074.889,1.326,1.326,0,0,0,.889,2.577Z" transform="translate(6.553)" fill="#715100"/></g><rect width="3.692" height="5.538" rx="1.846" transform="translate(333.98 112.356)" fill="#715100"/><rect width="3.692" height="9.231" rx="1.846" transform="translate(340.134 108.664)" fill="#715100"/><rect width="3.692" height="14.769" rx="1.846" transform="translate(346.903 103.126)" fill="#715100"/></g><g transform="translate(0.174 -2.818)"><g transform="translate(332.799 101.751) rotate(-9)"><path d="M10.031,2.585,8.369,2.37S7.152,1.03,7.143,1.022C6.91.793,6.075-.014,5.744,0L3.938.076H3.885a.46.46,0,0,0-.352.19l-1.449,2a.382.382,0,0,0,.591.481l1.48-1.622.632.028-1.4,2.473L2.2,4.862.61,4.631A.533.533,0,0,0,.417,5.677L2.312,6.1a.567.567,0,0,0,.507-.139L4.337,4.532c.014,0,2.169.4,2.169.4L8.229,6.454a.486.486,0,0,0,.688-.684L7.249,3.88a.512.512,0,0,0-.258-.158l-.058-.015L6.441,3.58l.574-1.007.7.682.025.025a.488.488,0,0,0,.311.137l1.887.116a.477.477,0,0,0,.091-.949Z" transform="translate(0 1.622)" fill="#fff"/><path d="M.889,2.578A1.326,1.326,0,1,0,.074.889,1.326,1.326,0,0,0,.889,2.578Z" transform="translate(6.555)" fill="#fff"/></g><rect width="3.692" height="5.538" rx="1.846" transform="translate(333.98 112.356)" fill="#fff"/><rect width="3.692" height="9.231" rx="1.846" transform="translate(340.134 108.664)" fill="#fff"/><rect width="3.692" height="14.769" rx="1.846" transform="translate(346.903 103.126)" fill="#fff"/></g></g></g></g></g><g opacity="0.9" clip-path="url(#r)"><g transform="translate(154.573 109.615)"><g transform="translate(-0.615 -0.657)"><path d="M83.119,148.845a20.308,20.308,0,1,1-20.308-20.308A20.308,20.308,0,0,1,83.119,148.845Zm0,0" transform="translate(-38.862 -124.974)" fill="#fcbd1d"/><circle cx="24" cy="24" r="24" transform="translate(0.042 0.042)" fill="#d4af37"/><circle cx="22.769" cy="22.769" r="22.769" transform="translate(1.273 1.273)" fill="#ffde74"/><path d="M99.637,168.682a16.991,16.991,0,1,1-16.991-16.99,16.992,16.992,0,0,1,16.991,16.99Zm0,0" transform="translate(-58.697 -144.81)" fill="#fcbd1d"/><path d="M108.34,179.022a15.353,15.353,0,1,1-15.354-15.354,15.353,15.353,0,0,1,15.354,15.354Zm0,0" transform="translate(-69.038 -155.151)" fill="#fcbd1d"/><g transform="translate(17.838 16.406)"><path d="M16.47,4.246v8.929H10.22l-.357-1.785h-5v6.25H3.077V2.462L10.892,3.85Zm-5.357,7.145Z" transform="translate(-2.479 -1.863)" fill="#fcbd1d"/><path d="M11.265,4.2h4.878v8.711h-6.1L9.7,11.172H4.819v6.1H3.077V2.462h7.84Zm-.348,6.969h1.742V9.43H14.4V7.688H12.659V5.946H10.917V7.688l-.871-1.742V4.2H8.3V5.946H6.561V4.2H4.819V5.946H6.561V7.688H4.819V9.43H6.561V7.688H8.3V9.43h1.742V7.688l.871,1.742ZM8.3,7.688V5.946h1.742V7.688Zm2.614,0h1.742V9.43H10.917Z" transform="translate(-3.077 -2.462)" fill="#fcbd1d"/></g></g><g transform="translate(1.789 1.748)"><path d="M111.7,180.7a17.034,17.034,0,1,1-17.034-17.034A17.034,17.034,0,0,1,111.7,180.7Zm0,0" transform="translate(-73.117 -159.225)" fill="#ffde74"/><path d="M112.71,181.207a17.538,17.538,0,1,1-17.538-17.538,17.538,17.538,0,0,1,17.538,17.538Zm0,0" transform="translate(-73.732 -159.839)" fill="#c5a026"/><g transform="translate(15.102 10.615)"><path d="M3.049,17.953C1.113,11.377,5.2,8.975,5.2,8.975a10.383,10.383,0,0,0,1.649,6.243,10.36,10.36,0,0,0,2.07-1.255A23.4,23.4,0,0,1,8.2,17.951a10.559,10.559,0,0,0,3.3-5.32C12.3,9.308,10,5.977,10,5.977A9.076,9.076,0,0,1,7.86,12.4a1.279,1.279,0,0,0,.188-.3c.271-.56.708-2.015.452-5.383A8.568,8.568,0,0,0,3.981,0C4.339,2.881,3.262,3.545.747,9.015S3.049,17.953,3.049,17.953Zm0,0" transform="translate(1.306 1.959)" fill="#715100"/><path d="M3.3,18.855C1.2,11.948,5.631,9.426,5.631,9.426a10.68,10.68,0,0,0,1.785,6.556,11.274,11.274,0,0,0,2.241-1.319,23.928,23.928,0,0,1-.776,4.188,11.077,11.077,0,0,0,3.569-5.588c.855-3.486-1.625-6.988-1.625-6.988A9.354,9.354,0,0,1,8.5,13.028a1.338,1.338,0,0,0,.2-.313C9,12.127,9.472,10.6,9.2,7.06A9.036,9.036,0,0,0,4.308,0C4.7,3.026,3.532,3.723.808,9.467S3.3,18.855,3.3,18.855Zm0,0" transform="translate(0.075 0.728)" fill="#fff"/></g></g></g></g><g transform="translate(0 -2)" clip-path="url(#s)"><g transform="translate(-287.923 123.77)"><g transform="translate(525.497 17.845)"><g transform="translate(-0.615 -0.657)"><path d="M83.119,148.845a20.308,20.308,0,1,1-20.308-20.308A20.308,20.308,0,0,1,83.119,148.845Zm0,0" transform="translate(-38.862 -124.974)" fill="#fcbd1d"/><circle cx="24" cy="24" r="24" transform="translate(0.042 0.042)" fill="#d4af37"/><circle cx="22.769" cy="22.769" r="22.769" transform="translate(1.273 1.273)" fill="#ffde74"/><path d="M99.637,168.682a16.991,16.991,0,1,1-16.991-16.99,16.992,16.992,0,0,1,16.991,16.99Zm0,0" transform="translate(-58.697 -144.81)" fill="#fcbd1d"/><path d="M108.34,179.022a15.353,15.353,0,1,1-15.354-15.354,15.353,15.353,0,0,1,15.354,15.354Zm0,0" transform="translate(-69.038 -155.151)" fill="#fcbd1d"/><g transform="translate(17.838 16.406)"><path d="M16.47,4.246v8.929H10.22l-.357-1.785h-5v6.25H3.077V2.462L10.892,3.85Zm-5.357,7.145Z" transform="translate(-2.479 -1.863)" fill="#fcbd1d"/><path d="M11.265,4.2h4.878v8.711h-6.1L9.7,11.172H4.819v6.1H3.077V2.462h7.84Zm-.348,6.969h1.742V9.43H14.4V7.688H12.659V5.946H10.917V7.688l-.871-1.742V4.2H8.3V5.946H6.561V4.2H4.819V5.946H6.561V7.688H4.819V9.43H6.561V7.688H8.3V9.43h1.742V7.688l.871,1.742ZM8.3,7.688V5.946h1.742V7.688Zm2.614,0h1.742V9.43H10.917Z" transform="translate(-3.077 -2.462)" fill="#fcbd1d"/></g></g><g transform="translate(1.789 1.748)"><path d="M111.7,180.7a17.034,17.034,0,1,1-17.034-17.034A17.034,17.034,0,0,1,111.7,180.7Zm0,0" transform="translate(-73.117 -159.225)" fill="#ffde74"/><path d="M112.71,181.207a17.538,17.538,0,1,1-17.538-17.538,17.538,17.538,0,0,1,17.538,17.538Zm0,0" transform="translate(-73.732 -159.839)" fill="#d4af37"/></g></g><g transform="translate(538.876 29.641)"><path d="M102.127,2.545l1.046,1.046,1.135,1.135a1.3,1.3,0,0,0,.923.383h0a1.31,1.31,0,0,0,.926-2.236L103.975.691a1.31,1.31,0,0,0-1.858,1.846Zm0,0" transform="translate(-94.82)" fill="#715100"/><path d="M61.43,43.242l.682.682,1.5,1.5h0l.537.537.007.007a1.31,1.31,0,1,0,1.852-1.852l-.54-.54-.006-.006-1.25-1.25-.93-.93h0a1.31,1.31,0,1,0-1.855,1.85Zm0,0" transform="translate(-56.89 -37.969)" fill="#715100"/><path d="M20.727,83.943,22.9,86.114l.007.007a1.31,1.31,0,0,0,1.854-1.851L23.38,82.891l-.8-.806a1.31,1.31,0,1,0-1.853,1.852Zm0,0" transform="translate(-18.976 -75.857)" fill="#715100"/><path d="M2.024,146.625a1.3,1.3,0,0,0,.713.362h.016a1.31,1.31,0,0,0,1.116-2.222l-1.636-1.636a1.31,1.31,0,1,0-1.85,1.855l.007.007,1.63,1.629Zm0,0" transform="translate(0 -132.755)" fill="#715100"/><path d="M42.756,10.362a1.327,1.327,0,0,0-1.616-.2.627.627,0,0,1-.815-.153l-.037-.047a.625.625,0,0,1,.05-.828L41.374,8.1l.01-.01A1.326,1.326,0,1,0,39.5,6.223a.626.626,0,1,1-.886-.885,1.326,1.326,0,0,0-1.874-1.874.626.626,0,1,1-.886-.885A1.326,1.326,0,1,0,33.976.705l-.639.636.687.686A2.577,2.577,0,0,1,32.46,6.413a2.583,2.583,0,0,1-3.22,3.214A2.574,2.574,0,0,1,27.1,11.908a2.577,2.577,0,0,1-2.359,3.623h-.084l-1.023,1.023a1.033,1.033,0,0,0-.287.8,1.4,1.4,0,0,0,.42.916l2.791,2.788a1.31,1.31,0,0,0,1.846,0l1.582-1.58.6-.162a7.221,7.221,0,0,0,6.943-1.858L41.089,13.9l.008-.009,1.657-1.655a1.326,1.326,0,0,0,0-1.877Zm0,0" transform="translate(-21.777 -0.009)" fill="#715100"/><path d="M209.437,231.957l-2.29,2.29a8.345,8.345,0,0,1-2.753,1.828l.857.857a1.292,1.292,0,0,0,1.825,0l2.756-2.756a1.169,1.169,0,0,0,.258-1.566Zm0,0" transform="translate(-190.446 -215.882)" fill="#715100"/></g><g transform="translate(538.26 29.025)"><path d="M102.127,2.545l1.046,1.046,1.135,1.135a1.3,1.3,0,0,0,.923.383h0a1.31,1.31,0,0,0,.926-2.236L103.975.691a1.31,1.31,0,0,0-1.858,1.846Zm0,0" transform="translate(-94.924)" fill="#fff"/><path d="M61.43,43.242l.682.682,1.5,1.5h0l.537.537.007.007a1.31,1.31,0,1,0,1.852-1.852l-.54-.54-.006-.006-1.25-1.25-.93-.93h0a1.31,1.31,0,1,0-1.855,1.85Zm0,0" transform="translate(-56.954 -37.969)" fill="#fff"/><path d="M20.727,83.943,22.9,86.114l.007.007a1.31,1.31,0,0,0,1.854-1.851L23.38,82.891l-.8-.806a1.31,1.31,0,1,0-1.853,1.852Zm0,0" transform="translate(-18.976 -75.939)" fill="#fff"/><path d="M2.024,146.625a1.3,1.3,0,0,0,.713.362h.016a1.31,1.31,0,0,0,1.116-2.222l-1.636-1.636a1.31,1.31,0,1,0-1.85,1.855l.007.007,1.63,1.629Zm0,0" transform="translate(0 -132.893)" fill="#fff"/><path d="M42.511,10.247a1.309,1.309,0,0,0-1.6-.2.615.615,0,0,1-.8-.151l-.036-.047a.615.615,0,0,1,.05-.818l1.022-1.023L41.158,8a1.311,1.311,0,0,0-1.863-1.846.619.619,0,1,1-.875-.875,1.31,1.31,0,0,0-1.853-1.853.618.618,0,1,1-.874-.873A1.31,1.31,0,1,0,33.839.7l-.628.629.677.677a2.548,2.548,0,0,1-1.544,4.336A2.551,2.551,0,0,1,29.165,9.52a2.543,2.543,0,0,1-2.114,2.256,2.546,2.546,0,0,1-2.327,3.58H24.64l-1.014,1.013a1.022,1.022,0,0,0-.284.788,1.385,1.385,0,0,0,.415.905l2.756,2.756a1.292,1.292,0,0,0,1.825,0L29.9,19.256l.6-.161a7.124,7.124,0,0,0,6.857-1.838l3.513-3.514.008-.009L42.511,12.1A1.311,1.311,0,0,0,42.511,10.247Zm0,0" transform="translate(-21.777 -0.009)" fill="#fff"/><path d="M209.437,231.957l-2.29,2.29a8.345,8.345,0,0,1-2.753,1.828l.857.857a1.292,1.292,0,0,0,1.825,0l2.756-2.756a1.169,1.169,0,0,0,.258-1.566Zm0,0" transform="translate(-190.695 -216.123)" fill="#fff"/></g></g></g><g clip-path="url(#t)"><g transform="translate(275.573 212.615)"><g transform="translate(-0.615 -0.657)"><path d="M83.119,148.845a20.308,20.308,0,1,1-20.308-20.308A20.308,20.308,0,0,1,83.119,148.845Zm0,0" transform="translate(-38.862 -124.974)" fill="#fcbd1d"/><circle cx="24" cy="24" r="24" transform="translate(0.042 0.042)" fill="#d4af37"/><circle cx="22.769" cy="22.769" r="22.769" transform="translate(1.273 1.273)" fill="#ffde74"/><path d="M99.637,168.682a16.991,16.991,0,1,1-16.991-16.99,16.992,16.992,0,0,1,16.991,16.99Zm0,0" transform="translate(-58.697 -144.81)" fill="#fcbd1d"/><path d="M108.34,179.022a15.353,15.353,0,1,1-15.354-15.354,15.353,15.353,0,0,1,15.354,15.354Zm0,0" transform="translate(-69.038 -155.151)" fill="#fcbd1d"/><g transform="translate(17.838 16.406)"><path d="M16.47,4.246v8.929H10.22l-.357-1.785h-5v6.25H3.077V2.462L10.892,3.85Zm-5.357,7.145Z" transform="translate(-2.479 -1.863)" fill="#fcbd1d"/><path d="M11.265,4.2h4.878v8.711h-6.1L9.7,11.172H4.819v6.1H3.077V2.462h7.84Zm-.348,6.969h1.742V9.43H14.4V7.688H12.659V5.946H10.917V7.688l-.871-1.742V4.2H8.3V5.946H6.561V4.2H4.819V5.946H6.561V7.688H4.819V9.43H6.561V7.688H8.3V9.43h1.742V7.688l.871,1.742ZM8.3,7.688V5.946h1.742V7.688Zm2.614,0h1.742V9.43H10.917Z" transform="translate(-3.077 -2.462)" fill="#fcbd1d"/></g></g><g transform="translate(1.789 1.748)"><path d="M111.7,180.7a17.034,17.034,0,1,1-17.034-17.034A17.034,17.034,0,0,1,111.7,180.7Zm0,0" transform="translate(-73.117 -159.225)" fill="#ffde74"/><path d="M112.71,181.207a17.538,17.538,0,1,1-17.538-17.538,17.538,17.538,0,0,1,17.538,17.538Zm0,0" transform="translate(-73.732 -159.839)" fill="#d4af37"/><g transform="translate(11.724 7.372)"><path d="M44.937,7.556l-.554,3.262a.8.8,0,0,0,.314.78.785.785,0,0,0,.833.062l2.9-1.538,2.9,1.538a.79.79,0,0,0,1.159-.7.809.809,0,0,0-.02-.178l-.547-3.217,2.35-2.309a.8.8,0,0,0-.436-1.363L50.6,3.411,49.143.444a.788.788,0,0,0-1.418,0L46.273,3.411l-3.247.476a.8.8,0,0,0-.441,1.36Zm0,0" transform="translate(-38.409 1.231)" fill="#715100"/><path d="M79.558,168.079a2.921,2.921,0,1,0,2.921-2.921,2.921,2.921,0,0,0-2.921,2.921Zm0,0" transform="translate(-72.454 -151.284)" fill="#715100"/><path d="M19.415,185.5a1.114,1.114,0,0,0-1.58,0l-5.119,5.146a.791.791,0,0,1-.561.234H7.9a.79.79,0,0,1-.561-.234L2.215,185.5a1.121,1.121,0,0,0-1.581,1.589l6.129,6.161a.8.8,0,0,1,.233.564v2.58h6.058v-2.58a.8.8,0,0,1,.233-.564l6.129-6.161a1.127,1.127,0,0,0,0-1.589Zm0,0" transform="translate(0 -169.755)" fill="#715100"/></g><g transform="translate(11.109 6.141)"><path d="M44.958,7.556,44.4,10.817a.8.8,0,0,0,1.157.841l2.928-1.538,2.928,1.538a.8.8,0,0,0,1.15-.884l-.554-3.217,2.369-2.309a.8.8,0,0,0-.442-1.36L50.66,3.413,49.2.444a.8.8,0,0,0-1.43,0L46.3,3.411l-3.274.476a.8.8,0,0,0-.442,1.36Zm0,0" transform="translate(-38.409 1.231)" fill="#fff"/><path d="M79.558,168.079a2.921,2.921,0,1,0,2.921-2.921,2.921,2.921,0,0,0-2.921,2.921Zm0,0" transform="translate(-72.404 -150.941)" fill="#fff"/><path d="M19.513,185.5a1.123,1.123,0,0,0-1.588,0l-5.146,5.146a.8.8,0,0,1-.564.234H7.935a.8.8,0,0,1-.564-.234L2.226,185.5a1.124,1.124,0,1,0-1.589,1.589L6.8,193.25a.8.8,0,0,1,.234.564v2.58H13.12v-2.58a.8.8,0,0,1,.234-.564l6.16-6.161a1.123,1.123,0,0,0,0-1.589Zm0,0" transform="translate(0 -169.224)" fill="#fff"/></g></g></g></g><g clip-path="url(#u)"><g transform="translate(266.573 319.615)"><g transform="translate(-0.615 -0.657)"><path d="M83.119,148.845a20.308,20.308,0,1,1-20.308-20.308A20.308,20.308,0,0,1,83.119,148.845Zm0,0" transform="translate(-38.862 -124.974)" fill="#fcbd1d"/><circle cx="24" cy="24" r="24" transform="translate(0.042 0.042)" fill="#d4af37"/><circle cx="22.769" cy="22.769" r="22.769" transform="translate(1.273 1.273)" fill="#ffde74"/><path d="M99.637,168.682a16.991,16.991,0,1,1-16.991-16.99,16.992,16.992,0,0,1,16.991,16.99Zm0,0" transform="translate(-58.697 -144.81)" fill="#fcbd1d"/><path d="M108.34,179.022a15.353,15.353,0,1,1-15.354-15.354,15.353,15.353,0,0,1,15.354,15.354Zm0,0" transform="translate(-69.038 -155.151)" fill="#fcbd1d"/><g transform="translate(17.838 16.406)"><path d="M16.47,4.246v8.929H10.22l-.357-1.785h-5v6.25H3.077V2.462L10.892,3.85Zm-5.357,7.145Z" transform="translate(-2.479 -1.863)" fill="#fcbd1d"/><path d="M11.265,4.2h4.878v8.711h-6.1L9.7,11.172H4.819v6.1H3.077V2.462h7.84Zm-.348,6.969h1.742V9.43H14.4V7.688H12.659V5.946H10.917V7.688l-.871-1.742V4.2H8.3V5.946H6.561V4.2H4.819V5.946H6.561V7.688H4.819V9.43H6.561V7.688H8.3V9.43h1.742V7.688l.871,1.742ZM8.3,7.688V5.946h1.742V7.688Zm2.614,0h1.742V9.43H10.917Z" transform="translate(-3.077 -2.462)" fill="#fcbd1d"/></g></g><g transform="translate(1.789 1.748)"><path d="M111.7,180.7a17.034,17.034,0,1,1-17.034-17.034A17.034,17.034,0,0,1,111.7,180.7Zm0,0" transform="translate(-73.117 -159.225)" fill="#ffde74"/><path d="M112.71,181.207a17.538,17.538,0,1,1-17.538-17.538,17.538,17.538,0,0,1,17.538,17.538Zm0,0" transform="translate(-73.732 -159.839)" fill="#d4af37"/><g transform="translate(-716.824 -86.054)"><g transform="translate(731.287 102.889)"><path d="M4.85,4.505V.813A1.337,1.337,0,0,0,4.711.127a2.053,2.053,0,0,0-2.8,1.742,8.172,8.172,0,0,0-.141,1.468,1.677,1.677,0,0,1,.387-.05h0a1.147,1.147,0,0,1,.9.406A1.879,1.879,0,0,1,3.348,5.16H4a.881.881,0,0,0,.85-.655Z" transform="translate(0.987)" fill="#715100"/><path d="M13.723,8.281h-.414a1.377,1.377,0,0,1-1.5-1.2V6.431a1.723,1.723,0,0,1-1.009.313h-.414a1.376,1.376,0,0,1-1.5-1.2V5.275a1.723,1.723,0,0,1-1.009.312H7.461a1.383,1.383,0,0,1-1.5-1.169,1.328,1.328,0,0,1-.856.313h-.73c-.1.42.009,1.554-.519,1.98-.3.276-.686-.207-.686-.207a3.721,3.721,0,0,0,.79-2.375,1.351,1.351,0,0,0-.979-1.746,1.273,1.273,0,0,0-.4.079,7.668,7.668,0,0,0-1.169.726,7.909,7.909,0,0,0-.971.991L.424,4.157a2.549,2.549,0,0,0,.191,2.7A49.994,49.994,0,0,0,4.391,12.14c1.148.976.492,1.545.492,1.545l8.6.082.437-1.463a12.738,12.738,0,0,0,1.247-4.909,1.484,1.484,0,0,1-1.446.887Z" transform="translate(-0.102 1.517)" fill="#715100"/><path d="M8.492,7.575H8.9c.542,0,1-.324,1-.707V2.415c0-.383-.459-.707-1-.707H8.492c-.542,0-1,.324-1,.707V6.867C7.493,7.25,7.951,7.575,8.492,7.575Z" transform="translate(4.725 1.089)" fill="#715100"/><path d="M4.95,5.928h.411c.543,0,1-.323,1-.707V.77c0-.383-.458-.708-1-.708H4.95c-.542,0-1,.326-1,.708V5.222C3.95,5.6,4.407,5.928,4.95,5.928Z" transform="translate(2.408 0.04)" fill="#715100"/><path d="M6.722,6.634h.411c.542,0,1-.323,1-.707V1.477c0-.383-.458-.707-1-.707H6.722c-.543,0-1,.323-1,.707V5.928C5.723,6.311,6.179,6.634,6.722,6.634Z" transform="translate(3.564 0.49)" fill="#715100"/></g><path d="M151.9,2.579a.516.516,0,0,0,.516-.516V.516a.516.516,0,1,0-1.031,0V2.063a.516.516,0,0,0,.516.516Z" transform="translate(587.236 97.102)" fill="#715100"/><path d="M243.644,45.231l1.095-1.1a.516.516,0,1,0-.73-.73L242.914,44.5a.516.516,0,1,0,.729.73Z" transform="translate(503.577 57.465)" fill="#715100"/><path d="M48.193,45.231a.516.516,0,0,0,.73-.73l-1.1-1.095a.516.516,0,0,0-.729.73Z" transform="translate(682.86 57.465)" fill="#715100"/></g><g transform="translate(-717.439 -86.67)"><g transform="translate(731.287 102.929)"><path d="M4.85,4.505V.813A1.337,1.337,0,0,0,4.711.127a2.053,2.053,0,0,0-2.8,1.742,8.172,8.172,0,0,0-.141,1.468,1.677,1.677,0,0,1,.387-.05h0a1.147,1.147,0,0,1,.9.406A1.879,1.879,0,0,1,3.348,5.16H4a.881.881,0,0,0,.85-.655Z" transform="translate(0.959)" fill="#fff"/><path d="M13.612,8.281H13.2a1.369,1.369,0,0,1-1.489-1.2V6.431a1.7,1.7,0,0,1-1,.313H10.3a1.368,1.368,0,0,1-1.49-1.2V5.275a1.7,1.7,0,0,1-1,.312H7.4A1.375,1.375,0,0,1,5.913,4.418a1.311,1.311,0,0,1-.849.313H4.342c-.1.42.009,1.554-.515,1.98-.3.276-.681-.207-.681-.207A3.742,3.742,0,0,0,3.93,4.128c.21-1.134-.54-1.746-.971-1.746a1.254,1.254,0,0,0-.4.079A7.6,7.6,0,0,0,1.4,3.185a7.881,7.881,0,0,0-.966.994L.422,4.157a2.566,2.566,0,0,0,.194,2.7A49.981,49.981,0,0,0,4.361,12.14c.716.615.534.953.538,1.487.091.533-.492.278,8.043.36,0,0,.337.01.394-.173a.758.758,0,0,0,.128-.329l.35-1.182a12.817,12.817,0,0,0,1.237-4.909,1.471,1.471,0,0,1-1.439.887Z" transform="translate(-0.102 1.517)" fill="#fff"/><path d="M8.492,7.575H8.9c.542,0,1-.324,1-.707V2.415c0-.383-.459-.707-1-.707H8.492c-.542,0-1,.324-1,.707V6.867C7.493,7.25,7.951,7.575,8.492,7.575Z" transform="translate(4.606 1.089)" fill="#fff"/><path d="M4.95,5.928h.411c.543,0,1-.323,1-.707V.77c0-.383-.458-.708-1-.708H4.95c-.542,0-1,.326-1,.708V5.222C3.95,5.6,4.407,5.928,4.95,5.928Z" transform="translate(2.348 0.04)" fill="#fff"/><path d="M6.722,6.634h.411c.542,0,1-.323,1-.707V1.477c0-.383-.458-.707-1-.707H6.722c-.543,0-1,.323-1,.707V5.928C5.723,6.311,6.179,6.634,6.722,6.634Z" transform="translate(3.477 0.49)" fill="#fff"/></g><path d="M151.9,2.579a.516.516,0,0,0,.516-.516V.516a.516.516,0,1,0-1.031,0V2.063a.516.516,0,0,0,.516.516Z" transform="translate(587.177 97.102)" fill="#fff"/><path d="M243.644,45.231l1.095-1.1a.516.516,0,1,0-.73-.73L242.914,44.5a.516.516,0,1,0,.729.73Z" transform="translate(503.457 57.473)" fill="#fff"/><path d="M48.193,45.231a.516.516,0,0,0,.73-.73l-1.1-1.095a.516.516,0,0,0-.729.73Z" transform="translate(682.86 57.473)" fill="#fff"/></g></g></g></g></g><g transform="matrix(1, 0, 0, 1, 22, 83)" filter="url(#v)"><circle cx="62" cy="62" r="62" transform="translate(96 109)" fill="#d4af37"/></g><g transform="translate(118.921 192.66)"><g transform="translate(0.33 -0.311)"><g transform="translate(0)"><path d="M113.919,61.861A51.708,51.708,0,1,1,62.211,10.153h0A51.708,51.708,0,0,1,113.919,61.861Z" transform="translate(-1.608 -0.887)" fill="#fee07f"/><circle cx="62" cy="62" r="62" transform="translate(-1.251 -0.349)" fill="#d4af37"/><ellipse cx="59.306" cy="59.306" rx="59.306" ry="59.306" transform="translate(1.666 2.341)" fill="#fee07f"/><g transform="translate(45.04 41.968)"><path d="M87.838,53.979v22.74H71.925l-.909-4.544H58.28V88.084H53.736V49.435l19.9,3.535Z" transform="translate(-52.213 -47.912)" fill="#fcbd1d"/><path d="M72.837,52.123H85.258V74.3H69.731l-.883-4.436H56.424V85.393H51.988V47.687H71.95ZM71.95,69.867h4.436V65.43h4.433V60.995H76.386V56.559H71.95v4.436l-2.219-4.436V52.123H65.3v4.436H60.859V52.123H56.424v4.436h4.436v4.436H56.424v4.436h4.436V60.995h4.436V65.43H69.73V60.995L71.95,65.43ZM65.3,60.995V56.559h4.436v4.436Zm6.655,0h4.436V65.43H71.95Z" transform="translate(-51.988 -47.687)" fill="#fcbd1d"/></g><g transform="translate(20.204 20.881)"><g transform="translate(0 0)"><path d="M107.8,66.973A40.823,40.823,0,1,1,66.973,26.151h0A40.824,40.824,0,0,1,107.8,66.973Z" transform="translate(-26.15 -26.151)" fill="#d4af37"/><g transform="translate(18.32 20.282)"><g transform="translate(1.668 1.668)"><g transform="translate(0 1.891)"><path d="M83.242,71.686a.947.947,0,1,1,0-1.894,9.482,9.482,0,0,0,9.471-9.471v-7.58H84.189a.947.947,0,0,1,0-1.894H93.66a.947.947,0,0,1,.95.944v8.527A11.378,11.378,0,0,1,83.242,71.686Z" transform="translate(-51.042 -50.847)" fill="#7e6016"/><path d="M57.789,71.686A11.378,11.378,0,0,1,46.424,60.319V51.8a.947.947,0,0,1,.947-.947h9.471a.947.947,0,0,1,0,1.894H48.318v7.58A9.482,9.482,0,0,0,57.789,69.8a.947.947,0,0,1,0,1.894h0Z" transform="translate(-46.424 -50.848)" fill="#7e6016"/><path d="M75.81,90.343l-.51-.523c-1.985-2.042-2.527-7.754-2.572-9.777a.947.947,0,0,0-.947-.928H67.993a.947.947,0,0,0-.947.926c-.04,2.027-.585,7.732-2.572,9.777l-.51.523c-2.6,2.677-4.495,4.611-4.495,6.768a.947.947,0,0,0,.947.947H79.357a.947.947,0,0,0,.947-.947h0C80.3,94.951,78.41,93.017,75.81,90.343Z" transform="translate(-48.103 -54.486)" fill="#7e6016"/></g><path d="M80.971,48.677H58.241a.947.947,0,0,0-.947.947V64.777a12.312,12.312,0,0,0,24.624,0V49.624a.947.947,0,0,0-.947-.947Z" transform="translate(-47.823 -48.677)" fill="#7e6016"/></g><g transform="translate(0 1.891)"><path d="M81.328,69.771a.947.947,0,0,1,0-1.894A9.482,9.482,0,0,0,90.8,58.406v-7.58H82.275a.947.947,0,0,1,0-1.894h9.471a.947.947,0,0,1,.95.944V58.4A11.378,11.378,0,0,1,81.328,69.771Z" transform="translate(-49.128 -48.932)" fill="#fff" stroke="#fff" stroke-width="1"/><path d="M55.875,69.771A11.378,11.378,0,0,1,44.51,58.4V49.883a.947.947,0,0,1,.947-.947h9.471a.947.947,0,1,1,0,1.894H46.4v7.58a9.482,9.482,0,0,0,9.471,9.471.947.947,0,0,1,0,1.894h0Z" transform="translate(-44.51 -48.933)" fill="#fff" stroke="#fff" stroke-width="1"/><path d="M73.9,88.428l-.51-.523c-1.985-2.042-2.527-7.754-2.572-9.777a.947.947,0,0,0-.947-.928H66.079a.947.947,0,0,0-.947.926c-.04,2.027-.585,7.732-2.572,9.777l-.51.523c-2.6,2.677-4.495,4.611-4.495,6.768a.947.947,0,0,0,.947.947H77.443a.947.947,0,0,0,.947-.947h0C78.39,93.036,76.5,91.1,73.9,88.428Z" transform="translate(-46.189 -52.571)" fill="#fff" stroke="#fff" stroke-width="1"/></g><path d="M79.057,46.762H56.327a.947.947,0,0,0-.947.947V62.862a12.312,12.312,0,0,0,24.624,0V47.709a.947.947,0,0,0-.947-.947Z" transform="translate(-45.909 -46.762)" fill="#fff" stroke="#fff" stroke-width="1"/><path d="M67.97,52l2.091,4.68,4.879.645-3.587,3.537.924,5.079L67.97,63.446l-4.308,2.494.924-5.079L61,57.323l4.879-.645Z" transform="translate(-46.633 -47.436)" fill="#7e6016"/></g></g></g></g></g></g><path d="M6.214-2.563a1.2,1.2,0,0,0-.461-1.012,5.552,5.552,0,0,0-1.665-.718A8.038,8.038,0,0,1,2.174-5.1,2.554,2.554,0,0,1,.813-7.328a2.425,2.425,0,0,1,.981-1.982,3.97,3.97,0,0,1,2.546-.779,4.3,4.3,0,0,1,1.853.383,3.041,3.041,0,0,1,1.278,1.09,2.8,2.8,0,0,1,.465,1.569H6.214a1.56,1.56,0,0,0-.489-1.22,2.017,2.017,0,0,0-1.4-.441,2.107,2.107,0,0,0-1.316.362,1.206,1.206,0,0,0-.468,1.012,1.091,1.091,0,0,0,.506.913,5.828,5.828,0,0,0,1.668.711,7.672,7.672,0,0,1,1.866.786A2.968,2.968,0,0,1,7.615-3.914a2.635,2.635,0,0,1,.328,1.336A2.369,2.369,0,0,1,6.99-.6,4.136,4.136,0,0,1,4.4.137a4.862,4.862,0,0,1-1.986-.4,3.336,3.336,0,0,1-1.408-1.1,2.751,2.751,0,0,1-.5-1.641H2.235A1.61,1.61,0,0,0,2.8-1.7,2.455,2.455,0,0,0,4.4-1.23,2.133,2.133,0,0,0,5.759-1.6,1.18,1.18,0,0,0,6.214-2.563Zm6.344,2.7A3.437,3.437,0,0,1,10-.858a3.608,3.608,0,0,1-.981-2.649v-.205a4.438,4.438,0,0,1,.427-1.979,3.252,3.252,0,0,1,1.2-1.357,3.172,3.172,0,0,1,1.723-.485,2.9,2.9,0,0,1,2.334.964,4.076,4.076,0,0,1,.824,2.728v.67H10.691A2.221,2.221,0,0,0,11.3-1.723a1.837,1.837,0,0,0,1.35.533,2.249,2.249,0,0,0,1.859-.923l.9.854A2.99,2.99,0,0,1,14.222-.229,3.713,3.713,0,0,1,12.558.137Zm-.2-6.337a1.4,1.4,0,0,0-1.1.479,2.48,2.48,0,0,0-.537,1.333h3.165v-.123a2.019,2.019,0,0,0-.444-1.261A1.388,1.388,0,0,0,12.359-6.2ZM18.58,0H16.919V-10.5H18.58Zm2.393,0V-6.166H19.845V-7.4h1.128v-.677a2.54,2.54,0,0,1,.684-1.9,2.619,2.619,0,0,1,1.914-.67,3.839,3.839,0,0,1,.93.123l-.041,1.3a3.272,3.272,0,0,0-.636-.055,1.067,1.067,0,0,0-1.189,1.224V-7.4h1.5v1.23h-1.5V0Zm7.6-3.562H24.985V-4.9h3.589Zm4.409,2.372a1.5,1.5,0,0,0,1.032-.362,1.238,1.238,0,0,0,.438-.9h1.565a2.44,2.44,0,0,1-.431,1.289,2.825,2.825,0,0,1-1.094.947A3.259,3.259,0,0,1,33,.137a3.154,3.154,0,0,1-2.461-1,3.986,3.986,0,0,1-.909-2.775v-.171a3.919,3.919,0,0,1,.9-2.7A3.125,3.125,0,0,1,33-7.533a3.039,3.039,0,0,1,2.15.769,2.755,2.755,0,0,1,.872,2.02H34.453a1.521,1.521,0,0,0-.434-1.046,1.4,1.4,0,0,0-1.036-.41,1.462,1.462,0,0,0-1.244.584,2.982,2.982,0,0,0-.444,1.774v.267a3.032,3.032,0,0,0,.434,1.794A1.461,1.461,0,0,0,32.983-1.189ZM41.692,0A2.564,2.564,0,0,1,41.5-.69,2.586,2.586,0,0,1,39.56.137,2.61,2.61,0,0,1,37.741-.5a2.034,2.034,0,0,1-.7-1.572,2.1,2.1,0,0,1,.878-1.815,4.257,4.257,0,0,1,2.512-.632h1.019V-5a1.3,1.3,0,0,0-.321-.919,1.274,1.274,0,0,0-.978-.345,1.463,1.463,0,0,0-.93.284.878.878,0,0,0-.362.721H37.194A1.844,1.844,0,0,1,37.6-6.4a2.687,2.687,0,0,1,1.1-.831,3.854,3.854,0,0,1,1.548-.3,3.1,3.1,0,0,1,2.071.653,2.328,2.328,0,0,1,.793,1.835v3.336a3.781,3.781,0,0,0,.28,1.593V0ZM39.867-1.2a1.89,1.89,0,0,0,.926-.239,1.6,1.6,0,0,0,.653-.643V-3.473h-.9a2.449,2.449,0,0,0-1.388.321,1.041,1.041,0,0,0-.465.909.971.971,0,0,0,.318.762A1.231,1.231,0,0,0,39.867-1.2ZM48.72-5.879a4.111,4.111,0,0,0-.677-.055,1.524,1.524,0,0,0-1.538.875V0H44.844V-7.4H46.43l.041.827a1.872,1.872,0,0,1,1.668-.964,1.555,1.555,0,0,1,.588.1ZM53.026.137a3.437,3.437,0,0,1-2.56-.995,3.608,3.608,0,0,1-.981-2.649v-.205a4.438,4.438,0,0,1,.427-1.979,3.252,3.252,0,0,1,1.2-1.357,3.172,3.172,0,0,1,1.723-.485,2.9,2.9,0,0,1,2.334.964,4.076,4.076,0,0,1,.824,2.728v.67H51.16a2.221,2.221,0,0,0,.612,1.449,1.837,1.837,0,0,0,1.35.533,2.249,2.249,0,0,0,1.859-.923l.9.854A2.99,2.99,0,0,1,54.691-.229,3.713,3.713,0,0,1,53.026.137Zm-.2-6.337a1.4,1.4,0,0,0-1.1.479,2.48,2.48,0,0,0-.537,1.333h3.165v-.123a2.019,2.019,0,0,0-.444-1.261A1.388,1.388,0,0,0,52.828-6.2ZM66.746-4.443H62.658v3.063h4.778V0H60.929V-9.953h6.46v1.395h-4.73v2.748h4.088Zm4.594-.52L72.748-7.4h1.846L72.331-3.753,74.669,0H72.837L71.36-2.529,69.891,0H68.045l2.338-3.753L68.127-7.4h1.832ZM82.2-3.623a4.4,4.4,0,0,1-.779,2.738A2.5,2.5,0,0,1,79.331.137a2.512,2.512,0,0,1-1.948-.8V2.844H75.722V-7.4h1.531l.068.752a2.44,2.44,0,0,1,1.989-.889,2.521,2.521,0,0,1,2.123,1.008,4.521,4.521,0,0,1,.769,2.8Zm-1.654-.144a3.085,3.085,0,0,0-.441-1.757,1.433,1.433,0,0,0-1.261-.649,1.529,1.529,0,0,0-1.463.841v3.281a1.543,1.543,0,0,0,1.477.861A1.432,1.432,0,0,0,80.1-1.829,3.4,3.4,0,0,0,80.548-3.767Zm6.316,3.9A3.437,3.437,0,0,1,84.3-.858a3.608,3.608,0,0,1-.981-2.649v-.205a4.438,4.438,0,0,1,.427-1.979,3.252,3.252,0,0,1,1.2-1.357,3.172,3.172,0,0,1,1.723-.485,2.9,2.9,0,0,1,2.334.964,4.076,4.076,0,0,1,.824,2.728v.67H85a2.221,2.221,0,0,0,.612,1.449,1.837,1.837,0,0,0,1.35.533,2.249,2.249,0,0,0,1.859-.923l.9.854A2.99,2.99,0,0,1,88.529-.229,3.713,3.713,0,0,1,86.864.137Zm-.2-6.337a1.4,1.4,0,0,0-1.1.479,2.48,2.48,0,0,0-.537,1.333H88.19v-.123a2.019,2.019,0,0,0-.444-1.261A1.388,1.388,0,0,0,86.666-6.2Zm8.326.321a4.111,4.111,0,0,0-.677-.055,1.524,1.524,0,0,0-1.538.875V0H91.116V-7.4H92.7l.041.827a1.872,1.872,0,0,1,1.668-.964,1.555,1.555,0,0,1,.588.1Zm3.473-3.315v1.8h1.306v1.23H98.465v4.129a.909.909,0,0,0,.167.612.777.777,0,0,0,.6.188,2.559,2.559,0,0,0,.581-.068V-.021a4.091,4.091,0,0,1-1.094.157Q96.8.137,96.8-1.976v-4.19H95.587V-7.4H96.8v-1.8Z" transform="translate(130 337)" opacity="0.8"/></g><rect width="316" height="316" transform="translate(22 88)" fill="none"/><path d="M.99,0V-8.531H3.779a3.238,3.238,0,0,1,2.089.574,2.07,2.07,0,0,1,.7,1.7A1.733,1.733,0,0,1,6.229-5.2a2.2,2.2,0,0,1-.926.712A1.979,1.979,0,0,1,6.4-3.753a2.11,2.11,0,0,1,.4,1.292,2.282,2.282,0,0,1-.744,1.8A3.077,3.077,0,0,1,3.949,0ZM2.115-3.99V-.92H3.973a1.788,1.788,0,0,0,1.239-.407,1.43,1.43,0,0,0,.454-1.122q0-1.541-1.676-1.541Zm0-.9h1.7A1.781,1.781,0,0,0,5-5.262a1.24,1.24,0,0,0,.442-1,1.22,1.22,0,0,0-.41-1.025,2.014,2.014,0,0,0-1.248-.32H2.115ZM11.2-5.367a3.248,3.248,0,0,0-.533-.041A1.428,1.428,0,0,0,9.219-4.5V0H8.135V-6.34H9.19l.018.732a1.688,1.688,0,0,1,1.512-.85,1.107,1.107,0,0,1,.48.082ZM15.719,0a2.277,2.277,0,0,1-.152-.668,2.419,2.419,0,0,1-1.8.785,2.238,2.238,0,0,1-1.538-.53,1.716,1.716,0,0,1-.6-1.345A1.792,1.792,0,0,1,12.376-3.3a3.55,3.55,0,0,1,2.118-.548h1.055v-.5a1.217,1.217,0,0,0-.34-.905,1.366,1.366,0,0,0-1-.337,1.581,1.581,0,0,0-.973.293.863.863,0,0,0-.393.709h-1.09a1.5,1.5,0,0,1,.337-.917A2.3,2.3,0,0,1,13-6.2a3.075,3.075,0,0,1,1.269-.258,2.506,2.506,0,0,1,1.717.548A1.976,1.976,0,0,1,16.633-4.4v2.918a3.567,3.567,0,0,0,.223,1.389V0Zm-1.8-.826a1.905,1.905,0,0,0,.967-.264,1.6,1.6,0,0,0,.662-.686v-1.3H14.7q-1.992,0-1.992,1.166a.987.987,0,0,0,.34.8A1.306,1.306,0,0,0,13.92-.826Zm6.26-.645,1.57-4.869h1.107L20.585,0h-.826l-2.3-6.34h1.107Zm6.2,1.588a2.77,2.77,0,0,1-2.1-.847,3.142,3.142,0,0,1-.809-2.265v-.2a3.8,3.8,0,0,1,.36-1.685,2.811,2.811,0,0,1,1.008-1.16,2.534,2.534,0,0,1,1.4-.419,2.374,2.374,0,0,1,1.922.814,3.526,3.526,0,0,1,.686,2.332v.451H24.554A2.254,2.254,0,0,0,25.1-1.345a1.722,1.722,0,0,0,1.333.577A1.888,1.888,0,0,0,27.407-1a2.444,2.444,0,0,0,.7-.621l.662.516A2.662,2.662,0,0,1,26.376.117Zm-.135-5.684a1.446,1.446,0,0,0-1.1.478,2.321,2.321,0,0,0-.551,1.339h3.176v-.082a2.065,2.065,0,0,0-.445-1.28A1.361,1.361,0,0,0,26.241-5.566ZM32.931,0V-8.531H35.72a3.238,3.238,0,0,1,2.089.574,2.07,2.07,0,0,1,.7,1.7,1.733,1.733,0,0,1-.34,1.058,2.2,2.2,0,0,1-.926.712,1.979,1.979,0,0,1,1.093.735,2.11,2.11,0,0,1,.4,1.292,2.282,2.282,0,0,1-.744,1.8A3.077,3.077,0,0,1,35.89,0Zm1.125-3.99V-.92h1.857a1.788,1.788,0,0,0,1.239-.407,1.43,1.43,0,0,0,.454-1.122q0-1.541-1.676-1.541Zm0-.9h1.7a1.781,1.781,0,0,0,1.181-.37,1.24,1.24,0,0,0,.442-1,1.22,1.22,0,0,0-.41-1.025,2.014,2.014,0,0,0-1.248-.32H34.056ZM42.707.117a2.77,2.77,0,0,1-2.1-.847A3.142,3.142,0,0,1,39.8-2.994v-.2a3.8,3.8,0,0,1,.36-1.685,2.811,2.811,0,0,1,1.008-1.16,2.534,2.534,0,0,1,1.4-.419,2.374,2.374,0,0,1,1.922.814,3.526,3.526,0,0,1,.686,2.332v.451H40.885a2.254,2.254,0,0,0,.548,1.515,1.722,1.722,0,0,0,1.333.577A1.888,1.888,0,0,0,43.738-1a2.444,2.444,0,0,0,.7-.621l.662.516A2.662,2.662,0,0,1,42.707.117Zm-.135-5.684a1.446,1.446,0,0,0-1.1.478A2.321,2.321,0,0,0,40.92-3.75H44.1v-.082a2.065,2.065,0,0,0-.445-1.28A1.361,1.361,0,0,0,42.572-5.566ZM46.02-3.223a3.726,3.726,0,0,1,.686-2.358,2.192,2.192,0,0,1,1.816-.876,2.181,2.181,0,0,1,1.811.82l.053-.7h.99V-.152a2.579,2.579,0,0,1-.729,1.939,2.692,2.692,0,0,1-1.96.709A3.261,3.261,0,0,1,47.344,2.2a2.31,2.31,0,0,1-1-.8L46.9.75a2.12,2.12,0,0,0,1.705.861,1.661,1.661,0,0,0,1.233-.445,1.7,1.7,0,0,0,.442-1.254V-.633a2.228,2.228,0,0,1-1.775.75,2.166,2.166,0,0,1-1.8-.9A3.918,3.918,0,0,1,46.02-3.223Zm1.09.123a2.843,2.843,0,0,0,.439,1.685,1.428,1.428,0,0,0,1.23.612,1.588,1.588,0,0,0,1.506-.932V-4.629a1.606,1.606,0,0,0-1.494-.908,1.441,1.441,0,0,0-1.236.615A3.1,3.1,0,0,0,47.109-3.1ZM54.032,0H52.948V-6.34h1.084ZM52.86-8.021a.647.647,0,0,1,.161-.445.6.6,0,0,1,.478-.182.614.614,0,0,1,.48.182.64.64,0,0,1,.164.445.619.619,0,0,1-.164.439.626.626,0,0,1-.48.176.616.616,0,0,1-.478-.176A.626.626,0,0,1,52.86-8.021ZM56.635-6.34l.035.8a2.31,2.31,0,0,1,1.9-.914q2.01,0,2.027,2.268V0H59.512V-4.2A1.459,1.459,0,0,0,59.2-5.209a1.256,1.256,0,0,0-.958-.328,1.564,1.564,0,0,0-.926.281,1.91,1.91,0,0,0-.621.738V0H55.61V-6.34Zm6.465,0,.035.8a2.31,2.31,0,0,1,1.9-.914q2.01,0,2.027,2.268V0H65.977V-4.2a1.459,1.459,0,0,0-.313-1.014,1.256,1.256,0,0,0-.958-.328,1.564,1.564,0,0,0-.926.281,1.91,1.91,0,0,0-.621.738V0H62.075V-6.34ZM71.171.117a2.77,2.77,0,0,1-2.1-.847,3.142,3.142,0,0,1-.809-2.265v-.2a3.8,3.8,0,0,1,.36-1.685,2.811,2.811,0,0,1,1.008-1.16,2.534,2.534,0,0,1,1.4-.419,2.374,2.374,0,0,1,1.922.814,3.526,3.526,0,0,1,.686,2.332v.451H69.349A2.254,2.254,0,0,0,69.9-1.345a1.722,1.722,0,0,0,1.333.577A1.888,1.888,0,0,0,72.2-1a2.444,2.444,0,0,0,.7-.621l.662.516A2.662,2.662,0,0,1,71.171.117Zm-.135-5.684a1.446,1.446,0,0,0-1.1.478,2.321,2.321,0,0,0-.551,1.339H72.56v-.082a2.065,2.065,0,0,0-.445-1.28A1.361,1.361,0,0,0,71.036-5.566Zm6.77.2a3.248,3.248,0,0,0-.533-.041,1.428,1.428,0,0,0-1.447.908V0H74.742V-6.34H75.8l.018.732a1.688,1.688,0,0,1,1.512-.85,1.107,1.107,0,0,1,.48.082Z" transform="translate(39 387)" opacity="0.6"/><path d="M7.289-1.119a2.6,2.6,0,0,1-1.21.929A4.887,4.887,0,0,1,4.271.117,3.506,3.506,0,0,1,2.42-.372,3.26,3.26,0,0,1,1.169-1.764,4.806,4.806,0,0,1,.715-3.855V-4.6a4.487,4.487,0,0,1,.9-2.988A3.134,3.134,0,0,1,4.143-8.648a3.237,3.237,0,0,1,2.15.683,2.974,2.974,0,0,1,1,1.937H6.164a1.86,1.86,0,0,0-2.016-1.7,1.991,1.991,0,0,0-1.714.795,3.88,3.88,0,0,0-.589,2.3v.7A3.636,3.636,0,0,0,2.5-1.65,2.127,2.127,0,0,0,4.277-.8a3.921,3.921,0,0,0,1.107-.14,1.713,1.713,0,0,0,.785-.473V-3.328H4.2v-.92H7.289ZM11.9-5.367a3.248,3.248,0,0,0-.533-.041A1.428,1.428,0,0,0,9.922-4.5V0H8.838V-6.34H9.893l.018.732a1.688,1.688,0,0,1,1.512-.85,1.107,1.107,0,0,1,.48.082ZM13.92,0H12.836V-6.34H13.92ZM12.749-8.021a.647.647,0,0,1,.161-.445.6.6,0,0,1,.478-.182.614.614,0,0,1,.48.182.64.64,0,0,1,.164.445.619.619,0,0,1-.164.439.626.626,0,0,1-.48.176.616.616,0,0,1-.478-.176A.626.626,0,0,1,12.749-8.021Zm4.221.146V-6.34h1.184V-5.5H16.969v3.937a.88.88,0,0,0,.158.572.666.666,0,0,0,.539.191,2.624,2.624,0,0,0,.516-.07V0a3.161,3.161,0,0,1-.832.116,1.35,1.35,0,0,1-1.1-.439,1.888,1.888,0,0,1-.369-1.248V-5.5H14.731V-6.34h1.154V-7.875Zm3.764,0V-6.34h1.184V-5.5H20.733v3.937a.88.88,0,0,0,.158.572.666.666,0,0,0,.539.191,2.624,2.624,0,0,0,.516-.07V0a3.161,3.161,0,0,1-.832.116,1.35,1.35,0,0,1-1.1-.439,1.888,1.888,0,0,1-.369-1.248V-5.5H18.5V-6.34h1.154V-7.875ZM25.1-1.588,26.577-6.34h1.16L25.189.979Q24.6,2.561,23.308,2.561L23.1,2.543l-.4-.076V1.588l.293.023a1.442,1.442,0,0,0,.858-.223,1.611,1.611,0,0,0,.507-.814L24.6-.07,22.335-6.34h1.184Zm12.731.469a2.6,2.6,0,0,1-1.21.929,4.887,4.887,0,0,1-1.808.308,3.506,3.506,0,0,1-1.852-.489,3.26,3.26,0,0,1-1.251-1.392,4.806,4.806,0,0,1-.454-2.092V-4.6a4.487,4.487,0,0,1,.9-2.988,3.134,3.134,0,0,1,2.528-1.061,3.237,3.237,0,0,1,2.15.683,2.974,2.974,0,0,1,1,1.937H36.707a1.86,1.86,0,0,0-2.016-1.7,1.991,1.991,0,0,0-1.714.795,3.88,3.88,0,0,0-.589,2.3v.7a3.636,3.636,0,0,0,.656,2.284A2.127,2.127,0,0,0,34.82-.8a3.921,3.921,0,0,0,1.107-.14,1.713,1.713,0,0,0,.785-.473V-3.328H34.738v-.92h3.094Zm4.614-4.248a3.248,3.248,0,0,0-.533-.041,1.428,1.428,0,0,0-1.447.908V0H39.381V-6.34h1.055l.018.732a1.688,1.688,0,0,1,1.512-.85,1.107,1.107,0,0,1,.48.082ZM46.965,0a2.277,2.277,0,0,1-.152-.668,2.419,2.419,0,0,1-1.8.785,2.238,2.238,0,0,1-1.538-.53,1.716,1.716,0,0,1-.6-1.345A1.792,1.792,0,0,1,43.622-3.3a3.55,3.55,0,0,1,2.118-.548H46.8v-.5a1.217,1.217,0,0,0-.34-.905,1.366,1.366,0,0,0-1-.337,1.581,1.581,0,0,0-.973.293.863.863,0,0,0-.393.709H43a1.5,1.5,0,0,1,.337-.917,2.3,2.3,0,0,1,.914-.7,3.075,3.075,0,0,1,1.269-.258,2.506,2.506,0,0,1,1.717.548A1.976,1.976,0,0,1,47.879-4.4v2.918A3.567,3.567,0,0,0,48.1-.094V0Zm-1.8-.826a1.905,1.905,0,0,0,.967-.264,1.6,1.6,0,0,0,.662-.686v-1.3h-.85q-1.992,0-1.992,1.166a.987.987,0,0,0,.34.8A1.306,1.306,0,0,0,45.166-.826Zm3.992-2.4a3.714,3.714,0,0,1,.691-2.347,2.186,2.186,0,0,1,1.811-.888,2.2,2.2,0,0,1,1.764.762V-9h1.084V0h-1L53.46-.68a2.208,2.208,0,0,1-1.811.8,2.165,2.165,0,0,1-1.8-.9,3.756,3.756,0,0,1-.694-2.355Zm1.084.123a2.812,2.812,0,0,0,.445,1.688,1.44,1.44,0,0,0,1.23.609,1.581,1.581,0,0,0,1.506-.926V-4.641a1.593,1.593,0,0,0-1.494-.9,1.446,1.446,0,0,0-1.242.615A3.1,3.1,0,0,0,50.243-3.1ZM59.948-.627a2.3,2.3,0,0,1-1.857.744,1.971,1.971,0,0,1-1.544-.589,2.549,2.549,0,0,1-.536-1.743V-6.34h1.084v4.1Q57.095-.8,58.266-.8a1.623,1.623,0,0,0,1.652-.926V-6.34H61V0H59.972ZM66.407,0a2.277,2.277,0,0,1-.152-.668,2.419,2.419,0,0,1-1.8.785,2.238,2.238,0,0,1-1.538-.53,1.716,1.716,0,0,1-.6-1.345A1.792,1.792,0,0,1,63.065-3.3a3.55,3.55,0,0,1,2.118-.548h1.055v-.5a1.217,1.217,0,0,0-.34-.905,1.366,1.366,0,0,0-1-.337,1.581,1.581,0,0,0-.973.293.863.863,0,0,0-.393.709h-1.09a1.5,1.5,0,0,1,.337-.917,2.3,2.3,0,0,1,.914-.7,3.075,3.075,0,0,1,1.269-.258,2.506,2.506,0,0,1,1.717.548A1.976,1.976,0,0,1,67.321-4.4v2.918a3.567,3.567,0,0,0,.223,1.389V0Zm-1.8-.826a1.905,1.905,0,0,0,.967-.264,1.6,1.6,0,0,0,.662-.686v-1.3h-.85Q63.4-3.076,63.4-1.91a.987.987,0,0,0,.34.8A1.306,1.306,0,0,0,64.608-.826Zm5.727-7.049V-6.34h1.184V-5.5H70.335v3.937a.88.88,0,0,0,.158.572.666.666,0,0,0,.539.191,2.624,2.624,0,0,0,.516-.07V0a3.161,3.161,0,0,1-.832.116,1.35,1.35,0,0,1-1.1-.439,1.888,1.888,0,0,1-.369-1.248V-5.5H68.1V-6.34h1.154V-7.875ZM75.259.117a2.77,2.77,0,0,1-2.1-.847,3.142,3.142,0,0,1-.809-2.265v-.2a3.8,3.8,0,0,1,.36-1.685,2.811,2.811,0,0,1,1.008-1.16,2.534,2.534,0,0,1,1.4-.419,2.374,2.374,0,0,1,1.922.814,3.526,3.526,0,0,1,.686,2.332v.451H73.437a2.254,2.254,0,0,0,.548,1.515,1.722,1.722,0,0,0,1.333.577A1.888,1.888,0,0,0,76.291-1a2.444,2.444,0,0,0,.7-.621l.662.516A2.662,2.662,0,0,1,75.259.117Zm-.135-5.684a1.446,1.446,0,0,0-1.1.478,2.321,2.321,0,0,0-.551,1.339h3.176v-.082a2.065,2.065,0,0,0-.445-1.28A1.361,1.361,0,0,0,75.125-5.566Z" transform="translate(248 387)" opacity="0.6"/><path d="M3.5-3.8A5.29,5.29,0,0,1,1.4-4.825a1.954,1.954,0,0,1-.659-1.5,2.064,2.064,0,0,1,.806-1.667,3.2,3.2,0,0,1,2.095-.659,3.5,3.5,0,0,1,1.567.34,2.577,2.577,0,0,1,1.066.938A2.4,2.4,0,0,1,6.65-6.064H5.52a1.56,1.56,0,0,0-.492-1.22,2,2,0,0,0-1.389-.444,2.049,2.049,0,0,0-1.3.367,1.224,1.224,0,0,0-.466,1.018,1.1,1.1,0,0,0,.442.883,4.339,4.339,0,0,0,1.506.66,6.987,6.987,0,0,1,1.664.66,2.525,2.525,0,0,1,.891.841,2.146,2.146,0,0,1,.29,1.131A1.993,1.993,0,0,1,5.859-.507,3.448,3.448,0,0,1,3.7.117,4.01,4.01,0,0,1,2.057-.22,2.761,2.761,0,0,1,.882-1.143a2.252,2.252,0,0,1-.413-1.33H1.6a1.469,1.469,0,0,0,.571,1.222A2.4,2.4,0,0,0,3.7-.8a2.211,2.211,0,0,0,1.365-.363,1.18,1.18,0,0,0,.475-.99,1.158,1.158,0,0,0-.439-.97A5.066,5.066,0,0,0,3.5-3.8ZM11.7-.627A2.3,2.3,0,0,1,9.84.117,1.971,1.971,0,0,1,8.3-.472,2.549,2.549,0,0,1,7.76-2.215V-6.34H8.844v4.1Q8.844-.8,10.016-.8a1.623,1.623,0,0,0,1.652-.926V-6.34h1.084V0H11.721ZM19.6-3.1a3.8,3.8,0,0,1-.662,2.332,2.122,2.122,0,0,1-1.793.885,2.325,2.325,0,0,1-1.816-.732V2.438H14.243V-6.34h.99l.053.7a2.233,2.233,0,0,1,1.84-.82,2.162,2.162,0,0,1,1.808.861A3.838,3.838,0,0,1,19.6-3.2Zm-1.084-.123a2.8,2.8,0,0,0-.457-1.693A1.472,1.472,0,0,0,16.8-5.537a1.593,1.593,0,0,0-1.477.873v3.029a1.6,1.6,0,0,0,1.488.867,1.465,1.465,0,0,0,1.239-.618A3.058,3.058,0,0,0,18.514-3.223ZM23.45.117a2.77,2.77,0,0,1-2.1-.847,3.142,3.142,0,0,1-.809-2.265v-.2a3.8,3.8,0,0,1,.36-1.685,2.811,2.811,0,0,1,1.008-1.16,2.534,2.534,0,0,1,1.4-.419,2.374,2.374,0,0,1,1.922.814,3.526,3.526,0,0,1,.686,2.332v.451H21.628a2.254,2.254,0,0,0,.548,1.515,1.722,1.722,0,0,0,1.333.577A1.888,1.888,0,0,0,24.481-1a2.444,2.444,0,0,0,.7-.621l.662.516A2.662,2.662,0,0,1,23.45.117Zm-.135-5.684a1.446,1.446,0,0,0-1.1.478,2.321,2.321,0,0,0-.551,1.339h3.176v-.082a2.065,2.065,0,0,0-.445-1.28A1.361,1.361,0,0,0,23.315-5.566Zm6.77.2a3.248,3.248,0,0,0-.533-.041A1.428,1.428,0,0,0,28.1-4.5V0H27.021V-6.34h1.055l.018.732a1.688,1.688,0,0,1,1.512-.85,1.107,1.107,0,0,1,.48.082ZM36.423-3.8a5.29,5.29,0,0,1-2.106-1.022,1.954,1.954,0,0,1-.659-1.5,2.064,2.064,0,0,1,.806-1.667,3.2,3.2,0,0,1,2.095-.659,3.5,3.5,0,0,1,1.567.34,2.577,2.577,0,0,1,1.066.938,2.4,2.4,0,0,1,.378,1.307H38.439a1.56,1.56,0,0,0-.492-1.22,2,2,0,0,0-1.389-.444,2.049,2.049,0,0,0-1.3.367,1.224,1.224,0,0,0-.466,1.018,1.1,1.1,0,0,0,.442.883,4.339,4.339,0,0,0,1.506.66,6.987,6.987,0,0,1,1.664.66A2.525,2.525,0,0,1,39.3-3.3a2.146,2.146,0,0,1,.29,1.131,1.993,1.993,0,0,1-.809,1.661,3.448,3.448,0,0,1-2.162.624A4.01,4.01,0,0,1,34.976-.22,2.761,2.761,0,0,1,33.8-1.143a2.252,2.252,0,0,1-.413-1.33h1.131a1.469,1.469,0,0,0,.571,1.222A2.4,2.4,0,0,0,36.617-.8a2.211,2.211,0,0,0,1.365-.363,1.18,1.18,0,0,0,.475-.99,1.158,1.158,0,0,0-.439-.97A5.066,5.066,0,0,0,36.423-3.8Zm5.75-4.072V-6.34h1.184V-5.5H42.174v3.937a.88.88,0,0,0,.158.572.666.666,0,0,0,.539.191,2.624,2.624,0,0,0,.516-.07V0a3.161,3.161,0,0,1-.832.116,1.35,1.35,0,0,1-1.1-.439A1.888,1.888,0,0,1,41.09-1.57V-5.5H39.935V-6.34H41.09V-7.875ZM48.381-.627a2.3,2.3,0,0,1-1.857.744A1.971,1.971,0,0,1,44.98-.472a2.549,2.549,0,0,1-.536-1.743V-6.34h1.084v4.1Q45.527-.8,46.7-.8a1.623,1.623,0,0,0,1.652-.926V-6.34h1.084V0H48.4Zm2.282-2.6a3.714,3.714,0,0,1,.691-2.347,2.186,2.186,0,0,1,1.811-.888,2.2,2.2,0,0,1,1.764.762V-9h1.084V0h-1l-.053-.68a2.208,2.208,0,0,1-1.811.8,2.165,2.165,0,0,1-1.8-.9,3.756,3.756,0,0,1-.694-2.355Zm1.084.123a2.812,2.812,0,0,0,.445,1.688,1.44,1.44,0,0,0,1.23.609,1.581,1.581,0,0,0,1.506-.926V-4.641a1.593,1.593,0,0,0-1.494-.9,1.446,1.446,0,0,0-1.242.615A3.1,3.1,0,0,0,51.746-3.1ZM60.169.117a2.77,2.77,0,0,1-2.1-.847,3.142,3.142,0,0,1-.809-2.265v-.2a3.8,3.8,0,0,1,.36-1.685,2.811,2.811,0,0,1,1.008-1.16,2.534,2.534,0,0,1,1.4-.419,2.374,2.374,0,0,1,1.922.814,3.526,3.526,0,0,1,.686,2.332v.451H58.346a2.254,2.254,0,0,0,.548,1.515,1.722,1.722,0,0,0,1.333.577A1.888,1.888,0,0,0,61.2-1a2.444,2.444,0,0,0,.7-.621l.662.516A2.662,2.662,0,0,1,60.169.117Zm-.135-5.684a1.446,1.446,0,0,0-1.1.478,2.321,2.321,0,0,0-.551,1.339h3.176v-.082a2.065,2.065,0,0,0-.445-1.28A1.361,1.361,0,0,0,60.034-5.566Zm4.731-.773.035.8a2.31,2.31,0,0,1,1.9-.914q2.01,0,2.027,2.268V0H67.641V-4.2a1.459,1.459,0,0,0-.313-1.014,1.256,1.256,0,0,0-.958-.328,1.564,1.564,0,0,0-.926.281,1.91,1.91,0,0,0-.621.738V0H63.739V-6.34Zm6.91-1.535V-6.34h1.184V-5.5H71.675v3.937a.88.88,0,0,0,.158.572.666.666,0,0,0,.539.191,2.624,2.624,0,0,0,.516-.07V0a3.161,3.161,0,0,1-.832.116,1.35,1.35,0,0,1-1.1-.439,1.888,1.888,0,0,1-.369-1.248V-5.5H69.437V-6.34h1.154V-7.875Z" transform="translate(25 281)" opacity="0.6"/><path d="M.99,0V-8.531H3.4a3.877,3.877,0,0,1,1.969.492,3.329,3.329,0,0,1,1.321,1.4A4.558,4.558,0,0,1,7.16-4.553v.545a4.574,4.574,0,0,1-.466,2.115A3.277,3.277,0,0,1,5.364-.5,4.124,4.124,0,0,1,3.352,0ZM2.115-7.611V-.92H3.3a2.575,2.575,0,0,0,2.024-.809,3.344,3.344,0,0,0,.724-2.3v-.5a3.4,3.4,0,0,0-.683-2.261,2.429,2.429,0,0,0-1.937-.818Zm8.492,6.023L12.084-6.34h1.16L10.7.979Q10.1,2.561,8.815,2.561L8.61,2.543l-.4-.076V1.588l.293.023a1.442,1.442,0,0,0,.858-.223A1.611,1.611,0,0,0,9.864.574L10.1-.07,7.842-6.34H9.026ZM15.081-6.34l.035.8a2.31,2.31,0,0,1,1.9-.914q2.01,0,2.027,2.268V0H17.958V-4.2a1.459,1.459,0,0,0-.313-1.014,1.256,1.256,0,0,0-.958-.328,1.564,1.564,0,0,0-.926.281,1.91,1.91,0,0,0-.621.738V0H14.055V-6.34ZM24.434,0a2.277,2.277,0,0,1-.152-.668,2.419,2.419,0,0,1-1.8.785,2.238,2.238,0,0,1-1.538-.53,1.716,1.716,0,0,1-.6-1.345A1.792,1.792,0,0,1,21.092-3.3a3.55,3.55,0,0,1,2.118-.548h1.055v-.5a1.217,1.217,0,0,0-.34-.905,1.366,1.366,0,0,0-1-.337,1.581,1.581,0,0,0-.973.293.863.863,0,0,0-.393.709h-1.09A1.5,1.5,0,0,1,20.8-5.5a2.3,2.3,0,0,1,.914-.7,3.075,3.075,0,0,1,1.269-.258,2.506,2.506,0,0,1,1.717.548A1.976,1.976,0,0,1,25.348-4.4v2.918a3.567,3.567,0,0,0,.223,1.389V0Zm-1.8-.826A1.905,1.905,0,0,0,23.6-1.09a1.6,1.6,0,0,0,.662-.686v-1.3h-.85q-1.992,0-1.992,1.166a.987.987,0,0,0,.34.8A1.306,1.306,0,0,0,22.636-.826ZM27.911-6.34l.029.7a2.341,2.341,0,0,1,1.881-.82,1.813,1.813,0,0,1,1.811,1.02,2.4,2.4,0,0,1,.823-.738,2.431,2.431,0,0,1,1.2-.281q2.086,0,2.121,2.209V0H34.69V-4.184A1.456,1.456,0,0,0,34.38-5.2a1.368,1.368,0,0,0-1.043-.337,1.437,1.437,0,0,0-1,.36,1.462,1.462,0,0,0-.463.97V0h-1.09V-4.154a1.209,1.209,0,0,0-1.354-1.383,1.45,1.45,0,0,0-1.459.908V0H26.886V-6.34ZM38.431,0H37.347V-6.34h1.084ZM37.259-8.021a.647.647,0,0,1,.161-.445.6.6,0,0,1,.478-.182.614.614,0,0,1,.48.182.64.64,0,0,1,.164.445.619.619,0,0,1-.164.439.626.626,0,0,1-.48.176.616.616,0,0,1-.478-.176A.626.626,0,0,1,37.259-8.021ZM42.552-.768a1.561,1.561,0,0,0,1.014-.352A1.237,1.237,0,0,0,44.046-2h1.025A1.966,1.966,0,0,1,44.7-.961a2.47,2.47,0,0,1-.923.785,2.663,2.663,0,0,1-1.222.293,2.612,2.612,0,0,1-2.06-.864,3.442,3.442,0,0,1-.765-2.364v-.182a3.817,3.817,0,0,1,.34-1.646,2.588,2.588,0,0,1,.976-1.119,2.771,2.771,0,0,1,1.5-.4,2.543,2.543,0,0,1,1.772.639,2.283,2.283,0,0,1,.753,1.658H44.046a1.494,1.494,0,0,0-.466-1.011,1.449,1.449,0,0,0-1.034-.4,1.517,1.517,0,0,0-1.28.595,2.793,2.793,0,0,0-.454,1.72v.205a2.737,2.737,0,0,0,.451,1.688A1.524,1.524,0,0,0,42.552-.768ZM.99,14V5.469H3.4a3.877,3.877,0,0,1,1.969.492,3.329,3.329,0,0,1,1.321,1.4A4.558,4.558,0,0,1,7.16,9.447v.545a4.574,4.574,0,0,1-.466,2.115A3.277,3.277,0,0,1,5.364,13.5a4.124,4.124,0,0,1-2.013.5ZM2.115,6.389V13.08H3.3a2.575,2.575,0,0,0,2.024-.809,3.344,3.344,0,0,0,.724-2.3v-.5a3.4,3.4,0,0,0-.683-2.261,2.429,2.429,0,0,0-1.937-.818ZM9.711,14H8.627V7.66H9.711ZM8.539,5.979A.647.647,0,0,1,8.7,5.533a.6.6,0,0,1,.478-.182.614.614,0,0,1,.48.182.64.64,0,0,1,.164.445.619.619,0,0,1-.164.439.626.626,0,0,1-.48.176A.616.616,0,0,1,8.7,6.418.626.626,0,0,1,8.539,5.979Zm6.442,6.34a.8.8,0,0,0-.331-.683,3.187,3.187,0,0,0-1.154-.419,5.457,5.457,0,0,1-1.307-.422,1.859,1.859,0,0,1-.715-.586,1.4,1.4,0,0,1-.231-.809A1.645,1.645,0,0,1,11.9,8.082a2.574,2.574,0,0,1,1.685-.539,2.649,2.649,0,0,1,1.749.557,1.768,1.768,0,0,1,.671,1.424h-1.09a.979.979,0,0,0-.378-.768,1.416,1.416,0,0,0-.952-.322,1.482,1.482,0,0,0-.926.258.812.812,0,0,0-.334.674.658.658,0,0,0,.311.592,3.821,3.821,0,0,0,1.122.381,5.847,5.847,0,0,1,1.315.434,1.919,1.919,0,0,1,.747.606,1.491,1.491,0,0,1,.243.864,1.623,1.623,0,0,1-.68,1.362,2.851,2.851,0,0,1-1.764.513,3.193,3.193,0,0,1-1.348-.27,2.192,2.192,0,0,1-.917-.753,1.815,1.815,0,0,1-.331-1.046H12.11a1.122,1.122,0,0,0,.437.864,1.693,1.693,0,0,0,1.075.319,1.748,1.748,0,0,0,.987-.249A.765.765,0,0,0,14.981,12.318Zm4.883.914a1.561,1.561,0,0,0,1.014-.352,1.237,1.237,0,0,0,.48-.879h1.025a1.966,1.966,0,0,1-.375,1.037,2.47,2.47,0,0,1-.923.785,2.663,2.663,0,0,1-1.222.293,2.612,2.612,0,0,1-2.06-.864,3.442,3.442,0,0,1-.765-2.364v-.182a3.817,3.817,0,0,1,.34-1.646,2.588,2.588,0,0,1,.976-1.119,2.771,2.771,0,0,1,1.5-.4,2.543,2.543,0,0,1,1.772.639,2.283,2.283,0,0,1,.753,1.658H21.358a1.494,1.494,0,0,0-.466-1.011,1.449,1.449,0,0,0-1.034-.4,1.517,1.517,0,0,0-1.28.595,2.793,2.793,0,0,0-.454,1.72v.205a2.737,2.737,0,0,0,.451,1.688A1.524,1.524,0,0,0,19.864,13.232Zm4.76.768H23.54V7.66h1.084ZM23.452,5.979a.647.647,0,0,1,.161-.445.6.6,0,0,1,.478-.182.614.614,0,0,1,.48.182.64.64,0,0,1,.164.445.619.619,0,0,1-.164.439.626.626,0,0,1-.48.176.616.616,0,0,1-.478-.176A.626.626,0,0,1,23.452,5.979ZM31.558,10.9a3.8,3.8,0,0,1-.662,2.332,2.122,2.122,0,0,1-1.793.885,2.325,2.325,0,0,1-1.816-.732v3.053H26.2V7.66h.99l.053.7a2.233,2.233,0,0,1,1.84-.82,2.162,2.162,0,0,1,1.808.861,3.838,3.838,0,0,1,.665,2.4Zm-1.084-.123a2.8,2.8,0,0,0-.457-1.693,1.472,1.472,0,0,0-1.254-.621,1.593,1.593,0,0,0-1.477.873v3.029a1.6,1.6,0,0,0,1.488.867,1.465,1.465,0,0,0,1.239-.618A3.058,3.058,0,0,0,30.474,10.777ZM33.957,14H32.873V5h1.084Zm4.209.117a2.77,2.77,0,0,1-2.1-.847,3.142,3.142,0,0,1-.809-2.265v-.2a3.8,3.8,0,0,1,.36-1.685,2.811,2.811,0,0,1,1.008-1.16,2.534,2.534,0,0,1,1.4-.419,2.374,2.374,0,0,1,1.922.814,3.526,3.526,0,0,1,.686,2.332v.451H36.344a2.254,2.254,0,0,0,.548,1.515,1.722,1.722,0,0,0,1.333.577A1.888,1.888,0,0,0,39.2,13a2.444,2.444,0,0,0,.7-.621l.662.516A2.662,2.662,0,0,1,38.166,14.117Zm-.135-5.684a1.446,1.446,0,0,0-1.1.478,2.321,2.321,0,0,0-.551,1.339h3.176v-.082a2.065,2.065,0,0,0-.445-1.28A1.361,1.361,0,0,0,38.031,8.434Z" transform="translate(25 145)" opacity="0.6"/><path d="M4.119-3.451h-2V0H.984V-8.531H3.809a3.343,3.343,0,0,1,2.218.656A2.361,2.361,0,0,1,6.8-5.965a2.3,2.3,0,0,1-.431,1.389,2.571,2.571,0,0,1-1.2.885l2,3.621V0H5.971Zm-2-.92H3.844a1.95,1.95,0,0,0,1.333-.434,1.469,1.469,0,0,0,.5-1.162A1.547,1.547,0,0,0,5.2-7.183a2,2,0,0,0-1.362-.429H2.115ZM11.967,0a2.277,2.277,0,0,1-.152-.668,2.419,2.419,0,0,1-1.8.785,2.238,2.238,0,0,1-1.538-.53,1.716,1.716,0,0,1-.6-1.345A1.792,1.792,0,0,1,8.624-3.3a3.55,3.55,0,0,1,2.118-.548H11.8v-.5a1.217,1.217,0,0,0-.34-.905,1.366,1.366,0,0,0-1-.337,1.581,1.581,0,0,0-.973.293.863.863,0,0,0-.393.709H8A1.5,1.5,0,0,1,8.337-5.5a2.3,2.3,0,0,1,.914-.7,3.075,3.075,0,0,1,1.269-.258,2.506,2.506,0,0,1,1.717.548A1.976,1.976,0,0,1,12.881-4.4v2.918A3.567,3.567,0,0,0,13.1-.094V0Zm-1.8-.826a1.905,1.905,0,0,0,.967-.264,1.6,1.6,0,0,0,.662-.686v-1.3h-.85q-1.992,0-1.992,1.166a.987.987,0,0,0,.34.8A1.306,1.306,0,0,0,10.168-.826ZM15.9-7.875V-6.34h1.184V-5.5H15.9v3.937a.88.88,0,0,0,.158.572.666.666,0,0,0,.539.191,2.624,2.624,0,0,0,.516-.07V0a3.161,3.161,0,0,1-.832.116,1.35,1.35,0,0,1-1.1-.439,1.888,1.888,0,0,1-.369-1.248V-5.5H13.657V-6.34h1.154V-7.875ZM19.366,0H18.282V-6.34h1.084ZM18.194-8.021a.647.647,0,0,1,.161-.445.6.6,0,0,1,.478-.182.614.614,0,0,1,.48.182.64.64,0,0,1,.164.445.619.619,0,0,1-.164.439.626.626,0,0,1-.48.176.616.616,0,0,1-.478-.176A.626.626,0,0,1,18.194-8.021Zm2.463,4.793A3.745,3.745,0,0,1,21.023-4.9a2.732,2.732,0,0,1,1.02-1.148,2.775,2.775,0,0,1,1.491-.4,2.674,2.674,0,0,1,2.095.9,3.449,3.449,0,0,1,.8,2.385V-3.1a3.777,3.777,0,0,1-.354,1.661A2.692,2.692,0,0,1,25.061-.293a2.807,2.807,0,0,1-1.515.41,2.667,2.667,0,0,1-2.089-.9,3.432,3.432,0,0,1-.8-2.373Zm1.09.129a2.712,2.712,0,0,0,.489,1.693,1.566,1.566,0,0,0,1.31.639,1.556,1.556,0,0,0,1.313-.647,2.966,2.966,0,0,0,.486-1.813,2.708,2.708,0,0,0-.5-1.69,1.574,1.574,0,0,0-1.315-.647,1.557,1.557,0,0,0-1.295.639A2.944,2.944,0,0,0,21.747-3.1Zm6.91-3.24.035.8a2.31,2.31,0,0,1,1.9-.914q2.01,0,2.027,2.268V0H31.534V-4.2a1.459,1.459,0,0,0-.313-1.014,1.256,1.256,0,0,0-.958-.328,1.564,1.564,0,0,0-.926.281,1.91,1.91,0,0,0-.621.738V0H27.632V-6.34ZM38.011,0a2.277,2.277,0,0,1-.152-.668,2.419,2.419,0,0,1-1.8.785,2.238,2.238,0,0,1-1.538-.53,1.716,1.716,0,0,1-.6-1.345A1.792,1.792,0,0,1,34.668-3.3a3.55,3.55,0,0,1,2.118-.548h1.055v-.5a1.217,1.217,0,0,0-.34-.905,1.366,1.366,0,0,0-1-.337,1.581,1.581,0,0,0-.973.293.863.863,0,0,0-.393.709h-1.09a1.5,1.5,0,0,1,.337-.917,2.3,2.3,0,0,1,.914-.7,3.075,3.075,0,0,1,1.269-.258,2.506,2.506,0,0,1,1.717.548A1.976,1.976,0,0,1,38.925-4.4v2.918a3.567,3.567,0,0,0,.223,1.389V0Zm-1.8-.826a1.905,1.905,0,0,0,.967-.264,1.6,1.6,0,0,0,.662-.686v-1.3h-.85Q35-3.076,35-1.91a.987.987,0,0,0,.34.8A1.306,1.306,0,0,0,36.212-.826ZM41.646,0H40.562V-9h1.084Zm7.692-3.451h-2V0H46.2V-8.531h2.824a3.343,3.343,0,0,1,2.218.656,2.361,2.361,0,0,1,.776,1.91,2.3,2.3,0,0,1-.431,1.389,2.571,2.571,0,0,1-1.2.885l2,3.621V0H51.19Zm-2-.92h1.729A1.95,1.95,0,0,0,50.4-4.805a1.469,1.469,0,0,0,.5-1.162,1.547,1.547,0,0,0-.472-1.215,2,2,0,0,0-1.362-.429H47.334ZM55.9.117a2.77,2.77,0,0,1-2.1-.847A3.142,3.142,0,0,1,53-2.994v-.2a3.8,3.8,0,0,1,.36-1.685,2.811,2.811,0,0,1,1.008-1.16,2.534,2.534,0,0,1,1.4-.419,2.374,2.374,0,0,1,1.922.814,3.526,3.526,0,0,1,.686,2.332v.451H54.081a2.254,2.254,0,0,0,.548,1.515,1.722,1.722,0,0,0,1.333.577A1.888,1.888,0,0,0,56.934-1a2.444,2.444,0,0,0,.7-.621l.662.516A2.662,2.662,0,0,1,55.9.117Zm-.135-5.684a1.446,1.446,0,0,0-1.1.478,2.321,2.321,0,0,0-.551,1.339h3.176v-.082a2.065,2.065,0,0,0-.445-1.28A1.361,1.361,0,0,0,55.768-5.566ZM64.841-3.1a3.77,3.77,0,0,1-.668,2.335A2.134,2.134,0,0,1,62.38.117a2.21,2.21,0,0,1-1.857-.85L60.47,0h-1V-9h1.084v3.357a2.2,2.2,0,0,1,1.811-.814,2.147,2.147,0,0,1,1.813.873,3.883,3.883,0,0,1,.659,2.391Zm-1.084-.123a2.929,2.929,0,0,0-.428-1.711,1.416,1.416,0,0,0-1.23-.6,1.591,1.591,0,0,0-1.541,1V-1.8a1.636,1.636,0,0,0,1.553,1,1.408,1.408,0,0,0,1.213-.6A3.115,3.115,0,0,0,63.757-3.223ZM68.681.117a2.77,2.77,0,0,1-2.1-.847,3.142,3.142,0,0,1-.809-2.265v-.2a3.8,3.8,0,0,1,.36-1.685,2.811,2.811,0,0,1,1.008-1.16,2.534,2.534,0,0,1,1.4-.419,2.374,2.374,0,0,1,1.922.814,3.526,3.526,0,0,1,.686,2.332v.451H66.858a2.254,2.254,0,0,0,.548,1.515,1.722,1.722,0,0,0,1.333.577A1.888,1.888,0,0,0,69.712-1a2.444,2.444,0,0,0,.7-.621l.662.516A2.662,2.662,0,0,1,68.681.117Zm-.135-5.684a1.446,1.446,0,0,0-1.1.478,2.321,2.321,0,0,0-.551,1.339h3.176v-.082a2.065,2.065,0,0,0-.445-1.28A1.361,1.361,0,0,0,68.546-5.566ZM73.429,0H72.345V-9h1.084Z" transform="translate(143 107)" opacity="0.6"/><path d="M.99,0V-8.531H3.779a3.238,3.238,0,0,1,2.089.574,2.07,2.07,0,0,1,.7,1.7A1.733,1.733,0,0,1,6.229-5.2a2.2,2.2,0,0,1-.926.712A1.979,1.979,0,0,1,6.4-3.753a2.11,2.11,0,0,1,.4,1.292,2.282,2.282,0,0,1-.744,1.8A3.077,3.077,0,0,1,3.949,0ZM2.115-3.99V-.92H3.973a1.788,1.788,0,0,0,1.239-.407,1.43,1.43,0,0,0,.454-1.122q0-1.541-1.676-1.541Zm0-.9h1.7A1.781,1.781,0,0,0,5-5.262a1.24,1.24,0,0,0,.442-1,1.22,1.22,0,0,0-.41-1.025,2.014,2.014,0,0,0-1.248-.32H2.115ZM10.766.117a2.77,2.77,0,0,1-2.1-.847A3.142,3.142,0,0,1,7.86-2.994v-.2a3.8,3.8,0,0,1,.36-1.685,2.811,2.811,0,0,1,1.008-1.16,2.534,2.534,0,0,1,1.4-.419,2.374,2.374,0,0,1,1.922.814,3.526,3.526,0,0,1,.686,2.332v.451H8.944a2.254,2.254,0,0,0,.548,1.515,1.722,1.722,0,0,0,1.333.577A1.888,1.888,0,0,0,11.8-1a2.444,2.444,0,0,0,.7-.621l.662.516A2.662,2.662,0,0,1,10.766.117Zm-.135-5.684a1.446,1.446,0,0,0-1.1.478A2.321,2.321,0,0,0,8.979-3.75h3.176v-.082a2.065,2.065,0,0,0-.445-1.28A1.361,1.361,0,0,0,10.631-5.566ZM15.514,0H14.43V-9h1.084ZM18.27,0H17.186V-6.34H18.27ZM17.1-8.021a.647.647,0,0,1,.161-.445.6.6,0,0,1,.478-.182.614.614,0,0,1,.48.182.64.64,0,0,1,.164.445.619.619,0,0,1-.164.439.626.626,0,0,1-.48.176.616.616,0,0,1-.478-.176A.626.626,0,0,1,17.1-8.021ZM22.48.117a2.77,2.77,0,0,1-2.1-.847,3.142,3.142,0,0,1-.809-2.265v-.2a3.8,3.8,0,0,1,.36-1.685,2.811,2.811,0,0,1,1.008-1.16,2.534,2.534,0,0,1,1.4-.419,2.374,2.374,0,0,1,1.922.814,3.526,3.526,0,0,1,.686,2.332v.451H20.657a2.254,2.254,0,0,0,.548,1.515,1.722,1.722,0,0,0,1.333.577A1.888,1.888,0,0,0,23.511-1a2.444,2.444,0,0,0,.7-.621l.662.516A2.662,2.662,0,0,1,22.48.117Zm-.135-5.684a1.446,1.446,0,0,0-1.1.478,2.321,2.321,0,0,0-.551,1.339h3.176v-.082a2.065,2.065,0,0,0-.445-1.28A1.361,1.361,0,0,0,22.345-5.566ZM26.583,0V-5.5h-1V-6.34h1v-.65a2.159,2.159,0,0,1,.545-1.576,2.058,2.058,0,0,1,1.541-.557,2.862,2.862,0,0,1,.744.1l-.059.874a3.113,3.113,0,0,0-.586-.053,1.058,1.058,0,0,0-.814.309,1.252,1.252,0,0,0-.287.885v.67h1.354V-5.5H27.667V0Zm6.461,0V-8.531h2.789a3.238,3.238,0,0,1,2.089.574,2.07,2.07,0,0,1,.7,1.7,1.733,1.733,0,0,1-.34,1.058,2.2,2.2,0,0,1-.926.712,1.979,1.979,0,0,1,1.093.735,2.11,2.11,0,0,1,.4,1.292,2.282,2.282,0,0,1-.744,1.8A3.077,3.077,0,0,1,36,0ZM34.17-3.99V-.92h1.857a1.788,1.788,0,0,0,1.239-.407,1.43,1.43,0,0,0,.454-1.122q0-1.541-1.676-1.541Zm0-.9h1.7a1.781,1.781,0,0,0,1.181-.37,1.24,1.24,0,0,0,.442-1,1.22,1.22,0,0,0-.41-1.025,2.014,2.014,0,0,0-1.248-.32H34.17ZM39.9-3.229A3.745,3.745,0,0,1,40.269-4.9a2.732,2.732,0,0,1,1.02-1.148,2.775,2.775,0,0,1,1.491-.4,2.674,2.674,0,0,1,2.095.9,3.449,3.449,0,0,1,.8,2.385V-3.1a3.777,3.777,0,0,1-.354,1.661A2.692,2.692,0,0,1,44.306-.293a2.807,2.807,0,0,1-1.515.41,2.667,2.667,0,0,1-2.089-.9,3.432,3.432,0,0,1-.8-2.373Zm1.09.129a2.712,2.712,0,0,0,.489,1.693,1.566,1.566,0,0,0,1.31.639A1.556,1.556,0,0,0,44.1-1.415a2.966,2.966,0,0,0,.486-1.813,2.708,2.708,0,0,0-.5-1.69,1.574,1.574,0,0,0-1.315-.647,1.557,1.557,0,0,0-1.295.639A2.944,2.944,0,0,0,40.992-3.1Zm9.576,1.418a.8.8,0,0,0-.331-.683,3.187,3.187,0,0,0-1.154-.419,5.457,5.457,0,0,1-1.307-.422,1.859,1.859,0,0,1-.715-.586A1.4,1.4,0,0,1,46.83-4.6a1.645,1.645,0,0,1,.659-1.318,2.574,2.574,0,0,1,1.685-.539,2.649,2.649,0,0,1,1.749.557,1.768,1.768,0,0,1,.671,1.424H50.5a.979.979,0,0,0-.378-.768,1.416,1.416,0,0,0-.952-.322,1.482,1.482,0,0,0-.926.258.812.812,0,0,0-.334.674.658.658,0,0,0,.311.592,3.821,3.821,0,0,0,1.122.381,5.847,5.847,0,0,1,1.315.434,1.919,1.919,0,0,1,.747.606,1.491,1.491,0,0,1,.243.864A1.623,1.623,0,0,1,50.973-.4a2.851,2.851,0,0,1-1.764.513,3.193,3.193,0,0,1-1.348-.27,2.192,2.192,0,0,1-.917-.753,1.815,1.815,0,0,1-.331-1.046H47.7a1.122,1.122,0,0,0,.437.864,1.693,1.693,0,0,0,1.075.319,1.748,1.748,0,0,0,.987-.249A.765.765,0,0,0,50.569-1.682Zm6.032,0a.8.8,0,0,0-.331-.683,3.187,3.187,0,0,0-1.154-.419,5.457,5.457,0,0,1-1.307-.422,1.859,1.859,0,0,1-.715-.586,1.4,1.4,0,0,1-.231-.809,1.645,1.645,0,0,1,.659-1.318,2.574,2.574,0,0,1,1.685-.539,2.649,2.649,0,0,1,1.749.557,1.768,1.768,0,0,1,.671,1.424h-1.09a.979.979,0,0,0-.378-.768,1.416,1.416,0,0,0-.952-.322,1.482,1.482,0,0,0-.926.258.812.812,0,0,0-.334.674.658.658,0,0,0,.311.592,3.821,3.821,0,0,0,1.122.381,5.847,5.847,0,0,1,1.315.434,1.919,1.919,0,0,1,.747.606,1.491,1.491,0,0,1,.243.864A1.623,1.623,0,0,1,57-.4a2.851,2.851,0,0,1-1.764.513,3.193,3.193,0,0,1-1.348-.27,2.192,2.192,0,0,1-.917-.753,1.815,1.815,0,0,1-.331-1.046h1.084a1.122,1.122,0,0,0,.437.864,1.693,1.693,0,0,0,1.075.319,1.748,1.748,0,0,0,.987-.249A.765.765,0,0,0,56.6-1.682Z" transform="translate(245 137)" opacity="0.6"/><path d="M-25.555-2.689l.164,1.125.24-1.014,1.688-5.953h.949l1.646,5.953.234,1.031.182-1.148,1.324-5.836H-18L-20.065,0H-21.09l-1.758-6.217-.135-.65-.135.65L-24.94,0h-1.025l-2.062-8.531H-26.9Zm8.012-.539A3.745,3.745,0,0,1-17.177-4.9a2.732,2.732,0,0,1,1.02-1.148,2.775,2.775,0,0,1,1.491-.4,2.674,2.674,0,0,1,2.095.9,3.449,3.449,0,0,1,.8,2.385V-3.1a3.777,3.777,0,0,1-.354,1.661A2.692,2.692,0,0,1-13.14-.293a2.807,2.807,0,0,1-1.515.41,2.667,2.667,0,0,1-2.089-.9,3.432,3.432,0,0,1-.8-2.373Zm1.09.129a2.712,2.712,0,0,0,.489,1.693,1.566,1.566,0,0,0,1.31.639,1.556,1.556,0,0,0,1.313-.647,2.966,2.966,0,0,0,.486-1.813,2.708,2.708,0,0,0-.5-1.69,1.574,1.574,0,0,0-1.315-.647,1.557,1.557,0,0,0-1.295.639A2.944,2.944,0,0,0-16.453-3.1ZM-7.5-5.367a3.248,3.248,0,0,0-.533-.041A1.428,1.428,0,0,0-9.484-4.5V0h-1.084V-6.34h1.055l.018.732a1.688,1.688,0,0,1,1.512-.85,1.107,1.107,0,0,1,.48.082Zm3.9,0a3.248,3.248,0,0,0-.533-.041A1.428,1.428,0,0,0-5.58-4.5V0H-6.664V-6.34h1.055l.018.732a1.688,1.688,0,0,1,1.512-.85,1.107,1.107,0,0,1,.48.082ZM-.685-1.588.792-6.34h1.16L-.6.979q-.592,1.582-1.881,1.582l-.205-.018-.4-.076V1.588l.293.023a1.442,1.442,0,0,0,.858-.223A1.611,1.611,0,0,0-1.429.574l.24-.645L-3.45-6.34h1.184Zm5.7-1.594H2.159v-.885H5.019ZM6.45,0V-5.5h-1V-6.34h1v-.65A2.159,2.159,0,0,1,7-8.566a2.058,2.058,0,0,1,1.541-.557,2.862,2.862,0,0,1,.744.1l-.059.874A3.113,3.113,0,0,0,8.636-8.2a1.058,1.058,0,0,0-.814.309,1.252,1.252,0,0,0-.287.885v.67H8.888V-5.5H7.534V0Zm6.541-5.367a3.248,3.248,0,0,0-.533-.041,1.428,1.428,0,0,0-1.447.908V0H9.927V-6.34h1.055L11-5.607a1.688,1.688,0,0,1,1.512-.85,1.107,1.107,0,0,1,.48.082ZM16.463.117a2.77,2.77,0,0,1-2.1-.847,3.142,3.142,0,0,1-.809-2.265v-.2a3.8,3.8,0,0,1,.36-1.685,2.811,2.811,0,0,1,1.008-1.16,2.534,2.534,0,0,1,1.4-.419,2.374,2.374,0,0,1,1.922.814,3.526,3.526,0,0,1,.686,2.332v.451H14.64a2.254,2.254,0,0,0,.548,1.515,1.722,1.722,0,0,0,1.333.577A1.888,1.888,0,0,0,17.494-1a2.444,2.444,0,0,0,.7-.621l.662.516A2.662,2.662,0,0,1,16.463.117Zm-.135-5.684a1.446,1.446,0,0,0-1.1.478,2.321,2.321,0,0,0-.551,1.339h3.176v-.082a2.065,2.065,0,0,0-.445-1.28A1.361,1.361,0,0,0,16.328-5.566ZM22.664.117a2.77,2.77,0,0,1-2.1-.847,3.142,3.142,0,0,1-.809-2.265v-.2a3.8,3.8,0,0,1,.36-1.685,2.811,2.811,0,0,1,1.008-1.16,2.534,2.534,0,0,1,1.4-.419,2.374,2.374,0,0,1,1.922.814,3.526,3.526,0,0,1,.686,2.332v.451H20.842a2.254,2.254,0,0,0,.548,1.515,1.722,1.722,0,0,0,1.333.577A1.888,1.888,0,0,0,23.7-1a2.444,2.444,0,0,0,.7-.621l.662.516A2.662,2.662,0,0,1,22.664.117Zm-.135-5.684a1.446,1.446,0,0,0-1.1.478,2.321,2.321,0,0,0-.551,1.339h3.176v-.082a2.065,2.065,0,0,0-.445-1.28A1.361,1.361,0,0,0,22.529-5.566Zm-38.69,16.877L-16,12.436l.24-1.014,1.688-5.953h.949l1.646,5.953.234,1.031.182-1.148,1.324-5.836H-8.6L-10.671,14H-11.7l-1.758-6.217-.135-.65-.135.65L-15.546,14h-1.025l-2.062-8.531h1.125ZM-3.959,14a2.277,2.277,0,0,1-.152-.668,2.419,2.419,0,0,1-1.8.785,2.238,2.238,0,0,1-1.538-.53,1.716,1.716,0,0,1-.6-1.345A1.792,1.792,0,0,1-7.3,10.7a3.55,3.55,0,0,1,2.118-.548h1.055v-.5a1.217,1.217,0,0,0-.34-.905,1.366,1.366,0,0,0-1-.337,1.581,1.581,0,0,0-.973.293.863.863,0,0,0-.393.709h-1.09A1.5,1.5,0,0,1-7.589,8.5a2.3,2.3,0,0,1,.914-.7,3.075,3.075,0,0,1,1.269-.258,2.506,2.506,0,0,1,1.717.548A1.976,1.976,0,0,1-3.045,9.6v2.918a3.567,3.567,0,0,0,.223,1.389V14Zm-1.8-.826a1.905,1.905,0,0,0,.967-.264,1.6,1.6,0,0,0,.662-.686v-1.3h-.85q-1.992,0-1.992,1.166a.987.987,0,0,0,.34.8A1.306,1.306,0,0,0-5.758,13.174ZM1.562,8.633a3.248,3.248,0,0,0-.533-.041A1.428,1.428,0,0,0-.418,9.5V14H-1.5V7.66H-.448l.018.732a1.688,1.688,0,0,1,1.512-.85,1.107,1.107,0,0,1,.48.082Zm3.9,0a3.248,3.248,0,0,0-.533-.041A1.428,1.428,0,0,0,3.486,9.5V14H2.4V7.66H3.457l.018.732a1.688,1.688,0,0,1,1.512-.85,1.107,1.107,0,0,1,.48.082ZM7.485,14H6.4V7.66H7.485ZM6.313,5.979a.647.647,0,0,1,.161-.445.6.6,0,0,1,.478-.182.614.614,0,0,1,.48.182.64.64,0,0,1,.164.445.619.619,0,0,1-.164.439.626.626,0,0,1-.48.176.616.616,0,0,1-.478-.176A.626.626,0,0,1,6.313,5.979Zm2.463,4.793A3.745,3.745,0,0,1,9.142,9.1a2.732,2.732,0,0,1,1.02-1.148,2.775,2.775,0,0,1,1.491-.4,2.674,2.674,0,0,1,2.095.9,3.449,3.449,0,0,1,.8,2.385V10.9a3.777,3.777,0,0,1-.354,1.661,2.692,2.692,0,0,1-1.014,1.146,2.807,2.807,0,0,1-1.515.41,2.667,2.667,0,0,1-2.089-.9,3.432,3.432,0,0,1-.8-2.373Zm1.09.129a2.712,2.712,0,0,0,.489,1.693,1.658,1.658,0,0,0,2.622-.009,2.966,2.966,0,0,0,.486-1.813,2.708,2.708,0,0,0-.5-1.69,1.574,1.574,0,0,0-1.315-.647,1.557,1.557,0,0,0-1.295.639A2.944,2.944,0,0,0,9.866,10.9Zm8.949-2.268a3.248,3.248,0,0,0-.533-.041,1.428,1.428,0,0,0-1.447.908V14H15.751V7.66h1.055l.018.732a1.688,1.688,0,0,1,1.512-.85,1.107,1.107,0,0,1,.48.082Z" transform="translate(298 277)" opacity="0.6"/></g></svg>