<svg id="Are_you_sad_or_depressed_" data-name="Are you sad or depressed?" xmlns="http://www.w3.org/2000/svg" width="250" height="140" viewBox="0 0 250 140">
  <rect id="Rectangle_4283" data-name="Rectangle 4283" width="250" height="140" fill="#614b33"/>
  <g id="Group_12968" data-name="Group 12968" transform="translate(74.084 14.939)">
    <g id="Group_12676" data-name="Group 12676" transform="translate(18.518 44.313)">
      <path id="Path_12714" data-name="Path 12714" d="M223.218,30.483c14.636,9.6,27.674,9.9,35.489,5.879A29.38,29.38,0,0,0,200.1,39.5q0,.434.014.864C206.721,40.467,218.065,36.992,223.218,30.483Z" transform="translate(-199.862 -30.222)" fill="#393939"/>
      <path id="Path_12716" data-name="Path 12716" d="M258.623,54.623c-7.795,4.012-20.8,3.712-35.395-5.863-5.139,6.492-16.454,9.958-23.04,9.857.02.648.007,7.442.1,8.351a29.3,29.3,0,0,0,58.339-.638c.062-.654.106-1.6.1-2.557C258.724,62.76,258.725,55.609,258.623,54.623Z" transform="translate(-199.882 -50.114)" fill="#ffd3a3"/>
    </g>
    <g id="Group_12680" data-name="Group 12680" transform="translate(40.457 73.652)">
      <path id="Path_12547" data-name="Path 12547" d="M225.37,422.065a1.361,1.361,0,0,1-.967-.4,6.6,6.6,0,0,0-9.342,0,1.365,1.365,0,1,1-1.934-1.927,9.326,9.326,0,0,1,13.209,0,1.365,1.365,0,0,1-.967,2.328Z" transform="translate(-212.73 -416.995)" fill="#161617"/>
    </g>
    <g id="Group_12681" data-name="Group 12681" transform="translate(30.342 59.906)">
      <path id="Path_12548" data-name="Path 12548" d="M160.245,343.257a6.254,6.254,0,0,1-4.365-1.749,1.365,1.365,0,0,1,1.9-1.959,3.574,3.574,0,0,0,4.932,0,1.365,1.365,0,0,1,1.9,1.962A6.267,6.267,0,0,1,160.245,343.257Z" transform="translate(-155.466 -339.164)" fill="#161617"/>
    </g>
    <g id="Group_12682" data-name="Group 12682" transform="translate(55.014 59.906)">
      <path id="Path_12549" data-name="Path 12549" d="M299.931,343.256a6.269,6.269,0,0,1-4.368-1.746,1.365,1.365,0,1,1,1.9-1.962,3.582,3.582,0,0,0,4.939,0,1.365,1.365,0,0,1,1.9,1.962,6.268,6.268,0,0,1-4.368,1.746Z" transform="translate(-295.147 -339.164)" fill="#161617"/>
    </g>
  </g>
</svg>
