<svg xmlns="http://www.w3.org/2000/svg" width="250" height="140" viewBox="0 0 250 140">
  <g id="Aspects_of_depression" data-name="Aspects of depression" transform="translate(-512 -1182)">
    <g id="Group_13001" data-name="Group 13001">
      <rect id="NoPath_-_Copy_54_" data-name="NoPath - Copy (54)" width="250" height="140" transform="translate(512 1182)" fill="#2d4632"/>
      <g id="Group_12698" data-name="Group 12698" transform="translate(534 1197)">
        <circle id="Ellipse_4506" data-name="Ellipse 4506" cx="21" cy="21" r="21" transform="translate(0 0)" fill="#c8c84d"/>
        <circle id="Ellipse_4509" data-name="Ellipse 4509" cx="21" cy="21" r="21" transform="translate(111 0)" fill="#574db5"/>
        <circle id="Ellipse_4507" data-name="Ellipse 4507" cx="21" cy="21" r="21" transform="translate(55 68)" fill="#f26464"/>
        <circle id="Ellipse_4508" data-name="Ellipse 4508" cx="21" cy="21" r="21" transform="translate(165 68)" fill="#5dbb89"/>
        <rect id="Rectangle_4165" data-name="Rectangle 4165" width="166" height="2" rx="1" transform="translate(20 53.053)" fill="#cce4ff"/>
        <rect id="Rectangle_4166" data-name="Rectangle 4166" width="2" height="10" rx="1" transform="translate(20 45.283)" fill="#cce4ff"/>
        <rect id="Rectangle_4167" data-name="Rectangle 4167" width="2" height="11" rx="1" transform="translate(74 53.743)" fill="#cce4ff"/>
        <rect id="Rectangle_4169" data-name="Rectangle 4169" width="2" height="10" rx="1" transform="translate(131 44.34)" fill="#cce4ff"/>
        <rect id="Rectangle_4168" data-name="Rectangle 4168" width="2" height="11" rx="1" transform="translate(184 53.743)" fill="#cce4ff"/>
        <path id="Path_12700" data-name="Path 12700" d="M2.311,1.053a.807.807,0,0,1,1.393,0L5.122,3.485a.807.807,0,0,1-.7,1.213H1.589a.807.807,0,0,1-.7-1.213Z" transform="translate(18 43.472)" fill="#cce4ff"/>
        <path id="Path_12702" data-name="Path 12702" d="M2.311,1.053a.807.807,0,0,1,1.393,0L5.122,3.485a.807.807,0,0,1-.7,1.213H1.589a.807.807,0,0,1-.7-1.213Z" transform="translate(129 43.472)" fill="#cce4ff"/>
        <path id="Path_12701" data-name="Path 12701" d="M2.31,4.3A.806.806,0,0,0,3.7,4.3L5.122,1.866a.807.807,0,0,0-.7-1.213H1.588a.807.807,0,0,0-.7,1.213Z" transform="translate(72 61.454)" fill="#cce4ff"/>
        <path id="Path_12703" data-name="Path 12703" d="M2.31,4.3A.806.806,0,0,0,3.7,4.3L5.122,1.866a.807.807,0,0,0-.7-1.213H1.588a.807.807,0,0,0-.7,1.213Z" transform="translate(182 61.454)" fill="#cce4ff"/>
      </g>
    </g>
  </g>
</svg>
