<svg id="Common_negative_thoughts_" data-name="Common negative thoughts " xmlns="http://www.w3.org/2000/svg" width="250" height="140" viewBox="0 0 250 140">
  <rect id="NoPath_-_Copy_54_" data-name="NoPath - Copy (54)" width="250" height="140" fill="#584467"/>
  <g id="Group_12995" data-name="Group 12995">
    <g id="Group_12993" data-name="Group 12993" transform="translate(30.912 -1.766)">
      <g id="thoughts" transform="translate(120.163 9.328)">
        <g id="Group_12970" data-name="Group 12970" transform="translate(2.983)">
          <g id="Group_12969" data-name="Group 12969">
            <path id="Path_13388" data-name="Path 13388" d="M84.64,16.442A8.61,8.61,0,0,0,73.166,4.121a13.217,13.217,0,0,0-22.331,12.6,9.387,9.387,0,0,0,7.9,17.01A9.423,9.423,0,0,0,65.586,36.7a9.32,9.32,0,0,0,4.635-1.224A12.033,12.033,0,0,0,84.64,16.442ZM76.25,34.363a9.242,9.242,0,0,1-5.257-1.63,1.368,1.368,0,0,0-1.566.012,6.6,6.6,0,0,1-3.841,1.223A6.677,6.677,0,0,1,60.21,31.23a1.368,1.368,0,0,0-1.783-.383A6.65,6.65,0,1,1,52.972,18.78a1.368,1.368,0,0,0,.83-1.787,10.479,10.479,0,0,1,18.056-10.2A1.368,1.368,0,0,0,73.816,7a5.872,5.872,0,0,1,7.942,8.634,1.368,1.368,0,0,0,.141,2.047A9.295,9.295,0,0,1,76.25,34.363Z" transform="translate(-45.754 0)" fill="#a3b5b3"/>
          </g>
        </g>
        <g id="Group_12972" data-name="Group 12972" transform="translate(0 50.436)">
          <g id="Group_12971" data-name="Group 12971" transform="translate(0 0)">
            <ellipse id="Ellipse_4560" data-name="Ellipse 4560" cx="2" cy="1.5" rx="2" ry="1.5" transform="translate(-0.075 0.002)" fill="#a3b5b3"/>
          </g>
        </g>
        <g id="Group_12974" data-name="Group 12974" transform="translate(3.821 39.4)">
          <g id="Group_12973" data-name="Group 12973">
            <ellipse id="Ellipse_4561" data-name="Ellipse 4561" cx="2.271" cy="2.271" rx="2.271" ry="2.271" fill="#a3b5b3"/>
          </g>
        </g>
      </g>
      <g id="thoughts-2" data-name="thoughts" transform="translate(52.17 12.036)">
        <g id="Group_12976" data-name="Group 12976" transform="translate(0 0)">
          <g id="Group_12975" data-name="Group 12975">
            <path id="Path_13389" data-name="Path 13389" d="M49.4,16.442A8.61,8.61,0,0,1,60.871,4.121,13.217,13.217,0,0,1,83.2,16.725a9.387,9.387,0,0,1-7.9,17.01A9.423,9.423,0,0,1,68.451,36.7a9.32,9.32,0,0,1-4.635-1.224A12.033,12.033,0,0,1,49.4,16.442Zm8.389,17.921a9.242,9.242,0,0,0,5.257-1.63,1.368,1.368,0,0,1,1.566.012,6.6,6.6,0,0,0,3.841,1.223,6.677,6.677,0,0,0,5.376-2.738,1.368,1.368,0,0,1,1.783-.383A6.65,6.65,0,1,0,81.065,18.78a1.368,1.368,0,0,1-.83-1.787,10.479,10.479,0,0,0-18.056-10.2A1.368,1.368,0,0,1,60.221,7a5.872,5.872,0,0,0-7.942,8.634,1.368,1.368,0,0,1-.141,2.047,9.295,9.295,0,0,0,5.649,16.677Z" transform="translate(-45.754 0)" fill="#a3b5b3"/>
          </g>
        </g>
        <g id="Group_12978" data-name="Group 12978" transform="translate(46.703 50.553)">
          <g id="Group_12977" data-name="Group 12977">
            <ellipse id="Ellipse_4562" data-name="Ellipse 4562" cx="1.354" cy="1.354" rx="1.354" ry="1.354" fill="#a3b5b3"/>
          </g>
        </g>
        <g id="Group_12980" data-name="Group 12980" transform="translate(37.149 39.4)">
          <g id="Group_12979" data-name="Group 12979" transform="translate(0)">
            <ellipse id="Ellipse_4563" data-name="Ellipse 4563" cx="2.271" cy="2.271" rx="2.271" ry="2.271" fill="#a3b5b3"/>
          </g>
        </g>
      </g>
      <g id="thoughts-3" data-name="thoughts" transform="translate(13.932 65.285) rotate(-13)">
        <g id="Group_12982" data-name="Group 12982" transform="matrix(0.966, 0.259, -0.259, 0.966, 9.602, 0)">
          <g id="Group_12981" data-name="Group 12981" transform="translate(0 0)">
            <path id="Path_13390" data-name="Path 13390" d="M3.643,16.442A8.61,8.61,0,0,1,15.117,4.121a13.217,13.217,0,0,1,22.331,12.6,9.387,9.387,0,0,1-7.9,17.01A9.423,9.423,0,0,1,22.7,36.7a9.32,9.32,0,0,1-4.635-1.224A12.033,12.033,0,0,1,3.643,16.442Zm8.389,17.921a9.242,9.242,0,0,0,5.257-1.63,1.368,1.368,0,0,1,1.566.012A6.6,6.6,0,0,0,22.7,33.968a6.677,6.677,0,0,0,5.376-2.738,1.368,1.368,0,0,1,1.783-.383A6.65,6.65,0,1,0,35.311,18.78a1.368,1.368,0,0,1-.83-1.787,10.479,10.479,0,0,0-18.056-10.2A1.368,1.368,0,0,1,14.467,7a5.872,5.872,0,0,0-7.942,8.634,1.368,1.368,0,0,1-.141,2.047,9.295,9.295,0,0,0,5.649,16.677Z" fill="#a3b5b3"/>
          </g>
        </g>
        <g id="Group_12984" data-name="Group 12984" transform="matrix(0.891, -0.454, 0.454, 0.891, 63.606, 30.299)">
          <g id="Group_12983" data-name="Group 12983">
            <ellipse id="Ellipse_4564" data-name="Ellipse 4564" cx="1.354" cy="1.354" rx="1.354" ry="1.354" fill="#a3b5b3"/>
          </g>
        </g>
        <g id="Group_12986" data-name="Group 12986" transform="translate(49.128 24.443)">
          <g id="Group_12985" data-name="Group 12985" transform="matrix(0.891, -0.454, 0.454, 0.891, 0, 2.062)">
            <ellipse id="Ellipse_4565" data-name="Ellipse 4565" cx="2.271" cy="2.271" rx="2.271" ry="2.271" fill="#a3b5b3"/>
          </g>
        </g>
      </g>
    </g>
    <g id="humanpictos_1_" data-name="humanpictos (1)" transform="translate(123.838 74.927)">
      <g id="Group_12988" data-name="Group 12988" transform="translate(-0.041 33.122)">
        <path id="Path_13391" data-name="Path 13391" d="M163.085,155.706l-5.289-1.863-5.332,1.863V178.4a5.332,5.332,0,0,0,10.664,0V155.7c-.015,0-.028,0-.043,0Z" transform="translate(-152.464 -153.843)" fill="#ffb69e"/>
      </g>
      <g id="Group_12990" data-name="Group 12990" transform="translate(0.002 13.799)">
        <path id="Path_13394" data-name="Path 13394" d="M202.719,62.9a7.292,7.292,0,0,0-6.9-5.05c-34.351-.263-18.508-.086-30.5-.142A12.746,12.746,0,0,0,152.505,70.26c0,.009,0,.018,0,.027V81.841l10.664,0V73.888l2.428.738V108.8h28.243V74.261c5.6-2.838,5.626-2.764,6.256-3.227A7.292,7.292,0,0,0,202.719,62.9Z" transform="translate(-152.505 -57.697)" fill="#4385cb"/>
      </g>
      <ellipse id="Ellipse_4566" data-name="Ellipse 4566" cx="11.051" cy="11.051" rx="11.051" ry="11.051" transform="translate(17.49 0)" fill="#ffa68a"/>
      <g id="XMLID_7140_" transform="translate(5.853 19.241)">
        <path id="Path_13395" data-name="Path 13395" d="M206.056,82.856l-5.675,2.851-16.529-5.021a5.332,5.332,0,0,0-3.1,10.2l18.568,5.64a5.331,5.331,0,0,0,3.944-.337l6.851-3.441Z" transform="translate(-176.97 -80.454)" fill="#ffa68a"/>
      </g>
    </g>
    <g id="Group_12994" data-name="Group 12994" transform="translate(161.387 52.338)">
      <rect id="Rectangle_4285" data-name="Rectangle 4285" width="1.825" height="9.582" transform="translate(4.826 11.312) rotate(-43)" fill="#e94b4c"/>
      <rect id="Rectangle_4286" data-name="Rectangle 4286" width="1.825" height="9.582" transform="translate(7.397 6.478) rotate(-43)" fill="#e94b4c"/>
      <rect id="Rectangle_4287" data-name="Rectangle 4287" width="1.825" height="9.582" transform="translate(9.753 2.737) rotate(-43)" fill="#e94b4c"/>
      <path id="Path_13396" data-name="Path 13396" d="M0,5.237l1.671.722L1.839,0H.013Z" transform="translate(0 10.366) rotate(-77)" fill="#e94b4c"/>
      <path id="Path_13397" data-name="Path 13397" d="M0,5.237l1.671.722L1.839,0H.013Z" transform="translate(2.571 5.532) rotate(-77)" fill="#e94b4c"/>
      <path id="Path_13398" data-name="Path 13398" d="M0,5.237l1.671.722L1.839,0H.013Z" transform="translate(4.927 1.791) rotate(-77)" fill="#e94b4c"/>
    </g>
  </g>
</svg>
