<svg xmlns="http://www.w3.org/2000/svg" width="251.331" height="140.074" viewBox="0 0 251.331 140.074">
  <g id="Facing_your_worst_fear" data-name="Facing your worst fear" transform="translate(-1051.312 -959)">
    <rect id="NoPath_-_Copy_54_" data-name="NoPath - Copy (54)" width="250" height="140" transform="translate(1052 959)" fill="#d5f2ff"/>
    <g id="trampoline" transform="translate(1066 978.048)">
      <path id="Path_12868" data-name="Path 12868" d="M101.955,491.644l.688-27.566c-6.416,0-6.416,4.4-12.831,4.4s-6.416-4.4-12.831-4.4-4.154,3.51-10.57,3.51-5.368-3.51-11.783-3.51c-1.969,0-2.183,8.226-7.568,9.067-11.272,1.757-26.934-.6,4.016,18.5Z" transform="translate(134 -370.618)" fill="#73c8f0"/>
      <path id="Path_12859" data-name="Path 12859" d="M101.955,491.644l.688-27.566c-6.416,0-6.416,4.4-12.831,4.4s-6.416-4.4-12.831-4.4-6.415,4.4-12.831,4.4-6.415-4.4-12.83-4.4-6.415,4.4-12.83,4.4-6.415-4.4-12.83-4.4-6.415,4.4-12.83,4.4-6.415-4.4-12.83-4.4l-.688,27.566Z" transform="translate(-14 -370.618)" fill="#73c8f0"/>
      <path id="Path_12867" data-name="Path 12867" d="M101.955,491.644l.688-27.566c-6.416,0-6.416,4.4-12.831,4.4s-6.416-4.4-12.831-4.4-6.415,4.4-12.831,4.4-6.415-4.4-12.83-4.4-6.415,4.4-12.83,4.4-6.415-4.4-12.83-4.4-6.415,4.4-12.83,4.4-6.415-4.4-12.83-4.4l-.688,27.566Z" transform="translate(88 -370.618)" fill="#73c8f0"/>
      <g id="Group_12749" data-name="Group 12749" transform="translate(0 0.531)">
        <g id="Group_12746" data-name="Group 12746" transform="translate(30.317 0)">
          <path id="Path_12860" data-name="Path 12860" d="M161.875,22.133l-6.085,4.913a7.457,7.457,0,1,0,13.086-7.154Z" transform="translate(-154.875 -16.011)" fill="#ffb69e"/>
          <path id="Path_12861" data-name="Path 12861" d="M155.105,1.446a7.457,7.457,0,0,0-2.966,10.12l13.086-7.154a7.457,7.457,0,0,0-10.12-2.966Z" transform="translate(-151.224 -0.531)" fill="#64afff"/>
        </g>
        <g id="Group_12747" data-name="Group 12747" transform="translate(0 7.945)">
          <path id="Path_12862" data-name="Path 12862" d="M15.122,47.319l7,3.632L15.511,68.24,24.8,72.821l9.51-.779,5.955-15.595a5,5,0,0,0-2.887-6.453c-8.756-3.318-8.388-3.259-9.112-3.407L16.616,40.54a3.353,3.353,0,0,0-3.168.042L1.729,47.069a3.353,3.353,0,0,0,3.247,5.866Z" transform="translate(0 -40.163)" fill="#ffb69e"/>
          <path id="Path_12863" data-name="Path 12863" d="M75.5,259.1l-3.444,3.479,1.224,1.689-8.6,16.045a4.337,4.337,0,0,0,1.573,5.8,4.271,4.271,0,0,0,5.907-1.677l9.921-18.506a4.27,4.27,0,0,0-.319-4.541l-.948-1.294Z" transform="translate(-51.292 -215.209)" fill="#ffb69e"/>
          <path id="Path_12864" data-name="Path 12864" d="M149.984,259.945l-5.114.191-3.2,3.118,1.241,1.533L136.171,281.5a4.271,4.271,0,0,0,7.921,3.2l7.685-19.043a4.271,4.271,0,0,0-.641-4.286Z" transform="translate(-108.623 -215.884)" fill="#ffb69e"/>
        </g>
        <g id="Group_12748" data-name="Group 12748" transform="translate(13.561 36.022)">
          <path id="Path_12865" data-name="Path 12865" d="M74.846,199.507l8.756-2.481-5.343-7.294,1.385.529,7.487,9.247,8.31-3.309-7.951-9.82.9-2.362-18.8-3.8-1.4,3.663a8.346,8.346,0,0,0,1.037,7.877Z" transform="translate(-67.642 -180.214)" fill="#414b82"/>
        </g>
        <circle id="Ellipse_4520" data-name="Ellipse 4520" cx="3.577" cy="3.577" r="3.577" transform="translate(32.658 3.881)" fill="#4699f2"/>
      </g>
      <path id="Path_12866" data-name="Path 12866" d="M53.591,394.429H0v5.9H53.591c2.153,0,3.9-1.32,3.9-2.948S55.744,394.429,53.591,394.429Z" transform="translate(-14.028 -314.932)" fill="#965028"/>
    </g>
  </g>
</svg>
