<svg xmlns="http://www.w3.org/2000/svg" width="250" height="140" viewBox="0 0 250 140">
  <g id="List_of_negative_beliefs" data-name="List of negative beliefs" transform="translate(-782 -959)">
    <rect id="NoPath_-_Copy_54_" data-name="NoPath - Copy (54)" width="250" height="140" transform="translate(782 959)" fill="#456b6d"/>
    <g id="Group_12999" data-name="Group 12999" transform="translate(261)">
      <g id="Group_12731" data-name="Group 12731" transform="translate(355 -756)">
        <path id="XMLID_1557_" d="M10,50h93.178v83.472H10Z" transform="translate(208.279 1681.279)" fill="#91def5"/>
        <path id="XMLID_1556_" d="M50,91h73.766v63.575H50Z" transform="translate(177.986 1650.228)" fill="#dff6fc"/>
        <path id="Path_11660" data-name="Path 11660" d="M-16858.793-8323.739c-6.115,0-7.7,1.357-7.7,5.155h47.721s-.818-5.606-6.691-5.155c-4,0-10.643-1.2-17.119-1.2A122.244,122.244,0,0,0-16858.793-8323.739Z" transform="translate(17106.654 10123.386)" fill="#ff7d7d"/>
        <g id="Group_12292" data-name="Group 12292" transform="translate(238.842 1744.03)">
          <path id="Path_11551" data-name="Path 11551" d="M220.435,28.017c12.874,8.445,24.342,8.71,31.216,5.171A25.843,25.843,0,0,0,200.1,35.95q0,.382.013.76C205.924,36.8,215.9,33.742,220.435,28.017Z" transform="translate(-200.102 -10)" fill="#393939"/>
          <path id="Path_11552" data-name="Path 11552" d="M251.669,60.081c-6.874,3.538-18.343,3.273-31.216-5.171-4.532,5.725-14.511,8.782-20.32,8.693a25.844,25.844,0,0,0,51.676-.877A26.141,26.141,0,0,0,251.669,60.081Z" transform="translate(-200.121 -36.892)" fill="#ffd3a3"/>
          <path id="Path_11569" data-name="Path 11569" d="M-15479.218-8652.605a11.269,11.269,0,0,1,11.089,0" transform="translate(15499.002 8696.408)" fill="none" stroke="rgba(0,0,0,0.8)" stroke-linecap="round" stroke-width="2"/>
          <path id="Path_11795" data-name="Path 11795" d="M229.061,65.95l-3.717-1.859a.93.93,0,0,0-.832,1.663l3.717,1.859a.93.93,0,0,0,.832-1.663Z" transform="translate(-193.79 -37.646)" fill="#332a20"/>
          <path id="Path_11796" data-name="Path 11796" d="M.931,3.717a.932.932,0,0,0,.414-.1L5.062,1.761A.929.929,0,0,0,4.231.1L.514,1.957a.929.929,0,0,0,.417,1.76Z" transform="translate(12.795 26.822) rotate(-17)" fill="#332a20"/>
          <path id="Path_11797" data-name="Path 11797" d="M99.651,129.826a1.826,1.826,0,1,0-1.826,1.826A1.828,1.828,0,0,0,99.651,129.826Z" transform="translate(-79.783 -98.261)" fill="#332a20"/>
          <path id="Path_11798" data-name="Path 11798" d="M99.651,129.826a1.826,1.826,0,1,0-1.826,1.826A1.828,1.828,0,0,0,99.651,129.826Z" transform="translate(-66.484 -97.628)" fill="#332a20"/>
        </g>
        <path id="Path_11661" data-name="Path 11661" d="M-16858.771-8323.651c-6.562,0-8.268,1.458-8.268,5.535.973,0-2.787,12.063-1.1,12.063,11.139,0,43.746,2.127,53.664,0,2.07-.443-1.332-12.063-1.332-12.063s-.877-6.02-7.184-5.535c-4.291,0-11.426-1.29-18.379-1.29A131.293,131.293,0,0,0-16858.771-8323.651Z" transform="translate(17158.984 10144.407)" fill="#ff7d7d"/>
        <g id="Group_12293" data-name="Group 12293" transform="translate(290.53 1761.047)">
          <path id="Union_162" data-name="Union 162" d="M.012,28.677a33.2,33.2,0,0,0,12.9-2.938,33.209,33.209,0,0,1-12.9,2.937Q0,28.271,0,27.86a27.744,27.744,0,0,1,55.342-2.966c-7.38,3.8-19.692,3.515-33.513-5.552h0C35.648,28.41,47.96,28.694,55.34,24.9a27.816,27.816,0,0,1-27.534,30.7h-.064A27.772,27.772,0,0,1,.012,28.677Z" transform="translate(0 0)" fill="#393939"/>
        </g>
        <g id="Group_12325" data-name="Group 12325" transform="translate(336.103 1738.109)">
          <path id="Path_11112" data-name="Path 11112" d="M4.693,1.973c.8-.769.031-2.56-.78-1.781A12.871,12.871,0,0,0,.033,8.235c-.356,3.591,2.3,5.9,2.594,9.268A9.477,9.477,0,0,1,.553,23.771c-.732.909.365,2.364,1.093,1.457A12.217,12.217,0,0,0,3.9,15.442c-.669-3.576-3.219-5.3-1.84-9.376A10.716,10.716,0,0,1,4.693,1.973Z" transform="translate(3.991 0) rotate(9)" fill="#dff6fc"/>
          <path id="Path_11113" data-name="Path 11113" d="M4.694,1.973c.8-.769.031-2.56-.78-1.781A12.88,12.88,0,0,0,.033,8.235c-.355,3.591,2.3,5.9,2.595,9.268A9.477,9.477,0,0,1,.553,23.771c-.731.909.365,2.364,1.093,1.457A12.217,12.217,0,0,0,3.9,15.442c-.668-3.576-3.219-5.3-1.84-9.376A10.716,10.716,0,0,1,4.694,1.973Z" transform="translate(12.943 1.418) rotate(9)" fill="#dff6fc"/>
          <path id="Path_11114" data-name="Path 11114" d="M4.693,1.973c.8-.769.031-2.56-.779-1.781A12.876,12.876,0,0,0,.033,8.235c-.356,3.591,2.3,5.9,2.594,9.268A9.473,9.473,0,0,1,.552,23.771c-.731.909.366,2.364,1.093,1.457A12.223,12.223,0,0,0,3.9,15.442c-.668-3.576-3.22-5.3-1.84-9.376A10.7,10.7,0,0,1,4.693,1.973Z" transform="translate(21.893 2.835) rotate(9)" fill="#dff6fc"/>
        </g>
      </g>
    </g>
  </g>
</svg>
