<svg xmlns="http://www.w3.org/2000/svg" xmlns:xlink="http://www.w3.org/1999/xlink" width="250" height="140" viewBox="0 0 250 140">
  <defs>
    <clipPath id="clip-path">
      <rect id="NoPath_-_Copy_54_" data-name="NoPath - Copy (54)" width="177" height="88" transform="translate(523 985.683)" fill="#beb68d"/>
    </clipPath>
  </defs>
  <g id="List_of_negative_behaviors" data-name="List of negative behaviors" transform="translate(-512 -959)">
    <rect id="NoPath_-_Copy_54_2" data-name="NoPath - Copy (54)" width="250" height="140" transform="translate(512 959)" fill="#d2fdff"/>
    <rect id="NoPath_-_Copy_54_3" data-name="NoPath - Copy (54)" width="250" height="21" transform="translate(512 1078)" fill="#3c8548"/>
    <g id="Mask_Group_9751" data-name="Mask Group 9751" transform="translate(35 25.317)" clip-path="url(#clip-path)">
      <g id="anger" transform="translate(550.935 992.984)">
        <path id="Path_12738" data-name="Path 12738" d="M26.691,164,8.882,145.788a5.818,5.818,0,0,1-.811-7.092l14.452-23.755a5.818,5.818,0,1,1,9.941,6.048l-12.1,19.894L35.01,155.861A5.818,5.818,0,0,1,26.691,164Z" transform="translate(-7.223 -79.303)" fill="#ffb69e"/>
        <path id="Path_12739" data-name="Path 12739" d="M59.608,325.507a6.994,6.994,0,0,1-5.008-8.529l8.672-33.335L61.763,256a6.994,6.994,0,1,1,13.967-.763L77.3,283.967a7,7,0,0,1-.215,2.142L68.138,320.5A6.994,6.994,0,0,1,59.608,325.507Z" transform="translate(-40.565 -175.815)" fill="#5f6e9b"/>
        <path id="Path_12740" data-name="Path 12740" d="M161.483,322.944a7,7,0,0,1-6.933-6.141L150.268,282l-9.425-28.131a6.994,6.994,0,0,1,13.263-4.444l9.649,28.8a6.979,6.979,0,0,1,.31,1.368l4.368,35.5A7,7,0,0,1,161.483,322.944Z" transform="translate(-101.454 -173.002)" fill="#414b82"/>
        <path id="Path_12741" data-name="Path 12741" d="M38.035,135.836l9.032-14.845a5.818,5.818,0,1,0-9.941-6.048l-9.253,15.208Z" transform="translate(-21.826 -79.304)" fill="#5d868b"/>
        <path id="Path_12742" data-name="Path 12742" d="M102.476,108.922v-3.941c-5.736.517-15.624-2.818-20.577-4.671a9.034,9.034,0,0,0-3.013-1.177h0a8.667,8.667,0,0,0-3.131-.012L60.5,101.854a8.69,8.69,0,0,0-7.022,10.086l7.861,43.888,32.362-5.8-5.15-28.755a7.972,7.972,0,0,1,2.974-7.727C95.945,110.152,102.476,108.922,102.476,108.922Z" transform="translate(-39.835 -69.996)" fill="#4f7478"/>
        <g id="Group_12733" data-name="Group 12733" transform="translate(14.536 0)">
          <ellipse id="Ellipse_4517" data-name="Ellipse 4517" cx="12.864" cy="12.864" rx="12.864" ry="12.864" transform="translate(0)" fill="#ffb69e"/>
          <path id="Path_12743" data-name="Path 12743" d="M128.776,154.622l-23.185-2.158A5.829,5.829,0,0,1,101,149.423L87.548,124.428A5.828,5.828,0,1,1,97.812,118.9l11.97,22.243,20.074,1.868a5.828,5.828,0,0,1-1.08,11.606Z" transform="translate(-78.067 -81.912)" fill="#ffb69e"/>
        </g>
        <path id="Path_12744" data-name="Path 12744" d="M94.661,137.645l10.411-5.251L97.812,118.9a5.828,5.828,0,1,0-10.265,5.524Z" transform="translate(-63.531 -81.911)" fill="#5d868b"/>
        <path id="Path_12745" data-name="Path 12745" d="M391.317,142.05a6.353,6.353,0,0,1-3.385-8.322l8.906-21.115-21.61-13.987a6.352,6.352,0,0,1,6.9-10.666l26.081,16.881a6.353,6.353,0,0,1,2.4,7.8l-10.976,26.022A6.352,6.352,0,0,1,391.317,142.05Z" transform="translate(-265.403 -61.478)" fill="#ffb69e"/>
        <path id="Path_12746" data-name="Path 12746" d="M336.236,310.373l-2.269-36.6a7.21,7.21,0,0,1,.36-2.736l9.946-29.684a7.209,7.209,0,1,1,13.671,4.58l-9.5,28.352,2.183,35.192a7.209,7.209,0,1,1-14.391.892Z" transform="translate(-238.267 -167.193)" fill="#5f6e9b"/>
        <path id="Path_12747" data-name="Path 12747" d="M372.276,199.194l-8.938-34.36,1.522-28.343L355.7,90.708a10.32,10.32,0,0,0-12.387-8.041l-12.394,2.792a10.32,10.32,0,0,0-7.835,12.178l9.631,46.114,17.55-3.962-1.386,25.38a7.214,7.214,0,0,0,.221,2.208l9.221,35.447a7.209,7.209,0,0,0,13.954-3.63Z" transform="translate(-230.426 -58.277)" fill="#414b82"/>
        <path id="Path_12748" data-name="Path 12748" d="M364.872,136.49,355.7,90.707a10.32,10.32,0,0,0-12.387-8.041l-12.394,2.792a10.321,10.321,0,0,0-7.835,12.178l9.631,46.114Z" transform="translate(-230.426 -58.276)" fill="#c63131"/>
        <path id="Path_12749" data-name="Path 12749" d="M198.223,119.269l21.894,12.924a6.363,6.363,0,0,0,6.009.247l27.892-13.509a6.364,6.364,0,0,0-5.548-11.455L223.648,119.5l-18.956-11.19a6.364,6.364,0,0,0-6.47,10.96Z" transform="translate(-140.074 -75.55)" fill="#ffb69e"/>
        <path id="Path_12750" data-name="Path 12750" d="M340.214,112.745l4.641,11.894,11.784-5.707a6.364,6.364,0,0,0-5.548-11.455Z" transform="translate(-242.694 -75.55)" fill="#df4c4c"/>
        <ellipse id="Ellipse_4518" data-name="Ellipse 4518" cx="14.046" cy="14.046" rx="14.046" ry="14.046" transform="translate(78.948 1.492)" fill="#ffb69e"/>
      </g>
    </g>
    <path id="Path_11015" data-name="Path 11015" d="M182.033,48.523,179.5,62.305l5.278-1.025-3.39,12.476.576.131,5.689-14.455-5.925.726,2.844-11.177Z" transform="translate(545.238 897.595) rotate(17)" fill="#df4c4c"/>
    <path id="Path_11016" data-name="Path 11016" d="M189.682,82.439l10.254-8.22-4.657-1.957,6.786-7.01-1.672-1.4L192.741,72.9l4.307,1.465L189.314,82.1Z" transform="translate(543.32 890.742) rotate(17)" fill="#df4c4c"/>
    <path id="Path_11017" data-name="Path 11017" d="M166.223,69.034l1.929,10.593.477-.106-.909-12.908-4.193,2.671-1.873-9.422-2.076.568L162.624,71.7Z" transform="translate(553.984 895.632) rotate(17)" fill="#df4c4c"/>
  </g>
</svg>
