<svg xmlns="http://www.w3.org/2000/svg" width="250" height="140" viewBox="0 0 250 140">
  <g id="List_of_mastery_activities." data-name="List of mastery activities." transform="translate(-1317 -730)">
    <rect id="Rectangle_4289" data-name="Rectangle 4289" width="250" height="140" transform="translate(1317 730)" fill="#effff0"/>
    <rect id="Rectangle_4290" data-name="Rectangle 4290" width="250" height="50" transform="translate(1317 820)" fill="#579c5b"/>
    <g id="stretching" transform="translate(1323.367 790.218)">
      <path id="Path_12491" data-name="Path 12491" d="M97.164,147.862H85.192L71.01,136.4,59.462,119.959a11.754,11.754,0,0,0-6.049-4.43l-19.555-6.245L22.329,106.2,6.793,93.575a4.2,4.2,0,0,0-5.842.545,4.031,4.031,0,0,0,.554,5.741l16.225,13.185a4.176,4.176,0,0,0,1.554.792l12.006,3.213L21.821,145.7a9.99,9.99,0,0,0,9.638,13.039h65.82a5.482,5.482,0,0,0,5.53-5.59A5.565,5.565,0,0,0,97.164,147.862Zm-49.306,0,6.348-21.147L64.5,141.488a4.114,4.114,0,0,0,.789.846l6.841,5.528Z" transform="translate(0 -91.025)" fill="#ffb69e"/>
      <path id="Path_12492" data-name="Path 12492" d="M97.164,147.862H85.192L71.01,136.4,59.462,119.959a11.754,11.754,0,0,0-6.049-4.43l-19.555-6.245L22.329,106.2,6.793,93.575a4.2,4.2,0,0,0-5.842.545,4.031,4.031,0,0,0,.554,5.741l16.225,13.185a4.176,4.176,0,0,0,1.554.792l12.006,3.213L21.821,145.7a9.99,9.99,0,0,0,9.638,13.039h65.82a5.482,5.482,0,0,0,5.53-5.59A5.565,5.565,0,0,0,97.164,147.862Zm-49.306,0,6.348-21.147L64.5,141.488a4.114,4.114,0,0,0,.789.846l6.841,5.528Z" transform="translate(0 -91.025)" fill="#f2a88f"/>
      <path id="Path_12493" data-name="Path 12493" d="M148.464,372.439H133.111a5.9,5.9,0,0,1-6.2,4.137l-20.233-1.832a10.083,10.083,0,0,0,10.039,8.57h31.752V372.439Z" transform="translate(-85.253 -315.603)" fill="#3c601e"/>
      <g id="Group_12654" data-name="Group 12654" transform="translate(0 1.614)">
        <path id="Path_12494" data-name="Path 12494" d="M276.86,214.928l11.548,16.443L276.86,214.928a11.724,11.724,0,0,0-4.839-3.968A11.724,11.724,0,0,1,276.86,214.928Z" transform="translate(-217.399 -187.608)" fill="#ffb69e"/>
        <path id="Path_12495" data-name="Path 12495" d="M325.116,344.431l6.841,5.528h0Z" transform="translate(-259.832 -294.737)" fill="#ffb69e"/>
        <path id="Path_12496" data-name="Path 12496" d="M189.377,183.684a11.891,11.891,0,0,0-1.21-.462l-19.555-6.245,19.555,6.245A11.8,11.8,0,0,1,189.377,183.684Z" transform="translate(-134.754 -160.332)" fill="#ffb69e"/>
        <path id="Path_12497" data-name="Path 12497" d="M54.206,126.714,64.5,141.488a4.114,4.114,0,0,0,.789.846l6.841,5.528h0l8.356,6.752a4.2,4.2,0,0,0,5.934-.677,4.094,4.094,0,0,0-.741-5.685L71.009,136.4,59.462,119.959a11.724,11.724,0,0,0-4.839-3.968,11.892,11.892,0,0,0-1.21-.462l-19.555-6.245L22.328,106.2,6.793,93.575a4.2,4.2,0,0,0-5.842.545,4.031,4.031,0,0,0,.554,5.741l16.225,13.185a4.176,4.176,0,0,0,1.554.792l12.006,3.213L21.821,145.7a9.741,9.741,0,0,0-.4,4.469L41.653,152a5.9,5.9,0,0,0,6.2-4.137h0Z" transform="translate(0 -92.639)" fill="#ffb69e"/>
      </g>
      <path id="Path_12498" data-name="Path 12498" d="M108.324,173.922l7.822,2.094-9.47,28.647a9.741,9.741,0,0,0-.4,4.469l20.233,1.832a5.9,5.9,0,0,0,6.2-4.137h0l6.348-21.147,4.476,6.426,5.938-5.837-5.157-7.344a11.755,11.755,0,0,0-6.049-4.43l-3.219-1.028a5.266,5.266,0,0,1-4.812,3.361,5.106,5.106,0,0,1-5.062-4.975,4.169,4.169,0,0,1,.2-1.475l-6.663-2.128L110.7,166.1Z" transform="translate(-84.856 -149.991)" fill="#82be50"/>
      <ellipse id="Ellipse_4491" data-name="Ellipse 4491" cx="9.601" cy="9.437" rx="9.601" ry="9.437" transform="translate(40.073 0)" fill="#ffb69e"/>
    </g>
    <g id="fitness" transform="translate(1475.488 766.301)">
      <path id="Path_12499" data-name="Path 12499" d="M199.233,206.876a2.7,2.7,0,0,1-.186-3.863l8.642-9.337-2.015-9a2.734,2.734,0,0,1,2.119-3.258,2.57,2.57,0,0,1,3.169,2.083l2.324,10.384a2.3,2.3,0,0,1-.513,2.428l-9.61,10.384A2.816,2.816,0,0,1,199.233,206.876Z" transform="translate(-182.464 -157.893)" fill="#e4987f"/>
      <path id="Path_12500" data-name="Path 12500" d="M255.662,193.248l5.393-.711-2.023-9.037a2.57,2.57,0,0,0-3.169-2.083,2.735,2.735,0,0,0-2.119,3.258Z" transform="translate(-230.533 -157.894)" fill="#285072"/>
      <path id="Path_12501" data-name="Path 12501" d="M186.674,214.16l-12.02-7.806a2.706,2.706,0,0,1-.7-3.912l5.9-7.806a2.814,2.814,0,0,1,3.893-.564,2.7,2.7,0,0,1,.574,3.826l-4.148,5.486,9.567,6.213a2.706,2.706,0,0,1,.788,3.789A2.812,2.812,0,0,1,186.674,214.16Z" transform="translate(-160.826 -168.499)" fill="#e4987f"/>
      <path id="Path_12502" data-name="Path 12502" d="M190.107,203.229l4.031-5.331a2.7,2.7,0,0,0-.574-3.826,2.814,2.814,0,0,0-3.893.564l-4.964,6.565Z" transform="translate(-170.641 -168.499)" fill="#285072"/>
      <g id="Group_12655" data-name="Group 12655" transform="translate(9.066 0)">
        <ellipse id="Ellipse_4492" data-name="Ellipse 4492" cx="4.805" cy="4.723" rx="4.805" ry="4.723" transform="translate(9.575 0.471)" fill="#e4987f"/>
        <path id="Path_12503" data-name="Path 12503" d="M175.162,2.041a2.14,2.14,0,0,0-4.277.126l.248,8.176-6.23.339h-7.627l-6.23-.339.248-8.176a2.14,2.14,0,0,0-4.277-.126l-.311,10.225a2.118,2.118,0,0,0,2.02,2.163l6.194.337V28.453l6.738,1.943H167.2V14.769l6.251-.34a2.118,2.118,0,0,0,2.02-2.163Z" transform="translate(-146.706 0)" fill="#e4987f"/>
      </g>
      <path id="Path_12504" data-name="Path 12504" d="M197.215,80.495h-1.474s0,.005,0,.008a2.41,2.41,0,0,1-4.82,0s0-.005,0-.008h-1.333l-5.674-.309V84.4l3.318.181V98.266l6.738,1.943h5.542V84.582l3.308-.18V80.19Z" transform="translate(-169.952 -69.814)" fill="#688caa"/>
      <path id="Path_12505" data-name="Path 12505" d="M124.719,74.494h-3.643V13.074H81.462V74.494H77.819V11.283a1.806,1.806,0,0,1,1.821-1.79H122.9a1.806,1.806,0,0,1,1.821,1.79V74.494Z" transform="translate(-77.819 -8.265)" fill="#586265"/>
    </g>
  </g>
</svg>
