<svg xmlns="http://www.w3.org/2000/svg" width="32" height="36" viewBox="0 0 32 36"><g transform="translate(-1395 -4739)"><g transform="matrix(0.017, 1, -1, 0.017, 1429.622, 4738.525)"><path d="M.891,19.032c.707.035,1.49-4.2,1.75-9.453S2.541.035,1.835,0,.345,4.2.085,9.452.186,19,.891,19.032Z" transform="translate(16.557 11.96)" fill="#231f20"/><g transform="translate(2.307 5.321)"><path d="M14.042,14S13.17,7.12,3.71.537C3.71.537-.571-2.155.8,4.514a7.707,7.707,0,0,1,.426,4.85s-.492,2.908.837,3.734c0,0,1.2.955-.083,1.674A5.3,5.3,0,0,0,.136,19.939s.127,1.435.941,1.613c0,0-.021.994.62,1.262a1.017,1.017,0,0,0,.98.831s.274,1.491,1.638,1.312a1.235,1.235,0,0,0,1.223.508,1.6,1.6,0,0,0,2.028.325s5.863-3.737,5.537-6.327A5.734,5.734,0,0,0,14.042,14Z" transform="translate(0 0)" fill="#ff0" stroke="#231f20" stroke-width="1"/></g><path d="M14.124,14.079S12.584,5.052,2.076,0c0,0-2.295.566-1.288,4.308A6.781,6.781,0,0,1,1.381,8.86s-.812,3.505,1.161,4.5c0,0,.84.671-1.153,2.209,0,0-2.963,4.228-.233,5.853,0,0,.132,1.778,1.544,2.079,0,0,.654,1.836,1.745,1.3,0,0,.6.934,1.134.456,0,0,.854,1.53,2.628.107,0,0-10.829-4.46-4.583-10.191,0,0,1.409-.937-.165-3.532a4.411,4.411,0,0,1-.352-3.206s.353-3.675-1.264-5.433c0,0-.911-2.226,1.1-1.624C2.944,1.385,8.742,2.4,14.124,14.079Z" transform="translate(2.729 5.487)" fill="#ff0082"/><path d="M8.365,8.41S7.7,3.947,2.226.319C2.226.319-.42-1.289.4,2.713a5.085,5.085,0,0,1,.333,2.9s-.429,1.791.5,2.24c0,0,.722.573-.05,1a3.18,3.18,0,0,0-1.107,3.1s-.043.871.565.968c0,0-.165.6.371.757a.488.488,0,0,0,.588.5.825.825,0,0,0,.984.786.74.74,0,0,0,.734.306.963.963,0,0,0,1.217.195s3.518-2.243,3.322-3.8A3.489,3.489,0,0,0,8.365,8.41Z" transform="translate(7.56 12.297)" fill="#ff8200"/><g transform="translate(2.466 5.237)"><path d="M12.566,16.208S6.461,11.094,5.9,8.6C5.9,8.6,4.541,1.713.078.149L0,0C4.464,1.564,5.826,8.456,5.826,8.456c.558,2.488,6.662,7.6,6.662,7.6Z" transform="translate(1.496)" fill="#231f20"/><path d="M6.343,1.525S.8-.49.078.368L0,.219C.724-.64,6.078,1.3,6.078,1.3Z" transform="translate(1.324 7.827)" fill="#231f20"/><path d="M6.065,1.989S2.262-.326.078.237L0,.088C2.185-.474,5.987,1.839,5.987,1.839Z" transform="translate(0.839 5.137)" fill="#231f20"/><path d="M5.746,3.424S1.517-.589,0,.23L.006.111c1.517-.82,5.662,3.164,5.662,3.164Z" transform="translate(0.357 1.537)" fill="#231f20"/><path d="M7.776,12.055A20.047,20.047,0,0,0,.077.149L0,0A20.043,20.043,0,0,1,7.7,11.905Z" transform="translate(4.879 2.741)" fill="#231f20"/><path d="M8.25,1.615S.128-.591.078.414L0,.265c.05-1,7.89,1.174,7.89,1.174Z" transform="translate(0.992 9.892)" fill="#231f20"/><path d="M11.424,2.613s-2.66.987-4.508-.67c0,0-1.729-1.764-6.838-1.794L0,0C5.108.03,6.837,1.794,6.837,1.794c1.848,1.657,4.509.671,4.509.671Z" transform="translate(1.55 12.645)" fill="#231f20"/><path d="M11.327,2.466S8.1,3.536,6.344,2.219c0,0-2.7-2.819-6.266-1.877L0,.192C3.567-.749,6.266,2.069,6.266,2.069c1.751,1.317,4.983.247,4.983.247Z" transform="translate(2.395 13.725)" fill="#231f20"/><path d="M8.738.15S8.428,1.812,6.05,1.694c0,0-5.318-.375-5.974,1.383L0,2.927C.655,1.17,5.972,1.545,5.972,1.545,8.351,1.663,8.661,0,8.661,0Z" transform="translate(0 15.794)" fill="#231f20"/><path d="M13.8.149S6.8,3.942,5.059,2.4c0,0-1.881-.988-4.981,1.991L0,4.242C3.1,1.264,4.982,2.252,4.982,2.252,6.722,3.793,13.722,0,13.722,0Z" transform="translate(0.126 16.499)" fill="#231f20"/><path d="M4.355.039S.116,3.073.077,3.854L0,3.7C.039,2.923,4.3,0,4.3,0Z" transform="translate(1.499 19.119)" fill="#231f20"/><path d="M5.582.056S.031,3.5.078,4.85L0,4.7C-.046,3.355,5.5,0,5.5,0Z" transform="translate(2.479 18.955)" fill="#231f20"/><path d="M5.956.15S.116,5.711.078,6.492L0,6.343C.039,5.561,5.878,0,5.878,0Z" transform="translate(4.135 18.29)" fill="#231f20"/><path d="M7.108.15S4.649,3.944,3.5,4.222c0,0-3.824,3.838-3.388,4.2l-.077-.15c-.437-.357,3.388-4.2,3.388-4.2C4.571,3.794,7.03,0,7.03,0Z" transform="translate(5.307 17.207)" fill="#231f20"/><path d="M3.959.149S3.346,3.363,2.294,3.981c0,0-2.047,2.36-2.216,3.471L0,7.3c.169-1.11,2.215-3.47,2.215-3.47C3.268,3.213,3.882,0,3.882,0Z" transform="translate(9.152 16.907)" fill="#231f20"/><path d="M7.431,1.1s-3.422.327-4.29-.5c0,0-1.995-.994-3.064-.04L0,.414c1.069-.954,3.064.04,3.064.04.867.827,3.948.531,3.948.531Z" transform="translate(1.055 15.339)" fill="#231f20"/></g><g transform="translate(3.727 6.273)"><path d="M.131,1.263C.22,1.268.306.988.323.639S.283,0,.194,0,.02.275,0,.623.043,1.259.131,1.263Z" transform="translate(0 0.439)" fill="#fff"/><path d="M.3.631a.318.318,0,0,0,.336-.3A.318.318,0,0,0,.336,0,.318.318,0,0,0,0,.3.318.318,0,0,0,.3.631Z" transform="translate(0.593 3.925)" fill="#fff"/><path d="M.55.475C.859.491,1.115.4,1.122.266S.882.017.573,0,.007.08,0,.211.24.46.55.475Z" transform="translate(1.186 6.673)" fill="#fff"/><path d="M.385.631A.365.365,0,0,0,.8.336.365.365,0,0,0,.417,0,.366.366,0,0,0,0,.3.366.366,0,0,0,.385.631Z" transform="translate(1.393 10.233)" fill="#fff"/><path d="M.382.79A.4.4,0,0,0,.8.415.4.4,0,0,0,.421,0,.4.4,0,0,0,0,.375.4.4,0,0,0,.382.79Z" transform="translate(1.337 13.564)" fill="#fff"/><path d="M.048,1.736A2.4,2.4,0,0,0,.171.873,2.412,2.412,0,0,0,.134,0,2.429,2.429,0,0,0,.011.865,2.421,2.421,0,0,0,.048,1.736Z" transform="translate(0.349 15.599)" fill="#fff"/><path d="M.3.632a.319.319,0,0,0,.336-.3A.318.318,0,0,0,.336,0,.318.318,0,0,0,0,.3.319.319,0,0,0,.3.632Z" transform="translate(0.078 18.89)" fill="#fff"/><path d="M.071.823A3.662,3.662,0,0,1,0,.1C.011-.107.093.071.109.072A1.174,1.174,0,0,1,.121.449,1.177,1.177,0,0,1,.071.823Z" transform="translate(1.614 21.775)" fill="#fff"/><path d="M.063.789C.107.791.151.616.162.4S.146,0,.1,0,.013.173,0,.39.018.787.063.789Z" transform="translate(5.6 23.993)" fill="#fff"/><path d="M.393.317C.614.328.8.266.8.178S.63.012.409,0,0,.051,0,.139.171.306.393.317Z" transform="translate(1.681 0)" fill="#fff"/><path d="M.218.947C.35.954.468.747.481.486S.4.007.265,0,.014.2,0,.462.085.941.218.947Z" transform="translate(6.743 3.291)" fill="#fff"/><path d="M.066.631C.11.634.153.494.162.32S.141,0,.1,0,.01.138,0,.311.021.63.066.631Z" transform="translate(8.417 5.532)" fill="#fff"/><path d="M.3.789A.364.364,0,0,0,.642.41.364.364,0,0,0,.34,0,.363.363,0,0,0,0,.378.364.364,0,0,0,.3.789Z" transform="translate(2.962 22.479)" fill="#fff"/></g><path d="M14.379,14.614s-1.145-7.3-10.27-13.35c0,0-4.371-2.816-3,3.853a8.473,8.473,0,0,1,.555,4.837s-.715,2.986.837,3.734c0,0,1.2.954-.083,1.674A5.3,5.3,0,0,0,.575,20.53s-.072,1.452.942,1.614c0,0-.276.994.619,1.261a.813.813,0,0,0,.98.831,1.376,1.376,0,0,0,1.638,1.313,1.235,1.235,0,0,0,1.224.508,1.6,1.6,0,0,0,2.028.324s5.862-3.737,5.536-6.326c0,0,1.8-1.925.837-5.44l-.31-.6c.961,3.516-.837,5.441-.837,5.441.326,2.589-5.537,6.326-5.537,6.326a1.6,1.6,0,0,1-2.028-.324,1.236,1.236,0,0,1-1.224-.508A1.376,1.376,0,0,1,2.8,23.64a.813.813,0,0,1-.98-.832c-.9-.268-.619-1.261-.619-1.261C.191,21.384.131,19.96.131,19.96a5.321,5.321,0,0,1,1.978-5.194c1.285-.719.083-1.674.083-1.674-1.553-.748-.837-3.733-.837-3.733A8.477,8.477,0,0,0,.8,4.521C-.572-2.148,3.837.532,3.837.532c9.124,6.046,10.232,13.485,10.232,13.485Z" transform="translate(2.216 5.234)" fill="#231f20"/><g transform="translate(19.378 6.597)"><path d="M.493,12.755S2.041,5.993,12.107.379c0,0,4.526-2.256,2.5,4.245A7.708,7.708,0,0,0,13.7,9.408s.2,2.943-1.2,3.632c0,0-1.291.831-.083,1.674a5.3,5.3,0,0,1,1.325,5.324s-.269,1.415-1.1,1.512c0,0-.077.991-.74,1.194a1.019,1.019,0,0,1-1.058.731s-.42,1.456-1.759,1.143A1.236,1.236,0,0,1,7.82,25a1.6,1.6,0,0,1-2.049.122S.305,20.826.886,18.282A5.733,5.733,0,0,1,.493,12.755Z" transform="translate(0 0)" fill="#ff0" stroke="#231f20" stroke-width="1"/></g><path d="M0,12.818S2.425,3.988,13.381,0c0,0,2.227.79.856,4.414A6.782,6.782,0,0,0,13.2,8.885s.462,3.568-1.6,4.368c0,0-.9.584.928,2.311,0,0,2.531,4.5-.346,5.848,0,0-.308,1.756-1.742,1.916,0,0-.832,1.763-1.866,1.124,0,0-.688.87-1.173.342,0,0-1,1.438-2.626-.152,0,0,11.216-3.367,5.569-9.689,0,0-1.31-1.072.514-3.5A4.416,4.416,0,0,0,11.522,8.3s.013-3.691,1.795-5.281c0,0,1.128-2.126-.936-1.724C12.38,1.293,6.511,1.729,0,12.818Z" transform="translate(19.846 6.736)" fill="#ff0082"/><path d="M.307,7.666S1.41,3.29,7.217.222c0,0,2.791-1.338,1.577,2.562a5.082,5.082,0,0,0-.619,2.856s.25,1.825-.721,2.179c0,0-.774.5-.05,1a3.182,3.182,0,0,1,.8,3.2s-.043.87-.658.906c0,0,.106.609-.445.717a.488.488,0,0,1-.635.438.825.825,0,0,1-1.056.686A.74.74,0,0,1,4.645,15a.962.962,0,0,1-1.23.073S.136,12.491.484,10.964A3.49,3.49,0,0,1,.307,7.666Z" transform="translate(19.848 13.106)" fill="#ff8200"/><g transform="translate(18.945 6.777)"><path d="M0,14.885S6.581,10.4,7.382,7.979c0,0,2.037-6.723,6.634-7.838L14.108,0c-4.6,1.115-6.634,7.839-6.634,7.839C6.673,10.26.092,14.745.092,14.745Z" transform="translate(0)" fill="#231f20"/><path d="M0,.988S5.714-.47,6.349.457L6.441.316C5.806-.61.286.794.286.794Z" transform="translate(7.041 7.708)" fill="#231f20"/><path d="M0,1.476S4.013-.451,6.132.325L6.223.184C4.1-.592.092,1.335.092,1.335Z" transform="translate(8.02 5.081)" fill="#231f20"/><path d="M0,2.895S4.605-.681,6.034.285L6.039.166C4.611-.8.091,2.754.091,2.754Z" transform="translate(9.032 1.586)" fill="#231f20"/><path d="M0,11.226A20.045,20.045,0,0,1,8.839.141L8.931,0A20.048,20.048,0,0,0,.092,11.085Z" transform="translate(1.538 2.393)" fill="#231f20"/><path d="M0,.892S8.3-.5,8.251.5L8.344.364C8.393-.64.376.752.376.752Z" transform="translate(5.26 9.792)" fill="#231f20"/><path d="M0,1.56s2.55,1.246,4.553-.222c0,0,1.895-1.584,6.981-1.108l.092-.141C6.54-.387,4.645,1.2,4.645,1.2c-2,1.467-4.553.222-4.553.222Z" transform="translate(1.177 12.489)" fill="#231f20"/><path d="M0,1.507s3.11,1.385,4.984.247c0,0,2.964-2.538,6.42-1.248L11.5.366C8.04-.925,5.076,1.614,5.076,1.614,3.2,2.752.092,1.366.092,1.366Z" transform="translate(0.34 13.395)" fill="#231f20"/><path d="M0,.14s.142,1.686,2.521,1.8c0,0,5.33.153,5.808,1.967l.092-.141C7.942,1.955,2.613,1.8,2.613,1.8.236,1.686.092,0,.092,0Z" transform="translate(5.324 15.009)" fill="#231f20"/><path d="M0,.141S6.591,4.607,8.475,3.246c0,0,1.969-.8,4.76,2.474l.091-.141c-2.79-3.271-4.759-2.474-4.759-2.474C6.683,4.467.092,0,.092,0Z" transform="translate(0.091 15.196)" fill="#231f20"/><path d="M0,.033s3.917,3.439,3.878,4.22l.092-.141C4.009,3.331.059,0,.059,0Z" transform="translate(7.876 18.599)" fill="#231f20"/><path d="M0,.047S5.182,4.029,5,5.363l.093-.141C5.274,3.889.087,0,.087,0Z" transform="translate(5.694 18.22)" fill="#231f20"/><path d="M0,.141S5.261,6.253,5.222,7.034l.092-.141C5.353,6.111.092,0,.092,0Z" transform="translate(3.731 17.358)" fill="#231f20"/><path d="M0,.14S2.072,4.159,3.188,4.549c0,0,3.425,4.2,2.955,4.51l.093-.141C6.706,8.606,3.28,4.41,3.28,4.41,2.164,4.018.092,0,.092,0Z" transform="translate(1.524 16.051)" fill="#231f20"/><path d="M0,.14S.293,3.4,1.278,4.119c0,0,1.8,2.551,1.862,3.672l.092-.14C3.175,6.53,1.371,3.979,1.371,3.979.385,3.259.092,0,.092,0Z" transform="translate(0.861 15.683)" fill="#231f20"/><path d="M0,.5s3.374.664,4.319-.072c0,0,2.083-.792,3.053.263L7.464.548C6.494-.506,4.411.285,4.411.285,3.466,1.021.43.423.43.423Z" transform="translate(5.524 15.171)" fill="#231f20"/></g><g transform="translate(25.105 7.417)"><path d="M.132,1.263C.044,1.258-.014.972,0,.623S.107,0,.195,0,.341.291.324.639.221,1.267.132,1.263Z" transform="translate(8.686 0.625)" fill="#fff"/><path d="M.3.632A.319.319,0,0,1,0,.3.319.319,0,0,1,.336,0,.319.319,0,0,1,.641.332.319.319,0,0,1,.3.632Z" transform="translate(7.467 4.02)" fill="#fff"/><path d="M.549.475C.24.459-.006.342,0,.21S.263-.014.572,0s.555.134.549.264S.859.49.549.475Z" transform="translate(6.135 6.673)" fill="#fff"/><path d="M.385.632A.366.366,0,0,1,0,.3.366.366,0,0,1,.417,0,.366.366,0,0,1,.8.336.366.366,0,0,1,.385.632Z" transform="translate(5.889 10.211)" fill="#fff"/><path d="M.381.789A.4.4,0,0,1,0,.375.4.4,0,0,1,.42,0,.4.4,0,0,1,.8.414.4.4,0,0,1,.381.789Z" transform="translate(5.606 13.531)" fill="#fff"/><path d="M.048,1.737A2.448,2.448,0,0,1,.011.864,2.44,2.44,0,0,1,.134,0,2.409,2.409,0,0,1,.171.872,2.408,2.408,0,0,1,.048,1.737Z" transform="translate(6.959 15.682)" fill="#fff"/><path d="M.305.632A.318.318,0,0,1,0,.3.318.318,0,0,1,.337,0a.318.318,0,0,1,.3.331A.318.318,0,0,1,.305.632Z" transform="translate(6.5 18.964)" fill="#fff"/><path d="M.017.814A3.619,3.619,0,0,0,.158.1C.169-.1.07.065.054.064A1.19,1.19,0,0,0,.005.438,1.191,1.191,0,0,0,.017.814Z" transform="translate(5.188 21.712)" fill="#fff"/><path d="M.063.789C.018.787-.008.608,0,.39S.057,0,.1,0,.173.18.162.4.107.791.063.789Z" transform="translate(0.969 23.519)" fill="#fff"/><path d="M.393.317C.172.306,0,.227,0,.14S.188-.01.409,0,.806.092.8.179.615.328.393.317Z" transform="translate(6.629 0)" fill="#fff"/><path d="M.218.947C.085.94-.012.723,0,.462S.132-.007.265,0s.23.223.217.486S.351.954.218.947Z" transform="translate(1.554 2.79)" fill="#fff"/><path d="M.066.631C.022.629-.007.486,0,.312S.054,0,.1,0,.171.145.162.319.111.633.066.631Z" transform="translate(0 4.869)" fill="#fff"/><path d="M.3.79A.364.364,0,0,1,0,.379.365.365,0,0,1,.34,0a.365.365,0,0,1,.3.411A.364.364,0,0,1,.3.79Z" transform="translate(3.267 22.249)" fill="#fff"/></g><path d="M.512,13.339S2.375,6.185,12.053,1.071c0,0,4.627-2.369,2.6,4.131a8.475,8.475,0,0,0-1.032,4.759s.418,3.042-1.2,3.632c0,0-1.291.831-.083,1.674a5.3,5.3,0,0,1,1.325,5.325s-.072,1.451-1.1,1.512c0,0,.177,1.016-.741,1.193a.813.813,0,0,1-1.058.731,1.374,1.374,0,0,1-1.76,1.144,1.236,1.236,0,0,1-1.268.384,1.6,1.6,0,0,1-2.05.122S.226,21.381.807,18.837c0,0-1.6-2.094-.3-5.5l.368-.563c-1.3,3.4.3,5.5.3,5.5-.581,2.544,4.884,6.843,4.884,6.843a1.605,1.605,0,0,0,2.05-.122,1.236,1.236,0,0,0,1.268-.384,1.375,1.375,0,0,0,1.76-1.144.813.813,0,0,0,1.059-.73c.917-.178.74-1.193.74-1.193,1.025-.061,1.227-1.473,1.227-1.473a5.321,5.321,0,0,0-1.456-5.364c-1.207-.843.083-1.674.083-1.674,1.619-.591,1.2-3.632,1.2-3.632a8.47,8.47,0,0,1,1.03-4.76C17.048-1.86,12.4.369,12.4.369,2.718,5.484.88,12.776.88,12.776Z" transform="translate(19.061 6.511)" fill="#231f20"/><path d="M.049,6.827A9.316,9.316,0,0,1,.473,4.347a7.58,7.58,0,0,1,.69-1.339C2.036,1.648,3.482.968,4.77.109A.058.058,0,0,0,4.787.028a.058.058,0,0,0-.08-.019C3.365.845,1.909,1.536,1,2.929a6.229,6.229,0,0,0-.987,3.9.016.016,0,0,0,.015.016.016.016,0,0,0,.017-.014Z" transform="translate(18.308 6.041)" fill="#231f20"/><path d="M4.055,7.258a9.294,9.294,0,0,0-.177-2.51,7.655,7.655,0,0,0-.554-1.4C2.591,1.906,1.218,1.088.021.1A.057.057,0,0,1,.013.024.057.057,0,0,1,.095.013c1.253.965,2.632,1.794,3.4,3.271a6.236,6.236,0,0,1,.6,3.975.016.016,0,0,1-.016.014.017.017,0,0,1-.016-.015Z" transform="translate(14.04 5.606)" fill="#231f20"/></g><rect width="32" height="36" transform="translate(1395 4739)" fill="none"/></g></svg>