<svg xmlns="http://www.w3.org/2000/svg" width="33.812" height="30.368" viewBox="0 0 33.812 30.368"><g transform="matrix(0.999, -0.035, 0.035, 0.999, -1.036, 0.051)"><rect width="29.734" height="33.38" transform="translate(0 29.697) rotate(-87.162)" fill="none"/><path d="M.835,17.846c.663.033,1.4-3.936,1.641-8.864S2.383.033,1.72,0,.324,3.935.079,8.863.174,17.813.835,17.846Z" transform="translate(15.663 11.541)" fill="#231f20"/><g transform="translate(2.301 5.316)"><path d="M13.167,13.129S12.349,6.676,3.479.5c0,0-4.014-2.524-2.727,3.729a7.227,7.227,0,0,1,.4,4.548s-.461,2.727.784,3.5c0,0,1.127.9-.078,1.569A4.971,4.971,0,0,0,.128,18.7s.119,1.346.883,1.513c0,0-.019.932.581,1.183a.954.954,0,0,0,.919.78s.257,1.4,1.536,1.23a1.158,1.158,0,0,0,1.147.477,1.5,1.5,0,0,0,1.9.3s5.5-3.5,5.192-5.932A5.377,5.377,0,0,0,13.167,13.129Z" fill="#ff0" stroke="#231f20" stroke-width="1"/></g><path d="M13.243,13.2S11.8,4.737,1.947,0c0,0-2.152.531-1.208,4.039A6.358,6.358,0,0,1,1.3,8.308s-.761,3.287,1.088,4.224c0,0,.787.629-1.081,2.071,0,0-2.779,3.965-.219,5.489,0,0,.123,1.667,1.447,1.949,0,0,.613,1.722,1.636,1.222,0,0,.562.875,1.063.428,0,0,.8,1.434,2.464.1,0,0-10.154-4.182-4.3-9.556,0,0,1.322-.879-.155-3.312a4.136,4.136,0,0,1-.33-3.006S3.242,4.47,1.727,2.822c0,0-.854-2.087,1.034-1.523C2.761,1.3,8.2,2.251,13.243,13.2Z" transform="translate(2.697 5.471)" fill="#ff0082"/><path d="M7.843,7.886S7.221,3.7,2.087.3c0,0-2.48-1.508-1.708,2.244A4.768,4.768,0,0,1,.691,5.266s-.4,1.68.47,2.1c0,0,.677.537-.047.942A2.982,2.982,0,0,0,.077,11.215s-.041.817.53.908c0,0-.155.559.348.71a.458.458,0,0,0,.552.468.774.774,0,0,0,.922.737.694.694,0,0,0,.688.286.9.9,0,0,0,1.141.182s3.3-2.1,3.115-3.56A3.271,3.271,0,0,0,7.843,7.886Z" transform="translate(7.227 11.857)" fill="#ff8200"/><g transform="translate(2.45 5.236)"><path d="M11.783,15.2S6.058,10.4,5.535,8.068c0,0-1.277-6.462-5.462-7.929L0,0C4.186,1.466,5.462,7.929,5.462,7.929c.523,2.333,6.247,7.128,6.247,7.128Z" transform="translate(1.402)" fill="#231f20"/><path d="M5.948,1.43S.751-.46.073.345L0,.206C.679-.6,5.7,1.222,5.7,1.222Z" transform="translate(1.241 7.34)" fill="#231f20"/><path d="M5.687,1.865S2.121-.305.073.222L0,.083C2.049-.444,5.614,1.725,5.614,1.725Z" transform="translate(0.787 4.817)" fill="#231f20"/><path d="M5.388,3.211S1.422-.553,0,.216L.005.1C1.428-.665,5.315,3.071,5.315,3.071Z" transform="translate(0.335 1.441)" fill="#231f20"/><path d="M7.291,11.3A18.8,18.8,0,0,0,.073.14L0,0A18.794,18.794,0,0,1,7.219,11.163Z" transform="translate(4.575 2.57)" fill="#231f20"/><path d="M7.736,1.514S.12-.554.073.388L0,.248c.047-.942,7.4,1.1,7.4,1.1Z" transform="translate(0.93 9.275)" fill="#231f20"/><path d="M10.711,2.451s-2.495.926-4.227-.629c0,0-1.622-1.654-6.411-1.682L0,0C4.79.028,6.411,1.682,6.411,1.682c1.733,1.554,4.228.629,4.228.629Z" transform="translate(1.453 11.856)" fill="#231f20"/><path d="M10.621,2.312s-3.03,1-4.673-.232c0,0-2.531-2.643-5.875-1.76L0,.18C3.344-.7,5.875,1.94,5.875,1.94c1.642,1.235,4.673.232,4.673.232Z" transform="translate(2.245 12.869)" fill="#231f20"/><path d="M8.194.14S7.9,1.7,5.673,1.588c0,0-4.987-.351-5.6,1.3L0,2.745c.614-1.648,5.6-1.3,5.6-1.3C7.83,1.559,8.121,0,8.121,0Z" transform="translate(0 14.81)" fill="#231f20"/><path d="M12.94.14S6.376,3.7,4.744,2.252c0,0-1.764-.927-4.67,1.867L0,3.978C2.907,1.185,4.671,2.111,4.671,2.111,6.3,3.556,12.867,0,12.867,0Z" transform="translate(0.118 15.47)" fill="#231f20"/><path d="M4.083.036S.109,2.881.073,3.614L0,3.474C.036,2.741,4.032,0,4.032,0Z" transform="translate(1.406 17.927)" fill="#231f20"/><path d="M5.234.052S.029,3.286.073,4.548L0,4.408C-.043,3.146,5.156,0,5.156,0Z" transform="translate(2.325 17.773)" fill="#231f20"/><path d="M5.585.14S.109,5.355.073,6.087L0,5.947C.036,5.215,5.512,0,5.512,0Z" transform="translate(3.877 17.15)" fill="#231f20"/><path d="M6.665.14S4.359,3.7,3.282,3.959c0,0-3.586,3.6-3.177,3.934L.033,7.753c-.409-.335,3.177-3.934,3.177-3.934C4.286,3.558,6.592,0,6.592,0Z" transform="translate(4.976 16.134)" fill="#231f20"/><path d="M3.713.139S3.137,3.153,2.151,3.733c0,0-1.92,2.213-2.078,3.255L0,6.848C.158,5.807,2.077,3.594,2.077,3.594,3.065,3.013,3.64,0,3.64,0Z" transform="translate(8.581 15.853)" fill="#231f20"/><path d="M6.968,1.033S3.759,1.34,2.946.566c0,0-1.87-.932-2.873-.038L0,.388C1-.506,2.873.425,2.873.425c.813.775,3.7.5,3.7.5Z" transform="translate(0.989 14.383)" fill="#231f20"/></g><g transform="translate(3.633 6.208)"><path d="M.123,1.184C.206,1.189.286.927.3.6S.265,0,.182,0,.019.258,0,.585.04,1.18.123,1.184Z" transform="translate(0 0.412)" fill="#fff"/><path d="M.286.592A.3.3,0,0,0,.6.311.3.3,0,0,0,.315,0,.3.3,0,0,0,0,.281.3.3,0,0,0,.286.592Z" transform="translate(0.556 3.68)" fill="#fff"/><path d="M.515.445c.29.015.53-.073.537-.2S.827.016.537,0,.006.075,0,.2.225.431.515.445Z" transform="translate(1.112 6.257)" fill="#fff"/><path d="M.361.592A.342.342,0,0,0,.751.315.342.342,0,0,0,.391,0,.343.343,0,0,0,0,.278.343.343,0,0,0,.361.592Z" transform="translate(1.306 9.595)" fill="#fff"/><path d="M.358.741A.374.374,0,0,0,.752.389.374.374,0,0,0,.395,0,.373.373,0,0,0,0,.352.373.373,0,0,0,.358.741Z" transform="translate(1.253 12.718)" fill="#fff"/><path d="M.045,1.628A2.251,2.251,0,0,0,.161.818,2.262,2.262,0,0,0,.125,0,2.277,2.277,0,0,0,.01.811,2.27,2.27,0,0,0,.045,1.628Z" transform="translate(0.327 14.627)" fill="#fff"/><path d="M.286.592A.3.3,0,0,0,.6.311.3.3,0,0,0,.315,0,.3.3,0,0,0,0,.281.3.3,0,0,0,.286.592Z" transform="translate(0.073 17.713)" fill="#fff"/><path d="M.067.771A3.433,3.433,0,0,1,0,.094C.011-.1.087.067.1.068A1.1,1.1,0,0,1,.113.421,1.1,1.1,0,0,1,.067.771Z" transform="translate(1.513 20.418)" fill="#fff"/><path d="M.059.74C.1.742.142.578.152.374S.137,0,.1,0,.012.162,0,.366.017.738.059.74Z" transform="translate(5.251 22.497)" fill="#fff"/><path d="M.368.3C.576.307.747.249.751.167S.591.011.383,0,0,.048,0,.13.161.287.368.3Z" transform="translate(1.576)" fill="#fff"/><path d="M.2.888C.328.894.439.7.451.456S.372.006.248,0,.013.188,0,.433.08.882.2.888Z" transform="translate(6.323 3.086)" fill="#fff"/><path d="M.062.592C.1.594.144.463.152.3S.132,0,.091,0,.01.129,0,.292.02.59.062.592Z" transform="translate(7.893 5.187)" fill="#fff"/><path d="M.282.74A.341.341,0,0,0,.6.385.341.341,0,0,0,.319,0,.341.341,0,0,0,0,.355.341.341,0,0,0,.282.74Z" transform="translate(2.777 21.078)" fill="#fff"/></g><path d="M13.483,13.7S12.409,6.856,3.853,1.185c0,0-4.1-2.641-2.811,3.613a7.945,7.945,0,0,1,.52,4.536s-.671,2.8.785,3.5c0,0,1.127.895-.078,1.57A4.969,4.969,0,0,0,.539,19.25s-.068,1.361.883,1.513c0,0-.259.932.581,1.183a.762.762,0,0,0,.919.78,1.29,1.29,0,0,0,1.536,1.231,1.158,1.158,0,0,0,1.147.476,1.5,1.5,0,0,0,1.9.3S13,21.232,12.7,18.8a5.453,5.453,0,0,0,.785-5.1l-.291-.56a5.455,5.455,0,0,1-.785,5.1c.306,2.427-5.192,5.932-5.192,5.932a1.5,1.5,0,0,1-1.9-.3A1.159,1.159,0,0,1,4.166,23.4a1.29,1.29,0,0,1-1.537-1.231.762.762,0,0,1-.919-.78C.871,21.135,1.13,20.2,1.13,20.2.179,20.051.123,18.716.123,18.716a4.99,4.99,0,0,1,1.855-4.87c1.205-.674.078-1.57.078-1.57-1.456-.7-.785-3.5-.785-3.5a7.949,7.949,0,0,0-.52-4.537C-.537-2.014,3.6.5,3.6.5c8.555,5.669,9.594,12.645,9.594,12.645Z" transform="translate(2.216 5.234)" fill="#231f20"/><g transform="translate(18.308 6.512)"><path d="M.462,11.96S1.914,5.62,11.352.355c0,0,4.243-2.115,2.344,3.98a7.227,7.227,0,0,0-.849,4.486s.19,2.759-1.126,3.406c0,0-1.21.779-.078,1.57a4.971,4.971,0,0,1,1.242,4.992s-.252,1.327-1.028,1.418c0,0-.073.929-.694,1.119a.955.955,0,0,1-.992.685s-.394,1.366-1.65,1.072a1.159,1.159,0,0,1-1.19.361,1.5,1.5,0,0,1-1.921.114S.286,19.528.831,17.143A5.375,5.375,0,0,1,.462,11.96Z" fill="#ff0" stroke="#231f20" stroke-width="1"/></g><path d="M0,12.019S2.274,3.74,12.547,0c0,0,2.089.741.8,4.139a6.359,6.359,0,0,0-.976,4.193s.433,3.346-1.5,4.1c0,0-.846.548.87,2.167,0,0,2.373,4.221-.325,5.483,0,0-.289,1.646-1.633,1.8,0,0-.781,1.653-1.749,1.054,0,0-.645.815-1.1.32,0,0-.939,1.348-2.462-.143,0,0,10.517-3.157,5.222-9.085,0,0-1.228-1,.482-3.281A4.141,4.141,0,0,0,10.8,7.781s.012-3.461,1.683-4.952c0,0,1.057-1.994-.878-1.617C11.609,1.213,6.1,1.621,0,12.019Z" transform="translate(18.747 6.642)" fill="#ff0082"/><path d="M.288,7.188s1.034-4.1,6.479-6.98c0,0,2.617-1.255,1.478,2.4a4.765,4.765,0,0,0-.581,2.678S7.9,7,6.988,7.331c0,0-.726.468-.047.942a2.984,2.984,0,0,1,.746,3s-.04.816-.617.85c0,0,.1.571-.417.672a.457.457,0,0,1-.6.411.773.773,0,0,1-.99.643.694.694,0,0,1-.713.216A.9.9,0,0,1,3.2,14.13S.127,11.712.454,10.281A3.272,3.272,0,0,1,.288,7.188Z" transform="translate(18.749 12.615)" fill="#ff8200"/><g transform="translate(17.902 6.681)"><path d="M0,13.957s6.17-4.2,6.922-6.475c0,0,1.91-6.3,6.22-7.35L13.228,0c-4.31,1.045-6.22,7.35-6.22,7.35C6.257,9.62.086,13.826.086,13.826Z" fill="#231f20"/><path d="M0,.926S5.358-.44,5.953.429L6.04.3C5.444-.572.268.745.268.745Z" transform="translate(6.602 7.228)" fill="#231f20"/><path d="M0,1.384S3.763-.423,5.749.3L5.835.173C3.849-.555.086,1.252.086,1.252Z" transform="translate(7.52 4.764)" fill="#231f20"/><path d="M0,2.714S4.318-.639,5.658.268L5.663.156C4.324-.75.086,2.583.086,2.583Z" transform="translate(8.469 1.487)" fill="#231f20"/><path d="M0,10.526A18.8,18.8,0,0,1,8.288.132L8.374,0A18.8,18.8,0,0,0,.087,10.394Z" transform="translate(1.442 2.244)" fill="#231f20"/><path d="M0,.837S7.784-.469,7.737.473L7.823.341C7.87-.6.353.706.353.706Z" transform="translate(4.933 9.182)" fill="#231f20"/><path d="M0,1.463s2.391,1.168,4.269-.208c0,0,1.777-1.485,6.546-1.039L10.9.084C6.133-.362,4.356,1.122,4.356,1.122,2.477,2.5.086,1.331.086,1.331Z" transform="translate(1.103 11.71)" fill="#231f20"/><path d="M0,1.413s2.917,1.3,4.673.232c0,0,2.779-2.379,6.02-1.17L10.78.343c-3.24-1.21-6.02,1.17-6.02,1.17C3,2.58.086,1.281.086,1.281Z" transform="translate(0.319 12.56)" fill="#231f20"/><path d="M0,.131s.134,1.58,2.364,1.691c0,0,5,.143,5.446,1.844L7.9,3.534C7.447,1.833,2.45,1.691,2.45,1.691.221,1.58.086,0,.086,0Z" transform="translate(4.992 14.073)" fill="#231f20"/><path d="M0,.132S6.18,4.32,7.947,3.044c0,0,1.847-.747,4.463,2.32l.086-.132C9.88,2.164,8.033,2.912,8.033,2.912,6.266,4.188.087,0,.087,0Z" transform="translate(0.085 14.249)" fill="#231f20"/><path d="M0,.031S3.673,3.255,3.636,3.988l.086-.132C3.759,3.123.055,0,.055,0Z" transform="translate(7.385 17.44)" fill="#231f20"/><path d="M0,.044S4.859,3.778,4.69,5.029L4.777,4.9C4.945,3.647.082,0,.082,0Z" transform="translate(5.339 17.084)" fill="#231f20"/><path d="M0,.132S4.933,5.863,4.9,6.6l.086-.132C5.019,5.73.086,0,.086,0Z" transform="translate(3.498 16.276)" fill="#231f20"/><path d="M0,.131S1.943,3.9,2.99,4.266c0,0,3.212,3.937,2.771,4.229l.087-.132c.44-.293-2.772-4.228-2.772-4.228C2.029,3.768.086,0,.086,0Z" transform="translate(1.429 15.051)" fill="#231f20"/><path d="M0,.131S.275,3.188,1.2,3.863c0,0,1.692,2.392,1.746,3.443l.086-.131C2.977,6.123,1.286,3.731,1.286,3.731.361,3.056.087,0,.087,0Z" transform="translate(0.808 14.705)" fill="#231f20"/><path d="M0,.467S3.164,1.09,4.05.4C4.05.4,6-.343,6.912.646L7,.514C6.089-.475,4.136.267,4.136.267,3.25.958.4.4.4.4Z" transform="translate(5.18 14.225)" fill="#231f20"/></g><g transform="translate(23.678 7.281)"><path d="M.124,1.184C.041,1.18-.013.912,0,.584S.1,0,.183,0,.32.273.3.6.207,1.188.124,1.184Z" transform="translate(8.145 0.586)" fill="#fff"/><path d="M.286.593A.3.3,0,0,1,0,.281.3.3,0,0,1,.315,0,.3.3,0,0,1,.6.311.3.3,0,0,1,.286.593Z" transform="translate(7.002 3.77)" fill="#fff"/><path d="M.515.445C.225.431-.006.32,0,.2S.247-.013.537,0s.521.126.515.247S.805.459.515.445Z" transform="translate(5.752 6.257)" fill="#fff"/><path d="M.361.592A.343.343,0,0,1,0,.278.343.343,0,0,1,.391,0a.343.343,0,0,1,.36.314A.343.343,0,0,1,.361.592Z" transform="translate(5.522 9.575)" fill="#fff"/><path d="M.357.74A.373.373,0,0,1,0,.351.373.373,0,0,1,.394,0,.373.373,0,0,1,.751.389.373.373,0,0,1,.357.74Z" transform="translate(5.257 12.688)" fill="#fff"/><path d="M.045,1.628A2.3,2.3,0,0,1,.01.81,2.288,2.288,0,0,1,.125,0,2.259,2.259,0,0,1,.16.818,2.258,2.258,0,0,1,.045,1.628Z" transform="translate(6.526 14.705)" fill="#fff"/><path d="M.286.592A.3.3,0,0,1,0,.281.3.3,0,0,1,.316,0,.3.3,0,0,1,.6.311.3.3,0,0,1,.286.592Z" transform="translate(6.095 17.782)" fill="#fff"/><path d="M.016.763A3.394,3.394,0,0,0,.149.1C.158-.1.066.061.051.06A1.115,1.115,0,0,0,0,.41,1.117,1.117,0,0,0,.016.763Z" transform="translate(4.865 20.359)" fill="#fff"/><path d="M.059.74C.017.738-.008.57,0,.366S.054,0,.1,0,.162.169.152.373.1.742.059.74Z" transform="translate(0.908 22.053)" fill="#fff"/><path d="M.368.3C.162.287,0,.212,0,.131S.177-.009.383,0,.756.086.752.168.576.308.368.3Z" transform="translate(6.216)" fill="#fff"/><path d="M.2.888C.08.882-.011.678,0,.433S.124-.006.249,0s.215.209.2.455S.329.894.2.888Z" transform="translate(1.457 2.616)" fill="#fff"/><path d="M.062.592C.021.59-.007.456,0,.292S.05,0,.092,0,.16.136.152.3.1.594.062.592Z" transform="translate(0 4.566)" fill="#fff"/><path d="M.282.741A.341.341,0,0,1,0,.356.342.342,0,0,1,.319,0,.342.342,0,0,1,.6.385.341.341,0,0,1,.282.741Z" transform="translate(3.063 20.862)" fill="#fff"/></g><path d="M.48,12.508S2.227,5.8,11.3,1c0,0,4.339-2.221,2.44,3.874a7.947,7.947,0,0,0-.967,4.463s.392,2.852-1.126,3.406c0,0-1.21.779-.078,1.569a4.972,4.972,0,0,1,1.243,4.993s-.068,1.36-1.028,1.418c0,0,.166.952-.695,1.119a.762.762,0,0,1-.992.685A1.289,1.289,0,0,1,8.448,23.6a1.159,1.159,0,0,1-1.189.36,1.5,1.5,0,0,1-1.922.115S.212,20.048.757,17.663A5.457,5.457,0,0,1,.48,12.508l.346-.528A5.455,5.455,0,0,0,1.1,17.134C.558,19.52,5.682,23.55,5.682,23.55A1.505,1.505,0,0,0,7.6,23.436a1.159,1.159,0,0,0,1.189-.36A1.289,1.289,0,0,0,10.443,22a.762.762,0,0,0,.993-.685c.86-.167.694-1.119.694-1.119.961-.057,1.15-1.381,1.15-1.381a4.989,4.989,0,0,0-1.365-5.029c-1.132-.791.078-1.57.078-1.57,1.518-.554,1.128-3.406,1.128-3.406a7.942,7.942,0,0,1,.966-4.463c1.9-6.094-2.463-4-2.463-4C2.549,5.142.825,11.98.825,11.98Z" transform="translate(18.011 6.431)" fill="#231f20"/><path d="M.046,6.4a8.735,8.735,0,0,1,.4-2.325A7.107,7.107,0,0,1,1.09,2.82C1.909,1.546,3.265.908,4.472.1A.054.054,0,0,0,4.488.026.055.055,0,0,0,4.413.008,9.953,9.953,0,0,0,.942,2.746,5.841,5.841,0,0,0,.016,6.4a.015.015,0,0,0,.014.015A.015.015,0,0,0,.046,6.4Z" transform="translate(17.305 5.991)" fill="#231f20"/><path d="M3.8,6.805a8.714,8.714,0,0,0-.166-2.354,7.178,7.178,0,0,0-.519-1.314C2.429,1.787,1.142,1.021.02.1A.053.053,0,0,1,.012.022.053.053,0,0,1,.089.012,9.944,9.944,0,0,1,3.274,3.079a5.848,5.848,0,0,1,.558,3.728.015.015,0,0,1-.015.013A.016.016,0,0,1,3.8,6.805Z" transform="translate(13.303 5.582)" fill="#231f20"/></g></svg>