<svg xmlns="http://www.w3.org/2000/svg" width="14.181" height="13.236" viewBox="0 0 14.181 13.236"><path d="M326.65,757.041c-.594-.62-.379-.971.246-1.186-.186.1.039.343.528.853-.42-.477-.576-.683-.385-.723-.246.1-.406.233-.442.427a1,1,0,0,0,.294.755.824.824,0,0,1-.137-.742.772.772,0,0,1,.495-.4c.061-.036.331.117.664.5-.255-.345-.446-.457-.5-.374a.62.62,0,0,0-.338.379,1.023,1.023,0,0,0,.071.69.971.971,0,0,1,.044-.684.825.825,0,0,1,.389-.376c.195-.122.441-.052.719.2-.255-.275-.478-.366-.673-.255a.751.751,0,0,0-.35.352,1.088,1.088,0,0,0-.069.677,1.21,1.21,0,0,1,.107-.715.946.946,0,0,1,.375-.393.666.666,0,0,1,.792.11c-.325-.305-.613-.444-.884-.351a.835.835,0,0,0-.482,1.056.871.871,0,0,1,.524-1.066.934.934,0,0,1,.918.31.657.657,0,0,0-.783-.082,1.026,1.026,0,0,0-.374.389,1.326,1.326,0,0,0-.154.71,1.2,1.2,0,0,1,.186-.669,1.01,1.01,0,0,1,.393-.352.628.628,0,0,1,.746.128.62.62,0,0,0-.74-.1,1.054,1.054,0,0,0-.391.358,1.212,1.212,0,0,0-.188.665,1.24,1.24,0,0,1,.147-.677.948.948,0,0,1,.363-.365.576.576,0,0,1,.72.133.711.711,0,0,0-.8-.206.868.868,0,0,0-.4.361,1.077,1.077,0,0,0-.109.7,1.241,1.241,0,0,1,.013-.75.755.755,0,0,1,.345-.4c.183-.124.428-.035.742.258-.4-.371-.722-.54-.954-.479a.746.746,0,0,0-.467,1.14c-.348-.641-.068-1.013.361-1.159.138-.03.425.165.8.595-.375-.386-.666-.537-.783-.48a.81.81,0,0,0-.485.432.945.945,0,0,0,.123.8.955.955,0,0,1-.186-.784.713.713,0,0,1,.464-.422,2.757,2.757,0,0,1,.6.631,4.369,4.369,0,0,0-.664-.663c-.52.186-.779.56-.32,1.213-.535-.659-.351-1.039.178-1.252-.155.067.035.3.487.812-.5-.542-.735-.807-.6-.929-.615.226-.855.593-.271,1.2-.679-.622-.533-1,.064-1.3-.353.2-.256.5.4,1.053-.71-.6-.866-.929-.57-1.229-.7.317-.943.666-.324,1.083-.62-.487-.491-.869-.05-1.345-.63.405-.947.718-.646.8-.3-.078.018-.39.648-.795-.441.475-.57.858.051,1.347-.619-.419-.373-.768.324-1.084-.295.3-.137.63.571,1.227-.649-.556-.747-.847-.4-1.05-.6.294-.742.677-.065,1.3-.583-.609-.342-.977.272-1.2-.134.12.1.383.6.924-.448-.51-.64-.742-.487-.807-.528.213-.712.593-.18,1.251-.457-.653-.2-1.027.322-1.213a3.8,3.8,0,0,1,.666.657,2.483,2.483,0,0,0-.6-.626.711.711,0,0,0-.462.421.958.958,0,0,0,.182.783.95.95,0,0,1-.12-.8.813.813,0,0,1,.484-.432c.121-.059.413.09.789.472-.372-.429-.66-.623-.8-.592-.425.145-.706.515-.362,1.156a.747.747,0,0,1,.5-1.118c.254-.065.584.1.973.457-.292-.264-.527-.336-.725-.2a.807.807,0,0,0-.337.393,1.274,1.274,0,0,0-.055.728,1.124,1.124,0,0,1,.161-.681.978.978,0,0,1,.4-.356.677.677,0,0,1,.78.141.6.6,0,0,0-.728-.116,1.02,1.02,0,0,0-.385.354,1.235,1.235,0,0,0-.187.666.865.865,0,0,1,0-.613.689.689,0,0,1,.342-.343c.189-.118.474-.079.838.1-.35-.617-.386-.68.011-.133-.46-.284-.811-.416-1.026-.346-.356.121-.576.445-.3,1.027a.84.84,0,0,1,.485-1.06c.277-.094.571.047.9.352a.7.7,0,0,0-.819-.116.949.949,0,0,0-.38.4,1.223,1.223,0,0,0-.106.729,1.115,1.115,0,0,1,.067-.693.752.752,0,0,1,.355-.358c.2-.113.434-.018.7.262-.294-.263-.551-.34-.756-.22a.825.825,0,0,0-.4.382.991.991,0,0,0-.04.707,1.067,1.067,0,0,1-.075-.717.634.634,0,0,1,.347-.389c.065-.082.269.038.539.392-.349-.4-.632-.56-.71-.526a.8.8,0,0,0-.509.4.84.84,0,0,0,.137.762,1.029,1.029,0,0,1-.295-.779.647.647,0,0,1,.453-.441c-.169.045,0,.26.425.75-.49-.521-.726-.769-.565-.877-.624.221-.851.582-.259,1.2-.608-.621-.4-.983.228-1.212-.2.121.015.374.53.9-.467-.512-.635-.748-.431-.825-.267.1-.441.249-.481.449a1.006,1.006,0,0,0,.329.779.859.859,0,0,1-.2-.775.79.79,0,0,1,.525-.423,3.8,3.8,0,0,1,.654.642c-.316-.415-.529-.576-.529-.535a.646.646,0,0,0-.4.414,1.028,1.028,0,0,0,.163.763.918.918,0,0,1-.041-.749.8.8,0,0,1,.451-.4c.166-.088.446.028.779.352-.273-.308-.492-.407-.646-.3a.7.7,0,0,0-.335.374,1.142,1.142,0,0,0-.011.707,1.088,1.088,0,0,1,.123-.693.926.926,0,0,1,.4-.368.68.68,0,0,1,.789.153.555.555,0,0,0-.7-.14.958.958,0,0,0-.36.357,1.284,1.284,0,0,0-.165.67,1.311,1.311,0,0,1,.156-.715.97.97,0,0,1,.388-.382.786.786,0,0,1,.873.128c-.114-.114-.2-.064-.284.124s-.182.513-.32.948a9.445,9.445,0,0,1,.382-.976c.106-.2.2-.265.32-.174a.715.715,0,0,0-.822-.106,1.316,1.316,0,0,0-.59,1.091.868.868,0,0,1,.379-.973,1.06,1.06,0,0,1,.933.021c-.162-.431,0-.358.278.029-.154.081-.2.478-.3,1.057.126-.6.19-1.028.366-1.145-.263-.412-.414-.517-.2-.144a1.132,1.132,0,0,0-.971-.049.96.96,0,0,0-.369,1,1.037,1.037,0,0,1,.378-1.046,1.178,1.178,0,0,1,1.007,0c-.24-.4-.084-.329.233.066-.215.075-.269.471-.371,1.061.107-.628.164-1.064.416-1.189-.36-.464-.525-.618-.139-.336a1.7,1.7,0,0,0-1.147-.176c-.241.11-.338.417-.236,1-.1-.582.006-.888.25-1a1.725,1.725,0,0,1,1.153.169c-.344-.264-.149-.1.195.331A2.832,2.832,0,0,0,329.06,757a3.093,3.093,0,0,1,.161-1.1c-.244-.328-.4-.388-.257-.036a.99.99,0,0,0-.852.091,1.258,1.258,0,0,0-.43.941,1.129,1.129,0,0,1,.479-.855,1.046,1.046,0,0,1,.824-.055c.024-.237.238-.13.415.144a4.35,4.35,0,0,1,.31,1.229c-.125-.778-.256-1.192-.477-1.2a.721.721,0,0,0-.616.165,2.493,2.493,0,0,0-.38.34,4.92,4.92,0,0,0-.421.528,4.378,4.378,0,0,1,.438-.49,2.344,2.344,0,0,1,.392-.306.746.746,0,0,1,.615-.127c.275.064.421.484.55,1.222-.136-.714-.288-1.109-.571-1.159a.8.8,0,0,0-.608.149,2.6,2.6,0,0,0-.392.3,4.925,4.925,0,0,0-.437.466,4.667,4.667,0,0,1,.428-.454,2.459,2.459,0,0,1,.382-.289.711.711,0,0,1,.582-.122c.259.064.378.473.455,1.19-.1-.658-.242-1.007-.519-1.039a.847.847,0,0,0-.568.165,4.019,4.019,0,0,0-.786.666,3.77,3.77,0,0,1,.718-.636.606.606,0,0,1,.488-.132c.093.014.15.11.177.286a3.648,3.648,0,0,1,0,.762,3.1,3.1,0,0,0-.1-.786c-.058-.18-.14-.277-.247-.283a.781.781,0,0,0-.667.047,1.349,1.349,0,0,0-.677.706,1.181,1.181,0,0,1,.51-.765.459.459,0,0,1,.565.006c-.073-.157-.163.2-.422.865.216-.692.262-1.069.345-.881a.568.568,0,0,0-.663-.093.86.86,0,0,0-.474.838.848.848,0,0,1,.455-.845.537.537,0,0,1,.647.1c-.062-.11-.111-.073-.177.082s-.147.428-.266.764c.133-.329.23-.593.306-.745s.131-.191.189-.093a.468.468,0,0,0-.588-.044,1.023,1.023,0,0,0-.478.8,1.071,1.071,0,0,1,.558-.762.6.6,0,0,1,.643.012c.048-.084.058.3-.064.987.153-.666.173-1.021.12-.952a.5.5,0,0,0-.539.056,1.546,1.546,0,0,0-.585.7,1.649,1.649,0,0,1,.661-.664.671.671,0,0,1,.59-.074c.092,0,.157.093.2.268a3.386,3.386,0,0,1,.043.768c.05-.649,0-.99-.171-1a.609.609,0,0,0-.5.126,2.946,2.946,0,0,0-.67.614,3.175,3.175,0,0,1,.752-.589.856.856,0,0,1,.566-.132c.278.042.413.376.485.994-.031-.62-.125-.956-.366-1a.736.736,0,0,0-.486.156,6.006,6.006,0,0,0-.741.589,6.288,6.288,0,0,1,.8-.608.964.964,0,0,1,.56-.178c.3.029.473.347.619.946-.11-.669-.246-1.057-.522-1.128a.706.706,0,0,0-.529.144,4.569,4.569,0,0,0-.8.686c.163-.165.313-.307.451-.426a3.135,3.135,0,0,1,.379-.284.845.845,0,0,1,.574-.169c.313.054.5.425.7,1.075-.179-.65-.35-1.021-.631-1.07a.731.731,0,0,0-.517.178,4.994,4.994,0,0,0-.76.707,5.452,5.452,0,0,1,.767-.742.806.806,0,0,1,.534-.208c.3.031.5.391.727,1.044-.227-.71-.422-1.127-.729-1.207s-.731.174-1.339.905c.584-.8.983-1.12,1.307-1.071.286.027.5.427.781,1.166a4.726,4.726,0,0,0-.545-1.2c-.191-.254-.412-.365-.494-.217-.54-.1-.941.06-1.074.823.1-.822.473-1.04,1.07-.964-.028-.233.17-.173.386.059a5.576,5.576,0,0,1,.5,1.1c-.206-.584-.366-1-.481-1.285-.247-.337-.449-.54-.239-.554-.785-.293-1.157-.4-.47-.2-.686-.2-.313-.092.47.2-.207.017-.005.223.239.563.118.289.279.711.484,1.3a4.919,4.919,0,0,0-.5-1.084c-.207-.22-.4-.269-.4-.022-.561-.047-.924.2-1.094,1,.207-.725.607-.9,1.1-.832.126-.141.349-.037.541.21a4.434,4.434,0,0,1,.543,1.169c-.269-.695-.474-1.065-.756-1.082s-.642.318-1.2,1.053c.6-.648.992-.9,1.287-.833s.491.446.7,1.076c-.209-.555-.4-.862-.672-.875s-.626.27-1.155.885c.537-.585.9-.836,1.167-.807s.449.339.626.872c-.186-.541-.373-.859-.66-.9s-.672.209-1.25.791c.569-.556.945-.776,1.207-.719s.412.391.531.932c-.153-.435-.336-.662-.625-.663a2.556,2.556,0,0,0-1.237.633c.524-.377.89-.57,1.133-.543s.363.272.418.712c-.1-.411-.259-.628-.542-.644a2.807,2.807,0,0,0-1.239.471,2.385,2.385,0,0,1,1.036-.519c.209.013.289.246.287.711-.048-.5-.177-.777-.446-.821a.923.923,0,0,0-.513.107,5.063,5.063,0,0,0-.687.4,4.533,4.533,0,0,1,.581-.459.6.6,0,0,1,.412-.13c.166.008.2.283.134.814.035-.567-.027-.878-.206-.886a.612.612,0,0,0-.507.073,1.544,1.544,0,0,0-.581.523,1.392,1.392,0,0,1,.5-.56.429.429,0,0,1,.452-.063c.058-.067.032.234-.121.79.124-.588.12-.921.066-.838a.5.5,0,0,0-.547-.009.885.885,0,0,0-.487.633.878.878,0,0,1,.478-.637.487.487,0,0,1,.541.012c.04-.093.034.237-.1.824.161-.56.191-.865.147-.786a.424.424,0,0,0-.465.048,1.237,1.237,0,0,0-.491.575,1.331,1.331,0,0,1,.557-.543.565.565,0,0,1,.509-.059c.15-.011.2.306.137.875.082-.537.061-.82-.084-.814a.537.537,0,0,0-.424.114,2.76,2.76,0,0,0-.56.481,3.145,3.145,0,0,1,.653-.429.821.821,0,0,1,.5-.1c.253.047.365.332.391.855.019-.467-.047-.7-.243-.705a.773.773,0,0,0-.4.148c-.168.1-.373.257-.594.368.255-.092.494-.227.7-.313a1.1,1.1,0,0,1,.5-.112c.27.023.418.24.491.651-.034-.393-.143-.592-.37-.6a2.517,2.517,0,0,0-1.048.456,3,3,0,0,1,1.195-.44c.28.005.448.189.552.54-.065-.391-.193-.613-.432-.633a1.951,1.951,0,0,0-1.079.523,2.378,2.378,0,0,1,1.163-.621c.279-.006.463.2.619.585-.124-.494-.275-.8-.521-.851s-.587.164-1.086.711c.514-.553.869-.776,1.141-.742s.459.325.64.8c-.165-.444-.336-.707-.577-.724s-.551.213-.99.755c.437-.563.745-.815.992-.811s.432.263.626.721c-.4-1.059-.769-1.328-1.743-.111.908-1.391,1.208-1.3,1.746-.091-.292-.714-.525-1.15-.854-1.259s-.756.107-1.312.841c.5-.849.867-1.179,1.217-1.122.254.01.49.408.845,1.162a8.824,8.824,0,0,0-.633-1.285c-.214-.305-.43-.492-.347-.482-.667-.245-1.035-.292-.548.125-.494-.427-.131-.39.547-.153-.1-.022.109.156.33.456a9.516,9.516,0,0,1,.628,1.259c-.363-.773-.6-1.188-.831-1.217-.4-.1-.783.176-1.205,1.061.237-.616.6-.815,1-.806.176-.117.4-.028.6.2a4.625,4.625,0,0,1,.626,1.1c-.619-1.311-.882-1.42-1.668.051.893-1.275,1.264-.968,1.808.148-.438-.919-.7-1.028-1.118.147.511-1.011.872-.737,1.266,0-.22-.472-.408-.487-.59.182.259-.577.524-.471.773-.1-.1-.262-.221-.261-.315.109.147-.391.318-.411.557-.239-.14-.408-.21-.622.131-.365-.315-.192-.216.091-.142.521-.108.135-.24.416-.515.862.276-.275.41-.385.371-.3a7.69,7.69,0,0,1-.608.8c.317-.392.489-.621.432-.625a4.449,4.449,0,0,0-.736.516c.3-.361.5-.647.4-.71-.055-.052-.182-.049-.387,0a4.037,4.037,0,0,1-.758.177,2.986,2.986,0,0,0,.608-.319c.153-.092.223-.117.219-.053a.429.429,0,0,0-.472-.237,5.42,5.42,0,0,0-.967.239,4.706,4.706,0,0,1,.8-.4c.19-.047.292.036.327.277-.1-.363-.264-.568-.544-.593a2.558,2.558,0,0,0-1.2.408,2.55,2.55,0,0,1,1.2-.407c.28.024.446.23.544.593-.034-.239-.136-.32-.326-.272a4.915,4.915,0,0,0-.793.4,5.558,5.558,0,0,1,.965-.23.428.428,0,0,1,.471.233c.016-.11-.274.129-.8.4a3.216,3.216,0,0,0,.742-.164c.2-.054.331-.058.385-.008s.029.137-.06.287-.246.358-.3.449a2.862,2.862,0,0,1,.724-.468c.066.017-.092.264-.36.66.321-.428.531-.706.579-.769s-.067.088-.31.438a8.765,8.765,0,0,0,.464-1.05c.029-.3.006-.507.2-.508-.206-.053-.2.1-.194.36-.135.045-.267.206-.509.484.194-.235.279-.352.262-.291-.1-.1-.312-.022-.66.251.277-.351.412-.507.476-.383-.23-.449-.532-.617-.864.021.24-.8.449-.787.724-.213-.444-.872-.822-1.179-1.481-.048.551-1.329.821-1.219,1.336-.133-.305-.641-.55-1.038-.858-1.114s-.682.168-1.225.832c.483-.762.8-1.1,1.067-1.076s.482.415.8,1.144a5.139,5.139,0,0,0-.637-1.19c-.213-.255-.446-.371-.517-.236-.568-.113-.975.025-1.038.8.064-.772.471-.909,1.038-.8.073-.134.307-.016.519.239a5.114,5.114,0,0,1,.636,1.192c-.317-.725-.537-1.113-.8-1.133s-.573.323-1.051,1.081c.541-.656.911-.9,1.218-.822s.549.468.849,1.1c-.494-1.047-.758-1.147-1.265.148.624-1.083,1.005-.772,1.425.049-.216-.452-.393-.4-.62.26.332-.483.614-.369.795-.029,0-.011-.107.2-.365.563.346-.272.54-.4.628-.372.077,0,.049.165-.045.468a3.028,3.028,0,0,1,.384-.688,1.075,1.075,0,0,1,.485-.4c-.267.03-.38.129-.375.409a6.773,6.773,0,0,0,.328,1.466c-.235-.574-.374-.847-.468-.81s-.144.382-.2,1.046c.122-.375.173-.524.121-.452a4.714,4.714,0,0,0-.368.769c.107-.365.212-.6.162-.6s-.255.213-.393.477c.068-.328.2-.61.125-.669s-.368.107-.608.229c.14-.294.329-.631.234-.758-.047-.064-.165-.074-.346-.047s-.424.092-.689.11a1.981,1.981,0,0,0,.651-.144c.185-.054.295-.055.331,0s0,.161-.1.325-.28.384-.23.384c.274-.117.574-.282.643-.215s-.1.363-.163.661c.168-.142.427-.3.522-.263s.027.283-.037.635a2.146,2.146,0,0,1,.369-.677c.07-.052.058.1,0,.473.028-1.262.133-1.326.686-.254-.469-1.451-.49-1.763.425-1.551-.951-.174-.971.105-.622,1.517-.262-.608-.432-.935-.585-.966s-.288.233-.473.8c.185-.509.259-.792.175-.852s-.325.1-.746.462c.32-.5.461-.8.409-.882-.13-.256-.454-.3-.976.075.4-.563.6-.717.73-.351-.18-.4-.378-.661-.653-.7s-.624.143-1.105.64c.408-.6.686-.889.9-.894s.371.276.534.8c-.224-.63-.439-1.013-.781-1.087a.9.9,0,0,0-.618.135,2.779,2.779,0,0,0-.4.272,6.05,6.05,0,0,0-.472.423,6.086,6.086,0,0,1,.471-.425,2.833,2.833,0,0,1,.4-.272.9.9,0,0,1,.617-.137c.341.074.556.455.78,1.087-.165-.535-.32-.819-.54-.818s-.5.29-.917.9c.486-.509.838-.7,1.113-.659s.476.308.66.713c-.155-.436-.373-.33-.783.3.521-.454.851-.384,1-.068a2.562,2.562,0,0,1-.487.772c.441-.345.682-.5.742-.444s-.06.318-.329.791a3.535,3.535,0,0,1,.584-.7c.068-.024.02.159-.1.537a9.823,9.823,0,0,1,.345-.93.652.652,0,0,1,.35-.346.629.629,0,0,0-.328.379c-.078.2-.151.5-.287,1.008.107-.382.151-.557.094-.511a5.641,5.641,0,0,0-.49.795c.225-.471.334-.727.273-.75s-.293.189-.657.561c.289-.452.447-.745.38-.822s-.358.06-.863.356a5.777,5.777,0,0,0,.562-.7.577.577,0,0,0-.5-.371,1.587,1.587,0,0,0-.926.388c.318-.375.554-.588.727-.624s.285.107.364.426c-.168-.465-.369-.753-.689-.8s-.756.144-1.387.611c.62-.478,1.047-.682,1.357-.639s.5.335.66.815c-.1-.378-.227-.565-.432-.547s-.485.242-.866.661a1.675,1.675,0,0,1,1.033-.462c.255.019.427.2.551.487-.034-.178-.261.057-.746.481a4.3,4.3,0,0,1,.685-.261c.168-.039.272-.025.315.047.03.04,0,.135-.089.289s-.236.365-.346.534c.4-.313.667-.493.736-.432s-.059.364-.269.833c.322-.339.56-.529.7-.5s.183.277.2.733c-.012-1.195.121-1.173.766-.106-.486-1.325-.461-1.605.693-1.268-1.07-.065-1.106.167-.838,1.242-.171-.321-.266-.432-.345-.335a3.248,3.248,0,0,0-.244.907c.069-.335.1-.468.067-.416a3.631,3.631,0,0,0-.216.653c.207-.561.187-.5-.047.081.119-.384.044-.4-.247-.1-.057-.522.012-.685.087-.132-.15-.464-.2-.8-.336-.907s-.355.042-.409.223c.054-.181.27-.319.409-.221s.187.444.338.908c-.074-.543-.141-.37-.078.145.291-.274.377-.245.286.131.23-.549.257-.6.071-.065a3.225,3.225,0,0,1,.225-.618c.035-.049.016.072-.044.383.217-.951.27-1.146.691-.584-.313-.984-.257-1.214.937-1.166-1.2-.058-1.267.138-.9,1.082-.487-.612-.547-.475-.687.494.011-.38,0-.551-.053-.519a2,2,0,0,0-.284.68c.072-.373.116-.572.069-.569s-.183.206-.3.528c.016-.333.056-.575-.063-.631s-.4.081-.539.148c.014-.249.178-.545.1-.617s-.4.079-.647.121c-.093.06.087-.157.2-.328.1-.152.135-.259.093-.311s-.162-.051-.362,0-.483.163-.667.072c.184.092.467-.016.667-.071s.32-.055.362,0,.008.161-.092.313c-.115.173-.3.391-.2.329.246-.035.564-.181.642-.106s-.085.374-.086.619c.121-.048.4-.167.525-.112s.075.306.073.62c.108-.283.253-.469.312-.473s.029.176-.031.52a2.01,2.01,0,0,1,.329-.727c.084-.062.146.064.23.382-.179-1.075-.067-1.112.585-.23-.515-1.18-.49-1.442.633-.958-1.086-.193-1.133.017-.86.98-.451-.836-.419-.639-.133.368-.359-.716-.464-.624-.5.224.143-.541.108-.36-.113.322.167-.369.148-.238-.044.2.18-.246.186-.188.019.09.118-.1.065,0-.09.2.071-.1.039-.112-.057-.042.038-.214.013-.345-.1-.279-.112-.219-.035-.4.08-.223-.171-.478-.3-.6-.333-.261.029-.343.162-.214.333.264-.117-.163-.2.022-.078.236.1-.033.124.124.108.336.068-.012.1.03.062.1.126-.114.186-.195.091-.155.147-.164.135-.193-.035-.059.178-.273.2-.383.037-.191.221-.471.263-.64.116-.257.24-.755.293-.959.288-.433-.074-.911.032-.982.53-.247-.4-1.029-.4-1.249.381-.57-.78-.675-.778-.448-.394.586-.489-.714-.6-.623-.551.275-.1-.663-.047-.52.1.179-.174-.378-.26-.2-.343.292.137-.287.1-.08-.115.328.169-.051.16.1.022.32.162-.01.194.052.124.181.082-.024.039.062-.061.2.025,0-.008.056-.029.125-.062.064-.1.088-.062.017-.088,0-.1-.034-.041-.111-.079-.028-.088-.1-.052-.2a.428.428,0,0,1-.056-.254c-.02-.185-.027-.329-.08-.33.053,0,.059.15.081.339a.4.4,0,0,0,.059.283c-.055.124-.049.213.057.249-.1.1-.093.151.036.149-.081.152-.044.177.082.084-.052,0-.008-.019.1.015-.015-.124.034-.2.092-.138a.382.382,0,0,0-.187-.124c.006-.086,0-.129-.055-.143.045-.094.045-.16-.039-.18.1-.165.11-.3-.024-.3.172-.289.2-.448.027-.31.216-.474.241-.651.068-.275.217-.736.235-.919.088-.345.147-.6.131-.443-.089.3.182-.427.16-.269-.052.253.168-.211.146-.058-.044.272.15-.04.132.1.01.3.1.011.093.091.029.2.056.037.054.1.048.2a.376.376,0,0,0,.108.253c0,.062.063.088.265.139-.187-.018-.247.1-.145.249-.241.008-.319.05-.181.023-.227.128-.239.185.013.126-.32.11-.378.1-.107-.07-.286.174-.313.093-.058-.213-.3.062-.286-.019-.016-.208-.244-.021-.236-.148-.045-.364-.191.216-.2.35.045.38-.28.2-.3.3.016.246-.319.243-.3.334.074.242-.359.214-.373.247-.016.061-.313.264-.256.309.126.141-.309.189-.293.165.025-.045-.214.17-.125.156.246.028-.2.023-.117-.065.315-.115-.413.012-.479.065-.278.063-.343.044-.418.032-.245-.078-.235.127-.286.069-.147-.177-.247.068-.23.027.012-.08-.24-.023-.257-.113-.081-.273-.182-.005-.171-.082-.022-.219-.135-.044-.134-.148-.052-.289a.275.275,0,0,1-.052-.278c-.027-.162-.028-.289-.061-.286.032,0,.032.127.061.291a.268.268,0,0,0,.051.289c-.095.15-.1.261.049.307-.17.148-.187.233.018.233-.207.181-.191.279.081.284-.279.144-.3.194-.015.095-.18.3-.13.375.15.2-.211.18-.135.2.24.085-.227.1-.156.07.283-.013a2.847,2.847,0,1,1-.3.091c-.409.2-.5.221-.263-.019-.381.356-.427.458-.11.262-.461.243-.557.188-.189-.188-.424.211-.45.428-.134.6-.43-.121-.518-.283-.036-.39-.439.375-.457.3.051-.177-.535.2-.489.149.088-.166-.5.143-.472.022.054-.336-.526.358-.558.482-.058.348-.585.321-.64.383-.107.206-.523.486-.524.6-.123.338-.506.078-.408.247.01.408-.354-.183-.387-.375.09-.558-.386.171-.262.35.105.417-.135-.137-.027-.386.281-.664-.158.194-.117.358.074.435a2.462,2.462,0,0,1,.69-.256,2.733,2.733,0,0,0-.718.273c-.224-.073-.3-.239-.125-.448-.452.541-.512.727-.231.7-.5.186-.653.163-.335.084-.35.3-.452.319-.193.343-.391-.09-.419-.177.12-.306-.507-.187-.446-.415.341-.963-.77.149-.8.409-.219.825-.676-.126-.746-.1-.156.2-.56.12-.559.233-.194.437-.291-.085-.219-.08.077-.076-.284-.2-.15-.163.233-.088-.255-.293-.262-.55.22-.809-.436.053-.327.2.082.353-.154-.075-.005-.137.3-.221-.208.153-.072.026.468-.349-.53.372-.662.505-.464.371-.309.093-.464.163-.328.254-.415-.141-.538-.261-.118-.273-.464.421-.466.622-.229.881-.369.009-.5.075-.386.379-.269-.047-.412.084-.376.446-.267-.177-.356-.122-.256.212-.209-.33-.229-.38.009-.135-.195-.485-.131-.674.4-.609-.534-.065-.616.144-.457.665-.259-.219-.279-.125-.112.25-.149-.287-.112-.292.085-.029-.068-.358.024-.447.283-.295-.026-.4.116-.555.418-.534-.133-.323,0-.406.408-.452-.262-.256-.239-.475.276-.959-.524.49-.556.716-.3.994-.415.042-.547.136-.427.486-.335-.012-.5.174-.521.633-.268-.147-.391-.021-.335.3-.259-.148-.338-.1-.219.083-.234-.19-.27-.243-.1-.024-.2-.441-.186-.611.082-.382-.277-.18-.306.043-.131.436-.206-.072-.207.025.074.028.027-.2-.1-.071-.4.29.317-.373.469-.514.459-.312-.175-.1-.1-.246.161-.137-.082-.513.031-.773.482-.7-.408-.187-.492-.006-.375.529-.272-.214-.342-.074-.233.258-.237-.1-.3,0-.1.069,0-.193-.167-.041-.481.319.292-.339.434-.468.436-.293-.059-.137-.263.027-.58.344.257-.308.4-.464.413-.316-.092-.181-.321-.058-.661.239.23-.333.348-.491.287-.265-.009-.336-.2-.286-.541.094.259-.479.364-.627.253-.2.111-.422,0-.273-.262.206.336-.379.517-.428.518-.094.039-.209-.1-.036-.328.282.317-.272.55-.4.668-.242-.013-.247-.2-.1-.516.292.238-.188.353-.132.373.21,0-.337-.1-.388-.32-.2.335-.392.548-.539.6-.3-.07-.23-.3-.077-.654.31.19-.175.265-.115.255.2-.056-.318-.2-.375-.435-.22.267-.365.436-.517.421-.277-.069-.253-.321-.113-.637.231.147-.161.232-.119.262.128a.359.359,0,0,0-.552-.168c.17-.338.331-.5.347-.23-.408-.1-.608.011-.638.187-.072-.236.028-.405.281-.3-.316-.18-.478-.084-.564.126.09-.249.257-.383.551-.158-.326-.209-.509-.061-.607.173.091-.188.267-.289.613-.134-.256-.209-.387-.073-.393.223.037-.127.2-.094.639.144-.17-.216-.327-.227-.436-.07.209-.306.465-.443.579-.174-.028-.247-.2-.087-.368.236.193-.111.385-.058.538.187-.062-.243-.162-.293-.313-.158.284-.333.517-.479.565-.237-.051-.242-.286-.094-.568.239.15-.131.253-.078.32.167-.152-.243-.339-.3-.527-.187.174-.314.348-.468.38-.23-.123-.246-.388-.1-.593.193.092-.113.244-.08.438.118-.479-.233-.654-.267-.685-.168-.007-.279.13-.424.412-.259-.042-.39-.276-.251-.569.134-.024-.2-.107-.159-.221.048.077-.082.241-.072.72.107a.571.571,0,0,0-.722-.063.316.316,0,0,0-.425-.115c.133-.169.232-.221.287-.054.257-.4.47-.577.514-.132-.134-.4-.428-.189-.742.135a1.015,1.015,0,0,0-.622-.025c.194-.058.342-.107.455-.036.262-.363.488-.607.555-.153-.114-.47-.388-.243-.711.1a1.139,1.139,0,0,0-.629-.057c.254-.027.447-.061.58.03.315-.369.568-.613.655-.108-.058-.521-.283-.3-.576.1-.092-.156-.252-.141-.5-.068.3-.069.5-.081.646.1.343-.4.626-.609.738-.083-.127-.524-.426-.316-.785.076-.165-.171-.39-.16-.7-.113.242-.053.4-.071.485.059.288-.383.5-.617.55-.1.016-.688-.117-.531-.395.047.011-.323-.123-.225-.338.038a3.474,3.474,0,0,0-.662-.025,5.833,5.833,0,0,1,.639.035c.324-.3.592-.539.7-.088-.094-.44-.346-.192-.649.117-.151-.02-.353.022-.593.016a6.6,6.6,0,0,1,.7.017c.206-.241.345-.334.365-.045.255-.53.391-.677.406-.058-.065-.436-.286-.19-.543.157a.783.783,0,0,0-.454.043,1.322,1.322,0,0,1,.656.019c.321-.322.623-.533.763-.135-.038-.453-.245-.276-.5.128-.047-.181-.141-.134-.274.044.164-.1.291-.06.421.115a.514.514,0,0,1,.714.049c-.451-.186-.6-.195-.673-.1.119-.228.194-.264.2-.037.3-.4.526-.539.557-.131-.032-.409-.263-.272-.562.129-.009-.23-.087-.2-.21.033.071-.1.223-.094.668.09a.53.53,0,0,0-.732-.048.335.335,0,0,0-.461-.122c.143-.172.241-.219.292-.039.253-.409.458-.591.494-.127-.154-.413-.469-.2-.812.118a2.043,2.043,0,0,0-.726-.035,1.4,1.4,0,0,1,.46-.04c.254-.324.462-.57.514-.15-.01-.608-.169-.459-.46.034-.023-.249-.178-.155-.391.039a6.859,6.859,0,0,1-.8.051,1.764,1.764,0,0,0,.617-.031c.254-.163.487-.342.6-.113-.012-.374-.18-.264-.435.013-.062-.1-.211-.034-.378.051a2.9,2.9,0,0,1-.8.078,2,2,0,0,0,.694-.055c.254-.091.515-.226.676-.1-.181-.141-.463-.019-.735.056a1.928,1.928,0,0,1-.724-.008,2.447,2.447,0,0,0,.748-.118c.18-.12.329-.207.35-.047.3-.389.47-.53.451.015-.111-.388-.369-.185-.672.022a2.236,2.236,0,0,1-.61-.054c.285.032.554,0,.745.039.253-.253.407-.352.379,0,.348-.62.514-.783.515.021.01-.806-.144-.644-.484-.014.038-.372-.108-.275-.362,0a4.092,4.092,0,0,0-.718-.077c.238.05.448.04.59.065.317-.259.565-.482.666-.014.01-.645-.166-.494-.488-.031-.009-.218-.166-.124-.368.024a3.447,3.447,0,0,1-.777.123,1.691,1.691,0,0,0,.653.065,1.6,1.6,0,0,1,.65-.041,2.334,2.334,0,0,0-.641.1,3.013,3.013,0,0,1-.866,0c.226-.022.282-.188.085-.521a.673.673,0,0,1,.022.477.941.941,0,0,1-.3.4,1.362,1.362,0,0,1,.875,1.155,1.339,1.339,0,0,0-1.007-1.1c.136-.224.075-.377-.213-.638.262.281.3.454.121.752.4.237.6.6.672,1.412-.068-.811-.254-1.173-.644-1.411a.542.542,0,0,0-.028-.784c.283.272.322.421.171.6a1.437,1.437,0,0,1,1.17.855,1.334,1.334,0,0,0-1-.9,1.018,1.018,0,0,0,.383-.362.648.648,0,0,0,.066-.468c.141.339.026.5-.257.479a2.731,2.731,0,0,0,.862-.035c.283-.1.538-.239.646-.094-.129-.157-.379-.025-.632.069a1.61,1.61,0,0,1-.657-.021,3.735,3.735,0,0,0,.775-.075c.21-.167.364-.26.364-.025.324-.48.495-.631.481.018-.081-.47-.315-.242-.626.044a5.365,5.365,0,0,0-.573-.071,2.37,2.37,0,0,1,.728.1c.25-.287.395-.381.364-.006.32-.626.467-.782.451-.012.028-.772-.105-.617-.412.021.041-.39-.091-.3-.336.01-.139-.116-.378-.1-.681-.118.27.018.476,0,.585.094.333-.346.568-.587.646-.042.025-.736-.124-.578-.448,0,.035-.323-.1-.229-.338.014-.171-.04-.421-.015-.7-.056.249.048.471.031.626.051.324-.266.581-.494.686-.028.022-.647-.141-.5-.459-.015.008-.242-.138-.151-.347.021a3.151,3.151,0,0,1-.735.024,1.82,1.82,0,0,0,.667,0c.3-.177.568-.375.686-.039.016-.493-.158-.362-.451-.016-.036-.134-.191-.052-.368.051a3.975,3.975,0,0,1-.8.171,3.974,3.974,0,0,0,.614.139c.208.032.42.057.634.1-.185,0-.394,0-.636-.014a8.118,8.118,0,0,1-.832-.09c.191-.077.205-.244-.038-.565a.683.683,0,0,1-.164.888,1.452,1.452,0,0,1,.706,1.326,1.456,1.456,0,0,0-.914-1.3c.017-.256-.187-.41-.57-.634.318.243.455.416.345.733.225.282.2.706.09,1.472.078-.772.067-1.2-.2-1.491-.008-.313-.275-.481-.755-.7.475.213.737.372.74.666.255.272.251.677.148,1.4.117-.743.135-1.165-.087-1.5a.8.8,0,0,0-.053-.5,1.582,1.582,0,0,0-.362-.512c.412.3.659.5.723.561a3.119,3.119,0,0,0,.756.054.742.742,0,0,0,.448-.155c-.14.155-.511.161-1.027-.046a.389.389,0,0,0,.094-.291c.005-.267-.025-.527-.137-.393.231.145.3.413.222.41a3.46,3.46,0,0,1,.81-.01c.2-.228.322-.363.23-.082.392-.5.568-.585.465.127-.1-.69-.332-.42-.642-.042a1.323,1.323,0,0,0-.712-.051c.1-.079.177-.143.219-.1.051-.4.072-.682.024-.243.064-.453.057-.18.012.23-.024-.092-.085-.047-.181.051.295-.08.554-.106.708.088.239-.355.35-.509.186-.084.465-.661.653-.742.557.172.095-.913-.1-.832-.56-.173.161-.423.048-.267-.19.084-.158-.188-.422-.16-.721-.081.09-.095.143-.14.162-.058.031-.394.028-.661-.041-.246.05-.4.032-.112-.01.265-.042-.02-.11.051-.211.12a2.647,2.647,0,0,1,.72.035c.293-.319.517-.575.6.016.1-.617-.064-.532-.419-.1.063-.222-.062-.1-.243.086-.228,0-.514.039-.845.044a1.079,1.079,0,0,0-.441-.411c.148-.031.2.215.208.442a.809.809,0,0,1-.085.469.92.92,0,0,1,.437.979c.034-.444-.168-.656-.6-.861a.7.7,0,0,0-.257-.318,6.494,6.494,0,0,0-.584-.4,2.341,2.341,0,0,1,.451.472.555.555,0,0,1,.083.455c.083.321-.122.732-.537,1.426.393-.685.576-1.086.456-1.367,0-.29-.3-.459-.879-.68.578.228.881.4.884.707.125.293-.051.715-.428,1.434.36-.717.518-1.137.376-1.424-.045-.294-.391-.455-1.038-.656.607.2.913.352.9.617.038.262-.24.632-.8,1.256.554-.629.828-1,.786-1.275,0-.273-.309-.442-.925-.659.647.213.99.379,1.027.661.117.277-.073.672-.491,1.342.425-.683.622-1.089.516-1.4-.013-.312-.329-.524-.93-.818.59.27.9.458.887.71.068.25-.177.563-.688,1.081.526-.539.786-.872.764-1.2a.733.733,0,0,0-.068-.513,1.293,1.293,0,0,0-.473-.554,1.964,1.964,0,0,1,.665.393,1.285,1.285,0,0,0,.357.121,2.2,2.2,0,0,0,.66-.1c.179-.209.317-.428.373-.241-.041-.2-.163,0-.32.21a5.782,5.782,0,0,1-.582.018c.009-.083-.022-.183-.107-.181-.021-.361-.1-.621-.358-.395a.724.724,0,0,1,.592.44c.286-.135.523-.193.722-.039.146-.285.247-.475.11-.225.409-.453.58-.465.472.244.117-.718-.045-.715-.459-.247.162-.278.072-.091-.078.221-.168-.229-.382-.2-.641-.021.07-.2.021-.56-.16-.428.211-.163.29.167.24.385.275-.239.5-.276.664.061.19-.4.282-.608.06-.216.506-.6.7-.605.58.305.118-.91-.074-.907-.58-.306.222-.392.13-.186-.061.216-.163-.338-.391-.3-.666-.061.047-.22-.035-.55-.251-.387.184-.134.234.227.165.428.257-.18.468-.213.636.018.147-.31.236-.5.074-.226.41-.462.57-.462.454.248.107-.7-.062-.692-.468-.246.137-.246.037-.055-.107.231-.2-.159-.432-.1-.717.038a.729.729,0,0,0-.609-.448c.272-.237.349.021.368.393.092-.018.126.077.118.169.232-.017.422-.037.58-.031.158-.249.285-.471.329-.2-.062-.262-.206-.028-.388.223a4.6,4.6,0,0,1-.66.1,3.3,3.3,0,0,1-.375-.122,1.528,1.528,0,0,0-.687-.409,1.125,1.125,0,0,1,.487.541.663.663,0,0,1,.068.484c0,.3-.28.563-.846.975.545-.4.8-.652.749-.884,0-.232-.313-.445-.914-.765.6.338.912.567.913.843.055.276-.2.6-.736,1.122.518-.522.756-.843.681-1.108-.038-.265-.389-.474-1.048-.772.613.287.917.486.894.713s-.359.484-1.04.888c.669-.416,1-.684,1.005-.934s-.3-.479-.915-.816c.637.307.97.508.984.687s-.268.34-.886.568c.614-.251.9-.434.891-.66a.606.606,0,0,0-.227-.383,4.9,4.9,0,0,0-.664-.518,6.785,6.785,0,0,1,.657.444c.148.117.225.2.23.258.017.116-.256.124-.833.068.576.015.849-.033.865-.219a.4.4,0,0,0-.172-.334.823.823,0,0,0-.59-.533.79.79,0,0,1,.678.456c.2,0,.314.054.35.148.23-.1.266-.36.047-.385.226-.025.2.182-.011.293.012-.2-.062-.3-.279-.19,0-.421-.131-.643-.6-.49.475-.172.619.032.61.465.239-.156.328-.084.316.16.275-.219.379-.478.26-.3.131-.236.039-.036-.219.225.021-.4-.124-.741-.766-.634.693-.175.89.1.937.573.266-.475.4-.531.445-.016.112-.4.2-.647.091-.53.277-.234.355-.1.313.418.041-.519-.036-.656-.315-.422.112-.12.022.131-.09.529-.045-.526-.176-.472-.444.012a.728.728,0,0,0-.219-.545.792.792,0,0,0-.706-.029c.646-.138.79.2.769.622.276-.3.388-.5.3-.217.079-.239-.045.012-.338.272-.041-.3-.25-.6-.91-.626.5-.227.626-.007.588.479.24-.177.318-.088.292.18.25-.19.329-.412.168-.27.15-.1.062.159-.206.329-.016-.177-.121-.242-.352-.16-.048-.336-.223-.524-.656-.47a.489.489,0,0,1,.582.508.2.2,0,0,1,.213.237c.053.058-.113-.032-.531-.243a2.465,2.465,0,0,1,.488.312c-.016-.064-.1-.148-.268-.211a.972.972,0,0,0-.636-.481.994.994,0,0,1,.625.5c.158.084.231.181.241.247.041.1-.161.038-.618-.167.436.234.621.319.555.246a1.5,1.5,0,0,0-.286-.218,4.159,4.159,0,0,0-.668-.457c.548.388.828.638.829.769s-.276.143-.867.082c.583.037.852.007.843-.133s-.3-.391-.856-.763c.551.367.833.611.836.743s-.272.151-.859.1c.578.029.845-.014.844-.171s-.267-.431-.812-.792c.552.326.826.564.849.669.036.076-.179.018-.663-.176.477.158.684.181.65.09,0-.165-.244-.444-.8-.733.564.26.814.511.826.66.077.009-.084-.081-.52-.277.428.153.583.2.5.193.022-.23-.194-.518-.779-.709.588.147.808.391.786.623.147-.115.052-.242-.388-.321.431.019.517.086.345.22.077-.349-.1-.631-.729-.669.623-.026.8.193.7.564.252-.289.223-.427-.253-.3.455-.186.465-.107.163.2.147-.461-.018-.7-.675-.595.788.156.9.361.187.263.755.115.657-.04-.164-.213.645-.021.811.262.692.669.189-.151.094-.179-.348-.171.448.072.55.18.4.3.044-.254-.164-.5-.747-.616.581.154.786.43.746.681.1-.027-.044-.08-.477-.209.434.16.579.243.482.265.008-.187-.227-.435-.789-.647.546.234.765.5.74.7.042.058-.16.037-.626-.118.472.19.677.24.635.185,0-.138-.251-.383-.792-.664.524.3.758.552.739.7,0,.1-.243.1-.779-.016.525.1.762.087.748-.021.016-.166-.22-.428-.748-.709.51.253.727.485.693.636.014.062-.225.042-.735-.093.482.085.7.056.667-.015.054-.217-.141-.477-.651-.673.515.154.714.37.656.579.089-.04-.078-.088-.521-.219.429.1.586.112.479.153.08-.262-.1-.5-.628-.606.507.09.671.306.569.56.1-.061-.064-.084-.5-.175.416.069.564.07.442.128.1-.275-.069-.491-.575-.566.47.057.6.256.472.516.088-.048-.09-.037-.5-.1.405.025.575-.024.465.027.162-.316.044-.533-.448-.539.72.178.82.381.128.272.677.011.563-.292-.141-.4.656.008.722.211.078.258.624.042.524-.19-.156-.345.559-.229.54-.379-.1-.287.613-.112.6.017.047.247.592.094.633.29.059.309.573-.02.531-.216-.061-.31.557-.232.563-.363-.051-.252.639-.091.659.06.1.29.675.152.774.383.151.345.638-.054.572-.259-.08-.262.692.1.8.4.125.4.684.094.587-.114-.121-.279.481,0,.592.211.424.524.108-.048-.063.008-.46-.009.416.061.6.051.525.1.14-.253.014-.446-.451-.5.517.09.7.318.6.593.114-.04-.042-.032-.463-.111.436.121.606.156.517.194.066-.211-.126-.42-.627-.561.488.184.669.435.6.654.02.078-.206.124-.7.07.516.093.76.087.752.018.047-.164-.159-.389-.649-.62.5.257.71.508.671.687-.005.118-.262.163-.81.12.549.049.806.012.811-.1.034-.167-.184-.413-.68-.678.487.25.7.481.654.639,0,.092-.26.113-.8.042.513.038.751-.013.746-.116.052-.2-.138-.446-.616-.663.491.181.694.4.647.581.061.007-.129-.014-.572-.147.431.1.608.084.53.076.066-.238-.124-.471-.626-.611.456.112.6.316.494.535a2.869,2.869,0,0,1-.6-.061c.416.036.607-.021.538-.023.128-.274,0-.495-.47-.56.479.017.621.19.478.469.151-.118.016-.13-.395-.156.4-.019.532-.052.352.071.188-.352.069-.548-.442-.5.653.109.71.323.038.294.614-.052.5-.348-.135-.4.538-.009.557.221-.012.337.57-.112.553-.34.014-.332.637.065.755.366.136.411.68.045.625-.164-.034-.29.514-.032.639.171.462.517.171-.111.038-.079-.367-.073.415.045.557.065.419.171.129-.264-.021-.442-.5-.481.472.094.616.325.505.588.055.025-.143.081-.577.039.442.081.649.062.611.038.083-.2-.078-.414-.532-.558.484.163.675.391.618.607.061.029-.127.047-.563-.049.451.119.654.124.61.1.056-.191-.135-.414-.618-.6.5.2.7.445.665.645.044.057-.157.071-.617-.034.472.138.683.158.647.107.019-.147-.208-.365-.7-.606.483.28.7.537.67.714-.013.148-.272.215-.83.21.57.045.84.018.853-.1s-.226-.347-.712-.655c.507.337.768.587.763.749s-.276.236-.866.257c.6.005.881-.042.884-.177s-.275-.357-.8-.692c.512.351.778.59.759.756s-.322.263-.957.337c.656-.042.977-.11,1-.254s-.257-.363-.8-.706c.556.348.849.571.843.717s-.312.214-.953.253c.648-.054.96-.138.985-.312s-.236-.436-.759-.816a3.477,3.477,0,0,1,.881.63c.039.069-.18,0-.673-.2.491.144.709.159.684.063.009-.17-.225-.451-.778-.733.573.25.828.5.849.655.1-.012-.039-.119-.462-.3.427.138.568.2.475.221.031-.251-.171-.549-.77-.707.624.11.852.359.854.627.206-.19.186-.36-.209-.317.394-.048.414.117.205.309,0-.28-.22-.534-.849-.633.6.138.8.43.765.692.108-.048-.019-.127-.449-.244.42.145.538.251.422.291-.009-.19-.252-.444-.833-.657.556.233.774.508.75.7.046.047-.15.01-.609-.161.452.2.638.253.577.207-.015-.139-.277-.382-.826-.663.5.292.715.545.675.7-.022.122-.3.145-.872.082.539.039.787,0,.788-.131.021-.162-.2-.406-.69-.683.483.262.707.49.686.64.009.094-.227.11-.742.029.5.06.715.024.689-.078.014-.167-.215-.4-.693-.646.426.231.6.448.547.606-.027.114-.287.169-.815.162.509-.029.749-.12.761-.246.058-.2-.111-.429-.536-.63.422.153.59.338.521.513.032.029-.172.048-.607-.02.412.021.593-.046.534-.084.087-.234-.068-.439-.492-.545.376.064.482.226.358.435a1.228,1.228,0,0,1-.514.04c.349-.038.513-.137.438-.151.145-.267.052-.448-.333-.463.55.111.6.324,0,.339.554-.12.471-.438-.054-.488.467-.035.494.2,0,.365.521-.042.477-.295-.052-.448.4-.282.312-.464-.27-.494.584.011.673.173.27.455.548.085.6.291.1.356.49-.094.424-.33-.132-.417.385-.37.28-.591-.376-.7.645.1.739.3.35.667.525.048.567.254.107.383.449-.157.395-.392-.141-.448.369-.433.256-.686-.432-.888.687.186.8.424.419.849.543.013.6.215.156.4.431-.218.368-.448-.191-.475.374-.481.253-.758-.462-1.03.707.259.821.523.437.99.545,0,.591.211.176.455.4-.271.345-.507-.219-.534.378-.5.25-.8-.459-1.126.7.317.827.6.439,1.089.563.011.615.228.219.521.385-.319.323-.564-.258-.6.433-.383.378-.526-.224-.508.467-.348.386-.534-.217-.683.7.356.829.652.432,1.157.6.017.672.243.282.585.449-.3.409-.508-.21-.51.477-.408.421-.552-.237-.517.51-.382.416-.583-.246-.753.674.327.716.57.186.871.337-.032.1-.008-.4-.022.51-.009.75-.057.4-.045.582-.33.569-.6-.147-.979.742.186.83.383.217.762.771-.048.841.085.246.523.807-.1.942.029.393.479.541-.439.4-.561-.4-.462.567-.426.49-.556-.253-.51.566-.369.467-.563-.233-.741.673.369.688.637.147.951.294.006.031.06-.468.066.492.009.748-.029.465-.023.5-.292.461-.538-.177-.873.633.171.737.368.253.734.654-.031.721.109.247.511.652-.015.721.173.263.494.458-.329.388-.525-.272-.515.477-.405.408-.548-.253-.527.482-.363.375-.563-.253-.743.619.339.647.583.147.859.239.011-.049.053-.563.043.494.011.762-.029.528-.049.429-.254.356-.487-.2-.815.5.185.612.38.245.7.524.026.571.174.2.5.424.084.335.311,0,.594.333-.3.415-.542-.02-.646.375-.331.324-.487-.2-.533.367-.313.255-.515-.239-.722.533.322.593.537.153.743.225.01-.05.012-.544-.06.517.044.813.016.57-.014.544-.25.548-.5-.065-.884.665.219.773.418.211.755.756,0,.842.141.252.555.841-.068,1,.067.452.556.537-.507.371-.659-.486-.62.584-.406.49-.551-.259-.583.532-.319.411-.523-.211-.759.537.361.5.583-.01.768.141.046-.2.055-.755,0,.477.071.737.073.623.028.252-.123.13-.293-.236-.561.341.394.439.69.23.971-.032.225-.37.436-.98.666.6-.248.93-.478.958-.72.2-.3.1-.6-.228-1.01.326.234.422.372.184.454.079.031-.176.005-.623-.087.522.064.854.062.748,0,.49-.141.544-.339.069-.683.588.25.712.451.184.729.753.068.854.213.237.584.914-.009,1.1.135.534.692.572-.554.383-.7-.53-.684.618-.373.519-.517-.236-.581.533-.28.41-.481-.183-.73.485.349.435.551-.061.7.119.057-.208.059-.73-.007.455.1.715.121.621.091.264-.09.174-.236-.167-.481.364.416.477.733.253,1.047.021.236-.294.47-.881.725.6-.231.924-.441.909-.653.231-.3.121-.593-.258-.991.391.287.512.474.235.621.13.05-.138.061-.63.007.561.054.9.041.748,0,.5-.2.512-.422-.032-.772.6.223.725.43.232.766.7.022.788.173.264.583.759-.012.881.176.4.6.5-.4.386-.562-.352-.516.526-.412.449-.552-.253-.534.519-.355.412-.552-.236-.744.624.363.641.619.125.9.243.024-.047.073-.561.067.5.029.766,0,.539-.008.423-.24.349-.462-.2-.779.492.185.6.381.254.7.509.028.557.177.2.5.4.1.307.331-.029.611.293-.323.368-.571-.015-.664.328-.435.2-.715-.389-1.059.491.154.6.335.249.647.518.012.582.157.231.5.5.085.52.353.187.648.356-.255.353-.481-.116-.528.331-.445.195-.71-.447-1,.648.3.79.58.469,1.039.48.064.5.311.128.548.377-.213.369-.435-.095-.482.323-.421.191-.667-.444-.908.643.253.783.51.469.943.486.068.518.31.12.5.415-.155.4-.364-.072-.416.339-.363.223-.57-.387-.712.624.164.753.393.423.766.506.11.553.363.095.474.487-.06.468-.264-.031-.371.4-.243.319-.386-.226-.383.556.016.649.179.249.42.53.161.568.4.038.425.525-.033.487-.278-.038-.435.408-.256.329-.424-.236-.435.571-.006.657.145.246.4.557.1.617.3.1.344.5-.085.435-.328-.131-.422.4-.38.3-.613-.372-.725.665.082.75.283.337.656.545.007.591.186.124.339.462-.163.412-.35-.136-.359.406-.394.316-.61-.366-.727.69.139.789.377.393.778.563.069.63.3.143.414.492-.085.429-.289-.125-.357.394-.319.3-.5-.318-.549.607.06.7.256.307.574.52.116.56.354.068.427.491-.07.446-.308-.078-.428.365-.318.253-.518-.349-.6.586.068.683.249.315.563.479.071.491.274.047.386.416-.16.375-.408-.117-.492.305-.413.159-.663-.472-.895.613.214.741.445.423.841.435.052.426.269.055.471.354-.244.346-.5-.115-.584.3-.46.157-.743-.475-1.061.627.3.769.56.448,1,.467.047.469.271.127.54.383-.246.4-.47-.1-.525.371-.35.31-.487-.231-.471.363-.339.245-.526-.286-.678.563.3.621.527.206.8.173.023-.128.088-.666.125.508-.051.781-.127.6-.179.334-.254.216-.483-.284-.8.534.378.684.664.4,1.027.219.125,0,.326-.438.568.428-.27.638-.5.4-.656.293-.389.14-.706-.391-1.127.471.31.566.516.207.708.174.029-.107.044-.614,0,.543.023.857-.015.665-.056.5-.245.5-.492-.08-.858.618.208.733.407.23.743.7.005.787.147.255.551.763-.037.886.126.387.553.5-.445.378-.626-.4-.607.554-.411.473-.562-.252-.585.532-.335.422-.542-.211-.772.583.361.578.591.044.8.229.024-.072.028-.586-.047.487.085.762.091.547.071.434-.181.379-.388-.125-.709.465.219.573.423.214.716.51.07.553.229.179.539.4.131.277.378-.061.676.327-.307.437-.562.032-.709.352-.3.3-.463-.191-.549.308-.278.183-.481-.234-.7.413.3.433.481.055.62.06.049-.276.053-.832,0,.49.043.76.034.712-.025.2-.107.072-.263-.257-.509.288.369.371.647.2.9-.1.228-.45.428-1.061.642.6-.228.938-.441,1.03-.683.153-.259.057-.545-.229-.917.268.2.345.319.177.383a2.163,2.163,0,0,1-.818,0c.464.019.737,0,.782-.06.141-.077.055-.2-.206-.4.226.32.278.567.127.777a1.938,1.938,0,0,1-1.04.549,1.9,1.9,0,0,0,1.024-.612c.148-.229.1-.49-.114-.821.219.151.274.234.14.272a2.55,2.55,0,0,1-.737-.011,2.337,2.337,0,0,0,.739-.006c.136-.043.084-.128-.13-.279.21.328.259.59.109.823a1.928,1.928,0,0,1-1.02.636,1.89,1.89,0,0,0,1-.674.791.791,0,0,0-.107-.849c.359.22.122.193-.619.117.712.023.919,0,.579-.228a.534.534,0,0,1-.015.651,2.041,2.041,0,0,1-.938.486,1.97,1.97,0,0,0,.921-.518.592.592,0,0,0,.016-.678c.284.137.046.084-.593.015.617.008.833,0,.578-.151.154.371-.165.6-.96.82a2.444,2.444,0,0,0,.85-.382.425.425,0,0,0,.144-.5c.233.089.005.021-.568-.063.563.025.778.034.582-.086.029.119-.046.206-.213.277a3.879,3.879,0,0,1-.771.19,3.776,3.776,0,0,0,.792-.209c.177-.08.266-.178.257-.315.226.077.072,0-.36-.14a2.2,2.2,0,0,0,.657.038c.279,0,.4-.053.208-.195.551.244.616.2.144-.1.461.19.435.29-.074.264.223.06-.038-.006-.479-.135.515.2.808.273.534-.007.753.4.941.457.279.045.7.422.548.378-.229-.039.4.327.168.282-.366.021.54.259.774.3.373-.028.786.4.937.431.228.018.22.324.28.336,0-.032.563.182.389.27-.208.221.576.057.728-.023.2-.184.69.408.526.371-.245-.029.351.3.094.24-.422,0,.5.221.733.266.4-.029.686.32.8.3.181-.044.576.335.423.342-.243.03.255.115.13.142-.189.094-.031,0-.256-.077-.536-.178.414.124.606.146.468-.031.1-.007-.133-.213-.588-.564.454.4.667.6.524.551.028.039-.066.016-.239-.059s-.425-.2-.757-.369c.328.15.575.259.746.317s.267.06.247.012c.087-.033.058-.119-.078-.235a1.56,1.56,0,0,0-.468-.666c.48.517.689.786.593.792.05,0,0-.081-.11-.22s-.3-.341-.547-.6c.516.479.761.714.7.721.1-.046.105-.156.025-.319a2.521,2.521,0,0,0-.473-.63c.533.446.7.7.534.805.133-.069.154-.187.071-.343a1.568,1.568,0,0,0-.5-.539,1.71,1.71,0,0,1,.556.437c.1.131.082.236-.064.315.179-.1.228-.227.144-.375-.042-.125-.217-.27-.522-.425a1.3,1.3,0,0,1,.6.29c.1.112.052.219-.144.33.247-.162.342-.319.269-.476-.028-.126-.223-.251-.589-.364.406.061.64.135.693.224.1.12.009.257-.257.425.335-.208.49-.384.429-.547.008-.108-.2-.2-.613-.267.451-.022.7-.009.729.048.064.086-.085.215-.431.42.413-.268.63-.461.618-.6.015-.117-.2-.184-.653-.209a2.4,2.4,0,0,0,.837.015c.038-.017-.184-.067-.67-.114.53,0,.8.014.8.02a2.546,2.546,0,0,1-.721.084c.447.084.646.179.572.2,0,.111-.264.152-.75.127.507-.01.79-.076.8-.191.078-.04-.117-.127-.567-.18a3.856,3.856,0,0,0,.739-.133c-.008-.007-.28.008-.821.044.487.029.707.08.664.107a2.027,2.027,0,0,1-.846.039c.449.024.656.1.632.211.014.156-.2.357-.62.63.338-.2.477-.326.4-.413-.031-.048-.276-.057-.722-.029.408.065.61.161.595.262.074.17-.071.345-.4.541.264-.158.34-.293.236-.42-.049-.087-.279-.164-.675-.23.359.114.552.237.577.358.082.157-.005.31-.249.46.2-.108.245-.219.143-.34a1.239,1.239,0,0,0-.59-.307c.308.153.484.3.524.417.089.148.041.273-.144.372a.2.2,0,0,0,.082-.331,1.487,1.487,0,0,0-.552-.432,1.38,1.38,0,0,1,.509.492.216.216,0,0,1-.088.343c.131-.066.141-.172.047-.313a1.841,1.841,0,0,0-.529-.5c.551.416.7.669.489.807a.243.243,0,0,0,.121-.365,1.093,1.093,0,0,0-.492-.478,1.278,1.278,0,0,1,.571.365c.1.13.067.243-.119.342.213-.121.276-.257.186-.4-.034-.113-.22-.239-.552-.362.355.1.564.2.61.3.107.135.051.265-.179.4.256-.138.338-.276.238-.421-.016-.09-.213-.188-.571-.271.37.066.58.147.6.224.107.134.028.265-.236.406.272-.162.359-.314.26-.465-.027-.1-.241-.2-.626-.282.38.089.589.194.613.3.1.154.007.309-.263.469.244-.128.309-.251.2-.377-.035-.078-.246-.16-.6-.236.353.085.56.174.594.256.111.13.048.252-.191.375.269-.158.36-.315.266-.476-.018-.108-.22-.221-.6-.318.4.07.623.155.656.244.11.143.026.29-.255.451.323-.177.448-.341.354-.507.014-.085-.192-.173-.591-.231.419-.005.648.025.666.078.09.112-.032.248-.35.432.385-.247.574-.447.535-.622.031-.111-.167-.2-.593-.245.467.123.72.147.719.075.045-.025-.163-.144-.621-.309.537.011.826-.022.836-.082s-.257-.147-.831-.243c1.3-.109,1.39-.258.306-.683,1.255.141,1.341.007.74-.573.748.34.811.233.349-.316.546.375.567.307-.005-.17.666.369.727.344.223.031.55.369.535.449.107.256.338.482.262.69.03.994.207-.232.3-.422.049-.906.422.151.5.006-.036-.418.661.176.7.073-.123-.378.6.571.693.411.564-.608.062.934-.1,1.008-.859.309.793.656.98.542.96-.418.082.978-.041,1.11-.713.474.7.653.844.538.841-.419,0,1-.154,1.152-.832.558.793.464.663.574-.142.33.677.471.674.568.185.336.438.457.39.582.016.379.246.479.168.63-.191.8a.174.174,0,0,1,.019.281,2.624,2.624,0,0,1-.693.5c.289-.037.407-.009.305,0-.028.1-.276.186-.725.252.449-.067.7-.149.73-.254.107,0-.005-.031-.284.007a2.725,2.725,0,0,0,.686-.505c.1-.12.084-.2.007-.28.336-.173.418-.325.189-.8.361.193.411.067-.029-.378.492.22.494.122-.19-.341.824.237.983.13.21-.3.677.581.855.42.951-.57-.072.96-.227,1.092-.886.466.645.61.786.461.8-.521-.083.96-.293,1.086-1.093.441.776.687.975.6,1.064-.335.011,1.028-.088,1.208-.587.686.551.6.7.508.914-.4-.173,1-.287,1.181-.628.8.509.309.445.454.07.462.21.33.109.523.136.81-.04-.322.055-.547-.231-.938.464-.006.545-.18-.059-.544.444.424.6.211.812-.8-.224.909-.395,1.017-.977.38.6.525.789.306.934-.67-.2.874-.435.991-1.216.334.73.577.918.38.927-.542-.108.812-.4.9-1.291.274.9.6,1.218.491,1.381-.307,0,.889-.157,1.09-.764.518.825.61,1.2.447,1.728-.252-.227.858-.3,1.179.059,1.074-.174.184.082-.058.765-.605-.511.662-.6,1.02.153,1.367-.659-.261-.483-.534.259-.976-.636.5-.706.836.127,1.319-.932-.4-.962-.653-.342-1.2-.944.544-1.238.789-1.034.828-.158-.048.167-.3,1.129-.814-.583.515-.529.77.4,1.2-.834-.528-.794-.878-.224-1.365-.741.409-.953.68-.365.9-.729-.321-.657-.7-.241-1.408-.669.548-.993.757-1.224.336-.008.317.077,0,.147-.885-.4.666-.821.757-1.8.156,1,.6,1.463.5,1.954-.133-.053.869-.076,1.207.23,1.047-.024.223.316-.056,1.017-.5-.293.538-.223.914.634,1.419-.739-.436-.691-.743-.2-1.064-.561.406-.684.8.046,1.349-.617-.521-.376-.885.277-1.153-.219.214-.026.524.582,1.113-.57-.551-.726-.824-.468-.975-.589.263-.765.648-.133,1.285-.6-.617-.389-.983.213-1.211-.195.133,0,.4.522.953-.508-.525-.7-.772-.482-.88-.586.233-.772.6-.177,1.247-.618-.624-.457-.977.14-1.207-.29.141-.145.406.408.944-.581-.535-.754-.8-.46-.959-.659.249-.851.6-.2,1.2-.62-.657-.545-1-.053-1.315-.707.293-1,.616-.42,1.083-.577-.467-.285-.788.427-1.077-.486.315-.553.661.067,1.328-.639-.6-.442-.952.212-1.19-.275.148-.091.405.468.934-.522-.523-.67-.775-.4-.891-.288.109-.471.252-.508.446s.073.44.37.755c-.278-.322-.369-.575-.319-.774s.239-.345.522-.451c-.168.075.036.3.5.806-.463-.518-.67-.763-.513-.851-.567.208-.772.572-.217,1.209-.574-.654-.389-1.035.172-1.265-.186.092,0,.336.491.86-.518-.557-.737-.833-.576-.973-.613.231-.845.6-.253,1.2-.647-.615-.468-1,.131-1.275-.276.181-.132.47.472,1.033-.637-.589-.815-.9-.57-1.137-.658.285-.894.649-.266,1.157a.972.972,0,0,1-.15-1.485c-.654.332-1.066.612-1.017.5-.4.035-.348-.319-.2-1.139-.551.594-1.007.722-1.963.107.905.6,1.3.455,1.729-.2-.154.806-.283,1.1-.3.759.273.377.655.117,1.242-.374-.34.594-.475.957-.006,1.139-.256-.164.094-.508.6-.826-.369.37-.575.766-.115,1.236-.532-.406-.239-.776.409-1.047-.12.221.118.541.715,1.143-.535-.557-.71-.832-.534-.961-.543.263-.735.671-.14,1.312-.488-.617-.188-1,.371-1.2a6.875,6.875,0,0,1,.782.786,2.992,2.992,0,0,0-.666-.679c-.468.188-.709.582-.275,1.248a.75.75,0,0,1,.395-1.218c.146-.044.454.126.851.527-.392-.428-.694-.624-.854-.6a.71.71,0,0,0-.4,1.152.7.7,0,0,1,.442-1.118c.189-.031.5.166.892.583-.35-.339-.622-.457-.769-.362a.775.775,0,0,0-.424.425,1.044,1.044,0,0,0,.068.788.99.99,0,0,1-.1-.758.683.683,0,0,1,.415-.4c.087-.057.326.1.634.486-.344-.386-.619-.536-.7-.488a.793.793,0,0,0-.491.415.881.881,0,0,0,.128.77.989.989,0,0,1-.266-.762.638.638,0,0,1,.447-.422c-.144.031.028.239.422.714-.464-.5-.7-.727-.559-.814C326.308,756.064,326.076,756.418,326.65,757.041Z" transform="translate(-319.282 -754.317)" fill="#fcd45f"/></svg>