<svg xmlns="http://www.w3.org/2000/svg" xmlns:xlink="http://www.w3.org/1999/xlink" width="37.416" height="32.697" viewBox="0 0 37.416 32.697"><defs><linearGradient id="a" x1="-10.574" y1="63.421" x2="-10.574" y2="60.962" gradientUnits="objectBoundingBox"><stop offset="0.06" stop-color="#ff003f"/><stop offset="0.995" stop-color="#ffa88c"/></linearGradient><linearGradient id="b" x1="-683.667" y1="185.447" x2="-683.667" y2="184.324" xlink:href="#a"/><linearGradient id="c" x1="-1195.779" y1="-116.503" x2="-1195.779" y2="-117.64" xlink:href="#a"/><linearGradient id="d" x1="-643.263" y1="-1251.933" x2="-643.263" y2="-1254.392" xlink:href="#a"/><linearGradient id="e" x1="-432.66" y1="-727.982" x2="-432.66" y2="-729.105" xlink:href="#a"/><linearGradient id="f" x1="104.598" y1="-432.789" x2="104.598" y2="-433.927" xlink:href="#a"/><linearGradient id="g" x1="97.557" y1="-305.787" x2="97.557" y2="-307.602" xlink:href="#a"/><linearGradient id="h" x1="-298.269" y1="291.358" x2="-298.269" y2="289.789" xlink:href="#a"/><linearGradient id="i" x1="-1768.684" y1="66.441" x2="-1768.684" y2="65.438" xlink:href="#a"/><linearGradient id="j" x1="-949.101" y1="-739.594" x2="-949.101" y2="-741.408" xlink:href="#a"/><linearGradient id="k" x1="-619.662" y1="-1195.15" x2="-619.662" y2="-1196.719" xlink:href="#a"/><linearGradient id="l" x1="-114.525" y1="-643.664" x2="-114.525" y2="-644.666" xlink:href="#a"/></defs><path d="M89.365,552.027a14.155,14.155,0,0,0,9.064,3.118,11.116,11.116,0,0,0,5.25-.887,2.9,2.9,0,0,0,1.627-2.455,2.783,2.783,0,0,0-1.341-2.166c-1.509-.984-3.516-.976-5.245-.976A14.063,14.063,0,0,0,89.365,552.027Z" transform="translate(-89.365 -535.385)" fill="url(#a)"/><path d="M105.5,571.731a14.157,14.157,0,0,0,7.232-6.29,11.123,11.123,0,0,0,1.857-4.991,2.9,2.9,0,0,0-1.313-2.636,2.782,2.782,0,0,0-2.546.078c-1.606.814-2.6,2.556-3.468,4.055A14.062,14.062,0,0,0,105.5,571.731Z" transform="translate(-95.892 -539.034)" fill="url(#b)"/><path d="M130.9,571.354a14.154,14.154,0,0,0-1.832-9.408,11.114,11.114,0,0,0-3.393-4.1,2.9,2.9,0,0,0-2.939-.181,2.782,2.782,0,0,0-1.205,2.244c-.1,1.8.912,3.533,1.777,5.031A14.063,14.063,0,0,0,130.9,571.354Z" transform="translate(-102.579 -538.952)" fill="url(#c)"/><path d="M141.763,551.2a14.153,14.153,0,0,0-9.064-3.118,11.114,11.114,0,0,0-5.25.887,2.9,2.9,0,0,0-1.627,2.455,2.781,2.781,0,0,0,1.341,2.165c1.508.984,3.515.977,5.245.977A14.063,14.063,0,0,0,141.763,551.2Z" transform="translate(-104.348 -535.149)" fill="url(#d)"/><path d="M130.231,526.123a14.153,14.153,0,0,0-7.232,6.29,11.114,11.114,0,0,0-1.857,4.99,2.9,2.9,0,0,0,1.313,2.637,2.781,2.781,0,0,0,2.546-.079c1.607-.814,2.6-2.556,3.469-4.054A14.062,14.062,0,0,0,130.231,526.123Z" transform="translate(-102.424 -526.123)" fill="url(#e)"/><path d="M104.686,526.621a14.155,14.155,0,0,0,1.832,9.409,11.118,11.118,0,0,0,3.393,4.1,2.9,2.9,0,0,0,2.94.181,2.784,2.784,0,0,0,1.205-2.244c.1-1.8-.912-3.533-1.778-5.031A14.067,14.067,0,0,0,104.686,526.621Z" transform="translate(-95.587 -526.328)" fill="url(#f)"/><g transform="translate(4.964 1.139)"><path d="M97.792,542.934a11.87,11.87,0,0,0,5.659,5.712,9.321,9.321,0,0,0,4.278,1.283,2.433,2.433,0,0,0,2.136-1.242,2.335,2.335,0,0,0-.2-2.128,8.053,8.053,0,0,0-3.583-2.683A11.8,11.8,0,0,0,97.792,542.934Z" transform="translate(-97.792 -534.018)" fill="url(#g)"/><path d="M99.934,563.847a11.876,11.876,0,0,0,7.776-2.045,9.323,9.323,0,0,0,3.251-3.064,2.435,2.435,0,0,0-.008-2.47,2.334,2.334,0,0,0-1.944-.887,8.06,8.06,0,0,0-4.115,1.761A11.8,11.8,0,0,0,99.934,563.847Z" transform="translate(-98.672 -539.286)" fill="url(#h)"/><path d="M121.639,571.872a11.876,11.876,0,0,0,2.118-7.757,9.336,9.336,0,0,0-1.028-4.347,2.433,2.433,0,0,0-2.144-1.228,2.332,2.332,0,0,0-1.74,1.24,8.051,8.051,0,0,0-.532,4.444A11.8,11.8,0,0,0,121.639,571.872Z" transform="translate(-106.197 -540.581)" fill="url(#i)"/><path d="M137.395,561.158a11.875,11.875,0,0,0-5.659-5.712,9.336,9.336,0,0,0-4.278-1.284,2.435,2.435,0,0,0-2.136,1.242,2.335,2.335,0,0,0,.2,2.128,8.054,8.054,0,0,0,3.583,2.683A11.8,11.8,0,0,0,137.395,561.158Z" transform="translate(-109.035 -538.784)" fill="url(#j)"/><path d="M135.87,539.441a11.874,11.874,0,0,0-7.776,2.045,9.318,9.318,0,0,0-3.251,3.064,2.435,2.435,0,0,0,.008,2.47,2.338,2.338,0,0,0,1.944.887,8.06,8.06,0,0,0,4.115-1.761A11.8,11.8,0,0,0,135.87,539.441Z" transform="translate(-108.772 -532.711)" fill="url(#k)"/><path d="M118.226,528.057a11.876,11.876,0,0,0-2.118,7.757,9.336,9.336,0,0,0,1.028,4.347,2.433,2.433,0,0,0,2.144,1.228,2.331,2.331,0,0,0,1.74-1.24,8.05,8.05,0,0,0,.532-4.444A11.8,11.8,0,0,0,118.226,528.057Z" transform="translate(-105.308 -528.057)" fill="url(#l)"/></g><path d="M116.455,545.366c-.594-.62-.379-.971.247-1.186-.186.1.039.344.528.853-.421-.476-.577-.683-.385-.723-.246.1-.406.233-.442.427a1.006,1.006,0,0,0,.295.755.823.823,0,0,1-.137-.742.769.769,0,0,1,.495-.4c.061-.037.33.117.664.5-.255-.345-.446-.457-.5-.374a.618.618,0,0,0-.338.38,1.017,1.017,0,0,0,.071.69.965.965,0,0,1,.044-.684.826.826,0,0,1,.388-.376c.195-.121.441-.052.719.2-.254-.275-.478-.365-.672-.255a.75.75,0,0,0-.35.352,1.083,1.083,0,0,0-.07.677,1.21,1.21,0,0,1,.107-.715.953.953,0,0,1,.375-.393.665.665,0,0,1,.792.109c-.325-.305-.612-.444-.884-.351a.835.835,0,0,0-.482,1.056.871.871,0,0,1,.524-1.066.935.935,0,0,1,.918.31.658.658,0,0,0-.783-.082,1.034,1.034,0,0,0-.374.389,1.328,1.328,0,0,0-.154.71,1.2,1.2,0,0,1,.187-.669,1,1,0,0,1,.393-.352.63.63,0,0,1,.746.128.619.619,0,0,0-.74-.1,1.044,1.044,0,0,0-.392.358,1.212,1.212,0,0,0-.188.665,1.237,1.237,0,0,1,.147-.676.952.952,0,0,1,.364-.365.576.576,0,0,1,.72.133.71.71,0,0,0-.8-.206.868.868,0,0,0-.4.361,1.069,1.069,0,0,0-.109.7,1.241,1.241,0,0,1,.012-.75.757.757,0,0,1,.345-.4c.183-.124.428-.035.742.258-.4-.371-.722-.54-.953-.479a.745.745,0,0,0-.467,1.14c-.347-.641-.067-1.013.361-1.159.138-.03.426.165.8.595-.375-.386-.666-.537-.783-.48a.814.814,0,0,0-.485.433.944.944,0,0,0,.123.8.957.957,0,0,1-.186-.784.714.714,0,0,1,.464-.422,2.756,2.756,0,0,1,.6.631,4.369,4.369,0,0,0-.663-.663c-.521.186-.78.56-.32,1.213-.535-.658-.351-1.038.178-1.252-.156.068.035.3.486.812-.5-.543-.735-.807-.6-.929-.615.226-.855.593-.271,1.2-.679-.623-.532-1,.065-1.3-.353.2-.256.5.4,1.053-.71-.6-.866-.929-.571-1.229-.7.316-.943.665-.324,1.083-.62-.487-.491-.87-.049-1.345-.63.405-.947.718-.646.8-.3-.078.018-.39.648-.795-.441.475-.57.858.051,1.347-.62-.419-.373-.768.323-1.084-.294.3-.137.63.571,1.227-.649-.556-.747-.846-.4-1.049-.6.294-.742.676-.064,1.3-.583-.609-.342-.977.272-1.2-.135.12.1.383.6.924-.448-.51-.64-.742-.487-.807-.528.213-.712.592-.18,1.251-.457-.653-.2-1.027.322-1.213a3.808,3.808,0,0,1,.667.657,2.475,2.475,0,0,0-.6-.626.712.712,0,0,0-.462.421.956.956,0,0,0,.183.783.946.946,0,0,1-.12-.8.814.814,0,0,1,.483-.432c.121-.06.413.09.789.472-.372-.429-.66-.623-.8-.591-.425.144-.706.515-.362,1.156a.748.748,0,0,1,.5-1.119c.254-.065.584.1.972.457-.292-.264-.527-.336-.725-.2a.808.808,0,0,0-.338.393,1.274,1.274,0,0,0-.055.728,1.121,1.121,0,0,1,.161-.681.972.972,0,0,1,.4-.356.676.676,0,0,1,.779.141.6.6,0,0,0-.728-.116,1.015,1.015,0,0,0-.384.354,1.229,1.229,0,0,0-.187.666.862.862,0,0,1,0-.613.682.682,0,0,1,.341-.342c.189-.119.474-.08.838.1-.35-.617-.386-.68.01-.133-.459-.284-.811-.416-1.026-.345-.356.121-.575.444-.3,1.026a.841.841,0,0,1,.485-1.06c.277-.094.571.047.9.352a.7.7,0,0,0-.819-.116.949.949,0,0,0-.381.4,1.226,1.226,0,0,0-.106.729,1.116,1.116,0,0,1,.067-.694.757.757,0,0,1,.355-.358c.2-.112.434-.018.7.262-.293-.263-.551-.34-.756-.22a.826.826,0,0,0-.4.382.994.994,0,0,0-.04.707,1.067,1.067,0,0,1-.075-.717.634.634,0,0,1,.347-.389c.065-.082.269.038.539.392-.349-.4-.631-.56-.71-.526a.8.8,0,0,0-.509.4.838.838,0,0,0,.137.762,1.028,1.028,0,0,1-.3-.779.65.65,0,0,1,.454-.441c-.17.045,0,.26.424.75-.49-.521-.726-.769-.565-.876-.624.221-.851.582-.259,1.2-.609-.621-.4-.982.227-1.212-.2.121.016.374.53.9-.467-.512-.635-.748-.431-.825-.267.1-.441.249-.481.449a1.007,1.007,0,0,0,.33.779.855.855,0,0,1-.2-.775.791.791,0,0,1,.525-.423,3.774,3.774,0,0,1,.654.643c-.316-.416-.529-.576-.528-.535a.647.647,0,0,0-.4.414,1.03,1.03,0,0,0,.163.763.917.917,0,0,1-.041-.749.8.8,0,0,1,.451-.4c.166-.088.446.028.779.352-.273-.307-.492-.407-.646-.3a.7.7,0,0,0-.335.374,1.144,1.144,0,0,0-.011.707,1.089,1.089,0,0,1,.124-.693.924.924,0,0,1,.4-.367.681.681,0,0,1,.789.153.556.556,0,0,0-.7-.14.954.954,0,0,0-.36.357,1.285,1.285,0,0,0-.166.67,1.323,1.323,0,0,1,.156-.715.97.97,0,0,1,.388-.382.786.786,0,0,1,.873.128c-.114-.114-.2-.064-.283.124s-.183.513-.321.948a9.279,9.279,0,0,1,.382-.976c.105-.2.2-.265.32-.174a.716.716,0,0,0-.822-.106,1.315,1.315,0,0,0-.59,1.091.868.868,0,0,1,.379-.972,1.057,1.057,0,0,1,.933.021c-.162-.431,0-.358.279.03-.155.081-.2.478-.3,1.057.126-.6.19-1.028.367-1.145-.264-.411-.415-.517-.2-.144a1.13,1.13,0,0,0-.971-.049.96.96,0,0,0-.369,1,1.038,1.038,0,0,1,.378-1.047,1.177,1.177,0,0,1,1.006,0c-.24-.4-.084-.329.233.066-.215.075-.268.472-.371,1.061.107-.628.164-1.064.416-1.189-.36-.465-.525-.618-.139-.337a1.707,1.707,0,0,0-1.147-.176c-.241.11-.338.417-.236,1-.1-.583.005-.889.25-1a1.731,1.731,0,0,1,1.153.169c-.344-.263-.149-.1.195.33a2.843,2.843,0,0,0-.167,1.246,3.088,3.088,0,0,1,.161-1.1c-.244-.329-.4-.388-.257-.037a.99.99,0,0,0-.852.091,1.259,1.259,0,0,0-.43.941,1.131,1.131,0,0,1,.479-.855,1.043,1.043,0,0,1,.824-.055c.024-.237.239-.13.415.144a4.335,4.335,0,0,1,.31,1.229c-.124-.778-.256-1.192-.477-1.2a.723.723,0,0,0-.617.166,2.466,2.466,0,0,0-.38.34,4.993,4.993,0,0,0-.421.528,4.369,4.369,0,0,1,.438-.49,2.342,2.342,0,0,1,.392-.306.748.748,0,0,1,.616-.127c.275.064.42.484.55,1.222-.136-.714-.289-1.109-.571-1.159a.8.8,0,0,0-.608.149,2.558,2.558,0,0,0-.391.3,4.846,4.846,0,0,0-.438.466,4.591,4.591,0,0,1,.428-.454,2.363,2.363,0,0,1,.382-.289A.711.711,0,0,1,119,544.7c.26.064.378.473.455,1.19-.1-.659-.242-1.008-.519-1.04a.849.849,0,0,0-.569.165,4.022,4.022,0,0,0-.785.667,3.749,3.749,0,0,1,.717-.636.606.606,0,0,1,.488-.133c.093.014.15.11.177.286a3.6,3.6,0,0,1,0,.762,3.07,3.07,0,0,0-.1-.786c-.058-.18-.14-.277-.247-.283a.78.78,0,0,0-.667.047,1.353,1.353,0,0,0-.677.706,1.181,1.181,0,0,1,.51-.765.459.459,0,0,1,.565.006c-.073-.157-.163.2-.423.865.216-.692.262-1.069.345-.881a.569.569,0,0,0-.663-.093.859.859,0,0,0-.474.838.848.848,0,0,1,.455-.845.537.537,0,0,1,.647.1c-.062-.11-.111-.072-.177.082s-.148.428-.266.764c.133-.329.23-.593.306-.745s.131-.191.188-.093a.468.468,0,0,0-.588-.044,1.022,1.022,0,0,0-.477.8,1.073,1.073,0,0,1,.558-.762.6.6,0,0,1,.643.012c.048-.084.058.3-.064.987.153-.666.173-1.021.12-.952a.5.5,0,0,0-.54.057,1.543,1.543,0,0,0-.584.7,1.645,1.645,0,0,1,.661-.664.671.671,0,0,1,.59-.074c.092,0,.157.093.2.268a3.35,3.35,0,0,1,.043.768c.051-.649,0-.99-.171-1a.609.609,0,0,0-.5.126,2.958,2.958,0,0,0-.67.614,3.181,3.181,0,0,1,.752-.588.864.864,0,0,1,.567-.133c.278.043.413.376.484.994-.031-.62-.125-.955-.366-1a.736.736,0,0,0-.486.156,6.059,6.059,0,0,0-.741.588,6.357,6.357,0,0,1,.8-.608.963.963,0,0,1,.56-.178c.3.029.473.348.62.946-.111-.669-.247-1.057-.522-1.127a.706.706,0,0,0-.528.144,4.543,4.543,0,0,0-.8.686c.163-.165.313-.308.451-.426a3.193,3.193,0,0,1,.379-.284.846.846,0,0,1,.574-.168c.313.054.5.425.7,1.075-.178-.65-.35-1.021-.631-1.07a.731.731,0,0,0-.517.178,4.982,4.982,0,0,0-.76.707,5.473,5.473,0,0,1,.768-.742.807.807,0,0,1,.534-.208c.3.031.5.391.727,1.044-.227-.71-.422-1.128-.729-1.208s-.731.174-1.339.905c.585-.8.983-1.12,1.307-1.071.286.028.5.426.781,1.166a4.735,4.735,0,0,0-.546-1.2c-.191-.254-.411-.365-.494-.217-.54-.1-.941.06-1.074.823.1-.822.474-1.04,1.071-.964-.028-.233.17-.173.386.059a5.579,5.579,0,0,1,.5,1.1c-.206-.584-.367-1-.482-1.284-.247-.337-.449-.54-.239-.554-.784-.293-1.156-.4-.47-.2-.686-.2-.313-.092.47.2-.207.016-.005.222.24.563.118.288.279.71.484,1.3a4.98,4.98,0,0,0-.5-1.084c-.208-.22-.4-.269-.4-.022-.561-.047-.924.2-1.094,1,.207-.725.607-.9,1.1-.832.127-.141.349-.036.541.21a4.418,4.418,0,0,1,.543,1.169c-.269-.694-.474-1.065-.756-1.081s-.641.319-1.2,1.053c.6-.648.992-.9,1.287-.833s.491.446.705,1.076c-.209-.555-.4-.862-.673-.875s-.625.269-1.155.885c.537-.585.9-.836,1.167-.807s.449.34.626.872c-.186-.541-.373-.859-.66-.9s-.672.209-1.25.79c.568-.556.944-.776,1.207-.719s.412.39.53.933c-.152-.436-.336-.663-.624-.664a2.552,2.552,0,0,0-1.238.634c.525-.378.891-.57,1.133-.544s.363.272.418.712c-.1-.411-.259-.628-.541-.644a2.8,2.8,0,0,0-1.239.472,2.385,2.385,0,0,1,1.037-.52c.209.014.289.246.287.711-.048-.5-.177-.776-.446-.821a.922.922,0,0,0-.513.107,5.083,5.083,0,0,0-.687.4,4.566,4.566,0,0,1,.58-.459.594.594,0,0,1,.412-.13c.166.007.2.283.135.813.035-.566-.027-.878-.206-.886a.614.614,0,0,0-.507.073,1.541,1.541,0,0,0-.582.523,1.393,1.393,0,0,1,.5-.56.427.427,0,0,1,.452-.063c.058-.067.032.234-.121.79.124-.589.12-.921.066-.838a.5.5,0,0,0-.547-.009.882.882,0,0,0-.486.633.875.875,0,0,1,.478-.637.487.487,0,0,1,.541.012c.04-.093.034.238-.1.824.161-.56.191-.865.147-.786a.425.425,0,0,0-.465.048,1.236,1.236,0,0,0-.491.576,1.33,1.33,0,0,1,.556-.543.565.565,0,0,1,.509-.059c.15-.011.195.306.137.875.082-.537.061-.821-.084-.814a.536.536,0,0,0-.423.114,2.765,2.765,0,0,0-.56.481,3.16,3.16,0,0,1,.653-.429.822.822,0,0,1,.5-.1c.253.047.365.332.392.855.019-.467-.048-.7-.243-.705a.78.78,0,0,0-.4.148c-.167.1-.372.257-.593.368.254-.092.493-.227.7-.313a1.1,1.1,0,0,1,.5-.112c.27.023.418.24.491.651-.034-.392-.143-.592-.37-.6a2.517,2.517,0,0,0-1.048.456,2.992,2.992,0,0,1,1.195-.439c.28,0,.448.188.553.54-.065-.391-.192-.613-.432-.633a1.955,1.955,0,0,0-1.079.523,2.373,2.373,0,0,1,1.163-.62c.279-.006.464.2.619.584-.123-.494-.275-.8-.521-.851s-.587.165-1.086.712c.514-.553.87-.776,1.141-.742s.459.326.64.8c-.164-.444-.336-.707-.577-.724s-.55.213-.989.755c.437-.563.745-.815.991-.811s.432.264.626.721c-.4-1.059-.769-1.328-1.742-.111.907-1.392,1.208-1.3,1.746-.091-.292-.714-.525-1.15-.854-1.259s-.756.107-1.312.841c.5-.848.866-1.179,1.217-1.122.254.01.489.408.845,1.162a8.87,8.87,0,0,0-.633-1.285c-.214-.305-.43-.492-.346-.482-.667-.244-1.036-.292-.549.125-.493-.428-.131-.391.547-.153-.1-.022.109.156.33.457a9.524,9.524,0,0,1,.627,1.259c-.363-.773-.6-1.187-.83-1.217-.4-.1-.784.176-1.206,1.061.237-.616.6-.815,1-.806.176-.117.4-.028.6.2a4.607,4.607,0,0,1,.626,1.1c-.619-1.311-.882-1.42-1.668.051.894-1.275,1.264-.968,1.808.148-.438-.919-.7-1.029-1.118.147.511-1.011.872-.737,1.267,0-.221-.472-.408-.487-.59.182.259-.576.524-.47.773-.1-.1-.263-.22-.262-.315.11.147-.391.317-.412.557-.239-.14-.408-.21-.622.131-.365-.315-.192-.217.091-.142.521-.108.135-.241.416-.515.862.276-.275.409-.385.37-.3a7.833,7.833,0,0,1-.608.8c.317-.392.489-.621.432-.625a4.426,4.426,0,0,0-.736.516c.3-.36.495-.647.4-.71-.055-.052-.182-.049-.387.005a4.022,4.022,0,0,1-.757.177,2.97,2.97,0,0,0,.608-.319c.153-.092.224-.117.219-.053a.427.427,0,0,0-.472-.236,5.356,5.356,0,0,0-.967.238,4.756,4.756,0,0,1,.8-.4c.19-.047.292.036.327.277-.1-.363-.264-.568-.544-.593a2.56,2.56,0,0,0-1.2.408,2.557,2.557,0,0,1,1.2-.407c.28.025.446.23.544.593-.034-.239-.135-.32-.325-.272a4.912,4.912,0,0,0-.793.4,5.549,5.549,0,0,1,.965-.23.429.429,0,0,1,.471.233c.016-.109-.274.129-.8.4a3.19,3.19,0,0,0,.743-.164c.2-.054.331-.058.385-.008s.029.136-.059.287-.246.358-.3.45a2.847,2.847,0,0,1,.724-.468c.065.016-.092.264-.36.66.32-.427.531-.706.578-.769s-.066.088-.31.438a8.832,8.832,0,0,0,.464-1.051c.029-.3.006-.507.195-.508-.206-.052-.2.1-.193.36-.135.045-.267.206-.509.484.194-.234.279-.352.262-.29-.1-.1-.312-.022-.661.25.277-.351.412-.507.477-.383-.231-.449-.532-.617-.864.021.239-.8.449-.787.723-.213-.444-.872-.822-1.179-1.481-.048.551-1.329.822-1.219,1.336-.133-.305-.641-.55-1.038-.858-1.114s-.681.168-1.225.832c.482-.761.8-1.1,1.067-1.076s.482.415.8,1.145a5.135,5.135,0,0,0-.637-1.191c-.212-.254-.445-.37-.517-.235-.568-.114-.975.025-1.038.8.064-.772.471-.909,1.038-.8.073-.134.307-.017.519.239a5.141,5.141,0,0,1,.636,1.192c-.317-.725-.537-1.114-.8-1.133s-.574.323-1.052,1.082c.542-.656.912-.9,1.218-.822s.549.468.849,1.1c-.494-1.047-.759-1.146-1.265.148.624-1.083,1.006-.772,1.426.049-.216-.452-.393-.395-.621.26.332-.483.614-.369.795-.029,0-.011-.107.2-.364.562.346-.273.539-.4.628-.373.077,0,.049.165-.045.468a3.035,3.035,0,0,1,.383-.688,1.076,1.076,0,0,1,.485-.4c-.268.029-.381.128-.375.408a6.733,6.733,0,0,0,.327,1.467c-.234-.575-.374-.848-.468-.811s-.144.383-.2,1.047c.121-.376.173-.524.121-.453a4.707,4.707,0,0,0-.367.769c.107-.365.212-.6.162-.6s-.256.213-.393.477c.067-.327.2-.61.125-.669s-.369.107-.608.228c.139-.294.329-.631.234-.757-.047-.064-.166-.074-.346-.047s-.424.092-.689.111a2.013,2.013,0,0,0,.651-.144c.186-.055.295-.056.332,0s0,.161-.1.325-.28.385-.23.384c.273-.117.574-.281.643-.215s-.1.363-.162.661c.168-.142.427-.3.522-.263s.026.282-.037.634a2.161,2.161,0,0,1,.369-.677c.07-.051.058.1,0,.474.028-1.263.133-1.327.686-.254-.469-1.45-.489-1.764.425-1.551-.951-.174-.97.105-.621,1.517-.263-.609-.433-.935-.586-.966s-.288.232-.472.8c.185-.509.259-.792.174-.852s-.325.1-.745.462c.32-.5.461-.8.409-.882-.131-.256-.454-.3-.977.075.4-.563.6-.717.73-.351-.18-.4-.378-.661-.653-.7s-.624.143-1.105.64c.408-.6.686-.889.9-.894s.37.276.534.805c-.224-.631-.439-1.013-.781-1.087a.9.9,0,0,0-.618.135,2.8,2.8,0,0,0-.4.272,6.05,6.05,0,0,0-.471.424,6.054,6.054,0,0,1,.471-.424,2.721,2.721,0,0,1,.4-.273.9.9,0,0,1,.617-.137c.342.074.556.455.78,1.087-.166-.535-.321-.819-.54-.818s-.5.29-.917.9c.485-.509.837-.7,1.113-.659s.475.309.659.713c-.155-.437-.373-.331-.783.3.521-.455.852-.384,1.005-.068a2.566,2.566,0,0,1-.487.772c.441-.345.682-.5.742-.443s-.06.317-.329.791a3.549,3.549,0,0,1,.584-.7c.068-.024.019.159-.1.537a9.818,9.818,0,0,1,.346-.93.649.649,0,0,1,.349-.346.626.626,0,0,0-.328.379c-.079.2-.152.5-.287,1.008.107-.382.151-.557.094-.511a5.673,5.673,0,0,0-.489.795c.224-.471.333-.727.272-.75s-.293.189-.657.561c.289-.452.447-.745.381-.822s-.358.06-.864.356a5.615,5.615,0,0,0,.562-.7.577.577,0,0,0-.5-.371,1.587,1.587,0,0,0-.926.388c.317-.375.554-.588.728-.624s.285.107.364.426c-.168-.464-.37-.753-.689-.8s-.756.144-1.387.611c.62-.478,1.047-.682,1.357-.638s.5.335.66.815c-.1-.378-.227-.565-.432-.547s-.485.242-.866.661a1.679,1.679,0,0,1,1.033-.462c.255.019.427.2.55.487-.033-.178-.261.057-.746.481a4.3,4.3,0,0,1,.685-.261c.168-.039.272-.025.315.047.03.039,0,.134-.089.288s-.236.365-.346.534c.4-.313.667-.493.736-.432s-.06.364-.27.833c.322-.339.56-.528.7-.5s.183.277.2.733c-.012-1.194.122-1.173.766-.106-.485-1.325-.461-1.605.693-1.268-1.07-.065-1.107.167-.838,1.242-.171-.321-.266-.432-.345-.335a3.205,3.205,0,0,0-.244.907c.069-.335.1-.468.066-.416a3.668,3.668,0,0,0-.216.653c.208-.561.188-.5-.047.081.119-.384.044-.4-.247-.1-.057-.522.012-.685.087-.132-.15-.464-.2-.8-.336-.907s-.355.042-.409.223c.054-.181.271-.319.409-.221s.187.444.338.908c-.075-.543-.141-.371-.078.146.292-.275.377-.245.286.131.23-.549.257-.6.071-.065a3.268,3.268,0,0,1,.225-.619c.035-.049.016.072-.044.383.217-.951.27-1.145.692-.584-.313-.984-.257-1.213.937-1.166-1.2-.058-1.266.138-.9,1.083-.488-.611-.548-.475-.687.493.011-.379,0-.551-.053-.519a2,2,0,0,0-.284.68c.072-.373.116-.571.069-.569s-.183.206-.3.528c.017-.333.056-.574-.062-.631s-.4.081-.54.148c.014-.25.178-.545.1-.618s-.4.079-.647.121c-.093.06.088-.157.2-.328.1-.152.135-.259.093-.311s-.162-.051-.362,0-.483.163-.667.071c.184.092.467-.016.667-.07s.32-.055.362,0,.008.161-.092.313c-.115.173-.3.391-.2.329.246-.035.564-.181.642-.105s-.086.373-.087.618c.121-.048.4-.167.525-.112s.075.305.073.619c.108-.282.253-.469.312-.473s.03.176-.031.52a2.011,2.011,0,0,1,.328-.727c.084-.062.146.063.23.381-.178-1.075-.067-1.112.586-.23-.516-1.18-.489-1.441.632-.958-1.086-.193-1.133.018-.86.98-.451-.836-.419-.639-.133.368-.359-.716-.463-.624-.5.225.144-.541.108-.36-.112.322.166-.369.148-.238-.044.2.18-.246.186-.189.019.091.118-.1.065,0-.09.2.07-.1.038-.112-.057-.042.038-.214.014-.345-.1-.279-.112-.219-.035-.4.08-.223-.171-.478-.3-.6-.334-.261.03-.344.162-.214.333.264-.117-.163-.2.022-.078.236.1-.032.125.124.108.336.067-.012.1.03.062.1.126-.114.186-.2.091-.155.146-.164.135-.192-.035-.058.177-.273.2-.383.037-.191.221-.472.263-.64.117-.258.24-.755.292-.959.288-.433-.074-.911.031-.983.53-.247-.4-1.028-.4-1.249.381-.57-.78-.676-.778-.448-.394.585-.489-.714-.6-.623-.551.276-.1-.664-.047-.521.1.178-.174-.378-.26-.2-.343.292.138-.287.1-.08-.114.328.168-.051.16.1.022.321.161-.011.194.052.123.181.082-.024.04.062-.061.2.025,0-.008.056-.029.125-.062.064-.1.088-.062.017-.088,0-.1-.034-.04-.111-.08-.028-.088-.1-.052-.2a.423.423,0,0,1-.055-.254c-.02-.186-.028-.33-.081-.331.053,0,.059.15.081.339a.4.4,0,0,0,.059.283c-.054.124-.049.213.058.249-.1.1-.093.151.035.149-.081.152-.044.177.082.084-.051,0-.008-.019.1.015-.015-.124.035-.2.092-.138a.382.382,0,0,0-.187-.124c.006-.086,0-.128-.054-.142.045-.095.045-.16-.039-.181.1-.165.11-.3-.024-.3.172-.289.195-.448.027-.31.216-.474.241-.65.067-.275.217-.735.235-.919.088-.345.148-.6.131-.442-.089.3.183-.427.161-.268-.052.253.168-.21.146-.058-.045.273.15-.041.132.1.011.3.1.011.092.091.029.2.055.037.054.1.048.2a.379.379,0,0,0,.108.253c0,.062.063.088.266.139-.187-.018-.247.1-.146.249-.24.008-.319.05-.181.023-.228.128-.239.186.012.126-.32.11-.378.1-.107-.069-.286.173-.313.093-.058-.214-.3.062-.286-.019-.016-.208-.244-.021-.235-.148-.045-.363-.19.216-.2.349.046.379-.281.2-.3.3.016.246-.319.244-.3.334.074.242-.36.214-.374.247-.016.061-.314.263-.256.309.125.141-.308.19-.293.165.025-.045-.214.17-.125.156.246.028-.2.024-.116-.065.315-.115-.413.012-.479.065-.277.063-.343.044-.418.033-.246-.078-.234.127-.286.069-.147-.177-.248.068-.23.027.012-.079-.24-.024-.257-.113-.081-.273-.181-.005-.17-.082-.022-.219-.136-.044-.134-.148-.052-.289a.277.277,0,0,1-.052-.278c-.026-.162-.028-.288-.06-.286.032,0,.032.127.06.29a.269.269,0,0,0,.051.289c-.094.15-.1.26.049.307-.17.148-.187.233.019.233-.207.181-.191.279.081.284-.279.144-.3.194-.015.1-.18.3-.13.374.15.2-.211.18-.134.2.24.085-.227.1-.156.07.283-.013a2.953,2.953,0,1,1-.3.091c-.408.2-.5.22-.262-.019-.381.356-.427.457-.11.261-.46.243-.557.188-.189-.188-.423.211-.449.428-.134.6-.43-.121-.518-.283-.035-.39-.44.375-.458.3.051-.177-.535.2-.489.149.088-.166-.5.142-.472.021.053-.336-.525.358-.557.482-.058.348-.586.321-.641.383-.107.206-.523.486-.524.6-.123.338-.506.078-.408.247.01.408-.353-.183-.387-.375.091-.557-.387.17-.263.349.1.417-.135-.137-.027-.385.282-.664-.158.194-.117.358.074.435a2.467,2.467,0,0,1,.69-.256,2.767,2.767,0,0,0-.718.273c-.224-.072-.3-.239-.125-.448-.452.541-.511.727-.231.7-.5.187-.653.163-.335.084-.349.3-.452.319-.193.343-.391-.089-.419-.177.121-.306-.507-.187-.447-.415.341-.962-.77.149-.8.409-.219.825-.676-.126-.746-.1-.155.2-.561.12-.56.233-.195.436-.291-.085-.219-.08.077-.075-.285-.2-.15-.163.233-.088-.254-.294-.262-.55.22-.809-.436.053-.327.2.083.353-.154-.074-.006-.137.3-.221-.207.153-.072.026.468-.349-.531.372-.663.505-.464.371-.308.093-.464.163-.327.254-.415-.141-.539-.262-.118-.273-.464.421-.466.622-.228.881-.37.009-.5.075-.386.379-.27-.047-.412.084-.376.447-.267-.177-.356-.122-.256.212-.209-.33-.229-.38.009-.135-.194-.485-.131-.674.4-.609-.534-.064-.615.144-.457.666-.259-.219-.279-.125-.113.25-.149-.287-.111-.292.085-.029-.068-.358.024-.447.283-.294-.025-.4.117-.555.418-.533-.133-.323,0-.407.408-.453-.262-.256-.239-.475.276-.959-.524.49-.556.716-.3.995-.415.041-.547.136-.426.486-.335-.012-.5.174-.522.632-.268-.147-.391-.021-.335.3-.259-.148-.338-.1-.219.083-.234-.19-.269-.242-.1-.024-.2-.441-.186-.611.082-.381-.277-.181-.306.042-.131.435-.2-.072-.207.025.075.028.027-.2-.1-.071-.4.29.318-.373.469-.514.459-.312-.174-.1-.1-.246.161-.137-.082-.512.031-.773.483-.7-.408-.187-.493-.006-.375.528-.272-.214-.341-.074-.233.258-.236-.1-.295,0-.1.069,0-.193-.167-.041-.481.319.291-.339.434-.468.436-.292-.059-.138-.264.026-.58.343.257-.308.4-.464.412-.315-.092-.181-.321-.058-.66.239.229-.332.348-.491.287-.265-.009-.335-.2-.286-.541.094.26-.479.364-.627.253-.205.111-.422,0-.273-.262.206.336-.379.517-.427.517-.094.039-.209-.1-.036-.328.282.317-.271.55-.4.668-.242-.013-.247-.2-.1-.516.292.238-.188.353-.132.374.21,0-.337-.1-.388-.321-.2.335-.392.548-.539.6-.3-.07-.23-.3-.077-.654.31.19-.175.265-.116.255.2-.055-.318-.2-.375-.434-.22.267-.365.436-.517.421-.277-.069-.252-.322-.113-.638.232.148-.162.231-.119.262.128a.359.359,0,0,0-.551-.168c.17-.338.331-.5.347-.23-.408-.1-.609.012-.639.187-.072-.236.028-.4.281-.3-.316-.18-.478-.084-.564.126.09-.249.256-.383.551-.158-.326-.208-.51-.061-.608.174.091-.188.267-.289.614-.135-.257-.208-.388-.072-.393.223.037-.127.2-.094.639.144-.17-.216-.327-.227-.436-.07.209-.306.464-.443.578-.174-.027-.247-.2-.087-.367.236.193-.111.385-.058.538.187-.061-.243-.162-.293-.312-.158.283-.332.517-.478.564-.237-.051-.241-.286-.094-.567.239.15-.131.252-.078.319.167-.151-.243-.339-.3-.527-.187.174-.314.348-.468.379-.23-.123-.246-.388-.1-.593.193.092-.113.244-.08.439.119-.479-.234-.655-.267-.685-.169-.008-.279.13-.424.412-.258-.042-.391-.277-.251-.569.134-.024-.2-.107-.159-.221.048.077-.083.241-.072.72.107a.572.572,0,0,0-.723-.064.316.316,0,0,0-.425-.115c.133-.169.233-.221.287-.054.257-.4.47-.577.514-.131-.134-.4-.428-.19-.742.134a1.013,1.013,0,0,0-.621-.025c.194-.058.342-.107.455-.036.262-.363.488-.607.556-.153-.115-.47-.388-.243-.712.1a1.139,1.139,0,0,0-.629-.057c.253-.026.447-.061.58.03.315-.369.568-.613.655-.107-.058-.522-.283-.3-.575.1-.092-.155-.252-.141-.5-.068.295-.07.5-.081.646.1.343-.4.626-.608.737-.083-.127-.524-.426-.316-.785.076-.165-.171-.39-.16-.7-.113.242-.053.4-.071.484.059.289-.382.5-.617.55-.1.016-.689-.117-.532-.395.047.011-.323-.123-.226-.338.038a3.518,3.518,0,0,0-.663-.025,5.689,5.689,0,0,1,.639.035c.324-.3.592-.54.7-.088-.094-.44-.346-.192-.65.117-.151-.019-.353.022-.593.016a6.6,6.6,0,0,1,.7.016c.206-.24.346-.334.365-.045.256-.53.391-.677.407-.058-.066-.435-.287-.19-.544.157a.783.783,0,0,0-.454.043,1.33,1.33,0,0,1,.656.019c.321-.322.623-.532.764-.134-.038-.454-.246-.277-.5.128-.047-.181-.141-.135-.273.043.164-.1.29-.06.421.115a.515.515,0,0,1,.715.049c-.451-.186-.6-.195-.674-.1.12-.229.194-.264.2-.038.3-.4.525-.539.556-.131-.032-.409-.263-.272-.562.129-.008-.23-.087-.195-.21.033.071-.1.223-.094.669.09a.53.53,0,0,0-.732-.047.337.337,0,0,0-.461-.123c.143-.172.242-.219.292-.039.254-.408.458-.591.494-.127-.154-.413-.469-.2-.811.118a2.049,2.049,0,0,0-.727-.035,1.4,1.4,0,0,1,.46-.039c.255-.325.463-.57.515-.151-.011-.609-.17-.459-.46.034-.024-.249-.178-.154-.391.039a6.849,6.849,0,0,1-.8.051,1.762,1.762,0,0,0,.617-.031c.254-.163.487-.342.6-.113-.012-.373-.18-.264-.435.014-.062-.1-.211-.034-.378.051a2.93,2.93,0,0,1-.8.077,2.007,2.007,0,0,0,.694-.055c.254-.091.515-.225.676-.1-.181-.142-.463-.02-.735.055a1.912,1.912,0,0,1-.723-.008,2.427,2.427,0,0,0,.747-.118c.181-.12.33-.207.35-.047.3-.389.469-.53.451.015-.111-.388-.369-.184-.671.022a2.252,2.252,0,0,1-.61-.053c.285.032.554,0,.745.039.253-.253.407-.352.379,0,.348-.619.513-.783.515.021.011-.806-.144-.644-.484-.014.039-.372-.107-.275-.361,0a4.043,4.043,0,0,0-.718-.076c.237.049.448.039.59.065.317-.259.565-.483.666-.014.01-.645-.167-.494-.489-.031-.009-.217-.166-.124-.368.024a3.408,3.408,0,0,1-.777.123,1.682,1.682,0,0,0,.653.065,1.609,1.609,0,0,1,.65-.041,2.336,2.336,0,0,0-.641.1,3.016,3.016,0,0,1-.866,0c.226-.022.283-.189.085-.522a.673.673,0,0,1,.022.477.948.948,0,0,1-.3.4,1.362,1.362,0,0,1,.875,1.155,1.338,1.338,0,0,0-1.007-1.1c.137-.224.076-.377-.213-.638.262.281.3.454.121.752.4.237.6.6.672,1.412-.068-.811-.254-1.172-.644-1.411a.542.542,0,0,0-.027-.783c.282.272.321.421.171.6a1.436,1.436,0,0,1,1.17.855,1.334,1.334,0,0,0-1-.9,1.018,1.018,0,0,0,.383-.362.65.65,0,0,0,.066-.468c.142.339.026.5-.257.48a2.756,2.756,0,0,0,.863-.036c.283-.1.538-.239.646-.093-.129-.158-.378-.025-.631.068a1.613,1.613,0,0,1-.657-.021,3.727,3.727,0,0,0,.775-.075c.211-.166.364-.26.364-.025.325-.479.495-.631.481.018-.081-.469-.315-.242-.626.044a5.2,5.2,0,0,0-.573-.07,2.368,2.368,0,0,1,.728.1c.251-.287.4-.381.365-.005.32-.626.466-.783.451-.012.028-.772-.105-.617-.412.021.041-.39-.091-.3-.337.01-.139-.115-.378-.1-.68-.118.27.018.476,0,.584.094.333-.346.569-.587.646-.041.025-.736-.124-.578-.448,0,.035-.323-.1-.228-.338.014-.171-.04-.421-.015-.7-.056.25.048.471.031.626.051.325-.266.581-.494.686-.028.023-.647-.141-.5-.459-.015.009-.241-.138-.151-.347.022a3.187,3.187,0,0,1-.735.023,1.824,1.824,0,0,0,.668,0c.3-.177.567-.375.686-.039.015-.493-.159-.363-.451-.016-.037-.134-.191-.052-.368.051a3.888,3.888,0,0,1-.8.171,3.885,3.885,0,0,0,.614.139c.208.032.42.057.633.1-.185,0-.394,0-.635-.014a8.26,8.26,0,0,1-.832-.09c.191-.078.2-.244-.038-.566a.684.684,0,0,1-.164.889,1.449,1.449,0,0,1,.706,1.325,1.457,1.457,0,0,0-.914-1.3c.017-.256-.187-.41-.57-.634.317.243.455.416.344.733.225.281.2.707.09,1.472.078-.772.068-1.2-.2-1.491-.009-.313-.276-.481-.755-.7.475.213.737.372.739.666.256.272.251.677.148,1.4.117-.743.135-1.165-.087-1.5a.8.8,0,0,0-.053-.5,1.573,1.573,0,0,0-.362-.512c.412.3.659.5.723.561a3.13,3.13,0,0,0,.755.054.742.742,0,0,0,.448-.155c-.14.155-.51.161-1.027-.046a.384.384,0,0,0,.094-.291c.006-.266-.025-.527-.137-.393.231.145.3.413.222.411a3.4,3.4,0,0,1,.811-.01c.2-.228.323-.363.23-.082.393-.5.569-.585.465.127-.1-.69-.332-.42-.642-.042a1.321,1.321,0,0,0-.712-.051c.105-.078.177-.143.219-.1.051-.4.073-.682.024-.242.064-.454.057-.181.013.23-.024-.093-.085-.047-.181.052.295-.08.554-.107.708.087.238-.355.35-.51.186-.084.464-.661.653-.742.557.172.094-.913-.1-.832-.561-.173.162-.422.048-.267-.19.084-.159-.188-.422-.16-.721-.081.089-.095.142-.14.161-.058.031-.394.029-.661-.041-.246.049-.4.032-.112-.011.265-.042-.02-.11.051-.211.121a2.625,2.625,0,0,1,.72.034c.293-.319.517-.575.6.016.1-.617-.063-.533-.419-.1.063-.221-.063-.1-.244.086-.228,0-.514.039-.844.044a1.084,1.084,0,0,0-.442-.412c.148-.031.2.215.209.442a.819.819,0,0,1-.085.469.921.921,0,0,1,.437.98c.034-.445-.168-.657-.6-.861a.693.693,0,0,0-.258-.317,6.274,6.274,0,0,0-.584-.4,2.329,2.329,0,0,1,.451.472.553.553,0,0,1,.082.455c.083.321-.122.732-.536,1.427.392-.686.575-1.087.456-1.367,0-.29-.3-.459-.879-.68.578.228.881.4.884.707.124.294-.051.715-.428,1.434.36-.717.519-1.137.376-1.424-.045-.294-.391-.455-1.039-.656.608.2.913.352.9.617.038.262-.239.633-.8,1.257.554-.629.828-1,.786-1.275,0-.273-.308-.442-.925-.659.648.213.991.379,1.027.662.117.278-.073.672-.491,1.342.425-.682.622-1.089.517-1.4-.013-.312-.329-.524-.93-.818.59.27.9.459.887.71.068.249-.177.562-.687,1.08.525-.538.786-.872.763-1.2a.73.73,0,0,0-.068-.513,1.29,1.29,0,0,0-.472-.554,1.954,1.954,0,0,1,.664.393,1.308,1.308,0,0,0,.358.122,2.221,2.221,0,0,0,.66-.1c.178-.209.316-.428.372-.242-.041-.2-.163.005-.319.21-.158.012-.35.023-.583.018.01-.084-.021-.183-.107-.182-.021-.361-.1-.621-.358-.395a.724.724,0,0,1,.592.44c.287-.135.523-.193.722-.038.147-.286.247-.476.11-.225.409-.453.58-.465.472.243.117-.718-.045-.715-.459-.246.162-.279.072-.091-.078.22-.168-.229-.382-.2-.641-.021.07-.2.021-.56-.161-.428.211-.163.29.167.24.385.275-.239.5-.276.664.061.19-.4.283-.608.061-.216.505-.6.7-.6.579.305.118-.91-.074-.907-.58-.306.222-.392.13-.186-.061.216-.163-.338-.391-.3-.666-.061.047-.219-.034-.55-.251-.387.185-.133.234.227.165.428.257-.18.468-.212.636.018.147-.31.235-.5.074-.226.41-.461.57-.462.454.248.108-.7-.062-.692-.468-.246.137-.246.037-.055-.107.231-.2-.159-.432-.1-.717.038a.729.729,0,0,0-.609-.448c.273-.237.349.021.369.393.091-.018.125.077.117.169.232-.017.422-.037.58-.031.158-.249.284-.471.329-.2-.062-.262-.206-.028-.388.223a4.62,4.62,0,0,1-.66.1,3.277,3.277,0,0,1-.376-.122,1.534,1.534,0,0,0-.686-.409,1.128,1.128,0,0,1,.487.541.662.662,0,0,1,.068.484c0,.3-.279.563-.846.975.544-.4.8-.651.749-.884,0-.232-.313-.445-.913-.765.6.337.911.567.912.843.056.276-.2.6-.736,1.121.519-.522.756-.843.681-1.107-.037-.266-.388-.475-1.047-.773.612.287.916.486.893.713s-.359.484-1.04.888c.669-.416,1-.684,1.006-.934s-.3-.479-.916-.816c.637.307.971.508.985.687s-.268.341-.887.568c.614-.251.9-.434.891-.66a.6.6,0,0,0-.227-.382,4.8,4.8,0,0,0-.664-.519,6.879,6.879,0,0,1,.658.443c.148.117.225.2.229.258.018.116-.256.124-.833.068.576.015.849-.033.865-.219a.4.4,0,0,0-.172-.334.822.822,0,0,0-.59-.533.792.792,0,0,1,.679.456c.2,0,.313.055.349.148.23-.1.266-.36.047-.385.226-.025.2.182-.011.293.013-.2-.062-.3-.278-.19,0-.421-.131-.643-.6-.49.476-.171.618.032.611.465.239-.156.328-.084.316.16.275-.218.379-.478.26-.3.131-.236.039-.036-.219.225.021-.4-.124-.741-.766-.634.693-.175.89.1.937.573.266-.475.4-.531.445-.016.111-.4.2-.647.091-.53.277-.234.354-.1.313.419.041-.519-.036-.657-.315-.422.112-.12.022.131-.089.529-.045-.526-.177-.472-.444.012a.731.731,0,0,0-.219-.545.793.793,0,0,0-.707-.029c.646-.138.79.195.769.622.276-.3.388-.5.3-.217.08-.238-.045.012-.337.272-.041-.3-.25-.6-.911-.625.5-.227.627-.007.588.479.24-.177.317-.088.292.18.25-.19.329-.412.168-.27.151-.1.062.159-.206.329-.017-.177-.121-.242-.352-.16-.048-.336-.223-.524-.656-.47a.489.489,0,0,1,.582.508.2.2,0,0,1,.213.237c.054.058-.112-.032-.531-.242a2.469,2.469,0,0,1,.488.311c-.016-.064-.1-.148-.267-.211a.974.974,0,0,0-.636-.481,1,1,0,0,1,.626.5c.158.084.231.181.241.247.041.1-.161.037-.618-.168.436.234.621.319.555.246a1.478,1.478,0,0,0-.286-.218,4.207,4.207,0,0,0-.668-.457c.548.388.829.638.83.769s-.277.143-.867.082c.583.037.853.007.843-.133s-.3-.391-.856-.763c.551.366.832.611.836.743s-.272.151-.86.1c.578.029.845-.013.845-.171s-.267-.43-.812-.792c.553.326.826.564.849.669.036.075-.18.018-.663-.176.476.158.684.181.65.09,0-.165-.243-.444-.8-.732.564.26.814.51.826.66.077.01-.084-.081-.52-.277.429.153.583.2.5.193.021-.23-.194-.519-.779-.709.588.147.809.392.787.623.147-.115.051-.242-.389-.321.431.019.517.086.346.22.077-.349-.1-.631-.729-.669.624-.026.8.194.7.564.253-.289.223-.427-.252-.3.455-.186.465-.107.163.2.147-.461-.019-.7-.676-.595.788.156.9.361.187.263.755.116.657-.04-.164-.213.646-.021.811.262.692.669.19-.151.094-.179-.348-.17.448.071.55.18.4.3.044-.254-.163-.5-.746-.616.581.154.786.43.746.681.1-.027-.044-.079-.478-.209.434.16.58.243.483.265.007-.187-.227-.435-.789-.646.546.234.765.5.739.7.042.058-.16.037-.626-.118.472.19.678.24.635.185,0-.138-.251-.383-.792-.664.525.3.758.553.739.7,0,.1-.243.1-.779-.016.525.1.763.087.748-.021.015-.166-.221-.428-.748-.709.509.253.727.485.693.635.014.062-.225.042-.735-.092.482.084.7.055.667-.015.053-.217-.141-.477-.651-.673.515.154.714.371.656.579.09-.04-.078-.088-.521-.219.429.1.586.112.479.153.08-.262-.1-.5-.629-.606.508.089.672.306.569.56.1-.061-.064-.084-.5-.176.416.07.564.07.442.128.1-.274-.069-.491-.574-.566.469.057.6.256.471.515.088-.048-.089-.036-.5-.1.4.025.575-.024.464.028.163-.316.045-.532-.448-.54.721.178.821.382.128.273.677.01.563-.292-.141-.4.656.008.722.211.078.258.625.042.524-.19-.155-.345.559-.228.54-.379-.1-.287.613-.112.6.017.046.247.592.094.633.29.06.309.573-.02.531-.216-.061-.31.556-.232.563-.363-.051-.252.64-.091.659.06.1.29.675.151.774.383.151.344.639-.054.573-.259-.08-.262.693.1.8.4.126.4.684.094.587-.114-.121-.279.481,0,.591.211.424.524.108-.048-.062.008-.46-.009.416.061.6.051.525.1.14-.253.015-.446-.45-.5.517.09.694.318.6.593.114-.04-.041-.032-.463-.111.436.121.606.156.517.195.067-.212-.126-.421-.627-.562.488.184.669.435.6.654.02.078-.206.124-.7.07.515.093.759.087.752.018.047-.164-.159-.389-.65-.62.5.257.71.509.672.687-.005.118-.262.163-.81.12.548.049.806.012.811-.1.034-.167-.184-.413-.68-.678.487.25.7.481.654.639,0,.093-.26.113-.8.042.514.038.751-.013.746-.116.052-.2-.138-.446-.617-.663.491.182.694.4.647.581.061.007-.129-.014-.572-.147.431.1.608.084.53.075.065-.238-.125-.471-.627-.611.457.112.6.316.494.535a2.805,2.805,0,0,1-.6-.061c.417.036.607-.021.539-.024.128-.274,0-.495-.471-.56.479.017.621.19.478.469.151-.117.015-.13-.4-.156.4-.019.532-.052.352.071.189-.352.07-.548-.442-.5.653.109.71.323.038.294.613-.052.5-.348-.135-.4.538-.009.557.222-.012.337.571-.112.553-.34.014-.332.638.065.755.366.136.411.68.045.625-.164-.034-.29.514-.032.639.171.462.518.17-.111.038-.079-.368-.074.415.045.557.065.419.171.129-.264-.021-.442-.5-.481.473.093.616.325.505.588.055.025-.143.081-.577.04.442.08.649.062.611.038.083-.205-.078-.415-.532-.558.484.162.675.39.618.606.061.029-.127.047-.563-.049.452.119.654.124.61.1.056-.191-.134-.414-.618-.6.5.2.705.445.665.645.045.057-.157.071-.617-.034.472.138.683.158.647.107.019-.147-.207-.365-.7-.606.483.28.7.537.67.714-.013.148-.272.215-.83.21.57.045.841.018.854-.1s-.226-.347-.713-.654c.507.336.768.586.763.748s-.276.236-.866.257c.6,0,.881-.043.883-.178s-.274-.356-.8-.692c.512.351.778.59.759.756s-.322.263-.957.338c.656-.042.977-.111,1-.255s-.257-.363-.8-.706c.556.348.849.571.842.717s-.312.215-.952.253c.647-.054.96-.138.985-.312s-.236-.436-.759-.816a3.477,3.477,0,0,1,.881.63c.039.069-.18,0-.673-.2.491.145.709.159.684.063.009-.171-.224-.452-.778-.734.574.25.828.5.849.655.1-.012-.039-.119-.462-.3.426.138.567.2.474.221.031-.252-.171-.549-.77-.708.625.11.852.359.854.627.207-.19.187-.36-.208-.318.394-.048.413.117.2.309,0-.28-.22-.534-.848-.633.6.138.8.43.765.691.108-.048-.019-.127-.449-.244.42.145.538.251.422.291-.009-.19-.252-.444-.833-.657.556.233.775.507.75.7.047.047-.15.01-.609-.161.452.2.638.253.577.207-.015-.139-.277-.382-.826-.663.5.292.715.545.676.7-.023.122-.3.144-.872.081.54.039.787,0,.788-.131.021-.161-.2-.406-.69-.683.484.261.707.491.686.64.009.095-.226.11-.741.029.5.059.714.023.689-.078.014-.167-.216-.4-.694-.646.426.232.6.448.547.607-.028.114-.287.168-.815.161.508-.029.749-.12.76-.246.059-.2-.111-.429-.535-.629.422.153.59.338.52.513.032.029-.172.048-.607-.02.412.021.594-.046.535-.084.086-.234-.068-.439-.492-.545.376.064.482.226.358.435a1.224,1.224,0,0,1-.514.04c.35-.038.513-.137.439-.151.145-.266.052-.448-.334-.462.55.111.6.324,0,.339.554-.12.471-.438-.054-.488.468-.035.494.2,0,.365.521-.042.477-.294-.052-.448.4-.281.312-.464-.27-.494.584.01.673.172.27.455.548.085.6.291.1.356.49-.094.424-.33-.132-.416.384-.37.28-.591-.376-.7.645.1.739.3.349.667.525.048.568.255.107.384.448-.158.394-.393-.142-.448.369-.432.257-.686-.432-.888.687.186.8.423.419.849.543.013.6.215.156.4.431-.218.368-.448-.191-.475.374-.481.253-.758-.462-1.03.707.259.821.523.436.99.545,0,.591.211.176.455.4-.272.345-.507-.219-.534.378-.5.251-.8-.459-1.125.705.317.828.6.44,1.089.563.011.614.228.218.521.386-.319.323-.563-.258-.6.433-.383.378-.526-.224-.508.467-.348.386-.534-.217-.683.7.356.829.652.432,1.158.6.016.672.243.282.585.448-.3.409-.508-.211-.51.477-.409.422-.553-.237-.518.51-.382.417-.583-.245-.753.674.327.715.57.185.871.337-.032.1-.008-.4-.022.51-.009.751-.057.4-.045.582-.33.569-.6-.147-.979.742.186.831.383.217.762.771-.048.841.085.246.523.807-.1.942.029.393.479.541-.439.4-.561-.4-.462.567-.426.49-.555-.253-.51.567-.369.467-.563-.233-.741.673.369.689.637.147.952.294.006.031.059-.468.065.491.009.747-.029.465-.023.5-.292.46-.538-.177-.873.633.171.736.367.252.734.654-.03.721.109.247.511.651-.015.721.173.263.494.458-.328.388-.524-.273-.515.478-.405.408-.548-.252-.527.482-.363.374-.562-.253-.743.618.339.646.583.147.859.239.011-.049.053-.563.043.493.011.762-.029.528-.049.429-.254.356-.487-.2-.815.5.186.611.38.245.7.523.026.571.174.2.5.424.085.335.311,0,.594.333-.3.416-.542-.02-.645.375-.332.325-.488-.2-.534.367-.313.255-.515-.238-.722.532.322.592.537.153.744.224.009-.05.011-.544-.06.517.045.813.017.57-.014.545-.25.548-.5-.064-.883.665.218.773.418.21.754.756,0,.842.141.252.555.841-.068,1,.067.452.556.537-.507.37-.659-.486-.62.584-.406.489-.552-.258-.583.532-.319.411-.523-.211-.759.537.361.5.583-.011.769.141.045-.2.054-.755-.005.476.071.736.074.622.028.252-.122.13-.292-.236-.561.341.393.439.689.23.97-.032.225-.371.436-.98.666.6-.249.93-.478.957-.721.2-.3.1-.6-.227-1.01.325.234.422.372.184.454.079.031-.177.005-.624-.087.523.064.854.062.749,0,.489-.141.543-.339.068-.683.588.25.713.451.184.729.753.067.854.212.236.583.914-.009,1.1.135.534.692.573-.554.383-.7-.53-.684.618-.373.518-.517-.236-.581.532-.28.41-.481-.184-.73.485.349.435.551-.06.7.118.057-.209.059-.73-.006.454.095.714.121.621.091.264-.09.174-.236-.168-.481.365.416.477.733.253,1.047.021.236-.295.47-.881.725.6-.23.923-.44.908-.652.231-.3.121-.593-.258-.991.391.287.512.473.236.621.13.05-.138.061-.63.007.561.054.9.041.748,0,.5-.2.512-.422-.032-.772.6.224.725.43.233.766.7.022.788.173.264.583.759-.012.88.176.4.6.5-.4.386-.562-.352-.516.526-.412.449-.552-.253-.534.518-.355.412-.552-.236-.744.624.363.642.619.125.9.244.024-.047.073-.561.067.5.029.766,0,.539-.008.424-.24.349-.462-.2-.779.492.185.6.38.254.7.51.028.557.177.2.5.4.1.307.332-.029.611.293-.323.368-.571-.015-.665.329-.434.2-.715-.389-1.058.491.154.6.335.249.647.519.012.582.157.232.5.5.086.52.353.187.648.356-.255.353-.482-.116-.529.331-.445.195-.71-.447-1,.648.3.79.58.469,1.039.48.064.5.311.128.548.378-.213.369-.435-.095-.482.323-.421.191-.667-.443-.908.642.253.782.51.468.943.486.068.518.311.12.5.414-.155.4-.365-.072-.417.339-.363.224-.57-.387-.712.624.164.753.393.424.766.507.11.553.363.1.474.487-.06.467-.265-.031-.371.4-.242.319-.386-.225-.383.556.017.648.179.249.42.53.161.567.4.037.425.525-.033.487-.278-.038-.435.408-.256.329-.424-.236-.435.572-.006.657.145.246.4.557.1.617.3.1.344.5-.085.435-.328-.132-.422.4-.38.305-.612-.372-.725.666.082.75.283.338.656.544.007.591.186.124.339.462-.163.412-.35-.135-.359.406-.394.315-.61-.366-.727.69.138.789.376.393.778.564.069.631.3.144.415.491-.086.428-.289-.126-.357.394-.32.3-.5-.317-.55.607.06.7.256.307.574.52.116.56.354.068.427.491-.07.445-.309-.078-.428.365-.318.253-.518-.349-.6.587.068.683.249.315.563.478.071.491.274.046.386.416-.16.375-.408-.117-.492.3-.414.159-.663-.473-.895.614.214.741.445.424.841.436.052.426.269.055.471.354-.244.346-.5-.115-.584.3-.459.157-.743-.475-1.061.627.3.769.561.448,1,.467.047.469.271.127.54.383-.246.4-.47-.1-.525.37-.35.311-.487-.231-.471.364-.339.246-.526-.286-.678.564.3.622.527.206.8.173.024-.128.087-.666.125.509-.051.781-.127.6-.179.333-.254.216-.483-.285-.8.534.377.684.664.4,1.027.219.125,0,.326-.437.568.428-.27.639-.5.4-.655.293-.39.14-.707-.391-1.128.471.31.566.516.207.708.174.029-.106.044-.613,0,.542.024.857-.015.665-.056.5-.245.5-.492-.081-.858.618.208.734.407.23.743.7.005.787.147.255.551.762-.036.885.126.387.553.5-.445.378-.626-.4-.607.555-.411.473-.562-.252-.585.533-.335.422-.542-.21-.772.583.361.577.591.043.8.229.024-.072.028-.586-.047.487.085.762.091.547.071.434-.181.379-.388-.125-.708.465.219.573.423.214.716.51.07.553.229.179.539.4.131.277.378-.06.676.326-.307.437-.562.032-.71.351-.3.3-.463-.191-.549.308-.278.183-.481-.234-.7.413.3.432.481.055.621.059.048-.277.052-.832,0,.49.044.76.034.712-.025.2-.107.071-.263-.257-.509.288.369.37.647.2.9-.1.229-.449.428-1.061.642.6-.227.938-.441,1.03-.683.153-.259.057-.544-.229-.917.268.2.345.319.178.383a2.15,2.15,0,0,1-.818,0c.464.019.737,0,.782-.06.142-.077.055-.2-.206-.4.226.321.279.567.128.777a1.943,1.943,0,0,1-1.041.549,1.9,1.9,0,0,0,1.024-.612c.148-.229.1-.49-.114-.821.218.151.274.234.14.272a2.545,2.545,0,0,1-.737-.011,2.329,2.329,0,0,0,.738-.006c.136-.043.084-.128-.13-.279.21.327.258.59.109.823a1.932,1.932,0,0,1-1.02.636,1.893,1.893,0,0,0,1-.674.792.792,0,0,0-.107-.849c.359.22.121.193-.62.117.712.022.919,0,.579-.229a.534.534,0,0,1-.014.651,2.038,2.038,0,0,1-.938.486,1.968,1.968,0,0,0,.921-.518.593.593,0,0,0,.017-.678c.283.137.046.084-.593.015.617.008.834,0,.578-.151.153.372-.166.6-.96.821a2.44,2.44,0,0,0,.85-.382.426.426,0,0,0,.145-.5c.232.089.005.021-.569-.063.563.025.779.034.582-.085.029.118-.045.2-.213.277a3.881,3.881,0,0,1-.771.19,3.813,3.813,0,0,0,.792-.209c.177-.081.266-.179.258-.315.226.077.072,0-.361-.14a2.244,2.244,0,0,0,.657.038c.279,0,.4-.054.209-.2.551.245.615.2.144-.1.46.19.434.29-.074.264.223.06-.037-.006-.479-.135.515.2.807.273.534-.007.753.4.941.458.279.045.7.422.548.378-.228-.038.4.326.168.282-.366.021.54.259.773.3.373-.028.785.4.936.431.228.018.22.324.279.336,0-.031.564.181.389.269-.208.22.576.057.728-.022.2-.184.689.409.526.371-.245-.029.35.3.093.24-.423,0,.5.221.733.266.4-.029.686.32.8.3.181-.044.576.336.423.342-.243.03.255.115.13.142-.188.094a5.638,5.638,0,0,1-.536-.178c.414.124.606.146.468-.031.1-.007-.133-.213-.588-.564.454.4.667.6.524.551.028.039-.065.015-.239-.059s-.425-.2-.757-.369c.328.15.575.26.746.318s.268.061.247.012c.087-.033.058-.119-.079-.234a1.548,1.548,0,0,0-.468-.667c.481.518.689.786.594.792.049,0,0-.081-.111-.22s-.3-.34-.547-.6c.515.479.761.714.7.721.1-.045.105-.155.024-.319a2.513,2.513,0,0,0-.472-.63c.533.446.7.7.534.805.133-.069.154-.187.071-.343a1.559,1.559,0,0,0-.5-.538,1.708,1.708,0,0,1,.555.436c.1.131.082.236-.064.315.178-.1.227-.227.144-.374-.042-.125-.217-.27-.523-.425a1.311,1.311,0,0,1,.6.29c.1.112.053.219-.144.33.247-.162.342-.319.27-.475-.028-.127-.223-.252-.589-.365.405.061.639.135.693.225.095.12.009.256-.257.424.335-.208.489-.384.429-.547.009-.108-.2-.2-.613-.267.452-.022.7-.009.729.048.064.086-.085.216-.43.42.412-.268.629-.461.618-.6.015-.117-.2-.184-.653-.209a2.427,2.427,0,0,0,.836.016c.039-.017-.184-.068-.67-.114.53,0,.8.013.8.019a2.568,2.568,0,0,1-.722.084c.448.084.646.179.572.2,0,.111-.264.152-.75.127.507-.01.79-.076.8-.191.078-.039-.117-.127-.566-.18a3.872,3.872,0,0,0,.739-.133c-.008-.007-.281.008-.821.044.487.03.706.08.664.107a2.03,2.03,0,0,1-.847.039c.449.024.657.1.632.211.014.156-.2.357-.62.63.339-.2.478-.326.4-.414-.031-.048-.276-.057-.722-.029.408.065.61.161.6.261.073.17-.071.345-.4.541.264-.158.34-.293.236-.42-.049-.087-.279-.164-.674-.23.359.113.552.237.577.357.081.157-.005.31-.249.461.2-.108.245-.219.143-.34a1.247,1.247,0,0,0-.591-.307c.308.153.484.3.524.417.089.148.041.273-.144.372a.2.2,0,0,0,.082-.331,1.5,1.5,0,0,0-.553-.432,1.379,1.379,0,0,1,.51.491.217.217,0,0,1-.088.343c.13-.065.141-.172.047-.313a1.831,1.831,0,0,0-.528-.5c.551.416.7.669.488.807a.243.243,0,0,0,.121-.365,1.088,1.088,0,0,0-.492-.478,1.287,1.287,0,0,1,.571.365c.1.13.066.243-.12.342.213-.121.276-.256.186-.4-.034-.114-.22-.24-.553-.363.355.1.564.2.61.3.108.135.051.266-.179.4.256-.138.338-.276.238-.421-.015-.09-.213-.188-.571-.271.37.066.58.147.6.224.107.134.028.265-.236.406.272-.162.36-.314.261-.464-.027-.1-.241-.2-.626-.283.38.089.588.194.612.3.1.154.006.309-.263.469.244-.128.31-.25.2-.377-.035-.078-.246-.16-.6-.235.353.085.56.174.594.255.111.13.049.252-.191.375.269-.159.36-.315.265-.475-.017-.109-.22-.221-.6-.319.4.07.624.155.656.244.11.144.026.29-.255.452.323-.178.448-.342.354-.508.014-.085-.192-.173-.591-.231.419-.006.649.024.666.077.09.112-.032.248-.35.432.386-.247.575-.446.535-.621.03-.111-.168-.2-.593-.245.467.123.72.147.719.075.045-.024-.164-.144-.621-.309.538.011.826-.022.836-.082s-.256-.147-.831-.244c1.3-.109,1.389-.259.306-.683,1.255.141,1.34.008.74-.573.748.34.811.233.349-.316.545.375.566.307-.006-.17.667.369.727.344.223.031.55.369.535.449.107.256.337.482.262.69.029.994.208-.232.3-.421.049-.905.422.15.5.005-.035-.418.661.176.7.073-.123-.378.6.571.693.411.565-.609.062.935-.1,1.008-.859.309.793.657.98.542.96-.418.082.978-.041,1.11-.713.474.7.653.845.538.841-.419,0,1-.154,1.152-.833.559.793.463.663.573-.141.329.676.471.673.569.184.336.438.456.39.582.017.379.246.479.167.631-.191.8a.175.175,0,0,1,.019.282,2.628,2.628,0,0,1-.694.5c.289-.037.407-.009.305,0-.028.1-.276.187-.725.252.449-.067.7-.149.73-.254.107,0,0-.031-.284.007a2.708,2.708,0,0,0,.686-.505c.1-.12.085-.2.007-.28.336-.173.418-.325.189-.8.36.193.411.067-.03-.378.492.22.494.123-.19-.34.823.237.983.13.21-.3.676.582.855.42.951-.57-.072.96-.227,1.092-.887.466.646.61.786.461.8-.521-.082.959-.293,1.086-1.092.441.775.687.975.6,1.064-.335.012,1.028-.088,1.208-.587.686.551.6.7.508.914-.4-.173,1-.287,1.181-.629.8.51.309.445.454.07.461.21.33.11.524.136.811-.04-.322.055-.547-.231-.938.464-.007.546-.18-.059-.544.444.423.6.211.812-.8-.224.909-.394,1.017-.977.38.6.525.789.306.934-.67-.2.874-.435.991-1.215.334.73.577.918.38.926-.543-.108.812-.4.9-1.291.274.9.6,1.218.491,1.382-.308,0,.889-.158,1.09-.765.518.825.61,1.2.448,1.729-.252-.227.858-.3,1.179.059,1.074-.174.184.082-.058.765-.606-.512.663-.6,1.02.153,1.367-.659-.262-.483-.534.259-.975-.636.5-.705.836.127,1.318-.932-.4-.961-.653-.342-1.2-.944.544-1.238.789-1.034.828-.159-.048.166-.3,1.129-.814-.583.515-.529.77.4,1.2-.834-.529-.794-.879-.225-1.365-.741.409-.953.681-.365.9-.729-.321-.657-.7-.241-1.408-.669.548-.993.757-1.223.336-.009.317.077,0,.147-.885-.4.666-.821.757-1.8.156,1,.6,1.463.5,1.954-.133-.054.87-.077,1.207.23,1.047-.023.223.316-.056,1.017-.5-.292.538-.223.914.634,1.419-.739-.436-.691-.743-.2-1.064-.561.406-.683.8.046,1.349-.617-.521-.376-.885.277-1.153-.219.214-.026.524.581,1.113-.57-.551-.726-.824-.468-.976-.589.264-.765.649-.133,1.285-.6-.617-.388-.983.214-1.211-.195.134,0,.4.522.953-.508-.525-.7-.772-.482-.88-.586.233-.772.6-.177,1.247-.618-.624-.456-.977.141-1.207-.29.141-.145.406.407.944-.58-.535-.754-.8-.459-.959-.66.249-.851.6-.2,1.2-.62-.657-.546-1-.054-1.315-.707.293-1,.615-.42,1.083-.577-.467-.284-.788.427-1.077-.485.315-.553.661.068,1.328-.639-.6-.443-.951.211-1.19-.274.148-.091.405.469.934-.522-.523-.67-.775-.4-.891-.289.109-.472.252-.508.446s.073.44.37.755c-.277-.322-.368-.575-.319-.774s.239-.344.522-.451c-.168.075.036.3.5.806-.462-.518-.669-.763-.512-.851-.568.208-.772.572-.217,1.21-.574-.654-.389-1.035.172-1.265-.187.092,0,.336.491.86-.518-.557-.738-.834-.577-.973-.613.232-.845.6-.252,1.2-.647-.615-.469-1,.13-1.275-.276.181-.131.47.472,1.033-.637-.589-.814-.9-.57-1.138-.658.285-.894.65-.266,1.157a.972.972,0,0,1-.15-1.485c-.654.332-1.066.612-1.017.5-.4.035-.348-.318-.2-1.139-.551.594-1.007.722-1.963.107.905.6,1.3.455,1.729-.2-.154.806-.282,1.1-.3.759.274.377.655.117,1.242-.373-.34.594-.476.957-.006,1.139-.256-.163.094-.507.6-.826-.368.371-.575.766-.114,1.237-.532-.407-.24-.776.409-1.047-.119.22.118.54.716,1.142-.536-.557-.711-.832-.535-.96-.542.262-.735.67-.139,1.312-.488-.617-.188-1,.371-1.2a7.007,7.007,0,0,1,.782.786,3.014,3.014,0,0,0-.666-.679c-.469.188-.709.582-.275,1.248a.75.75,0,0,1,.395-1.218c.145-.044.453.126.851.528-.392-.428-.694-.625-.854-.6a.71.71,0,0,0-.4,1.152.7.7,0,0,1,.442-1.118c.19-.031.5.166.892.583-.35-.339-.621-.456-.769-.362a.777.777,0,0,0-.424.425,1.047,1.047,0,0,0,.069.788.988.988,0,0,1-.1-.758.685.685,0,0,1,.415-.4c.087-.057.326.1.634.486-.343-.386-.619-.536-.7-.488a.793.793,0,0,0-.491.415.883.883,0,0,0,.128.771.991.991,0,0,1-.265-.762.635.635,0,0,1,.446-.423c-.144.031.028.239.422.714-.464-.5-.705-.727-.559-.813C116.113,544.389,115.882,544.743,116.455,545.366Z" transform="translate(-97.47 -532.912)" fill="#fcd45f"/></svg>