<svg xmlns="http://www.w3.org/2000/svg" xmlns:xlink="http://www.w3.org/1999/xlink" width="60" height="60" viewBox="0 0 60 60"><defs><linearGradient id="a" x1="0.5" x2="0.5" y2="1" gradientUnits="objectBoundingBox"><stop offset="0" stop-color="#cfffe7" stop-opacity="0.031"/><stop offset="1" stop-color="#18be6b" stop-opacity="0.588"/></linearGradient></defs><g transform="translate(-158 -177)"><g transform="translate(0 -1)"><path d="M17.048-9.877q0,5.06-1.893,7.63A6.687,6.687,0,0,1,9.394.322,6.775,6.775,0,0,1,3.666-2.183Q1.74-4.689,1.692-9.6v-4.061q0-5.06,1.893-7.589a6.749,6.749,0,0,1,5.777-2.53,6.787,6.787,0,0,1,5.744,2.465q1.893,2.465,1.942,7.38ZM13.132-14.26a9.927,9.927,0,0,0-.9-4.842,3.08,3.08,0,0,0-2.868-1.539,3.077,3.077,0,0,0-2.82,1.458,9.175,9.175,0,0,0-.951,4.552v5.317a10.183,10.183,0,0,0,.918,4.9A3.085,3.085,0,0,0,9.394-2.8a3.031,3.031,0,0,0,2.788-1.49,9.581,9.581,0,0,0,.951-4.665Z" transform="translate(171 220)" fill="#1e7177"/><path d="M9.28-3.732A1.4,1.4,0,0,0,8.6-4.989a7.224,7.224,0,0,0-2.253-.762A11.584,11.584,0,0,1,3.72-6.589,3.507,3.507,0,0,1,1.409-9.826a3.656,3.656,0,0,1,1.5-2.971A5.922,5.922,0,0,1,6.716-13.99a6.162,6.162,0,0,1,3.98,1.219A3.867,3.867,0,0,1,12.213-9.61H9.128a1.9,1.9,0,0,0-.66-1.479,2.53,2.53,0,0,0-1.752-.59,2.734,2.734,0,0,0-1.657.47,1.481,1.481,0,0,0-.641,1.257,1.25,1.25,0,0,0,.6,1.1,8.205,8.205,0,0,0,2.412.793,11.418,11.418,0,0,1,2.85.952,4.036,4.036,0,0,1,1.536,1.327,3.383,3.383,0,0,1,.5,1.879,3.579,3.579,0,0,1-1.536,3A6.55,6.55,0,0,1,6.754.254,7.1,7.1,0,0,1,3.745-.355,4.952,4.952,0,0,1,1.688-2.031a3.967,3.967,0,0,1-.736-2.3h3a2.174,2.174,0,0,0,.825,1.682,3.207,3.207,0,0,0,2.019.59A3.12,3.12,0,0,0,8.646-2.52,1.434,1.434,0,0,0,9.28-3.732Z" transform="translate(191 219)" fill="#1e7177"/></g><circle cx="30" cy="30" r="30" transform="translate(158 177)" fill="url(#a)"/></g></svg>