<svg xmlns="http://www.w3.org/2000/svg" xmlns:xlink="http://www.w3.org/1999/xlink" width="76.404" height="83.291" viewBox="0 0 76.404 83.291"><defs><linearGradient id="a" x1="0.5" x2="0.5" y2="1" gradientUnits="objectBoundingBox"><stop offset="0" stop-color="#4fcb8e"/><stop offset="1" stop-color="#008d47"/></linearGradient><linearGradient id="aj" x1="0.5" x2="0.5" y2="1" gradientUnits="objectBoundingBox"><stop offset="0" stop-color="#cfffe7" stop-opacity="0.031"/><stop offset="1" stop-color="#18be6b" stop-opacity="0.588"/></linearGradient><linearGradient id="ak" x1="0.5" x2="0.5" y2="1" gradientUnits="objectBoundingBox"><stop offset="0" stop-color="#58d597"/><stop offset="1" stop-color="#198a52"/></linearGradient></defs><g transform="translate(-145.9 -159.671)"><g transform="translate(215.9 190.432)"><path d="M54.591,17.471l-1.673-.155-.665-1.543a.134.134,0,0,0-.246,0l-.665,1.543-1.673.155a.134.134,0,0,0-.076.234l1.262,1.109-.369,1.639a.134.134,0,0,0,.2.145l1.445-.858,1.445.858a.134.134,0,0,0,.2-.145L53.4,18.814,54.667,17.7A.134.134,0,0,0,54.591,17.471Z" transform="translate(-48.928 -15.632)" fill="url(#a)"/><g transform="translate(0 0)"><path d="M89.369,11.058c.085.118.326.627.464.924a.047.047,0,0,1-.074.053c-.238-.225-.644-.614-.729-.733a.209.209,0,1,1,.339-.244Z" transform="translate(-87.877 -10.971)" fill="url(#a)"/><path d="M355.753,11.058c-.085.118-.326.627-.464.924a.047.047,0,0,0,.074.053c.237-.225.644-.614.729-.733a.209.209,0,1,0-.339-.244Z" transform="translate(-350.84 -10.971)" fill="url(#a)"/><path d="M415.719,282.881c-.139-.045-.7-.12-1.021-.161a.047.047,0,0,0-.028.087c.286.158.781.427.92.472a.209.209,0,0,0,.13-.4Z" transform="translate(-409.459 -279.321)" fill="url(#a)"/><path d="M.145,282.881c.139-.045.7-.12,1.021-.161a.047.047,0,0,1,.028.087c-.286.158-.781.427-.92.472a.209.209,0,0,1-.13-.4Z" transform="translate(0 -279.321)" fill="url(#a)"/><path d="M239.794,400.761c0-.146.1-.7.163-1.02a.047.047,0,0,1,.091,0c.062.321.163.875.163,1.02a.209.209,0,1,1-.418,0Z" transform="translate(-236.795 -394.84)" fill="url(#a)"/></g><path d="M52.495,16.334l-.242-.561a.134.134,0,0,0-.246,0l-.665,1.543-1.673.155a.134.134,0,0,0-.076.234l1.262,1.109-.369,1.639a.134.134,0,0,0,.2.145l.192-.114A10.407,10.407,0,0,1,52.495,16.334Z" transform="translate(-48.928 -15.632)" fill="url(#a)"/></g><g transform="translate(145.9 190.432)"><path d="M54.591,17.471l-1.673-.155-.665-1.543a.134.134,0,0,0-.246,0l-.665,1.543-1.673.155a.134.134,0,0,0-.076.234l1.262,1.109-.369,1.639a.134.134,0,0,0,.2.145l1.445-.858,1.445.858a.134.134,0,0,0,.2-.145L53.4,18.814,54.667,17.7A.134.134,0,0,0,54.591,17.471Z" transform="translate(-48.928 -15.632)" fill="url(#a)"/><g transform="translate(0 0)"><path d="M89.369,11.058c.085.118.326.627.464.924a.047.047,0,0,1-.074.053c-.238-.225-.644-.614-.729-.733a.209.209,0,1,1,.339-.244Z" transform="translate(-87.877 -10.971)" fill="url(#a)"/><path d="M355.753,11.058c-.085.118-.326.627-.464.924a.047.047,0,0,0,.074.053c.237-.225.644-.614.729-.733a.209.209,0,1,0-.339-.244Z" transform="translate(-350.84 -10.971)" fill="url(#a)"/><path d="M415.719,282.881c-.139-.045-.7-.12-1.021-.161a.047.047,0,0,0-.028.087c.286.158.781.427.92.472a.209.209,0,0,0,.13-.4Z" transform="translate(-409.459 -279.321)" fill="url(#a)"/><path d="M.145,282.881c.139-.045.7-.12,1.021-.161a.047.047,0,0,1,.028.087c-.286.158-.781.427-.92.472a.209.209,0,0,1-.13-.4Z" transform="translate(0 -279.321)" fill="url(#a)"/><path d="M239.794,400.761c0-.146.1-.7.163-1.02a.047.047,0,0,1,.091,0c.062.321.163.875.163,1.02a.209.209,0,1,1-.418,0Z" transform="translate(-236.795 -394.84)" fill="url(#a)"/></g><path d="M52.495,16.334l-.242-.561a.134.134,0,0,0-.246,0l-.665,1.543-1.673.155a.134.134,0,0,0-.076.234l1.262,1.109-.369,1.639a.134.134,0,0,0,.2.145l.192-.114A10.407,10.407,0,0,1,52.495,16.334Z" transform="translate(-48.928 -15.632)" fill="url(#a)"/></g><g transform="translate(202.456 170.044)"><path d="M57.73,18.579l-2.714-.252-1.078-2.5a.218.218,0,0,0-.4,0l-1.078,2.5-2.714.252a.218.218,0,0,0-.123.38l2.048,1.8-.6,2.659a.218.218,0,0,0,.323.235l2.344-1.392,2.344,1.392a.218.218,0,0,0,.323-.235l-.6-2.659,2.048-1.8A.218.218,0,0,0,57.73,18.579Z" transform="translate(-48.542 -15.596)" fill="url(#a)"/><g transform="translate(0 0)"><path d="M89.6,11.112c.138.192.529,1.018.752,1.5a.075.075,0,0,1-.12.087c-.385-.364-1.044-1-1.183-1.189a.339.339,0,1,1,.551-.4Z" transform="translate(-87.184 -10.971)" fill="url(#a)"/><path d="M356.044,11.112c-.138.192-.529,1.018-.752,1.5a.075.075,0,0,0,.12.087c.385-.364,1.044-1,1.183-1.189a.339.339,0,1,0-.551-.4Z" transform="translate(-348.074 -10.971)" fill="url(#a)"/><path d="M416.387,282.982c-.225-.073-1.13-.195-1.656-.261a.075.075,0,0,0-.046.141c.464.257,1.267.692,1.492.766a.339.339,0,0,0,.21-.645Z" transform="translate(-406.23 -277.204)" fill="url(#a)"/><path d="M.235,282.982c.225-.073,1.13-.195,1.656-.261a.075.075,0,0,1,.046.141c-.464.257-1.267.692-1.492.766a.339.339,0,0,1-.21-.645Z" transform="translate(0 -277.204)" fill="url(#a)"/><path d="M239.794,401.42c0-.237.165-1.135.265-1.656a.076.076,0,0,1,.148,0c.1.521.265,1.419.265,1.656a.339.339,0,1,1-.679,0Z" transform="translate(-234.927 -391.813)" fill="url(#a)"/></g><path d="M54.33,16.733l-.392-.91a.218.218,0,0,0-.4,0l-1.078,2.5-2.714.252a.218.218,0,0,0-.123.38l2.048,1.8-.6,2.659a.218.218,0,0,0,.323.235l.312-.185A16.886,16.886,0,0,1,54.33,16.733Z" transform="translate(-48.542 -15.596)" fill="url(#a)"/></g><g transform="translate(154.999 170.044)"><path d="M49.746,18.579l2.715-.252,1.078-2.5a.218.218,0,0,1,.4,0l1.078,2.5,2.715.252a.218.218,0,0,1,.123.38l-2.048,1.8.6,2.66a.218.218,0,0,1-.323.235l-2.344-1.392-2.344,1.392a.218.218,0,0,1-.323-.235l.6-2.66-2.048-1.8A.218.218,0,0,1,49.746,18.579Z" transform="translate(-48.542 -15.596)" fill="url(#a)"/><g transform="translate(0 0)"><path d="M89.75,11.112c-.138.192-.529,1.018-.752,1.5a.075.075,0,0,0,.12.087c.385-.364,1.044-1,1.183-1.189a.339.339,0,1,0-.551-.4Z" transform="translate(-81.779 -10.971)" fill="url(#a)"/><path d="M355.9,11.112c.138.192.529,1.018.752,1.5a.076.076,0,0,1-.12.087c-.385-.364-1.044-1-1.183-1.189a.339.339,0,1,1,.551-.4Z" transform="translate(-353.478 -10.971)" fill="url(#a)"/><path d="M414.88,282.982c.225-.073,1.13-.195,1.657-.261a.075.075,0,0,1,.046.141c-.464.256-1.267.692-1.492.766a.339.339,0,0,1-.21-.645Z" transform="translate(-414.646 -277.204)" fill="url(#a)"/><path d="M1.742,282.982c-.225-.073-1.13-.195-1.657-.261a.075.075,0,0,0-.046.141c.464.256,1.267.692,1.492.766a.339.339,0,1,0,.21-.645Z" transform="translate(8.416 -277.204)" fill="url(#a)"/><path d="M240.473,401.42c0-.237-.165-1.135-.265-1.656a.075.075,0,0,0-.148,0c-.1.521-.265,1.419-.265,1.656a.339.339,0,0,0,.679,0Z" transform="translate(-234.948 -391.812)" fill="url(#a)"/></g><path d="M49.548,16.734l.392-.911a.218.218,0,0,1,.4,0l1.078,2.5,2.715.252a.218.218,0,0,1,.123.38l-2.048,1.8.6,2.66a.218.218,0,0,1-.323.235l-.312-.185A16.888,16.888,0,0,0,49.548,16.734Z" transform="translate(-44.943 -15.596)" fill="url(#a)"/></g><g transform="translate(177.054 159.671)"><path d="M61.241,19.817l-3.879-.36-1.541-3.578a.311.311,0,0,0-.571,0l-1.541,3.578-3.879.36a.311.311,0,0,0-.176.543l2.927,2.571-.856,3.8a.311.311,0,0,0,.462.336l3.35-1.989,3.35,1.989a.311.311,0,0,0,.462-.336l-.856-3.8,2.927-2.571A.311.311,0,0,0,61.241,19.817Z" transform="translate(-48.111 -15.555)" fill="url(#a)"/><g transform="translate(0 0)"><path d="M89.869,11.173c.2.275.756,1.454,1.075,2.142a.108.108,0,0,1-.172.124c-.551-.521-1.492-1.424-1.69-1.7a.485.485,0,0,1,.787-.567Z" transform="translate(-86.409 -10.971)" fill="url(#a)"/><path d="M356.37,11.173c-.2.275-.756,1.454-1.075,2.142a.108.108,0,0,0,.172.124c.551-.521,1.492-1.424,1.69-1.7a.485.485,0,1,0-.787-.567Z" transform="translate(-344.98 -10.971)" fill="url(#a)"/><path d="M417.135,283.094c-.322-.1-1.615-.278-2.367-.373a.108.108,0,0,0-.066.2c.663.366,1.81.989,2.132,1.094a.485.485,0,1,0,.3-.922Z" transform="translate(-402.62 -274.838)" fill="url(#a)"/><path d="M.335,283.094c.322-.1,1.615-.278,2.367-.373a.108.108,0,0,1,.066.2c-.663.366-1.81.989-2.132,1.094a.485.485,0,0,1-.3-.922Z" transform="translate(0 -274.838)" fill="url(#a)"/><path d="M239.794,402.156c0-.338.236-1.622.379-2.366a.108.108,0,0,1,.212,0c.143.744.379,2.028.379,2.366a.485.485,0,1,1-.97,0Z" transform="translate(-232.839 -388.428)" fill="url(#a)"/></g><path d="M56.381,17.18l-.56-1.3a.311.311,0,0,0-.571,0l-1.541,3.578-3.879.36a.311.311,0,0,0-.176.543l2.927,2.571-.856,3.8a.311.311,0,0,0,.462.336l.446-.265A24.13,24.13,0,0,1,56.381,17.18Z" transform="translate(-48.111 -15.555)" fill="url(#a)"/></g><circle cx="32" cy="32" r="32" transform="translate(152 178)" fill="url(#aj)"/><path d="M44.739.21a.854.854,0,0,0-.666-.2L17.921,3.391a.843.843,0,0,0-.735.836V34.271a8.755,8.755,0,0,0-6.749-3.057C5.785,31.215,2,34.621,2,38.808S5.785,46.4,10.437,46.4s8.437-3.406,8.437-7.593c0-.2-.016-.388-.033-.58a.811.811,0,0,0,.033-.162V13.6l24.466-3.166v15.4a8.757,8.757,0,0,0-6.749-3.056c-4.652,0-8.437,3.406-8.437,7.593s3.785,7.593,8.437,7.593c4.61,0,8.363-3.346,8.431-7.481,0-.011.006-.02.006-.031V.844A.842.842,0,0,0,44.739.21Z" transform="translate(156.231 196.562)" fill="url(#ak)"/></g></svg>