<svg xmlns="http://www.w3.org/2000/svg" xmlns:xlink="http://www.w3.org/1999/xlink" width="193.423" height="197.641" viewBox="0 0 193.423 197.641">
  <defs>
    <filter id="Ellipse_2780" x="80.099" y="47.285" width="113.324" height="113.324" filterUnits="userSpaceOnUse">
      <feOffset dx="-6" dy="6" input="SourceAlpha"/>
      <feGaussianBlur stdDeviation="6" result="blur"/>
      <feFlood flood-opacity="0.4"/>
      <feComposite operator="in" in2="blur"/>
      <feComposite in="SourceGraphic"/>
    </filter>
    <filter id="Ellipse_2783" x="6.909" y="0" width="125.893" height="125.893" filterUnits="userSpaceOnUse">
      <feOffset dx="-6" dy="6" input="SourceAlpha"/>
      <feGaussianBlur stdDeviation="6" result="blur-2"/>
      <feFlood flood-opacity="0.4"/>
      <feComposite operator="in" in2="blur-2"/>
      <feComposite in="SourceGraphic"/>
    </filter>
  </defs>
  <g id="Find_a_smile" data-name="Find a smile" transform="translate(-73.364 -123.743)">
    <path id="Path_11197" data-name="Path 11197" d="M2.794-14.08a1.43,1.43,0,0,0-.633.127,1.278,1.278,0,0,0-.418.314,1.165,1.165,0,0,0-.231.424,1.887,1.887,0,0,0-.082.446V-1.342a1.318,1.318,0,0,0,.1.528,1.349,1.349,0,0,0,.286.424A1.318,1.318,0,0,0,2.255-.1a1.4,1.4,0,0,0,.539.1,1.37,1.37,0,0,0,.528-.1,1.318,1.318,0,0,0,.434-.286,1.43,1.43,0,0,0,.292-.424,1.261,1.261,0,0,0,.11-.528V-5.72H6.831a1.436,1.436,0,0,0,.528-.1,1.339,1.339,0,0,0,.435-.269A1.31,1.31,0,0,0,8.085-6.5a1.224,1.224,0,0,0,.11-.522,1.3,1.3,0,0,0-.11-.534,1.409,1.409,0,0,0-.291-.429,1.318,1.318,0,0,0-.435-.286,1.37,1.37,0,0,0-.528-.1H4.158v-2.981H8.272a1.33,1.33,0,0,0,.523-.1,1.29,1.29,0,0,0,.429-.292,1.4,1.4,0,0,0,.286-.434,1.357,1.357,0,0,0,.1-.533,1.357,1.357,0,0,0-.1-.534,1.4,1.4,0,0,0-.286-.434,1.29,1.29,0,0,0-.429-.292,1.33,1.33,0,0,0-.523-.1Zm15.059,1.342a1.261,1.261,0,0,0-.11-.528,1.43,1.43,0,0,0-.292-.424,1.318,1.318,0,0,0-.434-.286,1.37,1.37,0,0,0-.528-.1,1.357,1.357,0,0,0-.534.1,1.4,1.4,0,0,0-.434.286,1.305,1.305,0,0,0-.292.424,1.318,1.318,0,0,0-.1.528v11.4a1.318,1.318,0,0,0,.1.528,1.305,1.305,0,0,0,.292.424,1.4,1.4,0,0,0,.434.286,1.357,1.357,0,0,0,.534.1,1.37,1.37,0,0,0,.528-.1,1.318,1.318,0,0,0,.434-.286,1.43,1.43,0,0,0,.292-.424,1.261,1.261,0,0,0,.11-.528Zm9.438,4.07v7.326a1.261,1.261,0,0,1-.11.528,1.43,1.43,0,0,1-.292.424,1.318,1.318,0,0,1-.434.286,1.37,1.37,0,0,1-.528.1,1.357,1.357,0,0,1-.534-.1,1.4,1.4,0,0,1-.434-.286,1.305,1.305,0,0,1-.292-.424,1.318,1.318,0,0,1-.1-.528V-12.694a1.311,1.311,0,0,1,.1-.511,1.318,1.318,0,0,1,.27-.413,1.28,1.28,0,0,1,.407-.281,1.547,1.547,0,0,1,.5-.127l.033-.011h.066a.947.947,0,0,1,.1.005q.049.005.1.016a1.082,1.082,0,0,1,.347.1,1.412,1.412,0,0,1,.292.187.669.669,0,0,1,.1.077.8.8,0,0,1,.132.143q.055.077.11.165l5.8,8.019v-7.414a1.257,1.257,0,0,1,.11-.528,1.38,1.38,0,0,1,.3-.424,1.4,1.4,0,0,1,.436-.286,1.368,1.368,0,0,1,.536-.1,1.328,1.328,0,0,1,.53.1,1.354,1.354,0,0,1,.425.286,1.349,1.349,0,0,1,.287.424,1.313,1.313,0,0,1,.1.528v11.4a1.284,1.284,0,0,1-.286.836,1.327,1.327,0,0,1-.716.462.938.938,0,0,1-.3.044h-.088a1.272,1.272,0,0,1-.826-.286.763.763,0,0,1-.242-.242ZM45.782-14.08a7.242,7.242,0,0,1,1.9.248,7.24,7.24,0,0,1,1.71.7,7.077,7.077,0,0,1,1.452,1.1A7.116,7.116,0,0,1,51.969-10.6,7.01,7.01,0,0,1,52.7-8.916a6.893,6.893,0,0,1,.258,1.9A6.835,6.835,0,0,1,52.7-5.126a7.034,7.034,0,0,1-.726,1.683A6.849,6.849,0,0,1,50.847-2.03,7.134,7.134,0,0,1,49.4-.946a7.384,7.384,0,0,1-1.71.7,7.242,7.242,0,0,1-1.9.248H43.329A1.357,1.357,0,0,1,42.8-.1a1.4,1.4,0,0,1-.435-.286,1.305,1.305,0,0,1-.292-.424,1.318,1.318,0,0,1-.1-.528v-11.4a1.318,1.318,0,0,1,.1-.528,1.305,1.305,0,0,1,.292-.424,1.4,1.4,0,0,1,.435-.286,1.357,1.357,0,0,1,.533-.1ZM50.2-7.013a4.236,4.236,0,0,0-.341-1.7,4.188,4.188,0,0,0-.94-1.366,4.421,4.421,0,0,0-1.4-.909,4.494,4.494,0,0,0-1.727-.33h-1.1v8.591h1.1a4.629,4.629,0,0,0,1.727-.319,4.366,4.366,0,0,0,1.4-.887,4.065,4.065,0,0,0,.94-1.355A4.292,4.292,0,0,0,50.2-7.013Zm26.158,6.2a1.393,1.393,0,0,0,.325.451,1.312,1.312,0,0,0,.451.275A1.532,1.532,0,0,0,77.655,0a1.269,1.269,0,0,0,.533-.121,1.251,1.251,0,0,0,.435-.319,1.259,1.259,0,0,0,.248-.435,1.354,1.354,0,0,0,.06-.506,1.641,1.641,0,0,0-.126-.534L73.931-13.266a1.311,1.311,0,0,0-.5-.6,1.3,1.3,0,0,0-.726-.215,1.31,1.31,0,0,0-.754.22,1.431,1.431,0,0,0-.5.605L66.517-1.914a1.41,1.41,0,0,0-.132.534,1.4,1.4,0,0,0,.072.512,1.278,1.278,0,0,0,.258.44,1.192,1.192,0,0,0,.44.308,1.479,1.479,0,0,0,.545.116,1.52,1.52,0,0,0,.533-.083,1.247,1.247,0,0,0,.451-.275,1.3,1.3,0,0,0,.308-.451L70.125-3.6H75.2Zm-3.729-8.91,1.419,3.4h-2.8Z" transform="translate(75.5 267.5)" fill="#292828" stroke="#343434" stroke-width="0.5"/>
    <path id="Path_11198" data-name="Path 11198" d="M15.547-14.986q.973.177,1.991.383a7.391,7.391,0,0,1,1.844.62,3.847,3.847,0,0,1,1.357,1.106A3.006,3.006,0,0,1,21.27-11a2.976,2.976,0,0,1-.516,1.726,4.373,4.373,0,0,1-1.372,1.268,7.252,7.252,0,0,1-1.932.8,8.69,8.69,0,0,1-2.2.28,8.822,8.822,0,0,1-4.041-.855A8.3,8.3,0,0,1,8.29-10.325a6.013,6.013,0,0,0-2.463-1.991,3.111,3.111,0,0,0-2.581.31,3.969,3.969,0,0,0-1.033.811,3.2,3.2,0,0,0-.664,1.136,3.693,3.693,0,0,0-.177,1.416,4.559,4.559,0,0,0,.457,1.652A10.6,10.6,0,0,0,3.835-4.145,14.017,14.017,0,0,0,6.844-1.8,16.2,16.2,0,0,0,10.635-.207a15.868,15.868,0,0,0,4.351.59,15.256,15.256,0,0,0,5.4-.929,13.746,13.746,0,0,0,4.292-2.522,11.633,11.633,0,0,0,2.847-3.747,10.508,10.508,0,0,0,1.033-4.6,9.282,9.282,0,0,0-.929-4.307,9.579,9.579,0,0,0-2.434-3.038,13.152,13.152,0,0,0-3.422-2.021,24.162,24.162,0,0,0-3.924-1.224q-1.947-.384-3.5-.723a13.378,13.378,0,0,1-2.625-.826,4.52,4.52,0,0,1-1.652-1.18A2.748,2.748,0,0,1,9.5-26.55a3.506,3.506,0,0,1,.4-1.667,3.927,3.927,0,0,1,1.151-1.313,5.676,5.676,0,0,1,1.8-.87,8.259,8.259,0,0,1,2.345-.31,11.891,11.891,0,0,1,2.021.147,6.71,6.71,0,0,1,1.519.442,7.1,7.1,0,0,1,1.3.737q.62.443,1.416,1a3.8,3.8,0,0,0,1.269.561,3.639,3.639,0,0,0,1.254.074,3.96,3.96,0,0,0,1.136-.31,3,3,0,0,0,.915-.62,2.953,2.953,0,0,0,.575-.737,3.527,3.527,0,0,0,.369-.959,3.121,3.121,0,0,0,.059-1.047,2.587,2.587,0,0,0-.354-1.032,9.46,9.46,0,0,0-2.08-2.434,12.208,12.208,0,0,0-2.773-1.741,15.1,15.1,0,0,0-3.245-1.047,17.352,17.352,0,0,0-3.5-.354,14.391,14.391,0,0,0-4.971.855,13.037,13.037,0,0,0-4.115,2.389,11.362,11.362,0,0,0-2.8,3.658,10.451,10.451,0,0,0-1.033,4.632A9.827,9.827,0,0,0,3.1-22.1a9.768,9.768,0,0,0,2.684,3.319A15.155,15.155,0,0,0,10-16.446,30.734,30.734,0,0,0,15.547-14.986Zm33.483-5.428L46.581-3.127a3.68,3.68,0,0,1-.487,1.372,3.539,3.539,0,0,1-.929,1.018,3.577,3.577,0,0,1-1.269.59,3.964,3.964,0,0,1-1.445.089,3.817,3.817,0,0,1-1.387-.487,3.472,3.472,0,0,1-1.033-.929,3.824,3.824,0,0,1-.6-1.239,3.375,3.375,0,0,1-.074-1.445L43.66-34.4a3.111,3.111,0,0,1,.31-1.092A3.9,3.9,0,0,1,44.6-36.4a3.839,3.839,0,0,1,1.445-1,3.775,3.775,0,0,1,1.387-.265,3.55,3.55,0,0,1,1.357.265,3.762,3.762,0,0,1,1.165.752,3.789,3.789,0,0,1,.841,1.195l9.116,22.3,9.057-22.3a3.784,3.784,0,0,1,.8-1.18,3.513,3.513,0,0,1,1.136-.767,3.441,3.441,0,0,1,1.342-.265,4.009,4.009,0,0,1,1.416.265,8,8,0,0,1,.855.5,3.548,3.548,0,0,1,1.033,1.062,3.681,3.681,0,0,1,.531,1.475l3.982,30.3a3.614,3.614,0,0,1-.118,1.46A3.56,3.56,0,0,1,79.3-1.372a3.679,3.679,0,0,1-1.077.9,3.688,3.688,0,0,1-1.372.443,3.674,3.674,0,0,1-1.431-.1,3.8,3.8,0,0,1-1.254-.6,3.472,3.472,0,0,1-.929-1.033,3.45,3.45,0,0,1-.457-1.387L70.535-20.178,63.219-2.242A3.671,3.671,0,0,1,62.024-.723,3.628,3.628,0,0,1,60.3-.03L60.21,0H59.5a.557.557,0,0,1-.177-.03.506.506,0,0,1-.207-.03.205.205,0,0,1-.089-.015.205.205,0,0,0-.089-.015l-.236-.059L58.5-.236A3.12,3.12,0,0,1,57.3-.988a4.066,4.066,0,0,1-.841-1.254Zm51.419-13.747a3.381,3.381,0,0,0-.295-1.416,3.834,3.834,0,0,0-.782-1.136,3.535,3.535,0,0,0-1.165-.767,3.674,3.674,0,0,0-1.416-.28,3.64,3.64,0,0,0-1.431.28,3.751,3.751,0,0,0-1.165.767,3.5,3.5,0,0,0-.782,1.136,3.534,3.534,0,0,0-.28,1.416V-3.6a3.534,3.534,0,0,0,.28,1.416,3.5,3.5,0,0,0,.782,1.136,3.751,3.751,0,0,0,1.165.767A3.64,3.64,0,0,0,96.79,0a3.674,3.674,0,0,0,1.416-.28,3.535,3.535,0,0,0,1.165-.767,3.834,3.834,0,0,0,.782-1.136,3.381,3.381,0,0,0,.295-1.416ZM124.107-7.287l10.768.03a3.64,3.64,0,0,1,1.431.28,3.46,3.46,0,0,1,1.151.782,3.751,3.751,0,0,1,.767,1.165A3.64,3.64,0,0,1,138.5-3.6a3.64,3.64,0,0,1-.28,1.431,3.574,3.574,0,0,1-.767,1.151,3.574,3.574,0,0,1-1.151.767A3.306,3.306,0,0,1,134.874,0H120.3a1.4,1.4,0,0,1-.324-.03h-.118l-.295-.059a3.573,3.573,0,0,1-2.006-1.239,3.488,3.488,0,0,1-.767-2.272V-34.161a3.534,3.534,0,0,1,.28-1.416,3.5,3.5,0,0,1,.782-1.136,3.751,3.751,0,0,1,1.165-.767,3.64,3.64,0,0,1,1.431-.28,3.674,3.674,0,0,1,1.416.28,3.535,3.535,0,0,1,1.165.767,3.834,3.834,0,0,1,.782,1.136,3.381,3.381,0,0,1,.295,1.416ZM170.156,0a3.215,3.215,0,0,0,1.416-.251,3.618,3.618,0,0,0,1.136-.767,3.574,3.574,0,0,0,.767-1.151,3.64,3.64,0,0,0,.28-1.431,3.64,3.64,0,0,0-.28-1.431,3.751,3.751,0,0,0-.767-1.165,3.7,3.7,0,0,0-1.136-.8,3.381,3.381,0,0,0-1.416-.3H158.8v-7.965h8.024a3.817,3.817,0,0,0,1.431-.266,3.672,3.672,0,0,0,1.165-.737,3.379,3.379,0,0,0,.782-1.106,3.43,3.43,0,0,0,.28-1.4,3.641,3.641,0,0,0-.28-1.431,3.46,3.46,0,0,0-.782-1.15,3.751,3.751,0,0,0-1.165-.767,3.306,3.306,0,0,0-1.431-.251H158.8v-8.083h11.357a3.534,3.534,0,0,0,1.416-.28,3.5,3.5,0,0,0,1.136-.782,3.751,3.751,0,0,0,.767-1.165,3.64,3.64,0,0,0,.28-1.431,3.64,3.64,0,0,0-.28-1.431,3.751,3.751,0,0,0-.767-1.165,3.5,3.5,0,0,0-1.136-.782,3.534,3.534,0,0,0-1.416-.28H155.141a3.749,3.749,0,0,0-1.445.28,3.424,3.424,0,0,0-1.165.782,3.751,3.751,0,0,0-.767,1.165,3.64,3.64,0,0,0-.28,1.431V-3.6a3.384,3.384,0,0,0,.959,2.478A3.805,3.805,0,0,0,154.846,0Z" transform="translate(72 321)" fill="#292828"/>
    <g id="Group_2972" data-name="Group 2972" transform="translate(36.248 -280.9)">
      <g id="Group_2970" data-name="Group 2970" transform="translate(141.215 463.928)">
        <g transform="matrix(1, 0, 0, 1, -104.1, -59.28)" filter="url(#Ellipse_2780)">
          <circle id="Ellipse_2780-2" data-name="Ellipse 2780" cx="38.662" cy="38.662" r="38.662" transform="translate(104.1 59.28)" fill="#fcee21"/>
        </g>
        <ellipse id="Ellipse_3805" data-name="Ellipse 3805" cx="4.421" cy="4.421" rx="4.421" ry="4.421" transform="matrix(0.899, 0.438, -0.438, 0.899, 29.962, 15.611)"/>
        <ellipse id="Ellipse_3806" data-name="Ellipse 3806" cx="4.421" cy="4.421" rx="4.421" ry="4.421" transform="matrix(0.899, 0.438, -0.438, 0.899, 54.548, 27.602)"/>
        <path id="Path_7060" data-name="Path 7060" d="M16.8,0a20.253,20.253,0,0,1,16.92,9.181l-2.93,1.893a16.573,16.573,0,0,0-27.856,0L0,9.181A20.257,20.257,0,0,1,14.537.13,19.723,19.723,0,0,1,16.8,0Z" transform="matrix(0.899, 0.438, -0.438, 0.899, 20.422, 37.26)"/>
      </g>
      <g id="Group_2971" data-name="Group 2971" transform="translate(68.026 416.643)">
        <g transform="matrix(1, 0, 0, 1, -30.91, -12)" filter="url(#Ellipse_2783)">
          <circle id="Ellipse_2783-2" data-name="Ellipse 2783" cx="44.946" cy="44.946" r="44.946" transform="translate(30.91 12)" fill="#fcee21"/>
        </g>
        <ellipse id="Ellipse_4013" data-name="Ellipse 4013" cx="4.421" cy="5.421" rx="4.421" ry="5.421" transform="matrix(0.899, 0.438, -0.438, 0.899, 103.59, 61.997)" fill="#292828"/>
        <ellipse id="Ellipse_4015" data-name="Ellipse 4015" cx="4.955" cy="4.956" rx="4.955" ry="4.956" transform="translate(18.329 36.17) rotate(-25)" fill="#292828"/>
        <ellipse id="Ellipse_4014" data-name="Ellipse 4014" cx="4.421" cy="5.421" rx="4.421" ry="5.421" transform="matrix(0.899, 0.438, -0.438, 0.899, 128.175, 73.988)" fill="#292828"/>
        <ellipse id="Ellipse_4016" data-name="Ellipse 4016" cx="4.955" cy="4.956" rx="4.955" ry="4.956" transform="translate(46.117 23.213) rotate(-25)" fill="#292828"/>
        <path id="Path_7514" data-name="Path 7514" d="M16.8,0a20.253,20.253,0,0,1,16.92,9.181l-2.93,1.893a16.573,16.573,0,0,0-27.856,0L0,9.181A20.257,20.257,0,0,1,14.537.13,19.723,19.723,0,0,1,16.8,0Z" transform="matrix(0.899, 0.438, -0.438, 0.899, 93.612, 84.545)" fill="#292828"/>
        <path id="Path_7515" data-name="Path 7515" d="M19.7,0a23.758,23.758,0,0,1,19.848,10.77l-3.437,2.221a19.441,19.441,0,0,0-32.677,0L0,10.77A23.763,23.763,0,0,1,17.053.152,23.137,23.137,0,0,1,19.7,0Z" transform="translate(72.875 58.921) rotate(155)" fill="#292828"/>
      </g>
    </g>
  </g>
</svg>
