<svg xmlns="http://www.w3.org/2000/svg" width="128.68" height="124.714" viewBox="0 0 128.68 124.714"><g transform="translate(-119.071 -189.442)"><path d="M6,0H53.52a6,6,0,0,1,6,6V53.521a6,6,0,0,1-6,6H6a6,6,0,0,1-6-6V6A6,6,0,0,1,6,0Z" transform="translate(188.231 254.635)" fill="#18be6b"/><rect width="55.847" height="55.848" rx="5" transform="translate(190.067 256.471)" fill="#e6fff3"/><g transform="translate(205.996 271.996)"><path d="M12,0A12,12,0,1,0,24,12,12.016,12.016,0,0,0,12,0Zm0,22.706A10.7,10.7,0,1,1,22.706,12,10.67,10.67,0,0,1,12,22.706Z" fill="#888"/><circle cx="1.298" cy="1.298" r="1.298" transform="translate(6.785 8.028)" fill="#888"/><circle cx="1.298" cy="1.298" r="1.298" transform="translate(14.813 8.028)" fill="#888"/><path d="M76.924,183.317a7.533,7.533,0,0,0,6.293-3.415l-1.09-.7a6.164,6.164,0,0,1-10.361,0l-1.09.7a7.535,7.535,0,0,0,5.407,3.367A7.335,7.335,0,0,0,76.924,183.317Z" transform="translate(-64.945 -164.666)" fill="#888"/></g><rect width="55.847" height="55.848" rx="5" transform="translate(190.067 189.442)" fill="#ffecec"/><g transform="translate(205.996 204.996)"><path d="M12,0A12,12,0,1,0,24,12,12.016,12.016,0,0,0,12,0Zm0,22.706A10.7,10.7,0,1,1,22.706,12,10.67,10.67,0,0,1,12,22.706Z" fill="#888"/><circle cx="1.298" cy="1.298" r="1.298" transform="translate(6.785 8.028)" fill="#888"/><circle cx="1.298" cy="1.298" r="1.298" transform="translate(14.813 8.028)" fill="#888"/><path d="M75.607,179.2a5.944,5.944,0,0,1,4.966,2.695l-.86.556a4.864,4.864,0,0,0-8.176,0l-.86-.556a5.945,5.945,0,0,1,4.267-2.657A5.787,5.787,0,0,1,75.607,179.2Z" transform="translate(-63.623 -164.231)" fill="#888"/></g><rect width="55.847" height="55.848" rx="5" transform="translate(119.071 189.442)" fill="#ffecec"/><g transform="translate(134.996 204.996)"><path d="M12,0A12,12,0,1,0,24,12,12.016,12.016,0,0,0,12,0Zm0,22.706A10.7,10.7,0,1,1,22.706,12,10.67,10.67,0,0,1,12,22.706Z" fill="#888"/><circle cx="1.298" cy="1.298" r="1.298" transform="translate(6.785 8.028)" fill="#888"/><circle cx="1.298" cy="1.298" r="1.298" transform="translate(14.813 8.028)" fill="#888"/><path d="M75.607,179.2a5.944,5.944,0,0,1,4.966,2.695l-.86.556a4.864,4.864,0,0,0-8.176,0l-.86-.556a5.945,5.945,0,0,1,4.267-2.657A5.787,5.787,0,0,1,75.607,179.2Z" transform="translate(-63.623 -164.231)" fill="#888"/></g><rect width="55.847" height="55.848" rx="5" transform="translate(119.071 256.471)" fill="#ffecec"/><g transform="translate(134.996 271.996)"><path d="M12,0A12,12,0,1,0,24,12,12.016,12.016,0,0,0,12,0Zm0,22.706A10.7,10.7,0,1,1,22.706,12,10.67,10.67,0,0,1,12,22.706Z" fill="#888"/><circle cx="1.298" cy="1.298" r="1.298" transform="translate(6.785 8.028)" fill="#888"/><circle cx="1.298" cy="1.298" r="1.298" transform="translate(14.813 8.028)" fill="#888"/><path d="M75.607,179.2a5.944,5.944,0,0,1,4.966,2.695l-.86.556a4.864,4.864,0,0,0-8.176,0l-.86-.556a5.945,5.945,0,0,1,4.267-2.657A5.787,5.787,0,0,1,75.607,179.2Z" transform="translate(-63.623 -164.231)" fill="#888"/></g></g></svg>