<svg xmlns="http://www.w3.org/2000/svg" width="16.088" height="16.086" viewBox="0 0 16.088 16.086">
  <path id="Live_ended" data-name="Live ended" d="M2.353,13.735a8.06,8.06,0,1,1,5.69,2.351A8.057,8.057,0,0,1,2.353,13.735ZM3.233,3.23a6.81,6.81,0,1,0,4.81-1.99A6.819,6.819,0,0,0,3.233,3.23ZM4.8,11.786a.455.455,0,0,1-.246-.594,3.731,3.731,0,0,1,3.5-2.228,3.756,3.756,0,0,1,3.479,2.219.456.456,0,0,1-.837.36,2.84,2.84,0,0,0-2.641-1.67A2.824,2.824,0,0,0,5.4,11.54a.45.45,0,0,1-.419.283A.459.459,0,0,1,4.8,11.786ZM2.467,8.808h0Zm0,0,0,0Zm0,0a0,0,0,0,1,0,0A0,0,0,0,0,2.472,8.8Zm.009-.008L2.472,8.8Zm.005,0-.005,0ZM2.7,8.576l-.213.213Zm.022-.022L2.7,8.576Zm.208-.208-.208.208Zm.089-.088c-.031.029-.06.059-.089.088Zm.041-.042-.041.042ZM3.1,8.17l-.045.045Zm.129-.129c.661-.664,1.326-1.328,0,0L3.1,8.17ZM9.31,5.868a.939.939,0,1,1,.939.939A.941.941,0,0,1,9.31,5.868Zm-4.267,0a.942.942,0,1,1,.94.939A.941.941,0,0,1,5.043,5.868Z" opacity="0.4"/>
</svg>
