<svg xmlns="http://www.w3.org/2000/svg" width="16.087" height="16.087" viewBox="0 0 16.087 16.087">
  <path id="Live_" data-name="Live " d="M13.734,2.354a8.047,8.047,0,1,0,0,11.38A8.056,8.056,0,0,0,13.734,2.354Zm-.878,10.5a6.806,6.806,0,1,1,0-9.625A6.814,6.814,0,0,1,12.856,12.856ZM5.042,5.866a.94.94,0,1,1,.941.941A.941.941,0,0,1,5.042,5.866Zm4.265,0a.941.941,0,1,1,.941.941A.941.941,0,0,1,9.307,5.866ZM11.53,9.718a3.755,3.755,0,0,1-3.478,2.219,3.729,3.729,0,0,1-3.5-2.23.455.455,0,1,1,.84-.349,2.823,2.823,0,0,0,2.658,1.669,2.846,2.846,0,0,0,2.642-1.67.455.455,0,0,1,.835.361Z"/>
</svg>
