<svg xmlns="http://www.w3.org/2000/svg" width="16" height="17.255" viewBox="0 0 16 17.255"><path d="M17.893.079A.318.318,0,0,0,17.646,0L7.92,1.261a.313.313,0,0,0-.273.311V12.745a3.256,3.256,0,0,0-2.51-1.137A3,3,0,0,0,2,14.432a3,3,0,0,0,3.137,2.823,3,3,0,0,0,3.137-2.823c0-.073-.006-.144-.012-.216a.3.3,0,0,0,.012-.06v-9.1l9.1-1.177V9.607a3.256,3.256,0,0,0-2.51-1.136,3,3,0,0,0-3.137,2.823,3,3,0,0,0,3.137,2.823A3,3,0,0,0,18,11.336s0-.008,0-.012V.314A.313.313,0,0,0,17.893.079Z" transform="translate(-2 0)" fill="#01954b"/></svg>