<svg xmlns="http://www.w3.org/2000/svg" xmlns:xlink="http://www.w3.org/1999/xlink" width="60" height="60" viewBox="0 0 60 60"><defs><linearGradient id="a" x1="0.5" x2="0.5" y2="1" gradientUnits="objectBoundingBox"><stop offset="0" stop-color="#cfffe7" stop-opacity="0.031"/><stop offset="1" stop-color="#18be6b" stop-opacity="0.588"/></linearGradient><linearGradient id="b" x1="0.5" x2="0.5" y2="1" gradientUnits="objectBoundingBox"><stop offset="0" stop-color="#23f98d"/><stop offset="1" stop-color="#006433"/><stop offset="1" stop-color="#557565"/></linearGradient></defs><g transform="translate(2432 13353)"><circle cx="30" cy="30" r="30" transform="translate(-2432 -13353)" fill="url(#a)"/><g transform="translate(-2446 -13337.541)"><g transform="translate(29.313)"><g transform="translate(0)"><path d="M39.16,0l.878.878L35.765,5.15H53.886a6.234,6.234,0,0,1,6.227,6.226v3.871H58.871V11.377a4.99,4.99,0,0,0-4.985-4.985H35.765l4.272,4.272-.878.878L33.389,5.771Z" transform="translate(-33.389)" stroke="#0fa65a" stroke-width="2" fill="url(#b)"/></g></g><g transform="translate(29.57 15.43)"><g transform="translate(0)"><path d="M30.554,244.7v3.873a4.991,4.991,0,0,0,4.985,4.986H53.66l-4.272-4.273.878-.878,5.771,5.77-5.771,5.77-.877-.875L53.66,254.8H35.539a6.233,6.233,0,0,1-6.226-6.227V244.7Z" transform="translate(-29.312 -244.703)" stroke="#0fa65a" stroke-width="2" fill="url(#b)"/></g></g></g></g></svg>