<svg xmlns="http://www.w3.org/2000/svg" width="15.141" height="16.327" viewBox="0 0 15.141 16.327">
  <path id="Tone" d="M17.039.074A.3.3,0,0,0,16.805,0L7.6,1.194a.3.3,0,0,0-.259.294V12.06a3.081,3.081,0,0,0-2.375-1.076A2.835,2.835,0,0,0,2,13.656a2.835,2.835,0,0,0,2.969,2.672,2.835,2.835,0,0,0,2.969-2.672c0-.069-.006-.137-.012-.2a.286.286,0,0,0,.012-.057V4.785l8.609-1.114v5.42a3.081,3.081,0,0,0-2.375-1.075A2.835,2.835,0,0,0,11.2,10.688a2.835,2.835,0,0,0,2.969,2.672,2.839,2.839,0,0,0,2.967-2.632s0-.007,0-.011V.3A.3.3,0,0,0,17.039.074Z" transform="translate(-2 -0.001)"/>
</svg>
