<svg xmlns="http://www.w3.org/2000/svg" xmlns:xlink="http://www.w3.org/1999/xlink" width="2077.694" height="457.065" viewBox="0 0 2077.694 457.065">
  <defs>
    <linearGradient id="linear-gradient" x1="0.5" x2="0.5" y2="1" gradientUnits="objectBoundingBox">
      <stop offset="0" stop-color="#ffad2e"/>
      <stop offset="1" stop-color="#ffc161"/>
    </linearGradient>
    <filter id="Path_11331" x="0" y="0" width="2077.694" height="457.065" filterUnits="userSpaceOnUse">
      <feOffset dy="4" input="SourceAlpha"/>
      <feGaussianBlur stdDeviation="5" result="blur"/>
      <feFlood flood-opacity="0.478"/>
      <feComposite operator="in" in2="blur"/>
      <feComposite in="SourceGraphic"/>
    </filter>
    <clipPath id="clip-path">
      <path id="Path_11334" data-name="Path 11334" d="M-11070.039-1519.367c196.93-15.325,487.124-70.446,1016.85-20.185,220.346,5.012,243.031-29.167,491.834-36.744,51.119-1.557,81.891,403.148,18.827,405.422-193.533,6.978-305.09-19.38-540.191-19.38-69.985-.436-363.943,31.272-533.55,33.757-43.563,1.2-234.842,10.939-443.705,2.149-14.229-.6-92.594-4.859-153.528-9.707-42.736-9.99-70-36.7-80.671-50.015-62.665-78.214,42.217-215.814,61.7-276.812,2.7-8.436,7.212-23.515,46.278-28.485C-11145.18-1513.74-11072.056-1519.21-11070.039-1519.367Z" transform="translate(11313.908 1576.301)" fill="url(#linear-gradient)"/>
    </clipPath>
    <linearGradient id="linear-gradient-3" x1="-64.21" y1="5.505" x2="-64.21" y2="4.571" gradientUnits="objectBoundingBox">
      <stop offset="0" stop-color="#efc7b0"/>
      <stop offset="0.46" stop-color="#eec6ae"/>
      <stop offset="0.62" stop-color="#e8c0a7"/>
      <stop offset="0.74" stop-color="#dfb79c"/>
      <stop offset="0.83" stop-color="#d2a98b"/>
      <stop offset="0.91" stop-color="#c19875"/>
      <stop offset="0.98" stop-color="#ac825a"/>
      <stop offset="1" stop-color="#a67c52"/>
    </linearGradient>
    <linearGradient id="linear-gradient-4" x1="-35.343" y1="0.164" x2="-34.523" y2="0.966" gradientUnits="objectBoundingBox">
      <stop offset="0" stop-color="#ff9d94"/>
      <stop offset="1" stop-color="#ff6a00"/>
    </linearGradient>
    <linearGradient id="linear-gradient-5" x1="1.085" y1="0.832" x2="0.115" y2="0.129" gradientUnits="objectBoundingBox">
      <stop offset="0" stop-color="#ff3c2a"/>
      <stop offset="1" stop-color="#fff"/>
    </linearGradient>
    <linearGradient id="linear-gradient-6" x1="0.824" y1="-2.006" x2="0.824" y2="-3.006" xlink:href="#linear-gradient-3"/>
    <linearGradient id="linear-gradient-7" x1="0.297" y1="0.02" x2="0.656" y2="1.073" gradientUnits="objectBoundingBox">
      <stop offset="0" stop-color="#ffac94"/>
      <stop offset="1" stop-color="#483fff"/>
    </linearGradient>
  </defs>
  <g id="_3" data-name="3" transform="translate(9012.435 1588.33)">
    <g transform="matrix(1, 0, 0, 1, -9012.43, -1588.33)" filter="url(#Path_11331)">
      <path id="Path_11331-2" data-name="Path 11331" d="M-11339.178-1563.252s54.77,40.611,219.578,47.862c198.324-4.65,491.172-79.82,1082.383-23.725,265.48,6.039,244.031-44.814,677.051-37.492,0-1.046,65.35,385.161,55.395,386.791-355.926,46.238-450.582,0-761.975,0-69.986-.436-363.943,31.272-533.551,33.757-65.213,1.8-461.471,22.726-751.137-27.966C-11351.295-1186.323-11339.178-1563.252-11339.178-1563.252Z" transform="translate(11366.43 1588.33)" fill="url(#linear-gradient)"/>
    </g>
    <g id="Mask_Group_9735" data-name="Mask Group 9735" transform="translate(-8943.935 -1575.863)" clip-path="url(#clip-path)">
      <g id="Group_12168" data-name="Group 12168" transform="translate(179.721 40.157)">
        <g id="Group_12166" data-name="Group 12166" transform="translate(0 0)">
          <g id="Group_12164" data-name="Group 12164" transform="translate(0 23.576)">
            <path id="Path_11260" data-name="Path 11260" d="M362.048,543.252c.124-15.67.937-29.7,1.946-43.777-7.8-3.253-15.32-11.222-18.3-20.591-3.562-11.2-5-24.329,9.266-28.612,5.457-1.637,9.359-1.174,12.355.525.36-7.269.649-14.908.813-23.083.082-4.417,2.934-8.154,7.207-6.507,32.143,12.355,61.28,7.639,90.54-2.883,14.043-5.014,22.867-.041,25.368,14.136q2.059,11.459,4.118,22.908a130.428,130.428,0,0,1,2.059,24.03q-.062,9.029-.134,18.059a92.8,92.8,0,0,1-2.059,18.44c-1.925,9.07-3.768,18.162-6.548,27.005-5.035,16.051-13.879,29.693-32.061,35.469l-.35.1c-15.2,3.82-15.9,13.384-14.918,22.65a5.868,5.868,0,0,1-4.376,6.013h0c-13.549,3.737-22.434,15.444-38.372,16.988-8.072.793-19.891-1.03-35.263-5.148-4.118-1.133-8.556-1.03-9.76-4.942C346.224,590.077,361.842,568.991,362.048,543.252Z" transform="translate(-242.157 -363.863)" fill="url(#linear-gradient-3)"/>
            <path id="Path_11262" data-name="Path 11262" d="M442.431,485.06c1.5,19.562,3.737,28.087,5.673,32.164.35.731,1.369,2.749.546,4.376-1.431,2.821-7.475,2.574-11.49,2.111" transform="translate(-239.382 -361.834)" fill="none" stroke="#b08874" stroke-linecap="round" stroke-linejoin="round" stroke-width="1"/>
            <path id="Path_11263" data-name="Path 11263" d="M548.615,699.121c-.288-3.027-1.153-11.531-3.315-23.989-2.718-15.66-4.118-23.484-6.713-27.984-2.306-3.954-5.385-7.505-23.68-19.726-15.31-10.213-16.967-10.3-27.8-17.441-23.979-15.938-25.842-22.3-36.581-24.3-12.952,13.9-31.917,16.01-39.649,16.875-7.032.783-32.781,2.708-54.011-13.734-1.472-1.133-2.77-2.244-3.892-3.274v.216a26.851,26.851,0,0,0-2.728.5,26.138,26.138,0,0,0-8.9,4.252c-12.355,8.628-25.091,11.016-38.362,17.122-10.471,4.808-33.677,15.444-46.1,38.094-7.825,14.239-9.534,29.857-11.655,49.275-.957,8.679.072,42.284,0,47.391,13.224,10.122,26.1-7.395,41.018,0,77.959,38.567,146.62,22.949,230.4,3.892,9.719-2.214,26.934,1.622,31.968-11.227C550.468,730.405,550.087,714.421,548.615,699.121Z" transform="translate(-244.822 -358.862)" fill="url(#linear-gradient-4)"/>
            <path id="Path_11264" data-name="Path 11264" d="M390.881,561.368c.134-15.1,1.328-28.251-14.517-36.735-12.777-6.847-11.325-25.265-7.114-40.73h0l8.319-6.672c.515-11.964-2.842-23.176-4.973-34.521a75.632,75.632,0,0,1,5.529-46.866c2.378-5.22,6.126-10.368,2.059-16.813-25.585-11.933-50.377-.1-60.374,29.178-2.419,7.073-5.364,13.848-11.325,16.02-25.595,9.266-32.184,30.115-25.739,59.56,1.534,12.725-.844,24.277-5.148,36.035-10.625,28.89.093,57.769,24.627,68.25,4.839,2.059,9.925,2.8,11.531,10.378,4.983,23.4,16.751,38.568,36.581,43.86,1.647.443,3.006,2.512,4.5,3.82,10.749,6.177,20.643,1.534,28.231-13.158,6.177-7.763,8.237-17.029,7.969-27.8C390.531,590.649,390.757,576,390.881,561.368Z" transform="translate(-244.221 -365.104)"/>
            <path id="Path_11265" data-name="Path 11265" d="M494.483,378.7c-21-13.178-43.345-15.835-66.428-11.243-7.794,1.555-15.557,3.284-23.33,4.932-26.583,19.479-32.7,50.171-31.371,84.877.268,7.207.659,14.465,6.177,19.243,23.392,6.991,29.353,2.553,33.759-27.057,1.411-9.462,3.48-11.943,10.409-6.1,12.54,10.584,26.769,11.243,41.286,9.266,24.164-3.367,28.581,1.133,29.7,30.527.175,4.489.154,8.988.237,13.477,19.15-14.64,28.828-36.632,29.507-63.205C525.092,407.644,512.717,390.131,494.483,378.7Z" transform="translate(-241.274 -365.372)"/>
            <path id="Path_11266" data-name="Path 11266" d="M377.552,379.1c-22.29,28.282-18.532,57.2-8.5,91.858a9.163,9.163,0,0,0,5.93,6.342l4.932-1.03c-2.872-38.743,4.654-73.758,25.193-104.12C396.578,378.41,386.211,373.746,377.552,379.1Z" transform="translate(-241.63 -365.172)" fill="url(#linear-gradient-5)"/>
          </g>
          <g id="Group_12165" data-name="Group 12165" transform="translate(1251.698 0)">
            <path id="Path_11267" data-name="Path 11267" d="M1547.458,535.631c-1.308-14.785-3.089-27.963-5.086-41.183,6.7-3.779,12.8-11.984,14.733-21.086,2.317-10.9,2.6-23.433-10.429-26.182-4.983-1.03-8.422-.247-10.955,1.627-.875-6.826-1.719-14.023-2.491-21.724-.412-4.118-3.233-7.433-6.929-5.488-27.706,14.579-54.031,12.777-80.9,5.508-12.88-3.48-20.4,2.059-21.528,15.6q-.927,11-1.9,22a130.586,130.586,0,0,0,0,22.877q.742,8.5,1.5,17.039a90.864,90.864,0,0,0,3.212,17.225c2.409,8.391,4.746,16.8,7.9,24.905,5.714,14.692,14.63,26.769,31.278,30.568a1.587,1.587,0,0,0,.319.062c13.837,2.234,15.186,11.2,15.032,20.076a5.385,5.385,0,0,0,4.355,5.271h0c12.355,2.306,21.168,12.54,35.489,12.561,7.207,0,17.636-2.77,31.021-8.092,3.624-1.441,7.547-1.74,8.319-5.56C1565.125,578.41,1549.6,559.919,1547.458,535.631Z" transform="translate(-1370.259 -365.97)" fill="url(#linear-gradient-6)"/>
            <path id="Path_11268" data-name="Path 11268" d="M1464.486,483.18c.278,19.562-1.164,28.313-2.728,32.555-.278.752-1.112,2.852-.144,4.4,1.688,2.687,7.68,1.884,11.634,1.03" transform="translate(-1369.086 -364.132)" fill="none" stroke="#b08874" stroke-linecap="round" stroke-linejoin="round" stroke-width="1"/>
            <path id="Path_11269" data-name="Path 11269" d="M1574.194,410.946c-2.522-3.089-3.871-7.207-5.344-11.037-7.4-19.078-21.94-29.178-41.594-31.412-24.051-2.739-47.535.4-69.867,10.3-14.516,2.636-26.624,14.651-42.892,10.924-1.328-.309-3.593,2.481-5.148,4.118-10.574,11.531-9.915,28.55,3.233,36.838,8.463,5.343,10.234,11.747,10.152,20.221,2.8-4.777.782-14.033,11.325-11.49,25.224,6.085,50.881,2.553,76.353,3.017h0c.7,2.636,1.472,5.261,2.059,7.928,3.881,16.7,3.932,16.792,17.945,6.8,5.344-3.82,10.821-4.767,16.638-1.791,5.467,2.79,7.33,7.835,7.382,13.673.1,11.418-4.324,20.077-14.661,25.791-11.676,6.445-12.777,15.011-3.325,23.33,3.089,2.687,6.63,4.788,9.966,7.156,1.637-1.586,4.334-2.934,4.726-4.787,4.993-23.279,20.293-42.017,27.953-64.049C1584.665,440.721,1585.859,425.154,1574.194,410.946Z" transform="translate(-1370.834 -367.551)"/>
            <path id="Path_11270" data-name="Path 11270" d="M1483.632,598.868c3.562-7.856,10.934-9.534,18.162-11.48,18.264-4.932,27.994-18.254,34.8-35.118-22.383,13.518-45.105,24.215-71.843,21.24,14.27,2.986,15.289,12.623,15,25.194a.381.381,0,0,0,.4.381C1481.285,598.992,1482.51,598.981,1483.632,598.868Z" transform="translate(-1368.979 -362.09)" fill="#b08874"/>
            <path id="Path_11271" data-name="Path 11271" d="M1373.182,694.942c.3-3.037,1.164-11.531,3.326-23.989,2.718-15.66,4.118-23.484,6.7-27.984,2.317-3.964,5.395-7.506,23.68-19.726,15.32-10.213,16.967-10.3,27.8-17.441,23.979-15.938,25.852-22.311,36.58-24.308,12.952,13.909,31.917,16.02,39.659,16.885,7.032.782,32.781,2.708,54.011-13.734,1.472-1.143,2.769-2.245,3.892-3.274v.216a24.251,24.251,0,0,1,2.729.5,26.031,26.031,0,0,1,8.906,4.252c12.355,8.628,25.091,11.016,38.362,17.112,10.46,4.808,33.677,15.443,46.094,38.094,7.825,14.239,9.534,29.857,11.665,49.275.947,8.669-.062,38.933,0,44.039-1.6,1.224,3.245-1.427,1.287,0-11.486,8.372-29.187-3.159-42.294,3.341-77.959,38.568-146.621,22.949-230.407,3.892-9.709-2.214-27.283-6.713-32.328-19.562C1370.978,717.921,1371.709,710.241,1373.182,694.942Z" transform="translate(-1371.729 -361.229)" fill="url(#linear-gradient-7)"/>
          </g>
        </g>
      </g>
    </g>
  </g>
</svg>
