<svg xmlns="http://www.w3.org/2000/svg" xmlns:xlink="http://www.w3.org/1999/xlink" width="1144.791" height="476.544" viewBox="0 0 1144.791 476.544">
  <defs>
    <linearGradient id="linear-gradient" x1="0.5" x2="0.5" y2="1" gradientUnits="objectBoundingBox">
      <stop offset="0" stop-color="#ffad2e"/>
      <stop offset="1" stop-color="#ffc161"/>
    </linearGradient>
    <filter id="Path_11331" x="0" y="0" width="1144.791" height="476.544" filterUnits="userSpaceOnUse">
      <feOffset dy="10" input="SourceAlpha"/>
      <feGaussianBlur stdDeviation="10" result="blur"/>
      <feFlood flood-opacity="0.478"/>
      <feComposite operator="in" in2="blur"/>
      <feComposite in="SourceGraphic"/>
    </filter>
    <clipPath id="clip-path">
      <path id="Path_11335" data-name="Path 11335" d="M-10897.377-1527.011c88.044-3.156,215.909-1.435,433.32,15.072,276.159-6.262,240.266-46.011,453.86-25.047,29.262.689,55.107.677,78.377.12.326,234.372,4.79,247.764,9.346,370.949-36.082-1.421-74.955-2.31-117.859-2.31-71.424-.46-371.427,33.015-544.52,35.637-35.141,1-164.468,7.636-322.153,5.8-69.715-.813-37.908-88.49-31.1-186.86C-10931.156-1414.049-10947.747-1525.205-10897.377-1527.011Z" transform="translate(2141 -7)" fill="url(#linear-gradient)"/>
    </clipPath>
    <linearGradient id="linear-gradient-3" x1="-64.21" y1="5.505" x2="-64.21" y2="4.571" gradientUnits="objectBoundingBox">
      <stop offset="0" stop-color="#efc7b0"/>
      <stop offset="0.46" stop-color="#eec6ae"/>
      <stop offset="0.62" stop-color="#e8c0a7"/>
      <stop offset="0.74" stop-color="#dfb79c"/>
      <stop offset="0.83" stop-color="#d2a98b"/>
      <stop offset="0.91" stop-color="#c19875"/>
      <stop offset="0.98" stop-color="#ac825a"/>
      <stop offset="1" stop-color="#a67c52"/>
    </linearGradient>
    <linearGradient id="linear-gradient-4" x1="-35.343" y1="0.164" x2="-34.523" y2="0.966" gradientUnits="objectBoundingBox">
      <stop offset="0" stop-color="#ff9d94"/>
      <stop offset="1" stop-color="#ff6a00"/>
    </linearGradient>
    <linearGradient id="linear-gradient-5" x1="1.085" y1="0.832" x2="0.115" y2="0.129" gradientUnits="objectBoundingBox">
      <stop offset="0" stop-color="#ff3c2a"/>
      <stop offset="1" stop-color="#fff"/>
    </linearGradient>
    <linearGradient id="linear-gradient-6" x1="0.824" y1="-2.006" x2="0.824" y2="-3.006" xlink:href="#linear-gradient-3"/>
    <linearGradient id="linear-gradient-7" x1="0.297" y1="0.02" x2="0.656" y2="1.073" gradientUnits="objectBoundingBox">
      <stop offset="0" stop-color="#ffac94"/>
      <stop offset="1" stop-color="#483fff"/>
    </linearGradient>
  </defs>
  <g id="_3_mobile" data-name="3 mobile" transform="translate(8857.857 1570.036)">
    <g transform="matrix(1, 0, 0, 1, -8857.86, -1570.04)" filter="url(#Path_11331)">
      <path id="Path_11331-2" data-name="Path 11331" d="M-10967.154-1523.119c89.033-6.746,220.325-10.29,503.1,11.181,276.159-6.262,240.266-46.011,453.86-25.047,46.06,1.084,121.2-.994,121.2-.994s6.54,373.873,4.56,373.792c-46.431-2.388-97.418-4.041-155.895-4.041-71.424-.46-371.427,33.015-544.52,35.637-39.267,1.122-192.357,10.712-384,3.331C-10967.985-1127.611-10969.41-1521.217-10967.154-1523.119Z" transform="translate(10998.86 1563.04)" fill="url(#linear-gradient)"/>
    </g>
    <g id="Mask_Group_9736" data-name="Mask Group 9736" clip-path="url(#clip-path)">
      <g id="Group_12169" data-name="Group 12169" transform="translate(-8803.694 -1575.833)">
        <g id="Group_12168" data-name="Group 12168" transform="translate(86.489 40.983)">
          <g id="Group_12166" data-name="Group 12166" transform="translate(-38 3)">
            <g id="Group_12164" data-name="Group 12164" transform="translate(32 12.421)">
              <path id="Path_11260" data-name="Path 11260" d="M362.434,545.86c.126-15.992.956-30.314,1.986-44.677-7.965-3.32-15.635-11.453-18.671-21.015-3.636-11.432-5.107-24.829,9.457-29.2,5.569-1.671,9.551-1.2,12.609.536.368-7.418.662-15.215.83-23.557.084-4.508,2.995-8.322,7.355-6.641,32.8,12.609,62.54,7.8,92.4-2.942,14.332-5.117,23.337-.042,25.89,14.427q2.1,11.695,4.2,23.379a133.11,133.11,0,0,1,2.1,24.524q-.063,9.215-.137,18.43a94.7,94.7,0,0,1-2.1,18.819c-1.965,9.257-3.846,18.535-6.683,27.561-5.138,16.381-14.164,30.3-32.72,36.2l-.357.105c-15.509,3.9-16.223,13.66-15.225,23.116a5.989,5.989,0,0,1-4.466,6.136h0c-13.828,3.814-22.9,15.761-39.161,17.337-8.238.809-20.3-1.051-35.988-5.254-4.2-1.156-8.732-1.051-9.961-5.044C346.284,593.647,362.224,572.128,362.434,545.86Z" transform="translate(-240.078 -362.782)" fill="url(#linear-gradient-3)"/>
              <path id="Path_11262" data-name="Path 11262" d="M442.54,485.06c1.534,19.964,3.814,28.664,5.79,32.825.357.746,1.4,2.805.557,4.466-1.461,2.879-7.628,2.627-11.726,2.154" transform="translate(-235.316 -359.3)" fill="none" stroke="#b08874" stroke-linecap="round" stroke-linejoin="round" stroke-width="1"/>
              <path id="Path_11263" data-name="Path 11263" d="M554.861,701.456c-.294-3.089-1.177-11.768-3.383-24.482-2.774-15.982-4.2-23.967-6.851-28.559-2.354-4.035-5.5-7.66-24.167-20.132-15.624-10.423-17.316-10.507-28.37-17.8-24.472-16.265-26.373-22.759-37.333-24.8-13.218,14.185-32.573,16.339-40.464,17.222-7.176.8-33.455,2.764-55.121-14.017-1.5-1.156-2.826-2.291-3.972-3.341v.221a27.381,27.381,0,0,0-2.785.515,26.677,26.677,0,0,0-9.078,4.339c-12.609,8.8-25.606,11.243-39.15,17.474-10.686,4.907-34.37,15.761-47.052,38.877-7.986,14.532-9.73,30.471-11.894,50.288-.977,8.858.074,43.154,0,48.365,13.5,10.33,26.634-7.547,41.861,0,79.561,39.36,149.635,23.421,235.133,3.972,9.919-2.259,27.487,1.655,32.625-11.458C556.752,733.383,556.363,717.07,554.861,701.456Z" transform="translate(-244.822 -354.202)" fill="url(#linear-gradient-4)"/>
              <path id="Path_11264" data-name="Path 11264" d="M393.294,565.212c.137-15.414,1.355-28.832-14.815-37.49-13.04-6.987-11.558-25.785-7.261-41.567h0l8.49-6.809c.525-12.21-2.9-23.652-5.075-35.231a77.187,77.187,0,0,1,5.643-47.829c2.427-5.327,6.252-10.581,2.1-17.158-26.111-12.178-51.412-.105-61.615,29.778-2.469,7.219-5.474,14.132-11.558,16.349-26.121,9.457-32.846,30.734-26.268,60.785,1.565,12.987-.862,24.776-5.254,36.776-10.844,29.484.095,58.957,25.134,69.653,4.938,2.1,10.129,2.858,11.768,10.591,5.086,23.883,17.1,39.361,37.333,44.761,1.681.452,3.068,2.564,4.592,3.9,10.97,6.3,21.067,1.566,28.811-13.428,6.3-7.922,8.406-17.379,8.133-28.37C392.937,595.095,393.168,580.143,393.294,565.212Z" transform="translate(-243.619 -364.913)"/>
              <path id="Path_11265" data-name="Path 11265" d="M496.977,378.977c-21.435-13.449-44.236-16.16-67.793-11.474-7.954,1.587-15.877,3.352-23.81,5.033-27.13,19.88-33.371,51.2-32.016,86.622.273,7.355.672,14.763,6.3,19.638,23.873,7.135,29.956,2.606,34.454-27.613,1.44-9.656,3.551-12.189,10.623-6.22,12.8,10.8,27.319,11.474,42.134,9.457,24.661-3.436,29.168,1.156,30.314,31.154.179,4.581.158,9.173.242,13.754,19.544-14.941,29.421-37.385,30.114-64.5C528.216,408.513,515.586,390.64,496.977,378.977Z" transform="translate(-238.561 -365.372)"/>
              <path id="Path_11266" data-name="Path 11266" d="M377.89,379.242c-22.748,28.864-18.913,58.379-8.679,93.747a9.351,9.351,0,0,0,6.052,6.472l5.033-1.051c-2.932-39.539,4.749-75.275,25.711-106.261C397.308,378.538,386.727,373.779,377.89,379.242Z" transform="translate(-239.174 -365.029)" fill="url(#linear-gradient-5)"/>
            </g>
            <g id="Group_12165" data-name="Group 12165" transform="translate(626.22 19)">
              <path id="Path_11267" data-name="Path 11267" d="M1550.049,537.987c-1.334-15.089-3.152-28.538-5.191-42.029,6.841-3.856,13.061-12.231,15.036-21.519,2.364-11.127,2.658-23.915-10.644-26.72-5.085-1.051-8.6-.252-11.18,1.66-.893-6.966-1.755-14.311-2.542-22.17-.421-4.2-3.3-7.586-7.072-5.6-28.276,14.878-55.143,13.04-82.567,5.621-13.145-3.552-20.815,2.1-21.971,15.919q-.946,11.222-1.944,22.454a133.276,133.276,0,0,0,0,23.347q.757,8.679,1.534,17.39a92.731,92.731,0,0,0,3.278,17.579c2.459,8.563,4.844,17.148,8.059,25.417,5.832,14.994,14.931,27.319,31.921,31.2a1.623,1.623,0,0,0,.326.063c14.122,2.28,15.5,11.432,15.341,20.489a5.5,5.5,0,0,0,4.445,5.38h0c12.609,2.354,21.6,12.8,36.219,12.819,7.355,0,18-2.826,31.659-8.259,3.7-1.471,7.7-1.776,8.49-5.674C1568.079,581.646,1552.234,562.774,1550.049,537.987Z" transform="translate(-1369.206 -364.838)" fill="url(#linear-gradient-6)"/>
              <path id="Path_11268" data-name="Path 11268" d="M1464.554,483.18c.283,19.964-1.187,28.9-2.784,33.224-.284.767-1.135,2.911-.147,4.487,1.723,2.742,7.838,1.923,11.873,1.051" transform="translate(-1367.193 -361.685)" fill="none" stroke="#b08874" stroke-linecap="round" stroke-linejoin="round" stroke-width="1"/>
              <path id="Path_11269" data-name="Path 11269" d="M1577.734,411.838c-2.574-3.152-3.951-7.355-5.453-11.264-7.555-19.47-22.391-29.778-42.449-32.058-24.545-2.795-48.513.41-71.3,10.507-14.815,2.69-27.172,14.952-43.773,11.148-1.355-.315-3.667,2.532-5.254,4.2-10.791,11.768-10.119,29.137,3.3,37.6,8.637,5.453,10.444,11.989,10.36,20.636,2.858-4.875.8-14.321,11.558-11.726,25.743,6.21,51.927,2.606,77.922,3.079h0c.714,2.69,1.5,5.369,2.1,8.091,3.961,17.043,4.013,17.138,18.314,6.935,5.453-3.9,11.043-4.865,16.98-1.828,5.579,2.847,7.481,8,7.534,13.954.105,11.653-4.413,20.489-14.963,26.321-11.915,6.578-13.04,15.32-3.394,23.81,3.152,2.742,6.767,4.886,10.171,7.3,1.67-1.618,4.423-2.995,4.823-4.886,5.1-23.757,20.71-42.88,28.528-65.366C1588.421,442.226,1589.639,426.339,1577.734,411.838Z" transform="translate(-1370.193 -367.551)"/>
              <path id="Path_11270" data-name="Path 11270" d="M1484.021,599.826c3.635-8.017,11.159-9.73,18.535-11.716,18.64-5.033,28.569-18.629,35.515-35.841-22.843,13.8-46.033,24.713-73.32,21.677,14.563,3.047,15.6,12.882,15.309,25.712a.389.389,0,0,0,.41.389C1481.625,599.952,1482.875,599.942,1484.021,599.826Z" transform="translate(-1367.01 -358.179)" fill="#b08874"/>
              <path id="Path_11271" data-name="Path 11271" d="M1373.211,697.277c.3-3.1,1.188-11.768,3.394-24.482,2.774-15.982,4.2-23.967,6.84-28.559,2.364-4.045,5.506-7.66,24.167-20.132,15.635-10.423,17.316-10.507,28.37-17.8,24.471-16.265,26.384-22.769,37.333-24.808,13.218,14.2,32.573,16.349,40.474,17.232,7.176.8,33.455,2.763,55.122-14.017,1.5-1.166,2.826-2.291,3.972-3.341v.221a24.754,24.754,0,0,1,2.784.515,26.563,26.563,0,0,1,9.089,4.339c12.609,8.805,25.606,11.243,39.15,17.463,10.675,4.907,34.369,15.761,47.042,38.877,7.986,14.532,9.73,30.471,11.9,50.288.967,8.847-.063,39.733,0,44.945-1.632,1.249,3.312-1.456,1.313,0-11.722,8.544-29.787-3.224-43.164,3.41-79.562,39.361-149.635,23.421-235.144,3.972-9.908-2.259-27.844-6.851-32.993-19.964C1370.963,720.729,1371.709,712.89,1373.211,697.277Z" transform="translate(-1371.729 -356.703)" fill="url(#linear-gradient-7)"/>
            </g>
          </g>
        </g>
      </g>
    </g>
  </g>
</svg>
