<svg xmlns="http://www.w3.org/2000/svg" xmlns:xlink="http://www.w3.org/1999/xlink" width="1982.178" height="473.322" viewBox="0 0 1982.178 473.322">
  <defs>
    <linearGradient id="linear-gradient" x1="0.5" x2="0.5" y2="1" gradientUnits="objectBoundingBox">
      <stop offset="0" stop-color="#ffad2e"/>
      <stop offset="1" stop-color="#ffc161"/>
    </linearGradient>
    <filter id="Path_11331" x="0" y="0" width="1982.178" height="473.322" filterUnits="userSpaceOnUse">
      <feOffset dy="10" input="SourceAlpha"/>
      <feGaussianBlur stdDeviation="10" result="blur"/>
      <feFlood flood-opacity="0.478"/>
      <feComposite operator="in" in2="blur"/>
      <feComposite in="SourceGraphic"/>
    </filter>
    <clipPath id="clip-path">
      <path id="Path_11333" data-name="Path 11333" d="M-11340.641-1563.714s91.814,30.477,143.423,23.444,539.5-75.881,920.508,28.574c167.107,0,89.151-72.1,412.121-64.989V-1174s-719.6-56.245-844.371-18.525c-52.4,15.842-175.151,16.654-291.479,20.115-175.047,6.252-318.617,7.705-348.531,0C-11348.867-1174.645-11340.641-1563.714-11340.641-1563.714Z" transform="translate(2577.063)" stroke="#707070" stroke-width="1" fill="url(#linear-gradient)"/>
    </clipPath>
    <linearGradient id="linear-gradient-3" x1="-64.21" y1="5.505" x2="-64.21" y2="4.571" gradientUnits="objectBoundingBox">
      <stop offset="0" stop-color="#efc7b0"/>
      <stop offset="0.46" stop-color="#eec6ae"/>
      <stop offset="0.62" stop-color="#e8c0a7"/>
      <stop offset="0.74" stop-color="#dfb79c"/>
      <stop offset="0.83" stop-color="#d2a98b"/>
      <stop offset="0.91" stop-color="#c19875"/>
      <stop offset="0.98" stop-color="#ac825a"/>
      <stop offset="1" stop-color="#a67c52"/>
    </linearGradient>
    <linearGradient id="linear-gradient-4" x1="-35.343" y1="0.164" x2="-34.523" y2="0.966" gradientUnits="objectBoundingBox">
      <stop offset="0" stop-color="#ff9d94"/>
      <stop offset="1" stop-color="#ff6a00"/>
    </linearGradient>
    <linearGradient id="linear-gradient-5" x1="1.085" y1="0.832" x2="0.115" y2="0.129" gradientUnits="objectBoundingBox">
      <stop offset="0" stop-color="#ff3c2a"/>
      <stop offset="1" stop-color="#fff"/>
    </linearGradient>
    <linearGradient id="linear-gradient-6" x1="0.824" y1="-2.006" x2="0.824" y2="-3.006" xlink:href="#linear-gradient-3"/>
    <linearGradient id="linear-gradient-7" x1="0.297" y1="0.02" x2="0.656" y2="1.073" gradientUnits="objectBoundingBox">
      <stop offset="0" stop-color="#ffac94"/>
      <stop offset="1" stop-color="#483fff"/>
    </linearGradient>
  </defs>
  <g id="_3" data-name="3" transform="translate(9016.641 1597.179)">
    <g transform="matrix(1, 0, 0, 1, -9016.64, -1597.18)" filter="url(#Path_11331)">
      <path id="Path_11331-2" data-name="Path 11331" d="M-11340.641-1563.714s119.564,30.477,186.771,23.444,702.564-75.881,1198.726,28.574c217.614,0,116.1-72.1,536.682-64.989,0-1.016-3.784,411.851-3.784,411.851s-83.2,6.6-159.8-14.527c-261.973-16.332-811.2-42.135-935.99-13.166-162.486,37.72-740.153,31.917-822.6,9.6C-11340.507-1185.162-11340.641-1563.714-11340.641-1563.714Z" transform="translate(11370.64 1597.18)" fill="url(#linear-gradient)"/>
    </g>
    <g id="Mask_Group_9734" data-name="Mask Group 9734" transform="translate(50 1)" clip-path="url(#clip-path)">
      <g id="Group_12166" data-name="Group 12166" transform="translate(-40 -16)">
        <g id="Group_12164" data-name="Group 12164" transform="translate(-8926 -1875.51)">
          <path id="Path_11260" data-name="Path 11260" d="M361.51,539.61c.12-15.22.91-28.85,1.89-42.52-7.58-3.16-14.88-10.9-17.77-20-3.46-10.88-4.86-23.63,9-27.79,5.3-1.59,9.09-1.14,12,.51.35-7.06.63-14.48.79-22.42.08-4.29,2.85-7.92,7-6.32,31.22,12,59.52,7.42,87.94-2.8C476,413.4,484.57,418.23,487,432q2,11.13,4,22.25a126.685,126.685,0,0,1,2,23.34q-.06,8.77-.13,17.54a90.132,90.132,0,0,1-2,17.91c-1.87,8.81-3.66,17.64-6.36,26.23-4.89,15.59-13.48,28.84-31.14,34.45l-.34.1c-14.76,3.71-15.44,13-14.49,22a5.7,5.7,0,0,1-4.25,5.84h0c-13.16,3.63-21.79,15-37.27,16.5-7.84.77-19.32-1-34.25-5-4-1.1-8.31-1-9.48-4.8C346.14,585.09,361.31,564.61,361.51,539.61Z" fill="url(#linear-gradient-3)"/>
          <path id="Path_11262" data-name="Path 11262" d="M442.28,485.06c1.46,19,3.63,27.28,5.51,31.24.34.71,1.33,2.67.53,4.25-1.39,2.74-7.26,2.5-11.16,2.05" fill="none" stroke="#b08874" stroke-linecap="round" stroke-linejoin="round" stroke-width="1"/>
          <path id="Path_11332" data-name="Path 11332" d="M436.43,602.78c-4.87-6.82-12.21-7-19.47-7.53-18.33-1.26-30.1-12.12-39.76-26.92,23.88,8.67,47.53,14.59,72.45,6.73-13,5.53-12.19,14.9-9.55,26.83a.37.37,0,0,1-.31.44C438.69,602.45,437.52,602.68,436.43,602.78Z" fill="#b08874"/>
          <path id="Path_11263" data-name="Path 11263" d="M540.13,695.86c-.28-2.94-1.12-11.2-3.22-23.3-2.64-15.21-4-22.81-6.52-27.18-2.24-3.84-5.23-7.29-23-19.16-14.87-9.92-16.48-10-27-16.94-23.29-15.48-25.1-21.66-35.53-23.6-12.58,13.5-31,15.55-38.51,16.39-6.83.76-31.84,2.63-52.46-13.34-1.43-1.1-2.69-2.18-3.78-3.18v.21a26.089,26.089,0,0,0-2.65.49,25.392,25.392,0,0,0-8.64,4.13c-12,8.38-24.37,10.7-37.26,16.63-10.17,4.67-32.71,15-44.78,37-7.6,13.83-9.26,29-11.32,47.86-.93,8.43-1.19,15.49-1.26,20.45a251,251,0,0,0,41.1,25.58c75.72,37.46,142.41,22.29,223.78,3.78,9.44-2.15,26.51-6.52,31.4-19C542.28,718.15,541.56,710.72,540.13,695.86Z" fill="url(#linear-gradient-4)"/>
          <path id="Path_11264" data-name="Path 11264" d="M387.51,556c.13-14.67,1.29-27.44-14.1-35.68-12.41-6.65-11-24.54-6.91-39.56h0l8.08-6.48c.5-11.62-2.76-22.51-4.83-33.53a73.46,73.46,0,0,1,5.37-45.52c2.31-5.07,5.95-10.07,2-16.33-24.85-11.59-48.93-.1-58.64,28.34-2.35,6.87-5.21,13.45-11,15.56-24.86,9-31.26,29.25-25,57.85,1.49,12.36-.82,23.58-5,35-10.32,28.06.09,56.11,23.92,66.29,4.7,2,9.64,2.72,11.2,10.08,4.84,22.73,16.27,37.46,35.53,42.6,1.6.43,2.92,2.44,4.37,3.71,10.44,6,20.05,1.49,27.42-12.78,6-7.54,8-16.54,7.74-27C387.17,584.44,387.39,570.21,387.51,556Z"/>
          <path id="Path_11265" data-name="Path 11265" d="M491,378.32c-20.4-12.8-42.1-15.38-64.52-10.92-7.57,1.51-15.11,3.19-22.66,4.79-25.82,18.92-31.76,48.73-30.47,82.44.26,7,.64,14.05,6,18.69,22.72,6.79,28.51,2.48,32.79-26.28,1.37-9.19,3.38-11.6,10.11-5.92,12.18,10.28,26,10.92,40.1,9,23.47-3.27,27.76,1.1,28.85,29.65.17,4.36.15,8.73.23,13.09,18.6-14.22,28-35.58,28.66-61.39C520.73,406.43,508.71,389.42,491,378.32Z"/>
          <path id="Path_11266" data-name="Path 11266" d="M377.08,378.9c-21.65,27.47-18,55.56-8.26,89.22a8.9,8.9,0,0,0,5.76,6.16l4.79-1c-2.79-37.63,4.52-71.64,24.47-101.13C395.56,378.23,385.49,373.7,377.08,378.9Z" fill="url(#linear-gradient-5)"/>
        </g>
        <g id="Group_12165" data-name="Group 12165" transform="translate(-8938 -1889.51)">
          <path id="Path_11267" data-name="Path 11267" d="M1543.84,532.34c-1.27-14.36-3-27.16-4.94-40,6.51-3.67,12.43-11.64,14.31-20.48,2.25-10.59,2.53-22.76-10.13-25.43-4.84-1-8.18-.24-10.64,1.58-.85-6.63-1.67-13.62-2.42-21.1-.4-4-3.14-7.22-6.73-5.33-26.91,14.16-52.48,12.41-78.58,5.35-12.51-3.38-19.81,2-20.91,15.15q-.9,10.68-1.85,21.37a126.848,126.848,0,0,0,0,22.22q.72,8.26,1.46,16.55a88.235,88.235,0,0,0,3.12,16.73c2.34,8.15,4.61,16.32,7.67,24.19,5.55,14.27,14.21,26,30.38,29.69a1.546,1.546,0,0,0,.31.06c13.44,2.17,14.75,10.88,14.6,19.5a5.23,5.23,0,0,0,4.23,5.12h0c12,2.24,20.56,12.18,34.47,12.2,7,0,17.13-2.69,30.13-7.86,3.52-1.4,7.33-1.69,8.08-5.4C1561,573.89,1545.92,555.93,1543.84,532.34Z" fill="url(#linear-gradient-6)"/>
          <path id="Path_11268" data-name="Path 11268" d="M1464.39,483.18c.27,19-1.13,27.5-2.65,31.62-.27.73-1.08,2.77-.14,4.27,1.64,2.61,7.46,1.83,11.3,1" fill="none" stroke="#b08874" stroke-linecap="round" stroke-linejoin="round" stroke-width="1"/>
          <path id="Path_11269" data-name="Path 11269" d="M1569.25,409.7c-2.45-3-3.76-7-5.19-10.72-7.19-18.53-21.31-28.34-40.4-30.51-23.36-2.66-46.17.39-67.86,10-14.1,2.56-25.86,14.23-41.66,10.61-1.29-.3-3.49,2.41-5,4-10.27,11.2-9.63,27.73,3.14,35.78,8.22,5.19,9.94,11.41,9.86,19.64,2.72-4.64.76-13.63,11-11.16,24.5,5.91,49.42,2.48,74.16,2.93h0c.68,2.56,1.43,5.11,2,7.7,3.77,16.22,3.82,16.31,17.43,6.6,5.19-3.71,10.51-4.63,16.16-1.74,5.31,2.71,7.12,7.61,7.17,13.28.1,11.09-4.2,19.5-14.24,25.05-11.34,6.26-12.41,14.58-3.23,22.66,3,2.61,6.44,4.65,9.68,6.95,1.59-1.54,4.21-2.85,4.59-4.65,4.85-22.61,19.71-40.81,27.15-62.21C1579.42,438.62,1580.58,423.5,1569.25,409.7Z"/>
          <path id="Path_11270" data-name="Path 11270" d="M1483.09,597.53c3.46-7.63,10.62-9.26,17.64-11.15,17.74-4.79,27.19-17.73,33.8-34.11-21.74,13.13-43.81,23.52-69.78,20.63,13.86,2.9,14.85,12.26,14.57,24.47a.37.37,0,0,0,.39.37C1480.81,597.65,1482,597.64,1483.09,597.53Z" fill="#b08874"/>
          <path id="Path_11271" data-name="Path 11271" d="M1373.14,691.68c.29-2.95,1.13-11.2,3.23-23.3,2.64-15.21,4-22.81,6.51-27.18,2.25-3.85,5.24-7.29,23-19.16,14.88-9.92,16.48-10,27-16.94,23.29-15.48,25.11-21.67,35.53-23.61,12.58,13.51,31,15.56,38.52,16.4,6.83.76,31.84,2.63,52.46-13.34,1.43-1.11,2.69-2.18,3.78-3.18v.21a23.572,23.572,0,0,1,2.65.49,25.281,25.281,0,0,1,8.65,4.13c12,8.38,24.37,10.7,37.26,16.62,10.16,4.67,32.71,15,44.77,37,7.6,13.83,9.26,29,11.33,47.86.92,8.42,1.19,15.49,1.25,20.45A251.348,251.348,0,0,1,1628,733.7c-75.72,37.46-142.41,22.29-223.79,3.78-9.43-2.15-26.5-6.52-31.4-19C1371,714,1371.71,706.54,1373.14,691.68Z" fill="url(#linear-gradient-7)"/>
        </g>
      </g>
    </g>
  </g>
</svg>
