<svg xmlns="http://www.w3.org/2000/svg" width="36" height="36" viewBox="0 0 36 36"><rect width="36" height="36" fill="none"/><path d="M26.637.793a2.176,2.176,0,0,1,2.155,2.155V18.025a2.174,2.174,0,0,1-2.155,2.153H23.4a2.162,2.162,0,0,1-1.867-1.114c-.727.445-1.441.706-1.9.971-1.083.625-1.633,2.386-1.89,4.22-.129.917-.2,1.8-.309,2.534a4.123,4.123,0,0,1-.263,1.049,1.611,1.611,0,0,1-.382.572,1.435,1.435,0,0,1-.921.383,4.879,4.879,0,0,1-3.743-1.581,6.747,6.747,0,0,1-1.438-3.348,19.45,19.45,0,0,1-.147-4.767H4.029A3.25,3.25,0,0,1,.793,15.869,5.934,5.934,0,0,1,1.2,14.034c.227-.735.536-1.619.875-2.567.677-1.9,1.483-4.046,2.01-5.627a5.37,5.37,0,0,1,.978-1.867A2.946,2.946,0,0,1,7.254,2.948H20.178a3.149,3.149,0,0,1,1.072.2v-.2A2.174,2.174,0,0,1,23.4.793Zm0,2.155H23.4V18.025h3.234ZM20.178,5.1H7.254a.59.59,0,0,0-.564.278,3.715,3.715,0,0,0-.566,1.146C5.576,8.174,4.769,10.318,4.1,12.19c-.334.936-.633,1.8-.843,2.481s-.311,1.288-.311,1.2a1.053,1.053,0,0,0,1.083,1.072h7.629a1.078,1.078,0,0,1,1.081,1.083,29.85,29.85,0,0,0,.063,5.467,4.79,4.79,0,0,0,.946,2.3,2.472,2.472,0,0,0,1.539.81c.108-.614.182-1.661.32-2.645.281-2.006.81-4.545,2.956-5.785.8-.461,1.572-.73,2.035-1.049a1.186,1.186,0,0,0,.652-1.249V6.182A1.051,1.051,0,0,0,20.178,5.1Z" transform="translate(2.207 4.207)" fill="#bfbfbf"/></svg>