<svg xmlns="http://www.w3.org/2000/svg" width="36" height="36" viewBox="0 0 36 36"><g transform="translate(-11.148 -612.148)"><rect width="36" height="36" transform="translate(11.148 612.148)" fill="none"/><path d="M2.948,28.793A2.176,2.176,0,0,1,.793,26.637V11.561A2.174,2.174,0,0,1,2.948,9.408H6.182a2.162,2.162,0,0,1,1.867,1.114c.727-.445,1.441-.706,1.9-.971,1.083-.625,1.633-2.386,1.89-4.22.129-.917.2-1.8.309-2.534a4.123,4.123,0,0,1,.263-1.049,1.611,1.611,0,0,1,.382-.572,1.435,1.435,0,0,1,.921-.383,4.879,4.879,0,0,1,3.743,1.581A6.747,6.747,0,0,1,18.9,5.722a19.45,19.45,0,0,1,.147,4.767h6.512a3.25,3.25,0,0,1,3.236,3.228,5.934,5.934,0,0,1-.406,1.836c-.227.735-.536,1.619-.875,2.567-.677,1.9-1.483,4.046-2.01,5.627a5.37,5.37,0,0,1-.978,1.867,2.946,2.946,0,0,1-2.193,1.024H9.408a3.149,3.149,0,0,1-1.072-.2v.2a2.174,2.174,0,0,1-2.153,2.155Zm0-2.155H6.182V11.561H2.948Zm6.46-2.153H22.331a.59.59,0,0,0,.564-.278,3.715,3.715,0,0,0,.566-1.146c.55-1.649,1.356-3.793,2.025-5.665.334-.936.633-1.8.843-2.481s.311-1.288.311-1.2a1.053,1.053,0,0,0-1.083-1.072H17.928a1.078,1.078,0,0,1-1.081-1.083,29.85,29.85,0,0,0-.063-5.467,4.79,4.79,0,0,0-.946-2.3,2.472,2.472,0,0,0-1.539-.81c-.108.614-.182,1.661-.32,2.645-.281,2.006-.81,4.545-2.956,5.785-.8.461-1.572.73-2.035,1.049a1.186,1.186,0,0,0-.652,1.249V23.4a1.051,1.051,0,0,0,1.072,1.081Z" transform="translate(15.356 614.356)" fill="#bfbfbf"/></g></svg>