<svg xmlns="http://www.w3.org/2000/svg" width="240" height="245" viewBox="0 0 240 245">
  <g id="person_meditating_mindfulness_before_slide_" data-name="person meditating ( mindfulness before slide)" transform="translate(-4123 -16272.906)">
    <g id="yoga" transform="translate(4123 16277.906)">
      <g id="Group_10884" data-name="Group 10884" transform="translate(6.983 0)">
        <path id="Path_9857" data-name="Path 9857" d="M472.058,390.7c.075.02.151.041.225.063Z" transform="translate(-251.93 -207.564)" fill="#ffb69e"/>
        <g id="Group_13125" data-name="Group 13125" transform="translate(0)">
          <path id="Path_9855" data-name="Path 9855" d="M243.348,457.62l-74.024-5.749L95.29,457.62a12.07,12.07,0,0,0,1.843,24.07l72.186-5.723c76.9,6.083,72.206,5.759,73.12,5.759a12.072,12.072,0,0,0,.908-24.106Z" transform="translate(-56.3 -241.729)" fill="#fedfc5"/>
          <path id="Path_9856" data-name="Path 9856" d="M41.165,262.646l7.754.3a14.206,14.206,0,0,0,1.66-1.045l41.366-30.511A14.177,14.177,0,0,0,97.7,219.984V170.606a5.413,5.413,0,0,1,5.464-5.142h.428v99.618l74.935.057V165.465h.428a5.414,5.414,0,0,1,5.464,5.142v49.378a14.177,14.177,0,0,0,5.758,11.409L231.544,261.9a14.209,14.209,0,0,0,1.672,1.052l7.742-.309a17.339,17.339,0,0,1,6.055.117,14.181,14.181,0,0,0,1.31-23.678l-35.608-26.264V170.489a33.719,33.719,0,0,0-33.758-33.363H103.166a33.718,33.718,0,0,0-33.758,33.363v42.333L33.8,239.085a14.194,14.194,0,0,0,1.34,23.7A17.353,17.353,0,0,1,41.165,262.646Z" transform="translate(-28.05 -76.718)" fill="#fedfc5"/>
          <circle id="Ellipse_4177" data-name="Ellipse 4177" cx="29.367" cy="29.367" r="29.367" transform="translate(83.651 -5)" fill="#fedfc5"/>
        </g>
      </g>
      <g id="Group_13126" data-name="Group 13126" transform="translate(0 53.851)">
        <path id="Path_9858" data-name="Path 9858" d="M220.45,143.114H198.576c.308,8.926-7.966,16.5-16.6,16.5-9.258,0-16.124-7.546-16.592-16.5H144.726A33.7,33.7,0,0,0,111,176.477v30.4h28.269V176.595a5.41,5.41,0,0,1,5.459-5.142h.428l.482,93.55,74.868.138-.482-93.689h.427a5.411,5.411,0,0,1,5.459,5.142v30.283h28.269v-30.4A33.7,33.7,0,0,0,220.45,143.114Z" transform="translate(-63.069 -137.127)" fill="#25bed3"/>
        <path id="Path_9859" data-name="Path 9859" d="M253.539,403.01a17.452,17.452,0,0,0-13.6-13.2h0a17.369,17.369,0,0,0-6.056-.117l-7.743.309h0l-54.692,2.184-74.942-.057-54.68-2.134h0l-7.754-.3a17.334,17.334,0,0,0-6.026.136h0A17.437,17.437,0,0,0,27.8,423.99L122.216,444a56.022,56.022,0,0,0,22.453.155l95.5-20.167A17.471,17.471,0,0,0,253.539,403.01Z" transform="translate(-13.986 -264.17)" fill="#7f7ce8"/>
      </g>
    </g>
  </g>
</svg>
