<svg id="Layer_1" data-name="Layer 1" xmlns="http://www.w3.org/2000/svg" xmlns:xlink="http://www.w3.org/1999/xlink" viewBox="0 0 1999.71 607.99"><defs><style>.cls-1{fill:url(#linear-gradient);}.cls-2{fill:url(#linear-gradient-2);}.cls-3{fill:url(#linear-gradient-3);}.cls-4{fill:url(#linear-gradient-4);}.cls-5{fill:url(#linear-gradient-5);}.cls-6{fill:url(#linear-gradient-6);}.cls-7{fill:url(#linear-gradient-7);}.cls-8{fill:url(#linear-gradient-8);}.cls-9{fill:url(#linear-gradient-9);}.cls-10{fill:url(#linear-gradient-10);}.cls-11{fill:url(#linear-gradient-11);}.cls-12{fill:url(#linear-gradient-12);}.cls-13{fill:url(#linear-gradient-13);}.cls-14{fill:url(#linear-gradient-14);}.cls-15{fill:url(#linear-gradient-15);}.cls-16{fill:url(#linear-gradient-16);}.cls-17{fill:url(#linear-gradient-17);}.cls-18{fill:url(#linear-gradient-18);}.cls-19{fill:url(#linear-gradient-19);}.cls-20{fill:url(#linear-gradient-20);}.cls-21{fill:url(#linear-gradient-21);}.cls-22{fill:url(#linear-gradient-22);}.cls-23{fill:url(#linear-gradient-23);}.cls-24{fill:url(#linear-gradient-24);}.cls-25{fill:url(#linear-gradient-25);}.cls-26{fill:url(#linear-gradient-26);}.cls-27{fill:url(#linear-gradient-27);}.cls-28{fill:url(#linear-gradient-28);}.cls-29{fill:url(#linear-gradient-29);}.cls-30{fill:url(#linear-gradient-30);}.cls-31{fill:url(#linear-gradient-31);}.cls-32{fill:url(#linear-gradient-32);}.cls-33{fill:url(#linear-gradient-33);}.cls-34{fill:url(#linear-gradient-34);}.cls-35{fill:url(#linear-gradient-35);}.cls-36{fill:url(#linear-gradient-36);}.cls-37{fill:url(#linear-gradient-37);}.cls-38{fill:url(#linear-gradient-38);}.cls-39{fill:url(#linear-gradient-39);}.cls-40{fill:url(#linear-gradient-40);}.cls-41{fill:url(#linear-gradient-41);}.cls-42{fill:url(#linear-gradient-42);}.cls-43{fill:url(#linear-gradient-43);}.cls-44{fill:url(#linear-gradient-44);}.cls-45{fill:url(#linear-gradient-45);}.cls-46{fill:url(#linear-gradient-46);}.cls-47{fill:url(#linear-gradient-47);}.cls-48{fill:url(#linear-gradient-48);}.cls-49{fill:url(#linear-gradient-49);}.cls-50{fill:url(#linear-gradient-50);}.cls-51{fill:url(#linear-gradient-51);}.cls-52{fill:url(#linear-gradient-52);}.cls-53{fill:url(#linear-gradient-53);}.cls-54{fill:url(#linear-gradient-54);}.cls-55{fill:url(#linear-gradient-55);}.cls-56{fill:url(#linear-gradient-56);}.cls-57{fill:url(#linear-gradient-57);}.cls-58{fill:url(#linear-gradient-58);}.cls-59{fill:url(#linear-gradient-59);}.cls-60{fill:url(#linear-gradient-60);}.cls-61{fill:url(#linear-gradient-61);}.cls-62{fill:url(#linear-gradient-62);}.cls-63{fill:url(#linear-gradient-63);}.cls-64{fill:url(#linear-gradient-64);}.cls-65{fill:url(#linear-gradient-65);}.cls-66{fill:url(#linear-gradient-66);}.cls-67{fill:url(#linear-gradient-67);}.cls-68{fill:url(#linear-gradient-68);}.cls-69{fill:url(#linear-gradient-69);}.cls-70{fill:url(#linear-gradient-70);}.cls-71{fill:url(#linear-gradient-71);}.cls-72{fill:url(#linear-gradient-72);}.cls-73{fill:url(#linear-gradient-73);}.cls-74{fill:url(#linear-gradient-74);}.cls-75{fill:url(#linear-gradient-75);}.cls-76{fill:url(#linear-gradient-76);}.cls-77{fill:url(#linear-gradient-77);}.cls-78{fill:url(#linear-gradient-78);}.cls-79{fill:url(#linear-gradient-79);}.cls-80{fill:url(#linear-gradient-80);}.cls-81{fill:url(#linear-gradient-81);}.cls-82{fill:url(#linear-gradient-82);}.cls-83{fill:url(#linear-gradient-83);}.cls-84{fill:url(#linear-gradient-84);}.cls-85{fill:url(#linear-gradient-85);}.cls-86{fill:url(#linear-gradient-86);}.cls-87{fill:url(#linear-gradient-87);}.cls-88{fill:url(#linear-gradient-88);}.cls-89{fill:url(#linear-gradient-89);}.cls-90{fill:url(#linear-gradient-90);}.cls-91{fill:#eeeff0;}.cls-92{fill:url(#linear-gradient-91);}.cls-93{fill:url(#linear-gradient-92);}.cls-94{fill:url(#linear-gradient-93);}.cls-95{fill:url(#linear-gradient-94);}.cls-96{fill:url(#linear-gradient-95);}.cls-97{fill:url(#linear-gradient-96);}</style><linearGradient id="linear-gradient" x1="1003.24" y1="606.86" x2="1003.24" gradientUnits="userSpaceOnUse"><stop offset="0" stop-color="#fff"/><stop offset="0" stop-color="#42738b"/><stop offset="1"/></linearGradient><linearGradient id="linear-gradient-2" x1="149.99" y1="185.03" x2="152.06" y2="185.03" xlink:href="#linear-gradient"/><linearGradient id="linear-gradient-3" x1="270.97" y1="114.15" x2="273.04" y2="114.15" xlink:href="#linear-gradient"/><linearGradient id="linear-gradient-4" x1="427.03" y1="194.33" x2="429.1" y2="194.33" xlink:href="#linear-gradient"/><linearGradient id="linear-gradient-5" x1="539.42" y1="104.13" x2="541.49" y2="104.13" xlink:href="#linear-gradient"/><linearGradient id="linear-gradient-6" x1="615.3" y1="173.57" x2="617.37" y2="173.57" xlink:href="#linear-gradient"/><linearGradient id="linear-gradient-7" x1="403.4" y1="94.11" x2="405.48" y2="94.11" xlink:href="#linear-gradient"/><linearGradient id="linear-gradient-8" x1="320.36" y1="163.55" x2="322.44" y2="163.55" xlink:href="#linear-gradient"/><linearGradient id="linear-gradient-9" x1="422.02" y1="151.38" x2="424.81" y2="151.38" xlink:href="#linear-gradient"/><linearGradient id="linear-gradient-10" x1="532.26" y1="203.64" x2="534.33" y2="203.64" xlink:href="#linear-gradient"/><linearGradient id="linear-gradient-11" x1="673.28" y1="83.37" x2="675.36" y2="83.37" xlink:href="#linear-gradient"/><linearGradient id="linear-gradient-12" x1="791.4" y1="185.03" x2="793.47" y2="185.03" xlink:href="#linear-gradient"/><linearGradient id="linear-gradient-13" x1="870.86" y1="79.08" x2="872.93" y2="79.08" xlink:href="#linear-gradient"/><linearGradient id="linear-gradient-14" x1="943.16" y1="166.41" x2="945.24" y2="166.41" xlink:href="#linear-gradient"/><linearGradient id="linear-gradient-15" x1="712.65" y1="112.01" x2="714.73" y2="112.01" xlink:href="#linear-gradient"/><linearGradient id="linear-gradient-16" x1="663.98" y1="177.15" x2="666.05" y2="177.15" xlink:href="#linear-gradient"/><linearGradient id="linear-gradient-17" x1="817.89" y1="127.76" x2="819.96" y2="127.76" xlink:href="#linear-gradient"/><linearGradient id="linear-gradient-18" x1="862.99" y1="190.75" x2="865.06" y2="190.75" xlink:href="#linear-gradient"/><linearGradient id="linear-gradient-19" x1="912.38" y1="126.32" x2="914.45" y2="126.32" xlink:href="#linear-gradient"/><linearGradient id="linear-gradient-20" x1="1005.44" y1="89.82" x2="1007.52" y2="89.82" xlink:href="#linear-gradient"/><linearGradient id="linear-gradient-21" x1="1100.6" y1="166.05" x2="1104.21" y2="166.05" xlink:href="#linear-gradient"/><linearGradient id="linear-gradient-22" x1="1219.48" y1="92.68" x2="1221.56" y2="92.68" xlink:href="#linear-gradient"/><linearGradient id="linear-gradient-23" x1="1282.48" y1="142.79" x2="1284.55" y2="142.79" xlink:href="#linear-gradient"/><linearGradient id="linear-gradient-24" x1="1107.81" y1="89.82" x2="1109.88" y2="89.82" xlink:href="#linear-gradient"/><linearGradient id="linear-gradient-25" x1="920.25" y1="25.39" x2="922.33" y2="25.39" xlink:href="#linear-gradient"/><linearGradient id="linear-gradient-26" x1="771.36" y1="29.68" x2="774.15" y2="29.68" xlink:href="#linear-gradient"/><linearGradient id="linear-gradient-27" x1="701.92" y1="33.26" x2="704.71" y2="33.26" xlink:href="#linear-gradient"/><linearGradient id="linear-gradient-28" x1="610.29" y1="44.72" x2="612.36" y2="44.72" xlink:href="#linear-gradient"/><linearGradient id="linear-gradient-29" x1="1192.28" y1="54.02" x2="1194.36" y2="54.02" xlink:href="#linear-gradient"/><linearGradient id="linear-gradient-30" x1="1400.6" y1="57.6" x2="1402.67" y2="57.6" xlink:href="#linear-gradient"/><linearGradient id="linear-gradient-31" x1="1455.72" y1="124.18" x2="1457.79" y2="124.18" xlink:href="#linear-gradient"/><linearGradient id="linear-gradient-32" x1="1433.53" y1="163.55" x2="1435.6" y2="163.55" xlink:href="#linear-gradient"/><linearGradient id="linear-gradient-33" x1="1293.93" y1="175.72" x2="1296.01" y2="175.72" xlink:href="#linear-gradient"/><linearGradient id="linear-gradient-34" x1="1206.6" y1="193.62" x2="1208.67" y2="193.62" xlink:href="#linear-gradient"/><linearGradient id="linear-gradient-35" x1="1167.23" y1="124.18" x2="1169.3" y2="124.18" xlink:href="#linear-gradient"/><linearGradient id="linear-gradient-36" x1="1356.93" y1="116.3" x2="1359" y2="116.3" xlink:href="#linear-gradient"/><linearGradient id="linear-gradient-37" x1="1417.06" y1="213.66" x2="1419.14" y2="213.66" xlink:href="#linear-gradient"/><linearGradient id="linear-gradient-38" x1="955.33" y1="207.93" x2="957.41" y2="207.93" xlink:href="#linear-gradient"/><linearGradient id="linear-gradient-39" x1="1222.35" y1="226.55" x2="1224.42" y2="226.55" xlink:href="#linear-gradient"/><linearGradient id="linear-gradient-40" x1="1456.43" y1="230.84" x2="1458.51" y2="230.84" xlink:href="#linear-gradient"/><linearGradient id="linear-gradient-41" x1="1684.04" y1="227.62" x2="1686.91" y2="227.62" xlink:href="#linear-gradient"/><linearGradient id="linear-gradient-42" x1="1768.55" y1="222.97" x2="1770.62" y2="222.97" xlink:href="#linear-gradient"/><linearGradient id="linear-gradient-43" x1="1643.27" y1="122.03" x2="1645.35" y2="122.03" xlink:href="#linear-gradient"/><linearGradient id="linear-gradient-44" x1="1538.76" y1="196.48" x2="1540.83" y2="196.48" xlink:href="#linear-gradient"/><linearGradient id="linear-gradient-45" x1="1564.53" y1="46.86" x2="1566.6" y2="46.86" xlink:href="#linear-gradient"/><linearGradient id="linear-gradient-46" x1="1767.83" y1="103.42" x2="1770.62" y2="103.42" xlink:href="#linear-gradient"/><linearGradient id="linear-gradient-47" x1="1819.37" y1="108.43" x2="1821.45" y2="108.43" xlink:href="#linear-gradient"/><linearGradient id="linear-gradient-48" x1="1740.63" y1="39.71" x2="1742.7" y2="39.71" xlink:href="#linear-gradient"/><linearGradient id="linear-gradient-49" x1="1997.62" y1="103.42" x2="1999.7" y2="103.42" xlink:href="#linear-gradient"/><linearGradient id="linear-gradient-50" x1="1911" y1="225.83" x2="1913.08" y2="225.83" xlink:href="#linear-gradient"/><linearGradient id="linear-gradient-51" x1="1755.66" y1="170.71" x2="1757.74" y2="170.71" xlink:href="#linear-gradient"/><linearGradient id="linear-gradient-52" x1="1856.6" y1="166.41" x2="1858.67" y2="166.41" xlink:href="#linear-gradient"/><linearGradient id="linear-gradient-53" x1="1928.9" y1="54.74" x2="1930.98" y2="54.74" xlink:href="#linear-gradient"/><linearGradient id="linear-gradient-54" x1="1814.36" y1="31.83" x2="1816.44" y2="31.83" xlink:href="#linear-gradient"/><linearGradient id="linear-gradient-55" x1="1915.3" y1="119.88" x2="1917.37" y2="119.88" xlink:href="#linear-gradient"/><linearGradient id="linear-gradient-56" x1="1913.15" y1="175.72" x2="1915.23" y2="175.72" xlink:href="#linear-gradient"/><linearGradient id="linear-gradient-57" x1="1689.09" y1="125.61" x2="1691.16" y2="125.61" xlink:href="#linear-gradient"/><linearGradient id="linear-gradient-58" x1="1669.76" y1="56.89" x2="1671.83" y2="56.89" xlink:href="#linear-gradient"/><linearGradient id="linear-gradient-59" x1="1596.74" y1="187.89" x2="1598.82" y2="187.89" xlink:href="#linear-gradient"/><linearGradient id="linear-gradient-60" x1="1541.62" y1="99.12" x2="1543.7" y2="99.12" xlink:href="#linear-gradient"/><linearGradient id="linear-gradient-61" x1="108.47" y1="33.26" x2="110.54" y2="33.26" xlink:href="#linear-gradient"/><linearGradient id="linear-gradient-62" x1="66.95" y1="142.79" x2="69.02" y2="142.79" xlink:href="#linear-gradient"/><linearGradient id="linear-gradient-63" x1="388.37" y1="11.79" x2="390.44" y2="11.79" xlink:href="#linear-gradient"/><linearGradient id="linear-gradient-64" x1="270.97" y1="116.3" x2="273.04" y2="116.3" xlink:href="#linear-gradient"/><linearGradient id="linear-gradient-65" x1="231.6" y1="187.89" x2="233.67" y2="187.89" xlink:href="#linear-gradient"/><linearGradient id="linear-gradient-66" x1="188.65" y1="83.37" x2="190.72" y2="83.37" xlink:href="#linear-gradient"/><linearGradient id="linear-gradient-67" x1="61.62" y1="79.79" x2="65.77" y2="79.79" xlink:href="#linear-gradient"/><linearGradient id="linear-gradient-68" x1="230.56" y1="57.6" x2="234.71" y2="57.6" xlink:href="#linear-gradient"/><linearGradient id="linear-gradient-69" x1="340.8" y1="228.69" x2="344.95" y2="228.69" xlink:href="#linear-gradient"/><linearGradient id="linear-gradient-70" x1="36.56" y1="186.46" x2="40.71" y2="186.46" xlink:href="#linear-gradient"/><linearGradient id="linear-gradient-71" x1="469.66" y1="59.75" x2="473.81" y2="59.75" xlink:href="#linear-gradient"/><linearGradient id="linear-gradient-72" x1="568.45" y1="159.25" x2="572.59" y2="159.25" xlink:href="#linear-gradient"/><linearGradient id="linear-gradient-73" x1="781.06" y1="61.18" x2="785.21" y2="61.18" xlink:href="#linear-gradient"/><linearGradient id="linear-gradient-74" x1="758.15" y1="195.76" x2="762.3" y2="195.76" xlink:href="#linear-gradient"/><linearGradient id="linear-gradient-75" x1="1010.85" y1="58.32" x2="1015" y2="58.32" xlink:href="#linear-gradient"/><linearGradient id="linear-gradient-76" x1="1061.67" y1="143.51" x2="1065.82" y2="143.51" xlink:href="#linear-gradient"/><linearGradient id="linear-gradient-77" x1="1321.73" y1="79.93" x2="1325.88" y2="79.93" xlink:href="#linear-gradient"/><linearGradient id="linear-gradient-78" x1="1452.19" y1="197.51" x2="1456.34" y2="197.51" xlink:href="#linear-gradient"/><linearGradient id="linear-gradient-79" x1="1658.35" y1="67.05" x2="1662.5" y2="67.05" xlink:href="#linear-gradient"/><linearGradient id="linear-gradient-80" x1="1867.73" y1="157.24" x2="1871.88" y2="157.24" xlink:href="#linear-gradient"/><linearGradient id="linear-gradient-81" x1="1490.85" y1="44.5" x2="1495" y2="44.5" xlink:href="#linear-gradient"/><linearGradient id="linear-gradient-82" x1="1579.43" y1="173.35" x2="1583.58" y2="173.35" xlink:href="#linear-gradient"/><linearGradient id="linear-gradient-83" x1="1856.46" y1="34.84" x2="1860.6" y2="34.84" xlink:href="#linear-gradient"/><linearGradient id="linear-gradient-84" x1="1945.04" y1="113.76" x2="1949.19" y2="113.76" xlink:href="#linear-gradient"/><linearGradient id="linear-gradient-85" x1="862.71" y1="120.2" x2="866.86" y2="120.2" xlink:href="#linear-gradient"/><linearGradient id="linear-gradient-86" x1="925.53" y1="229.72" x2="929.67" y2="229.72" xlink:href="#linear-gradient"/><linearGradient id="linear-gradient-87" x1="1081.75" y1="218.45" x2="1085.9" y2="218.45" xlink:href="#linear-gradient"/><linearGradient id="linear-gradient-88" x1="1022.16" y1="70.27" x2="1026.31" y2="70.27" xlink:href="#linear-gradient"/><linearGradient id="linear-gradient-89" x1="1271.81" y1="86.38" x2="1275.95" y2="86.38" xlink:href="#linear-gradient"/><linearGradient id="linear-gradient-90" x1="128.28" y1="181.4" x2="132.43" y2="181.4" xlink:href="#linear-gradient"/><linearGradient id="linear-gradient-91" x1="1245.96" y1="292.12" x2="1249.56" y2="292.12" xlink:href="#linear-gradient"/><linearGradient id="linear-gradient-92" x1="1069.87" y1="266.63" x2="1071.94" y2="266.63" xlink:href="#linear-gradient"/><linearGradient id="linear-gradient-93" x1="1587.44" y1="260.19" x2="1589.51" y2="260.19" xlink:href="#linear-gradient"/><linearGradient id="linear-gradient-94" x1="93.44" y1="245.16" x2="95.51" y2="245.16" xlink:href="#linear-gradient"/><linearGradient id="linear-gradient-95" x1="84.79" y1="297.37" x2="88.94" y2="297.37" xlink:href="#linear-gradient"/><linearGradient id="linear-gradient-96" x1="208.81" y1="249.05" x2="212.96" y2="249.05" xlink:href="#linear-gradient"/></defs><title>Artboard 5</title><path class="cls-1" d="M1999.46,248a18.14,18.14,0,0,1,.25-2.88V0H6.77V606.86H1999.46Z"/><path class="cls-2" d="M151,184a1.08,1.08,0,0,0,0,2.15A1.08,1.08,0,0,0,151,184Z"/><path class="cls-3" d="M272,113.08a1.08,1.08,0,0,0,0,2.15A1.08,1.08,0,0,0,272,113.08Z"/><path class="cls-4" d="M428.06,193.26a1.08,1.08,0,0,0,0,2.15A1.08,1.08,0,0,0,428.06,193.26Z"/><path class="cls-5" d="M540.45,103.06a1.08,1.08,0,0,0,0,2.15A1.08,1.08,0,0,0,540.45,103.06Z"/><path class="cls-6" d="M616.34,172.5a1.08,1.08,0,0,0,0,2.15A1.08,1.08,0,0,0,616.34,172.5Z"/><path class="cls-7" d="M404.44,93a1.07,1.07,0,0,0,0,2.14A1.07,1.07,0,0,0,404.44,93Z"/><path class="cls-8" d="M321.4,162.48a1.07,1.07,0,0,0,0,2.14A1.07,1.07,0,0,0,321.4,162.48Z"/><path class="cls-9" d="M423.77,150.31h-.72a1.07,1.07,0,0,0,0,2.14h.72A1.07,1.07,0,0,0,423.77,150.31Z"/><path class="cls-10" d="M533.3,202.56a1.08,1.08,0,0,0,0,2.15A1.08,1.08,0,0,0,533.3,202.56Z"/><path class="cls-11" d="M674.32,82.3a1.08,1.08,0,0,0,0,2.15A1.08,1.08,0,0,0,674.32,82.3Z"/><path class="cls-12" d="M792.44,184a1.08,1.08,0,0,0,0,2.15A1.08,1.08,0,0,0,792.44,184Z"/><path class="cls-13" d="M871.9,78a1.08,1.08,0,0,0,0,2.15A1.08,1.08,0,0,0,871.9,78Z"/><path class="cls-14" d="M944.2,165.34a1.08,1.08,0,0,0,0,2.15A1.08,1.08,0,0,0,944.2,165.34Z"/><path class="cls-15" d="M713.69,110.93a1.08,1.08,0,0,0,0,2.15A1.08,1.08,0,0,0,713.69,110.93Z"/><path class="cls-16" d="M665,176.08a1.07,1.07,0,0,0,0,2.14A1.07,1.07,0,0,0,665,176.08Z"/><path class="cls-17" d="M818.92,126.68a1.08,1.08,0,0,0,0,2.15A1.08,1.08,0,0,0,818.92,126.68Z"/><path class="cls-18" d="M864,189.68a1.08,1.08,0,0,0,0,2.15A1.08,1.08,0,0,0,864,189.68Z"/><path class="cls-19" d="M913.42,125.25a1.08,1.08,0,0,0,0,2.15A1.08,1.08,0,0,0,913.42,125.25Z"/><path class="cls-20" d="M1006.48,88.74a1.08,1.08,0,0,0,0,2.15A1.08,1.08,0,0,0,1006.48,88.74Z"/><path class="cls-21" d="M1103.66,165.49l-1.43-.72c-1.23-.62-2.32,1.24-1.08,1.85l1.43.72C1103.81,168,1104.9,166.1,1103.66,165.49Z"/><path class="cls-22" d="M1220.52,91.61a1.07,1.07,0,0,0,0,2.14A1.07,1.07,0,0,0,1220.52,91.61Z"/><path class="cls-23" d="M1283.52,141.72a1.07,1.07,0,0,0,0,2.14A1.07,1.07,0,0,0,1283.52,141.72Z"/><path class="cls-24" d="M1108.85,88.74a1.08,1.08,0,0,0,0,2.15A1.08,1.08,0,0,0,1108.85,88.74Z"/><path class="cls-25" d="M921.29,24.31a1.08,1.08,0,0,0,0,2.15A1.08,1.08,0,0,0,921.29,24.31Z"/><path class="cls-26" d="M773.11,28.61h-.72a1.08,1.08,0,0,0,0,2.15h.72A1.08,1.08,0,0,0,773.11,28.61Z"/><path class="cls-27" d="M703.67,32.19H703a1.08,1.08,0,0,0,0,2.15h.72A1.08,1.08,0,0,0,703.67,32.19Z"/><path class="cls-28" d="M611.32,43.64a1.08,1.08,0,0,0,0,2.15A1.08,1.08,0,0,0,611.32,43.64Z"/><path class="cls-29" d="M1193.32,53a1.08,1.08,0,0,0,0,2.15A1.08,1.08,0,0,0,1193.32,53Z"/><path class="cls-30" d="M1401.63,56.53a1.08,1.08,0,0,0,0,2.15A1.08,1.08,0,0,0,1401.63,56.53Z"/><path class="cls-31" d="M1456.76,123.1a1.08,1.08,0,0,0,0,2.15A1.08,1.08,0,0,0,1456.76,123.1Z"/><path class="cls-32" d="M1434.56,162.48a1.07,1.07,0,0,0,0,2.14A1.07,1.07,0,0,0,1434.56,162.48Z"/><path class="cls-33" d="M1295,174.65a1.07,1.07,0,0,0,0,2.14A1.07,1.07,0,0,0,1295,174.65Z"/><path class="cls-34" d="M1207.64,192.54a1.08,1.08,0,0,0,0,2.15A1.08,1.08,0,0,0,1207.64,192.54Z"/><path class="cls-35" d="M1168.26,123.1a1.08,1.08,0,0,0,0,2.15A1.08,1.08,0,0,0,1168.26,123.1Z"/><path class="cls-36" d="M1358,115.23a1.08,1.08,0,0,0,0,2.15A1.08,1.08,0,0,0,1358,115.23Z"/><path class="cls-37" d="M1418.1,212.59a1.07,1.07,0,0,0,0,2.14A1.07,1.07,0,0,0,1418.1,212.59Z"/><path class="cls-38" d="M956.37,206.86a1.08,1.08,0,0,0,0,2.15A1.08,1.08,0,0,0,956.37,206.86Z"/><path class="cls-39" d="M1223.38,225.47a1.08,1.08,0,0,0,0,2.15A1.08,1.08,0,0,0,1223.38,225.47Z"/><path class="cls-40" d="M1457.47,229.77a1.07,1.07,0,0,0,0,2.14A1.07,1.07,0,0,0,1457.47,229.77Z"/><path class="cls-41" d="M1685.07,226.5l-.71.72a1.07,1.07,0,0,0,1.51,1.52l.72-.72A1.08,1.08,0,0,0,1685.07,226.5Z"/><path class="cls-42" d="M1769.59,221.89a1.08,1.08,0,0,0,0,2.15A1.08,1.08,0,0,0,1769.59,221.89Z"/><path class="cls-43" d="M1644.31,121a1.07,1.07,0,0,0,0,2.14A1.07,1.07,0,0,0,1644.31,121Z"/><path class="cls-44" d="M1539.79,195.41a1.07,1.07,0,0,0,0,2.14A1.07,1.07,0,0,0,1539.79,195.41Z"/><path class="cls-45" d="M1565.57,45.79a1.08,1.08,0,0,0,0,2.15A1.08,1.08,0,0,0,1565.57,45.79Z"/><path class="cls-46" d="M1769.59,102.34h-.72a1.08,1.08,0,0,0,0,2.15h.72A1.08,1.08,0,0,0,1769.59,102.34Z"/><path class="cls-47" d="M1820.41,107.35a1.08,1.08,0,0,0,0,2.15A1.08,1.08,0,0,0,1820.41,107.35Z"/><path class="cls-48" d="M1741.67,38.63a1.08,1.08,0,0,0,0,2.15A1.08,1.08,0,0,0,1741.67,38.63Z"/><path class="cls-49" d="M1998.66,102.34a1.08,1.08,0,0,0,0,2.15A1.08,1.08,0,0,0,1998.66,102.34Z"/><path class="cls-50" d="M1912,224.76a1.07,1.07,0,0,0,0,2.14A1.07,1.07,0,0,0,1912,224.76Z"/><path class="cls-51" d="M1756.7,169.63a1.08,1.08,0,0,0,0,2.15A1.08,1.08,0,0,0,1756.7,169.63Z"/><path class="cls-52" d="M1857.64,165.34a1.08,1.08,0,0,0,0,2.15A1.08,1.08,0,0,0,1857.64,165.34Z"/><path class="cls-53" d="M1929.94,53.66a1.08,1.08,0,0,0,0,2.15A1.08,1.08,0,0,0,1929.94,53.66Z"/><path class="cls-54" d="M1815.4,30.76a1.07,1.07,0,0,0,0,2.14A1.07,1.07,0,0,0,1815.4,30.76Z"/><path class="cls-55" d="M1916.34,118.81a1.08,1.08,0,0,0,0,2.15A1.08,1.08,0,0,0,1916.34,118.81Z"/><path class="cls-56" d="M1914.19,174.65a1.07,1.07,0,0,0,0,2.14A1.07,1.07,0,0,0,1914.19,174.65Z"/><path class="cls-57" d="M1690.13,124.53a1.08,1.08,0,0,0,0,2.15A1.08,1.08,0,0,0,1690.13,124.53Z"/><path class="cls-58" d="M1670.8,55.81a1.08,1.08,0,0,0,0,2.15A1.08,1.08,0,0,0,1670.8,55.81Z"/><path class="cls-59" d="M1597.78,186.81a1.08,1.08,0,0,0,0,2.15A1.08,1.08,0,0,0,1597.78,186.81Z"/><path class="cls-60" d="M1542.66,98.05a1.08,1.08,0,0,0,0,2.15A1.08,1.08,0,0,0,1542.66,98.05Z"/><path class="cls-61" d="M109.51,32.19a1.08,1.08,0,0,0,0,2.15A1.08,1.08,0,0,0,109.51,32.19Z"/><path class="cls-62" d="M68,141.72a1.07,1.07,0,0,0,0,2.14A1.07,1.07,0,0,0,68,141.72Z"/><path class="cls-63" d="M389.41,10.71a1.08,1.08,0,0,0,0,2.15A1.08,1.08,0,0,0,389.41,10.71Z"/><path class="cls-64" d="M272,115.23a1.08,1.08,0,0,0,0,2.15A1.08,1.08,0,0,0,272,115.23Z"/><path class="cls-65" d="M232.63,186.81a1.08,1.08,0,0,0,0,2.15A1.08,1.08,0,0,0,232.63,186.81Z"/><path class="cls-66" d="M189.68,82.3a1.08,1.08,0,0,0,0,2.15A1.08,1.08,0,0,0,189.68,82.3Z"/><path class="cls-67" d="M63.69,77.65c-2.76,0-2.77,4.29,0,4.29S66.46,77.65,63.69,77.65Z"/><path class="cls-68" d="M232.63,55.45c-2.76,0-2.76,4.3,0,4.3S235.4,55.45,232.63,55.45Z"/><path class="cls-69" d="M342.88,226.55c-2.77,0-2.77,4.29,0,4.29S345.65,226.55,342.88,226.55Z"/><path class="cls-70" d="M38.64,184.31c-2.77,0-2.77,4.29,0,4.29S41.4,184.31,38.64,184.31Z"/><path class="cls-71" d="M471.73,57.6c-2.76,0-2.77,4.3,0,4.3S474.5,57.6,471.73,57.6Z"/><path class="cls-72" d="M570.52,157.11c-2.76,0-2.77,4.29,0,4.29S573.29,157.11,570.52,157.11Z"/><path class="cls-73" d="M783.13,59c-2.76,0-2.77,4.3,0,4.3S785.9,59,783.13,59Z"/><path class="cls-74" d="M760.22,193.62c-2.76,0-2.77,4.29,0,4.29S763,193.62,760.22,193.62Z"/><path class="cls-75" d="M1012.92,56.17c-2.76,0-2.77,4.3,0,4.3S1015.69,56.17,1012.92,56.17Z"/><path class="cls-76" d="M1063.75,141.36c-2.77,0-2.77,4.29,0,4.29S1066.52,141.36,1063.75,141.36Z"/><path class="cls-77" d="M1323.81,77.79c-2.76,0-2.77,4.29,0,4.29S1326.58,77.79,1323.81,77.79Z"/><path class="cls-78" d="M1454.27,195.36c-2.77,0-2.77,4.3,0,4.3S1457,195.36,1454.27,195.36Z"/><path class="cls-79" d="M1660.43,64.9c-2.77,0-2.77,4.3,0,4.3S1663.19,64.9,1660.43,64.9Z"/><path class="cls-80" d="M1869.8,155.1c-2.76,0-2.76,4.29,0,4.29S1872.57,155.1,1869.8,155.1Z"/><path class="cls-81" d="M1492.92,42.35c-2.76,0-2.77,4.3,0,4.3S1495.69,42.35,1492.92,42.35Z"/><path class="cls-82" d="M1581.51,171.2c-2.77,0-2.77,4.3,0,4.3S1584.27,171.2,1581.51,171.2Z"/><path class="cls-83" d="M1858.53,32.69c-2.76,0-2.77,4.3,0,4.3S1861.3,32.69,1858.53,32.69Z"/><path class="cls-84" d="M1947.11,111.61c-2.76,0-2.77,4.29,0,4.29S1949.88,111.61,1947.11,111.61Z"/><path class="cls-85" d="M864.79,118.05c-2.77,0-2.77,4.3,0,4.3S867.55,118.05,864.79,118.05Z"/><path class="cls-86" d="M927.6,227.57c-2.76,0-2.77,4.3,0,4.3S930.37,227.57,927.6,227.57Z"/><path class="cls-87" d="M1083.83,216.3c-2.76,0-2.77,4.29,0,4.29S1086.6,216.3,1083.83,216.3Z"/><path class="cls-88" d="M1024.24,68.12c-2.77,0-2.77,4.3,0,4.3S1027,68.12,1024.24,68.12Z"/><path class="cls-89" d="M1273.88,84.23c-2.76,0-2.77,4.29,0,4.29S1276.65,84.23,1273.88,84.23Z"/><path class="cls-90" d="M130.35,179.25c-2.76,0-2.77,4.3,0,4.3S133.12,179.25,130.35,179.25Z"/><path class="cls-91" d="M159.62,130.11c2.57,0,2.57-4,0-4s-2.58,4,0,4Z"/><path class="cls-91" d="M333.57,88.24c2.57,0,2.58-4,0-4s-2.58,4,0,4Z"/><path class="cls-91" d="M578.39,166.62c2.58,0,2.58-4,0-4s-2.57,4,0,4Z"/><path class="cls-91" d="M795.3,71.06c2.57,0,2.58-4,0-4s-2.58,4,0,4Z"/><path class="cls-91" d="M1002.54,184.88c2.58,0,2.58-4,0-4s-2.58,4,0,4Z"/><path class="cls-91" d="M1171.13,88.24c2.57,0,2.57-4,0-4s-2.58,4,0,4Z"/><path class="cls-91" d="M1472.86,186c2.58,0,2.58-4,0-4s-2.58,4,0,4Z"/><path class="cls-91" d="M1635,93.61c2.58,0,2.58-4,0-4s-2.57,4,0,4Z"/><path class="cls-91" d="M1905.6,187c2.57,0,2.58-4,0-4s-2.58,4,0,4Z"/><path class="cls-91" d="M1955,49.58c2.58,0,2.58-4,0-4s-2.57,4,0,4Z"/><path class="cls-92" d="M1247.93,290.83l-1.43.72c-1.23.62-.15,2.47,1.09,1.85l1.43-.72C1250.25,292.06,1249.16,290.21,1247.93,290.83Z"/><path class="cls-93" d="M1070.91,265.56a1.08,1.08,0,0,0,0,2.15A1.08,1.08,0,0,0,1070.91,265.56Z"/><path class="cls-94" d="M1588.47,259.12a1.07,1.07,0,0,0,0,2.14A1.07,1.07,0,0,0,1588.47,259.12Z"/><path class="cls-95" d="M94.47,244.08a1.08,1.08,0,0,0,0,2.15A1.08,1.08,0,0,0,94.47,244.08Z"/><path class="cls-96" d="M86.86,295.22c-2.76,0-2.76,4.29,0,4.29S89.63,295.22,86.86,295.22Z"/><path class="cls-97" d="M210.88,246.9c-2.76,0-2.77,4.3,0,4.3S213.65,246.9,210.88,246.9Z"/></svg>