<svg xmlns="http://www.w3.org/2000/svg" width="24" height="24" viewBox="0 0 24 24"><g opacity="0.6"><rect width="24" height="24" fill="none"/><g transform="translate(4 2)"><path d="M2.369,20A2.374,2.374,0,0,1,0,17.618V4.286A2.375,2.375,0,0,1,2.369,1.9H4.736V.475a.475.475,0,1,1,.949,0V1.9h6.631V.475a.474.474,0,1,1,.947,0V1.9h2.369A2.374,2.374,0,0,1,18,4.286V17.618A2.374,2.374,0,0,1,15.633,20ZM.946,17.618a1.424,1.424,0,0,0,1.422,1.429H15.633a1.424,1.424,0,0,0,1.419-1.429V8.57H.946Zm16.106-10V4.286a1.424,1.424,0,0,0-1.419-1.429H13.264V4.286a.474.474,0,1,1-.947,0V2.856H5.685V4.286a.475.475,0,1,1-.949,0V2.856H2.369A1.426,1.426,0,0,0,.946,4.286V7.618Zm-4.263,9.05V14.761h1.9v1.907Zm-4.736,0V14.761H9.947v1.907Zm-4.737,0V14.761H5.211v1.907Zm9.473-3.812v-1.9h1.9v1.9Zm-4.736,0v-1.9H9.947v1.9Zm-4.737,0v-1.9H5.211v1.9Z" transform="translate(-0.5 -0.5)"/></g></g></svg>