<svg xmlns="http://www.w3.org/2000/svg" width="24" height="24" viewBox="0 0 24 24"><g opacity="0.6"><rect width="24" height="24" fill="none"/><g transform="translate(2 2)"><path d="M-10401,7645.5a9.5,9.5,0,0,1,9.5-9.5,9.5,9.5,0,0,1,9.5,9.5,9.5,9.5,0,0,1-9.5,9.5A9.5,9.5,0,0,1-10401,7645.5Zm.906,0a8.594,8.594,0,0,0,8.595,8.595,8.594,8.594,0,0,0,8.595-8.595,8.6,8.6,0,0,0-8.595-8.6A8.6,8.6,0,0,0-10400.095,7645.5Zm12.033,2.174-3.62-1.812c-.18,0-.271-.179-.271-.361v-5.427a.429.429,0,0,1,.453-.453.426.426,0,0,1,.451.453v5.155l3.349,1.72c.271.09.362.361.183.543a.368.368,0,0,1-.331.275A.3.3,0,0,1-10388.062,7647.674Z" transform="translate(10401.5 -7635.5)"/></g></g></svg>