<svg xmlns="http://www.w3.org/2000/svg" width="24" height="24" viewBox="0 0 24 24"><g opacity="0.6"><rect width="24" height="24" fill="none"/><g transform="translate(4 0.001)"><path d="M-10399.115,7612.936l-3.785-3.486a.629.629,0,0,1-.058-.181.43.43,0,0,1-.036-.169.408.408,0,0,1,.037-.168.622.622,0,0,1,.057-.18l3.785-3.486a1.149,1.149,0,0,1,.759,0,.9.9,0,0,1,0,.7l-3.017,2.7h12.1a3.446,3.446,0,0,0,2.342-.895c1.91-1.759.226-4.334,1.443-4.334a.455.455,0,0,1,.475.435c0,1.791.212,3.169-1.248,4.516a4.434,4.434,0,0,1-3.012,1.149h-12.1l3.014,2.7a.9.9,0,0,1,0,.7.986.986,0,0,1-.38.065A.987.987,0,0,1-10399.115,7612.936Zm-3.879-10.808a8.83,8.83,0,0,1,.189-2.906,4.116,4.116,0,0,1,2.808-2.583c.851-.244.3-.179,13.363-.175l-3.016-2.7a.872.872,0,0,1,0-.7,1.134,1.134,0,0,1,.756,0c2.5,2.352,3.391,3.163,3.709,3.5a.428.428,0,0,1,.125.146.234.234,0,0,1,.048.189.234.234,0,0,1-.047.188.445.445,0,0,1-.13.152c-.322.338-1.219,1.152-3.705,3.494a1.1,1.1,0,0,1-.756,0,.872.872,0,0,1,0-.7l3.014-2.7c-13.4,0-12.433-.049-13.082.134a3.2,3.2,0,0,0-2.182,2.011,8.288,8.288,0,0,0-.148,2.646.454.454,0,0,1-.472.437A.456.456,0,0,1-10402.994,7602.128Z" transform="translate(10402.493 -7591.474)"/></g></g></svg>