<svg xmlns="http://www.w3.org/2000/svg" width="72" height="72" viewBox="0 0 72 72"><g transform="translate(-1378 -260)"><rect width="72" height="72" transform="translate(1378 260)" fill="#fff"/><g transform="translate(1379.004 263)"><circle cx="32" cy="32" r="32" transform="translate(5.007)" fill="#ffe17d"/><path d="M41.758,58.894A31.879,31.879,0,0,1,9.669,27.229,31.418,31.418,0,0,1,16.861,7.24,31.394,31.394,0,0,0,12.224,51.8a32.369,32.369,0,0,0,45.135,4.577A31.966,31.966,0,0,0,62,51.8,32.21,32.21,0,0,1,41.758,58.894Z" fill="#fcd67b"/><path d="M21.934,65.61h0a2.09,2.09,0,0,0,2.084-2.084h0a2.09,2.09,0,0,0-2.084-2.087h1.042a2.09,2.09,0,0,0,2.084-2.084h0a2.09,2.09,0,0,0-2.084-2.084h1.042A2.09,2.09,0,0,0,26.1,55.187h0A2.09,2.09,0,0,0,24.018,53.1H35.481a2.084,2.084,0,0,0,2.084-2.084h0a2.084,2.084,0,0,0-2.084-2.08H16.723A3.126,3.126,0,0,1,13.6,45.813h0V39.56a2.084,2.084,0,0,0-2.084-2.084h0A2.084,2.084,0,0,0,9.429,39.56h0v5.1a6.252,6.252,0,0,1-1.37,3.906L7.088,49.78a8.334,8.334,0,0,0-1.827,5.208v4.37a6.253,6.253,0,0,0,6.253,6.253h10.42Z" fill="#fcd67b"/><path d="M20.163,65.61h0a2.327,2.327,0,0,0,2.32-2.32h0a2.327,2.327,0,0,0-2.32-2.32h1.16a2.327,2.327,0,0,0,2.32-2.32h0a2.327,2.327,0,0,0-2.32-2.32h1.16a2.327,2.327,0,0,0,2.32-2.32h0a2.327,2.327,0,0,0-2.32-2.32H35.245a2.32,2.32,0,0,0,2.32-2.32h0a2.32,2.32,0,0,0-2.32-2.32H14.363a3.48,3.48,0,0,1-3.48-3.48h0V36.609a2.32,2.32,0,0,0-2.32-2.32h0a2.32,2.32,0,0,0-2.32,2.32h0v5.679a6.963,6.963,0,0,1-1.525,4.348L3.637,47.988a9.278,9.278,0,0,0-2.034,5.8v4.865a6.961,6.961,0,0,0,6.961,6.961h11.6Z" fill="#9c6846"/><path d="M18.814,64.5h0a2.343,2.343,0,0,0,2.352-2.32h0a2.343,2.343,0,0,0-2.352-2.32H19.99a2.343,2.343,0,0,0,2.352-2.32h0a2.343,2.343,0,0,0-2.352-2.32h1.176a2.344,2.344,0,0,0,2.352-2.32h0a2.343,2.343,0,0,0-2.352-2.32H34.1a2.336,2.336,0,0,0,2.351-2.321h0a2.336,2.336,0,0,0-2.352-2.32H12.935a3.5,3.5,0,0,1-3.528-3.472V35.494a2.336,2.336,0,0,0-2.352-2.32h0A2.336,2.336,0,0,0,4.7,35.494h0v5.679a6.9,6.9,0,0,1-1.546,4.348l-1.1,1.352A9.2,9.2,0,0,0,0,52.673V57.54A7.008,7.008,0,0,0,7.051,64.5H18.814Z" fill="#9c6846"/><path d="M19.05,64.5h0a2.327,2.327,0,0,0,2.32-2.32h0a2.327,2.327,0,0,0-2.32-2.32h1.16a2.327,2.327,0,0,0,2.32-2.32h0a2.327,2.327,0,0,0-2.32-2.32h1.16a2.327,2.327,0,0,0,2.32-2.32h0a2.327,2.327,0,0,0-2.32-2.32H34.132a2.32,2.32,0,0,0,2.32-2.32h0a2.32,2.32,0,0,0-2.32-2.32H13.25a3.48,3.48,0,0,1-3.48-3.48h0V35.5a2.32,2.32,0,0,0-2.32-2.32h0A2.32,2.32,0,0,0,5.13,35.5h0v5.679a6.962,6.962,0,0,1-1.525,4.348L2.524,46.875a9.278,9.278,0,0,0-2.034,5.8V57.54A6.961,6.961,0,0,0,7.451,64.5h11.6Z" fill="#fff"/><path d="M16.74,51.265H11.73a.528.528,0,0,1,0-1.057h5.01a.528.528,0,0,1,0,1.057Z" fill="#9c6846"/><path d="M16.741,55.718H10.617a.528.528,0,0,1,0-1.057h6.124a.528.528,0,0,1,0,1.057Z" fill="#9c6846"/><path d="M16.741,60.171H9.5a.529.529,0,0,1,0-1.057h7.237a.529.529,0,0,1,0,1.057Z" fill="#9c6846"/><path d="M42.52,42.987a1.3,1.3,0,0,1-.584-.139A40.363,40.363,0,0,0,26.821,39.08a1.3,1.3,0,0,1-1.273-1.326v-.006a1.286,1.286,0,0,1,1.3-1.273h.033a42.292,42.292,0,0,1,16.229,4.047,1.3,1.3,0,0,1-.589,2.465Z" fill="#aa7346"/><path d="M28.974,16.933a1.3,1.3,0,0,1-.809-.283,9.742,9.742,0,0,0-10.071-.9,1.3,1.3,0,1,1-1.164-2.331,12.339,12.339,0,0,1,12.859,1.19,1.3,1.3,0,0,1-.815,2.32Z" fill="#aa7346"/><path d="M43.564,19.02a1.3,1.3,0,0,1-.254-2.58l10.421-2.084a1.3,1.3,0,0,1,.511,2.554h0L43.821,18.994A1.31,1.31,0,0,1,43.564,19.02Z" fill="#aa7346"/><path d="M24.189,26.251h0a2.605,2.605,0,0,1-2.267-2.9l.255-2.069a2.6,2.6,0,0,1,2.9-2.267h0a2.606,2.606,0,0,1,2.267,2.9l-.255,2.069A2.605,2.605,0,0,1,24.189,26.251Z" fill="#7d5046"/><path d="M25.081,19.01A2.551,2.551,0,0,0,24.557,19l-.44,3.568a1.563,1.563,0,0,0,3.1.383l.128-1.034A2.605,2.605,0,0,0,25.081,19.01Z" fill="#9c6846"/><path d="M46.008,28.53h0a2.605,2.605,0,0,1-2.267-2.9L44,23.561a2.6,2.6,0,0,1,2.9-2.267h0a2.606,2.606,0,0,1,2.267,2.9l-.255,2.069A2.605,2.605,0,0,1,46.008,28.53Z" fill="#7d5046"/><path d="M46.9,21.289a2.55,2.55,0,0,0-.524-.012l-.44,3.568a1.563,1.563,0,0,0,3.085.505c.006-.04.011-.081.015-.122l.128-1.034A2.605,2.605,0,0,0,46.9,21.289Z" fill="#9c6846"/></g></g></svg>