<svg xmlns="http://www.w3.org/2000/svg" width="72" height="72" viewBox="0 0 72 72"><g transform="translate(-1479 -262)"><rect width="72" height="72" transform="translate(1479 262)" fill="#fff"/><g transform="translate(1481.999 265)"><path d="M34.015,0a32,32,0,1,1-32,32A32,32,0,0,1,34.015,0Z" fill="#ffe17d"/><path d="M38.666,58.425A32,32,0,0,1,13.837,6.24,32,32,0,1,0,58.85,51.253,31.868,31.868,0,0,1,38.666,58.425Z" transform="translate(0.539 0.539)" fill="#fcd67b"/><path d="M29.865,18.6a1.306,1.306,0,0,1-.827-.226,9.746,9.746,0,0,0-10.111-.2A1.3,1.3,0,1,1,17.6,15.926a12.34,12.34,0,0,1,12.913.3,1.3,1.3,0,0,1-.652,2.371Z" fill="#aa7346"/><path d="M51.865,18.6a1.306,1.306,0,0,1-.827-.226,9.746,9.746,0,0,0-10.111-.2A1.3,1.3,0,0,1,39.6,15.926a12.34,12.34,0,0,1,12.913.3,1.3,1.3,0,0,1-.652,2.371Z" fill="#aa7346"/><path d="M23.884,28.2h0a2.605,2.605,0,0,1-2.649-2.556L21.2,23.56a2.605,2.605,0,0,1,2.556-2.649h0a2.606,2.606,0,0,1,2.649,2.556l.035,2.085A2.605,2.605,0,0,1,23.884,28.2Z" fill="#aa7346"/><path d="M45.883,28.2h0a2.6,2.6,0,0,1-2.649-2.56h0L43.2,23.555a2.606,2.606,0,0,1,2.56-2.649h0a2.606,2.606,0,0,1,2.648,2.557l.036,2.088A2.6,2.6,0,0,1,45.883,28.2Z" fill="#aa7346"/><circle cx="2" cy="2" r="2" transform="translate(22.015 24)" fill="#7d5046"/><circle cx="2" cy="2" r="2" transform="translate(43.628 24)" fill="#7d5046"/><path d="M34.522,37.97A46.524,46.524,0,0,1,24.485,36.9a.545.545,0,0,0-.625.706,11.074,11.074,0,0,0,21.324,0,.545.545,0,0,0-.625-.706A46.531,46.531,0,0,1,34.522,37.97Z" fill="#9c6846"/><path d="M34.528,40.657a56.483,56.483,0,0,0,9.73-.869,11.711,11.711,0,0,0,.926-2.183.545.545,0,0,0-.625-.706,47.567,47.567,0,0,1-20.074,0,.545.545,0,0,0-.625.706,11.756,11.756,0,0,0,.925,2.181A56.527,56.527,0,0,0,34.528,40.657Z" fill="#7d5046"/><path d="M24.819,50.721h0a2.73,2.73,0,0,1-1.562,2.635c-.06.036-.083.048-.083.048a4.118,4.118,0,0,1-.417,5.151,3.653,3.653,0,0,1,.68,1.955,2.272,2.272,0,0,1-.083.62c-.227.8-.93,1.61-2.647,2.146a4.067,4.067,0,0,1-1.419.119c-.7-.036-1.645-.215-1.443-1.443,0,0,.525-1.407.274-1.324A2.631,2.631,0,0,0,16.509,62l-.322.668s-.393,2.385-1.8,3.064l-.131.072a5.371,5.371,0,0,1-3.768.537l-.382-.083a6.591,6.591,0,0,1-3.589-2.206c-.191-.227-.382-.453-.572-.692a14.489,14.489,0,0,1-3.3-8.192l-.012-.1a13.674,13.674,0,0,1,1.061-6.4l.739-1.717a8.849,8.849,0,0,1,1.049-1.812,6.922,6.922,0,0,0,.763-7l-.37-.8-1.9-3.386a1.742,1.742,0,0,1,.906-2.492,5.439,5.439,0,0,1,4.424.2,4.992,4.992,0,0,1,1.514,1.145,6.863,6.863,0,0,1,.8.835,7.389,7.389,0,0,1,1.3,7.071l-.25.751a7.473,7.473,0,0,1,7-.62,8,8,0,0,1,3.744,3.112,3.476,3.476,0,0,1,.238,3.136l-.477,1.157A3.08,3.08,0,0,1,24.819,50.721Z" fill="#9c6846"/><path d="M23.819,49.721h0a2.73,2.73,0,0,1-1.562,2.635c-.06.036-.083.048-.083.048a4.118,4.118,0,0,1-.417,5.151,3.653,3.653,0,0,1,.68,1.955,2.272,2.272,0,0,1-.083.62c-.227.8-.93,1.61-2.647,2.146a4.067,4.067,0,0,1-1.419.119c-.7-.036-1.645-.215-1.443-1.443,0,0,.525-1.407.274-1.324A2.631,2.631,0,0,0,15.509,61l-.322.668s-.393,2.385-1.8,3.064l-.131.072a5.371,5.371,0,0,1-3.768.537l-.382-.083a6.591,6.591,0,0,1-3.589-2.206c-.191-.227-.382-.453-.572-.692a14.489,14.489,0,0,1-3.3-8.192l-.012-.1a13.674,13.674,0,0,1,1.061-6.4l.739-1.717a8.849,8.849,0,0,1,1.049-1.812,6.922,6.922,0,0,0,.763-7l-.37-.8-1.9-3.386a1.742,1.742,0,0,1,.906-2.492,5.439,5.439,0,0,1,4.424.2,4.992,4.992,0,0,1,1.514,1.145,6.863,6.863,0,0,1,.8.835,7.389,7.389,0,0,1,1.3,7.071l-.25.751a7.473,7.473,0,0,1,7-.62,8,8,0,0,1,3.744,3.112,3.476,3.476,0,0,1,.238,3.136l-.477,1.157A3.08,3.08,0,0,1,23.819,49.721Z" fill="#fcd67b"/><path d="M23.27,49.117h0a2.787,2.787,0,0,1-1.635,2.693c-.062.037-.087.049-.087.049a4.129,4.129,0,0,1-.437,5.263,3.678,3.678,0,0,1,.711,2,2.23,2.23,0,0,1-.087.634c-.237.816-.974,1.645-2.771,2.193a4.347,4.347,0,0,1-1.485.122c-.736-.037-1.723-.219-1.51-1.474,0,0,.549-1.438.287-1.352a2.731,2.731,0,0,0-1.685,1.4l-.337.682s-.412,2.437-1.885,3.131l-.137.073a5.747,5.747,0,0,1-3.944.548l-.4-.085A6.941,6.941,0,0,1,4.111,62.74c-.2-.232-.4-.463-.6-.707a14.612,14.612,0,0,1-3.458-8.37l-.012-.1A13.682,13.682,0,0,1,1.152,47.02l.774-1.754a8.97,8.97,0,0,1,1.1-1.852,6.932,6.932,0,0,0,.8-7.152l-.387-.816-1.985-3.46A1.759,1.759,0,0,1,2.4,29.44a5.814,5.814,0,0,1,4.631.207,5.218,5.218,0,0,1,1.585,1.17,7.018,7.018,0,0,1,.836.853A7.407,7.407,0,0,1,10.816,38.9l-.262.768a7.977,7.977,0,0,1,7.327-.634,8.326,8.326,0,0,1,3.919,3.18,3.473,3.473,0,0,1,.25,3.2l-.5,1.182A3.16,3.16,0,0,1,23.27,49.117Z" fill="#9c6846"/><path d="M23.271,49.117h0a2.788,2.788,0,0,1-1.6,2.693c-.061.037-.085.049-.085.049a4.206,4.206,0,0,1-.426,5.263,3.722,3.722,0,0,1,.694,2,2.265,2.265,0,0,1-.085.634c-.231.816-.95,1.645-2.7,2.193a4.144,4.144,0,0,1-1.45.122c-.719-.037-1.681-.219-1.474-1.474,0,0,.536-1.438.28-1.352a2.689,2.689,0,0,0-1.645,1.4l-.329.682s-.4,2.437-1.84,3.131l-.134.073a5.492,5.492,0,0,1-3.85.548l-.39-.085A6.75,6.75,0,0,1,4.57,62.74c-.2-.232-.39-.463-.585-.707A14.815,14.815,0,0,1,.61,53.663l-.012-.1A14,14,0,0,1,1.682,47.02l.755-1.754a9.067,9.067,0,0,1,1.072-1.852,7.071,7.071,0,0,0,.78-7.152l-.378-.816-1.937-3.46a1.8,1.8,0,0,1-.231-.877A1.765,1.765,0,0,1,2.9,29.44a5.554,5.554,0,0,1,4.52.207,5.079,5.079,0,0,1,1.547,1.17,6.924,6.924,0,0,1,.816.853A7.543,7.543,0,0,1,11.111,38.9l-.256.768a7.635,7.635,0,0,1,7.152-.634,8.174,8.174,0,0,1,3.826,3.18,3.545,3.545,0,0,1,.244,3.2l-.487,1.182A3.143,3.143,0,0,1,23.271,49.117Z" fill="#fff"/><path d="M19.667,46a.494.494,0,0,0,.31.108.5.5,0,0,0,.312-.891c-.152-.121-3.766-2.948-6.885-1.29a.5.5,0,0,0,.469.883C16.417,43.464,19.635,45.977,19.667,46Z" fill="#9c6846"/><path d="M20.351,51.47c-1.02-1.152-3.622-2.969-6.163-1.621a.5.5,0,1,0,.469.882c2.482-1.318,4.846,1.29,4.946,1.4a.5.5,0,0,0,.748-.663Z" fill="#9c6846"/><path d="M14.174,55.017a.5.5,0,0,0,.505.863,2.988,2.988,0,0,1,3.942.83.5.5,0,0,0,.4.206.491.491,0,0,0,.293-.1.5.5,0,0,0,.112-.7A3.989,3.989,0,0,0,14.174,55.017Z" fill="#9c6846"/></g></g></svg>