<svg xmlns="http://www.w3.org/2000/svg" xmlns:xlink="http://www.w3.org/1999/xlink" viewBox="0 0 106.86 106.86"><defs><style>.cls-1{isolation:isolate;}.cls-2{fill:url(#radial-gradient);}.cls-3{fill:#8b98a0;}.cls-10,.cls-4,.cls-9{opacity:0.8;mix-blend-mode:multiply;}.cls-5{fill:url(#linear-gradient);}.cls-6{mix-blend-mode:screen;}.cls-7{fill:url(#linear-gradient-2);}.cls-8{fill:url(#linear-gradient-3);}.cls-9{fill:url(#linear-gradient-4);}.cls-10{fill:url(#linear-gradient-5);}</style><radialGradient id="radial-gradient" cx="53.32" cy="91.36" r="54.59" gradientUnits="userSpaceOnUse"><stop offset="0" stop-color="#e7ecef"/><stop offset="1" stop-color="#bfc8cd"/></radialGradient><linearGradient id="linear-gradient" x1="51.92" y1="34.65" x2="79.6" y2="140.74" gradientUnits="userSpaceOnUse"><stop offset="0" stop-color="#fff"/><stop offset="1" stop-color="#b7c6ce"/></linearGradient><linearGradient id="linear-gradient-2" x1="39.3" y1="2.02" x2="58.4" y2="71.51" gradientUnits="userSpaceOnUse"><stop offset="0" stop-color="#fffbd4"/><stop offset="1"/></linearGradient><linearGradient id="linear-gradient-3" x1="30.33" y1="-7.28" x2="65.87" y2="95.8" gradientUnits="userSpaceOnUse"><stop offset="0" stop-color="#fff"/><stop offset="1"/></linearGradient><linearGradient id="linear-gradient-4" x1="40.32" y1="90.2" x2="40.32" y2="30.3" xlink:href="#linear-gradient"/><linearGradient id="linear-gradient-5" x1="55.34" y1="90.2" x2="55.34" y2="30.3" gradientTransform="translate(55.7 -22.75) rotate(44.95)" xlink:href="#linear-gradient"/></defs><title>Asset 21</title><g class="cls-1"><g id="Layer_2" data-name="Layer 2"><g id="Layer_1-2" data-name="Layer 1"><path class="cls-2" d="M53.43,106.36a52.93,52.93,0,1,1,52.93-52.93A53,53,0,0,1,53.43,106.36Z"/><path class="cls-3" d="M53.43,1A52.43,52.43,0,1,1,1,53.43,52.49,52.49,0,0,1,53.43,1m0-1a53.43,53.43,0,1,0,53.43,53.43A53.43,53.43,0,0,0,53.43,0Z"/><g class="cls-4"><path class="cls-5" d="M89.16,16A51.72,51.72,0,0,1,16,89.16,51.73,51.73,0,1,0,89.16,16Z"/></g><g class="cls-6"><path class="cls-7" d="M40.67,63c18.16-15.63,41.66-30.22,61.91-19.22A50.09,50.09,0,1,0,7.06,72.35C15,74.35,27.36,74.41,40.67,63Z"/></g><g class="cls-6"><path class="cls-8" d="M6.68,56.78a50.07,50.07,0,0,1,83.78-37A50.07,50.07,0,1,0,19.74,90.47,49.91,49.91,0,0,1,6.68,56.78Z"/></g><g class="cls-4"><path class="cls-9" d="M26.13,45.68v20H39.2L39,65.47,54.52,49.16V33.53L39.2,45.68ZM54.52,77.49V62.79L46.27,71Z"/><rect class="cls-10" x="18.55" y="54.46" width="73.58" height="2.96" transform="translate(-23.34 55.46) rotate(-44.95)"/></g><path d="M31.14,44V64H44.21L44,63.8,59.52,47.49V31.86L44.21,44ZM59.52,75.82V61.12l-8.25,8.25Z"/><rect x="23.56" y="52.79" width="73.58" height="2.96" transform="translate(-20.7 58.57) rotate(-45)"/></g></g></g></svg>