<svg xmlns="http://www.w3.org/2000/svg" width="177.124" height="120.905" viewBox="0 0 177.124 120.905"><g transform="translate(-97.727 -199.439)"><g transform="translate(-487.577 -314.639) rotate(11)"><path d="M47.526,17.114l-.017,0L45.021,4.172,32.611,6.557A8.465,8.465,0,0,0,16,9.749L4.079,12.039l2.67,13.9A8.464,8.464,0,0,0,9.942,42.558l2,10.423,11.916-2.29c-.015-.07-.032-.139-.046-.209a8.467,8.467,0,1,1,16.629-3.2c.013.071.023.141.035.212l12.407-2.384L50.7,33.747l.017,0a8.467,8.467,0,1,0-3.2-16.63Z" transform="translate(685.811 398.558) rotate(-19)" fill="#ff9a9e"/><path d="M49.724,31.865l-.016-.008L56.264,19.32,46.4,14.163A8.467,8.467,0,0,0,31.4,6.316L19.32,0,13.211,11.682l.016.008A8.467,8.467,0,1,1,5.38,26.7l-.016-.009L0,36.944l11.417,5.971a8.464,8.464,0,0,0,15,7.842l10.531,5.507,4.917-9.4.016.009a8.467,8.467,0,1,0,7.847-15.006Z" transform="matrix(0.208, -0.978, 0.978, 0.208, 792.965, 470.336)" fill="#95b0ff"/><path d="M811.091,717.354a8.6,8.6,0,0,1,.94-.126l-2.477-12.894-12.407,2.384c-.012-.071-.022-.141-.035-.212a8.467,8.467,0,1,0-16.63,3.2c.014.07.031.14.046.209l-11.916,2.29,2.469,12.851c-.135.019-.27.041-.406.067a8.467,8.467,0,0,0,3.2,16.63q.2-.039.4-.088l2.206,11.482,11.911-2.288a8.467,8.467,0,1,1,16.629-3.195l12.4-2.383-2.214-11.525a8.552,8.552,0,0,1-.919.232,8.467,8.467,0,1,1-3.2-16.629Z" transform="translate(-59.602 -259.017)" fill="#75c8ff"/><path d="M1075.85,680.548l-2.468-12.846-11.671,2.242a8.464,8.464,0,0,1-16.619,3.193l-12.653,2.431,2.473,12.871c-.235.024-.471.059-.708.1a8.467,8.467,0,1,0,3.2,16.629c.236-.045.468-.1.7-.165l2.21,11.5,13.453-2.585a8.465,8.465,0,0,0,16.492-3.169l11-2.113-2.205-11.477a8.464,8.464,0,0,0-3.193-16.62Z" transform="translate(-282.949 -230.375)" fill="#ffbb75"/></g><g transform="matrix(0.998, 0.07, -0.07, 0.998, 67.767, 19.736)"><g transform="translate(55.353 243.772)"><path d="M3.617,0s2.614,2.4,4.2,2.6,3.814.874,2.314,1.946-9.042.651-9.042.651S-.658,4.054.274,2.623A10.163,10.163,0,0,1,3.617,0Z" transform="translate(28.927 22.085) rotate(-25)" fill="#3f3d56"/><path d="M33.582,18.4,24.727,3.864l-.006.006a4.009,4.009,0,0,0-3.361-2.013V1.851H10.294L9.74,0A12.345,12.345,0,0,1,4.561,3.671,8.089,8.089,0,0,1,0,4.035L1.131,6.766c.817,1.972,2.082,4.351,5.361,4.342,0,0,7.9-.871,12.876-1.181,5.04,4.469,11.361,11.35,11.361,11.35Z" transform="matrix(0.995, 0.105, -0.105, 0.995, 2.224, 0)" fill="#446372"/><path d="M29.4,14.339c-3.311-3.056-6.63-8.206-10.589-10.617-.987-.6-6.2-.27-9.4-.131C.428,3.978-.536-2.713.2,1.271A5.138,5.138,0,0,0,.512,1.9c.028.049.339.526.483.7l.01.01C2.093,5.249,4,5.436,5.434,5.577l13-1.145,11.041,11.03-.018.018C30.942,15.5,30.041,14.917,29.4,14.339Z" transform="matrix(0.995, 0.105, -0.105, 0.995, 2.581, 5.563)" fill="#d9d9d9" style="mix-blend-mode:multiply;isolation:isolate"/></g><g transform="translate(42.729 218.128) rotate(-25)"><path d="M5.977,7.366c-.095,0-7.54,1.42-5.679-1.1a4.526,4.526,0,0,0,.757-1.583,5.216,5.216,0,0,0,.114-1.838A6.482,6.482,0,0,0,.551.709S6.7-.648,5.725.393C5.3.847,5.31,2.234,5.451,3.652c.076.766.189,1.54.292,2.182C5.886,6.728,6.008,7.366,5.977,7.366Z" transform="translate(5.474 8.393)" fill="#ffccd0"/><path d="M5.174.393C4.747.847,4.759,2.234,4.9,3.652a5.06,5.06,0,0,1-1.3.169c-1.119,0-1.208-1.412-2.044-2.027C1.425.563,0,.709,0,.709S6.152-.648,5.174.393Z" transform="translate(6.026 8.393)" opacity="0.1"/><path d="M10.1,5.051a5.048,5.048,0,1,1-.177-1.326A5.048,5.048,0,0,1,10.1,5.051Z" transform="translate(4.579 1.861)" fill="#ffccd0"/><path d="M5.977,2.841c-.095,0-7.54,1.42-5.679-1.1A4.527,4.527,0,0,0,1.056.154a5.578,5.578,0,0,1,3.35.321l.852.631a2.932,2.932,0,0,1,.491.2C5.887,2.2,6.008,2.841,5.977,2.841Z" transform="translate(5.474 12.918)" opacity="0.1"/><path d="M11.487,4.033l-.035.265c-.2.068-1.123.324-3.329-.58-.355-.145-.792-.317-1.278-.5C5.279,2.614,3.2,1.859,1.68,1.32.952,1.059.352.846,0,.722A5.98,5.98,0,0,1,.477,0H6.5l.153,1.419,4.706.943Z" transform="translate(0.343 33.401)" opacity="0.1"/><path d="M9.875.474S6.531-.977,5.174,1.2A35.975,35.975,0,0,0,3.218,4.67a4.927,4.927,0,0,1-.536,1.8c-.347.347.631,6.594.631,6.594s-1.167,2.4-.126,2.823-.095.774-.095.774.315.726-.284.789-.946,1.167-.946,1.167L0,20.7s6.079,2.145,8.466,3.124,3.27.6,3.364.568,1.546-4.007,1.546-4.007-.063-1.1.473-1.483,0-8.55,0-8.55l-.184-5.1a4.613,4.613,0,0,0-2.3-3.858,3.2,3.2,0,0,0-.641-.284Z" transform="translate(0 13.045)" fill="#2ac79b"/><path d="M4.846.663,5.509,1.83S.209,3.344,0,1.893A14.771,14.771,0,0,1,2.07,0Z" transform="matrix(-0.087, -0.996, 0.996, -0.087, 9.753, 18.969)" fill="#0d9f76"/><path d="M4.846.663,5.509,1.83S.209,3.344,0,1.893A14.771,14.771,0,0,1,2.07,0Z" transform="translate(7.434 21.564)" fill="#d56161" opacity="0.1"/><path d="M0,.416S2.524-.4,1.988.259,0,.416,0,.416Z" transform="translate(4.164 28.12)" opacity="0.1"/><path d="M0,0S1.291,1.613,1.6,1.01,0,0,0,0Z" transform="translate(7.044 28.721)" opacity="0.1"/><path d="M9.92,3.721a3.265,3.265,0,0,0-.444.564C9.034,4.979,8.7,5,8.7,5s0,1.5-.2,1.658-1.373-.665-1.388-.87-1.442-2.429-2.062.394L4.932,8.466s-2.044.252-3.09.481A5.048,5.048,0,1,1,9.918,3.721Z" transform="translate(4.579 1.865)" opacity="0.1"/><path d="M8.53.568h.395l-.2.158h.514V.915l.425.173v.126l.4.079-.095.268h.694l-.079.3.473.217v.331a2.788,2.788,0,0,0,.631.221c.158,0,.419.143.252.221s.126.174.264.189.315.174.236.237l-.078.063a2.767,2.767,0,0,0,.5.362c.08,0,.078.3,0,.332s-.379.2-.126.362.221.458.063.458-.221-.206-.237.078-.252.647-.284.363-.52.032-.962.726-.774.709-.774.709,0,1.5-.2,1.658-1.373-.664-1.388-.87S7.509,5.095,6.89,7.919l-.115,2.287a25.137,25.137,0,0,0-3.676.663C2.83,11.1-1.213,7.84.364,4.411S2.278.688,3.436.289,7.5-.164,8.53.568Z" transform="translate(2.732 0)" fill="#3f3d56"/><path d="M.272,1.2A19.569,19.569,0,0,1,.019,4.386c-.221.631,1.514,6.531,1.514,6.531s1.388,3.111,1.136,4.07.095,7.1,2.177,5.585.536-6.468.536-6.468S4.72,11.344,4.72,11s-.694-5.452-.694-5.452a7.687,7.687,0,0,1-.379-2.682C3.805,1.862,3.868,0,3.868,0Z" transform="matrix(-0.087, -0.996, 0.996, -0.087, 9.753, 18.969)" fill="#ffccd0"/><path d="M2.685,0S.153.82.047,3.06a9.739,9.739,0,0,0,0,2.429S3.82,3.6,5.555,5.427L5.378.473Z" transform="matrix(-0.087, -0.996, 0.996, -0.087, 6.195, 19.58)" opacity="0.1"/><path d="M2.685,0S.153.82.047,3.06a9.743,9.743,0,0,0,0,2.429S3.82,3.6,5.555,5.427L5.378.473Z" transform="matrix(-0.087, -0.996, 0.996, -0.087, 6.173, 19.329)" fill="#16af84"/><g transform="translate(4.512 0.725)" opacity="0.1"><path d="M.009,0c-.057.071.178.146.3.16A.2.2,0,0,1,.351.169C.36.092.17,0,.044,0Z" transform="translate(9.861 1.906)"/><path d="M0,.194S.116.249.252.3V.116L0,0Z" transform="translate(9.022 1.241)"/><path d="M.064,0,0,.052S.145.178.283.279L.331.241C.41.178.236.02.095,0Z" transform="translate(10.331 2.318)"/><path d="M0,.053.284.182.331,0H.014Z" transform="translate(8.548 0.835)"/><path d="M4.862,1.419,4.747,3.706a25.133,25.133,0,0,0-3.676.663C.988,4.443.535,4.174,0,3.666c.639.67,1.227,1.041,1.324.955A25.133,25.133,0,0,1,5,3.958l.115-2.287C5.477.016,6.124.1,6.589.485,6.124-.061,5.3-.553,4.862,1.419Z" transform="translate(0 5.522)"/><path d="M3.754.809C3.5.651,3.8.478,3.88.447s.078-.332,0-.332A.587.587,0,0,1,3.686,0c0,.083-.016.177-.058.194-.08.032-.379.2-.126.362s.221.458.063.458-.221-.206-.237.078-.252.647-.284.363-.52.032-.962.726-.774.709-.774.709,0,1.5-.2,1.658C.962,4.657.363,4.3,0,4c.186.275,1.169.943,1.357.8s.2-1.658.2-1.658.332-.015.774-.709.93-1.01.962-.726.269-.079.284-.363.079-.078.237-.078S4.007.967,3.754.809Z" transform="translate(7.208 2.866)"/><path d="M0,.08H.342L.347.064.029,0Z" transform="translate(7.933 0.504)"/><path d="M.1.039V0H0Z" transform="translate(7.362)"/></g></g></g></g></svg>