<svg xmlns="http://www.w3.org/2000/svg" xmlns:xlink="http://www.w3.org/1999/xlink" width="88" height="87.997" viewBox="0 0 88 87.997"><defs><radialGradient id="a" cx="0.499" cy="0.858" r="0.517" gradientTransform="translate(0)" gradientUnits="objectBoundingBox"><stop offset="0" stop-color="#e7ecef"/><stop offset="1" stop-color="#bfc8cd"/></radialGradient><linearGradient id="b" x1="0.402" y1="0.209" x2="0.713" y2="1.399" gradientUnits="objectBoundingBox"><stop offset="0" stop-color="#fff"/><stop offset="1" stop-color="#b7c6ce"/></linearGradient><linearGradient id="c" x1="0.31" y1="-0.122" x2="0.718" y2="1.061" gradientUnits="objectBoundingBox"><stop offset="0" stop-color="#fff"/><stop offset="1"/></linearGradient></defs><g transform="translate(-16.27 -546.518)"><g transform="translate(16.27 546.518)"><g transform="translate(0)"><g stroke="#8b98a0" stroke-width="1" fill="url(#a)"><ellipse cx="44" cy="43.998" rx="44" ry="43.998" stroke="none"/><ellipse cx="44" cy="43.998" rx="43.5" ry="43.498" fill="none"/></g><path d="M1313.737,458.975a42.462,42.462,0,0,1-60.037,60.034,42.464,42.464,0,1,0,60.037-60.034Z" transform="translate(-1240.269 -445.544)" opacity="0.8" fill="url(#b)"/><g transform="translate(2.742 2.738)"><path d="M1275.236,498.706c14.957-12.828,34.314-24.8,50.994-15.774a41.27,41.27,0,0,0-81.737,7.96,40.762,40.762,0,0,0,3.065,15.531C1254.1,508.064,1264.279,508.109,1275.236,498.706Z" transform="translate(-1244.493 -449.764)" fill="#dbdbdb"/><path d="M-2019.906,3542.9a41.3,41.3,0,0,1,41.249-41.256,41.093,41.093,0,0,1,27.745,10.753,41.154,41.154,0,0,0-30.5-13.506,41.3,41.3,0,0,0-41.25,41.256,41.157,41.157,0,0,0,13.505,30.5A41.1,41.1,0,0,1-2019.906,3542.9Z" transform="translate(2022.397 -3499.4)" fill="url(#c)" style="mix-blend-mode:screen;isolation:isolate"/><g transform="translate(-2.959 -4.635)"><g transform="translate(37.672 22.912)"><path d="M1.874-14.59a4.422,4.422,0,0,1-3.3-1.43A4.773,4.773,0,0,1-2.8-19.451a4.676,4.676,0,0,1,1.376-3.4,4.465,4.465,0,0,1,3.3-1.4,4.376,4.376,0,0,1,3.275,1.4,4.726,4.726,0,0,1,1.349,3.4,4.825,4.825,0,0,1-1.349,3.431A4.335,4.335,0,0,1,1.874-14.59Zm-3.3,5.381H5.782L6.828,19.959h-9.3Z" transform="translate(3.953 24.255)" fill="#838485"/><path d="M1.945-14.81a4.572,4.572,0,0,1-3.353-1.4A4.574,4.574,0,0,1-2.8-19.56a4.482,4.482,0,0,1,1.4-3.325,4.619,4.619,0,0,1,3.353-1.369A4.526,4.526,0,0,1,5.27-22.886,4.528,4.528,0,0,1,6.639-19.56,4.621,4.621,0,0,1,5.27-16.207,4.481,4.481,0,0,1,1.945-14.81ZM-1.408-9.551h7.32l1.062,28.5H-2.47Z" transform="translate(2.805 24.256)"/></g></g></g></g></g></g></svg>