<svg xmlns="http://www.w3.org/2000/svg" width="187.919" height="50.873" viewBox="0 0 187.919 50.873"><g transform="translate(-88.313 -321.917)"><path d="M721.615,443.472l-.011,0-1.594-8.3-7.955,1.529a5.426,5.426,0,0,0-10.65,2.046l-7.641,1.468,1.712,8.908a5.426,5.426,0,0,0,2.047,10.656l1.284,6.682L706.445,465c-.01-.045-.021-.089-.029-.134a5.428,5.428,0,1,1,10.66-2.048c.009.045.015.09.022.136l7.954-1.528-1.4-7.287.011,0a5.428,5.428,0,1,0-2.048-10.66Z" transform="translate(-602.836 -103.629)" fill="#2ac79b" opacity="0.6"/><path d="M721.615,443.472l-.011,0-1.594-8.3-7.955,1.529a5.426,5.426,0,0,0-10.65,2.046l-7.641,1.468,1.712,8.908a5.426,5.426,0,0,0,2.047,10.656l1.284,6.682L706.445,465c-.01-.045-.021-.089-.029-.134a5.428,5.428,0,1,1,10.66-2.048c.009.045.015.09.022.136l7.954-1.528-1.4-7.287.011,0a5.428,5.428,0,1,0-2.048-10.66Z" transform="translate(-179.025 -398.214) rotate(30)" fill="#2ac79b" opacity="0.6"/><path d="M721.615,443.472l-.011,0-1.594-8.3-7.955,1.529a5.426,5.426,0,0,0-10.65,2.046l-7.641,1.468,1.712,8.908a5.426,5.426,0,0,0,2.047,10.656l1.284,6.682L706.445,465c-.01-.045-.021-.089-.029-.134a5.428,5.428,0,1,1,10.66-2.048c.009.045.015.09.022.136l7.954-1.528-1.4-7.287.011,0a5.428,5.428,0,1,0-2.048-10.66Z" transform="translate(-230.025 -395.214) rotate(30)" fill="#2ac79b" opacity="0.6"/><path d="M30.466,10.971l-.011,0-1.594-8.3L20.905,4.2a5.426,5.426,0,0,0-10.65,2.046L2.615,7.717l1.712,8.908A5.426,5.426,0,0,0,6.374,27.282l1.284,6.682L15.3,32.5c-.01-.045-.021-.089-.029-.134a5.428,5.428,0,1,1,10.66-2.048c.009.045.015.09.022.136L33.9,28.921l-1.4-7.287.011,0a5.428,5.428,0,1,0-2.048-10.66Z" transform="translate(239.313 331.871)" fill="#2ac79b" opacity="0.6"/></g></svg>