<?xml version="1.0" encoding="UTF-8"?>
<!DOCTYPE svg  PUBLIC '-//W3C//DTD SVG 1.1//EN'  'http://www.w3.org/Graphics/SVG/1.1/DTD/svg11.dtd'>
<svg enable-background="new 342.1191 29.9799 1235.7617 1860.0403" version="1.1" viewBox="342.1191 29.9799 1235.7617 1860.0403" xml:space="preserve" xmlns="http://www.w3.org/2000/svg">
	<path d="m850.39 138.49c1.1666-1.2068 34.346 41.05 38.5 45.815 14.09 16.163 29.48 30.344 45.6 44.315-7.2679 5.9208-27.218 4.858-36.415 7.4388-5.7987 1.6272-25.072 4.5162-27.825 11.121 12.718-0.1305 27.602-6.6354 40.31-8.9801 12.314-2.272 24.518-3.3684 36.996-4.2961 30.048-2.2339 61.12-2.4631 90.864 2.8474 28.959 5.1703 57.288 13.64 83.493 27.186 18.731 9.6828 48.706 26.637 43.555 52.438-4.917 24.632-38.298 38.77-60.049 43.163-26.471 5.3457-53.799 0.4695-78.115-10.819-9.006-4.181-62.974-30.182-44.327-45.043 9.1314-7.2773 25.092-4.5469 35.853-4.5841 14.608-0.0504 27.142 3.4864 40.79 8.1078-11.456-52.578-157.18-12.82-82.55 37.53 43.507 32.971 130.61 54.403 177.26 18.51 23.865-18.362 26.065-52.96 21.593-80.28-1.8425-5.5278-3.0358-12.592-3.9858-18.36-1.3627-8.2737 15.852-11.456 22.475-14.179 16.994-6.9889 33.192-15.328 49.7-23.353 6.8108-3.3109 13.363-6.9683 19.787-10.983 6.1534-3.8461 15.932-15.906 16.974-3.2238 0.9409 11.458 4.967 23.976 4.08 35.35-1.521 16.279 2.4396 33.857 2.8387 50.249 0.4786 19.653 0.6158 39.33 1.0013 59.011 6.8696-2.8067 7.7755-43.546 7.85-50.65 1.5155-7.7122-0.1838-17.961 3.48-25 10.275-2.1759 20.31-4.9531 30.729-6.4637 22.133-3.2091 44.119-4.388 66.495-3.5115 9.9329 0.3891 19.768 2.1432 29.381 4.6152 8.4811 2.181 16.803 2.3288 10.829 11.104-21.97 32.273-39.417 66.566-52.687 103.23-7.3347 20.264-13.95 41.023-17.946 62.212-1.5145 8.0284-12.695 56.229-4.6505 60.558 6.2583-23.486 4.5569-47.73 16.924-69.699 5.7452-10.206 7.6761-9.5653 18.496-7.8113 10.573 1.9149 21.161 3.4038 31.688 5.6992 23.091 5.0353 45.438 11.968 67.388 20.737 13.049 5.213 8.2832 6.0612 1.2241 15.114-8.3629 9.8279-15.795 20.274-22.812 31.096-57.306 88.376-64.982 190.2-74.02 291.94-8.4438 95.048-20.675 210.1-90.865 281.72-31.486 32.126-79.828 50.169-121.39 65.202-48.94 17.7-97.91 27.257-148.62 37.634 1.9595-11.377 5.3815-22.426 7.77-33.71-6.5448 2.8606-9.5933 23.195-12.058 29.41-3.6987 9.3293-16.732 5.0505-25.962 7.0995-23.036 1.0057-46.388 1.6359-69.36-0.5601-46.405-4.8208-92.553-16.096-133.79-38.5-85.043-48.892-141.3-127.87-188.04-212.14-46.074-83.084-86.323-174.83-160.2-237.69-7.7603-6.6028-15.767-13.56-24.221-19.268-3.6535-2.4668-20.724-9.7242-20.589-13.914 20.666-14.752 44.339-26.22 67.236-36.993 10.714-5.0408 54.967-26.968 61.606-13.309 9.8095 20.183 18.705 40.921 31.177 59.7 0.9072 1.184 1.8143 2.3679 2.7215 3.5519 4.3533-4.1358-15.517-37.97-18.14-43.28-8.3207-18.641-18.223-36.807-27.817-54.824-18.82-35.343-39.081-70.275-63.787-101.87-4.7426-6.0651-9.586-12.07-14.928-17.624-2.6635-2.7851-5.4661-5.4225-8.4077-7.9123-6.3897-5.8132-0.4475-7.7357 4.5574-12.456 13.507-12.74 28.457-24.368 44.279-34.085 33.866-20.8 72.315-39.644 112.78-42.109 2.4266 26.622 2.7795 53.497 4.0671 80.192 0.697 14.45 1.8698 28.917 2.4195 43.364 0.4156 10.922-3.105 33.13 2.7234 42.594 5.692-4.5175 3.3754-27.313 3.7787-34.019 0.85-14.132 0.707-28.362 0.685-42.516-0.0401-25.826-1.0585-51.963-2.9042-77.737-1.869-26.098-6.5291-52.319-11.997-77.882-5.7561-26.91-17.954-53.155-22.702-79.976 45.185 2.1677 92.776 10.363 136.29 22.597 9.1539 2.5735 18.508 5.271 27.254 9.0499 9.0964 3.93-3.686 15.942-7.2764 21.996-9.6127 16.209-25.225 38.817-26.899 58.048 5.3795-2.1813 9.5687-13.946 12.371-18.367 5.4991-8.6745 11.25-17.187 16.699-25.893 9.4482-14.304 18.915-28.606 28.57-42.772 24.854-36.467 50.468-73.985 82.2-104.89m-12.54 104.97c5.5988 81.729 71.796 141.38 139.18 178.14 36.875 20.115 71.876 45.795 107.17 68.612 8.9166 5.7643 17.58 11.54 26.303 17.503 8.6228 5.8945-8.8523 10.117-11.902 14.984-20.524 8.2377-38.848 29.864-54.37 44.942-5.2971 5.1457-8.6497 12.236-15 15.758-7.2034-0.6548-16.701-10.645-22.888-14.7-18.487-12.118-37.474-23.648-56.587-34.751-40.547-23.556-82.134-47.915-124.08-68.838-36.49-19.023-73.733-45.838-103.62-73.894-8.0579-7.5645-15.28-15.435-22.57-23.698-5.8517-6.632-10.026-15.719-16.51-21.558-0.0749-7.0495-9.282-17.363-11.66-24.58-1.5987-3.7453-5.3278-27.719-8.66-27.83 0.146 14.276 4.0399 30.437 7.7 42.23 2.5724 12.457 9.8719 33.522 18.99 42.79 5.618 12.46 15.309 24.645 24.008 35.034 6.1503 7.3451 23.395 31.401 33.382 32.636 7.321 13.377 29.671 24.503 41.96 32.87 11.14 7.7546 23.729 13.723 35.077 20.837 30.68 19.234 63.816 34.651 94.609 53.791 31.004 19.272 62.646 37.354 93.084 57.572 25.4 15.343 54.209 33.189 76.042 53.387 4.1464 3.8358 8.7335 6.9797 13.038 10.633 4.896 9.2119 9.7042 5.611 2.58 15.11-9.9674 4.9053-19.437 16.069-26.919 24.285-11.854 13.017-22.543 27.251-30.757 42.867-5.2805 10.038-7.5553 27.922-15.044 36.088-9.0621-5.2167-15.19-14.773-23.029-21.813-10.431-9.3679-20.962-18.743-32.146-27.186-18.851-14.231-45.136-37.939-68.756-43.142-8.1961-7.597-22.368-11.059-32.601-15.171-15.672-6.2976-31.713-11.745-47.595-17.498-30.26-10.962-60.999-21.093-90.697-33.492-26.19-10.934-52.418-22.138-77.514-35.733-23.738-12.859-44.188-27.982-65.91-43.803-21.176-15.424-35.294-35.993-52.754-54.974-6.0765-9.6146-12.092-19.249-17.31-29.039-3.2551-6.107-6.1745-12.36-8.7914-18.783-1.7019-4.177-2.5196-13.802-5.9486-16.868-9.1774 3.5578 11.773 60.757 17.09 67.37 5.2809 21.53 26.578 42.327 40.986 58.191 36.222 39.88 87.771 62.884 136.19 84.247 56.337 24.859 114.35 45.964 169.86 72.524 12.852 6.1494 25.748 12.218 38.389 18.793 11.336 5.8967 25.042 18.377 37.566 20.864 7.2468 9.2053 24.619 16.488 34.529 22.654 13.501 8.4001 25.752 18.578 39.261 26.966-14.584-0.9639-31.749-4.6663-46.74-8.65-23.044-3.3911-45.926-8.4064-69.042-12.127-51.944-8.3611-104.1-15.35-156.08-23.463-47.264-7.3773-94.666-15.367-140.79-27.871-21.199-5.7469-43.427-13.006-62.931-23.128-9.8854-5.1298-19.313-10.014-28.355-16.541-4.876-3.5199-16.436-18.99-21.796-19.41-0.2992 16.049 17.886 30.294 27.937 40.42 12.618 12.713 30.486 20.978 46.301 28.975 32.055 16.209 67.584 25.773 102.64 35.036 83.559 22.078 170.86 24.277 255.45 40.604 41.695 8.0486 83.279 17.171 122.07 35.027 35.816 16.489 64.797 39.184 92.57 66.708 7.0403 14.692 21.761 27.378 30.401 41.269 9.8074 15.769 19.696 33.178 25.906 50.723 7.0857 20.021 14.129 39.727 20.422 60.066 2.0311 6.5635 9.9263 51.803 13.231 51.931 2.3966-19.606-5.2382-42.503-8.7959-61.669-3.178-17.119-5.8354-34.537-12.094-50.211-9.0701-31.255-24.408-67.345-42.805-96.932-20.402-32.81-46.405-61.984-79.469-82.432-6.5593-4.0565-13.183-7.742-19.792-11.535-4.2773-2.4549-9.0162-3.889-13.481-5.9335-6.8375-3.131-3.3904-6.4657-1.0371-12.337 7.8452-19.572 17.08-39.693 31.093-55.831 24.126-27.785 48.358-51.295 80.802-69.455 37.239-20.844 76.917-37.678 115.31-56.357 34.509-16.79 66.581-38.731 98.26-60.096 13.717-9.7526 27.007-20.718 38.732-32.649 2.8741-2.9244 33.301-39.266 26.278-41.591-13.925 9.9359-25.191 25.984-38.414 37.241-15.662 13.333-32.349 25.464-49.879 36.224-35.07 21.524-73.138 34.495-111.24 49.351-35.201 13.726-71.589 28.854-103.31 48.757-10.638 6.6731-10.578 0.4847-19.575-6.0624-8.1323-6.6258-16.249-13.271-24.43-19.837-11.219-9.0046-21.568-16.13-32.142-24.536-7.5663-6.0154-2.7599-7.6532 3.8304-13.318 6.829-5.8697 13.43-11.965 20.18-17.921 16.116-14.22 32.286-28.341 49.162-41.702 30.767-24.358 62.523-45.274 96.492-64.78 28.471-16.349 55.221-35.778 75.126-61.955 12.335-16.222 20.858-33.74 30.94-50.937 3.021-5.1529 18.424-44.217 13.181-46.584-4.8223 2.0466-11.721 23.889-14.599 29.161-6.2948 11.533-14.464 22.396-22.994 32.394-18.436 21.61-40.366 40.148-64.375 55.287-24.888 15.694-51.625 29-77.393 43.21-6.886 3.7973-18.348 8.1642-23.57 14.189-9.7665 0.4763-23.137-12.968-31.58-18.38-4.7206-3.8047-10.21-6.4331-15.27-9.72-0.0992-4.1646 4.7351-5.7368 7.2874-8.4693 7.6357-8.1746 17.098-16.037 25.812-23.045 20.548-16.524 41.248-32.841 61.7-49.456 16.795-12.705 39.565-31.107 41.08-54.13 5.6814-10.034 3.475-54.179-9.8-58.82 5.2081 26.573 4.3505 48.612-15.397 69.517-16.453 17.418-36.314 28.812-55.539 42.936-19.486 14.316-38.303 28.822-56.473 44.858-7.1818 6.3382-14.864 12.659-21.275 19.33-4.881 5.0787-20.82-8.1508-26.986-11.111-25.419-10.694-48.88-26.122-74.3-36.93-24.766-10.916-50.953-27.991-71.44-45.48-16.093-11.895-32.105-30.17-44.311-46.529-5.744-7.6982-10.771-15.483-14.841-24.099-3.0124-6.3762-5.5737-12.708-7.9475-19.352-0.1663-3.712-0.7787-14.319-5.2801-16.17 0.3 4.38 1.8 0.74 0 0z" fill="#BD0D20"/>
	<path d="m865.96 1173c-10.374-3.0715-20.305-7.0306-30.425-10.76-9.2894-3.4231-24.848-16.674-32.605-9.74-18.648 5.5435-39.31 29.524-52.172 43.429-17.471 18.887-32.447 40.015-44.989 62.462-6.2813 11.242-11.957 22.82-17.049 34.647-3.7521 8.7156-13.691 25.019-11.559 34.752 99.009-9.6041 208.19-41.677 247.35-142.03-19.768-2.9013-39.576-6.3388-58.55-12.76-6.8902-2.0401 18.97 6.4199 0 0z" fill="#98B930"/>
	<path d="m1303.4 1304.4c-20.524-52.171-50.945-98.65-93.93-135.02-6.0981-5.0813-11.653-8.4939-16.62-13.02-6.4901-4.2654-7.5769-7.5045-15.263-4.9039-7.4829 2.532-15.109 4.6581-22.437 7.6339-30.789 9.7296-62.204 17.549-94.06 22.87 17.939 39.416 42.062 72.639 79.971 95.996 49.826 30.699 110.93 46.356 169.32 47.624-0.8448-7.4927-4.6884-14.115-6.9802-21.18-5.2597-13.37 2.2901 7.0601 0 0z" fill="#98B930"/>
	<path d="m1014.3 1230.7c-4.3899-15.214-3.007-27.461-4.23-42.7-12.216 0.5333-24.485 0.9517-36.712 0.8715-5.8417-0.0383-11.641-0.4313-17.473-0.6559-10.559-0.4066-11.35-0.8149-14.394 9.5244-2.7745 13.356-13.811 37.698-19.59 54.75-15.962 58.566-25.618 117.95-13.18 178.28 2.7259 13.221 6.4484 26.235 11.1 38.906 4.6221 12.59 10.285 0.8862 15.29-6.4927 16.544-18.972 32.292-39.667 45.593-61.83 15.017-25.023 13.77-57.324 19.19-85.812 5.2762-27.733 17.24-56.75 14.407-84.838-1.2898-4.47 0.5901 5.85 0 0z" fill="#365A39"/>
	<linearGradient id="a" x1="1043.3" x2="1043.3" y1="1781.8" y2="1151.5" gradientUnits="userSpaceOnUse">
		<stop stop-color="#3C6A30" offset="0"/>
		<stop stop-color="#A8C02B" offset="1"/>
	</linearGradient>
	<path d="m1111.7 1760c-8.0419-26.136-22.216-51.302-33.148-76.331-8.4148-19.265-15.869-39.508-22.012-59.219-19.688-49.226-22.504-103.68-31.102-155.34-8.8297-53.044-6.0356-109.92-1.9289-163.54 3.9908-52.112 13.773-103.07 24.571-154.08-7.2112 3.152-13.391 31.866-15.35 39.25-4.1157 15.445-10.042 30.425-14.032 45.932-8.2565 32.083-16.8 63.952-21.928 96.768-2.0563 15.797-4.3926 31.62-6.7796 47.364-1.191 7.8555-5.2006 13.719-9.2976 20.546-1.9748 3.3264-4.0824 6.5665-6.3227 9.7202-3.6766 6.0901-1.6388 8.6831-1.6459 15.756-0.0192 19.096-0.0463 38.192-0.0385 57.288 0.0034 8.4861 0.0137 16.972 0.0347 25.458 0.0104 4.2427 0.0237 8.4854 0.0399 12.728 5.1487 1.4771 10.49 0.1173 15.71 0.8401 3.6831 2.6379 3.3815 20.574 4.1108 25.499 2.3283 15.721 5.8112 32.559 8.5054 46.309 4.5701 23.323 13.655 46.9 20.955 70.345 7.9656 25.583 22.493 51.908 37.455 74.108 8.873 13.166 18.833 26.399 31.41 36.245 5.6755 4.4432 10.464 8.2289 17.871 4.9666 8.1543-3.5912 5.9552-13.345 2.9229-20.612-3-9.75 2.3702 5.6799 0 0z" fill="url(#a)"/>
</svg>
