<svg xmlns="http://www.w3.org/2000/svg" width="152.286" height="141.872" viewBox="0 0 152.286 141.872"><g transform="translate(-691.148 -381.665)"><path d="M751.019,454.061l-.022,0-3.133-16.309-15.633,3a10.663,10.663,0,0,0-20.929,4.021l-15.014,2.885,3.363,17.506a10.663,10.663,0,0,0,4.023,20.941l2.523,13.13,15.011-2.884c-.019-.088-.041-.175-.058-.264A10.666,10.666,0,1,1,742.1,492.07c.017.089.029.177.044.266l15.63-3-2.751-14.32.022,0a10.666,10.666,0,1,0-4.025-20.949Z" transform="translate(0 -38.93)" fill="#ff9a9e"/><path d="M1070.61,421.806l-.021-.01L1078.848,406l-12.422-6.5a10.666,10.666,0,0,0-18.9-9.886l-15.214-7.956-7.7,14.716.02.01a10.666,10.666,0,1,1-9.885,18.9l-.02-.011-6.757,12.922,14.383,7.522a10.663,10.663,0,0,0,18.891,9.879l13.266,6.937L1060.7,440.7l.02.011a10.666,10.666,0,1,0,9.885-18.9Z" transform="translate(-242.624 0)" fill="#95b0ff"/><path d="M823.374,721.956a10.8,10.8,0,0,1,1.184-.158l-3.121-16.243-15.63,3c-.015-.089-.027-.178-.044-.267a10.666,10.666,0,0,0-20.949,4.025c.017.089.038.176.058.264l-15.011,2.884,3.111,16.188c-.17.024-.34.052-.511.085a10.666,10.666,0,0,0,4.025,20.949q.256-.049.506-.111l2.779,14.465,15-2.883a10.666,10.666,0,1,1,20.949-4.025l15.623-3-2.789-14.519a10.784,10.784,0,0,1-1.158.292,10.666,10.666,0,1,1-4.025-20.949Z" transform="translate(-55.641 -243.505)" fill="#75c8ff"/><path d="M1088.452,683.885l-3.109-16.182-14.7,2.825a10.663,10.663,0,0,1-20.935,4.023l-15.939,3.062,3.115,16.214c-.3.031-.593.074-.891.131a10.666,10.666,0,1,0,4.025,20.949c.3-.057.59-.127.877-.208l2.784,14.491,16.947-3.256a10.664,10.664,0,0,0,20.776-3.992l13.854-2.662-2.778-14.458a10.662,10.662,0,0,0-4.023-20.936Z" transform="translate(-257.454 -219.05)" fill="#ffbb75"/></g></svg>