<svg xmlns="http://www.w3.org/2000/svg" xmlns:xlink="http://www.w3.org/1999/xlink" width="32.99" height="32.99" viewBox="0 0 32.99 32.99">
  <defs>
    <radialGradient id="radial-gradient" cx="30.365" cy="440.36" r="16.744" gradientUnits="userSpaceOnUse">
      <stop offset="0" stop-color="#e7ecef"/>
      <stop offset="1" stop-color="#bfc8cd"/>
    </radialGradient>
    <linearGradient id="linear-gradient" x1="0.402" y1="0.209" x2="0.713" y2="1.399" gradientUnits="objectBoundingBox">
      <stop offset="0" stop-color="#fff"/>
      <stop offset="1" stop-color="#b7c6ce"/>
    </linearGradient>
    <linearGradient id="linear-gradient-2" x1="0.362" y1="-0.019" x2="0.555" y2="0.973" gradientUnits="objectBoundingBox">
      <stop offset="0" stop-color="#dbdbdb"/>
      <stop offset="1" stop-color="#dbdbdb"/>
    </linearGradient>
    <linearGradient id="linear-gradient-3" x1="0.31" y1="-0.122" x2="0.718" y2="1.061" gradientUnits="objectBoundingBox">
      <stop offset="0" stop-color="#fff"/>
      <stop offset="1"/>
    </linearGradient>
  </defs>
  <g id="Show_sentence_button" data-name="Show sentence button" transform="translate(-59 -250.127)">
    <g id="Group_3319" data-name="Group 3319" transform="translate(59 250.127)">
      <g id="Group_3290" data-name="Group 3290">
        <path id="Path_6807" data-name="Path 6807" d="M30.4,444.961a16.237,16.237,0,1,1,16.237-16.237A16.255,16.255,0,0,1,30.4,444.961Z" transform="translate(-13.903 -412.23)" fill="url(#radial-gradient)"/>
        <g id="Group_3289" data-name="Group 3289">
          <path id="Path_6808" data-name="Path 6808" d="M30.05,412.4a15.98,15.98,0,1,1-15.979,15.979A16,16,0,0,1,30.05,412.4m0-.515a16.495,16.495,0,1,0,16.495,16.495A16.5,16.5,0,0,0,30.05,411.882Z" transform="translate(-13.555 -411.882)" fill="#8b98a0"/>
        </g>
      </g>
      <g id="Group_3291" data-name="Group 3291" transform="translate(4.95 4.949)" opacity="0.8">
        <path id="Path_6809" data-name="Path 6809" d="M47.762,423.512a15.967,15.967,0,0,1-22.576,22.576,15.968,15.968,0,1,0,22.576-22.576Z" transform="translate(-25.186 -423.512)" fill="url(#linear-gradient)"/>
      </g>
      <g id="Group_3293" data-name="Group 3293" transform="translate(1.031 1.03)">
        <g id="Group_3292" data-name="Group 3292">
          <path id="Path_6810" data-name="Path 6810" d="M27.5,432.707c5.606-4.824,12.86-9.328,19.112-5.932a15.463,15.463,0,1,0-29.486,8.833C19.579,436.225,23.394,436.242,27.5,432.707Z" transform="translate(-15.978 -414.302)" fill="url(#linear-gradient-2)"/>
        </g>
      </g>
      <g id="Group_3294" data-name="Group 3294" transform="translate(1.031 1.03)">
        <path id="Path_6811" data-name="Path 6811" d="M17.01,430.8a15.456,15.456,0,0,1,25.865-11.435A15.458,15.458,0,1,0,21.041,441.2,15.408,15.408,0,0,1,17.01,430.8Z" transform="translate(-15.978 -414.302)" fill="url(#linear-gradient-3)"/>
      </g>
    </g>
    <g id="Group_9362" data-name="Group 9362">
      <g id="eye_4_" data-name="eye (4)" transform="translate(66.938 163.164)">
        <path id="Path_6830" data-name="Path 6830" d="M8.443,98.725c-3.226,0-6.152,1.765-8.311,4.632a.668.668,0,0,0,0,.8c2.159,2.871,5.085,4.636,8.311,4.636s6.152-1.765,8.311-4.632a.668.668,0,0,0,0-.8C14.6,100.49,11.67,98.725,8.443,98.725Zm.231,8.577a3.552,3.552,0,1,1,3.313-3.313A3.554,3.554,0,0,1,8.675,107.3Zm-.107-1.637a1.912,1.912,0,1,1,1.786-1.786A1.909,1.909,0,0,1,8.568,105.665Z" transform="translate(0 0)"/>
      </g>
      <rect id="Rectangle_2577" data-name="Rectangle 2577" width="19" height="1" transform="translate(66 259)"/>
      <rect id="Rectangle_2578" data-name="Rectangle 2578" width="19" height="1" transform="translate(66 274)"/>
    </g>
  </g>
</svg>
