<svg xmlns="http://www.w3.org/2000/svg" xmlns:xlink="http://www.w3.org/1999/xlink" width="1000" height="1813" viewBox="0 0 1000 1813"><defs><linearGradient id="a" y1="0.535" x2="1" y2="0.5" gradientUnits="objectBoundingBox"><stop offset="0" stop-color="#ffdbdb"/><stop offset="0.314" stop-color="#fedede" stop-opacity="0.18"/><stop offset="1" stop-color="#fce3e3" stop-opacity="0.11"/></linearGradient><clipPath id="e"><rect width="113" height="113" transform="translate(-0.117 0.365)" fill="#097a8f"/></clipPath><clipPath id="f"><rect width="215" height="146" transform="translate(0 -0.308)" fill="#fff" stroke="#707070" stroke-width="1"/></clipPath></defs><g transform="translate(-104 -1099)"><g transform="translate(104 1212)"><g transform="translate(2 -113)" fill="#fff9f9" stroke="#fff2f2" stroke-width="1"><rect width="998" height="1813" rx="1" stroke="none"/><rect x="0.5" y="0.5" width="997" height="1812" rx="0.5" fill="none"/></g><rect width="587" height="324" transform="translate(0 176)" fill="url(#a)"/><rect width="587" height="324" transform="translate(0 975)" opacity="0.6" fill="url(#a)"/><rect width="590" height="324" transform="translate(999 900) rotate(180)" fill="url(#a)"/><rect width="590" height="325" transform="translate(999 1699) rotate(180)" fill="url(#a)"/><text transform="translate(101 332)" font-size="42" font-family="Roboto-Medium, Roboto" font-weight="500" letter-spacing="0.02em" opacity="0.7"><tspan x="0" y="0">Why can’t I do </tspan><tspan x="0" y="54">anything right?</tspan></text><text transform="translate(552 747)" font-size="42" font-family="Roboto-Medium, Roboto" font-weight="500" letter-spacing="0.02em" opacity="0.7"><tspan x="0" y="0">What’s wrong </tspan><tspan x="0" y="49">with me?</tspan></text><text transform="translate(552 1545)" font-size="42" font-family="Roboto-Medium, Roboto" font-weight="500" letter-spacing="0.02em" opacity="0.7"><tspan x="0" y="0">I hate myself.</tspan></text><text transform="translate(101 1153)" font-size="42" font-family="Roboto-Medium, Roboto" font-weight="500" letter-spacing="0.02em" opacity="0.7"><tspan x="0" y="0">I feel so helpless.</tspan></text><g transform="translate(649.1 967.698)"><path d="M175.605,266.027l30.475-70.536a13.67,13.67,0,0,1,9.132-7.814l43-11.1-9.442-55.239a15.252,15.252,0,0,1,12.466-17.6L259.915,124.6c17.776-3.039,18.7,16.114,20.342,34.094l33.457,22.995s.631-.652-.52,5.06-2.83,9.2-5.621,11.942a13.026,13.026,0,0,1-10.551,3.65l-20.5-2.258-48,12.392-27.822,64.4a13.67,13.67,0,1,1-25.1-10.844Z" transform="translate(-156.16 -6.231)" fill="#607d62"/><g transform="matrix(-0.966, 0.259, -0.259, -0.966, 192.376, 196.027)"><path d="M77.253,39.018,33.117,0C28.13,2.508,26.3,6.544,23.3,10.44S11.127,39.03,11.127,39.03.075,73.849,0,87.007,12.081,109.34,18.781,111.5A28.255,28.255,0,0,0,56.4,95.775Z" transform="matrix(0.819, -0.574, 0.574, 0.819, 0, 44.311)" fill="#498753"/><ellipse cx="24.353" cy="24.353" rx="24.353" ry="24.353" transform="matrix(-1, -0.017, 0.017, -1, 140.796, 159.696)" fill="#faad93"/><g transform="translate(111.185 168.014)"><rect width="3.479" height="18.269" transform="translate(21.66 0) rotate(43)" fill="#e94b4c"/><rect width="3.479" height="18.269" transform="translate(26.562 9.217) rotate(43)" fill="#e94b4c"/><rect width="3.479" height="18.269" transform="translate(31.054 16.349) rotate(43)" fill="#e94b4c"/><path d="M0,1.376,3.185,0l.32,11.361H.026Z" transform="translate(11.069 12.608) rotate(77)" fill="#e94b4c"/><path d="M0,1.376,3.185,0l.32,11.361H.026Z" transform="translate(15.971 21.825) rotate(77)" fill="#e94b4c"/><path d="M0,1.376,3.185,0l.32,11.361H.026Z" transform="translate(20.463 28.957) rotate(77)" fill="#e94b4c"/></g></g><g transform="matrix(0.788, -0.616, 0.616, 0.788, 25.047, 120.989)" fill="#faad93"><path d="M 7.267590999603271 56.32242584228516 C 7.267133235931396 56.32242584228516 7.266909122467041 56.32242584228516 7.266451358795166 56.32242584228516 C 6.510141372680664 56.32208633422852 5.838281154632568 55.98293304443359 5.374631404876709 55.36746597290039 C 5.030304431915283 54.91037750244141 4.80881404876709 54.31541442871094 4.697526931762695 53.54860687255859 L -1.368378758430481 12.83636474609375 L -1.368838787078857 12.83328437805176 L -1.369288802146912 12.8301944732666 C -1.848868846893311 9.516894340515137 -1.009588837623596 6.215184688568115 0.9939411878585815 3.533254623413086 C 2.997541189193726 0.8512445688247681 5.925661087036133 -0.8898954391479492 9.238911628723145 -1.369425415992737 C 9.837780952453613 -1.456075429916382 10.4461612701416 -1.50000536441803 11.04722118377686 -1.50000536441803 C 14.03073120117188 -1.50000536441803 16.9266414642334 -0.4245754182338715 19.20149040222168 1.528164625167847 C 21.49783897399902 3.499360322952271 23.00216865539551 6.235637187957764 23.43778228759766 9.233041763305664 L 26.54549026489258 29.514404296875 L 26.62223052978516 30.0151538848877 L 26.37963104248047 30.45989418029785 C 26.34521102905273 30.52300453186035 22.89191055297852 36.84291458129883 18.97813034057617 43.07998275756836 C 16.66469192504883 46.7667236328125 14.63965129852295 49.71244430541992 12.95925140380859 51.8353157043457 C 10.46985149383545 54.98020553588867 8.767376899719238 56.32242584228516 7.267590999603271 56.32242584228516 Z" stroke="none"/><path d="M 11.04722118377686 -3.814697265625e-06 C 10.52124786376953 -3.814697265625e-05 9.989564895629883 0.0375823974609375 9.453761100769043 0.1151084899902344 C 3.423049926757813 0.9879417419433594 -0.7576828002929688 6.584552764892578 0.1152381896972656 12.61530685424805 L 6.181772232055664 53.33174133300781 C 6.331615447998047 54.36622619628906 6.712682723999023 54.82242584228516 7.267126083374023 54.82242584228516 C 11.38072395324707 54.82242584228516 25.06280517578125 29.74159622192383 25.06280517578125 29.74159622192383 L 21.95410537719727 9.453830718994141 C 21.15827178955078 3.958969116210938 16.43989562988281 0.000347137451171875 11.04722118377686 -3.814697265625e-06 M 11.04651641845703 -3 L 11.04651641845703 -3.814697265625e-06 L 11.0466947555542 -3 C 14.38910579681396 -2.999794006347656 17.63191604614258 -1.795825958251953 20.1784839630127 0.3900985717773438 C 22.74835205078125 2.596031188964844 24.43233871459961 5.657115936279297 24.92123985290527 9.010829925537109 L 28.02819442749023 29.28720855712891 L 28.18166160583496 30.28877449035645 L 27.6964168548584 31.17828559875488 C 27.55496215820313 31.43758583068848 24.18677139282227 37.60102081298828 20.24867248535156 43.87661743164063 C 17.90633964538574 47.6092643737793 15.84953880310059 50.59990692138672 14.13540554046631 52.76547241210938 C 11.29231643676758 56.35733032226563 9.302438735961914 57.82242965698242 7.267127990722656 57.82242965698242 C 6.046083450317383 57.82242965698242 4.919561386108398 57.25657653808594 4.176427841186523 56.26994323730469 C 3.677501678466797 55.60755920410156 3.362628936767578 54.78964996337891 3.213888168334961 53.76955032348633 L -2.852005004882813 13.05740737915039 L -2.852928161621094 13.05124282836914 L -2.853816986083984 13.04506301879883 C -3.39079475402832 9.335262298583984 -2.451072692871094 5.638420104980469 -0.2077617645263672 2.635528564453125 C 2.035650253295898 -0.36749267578125 5.314239501953125 -2.317024230957031 9.024039268493652 -2.853958129882813 C 9.693882942199707 -2.95086669921875 10.37429428100586 -3 11.04651641845703 -3 Z" stroke="none" fill="#fff9f9"/></g><path d="M26.274,73.514,61.489,41.82a11.033,11.033,0,0,0-14.762-16.4L26.855,43.3l-4.9-33.85A11.033,11.033,0,1,0,.115,12.615L7.973,66.894A11.041,11.041,0,0,0,26.274,73.514Z" transform="matrix(0.788, -0.616, 0.616, 0.788, 25.046, 120.99)" fill="#faad93"/><path d="M0,18.973,15.885,3.193A10.545,10.545,0,0,1,31.8,4.118a13.362,13.362,0,0,1-.837,17.568L14.846,37.7Z" transform="matrix(0.788, -0.616, 0.616, 0.788, 62.122, 114.79)" fill="#498753"/><path d="M27.414,264.592H109.02l15.592-73.449a22.531,22.531,0,0,1,44.08,9.357L135.967,352.435a14.917,14.917,0,0,1-14.578,11.824H12.244A12.259,12.259,0,0,1,0,352V292.008a27.414,27.414,0,0,1,27.415-27.416Z" transform="translate(60.691 -97.433)" fill="#ccd6dc"/></g><g transform="translate(112.107 638.036)"><g transform="translate(-0.107 17.964)" fill="#ecfcff" stroke="#b8d6e3" stroke-width="12"><rect width="138" height="136" stroke="none"/><rect x="6" y="6" width="126" height="124" fill="none"/></g><g transform="translate(10.01 24.599)" clip-path="url(#e)"><g transform="translate(5.185 14.679)"><g transform="translate(0 0)"><g transform="translate(0 0)"><path d="M323.247,65.972H279.994l-20.492-2.4,11.032-13.253a9.358,9.358,0,0,0-14.386-11.974L234.066,64.877a9.365,9.365,0,0,0,6.106,15.282L273.4,84.044v41.018h49.568V84.688h.283C325.214,84.688,323.247,65.972,323.247,65.972Z" transform="translate(-231.894 -18.724)" fill="#ffb69e"/><path d="M232.768,65.972h43.253l20.492-2.4L285.482,50.322a9.358,9.358,0,0,1,14.386-11.974l22.082,26.528a9.365,9.365,0,0,1-6.106,15.282L282.62,84.044v41.018H233.052V84.688h-.283C230.8,84.688,232.768,65.972,232.768,65.972Z" transform="translate(-192.132 -18.724)" fill="#ffb69e"/><ellipse cx="19.395" cy="19.395" rx="19.395" ry="19.395" transform="translate(46.919)" fill="#ffb69e"/></g><path d="M17.316,62.818,17.6,21.112h-.283c-.25,0-.437-.3-.572-.831L0,18.274,4.287,0,24.77,2.4h9.415a8.865,8.865,0,0,0,8.466,8.7,8.861,8.861,0,0,0,8.514-8.7h9.4L81.061,0l4.287,18.273L68.6,20.281c-.135.529-.322.832-.572.832h-.283V61.148h-.582v1.671Z" transform="translate(23.32 44.852)" fill="#97749c"/></g></g></g><g transform="translate(103.019 43.035)"><g transform="translate(0 0)"><g transform="translate(0 0)"><path d="M368.126,81.2h-64.5l-30.56-3.574,16.451-19.764a13.956,13.956,0,0,0-21.453-17.856l-32.93,39.561a13.966,13.966,0,0,0,9.106,22.789l49.544,5.793v61.169H367.7V109.11h.422C371.059,109.11,368.126,81.2,368.126,81.2Z" transform="translate(-231.894 -14.846)" fill="#f9a68b"/><path d="M233.2,81.2h64.5l30.56-3.574L311.808,57.861a13.956,13.956,0,0,1,21.453-17.856l32.93,39.561a13.965,13.965,0,0,1-9.106,22.789l-49.544,5.793v61.169H233.62V109.109H233.2C230.265,109.109,233.2,81.2,233.2,81.2Z" transform="translate(-172.598 -14.846)" fill="#f9a68b"/><ellipse cx="28.924" cy="28.923" rx="28.924" ry="28.923" transform="translate(69.968)" fill="#f9a68b"/></g><path d="M27.113,91.187v-.773h-.868V31.484h-.421c-.373,0-.651-.451-.852-1.239L0,27.251,6.394,0,36.943,3.574H76.3v0H90.324L120.884,0l6.394,27.25-24.97,2.994c-.2.789-.48,1.241-.853,1.241h-.422v59.7Z" transform="translate(34.776 62.779)" fill="#97749c"/></g></g><g transform="matrix(0.985, 0.174, -0.174, 0.985, 218.376, 0)"><path d="M0,32.068C10.826,13.326,4.442,8.241,0,0" transform="translate(28.727 0)" fill="none" stroke="#d54c5a" stroke-linecap="round" stroke-width="3"/><path d="M0,32.068C10.826,13.326,4.442,8.241,0,0" transform="translate(14.368 0)" fill="none" stroke="#d54c5a" stroke-linecap="round" stroke-width="3"/><path d="M0,32.068C10.826,13.326,4.442,8.241,0,0" transform="translate(0 0)" fill="none" stroke="#d54c5a" stroke-linecap="round" stroke-width="3"/></g></g><g transform="translate(-1606.721 -3634.572)"><g transform="translate(1707.721 5102.88)" clip-path="url(#f)"><g transform="translate(15.246 11.691)"><g transform="translate(0 0)"><path d="M358.337,77.878H298.47l-28.364-3.317,15.269-18.344a12.953,12.953,0,0,0-19.912-16.573L234.9,76.363a12.962,12.962,0,0,0,8.451,21.152l45.984,5.377v99.115h68.608V103.783h.392C361.059,103.783,358.337,77.878,358.337,77.878Z" transform="translate(-231.894 -12.481)" fill="#ffb69e"/><path d="M233.1,77.878h59.867l28.364-3.317L306.065,56.217a12.953,12.953,0,0,1,19.912-16.573L356.54,76.362a12.962,12.962,0,0,1-8.452,21.152L302.1,102.891v99.115H233.5V103.782H233.1C230.382,103.782,233.1,77.878,233.1,77.878Z" transform="translate(-176.859 -12.481)" fill="#ffb69e"/><ellipse cx="26.845" cy="26.845" rx="26.845" ry="26.845" transform="translate(64.941)" fill="#ffb69e"/></g><path d="M25.165,127.447h-.806V29.222h-.392c-.346,0-.6-.419-.791-1.149L0,25.293,5.934,0,34.285,3.317H46.729v0h.586v0c.288,6.42,5.133,11.866,11.72,12.04,6.619-.14,11.5-5.6,11.783-12.041v0H83.834L112.2,0l5.934,25.292L94.956,28.071c-.187.732-.445,1.152-.792,1.152h-.392v98.224Z" transform="translate(32.277 62.08)" fill="#54637e"/></g></g><path d="M0,19.756l8.136,2.26L12.73,0,15.6,35.931,8.136,32.96,4.6,55.876Z" transform="translate(1874.062 5120.868) rotate(-139)" fill="#d86565"/><path d="M0,19.756l8.136,2.26L12.73,0,15.6,35.931,8.136,32.96,4.607,55.876Z" transform="translate(1850.974 5113.729) rotate(-164)" fill="#d86565"/><g transform="translate(1729.364 5055.716)"><g transform="matrix(-0.966, 0.259, -0.259, -0.966, 80, 40.786)"><path d="M0,0,2.851,19.281" transform="translate(12.576 0.942)" fill="none" stroke="#d86565" stroke-width="2"/><path d="M0,0,5.374,17.918" transform="translate(17.22 0)" fill="none" stroke="#d86565" stroke-width="2"/><path d="M0,2.221C7.295-5.33,23.933,7.852,8.959,19.627c-1.536.256-3.712-3.584-3.712-3.584" transform="matrix(0.985, -0.174, 0.174, 0.985, 20.933, 11.464)" fill="none" stroke="#d86565" stroke-width="2"/><path d="M15.009,2.221C7.715-5.33-8.924,7.852,6.051,19.627c1.536.256,3.712-3.584,3.712-3.584" transform="matrix(0.875, -0.485, 0.485, 0.875, 0, 20.224)" fill="none" stroke="#d86565" stroke-width="2"/><path d="M11.867,0c2.218.507,14.042,10.691-1.414,15.375-11.418,2.859-11.821-5.5-8.972-13.6" transform="translate(15.43 26.277)" fill="none" stroke="#d86565" stroke-width="2"/></g><g transform="translate(52.326 56.872) rotate(138)"><path d="M0,0,2.6,17.6" transform="translate(11.48 0.859)" fill="none" stroke="#d86565" stroke-width="2"/><path d="M0,0,4.906,16.354" transform="translate(15.717 0)" fill="none" stroke="#d86565" stroke-width="2"/><path d="M0,2.027c6.659-6.892,21.844,5.14,8.176,15.886-1.4.234-3.387-3.271-3.387-3.271" transform="matrix(0.985, -0.174, 0.174, 0.985, 19.108, 10.462)" fill="none" stroke="#d86565" stroke-width="2"/><path d="M13.7,2.027C7.041-4.865-8.144,7.167,5.523,17.913c1.4.234,3.387-3.271,3.387-3.271" transform="matrix(0.875, -0.485, 0.485, 0.875, 0, 18.459)" fill="none" stroke="#d86565" stroke-width="2"/><path d="M10.834,0c2.024.464,12.815,9.76-1.289,14.034C-.882,16.643-1.248,9.011,1.354,1.626" transform="translate(14.082 23.981)" fill="none" stroke="#d86565" stroke-width="2"/></g></g></g><text transform="translate(46)" fill="#a72121" font-size="60" font-family="Roboto-Bold, Roboto" font-weight="700"><tspan x="0" y="0">Do these thoughts look familiar </tspan><tspan x="0" y="72">to you?</tspan></text></g><g transform="translate(707.07 1464.597)"><g transform="translate(0 0)"><g transform="translate(180.542)"><g transform="translate(0)"><path d="M26.843,0A26.843,26.843,0,1,0,53.685,26.843,26.828,26.828,0,0,0,26.843,0Zm0,49.491A22.649,22.649,0,1,1,49.491,26.843,22.636,22.636,0,0,1,26.843,49.491Z" transform="translate(0)" fill="#6e6e6e"/><text transform="translate(16.388 37.403)" fill="#6e6e6e" font-size="35" font-family="GoogleSans-Bold, Google Sans" font-weight="700" letter-spacing="-0.006em"><tspan x="0" y="0">?</tspan></text></g><g transform="translate(35.168 137.925)"><path d="M29.923,0A29.923,29.923,0,1,0,59.847,29.923,29.906,29.906,0,0,0,29.923,0Zm0,55.171A25.248,25.248,0,1,1,55.171,29.923,25.234,25.234,0,0,1,29.923,55.171Z" fill="#6e6e6e"/><g transform="translate(19.001 19.001)"><path d="M183.716,180.41l-6.932-6.932,6.932-6.932a2.338,2.338,0,1,0-3.306-3.306l-6.932,6.932-6.932-6.932a2.338,2.338,0,1,0-3.306,3.306l6.932,6.932-6.932,6.932a2.338,2.338,0,1,0,3.306,3.306l6.932-6.932,6.932,6.932a2.338,2.338,0,1,0,3.306-3.306Z" transform="translate(-162.555 -162.556)" fill="#6e6e6e"/></g></g></g><g transform="translate(0 145.08)"><path d="M24.437,0A24.437,24.437,0,1,0,48.875,24.437,24.424,24.424,0,0,0,24.437,0Zm0,45.057A20.619,20.619,0,1,1,45.057,24.437,20.608,20.608,0,0,1,24.437,45.057Z" transform="translate(0 0)" fill="#6e6e6e"/><text transform="translate(20.93 34.323)" fill="#6e6e6e" font-size="33" font-family="GoogleSans-Bold, Google Sans" font-weight="700" letter-spacing="-0.006em"><tspan x="0" y="0">!</tspan></text></g><g transform="translate(48.875 53.974)"><g transform="translate(0 0)"><path d="M404.32,164.364h0V142.418c-.082-16.132-13.478-29.257-29.863-29.257h-57.43l-27.21-3.181,14.648-17.6a12.426,12.426,0,0,0-19.1-15.9l-29.319,35.225A12.435,12.435,0,0,0,264.151,132l44.113,5.158v35.69h65.816V138.013h.376c2.612,0,5,2.16,5.012,4.468v31.894H404.32Z" transform="translate(-253.16 -50.426)" fill="#ffb69e"/><ellipse cx="25.753" cy="25.753" rx="25.753" ry="25.753" transform="translate(62.291)" fill="#ffb69e"/></g><path d="M419.643,183.157V161.211c-.082-16.132-13.478-29.257-29.863-29.257H367.944v0c.28,6.24-5.511,11.555-11.554,11.555-6.478,0-11.274-5.295-11.555-11.555H332.348l-27.21-3.181-5.693,24.263,24.141,2.895v37.953H389.4V156.805h.376c2.612,0,5,2.16,5.012,4.468v21.884Z" transform="translate(-268.483 -69.22)" fill="#48797d"/></g><g transform="translate(17.481 4.564)"><g transform="translate(0)"><path d="M24.765,0A24.765,24.765,0,1,0,49.53,24.765,24.751,24.751,0,0,0,24.765,0Zm0,45.661a20.9,20.9,0,1,1,20.9-20.9A20.884,20.884,0,0,1,24.765,45.661Z" transform="translate(0)" fill="#6e6e6e"/></g><g transform="translate(15.725 15.725)"><path d="M180.068,177.332l-5.737-5.737,5.737-5.737a1.935,1.935,0,1,0-2.736-2.736l-5.737,5.737-5.737-5.737a1.935,1.935,0,1,0-2.736,2.736l5.737,5.737-5.737,5.737a1.935,1.935,0,1,0,2.736,2.736l5.737-5.737,5.737,5.737a1.935,1.935,0,1,0,2.736-2.736Z" transform="translate(-162.555 -162.556)" fill="#6e6e6e"/></g></g></g></g></g></svg>