<svg xmlns="http://www.w3.org/2000/svg" xmlns:xlink="http://www.w3.org/1999/xlink" width="1000" height="1273" viewBox="0 0 1000 1273">
  <defs>
    <filter id="Polygon_18" x="151.935" y="390.04" width="155.812" height="178.665" filterUnits="userSpaceOnUse">
      <feOffset dy="1" input="SourceAlpha"/>
      <feGaussianBlur stdDeviation="1" result="blur"/>
      <feFlood flood-opacity="0.161"/>
      <feComposite operator="in" in2="blur"/>
      <feComposite in="SourceGraphic"/>
    </filter>
    <filter id="Polygon_21" x="692.94" y="390.04" width="155.812" height="178.665" filterUnits="userSpaceOnUse">
      <feOffset dy="1" input="SourceAlpha"/>
      <feGaussianBlur stdDeviation="1" result="blur-2"/>
      <feFlood flood-opacity="0.161"/>
      <feComposite operator="in" in2="blur-2"/>
      <feComposite in="SourceGraphic"/>
    </filter>
    <filter id="Polygon_20" x="112.656" y="673.305" width="155.812" height="178.665" filterUnits="userSpaceOnUse">
      <feOffset dy="1" input="SourceAlpha"/>
      <feGaussianBlur stdDeviation="1" result="blur-3"/>
      <feFlood flood-opacity="0.161"/>
      <feComposite operator="in" in2="blur-3"/>
      <feComposite in="SourceGraphic"/>
    </filter>
    <filter id="Polygon_23" x="112.656" y="953.453" width="155.812" height="178.665" filterUnits="userSpaceOnUse">
      <feOffset dy="1" input="SourceAlpha"/>
      <feGaussianBlur stdDeviation="1" result="blur-4"/>
      <feFlood flood-opacity="0.161"/>
      <feComposite operator="in" in2="blur-4"/>
      <feComposite in="SourceGraphic"/>
    </filter>
    <filter id="Polygon_22" x="732.219" y="696.305" width="155.813" height="178.665" filterUnits="userSpaceOnUse">
      <feOffset dy="1" input="SourceAlpha"/>
      <feGaussianBlur stdDeviation="1" result="blur-5"/>
      <feFlood flood-opacity="0.161"/>
      <feComposite operator="in" in2="blur-5"/>
      <feComposite in="SourceGraphic"/>
    </filter>
    <filter id="Polygon_24" x="732.219" y="953.453" width="155.813" height="178.665" filterUnits="userSpaceOnUse">
      <feOffset dy="1" input="SourceAlpha"/>
      <feGaussianBlur stdDeviation="1" result="blur-6"/>
      <feFlood flood-opacity="0.161"/>
      <feComposite operator="in" in2="blur-6"/>
      <feComposite in="SourceGraphic"/>
    </filter>
    <filter id="Polygon_19" x="422.438" y="296.159" width="155.812" height="178.665" filterUnits="userSpaceOnUse">
      <feOffset dy="1" input="SourceAlpha"/>
      <feGaussianBlur stdDeviation="1" result="blur-7"/>
      <feFlood flood-opacity="0.161"/>
      <feComposite operator="in" in2="blur-7"/>
      <feComposite in="SourceGraphic"/>
    </filter>
    <clipPath id="clip-path">
      <rect id="Rectangle_4287" data-name="Rectangle 4287" width="112" height="94" transform="translate(-0.459 -0.079)" fill="#fff" stroke="#707070" stroke-width="1"/>
    </clipPath>
  </defs>
  <g id="What_does_an_average_person_do_all_day_" data-name="What does an average person do all day?" transform="translate(-105 -391)">
    <g id="Group_13226" data-name="Group 13226">
      <g id="Activity_a_normal_person_do" data-name="Activity a normal person do">
        <g id="What_does_an_average_person_do_all_day_2" data-name="What does an average person do all day?" transform="translate(105 645)">
          <g id="Rectangle_2987" data-name="Rectangle 2987" transform="translate(0 -254)" fill="#dcf8f9" stroke="#b9d5d6" stroke-width="1">
            <rect width="1000" height="1273" rx="4" stroke="none"/>
            <rect x="0.5" y="0.5" width="999" height="1272" rx="3.5" fill="none"/>
          </g>
          <g id="Group_9813" data-name="Group 9813" transform="translate(115.119 44.159)">
            <g transform="matrix(1, 0, 0, 1, -115.12, -298.16)" filter="url(#Polygon_18)">
              <path id="Polygon_18-2" data-name="Polygon 18" d="M121.986,0A13,13,0,0,1,133.25,6.509l35.675,61.906a13,13,0,0,1,0,12.982L133.25,143.3a13,13,0,0,1-11.264,6.509H50.679A13,13,0,0,1,39.415,143.3L3.741,81.4a13,13,0,0,1,0-12.982L39.415,6.509A13,13,0,0,1,50.679,0Z" transform="translate(304.75 392.04) rotate(90)" fill="#f1feff"/>
            </g>
            <g transform="matrix(1, 0, 0, 1, -115.12, -298.16)" filter="url(#Polygon_21)">
              <path id="Polygon_21-2" data-name="Polygon 21" d="M124.876,0a8,8,0,0,1,6.931,4.006l38.556,66.906a8,8,0,0,1,0,7.989l-38.556,66.906a8,8,0,0,1-6.931,4.006H47.789a8,8,0,0,1-6.931-4.006L2.3,78.9a8,8,0,0,1,0-7.989L40.858,4.006A8,8,0,0,1,47.789,0Z" transform="translate(695.94 564.71) rotate(-90)" fill="#f1feff"/>
            </g>
            <g transform="matrix(1, 0, 0, 1, -115.12, -298.16)" filter="url(#Polygon_20)">
              <path id="Polygon_20-2" data-name="Polygon 20" d="M121.986,0A13,13,0,0,1,133.25,6.509l35.675,61.906a13,13,0,0,1,0,12.982L133.25,143.3a13,13,0,0,1-11.264,6.509H50.679A13,13,0,0,1,39.415,143.3L3.741,81.4a13,13,0,0,1,0-12.982L39.415,6.509A13,13,0,0,1,50.679,0Z" transform="translate(265.47 675.31) rotate(90)" fill="#f1feff"/>
            </g>
            <g transform="matrix(1, 0, 0, 1, -115.12, -298.16)" filter="url(#Polygon_23)">
              <path id="Polygon_23-2" data-name="Polygon 23" d="M121.986,0A13,13,0,0,1,133.25,6.509l35.675,61.906a13,13,0,0,1,0,12.982L133.25,143.3a13,13,0,0,1-11.264,6.509H50.679A13,13,0,0,1,39.415,143.3L3.741,81.4a13,13,0,0,1,0-12.982L39.415,6.509A13,13,0,0,1,50.679,0Z" transform="translate(265.47 955.45) rotate(90)" fill="#f1feff"/>
            </g>
            <g transform="matrix(1, 0, 0, 1, -115.12, -298.16)" filter="url(#Polygon_22)">
              <path id="Polygon_22-2" data-name="Polygon 22" d="M121.986,0A13,13,0,0,1,133.25,6.509l35.675,61.906a13,13,0,0,1,0,12.982L133.25,143.3a13,13,0,0,1-11.264,6.509H50.679A13,13,0,0,1,39.415,143.3L3.741,81.4a13,13,0,0,1,0-12.982L39.415,6.509A13,13,0,0,1,50.679,0Z" transform="translate(735.22 870.97) rotate(-90)" fill="#f1feff"/>
            </g>
            <g transform="matrix(1, 0, 0, 1, -115.12, -298.16)" filter="url(#Polygon_24)">
              <path id="Polygon_24-2" data-name="Polygon 24" d="M121.986,0A13,13,0,0,1,133.25,6.509l35.675,61.906a13,13,0,0,1,0,12.982L133.25,143.3a13,13,0,0,1-11.264,6.509H50.679A13,13,0,0,1,39.415,143.3L3.741,81.4a13,13,0,0,1,0-12.982L39.415,6.509A13,13,0,0,1,50.679,0Z" transform="translate(735.22 1128.12) rotate(-90)" fill="#f1feff"/>
            </g>
            <g transform="matrix(1, 0, 0, 1, -115.12, -298.16)" filter="url(#Polygon_19)">
              <path id="Polygon_19-2" data-name="Polygon 19" d="M121.986,0A13,13,0,0,1,133.25,6.509l35.675,61.906a13,13,0,0,1,0,12.982L133.25,143.3a13,13,0,0,1-11.264,6.509H50.679A13,13,0,0,1,39.415,143.3L3.741,81.4a13,13,0,0,1,0-12.982L39.415,6.509A13,13,0,0,1,50.679,0Z" transform="translate(575.25 298.16) rotate(90)" fill="#f1feff"/>
            </g>
            <g id="alarm-clock_3_" data-name="alarm-clock (3)" transform="translate(296.168 297.778)" opacity="0.6">
              <g id="Group_9783" data-name="Group 9783" transform="translate(20.119 160.958)">
                <path id="Path_8080" data-name="Path 8080" d="M28.73,52.414,12.768,68.377a4.058,4.058,0,1,0,5.739,5.739L34.469,58.153a4.058,4.058,0,1,0-5.739-5.739Z" transform="translate(-11.578 -51.102)" fill="#424a60"/>
                <path id="Path_8081" data-name="Path 8081" d="M62.628,68.469,46.544,52.384A4.058,4.058,0,0,0,40.8,58.123L56.889,74.208a4.058,4.058,0,0,0,5.739-5.739Z" transform="translate(74.175 -51.194)" fill="#424a60"/>
              </g>
              <path id="Path_8082" data-name="Path 8082" d="M155.879,30.483c.082-.069.182-.1.26-.171-.173-.1-5.337-4.357-4.847-4.847a3.379,3.379,0,0,0-.236.356,89.071,89.071,0,0,0-118.718,0c-.089-.113.106.106,0,0-1.019,1.019-4.331,4.662-4.823,4.662.075.075-.082-.069,0,0a89.123,89.123,0,1,0,128.363,0Z" transform="translate(-2.579 -3.157)" fill="#424a60"/>
              <ellipse id="Ellipse_4070" data-name="Ellipse 4070" cx="75.409" cy="75.409" rx="75.409" ry="75.409" transform="translate(13.707 13.711)" fill="#e7eced"/>
              <ellipse id="Ellipse_4071" data-name="Ellipse 4071" cx="51.415" cy="51.415" rx="51.415" ry="51.415" transform="translate(37.701 37.705)" fill="#fff"/>
              <g id="Group_9784" data-name="Group 9784" transform="translate(10.28 10.283)">
                <path id="Path_8083" data-name="Path 8083" d="M31.006,6.157a3.427,3.427,0,0,0-3.428,3.428V16.44a3.428,3.428,0,1,0,6.855,0V9.585A3.425,3.425,0,0,0,31.006,6.157Z" transform="translate(47.831 -6.157)" fill="#fff"/>
                <path id="Path_8084" data-name="Path 8084" d="M31.006,48.157a3.427,3.427,0,0,0-3.428,3.428V58.44a3.428,3.428,0,0,0,6.855,0V51.585A3.425,3.425,0,0,0,31.006,48.157Z" transform="translate(47.831 95.806)" fill="#fff"/>
                <path id="Path_8085" data-name="Path 8085" d="M57.861,28.157H51.006a3.428,3.428,0,1,0,0,6.855h6.855a3.428,3.428,0,0,0,0-6.855Z" transform="translate(96.385 47.252)" fill="#fff"/>
                <path id="Path_8086" data-name="Path 8086" d="M19.289,31.585a3.427,3.427,0,0,0-3.428-3.428H9.006a3.428,3.428,0,0,0,0,6.855h6.855A3.427,3.427,0,0,0,19.289,31.585Z" transform="translate(-5.578 47.252)" fill="#fff"/>
                <path id="Path_8087" data-name="Path 8087" d="M22.975,10.82a3.428,3.428,0,1,0-5.937,3.428l3.428,5.937A3.428,3.428,0,1,0,26.4,16.757Z" transform="translate(21.129 0.995)" fill="#fff"/>
                <path id="Path_8088" data-name="Path 8088" d="M43.975,47.192a3.428,3.428,0,0,0-5.937,3.428l3.428,5.937A3.428,3.428,0,1,0,47.4,53.129Z" transform="translate(72.11 89.299)" fill="#fff"/>
                <path id="Path_8089" data-name="Path 8089" d="M19.6,21.043l-5.937-3.428a3.428,3.428,0,0,0-3.428,5.937l5.937,3.428A3.428,3.428,0,0,0,19.6,21.043Z" transform="translate(1.579 20.546)" fill="#fff"/>
                <path id="Path_8090" data-name="Path 8090" d="M55.977,42.045l-5.937-3.428a3.428,3.428,0,1,0-3.428,5.937l5.937,3.428a3.428,3.428,0,0,0,3.428-5.937Z" transform="translate(89.881 71.525)" fill="#fff"/>
                <path id="Path_8091" data-name="Path 8091" d="M16.177,38.617,10.24,42.045a3.428,3.428,0,1,0,3.428,5.937L19.6,44.554a3.428,3.428,0,0,0-3.428-5.937Z" transform="translate(1.579 71.525)" fill="#fff"/>
                <path id="Path_8092" data-name="Path 8092" d="M48.33,27.441a3.419,3.419,0,0,0,1.71-.459l5.937-3.428a3.428,3.428,0,0,0-3.428-5.937l-5.937,3.428a3.428,3.428,0,0,0,1.717,6.4Z" transform="translate(89.881 20.546)" fill="#fff"/>
                <path id="Path_8093" data-name="Path 8093" d="M25.147,45.936a3.43,3.43,0,0,0-4.682,1.255l-3.428,5.937a3.428,3.428,0,1,0,5.937,3.428L26.4,50.618A3.428,3.428,0,0,0,25.147,45.936Z" transform="translate(21.127 89.3)" fill="#fff"/>
                <path id="Path_8094" data-name="Path 8094" d="M46.147,9.564a3.427,3.427,0,0,0-4.682,1.255l-3.428,5.937a3.428,3.428,0,1,0,5.937,3.428L47.4,14.246A3.428,3.428,0,0,0,46.147,9.564Z" transform="translate(72.108 0.997)" fill="#fff"/>
              </g>
              <path id="Path_8095" data-name="Path 8095" d="M75.993,62.145H51.513a13.693,13.693,0,0,0-9.8-9.8V17.585a3.428,3.428,0,1,0-6.855,0V52.348A13.682,13.682,0,1,0,51.513,69H75.993a3.428,3.428,0,0,0,0-6.855Zm-37.7,10.283a6.855,6.855,0,1,1,6.855-6.855A6.862,6.862,0,0,1,38.289,72.428Z" transform="translate(50.828 23.548)" fill="#424a60"/>
            </g>
            <g id="contrast" transform="translate(8.45 689.412)">
              <ellipse id="Ellipse_4072" data-name="Ellipse 4072" cx="11.139" cy="11.139" rx="11.139" ry="11.139" transform="translate(8.233 8.233)" fill="#fcd462"/>
              <g id="Group_9785" data-name="Group 9785">
                <path id="Path_8109" data-name="Path 8109" d="M200.245,118.664a18.181,18.181,0,0,1,.872,4.891c.291,6.732-4.262,12.689-10.17,15.3a11.138,11.138,0,0,0,9.3-20.2Z" transform="translate(-175.594 -109.123)" fill="#f6c358"/>
                <path id="Path_8110" data-name="Path 8110" d="M222.108,0a1.633,1.633,0,0,0-1.647,1.647V4.359a1.647,1.647,0,1,0,3.293,0V1.647A1.633,1.633,0,0,0,222.108,0Z" transform="translate(-202.736)" fill="#f6c358"/>
                <path id="Path_8111" data-name="Path 8111" d="M222.108,407.191a1.633,1.633,0,0,0-1.647,1.647v2.712a1.647,1.647,0,0,0,3.293,0v-2.712A1.633,1.633,0,0,0,222.108,407.191Z" transform="translate(-202.736 -374.452)" fill="#f6c358"/>
                <path id="Path_8112" data-name="Path 8112" d="M413.2,222.108a1.633,1.633,0,0,0-1.647-1.647h-2.712a1.647,1.647,0,0,0,0,3.293h2.712A1.633,1.633,0,0,0,413.2,222.108Z" transform="translate(-374.452 -202.736)" fill="#f6c358"/>
                <path id="Path_8113" data-name="Path 8113" d="M6.005,222.108a1.633,1.633,0,0,0-1.647-1.647H1.647a1.647,1.647,0,1,0,0,3.293H4.359A1.633,1.633,0,0,0,6.005,222.108Z" transform="translate(0 -202.736)" fill="#f6c358"/>
                <path id="Path_8114" data-name="Path 8114" d="M357.261,65.074a1.666,1.666,0,0,0-2.325,0L353,67.011a1.644,1.644,0,0,0,2.325,2.325l1.937-1.937A1.667,1.667,0,0,0,357.261,65.074Z" transform="translate(-324.183 -59.408)" fill="#f6c358"/>
                <path id="Path_8115" data-name="Path 8115" d="M69.336,353a1.667,1.667,0,0,0-2.325,0l-1.937,1.937a1.644,1.644,0,0,0,2.325,2.325l1.937-1.937A1.666,1.666,0,0,0,69.336,353Z" transform="translate(-59.408 -324.183)" fill="#f6c358"/>
                <path id="Path_8116" data-name="Path 8116" d="M357.261,357.261a1.667,1.667,0,0,0,0-2.325L355.324,353A1.644,1.644,0,0,0,353,355.324l1.937,1.937A1.667,1.667,0,0,0,357.261,357.261Z" transform="translate(-324.183 -324.183)" fill="#f6c358"/>
                <path id="Path_8117" data-name="Path 8117" d="M69.336,69.336a1.667,1.667,0,0,0,0-2.325L67.4,65.074A1.644,1.644,0,0,0,65.074,67.4l1.937,1.937A1.666,1.666,0,0,0,69.336,69.336Z" transform="translate(-59.408 -59.408)" fill="#f6c358"/>
              </g>
            </g>
            <text id="Eats" transform="translate(42.881 585.841)" font-size="32" font-family="Roboto-Medium, Roboto" font-weight="500" opacity="0.7"><tspan x="0" y="0">Eats</tspan></text>
            <text id="Wake_up" data-name="Wake up" transform="translate(-0.119 870.841)" font-size="32" font-family="Roboto-Medium, Roboto" font-weight="500" opacity="0.7"><tspan x="0" y="0">Wake up</tspan></text>
            <text id="Watches_TV" data-name="Watches TV" transform="translate(27.881 305.841)" font-size="32" font-family="Roboto-Medium, Roboto" font-weight="500" opacity="0.7"><tspan x="0" y="0">Watches TV</tspan></text>
            <text id="Works" transform="translate(339.881 211.841)" font-size="32" font-family="Roboto-Medium, Roboto" font-weight="500" opacity="0.7"><tspan x="0" y="0">Works</tspan></text>
            <text id="Hangs_out_with_friends" data-name="Hangs out 
with friends" transform="translate(655.881 303.841)" font-size="32" font-family="Roboto-Medium, Roboto" font-weight="500" opacity="0.7"><tspan x="-77.539" y="0">Hangs out </tspan><tspan x="-84.32" y="37">with friends</tspan></text>
            <text id="Plays" transform="translate(649.881 615.841)" font-size="32" font-family="Roboto-Medium, Roboto" font-weight="500" opacity="0.7"><tspan x="0" y="0">Plays</tspan></text>
            <text id="Sleeps" transform="translate(647.881 866.841)" font-size="32" font-family="Roboto-Medium, Roboto" font-weight="500" opacity="0.7"><tspan x="0" y="0">Sleeps</tspan></text>
            <g id="tea" transform="translate(75.994 434.253)">
              <g id="Group_9804" data-name="Group 9804" transform="translate(0 0)">
                <g id="Group_9803" data-name="Group 9803" transform="translate(9.4 0)">
                  <path id="Path_8169" data-name="Path 8169" d="M89.937,93.364h31.625V85.832H89.937v7.532Z" transform="translate(-89.937 -85.832)" fill="#d2d2d2"/>
                  <rect id="Rectangle_2982" data-name="Rectangle 2982" width="16.827" height="7.532" transform="translate(31.625 0.001)" fill="#d2d2d2"/>
                </g>
                <path id="Path_8170" data-name="Path 8170" d="M121.562,149.886H89.937a24.226,24.226,0,0,0,48.452,0Zm-2.492,13.979a1.43,1.43,0,0,1-1.425-1.427v-6.885a1.43,1.43,0,0,1,1.425-1.427h4.984a1.43,1.43,0,0,1,1.425,1.427v6.885a1.431,1.431,0,0,1-1.425,1.427Z" transform="translate(-80.537 -142.354)" fill="#ffc875"/>
                <path id="Path_8171" data-name="Path 8171" d="M325.573,187.363v6.885A1.43,1.43,0,0,0,327,195.676h4.984a1.43,1.43,0,0,0,1.425-1.427v-6.885a1.43,1.43,0,0,0-1.425-1.427H327A1.43,1.43,0,0,0,325.573,187.363Z" transform="translate(-288.465 -174.165)" fill="#ff7e40"/>
                <path id="Path_8172" data-name="Path 8172" d="M183.867,339.868a24.2,24.2,0,0,1-9.813-2.064h-2.837a2.3,2.3,0,0,0-2.287,2.291v1.458a2.3,2.3,0,0,0,2.287,2.291h24.746a2.3,2.3,0,0,0,2.287-2.291V340.1a2.3,2.3,0,0,0-2.287-2.291H193.68A24.2,24.2,0,0,1,183.867,339.868Z" transform="translate(-150.24 -308.176)" fill="#d2d2d2"/>
                <path id="Path_8173" data-name="Path 8173" d="M119.132,389.172H83.823a1.97,1.97,0,0,0-1.962,1.965v.42a1.97,1.97,0,0,0,1.962,1.966H129.3a1.97,1.97,0,0,0,1.962-1.966v-.42a1.969,1.969,0,0,0-1.962-1.965Z" transform="translate(-73.411 -353.504)" fill="#a9bbdb"/>
                <path id="Path_8174" data-name="Path 8174" d="M20.749,120.459l1.772,3.9c-12.578,6.178-19-16.879-3.126-16.864v4.318C11.382,110.711,13.92,123.749,20.749,120.459Z" transform="translate(-9.996 -104.946)" fill="#d2d2d2"/>
              </g>
              <path id="Path_8176" data-name="Path 8176" d="M135.836,181.048a1.177,1.177,0,0,0-2.314.433c.775,4.145,3.65,7.631,5.925,9.825a1.177,1.177,0,0,0,1.634-1.694C138.215,186.847,136.352,183.805,135.836,181.048Z" transform="translate(-118.979 -169.004)" fill="#ffe4bc"/>
              <path id="Path_8177" data-name="Path 8177" d="M206.279,279.057l-.041-.028a1.177,1.177,0,0,0-1.33,1.942l.046.032a1.177,1.177,0,1,0,1.325-1.946Z" transform="translate(-181.536 -256.13)" fill="#ffe4bc"/>
            </g>
            <g id="Group_9801" data-name="Group 9801" transform="translate(26.381 474.39)">
              <path id="Path_8161" data-name="Path 8161" d="M63.022,330.988c0,45.257,66.014,45.225,66.014,0H63.022Z" transform="translate(-63.022 -330.988)" fill="#a9bbdb"/>
            </g>
            <path id="Path_8168" data-name="Path 8168" d="M134.588,264.45h46.966a6.838,6.838,0,0,0-9.613-9.675,9.838,9.838,0,0,0-17.3-3.81,6.841,6.841,0,0,0-9.557,5.77C139.914,253.257,133.18,257.655,134.588,264.45Z" transform="translate(-93.331 211.125)" fill="#ff984a"/>
            <g id="Group_9802" data-name="Group 9802" transform="translate(15.474 444.719)">
              <path id="Path_8163" data-name="Path 8163" d="M30.285,210.7,19.831,180.808a2.051,2.051,0,0,0-2.755-1.091l-5.786,2.5a2.069,2.069,0,0,0-1.091,2.755L22.75,210.7h7.535Z" transform="translate(-10.008 -179.542)" fill="#a9bbdb"/>
            </g>
            <g id="standing-up-man-_1_" data-name="standing-up-man- (1)" transform="translate(319.531 608.459)">
              <g id="Group_9806" data-name="Group 9806" transform="translate(0 0)">
                <path id="Path_8178" data-name="Path 8178" d="M90.668,11.956A48.223,48.223,0,0,0,70.41,12.2c-44.037,5.16-58.336,56.132-54.3,95,1.751,16.8,28.239,16.979,26.47,0-1.469-14.164-.84-35.539,6.688-50.731v55.392c0,.652.065,1.264.094,1.892-.018.3-.088.552-.088.858,0,43.955-.076,87.892-1.892,131.812-.805,19.524,29.468,19.447,30.267,0,1.422-34.422,1.781-68.862,1.863-103.308a35.029,35.029,0,0,0,4.3.012c.088,34.446.435,68.886,1.845,103.3.805,19.447,31.078,19.524,30.267,0-1.816-43.92-1.881-87.857-1.881-131.812a16.586,16.586,0,0,0-.458-3.8c-.041-19.083-.77-38.184-.547-57.255,9.015,15.263,9.838,38.542,8.275,53.629-1.775,16.967,24.719,16.8,26.47,0C151.919,67.518,136.933,15.223,90.668,11.956Z" transform="translate(-15.459 -11)" fill="#8d929f"/>
              </g>
            </g>
            <g id="standing-up-man-_1_2" data-name="standing-up-man- (1)" transform="translate(319.532 547.559)">
              <g id="Group_9806-2" data-name="Group 9806" transform="translate(0 0)">
                <ellipse id="Ellipse_4077" data-name="Ellipse 4077" cx="26.488" cy="26.488" rx="26.488" ry="26.488" transform="translate(39.494)" fill="#83bec1"/>
                <path id="Path_8178-2" data-name="Path 8178" d="M90.668,11.956A48.223,48.223,0,0,0,70.41,12.2c-44.037,5.16-58.336,56.132-54.3,95,1.751,16.8,28.239,16.979,26.47,0-1.469-14.164-.84-35.539,6.688-50.731v55.392c0,.652.065,1.264.094,1.892-.018.3-.088.552-.088.858,0,43.955-.076,87.892-1.892,131.812-.805,19.524,29.468,19.447,30.267,0,1.422-34.422,1.781-68.862,1.863-103.308a35.029,35.029,0,0,0,4.3.012c.088,34.446.435,68.886,1.845,103.3.805,19.447,31.078,19.524,30.267,0-1.816-43.92-1.881-87.857-1.881-131.812a16.586,16.586,0,0,0-.458-3.8c-.041-19.083-.77-38.184-.547-57.255,9.015,15.263,9.838,38.542,8.275,53.629-1.775,16.967,24.719,16.8,26.47,0C151.919,67.518,136.933,15.223,90.668,11.956Z" transform="translate(-15.459 49.9)" fill="#83bec1"/>
              </g>
            </g>
            <g id="music" transform="translate(80.443 144.653)">
              <path id="Path_11494" data-name="Path 11494" d="M81.676,61.125a5.573,5.573,0,0,1-5.557,5.557H20.557A5.573,5.573,0,0,1,15,61.125V20.556A5.573,5.573,0,0,1,20.557,15H76.12a5.573,5.573,0,0,1,5.557,5.556Zm0,0" transform="translate(-12.925 -12.925)" fill="#e7f0ef"/>
              <path id="Path_11496" data-name="Path 11496" d="M63.195,0H7.632A7.64,7.64,0,0,0,0,7.631V48.2a7.64,7.64,0,0,0,7.632,7.632H30v4.178H18.744a5.409,5.409,0,1,0,0,10.817H52.082a5.409,5.409,0,1,0,0-10.817H40.822V55.831H63.195A7.64,7.64,0,0,0,70.826,48.2V7.631A7.64,7.64,0,0,0,63.195,0Zm3.482,48.2a3.485,3.485,0,0,1-3.482,3.482H7.632A3.486,3.486,0,0,1,4.15,48.2V7.631A3.485,3.485,0,0,1,7.632,4.15H63.195a3.485,3.485,0,0,1,3.482,3.481Zm0,0" transform="translate(0 0)" fill="#829fd1"/>
              <path id="Path_11497" data-name="Path 11497" d="M123.746,58.662a1.543,1.543,0,0,0-1.193-.387l-15.69,1.652a1.542,1.542,0,0,0-1.38,1.534V77.174a6.387,6.387,0,0,0-3-.74,5.685,5.685,0,1,0,6.084,5.671V69.454l12.606-1.327v7.4a6.387,6.387,0,0,0-3-.74,5.685,5.685,0,1,0,6.083,5.671V59.808a1.543,1.543,0,0,0-.51-1.146Zm0,0" transform="translate(-78.248 -45.105)" fill="#00d8e0"/>
              <path id="Path_11498" data-name="Path 11498" d="M283.782,0H256V4.15h27.782a3.485,3.485,0,0,1,3.482,3.481V48.2a3.485,3.485,0,0,1-3.482,3.482H256V70.826h16.669a5.409,5.409,0,1,0,0-10.817h-11.26V55.83h22.372a7.64,7.64,0,0,0,7.632-7.631V7.63A7.64,7.64,0,0,0,283.782,0Zm0,0" transform="translate(-220.587 0)" fill="#6783b2"/>
            </g>
            <path id="football" d="M12.031,0A12.031,12.031,0,1,0,24.062,12.031,12.031,12.031,0,0,0,12.031,0Zm.429,3.469L16.643,1.8a11.254,11.254,0,0,1,1.374.741l.011.007a11.294,11.294,0,0,1,1.238.908l.034.029q.263.224.512.464l.064.061q.261.255.506.526l.04.047c.143.16.281.326.414.5l.1.12c.145.188.285.379.417.576l-.834,3.544-4.1,1.368L12.462,7.52ZM3.13,5.2l.095-.12q.2-.251.409-.49l.044-.051q.243-.271.5-.525c.02-.02.04-.04.061-.058q.247-.238.508-.462l.04-.034a11.337,11.337,0,0,1,1.226-.9l.016-.01A11.265,11.265,0,0,1,7.4,1.8l4.2,1.664V7.519L7.65,10.68l-4.1-1.365L2.714,5.771c.134-.2.272-.387.416-.574ZM2.647,18.185q-.177-.27-.338-.549l-.026-.045q-.16-.278-.3-.566l0-.006a11.173,11.173,0,0,1-.528-1.243v0c-.071-.2-.136-.406-.2-.613l-.022-.076q-.083-.291-.15-.589c0-.019-.009-.038-.013-.057a11.162,11.162,0,0,1-.212-1.358L3.3,10.141,7.377,11.5,8.56,16.228,6.617,18.812ZM14.7,22.937c-.2.05-.406.093-.612.131L14,23.083c-.175.031-.352.058-.53.08l-.142.018c-.165.019-.331.034-.5.046l-.157.012c-.213.013-.428.021-.645.021q-.3,0-.592-.016c-.024,0-.046,0-.07-.006q-.262-.015-.521-.04l-.02,0a11.426,11.426,0,0,1-1.131-.18L7.325,19.3l1.912-2.55h5.588l1.944,2.567Zm8.3-8.5c0,.019-.009.038-.013.057q-.067.3-.15.589l-.022.076c-.06.207-.125.411-.2.613v0a11.136,11.136,0,0,1-.528,1.243l0,.006q-.144.288-.3.566l-.026.045q-.16.281-.338.549l-3.957.624-1.956-2.583L16.688,11.5l4.074-1.358,2.448,2.938A11.135,11.135,0,0,1,23,14.437Zm0,0" transform="translate(651.156 507.444)" fill="#535353"/>
            <g id="conversation" transform="matrix(1, 0.017, -0.017, 1, 606.967, 135.65)">
              <path id="Path_13042" data-name="Path 13042" d="M11,37.954,6.853,19.7.332,5.271A3.733,3.733,0,0,1,7.136,2.2L13.812,16.97a3.754,3.754,0,0,1,.238.71L18.284,36.3A3.733,3.733,0,0,1,11,37.954Z" transform="translate(76.303 37.98)" fill="#414b82"/>
              <path id="Path_13043" data-name="Path 13043" d="M19.239.726,11,.017A4.638,4.638,0,0,0,5.98,4.241L3.941,27.952,6.191,42.3.241,58.076a3.733,3.733,0,1,0,6.986,2.635l6.3-16.7a3.734,3.734,0,0,0,.2-1.9L11.6,28.611l9.827.845L23.464,5.745A4.639,4.639,0,0,0,19.239.726Z" transform="translate(64.248 15.704)" fill="#5f6e9b"/>
              <path id="Path_13044" data-name="Path 13044" d="M17.484,29.456,0,27.952,2.038,4.241A4.638,4.638,0,0,1,7.057.017L15.3.726a4.638,4.638,0,0,1,4.224,5.019Z" transform="translate(68.189 15.704)" fill="#64afff"/>
              <g id="Group_12831" data-name="Group 12831" transform="translate(72.974 0)">
                <circle id="Ellipse_4528" data-name="Ellipse 4528" cx="6.867" cy="6.867" r="6.867" transform="translate(1.512 0)" fill="#ffb69e"/>
                <path id="Path_13045" data-name="Path 13045" d="M9.824,28.909.936,20.221a3.111,3.111,0,0,1-.882-2.8L2.88,2.531a3.111,3.111,0,1,1,6.113,1.16L6.478,16.938l7.695,7.523a3.111,3.111,0,1,1-4.349,4.449Z" transform="translate(0 17.472)" fill="#ffb69e"/>
              </g>
              <path id="Path_13046" data-name="Path 13046" d="M0,11.174l6.086,1.3L7.753,3.692a3.111,3.111,0,0,0-6.113-1.16Z" transform="translate(74.214 17.472)" fill="#4699f2"/>
              <path id="Path_13047" data-name="Path 13047" d="M1.43,25.576.02,13.227a3.111,3.111,0,0,1,1.086-2.732L12.692.732A3.111,3.111,0,1,1,16.7,5.49L6.391,14.178,7.612,24.87a3.111,3.111,0,1,1-6.182.706Z" transform="translate(35.527 23.016)" fill="#d4a38f"/>
              <path id="Path_13048" data-name="Path 13048" d="M11,37.954,6.853,19.7.332,5.271A3.733,3.733,0,0,1,7.136,2.2L13.812,16.97a3.748,3.748,0,0,1,.238.71L18.284,36.3A3.733,3.733,0,0,1,11,37.954Z" transform="translate(48.349 43.672)" fill="#414b82"/>
              <path id="Path_13049" data-name="Path 13049" d="M19.239.726,11,.017A4.638,4.638,0,0,0,5.98,4.241L3.941,27.952,6.191,42.3.241,58.076a3.733,3.733,0,1,0,6.986,2.635l6.3-16.7a3.733,3.733,0,0,0,.2-1.9L11.6,28.611l9.827.845L23.464,5.745A4.639,4.639,0,0,0,19.239.726Z" transform="translate(36.295 21.396)" fill="#5f6e9b"/>
              <path id="Path_13050" data-name="Path 13050" d="M17.484,29.456,0,27.952,2.038,4.241A4.638,4.638,0,0,1,7.057.017L15.3.726a4.638,4.638,0,0,1,4.224,5.019Z" transform="translate(40.236 21.396)" fill="#719c77"/>
              <g id="Group_12832" data-name="Group 12832" transform="translate(46.533 5.691)">
                <circle id="Ellipse_4529" data-name="Ellipse 4529" cx="6.867" cy="6.867" r="6.867" fill="#d4a38f"/>
                <path id="Path_13051" data-name="Path 13051" d="M17.44,24.914,5.732,20.744a3.111,3.111,0,0,1-1.975-2.178L.093,3.865A3.111,3.111,0,0,1,6.13,2.36L9.391,15.442l10.137,3.611a3.111,3.111,0,0,1-2.088,5.861Z" transform="translate(0.651 17.325)" fill="#d4a38f"/>
              </g>
              <path id="Path_13052" data-name="Path 13052" d="M2.221,12.4l6.073-1.362L6.13,2.36a3.111,3.111,0,1,0-6.037,1.5Z" transform="translate(47.183 23.016)" fill="#5c7d60"/>
              <path id="Path_13053" data-name="Path 13053" d="M22.122,1.164,13.939.043A4.632,4.632,0,0,0,8.722,4L5.5,27.549,7.039,42.012.3,57.909A3.728,3.728,0,0,0,7.161,60.82l7.119-16.785a3.726,3.726,0,0,0,.275-1.848L13.116,28.592l9.743,1.334L26.083,6.381A4.632,4.632,0,0,0,22.122,1.164Z" transform="translate(0 21.439)" fill="#5f6e9b"/>
              <path id="Path_13054" data-name="Path 13054" d="M3.583,37.032,2.712,19.757.055,4.362A3.728,3.728,0,1,1,7.4,3.094l2.7,15.616a3.731,3.731,0,0,1,.05.446l.882,17.5a3.728,3.728,0,1,1-7.446.375Z" transform="translate(14.706 43.96)" fill="#414b82"/>
              <path id="Path_13055" data-name="Path 13055" d="M17.361,29.926,0,27.549,3.224,4A4.632,4.632,0,0,1,8.441.043l8.184,1.12a4.632,4.632,0,0,1,3.961,5.217Z" transform="translate(5.498 21.439)" fill="#ffdc64"/>
              <g id="Group_12833" data-name="Group 12833" transform="translate(15.347 6.226)">
                <path id="Path_13056" data-name="Path 13056" d="M7.787.064a6.856,6.856,0,1,0,3.048,12.375l-.018-.015c1.134-.957,2.491-1.79,2.893-5.59A6.856,6.856,0,0,0,7.787.064Z" transform="translate(0.747 0)" fill="#ffb69e"/>
                <path id="Path_13057" data-name="Path 13057" d="M11.654,12.681,1.422,5.853A3.2,3.2,0,1,1,4.969.538l8.806,5.877,10.5-4.4A3.195,3.195,0,1,1,26.741,7.91L14.662,12.971A3.2,3.2,0,0,1,11.654,12.681Z" transform="translate(0 17.318)" fill="#ffb69e"/>
              </g>
              <path id="Path_13058" data-name="Path 13058" d="M11.252,4.731,4.969.538A3.2,3.2,0,1,0,1.422,5.853l6.769,4.518Z" transform="translate(15.347 23.544)" fill="#ffc305"/>
            </g>
            <g id="Mask_Group_9759" data-name="Mask Group 9759" transform="translate(330.341 31.92)" clip-path="url(#clip-path)">
              <g id="team_2_" data-name="team (2)" transform="translate(3.71 8.802)">
                <path id="Path_13883" data-name="Path 13883" d="M179.178,179.646l14.394-33.316a6.457,6.457,0,0,1,4.313-3.691l20.308-5.243-4.46-26.091a7.2,7.2,0,0,1,5.888-8.315l4.176-.714a14.626,14.626,0,0,1,17.024,13.086l2.507,27.53a6.153,6.153,0,0,1-6.8,6.674l-9.681-1.067-22.672,5.853-13.141,30.416a6.457,6.457,0,1,1-11.854-5.122Z" transform="translate(-138.864 -74.367)" fill="#47634b"/>
                <path id="Path_13884" data-name="Path 13884" d="M299.727,259.012a3.564,3.564,0,0,0,3.564-3.564V209.384H349.61v46.065a3.563,3.563,0,1,0,7.127,0V205.82a3.564,3.564,0,0,0-3.563-3.564H299.728a3.564,3.564,0,0,0-3.563,3.564v49.629A3.563,3.563,0,0,0,299.727,259.012Z" transform="translate(-292.444 -144.714)" fill="#3d3d3d"/>
                <path id="Path_13885" data-name="Path 13885" d="M362.931,123.056a2.838,2.838,0,0,0,2.838,2.838h21.267a2.838,2.838,0,0,0,0-5.676H368.607V97.862a2.838,2.838,0,1,0-5.676,0Z" transform="translate(-345.854 -69.423)" fill="#85aebb"/>
                <path id="Path_13886" data-name="Path 13886" d="M419.3,78.459a1.982,1.982,0,0,0,2.605,1.033l4.539-1.961a1.981,1.981,0,0,0,1.033-2.6L413.273,42.045a1.982,1.982,0,0,0-2.6-1.033l-4.539,1.961a1.981,1.981,0,0,0-1.033,2.6Z" transform="translate(-395.749 -31.386)" fill="#bae0e5"/>
                <g id="Group_13057" data-name="Group 13057" transform="translate(0 56.471)">
                  <path id="Path_13887" data-name="Path 13887" d="M284.2,207.567h60.275a4.454,4.454,0,1,0,0-8.908H284.2a4.454,4.454,0,1,0,0,8.908Z" transform="translate(-279.748 -198.659)" fill="#3d3d3d"/>
                </g>
                <path id="Path_13888" data-name="Path 13888" d="M161.084,201.974a14.612,14.612,0,0,0,1.267-9.481l-3.507-17.252a21.265,21.265,0,0,0-26.695-16.206,8.264,8.264,0,0,0-5.668,10.221l7.86,27.435Z" transform="translate(-56.36 -133.613)" fill="#49784f"/>
                <ellipse id="Ellipse_4587" data-name="Ellipse 4587" cx="12.234" cy="12.234" rx="12.234" ry="12.234" transform="translate(59.768 0)" fill="#faad93"/>
                <path id="Path_13889" data-name="Path 13889" d="M218.32,293.078a3.711,3.711,0,0,0,3.711-3.712V266.142a3.711,3.711,0,1,0-7.423,0v23.225A3.711,3.711,0,0,0,218.32,293.078Z" transform="translate(-127.435 -186.963)" fill="#50555a"/>
                <g id="Group_13058" data-name="Group 13058" transform="translate(73.774 73.581)">
                  <path id="Path_13890" data-name="Path 13890" d="M168.264,265H195.31a4.454,4.454,0,1,0,0-8.908H168.264a4.454,4.454,0,1,0,0,8.908Z" transform="translate(-163.81 -256.097)" fill="#80868c"/>
                  <path id="Path_13891" data-name="Path 13891" d="M177.667,361.495l4.306-4.305h11.538l4.306,4.305a3.711,3.711,0,0,0,5.249-5.249l-5.393-5.393a3.712,3.712,0,0,0-2.625-1.087H180.435a3.712,3.712,0,0,0-2.625,1.087l-5.393,5.393a3.712,3.712,0,0,0,5.249,5.249Z" transform="translate(-170.438 -321.864)" fill="#80868c"/>
                </g>
                <path id="Path_13892" data-name="Path 13892" d="M204.733,204.779l15.376-14.749a5.277,5.277,0,0,0-7.305-7.616l-13.268,12.78-18.152-1.882a5.277,5.277,0,0,0-4.336,9.621l21.865,2.848A5.277,5.277,0,0,0,204.733,204.779Z" transform="translate(-137.508 -152.201)" fill="#faad93"/>
                <path id="Path_13893" data-name="Path 13893" d="M181.4,196.795l-7.464-7.464,7.212-6.918a5.277,5.277,0,1,1,7.305,7.616Z" transform="translate(-105.855 -152.2)" fill="#438b4c"/>
              </g>
            </g>
            <g id="soccer-player" transform="translate(671.501 433.308)">
              <path id="Path_13399" data-name="Path 13399" d="M59.514,128.18a4.543,4.543,0,0,0,.825-6.374L49.052,107.164a4.545,4.545,0,0,0-3.222-1.754l-6.286-.523L35.3,108.9l4.243,5.1,3.534.294,10.063,13.054a4.543,4.543,0,0,0,6.374.825Zm0,0" transform="translate(-0.008 -83.698)" fill="#ffb69e"/>
              <path id="Path_13400" data-name="Path 13400" d="M142.95,103.668a4.544,4.544,0,0,1,4.906-4.153l12.869,1.072v9.121L147.1,108.574A4.545,4.545,0,0,1,142.95,103.668Zm0,0" transform="translate(-121.189 -79.399)" fill="#64d27a"/>
              <path id="Path_13401" data-name="Path 13401" d="M28,345.229a5.383,5.383,0,0,0-1.95-7.359l-15.3-8.888-.13-1.169-6.146-4.142L0,330.052l.267,2.643a5.387,5.387,0,0,0,2.659,4.191l17.714,10.293A5.383,5.383,0,0,0,28,345.229Zm0,0" transform="translate(39.677 -258.29)" fill="#ffb69e"/>
              <path id="Path_13402" data-name="Path 13402" d="M204.917,356.8l2.225-25.494.421-1.252-3.95-6.38-6.656,4.142-.224.667a5.392,5.392,0,0,0-.26,1.247l-2.281,26.133a5.383,5.383,0,0,0,10.725.937Zm0,0" transform="translate(-178.378 -258.291)" fill="#ffb69e"/>
              <path id="Path_13403" data-name="Path 13403" d="M89.658,253.378a5.613,5.613,0,0,1,5.174-5.837c2.96-.256,5.167,2.578,5.167,2.578l1.89,16.929-10.622,2.238Zm0,0" transform="translate(-51.589 -197.525)" fill="#388a48"/>
              <path id="Path_13404" data-name="Path 13404" d="M171.862,252.41l-10.606-2.238,6.768-20.127a5.383,5.383,0,0,1,10.2,3.431Zm0,0" transform="translate(-142.675 -180.648)" fill="#388a48"/>
              <path id="Path_13405" data-name="Path 13405" d="M123.8,128.958l11.955-5.28L122.2,92.979a6.54,6.54,0,0,0-8.626-3.341L102.9,94.35a6.541,6.541,0,0,0-3.341,8.626l8.841,20.017a11.677,11.677,0,0,0,15.4,5.964Zm0,0" transform="translate(-87.346 -71.083)" fill="#64d27a"/>
              <path id="Path_13406" data-name="Path 13406" d="M226.035.816a9.683,9.683,0,1,1-4.946,12.77A9.683,9.683,0,0,1,226.035.816Zm0,0" transform="translate(-215.716 0.012)" fill="#ffb69e"/>
              <path id="Path_13407" data-name="Path 13407" d="M220.279,187.261l15.21-7.485a4.543,4.543,0,0,0,2.466-3.267l1.008-5.56-3.982-4.445-4.931,2.657-.63,3.472-13.154,6.472a4.545,4.545,0,0,0,4.013,8.156Zm0,0" transform="translate(-213.727 -132.869)" fill="#ffb69e"/>
              <path id="Path_13408" data-name="Path 13408" d="M213.657,129.451l-8.913-1.789,1.71-9.427a4.545,4.545,0,0,1,8.944,1.622Zm0,0" transform="translate(-188.421 -91.371)" fill="#64d27a"/>
            </g>
            <rect id="Rectangle_4288" data-name="Rectangle 4288" width="82.02" height="13.745" transform="translate(43.155 764.686)" fill="#636b6a"/>
            <rect id="Rectangle_4289" data-name="Rectangle 4289" width="82.02" height="6.36" transform="translate(43.155 764.686)" fill="#859593"/>
            <path id="Path_13894" data-name="Path 13894" d="M55.279,254.4H69.787l-6.77-5.539c-1.771-1.355-5.166-1.762-7.738-1.762v7.3Z" transform="translate(-7.633 510.29)" fill="#859593"/>
            <g id="Group_13059" data-name="Group 13059" transform="translate(38.664 735.628)">
              <path id="Path_12152" data-name="Path 12152" d="M8.983,203.993a1.524,1.524,0,0,1-1.524,1.524H1.524A1.524,1.524,0,0,1,0,203.993V160.754a4.491,4.491,0,0,1,8.983,0v43.239Z" transform="translate(0 -156.263)" fill="#636b6a"/>
              <path id="Path_12153" data-name="Path 12153" d="M465.7,315.234a1.524,1.524,0,0,1-1.524,1.524h-5.935a1.524,1.524,0,0,1-1.524-1.524V293.577a4.491,4.491,0,1,1,8.983,0v21.656Z" transform="translate(-374.7 -267.503)" fill="#636b6a"/>
            </g>
            <g id="Group_12488" data-name="Group 12488" transform="translate(647.405 715.303)">
              <rect id="Rectangle_4076" data-name="Rectangle 4076" width="95.59" height="16.02" transform="translate(5.235 33.866)" fill="#636b6a"/>
              <rect id="Rectangle_4077" data-name="Rectangle 4077" width="95.59" height="7.412" transform="translate(5.235 33.866)" fill="#859593"/>
              <path id="Path_12160" data-name="Path 12160" d="M55.28,255.6H72.188l-7.89-6.455c-2.064-1.579-6.021-2.053-9.018-2.053V255.6Z" transform="translate(-44.811 -221.738)" fill="#859593"/>
              <g id="Group_12487" data-name="Group 12487" transform="translate(0 0)">
                <path id="Path_12152-2" data-name="Path 12152" d="M10.469,211.89a1.776,1.776,0,0,1-1.776,1.776H1.776A1.776,1.776,0,0,1,0,211.89V161.5a5.234,5.234,0,0,1,10.469,0V211.89Z" transform="translate(0 -156.263)" fill="#636b6a"/>
                <path id="Path_12153-2" data-name="Path 12153" d="M467.189,319.56a1.776,1.776,0,0,1-1.776,1.776H458.5a1.776,1.776,0,0,1-1.776-1.776V294.32a5.234,5.234,0,0,1,10.469,0V319.56Z" transform="translate(-361.131 -263.933)" fill="#636b6a"/>
              </g>
              <g id="bed_1_" data-name="bed (1)" transform="translate(12.275 14.336)">
                <g id="Group_12358" data-name="Group 12358" transform="translate(0 0)">
                  <g id="Group_12357" data-name="Group 12357" transform="translate(0 0)">
                    <circle id="Ellipse_4402" data-name="Ellipse 4402" cx="7" cy="7" r="7" transform="translate(0.201 0.202)" fill="#faad93"/>
                  </g>
                </g>
                <g id="Group_12362" data-name="Group 12362" transform="translate(26.612 0.944)">
                  <g id="Group_12361" data-name="Group 12361" transform="translate(0 0)">
                    <path id="Path_11762" data-name="Path 11762" d="M252.653,182.836c-11.806-3.409-35.3-6.079-42.447-5.877l-4.246,8.178-2.146,11.191s-.121,3.248-.051,5.019a1.561,1.561,0,0,0,1.559,1.5l53.783.149a1.561,1.561,0,0,0,1.541-1.311l1-6.128C262.616,189.573,258.478,184.518,252.653,182.836Z" transform="translate(-203.742 -176.949)" fill="#42696e"/>
                  </g>
                </g>
                <path id="Path_12162" data-name="Path 12162" d="M178.318,190.635h0a3.11,3.11,0,0,0-4.274-1h0l-9.133,5.657-10.738-4.921,5.04.889a37.7,37.7,0,0,1,2.491-5.906l-11.686-.215a4.361,4.361,0,0,0-4.427,4.267l-.142,7.753a4.364,4.364,0,0,0,4.268,4.427l7.418.136q.06-.719.138-1.414l-5.294-4.111,11.858,5.435a3.13,3.13,0,0,0,2.929-.183l10.548-6.533A3.1,3.1,0,0,0,178.318,190.635Z" transform="translate(-129.78 -182.648)" fill="#4686a7"/>
              </g>
              <path id="Path_12161" data-name="Path 12161" d="M225.46,207.038h0a3.11,3.11,0,0,0-4.274-1h0l-9.133,5.657-5.409-2.5-2.465,5.7,6.8,3.134a3.13,3.13,0,0,0,2.929-.183l10.548-6.533A3.1,3.1,0,0,0,225.46,207.038Z" transform="translate(-164.647 -184.715)" fill="#faad93"/>
            </g>
            <g id="conversation_4_" data-name="conversation (4)" transform="translate(56.68 720.301)">
              <ellipse id="Ellipse_4206" data-name="Ellipse 4206" cx="6.604" cy="6.604" rx="6.604" ry="6.604" transform="translate(17.855 3.654)" fill="#ffb69e"/>
              <path id="Path_10209" data-name="Path 10209" d="M256.865,54.824a3.186,3.186,0,0,0-4.366,1.117l-9.83,16H234.7l-11.2-16a3.187,3.187,0,1,0-5.242,3.624l12.1,17.305v24.122h16.879V76.707c.215-.288-4.3,7.878,10.75-17.518A3.187,3.187,0,0,0,256.865,54.824Z" transform="translate(-214.411 -53.829)" fill="#ffb69e"/>
              <path id="Path_10210" data-name="Path 10210" d="M293.65,146.118l-3.377,5.644h-.848a3.18,3.18,0,0,1-6.359,0h-.942l-3.942-5.644-5.573,3.362,5.075,7.266v18.342h17.254V156.58c.152-.2-.279.509,4.477-7.443Z" transform="translate(-261.923 -133.668)" fill="#4686a7"/>
              <path id="Path_13900" data-name="Path 13900" d="M158.214,293.681l-2.745-18.58a3.974,3.974,0,0,1,1.569-3.8l6.45-4.642a3.617,3.617,0,0,1,5.173,1,4.01,4.01,0,0,1-.958,5.415l-4.524,3.256,2.388,16.162a3.874,3.874,0,0,1-3.108,4.443A3.747,3.747,0,0,1,158.214,293.681Z" transform="translate(-146.347 -225.888)" fill="#414b82"/>
              <path id="Path_13901" data-name="Path 13901" d="M257.943,297.884a3.875,3.875,0,0,1-3.108-4.444l2.357-15.958-5.171-3.148a4,4,0,0,1-1.346-5.325,3.629,3.629,0,0,1,5.086-1.409l7.365,4.484a3.959,3.959,0,0,1,1.806,3.963l-2.745,18.584A3.747,3.747,0,0,1,257.943,297.884Z" transform="translate(-223.559 -226.839)" fill="#414b82"/>
            </g>
          </g>
          <path id="Path_13902" data-name="Path 13902" d="M2.562.041h13.3a1.934,1.934,0,0,1,2,1.861V5.623c0,1.028-.2,1.861-1.3,1.861h-14a1.934,1.934,0,0,1-2-1.861V1.9A1.934,1.934,0,0,1,2.562.041Z" transform="translate(187 804.556)" fill="#414b82"/>
        </g>
      </g>
      <text id="What_does_an_average_person_do_all_day_3" data-name="What does an average person do all day?" transform="translate(149 435)" fill="#293536" font-size="60" font-family="Roboto-Bold, Roboto" font-weight="700"><tspan x="0" y="63">What does an average person </tspan><tspan x="0" y="135">do all day?</tspan></text>
    </g>
  </g>
</svg>
