<svg xmlns="http://www.w3.org/2000/svg" xmlns:xlink="http://www.w3.org/1999/xlink" width="502.26" height="269.352" viewBox="0 0 502.26 269.352"><defs><clipPath id="a"><circle cx="93.5" cy="93.5" r="93.5" transform="translate(0.003 0)" fill="#faf4ea"/></clipPath></defs><g transform="translate(65.706 0.139)"><path d="M22.922,0h-4.43V-11.355H7.049V0H2.6V-25.594H7.049v10.652H18.492V-25.594h4.43ZM36.141.352a8.837,8.837,0,0,1-6.583-2.558,9.278,9.278,0,0,1-2.522-6.812v-.527a11.413,11.413,0,0,1,1.1-5.089,8.362,8.362,0,0,1,3.085-3.489,8.156,8.156,0,0,1,4.43-1.248,7.465,7.465,0,0,1,6,2.479q2.118,2.479,2.118,7.014v1.723H31.342A5.712,5.712,0,0,0,32.915-4.43a4.723,4.723,0,0,0,3.472,1.371,5.784,5.784,0,0,0,4.781-2.373l2.3,2.2a7.69,7.69,0,0,1-3.05,2.646A9.548,9.548,0,0,1,36.141.352Zm-.51-16.295a3.6,3.6,0,0,0-2.839,1.23,6.378,6.378,0,0,0-1.38,3.428h8.139V-11.6a5.192,5.192,0,0,0-1.143-3.243A3.57,3.57,0,0,0,35.631-15.943ZM51.627,0H47.355V-27h4.271ZM60.82,0H56.549V-27H60.82Zm3.85-9.686a11.215,11.215,0,0,1,1.107-5.036,8.088,8.088,0,0,1,3.111-3.445,8.766,8.766,0,0,1,4.605-1.2,8.308,8.308,0,0,1,6.249,2.479,9.748,9.748,0,0,1,2.593,6.574l.018,1a11.315,11.315,0,0,1-1.081,5.027A7.991,7.991,0,0,1,78.179-.861,8.831,8.831,0,0,1,73.529.352a8.25,8.25,0,0,1-6.442-2.681A10.267,10.267,0,0,1,64.67-9.475Zm4.271.369a7.664,7.664,0,0,0,1.213,4.6,3.943,3.943,0,0,0,3.375,1.661A3.9,3.9,0,0,0,76.9-4.746a8.465,8.465,0,0,0,1.2-4.939,7.565,7.565,0,0,0-1.239-4.57,3.957,3.957,0,0,0-3.366-1.687,3.921,3.921,0,0,0-3.322,1.661A8.3,8.3,0,0,0,68.941-9.316ZM106.295,0a6.592,6.592,0,0,1-.492-1.775A6.649,6.649,0,0,1,100.811.352a6.71,6.71,0,0,1-4.676-1.635,5.23,5.23,0,0,1-1.811-4.043,5.4,5.4,0,0,1,2.259-4.667,10.946,10.946,0,0,1,6.46-1.626h2.619v-1.248a3.331,3.331,0,0,0-.826-2.364,3.275,3.275,0,0,0-2.514-.888,3.762,3.762,0,0,0-2.391.729A2.258,2.258,0,0,0,99-13.535H94.729a4.741,4.741,0,0,1,1.037-2.927A6.909,6.909,0,0,1,98.587-18.6a9.91,9.91,0,0,1,3.981-.773,7.981,7.981,0,0,1,5.326,1.679,5.986,5.986,0,0,1,2.039,4.72v8.578a9.722,9.722,0,0,0,.721,4.1V0ZM101.6-3.076a4.859,4.859,0,0,0,2.382-.615,4.11,4.11,0,0,0,1.679-1.652V-8.93h-2.3a6.3,6.3,0,0,0-3.568.826,2.676,2.676,0,0,0-1.2,2.338,2.5,2.5,0,0,0,.817,1.96A3.165,3.165,0,0,0,101.6-3.076Zm16.77-15.943.123,2.2a6.839,6.839,0,0,1,5.537-2.549q5.941,0,6.047,6.8V0h-4.271V-12.322A3.917,3.917,0,0,0,125.024-15a3.29,3.29,0,0,0-2.558-.87,4.116,4.116,0,0,0-3.85,2.338V0h-4.271V-19.02ZM133.629-9.65a11.308,11.308,0,0,1,2.039-7.058,6.533,6.533,0,0,1,5.467-2.663,6.208,6.208,0,0,1,4.887,2.109V-27h4.271V0h-3.867l-.211-1.969A6.3,6.3,0,0,1,141.1.352a6.5,6.5,0,0,1-5.405-2.689A11.722,11.722,0,0,1,133.629-9.65Zm4.271.369a7.917,7.917,0,0,0,1.116,4.526,3.622,3.622,0,0,0,3.173,1.626,4.034,4.034,0,0,0,3.832-2.338v-8.121a3.973,3.973,0,0,0-3.8-2.285,3.649,3.649,0,0,0-3.2,1.644A8.817,8.817,0,0,0,137.9-9.281Zm42.521,3.393,3.023-13.131h4.166L182.426,0H178.91l-4.078-13.061L170.824,0h-3.516l-5.2-19.02h4.166l3.076,12.99,3.9-12.99h3.217ZM198.844.352a8.837,8.837,0,0,1-6.583-2.558,9.278,9.278,0,0,1-2.522-6.812v-.527a11.413,11.413,0,0,1,1.1-5.089,8.362,8.362,0,0,1,3.085-3.489,8.156,8.156,0,0,1,4.43-1.248,7.465,7.465,0,0,1,6,2.479q2.118,2.479,2.118,7.014v1.723H194.045a5.712,5.712,0,0,0,1.573,3.727,4.723,4.723,0,0,0,3.472,1.371,5.784,5.784,0,0,0,4.781-2.373l2.3,2.2a7.69,7.69,0,0,1-3.05,2.646A9.548,9.548,0,0,1,198.844.352Zm-.51-16.295a3.6,3.6,0,0,0-2.839,1.23,6.378,6.378,0,0,0-1.38,3.428h8.139V-11.6a5.192,5.192,0,0,0-1.143-3.243A3.57,3.57,0,0,0,198.334-15.943ZM214.33,0h-4.271V-27h4.271Zm12.463-3.059a3.862,3.862,0,0,0,2.654-.932,3.183,3.183,0,0,0,1.125-2.3H234.6a6.274,6.274,0,0,1-1.107,3.313,7.264,7.264,0,0,1-2.812,2.435,8.381,8.381,0,0,1-3.832.9,8.109,8.109,0,0,1-6.328-2.584,10.249,10.249,0,0,1-2.338-7.137v-.439a10.078,10.078,0,0,1,2.32-6.952,8.035,8.035,0,0,1,6.328-2.61,7.814,7.814,0,0,1,5.528,1.978A7.084,7.084,0,0,1,234.6-12.2h-4.025a3.911,3.911,0,0,0-1.116-2.689,3.591,3.591,0,0,0-2.663-1.055,3.759,3.759,0,0,0-3.2,1.5,7.669,7.669,0,0,0-1.143,4.562v.686a7.8,7.8,0,0,0,1.116,4.614A3.756,3.756,0,0,0,226.793-3.059Zm10.23-6.627a11.215,11.215,0,0,1,1.107-5.036,8.088,8.088,0,0,1,3.111-3.445,8.766,8.766,0,0,1,4.605-1.2,8.308,8.308,0,0,1,6.249,2.479,9.748,9.748,0,0,1,2.593,6.574l.018,1a11.315,11.315,0,0,1-1.081,5.027,7.991,7.991,0,0,1-3.094,3.428A8.831,8.831,0,0,1,245.883.352a8.25,8.25,0,0,1-6.442-2.681,10.267,10.267,0,0,1-2.417-7.146Zm4.271.369a7.664,7.664,0,0,0,1.213,4.6,3.943,3.943,0,0,0,3.375,1.661,3.9,3.9,0,0,0,3.366-1.687,8.465,8.465,0,0,0,1.2-4.939,7.565,7.565,0,0,0-1.239-4.57,3.957,3.957,0,0,0-3.366-1.687,3.921,3.921,0,0,0-3.322,1.661A8.3,8.3,0,0,0,241.295-9.316Zm21.041-9.7.123,1.986a6.844,6.844,0,0,1,5.484-2.338q3.814,0,5.221,2.918A6.746,6.746,0,0,1,279-19.371a5.93,5.93,0,0,1,4.685,1.74,7.662,7.662,0,0,1,1.573,5.133V0h-4.271V-12.375a3.783,3.783,0,0,0-.791-2.654,3.463,3.463,0,0,0-2.619-.844,3.556,3.556,0,0,0-2.382.782,4.125,4.125,0,0,0-1.292,2.048L273.92,0h-4.271V-12.516q-.088-3.357-3.428-3.357a3.76,3.76,0,0,0-3.639,2.092V0h-4.271V-19.02ZM298.02.352a8.837,8.837,0,0,1-6.583-2.558,9.278,9.278,0,0,1-2.522-6.812v-.527a11.413,11.413,0,0,1,1.1-5.089,8.362,8.362,0,0,1,3.085-3.489,8.156,8.156,0,0,1,4.43-1.248,7.465,7.465,0,0,1,6,2.479q2.118,2.479,2.118,7.014v1.723H293.221a5.712,5.712,0,0,0,1.573,3.727,4.723,4.723,0,0,0,3.472,1.371,5.784,5.784,0,0,0,4.781-2.373l2.3,2.2A7.69,7.69,0,0,1,302.3-.589,9.548,9.548,0,0,1,298.02.352Zm-.51-16.295a3.6,3.6,0,0,0-2.839,1.23,6.378,6.378,0,0,0-1.38,3.428h8.139V-11.6a5.192,5.192,0,0,0-1.143-3.243A3.57,3.57,0,0,0,297.51-15.943Zm25.77-7.7v4.623h3.357v3.164h-3.357V-5.238a2.338,2.338,0,0,0,.431,1.573,2,2,0,0,0,1.538.483,6.58,6.58,0,0,0,1.494-.176v3.3a10.52,10.52,0,0,1-2.812.4q-4.922,0-4.922-5.432V-15.855h-3.129V-19.02h3.129v-4.623ZM328.57-9.686a11.215,11.215,0,0,1,1.107-5.036,8.088,8.088,0,0,1,3.111-3.445,8.766,8.766,0,0,1,4.605-1.2,8.308,8.308,0,0,1,6.249,2.479,9.748,9.748,0,0,1,2.593,6.574l.018,1a11.315,11.315,0,0,1-1.081,5.027,7.991,7.991,0,0,1-3.094,3.428A8.831,8.831,0,0,1,337.43.352a8.25,8.25,0,0,1-6.442-2.681,10.267,10.267,0,0,1-2.417-7.146Zm4.271.369a7.664,7.664,0,0,0,1.213,4.6,3.943,3.943,0,0,0,3.375,1.661A3.9,3.9,0,0,0,340.8-4.746,8.465,8.465,0,0,0,342-9.686a7.565,7.565,0,0,0-1.239-4.57,3.957,3.957,0,0,0-3.366-1.687,3.921,3.921,0,0,0-3.322,1.661A8.3,8.3,0,0,0,332.842-9.316Zm43.84-12.691H368.7V0h-4.412V-22.008h-7.91v-3.586h20.3Zm11.76,6.891a10.57,10.57,0,0,0-1.74-.141,3.918,3.918,0,0,0-3.955,2.25V0h-4.271V-19.02h4.078l.105,2.127a4.813,4.813,0,0,1,4.289-2.479,4,4,0,0,1,1.512.246ZM399.516.352a8.837,8.837,0,0,1-6.583-2.558,9.278,9.278,0,0,1-2.522-6.812v-.527a11.413,11.413,0,0,1,1.1-5.089,8.362,8.362,0,0,1,3.085-3.489,8.156,8.156,0,0,1,4.43-1.248,7.465,7.465,0,0,1,6,2.479q2.118,2.479,2.118,7.014v1.723H394.717A5.712,5.712,0,0,0,396.29-4.43a4.723,4.723,0,0,0,3.472,1.371,5.784,5.784,0,0,0,4.781-2.373l2.3,2.2A7.69,7.69,0,0,1,403.8-.589,9.548,9.548,0,0,1,399.516.352Zm-.51-16.295a3.6,3.6,0,0,0-2.839,1.23,6.378,6.378,0,0,0-1.38,3.428h8.139V-11.6a5.192,5.192,0,0,0-1.143-3.243A3.57,3.57,0,0,0,399.006-15.943ZM421.822,0a6.592,6.592,0,0,1-.492-1.775A6.649,6.649,0,0,1,416.338.352a6.71,6.71,0,0,1-4.676-1.635,5.23,5.23,0,0,1-1.811-4.043,5.4,5.4,0,0,1,2.259-4.667,10.946,10.946,0,0,1,6.46-1.626h2.619v-1.248a3.331,3.331,0,0,0-.826-2.364,3.275,3.275,0,0,0-2.514-.888,3.762,3.762,0,0,0-2.391.729,2.258,2.258,0,0,0-.932,1.854h-4.271a4.741,4.741,0,0,1,1.037-2.927,6.909,6.909,0,0,1,2.821-2.136,9.91,9.91,0,0,1,3.981-.773,7.981,7.981,0,0,1,5.326,1.679,5.986,5.986,0,0,1,2.039,4.72v8.578a9.722,9.722,0,0,0,.721,4.1V0Zm-4.693-3.076a4.859,4.859,0,0,0,2.382-.615,4.11,4.11,0,0,0,1.679-1.652V-8.93h-2.3a6.3,6.3,0,0,0-3.568.826,2.676,2.676,0,0,0-1.2,2.338,2.5,2.5,0,0,0,.817,1.96A3.165,3.165,0,0,0,417.129-3.076ZM429.135-9.65a11.308,11.308,0,0,1,2.039-7.058,6.533,6.533,0,0,1,5.467-2.663,6.208,6.208,0,0,1,4.887,2.109V-27H445.8V0h-3.867l-.211-1.969a6.3,6.3,0,0,1-5.115,2.32A6.5,6.5,0,0,1,431.2-2.338,11.722,11.722,0,0,1,429.135-9.65Zm4.271.369a7.917,7.917,0,0,0,1.116,4.526A3.622,3.622,0,0,0,437.7-3.129a4.034,4.034,0,0,0,3.832-2.338v-8.121a3.973,3.973,0,0,0-3.8-2.285,3.649,3.649,0,0,0-3.2,1.644A8.817,8.817,0,0,0,433.406-9.281Zm37.336,2.953,3.938-19.266h4.412L473.186,0h-4.254l-4.869-18.686L459.088,0h-4.271L448.91-25.594h4.412l3.973,19.23,4.887-19.23h3.727ZM486.475,0H482.2V-19.02h4.271Zm-4.535-23.959a2.267,2.267,0,0,1,.624-1.635,2.357,2.357,0,0,1,1.784-.65,2.387,2.387,0,0,1,1.793.65,2.25,2.25,0,0,1,.633,1.635,2.2,2.2,0,0,1-.633,1.608,2.406,2.406,0,0,1-1.793.642,2.375,2.375,0,0,1-1.784-.642A2.214,2.214,0,0,1,481.939-23.959ZM495.668,0H491.4V-27h4.271Zm9.193,0H500.59V-27h4.271Z" transform="translate(-68.308 268.861)" fill="rgba(0,0,0,0.87)"/><g transform="translate(91.689 -0.139)"><circle cx="93.5" cy="93.5" r="93.5" transform="translate(0.003 0)" fill="#faf4ea"/><g transform="translate(0 0)" clip-path="url(#a)"><g transform="translate(18.612 17.593)"><g transform="translate(0.734 13.687)"><path d="M141.17,96.207c-10.308-9.71-40.3-11.6-45.036-11.865a.945.945,0,0,0-.9.513A22.039,22.039,0,0,1,75.09,96.207a22.3,22.3,0,0,1-19.883-11.6.945.945,0,0,0-.9-.5c-4.74.248-34.948,2.255-45.387,12.1A38.269,38.269,0,0,0,.486,111.831a.963.963,0,0,0,.927,1.242h147.23a.959.959,0,0,0,.927-1.242,39.143,39.143,0,0,0-8.4-15.624Z" transform="translate(-0.444 41.577)" fill="#fccfa9"/><path d="M53.429,110.427A22,22,0,0,0,73.761,98.746a.9.9,0,0,0,.1-.382V63.635a.945.945,0,0,0-.945-.945H34.332a.977.977,0,0,0-.963.959V98.123a.878.878,0,0,0,0,.354A21.437,21.437,0,0,0,53.429,110.427Z" transform="translate(21.181 27.505)" fill="#fccfa9"/><path d="M33.35,82.255a.945.945,0,0,0,.68.91,68.318,68.318,0,0,0,19.586,2.584,67.556,67.556,0,0,0,20.265-2.8h0V66H34.327a.963.963,0,0,0-.963.945Z" transform="translate(21.179 29.678)" fill="#fdcc86"/><path d="M119.981,62.512c-.3-13.373-11.6-2.651-11.6-2.651V44.285A36.5,36.5,0,0,0,71.529,8.261H60.761A36.6,36.6,0,0,0,23.909,44.285V58.753a.828.828,0,0,1-1.324.63C19.5,57.046,12.2,52.572,11.948,63.1c-.5,22.219,10.439,15.426,11.964,14.368h0A29.412,29.412,0,0,0,25.42,85.4c4.29,15.012,20.315,35.461,40.729,35.461h0c22.12,0,34.516-19.77,40.017-36.106a39.021,39.021,0,0,0,2.255-7.607h0C110.867,78.685,120.463,83.375,119.981,62.512Z" transform="translate(7.109 -8.259)" fill="#fccfa9"/><path d="M22.765,47.9c0,5.253-1.841,9.529-4.641,9.529S13.07,53.183,13.07,47.92s-.446-8.683,2.319-9.129C20.015,38.062,22.765,42.667,22.765,47.9Z" transform="translate(7.835 11.752)" fill="#f7c09a"/><path d="M19.648,40.153s-7.143-2.917-5.933,12.163c0,0-2.5-13.256,1.657-13.522C18.806,38.5,19.648,40.153,19.648,40.153Z" transform="translate(7.788 11.781)" fill="#eab28c"/><path d="M70.38,47.332c0,5.253,1.841,9.529,4.641,9.529s5.055-4.248,5.055-9.511.446-8.683-2.319-9.129C73.063,37.492,70.38,42.1,70.38,47.332Z" transform="translate(45.508 11.377)" fill="#f7c09a"/><path d="M72.27,39.553s7.143-2.917,5.933,12.163c0,0,2.5-13.256-1.657-13.522C73.148,37.9,72.27,39.553,72.27,39.553Z" transform="translate(46.75 11.386)" fill="#eab28c"/></g><path d="M141.1,97.062C129.91,85.809,96.356,81.883,95.51,81.784h0S90.374,97.062,75.078,97.062A21.653,21.653,0,0,1,55.012,82.977V82.86s-34.863,2.736-46.2,14.2A42.891,42.891,0,0,0,0,114.976H149.913A43.692,43.692,0,0,0,141.1,97.062Z" transform="translate(0 53.744)" fill="#e6e7e8"/><path d="M60.932,94.7l-9.646,14.782-3.926-.1L38.678,94.465A2.368,2.368,0,0,1,40.717,91l18.325.131a2.368,2.368,0,0,1,1.89,3.561Z" transform="translate(25.233 59.791)" fill="#2b388f"/><path d="M36.065,78.69s-8.287,2.4-7.557,6.626S47.233,110.9,47.233,110.9a38.8,38.8,0,0,1,9.943-11.848C57.208,99.09,46.323,98.824,36.065,78.69Z" transform="translate(18.699 51.702)" fill="#808184"/><path d="M66.093,78.69s8.287,2.4,7.557,6.626S54.943,110.9,54.943,110.9A38.421,38.421,0,0,0,45,99.09S55.835,98.824,66.093,78.69Z" transform="translate(29.565 51.702)" fill="#808184"/><path d="M38.92,58.63H63.245S51.083,80.3,38.92,58.63Z" transform="translate(25.571 38.523)" fill="#f2a491"/><path d="M43.322,49.484a5.734,5.734,0,0,0,0,5.883c.1.181.828-.216.729-.382a5.55,5.55,0,0,1,0-5.7c.131-.216-.6,0-.708.216Z" transform="translate(27.93 32.324)" fill="#f2c691"/><path d="M48.013,49.745A5.618,5.618,0,0,1,48.18,54.7c-.216.481.563.5.729.117a6.212,6.212,0,0,0-.166-5.518c-.2-.382-.927,0-.729.382Z" transform="translate(31.525 32.28)" fill="#f2c691"/><circle cx="4.177" cy="4.177" r="4.177" transform="translate(54.367 62.471)" fill="#231f20"/><circle cx="4.177" cy="4.177" r="4.177" transform="translate(85.85 62.471)" fill="#231f20"/><circle cx="1.391" cy="1.391" r="1.391" transform="translate(56.838 66.959) rotate(-45)" fill="#fff"/><circle cx="1.391" cy="1.391" r="1.391" transform="translate(88.324 66.959) rotate(-45)" fill="#fff"/><path d="M48.071,38.263H30.39S38.411,24.741,48.071,38.263Z" transform="translate(19.967 21.192)" fill="#9e9e9a"/><path d="M67.141,38.263H49.46S57.481,24.741,67.141,38.263Z" transform="translate(32.496 21.192)" fill="#9e9e9a"/><path d="M74.365,63.391l-7.324-5.965a9.7,9.7,0,0,0-12.676-.9,9.667,9.667,0,0,0-12.825.761L34.15,63.26a41.061,41.061,0,0,0,20.116-1.391V62a54.48,54.48,0,0,0,20.1,1.391Z" transform="translate(22.437 35.766)" fill="#9e9e9a"/><path d="M24.258,87.081l2.864-47.911L43.111,29.128a55.748,55.748,0,0,0,38.991,0l15.709,9.844,3.826,46.4,2.719,1.77L105.517,65.6c7.126-18.361,9.727-32.212-1.327-48.495A31.564,31.564,0,0,0,90.339,4.711C76.537-.68,48.6-3.6,32.329,8.12a40.463,40.463,0,0,0-10.265,11.4C13.115,33.681,16.23,48.155,21,64.261l.846,24.177Z" transform="translate(10.753 0.001)" fill="#9e9e9a"/></g></g></g></g></svg>