<svg xmlns="http://www.w3.org/2000/svg" viewBox="0 0 125.04 125.76"><defs><style>.cls-1{fill:#2a3b3d;}</style></defs><title>0 out of 6</title><g id="Layer_2" data-name="Layer 2"><g id="Layer_4" data-name="Layer 4"><path class="cls-1" d="M62.51,0C28.47-.13.15,28.06,0,62.26c-.16,35,27.63,63.35,62.21,63.5A62.88,62.88,0,0,0,62.51,0ZM101,22.53a56.12,56.12,0,0,1,5.46,6.09l-5,26.17a40.84,40.84,0,0,0-4.36-11.85ZM90.9,14.81a55.83,55.83,0,0,1,5.86,4L93.23,37.21a41.07,41.07,0,0,0-5.54-5.69ZM80.27,9.9a55.42,55.42,0,0,1,6.15,2.5L83.36,28.33a40.5,40.5,0,0,0-6-3.19ZM69.18,7.36a55.72,55.72,0,0,1,6.41,1.17l-2.88,15a40.35,40.35,0,0,0-6.39-1.29ZM57.65,7.14c1.61-.14,3.23-.22,4.87-.21.6,0,1.2,0,1.8.05l-2.87,15a40.77,40.77,0,0,0-6.74.58Zm-12,2.43a54.31,54.31,0,0,1,7-1.75L49.51,23.74a40.3,40.3,0,0,0-7.22,3Zm-12.73,6a55.61,55.61,0,0,1,7.4-4L36.65,30.46a41,41,0,0,0-8.3,8.68Zm-26,46.74a54.9,54.9,0,0,1,4.71-22L6.93,64.63C6.91,63.86,6.88,63.1,6.89,62.32Zm2.3,16.32,9.67-50.35a56.77,56.77,0,0,1,8.27-8.51L13.71,89.63A56.21,56.21,0,0,1,9.18,78.65Zm13.7,23.46a56.15,56.15,0,0,1-5.4-6.44l4.45-23.18a40.83,40.83,0,0,0,4.49,11.16Zm10,8.13A55.64,55.64,0,0,1,27.09,106l3.23-16.81a41,41,0,0,0,5.57,5.52Zm10.57,5.23a54.9,54.9,0,0,1-6.12-2.68l2.88-15a40.5,40.5,0,0,0,6,3.06Zm11,2.78a55,55,0,0,1-6.38-1.3l2.79-14.52a40.28,40.28,0,0,0,6.4,1.19ZM66,118.7c-1.25.08-2.5.13-3.76.13q-1.45,0-2.88-.09l2.87-14.93a40.6,40.6,0,0,0,6.76-.68Zm12-2.09a55,55,0,0,1-6.93,1.55l3.14-16.37a40.37,40.37,0,0,0,7.25-3.21Zm12.63-5.47a55.32,55.32,0,0,1-7.33,3.63L87.13,94.7a41.12,41.12,0,0,0,8.43-9.37ZM62.51,96.35A33.47,33.47,0,1,1,95.8,62.83,33.37,33.37,0,0,1,62.51,96.35Zm41.88,3.31a56.19,56.19,0,0,1-8.1,7.63l14-73A55.76,55.76,0,0,1,115,44.36ZM117.72,56a56.8,56.8,0,0,1,.43,7.14,55.79,55.79,0,0,1-6.95,26.78Z"/></g></g></svg>