<svg xmlns="http://www.w3.org/2000/svg" viewBox="0 0 125.04 125.76"><defs><style>.cls-1{fill:#2a3b3d;}</style></defs><title>1 out of 6</title><g id="Layer_2" data-name="Layer 2"><g id="Layer_4" data-name="Layer 4"><path class="cls-1" d="M62.51,0C28.47-.13.15,28.06,0,62.26c-.16,35,27.63,63.35,62.21,63.5A62.88,62.88,0,0,0,62.51,0ZM88.76,14.81a55.83,55.83,0,0,1,5.86,4L91.09,37.21a41.07,41.07,0,0,0-5.54-5.69ZM78.13,9.9a55.42,55.42,0,0,1,6.15,2.5L81.22,28.33a40.5,40.5,0,0,0-6-3.19ZM67,7.36a55.72,55.72,0,0,1,6.41,1.17l-2.88,15a40.35,40.35,0,0,0-6.39-1.29ZM55.51,7.14c1.61-.14,3.23-.22,4.87-.21l.69,0,1.1,0L61,13.13,59.3,21.93a40.77,40.77,0,0,0-6.74.58Zm-12,2.43a54.31,54.31,0,0,1,7-1.75L47.37,23.74a40.3,40.3,0,0,0-7.22,3ZM62.52,29.41A33.47,33.47,0,1,1,29.24,62.93,33.37,33.37,0,0,1,62.52,29.41ZM30.73,15.59a55.61,55.61,0,0,1,7.4-4L34.51,30.46a41,41,0,0,0-8.3,8.68Zm-26,46.74a54.9,54.9,0,0,1,4.71-22L4.79,64.63C4.77,63.86,4.74,63.1,4.75,62.32ZM7,78.65l8.18-42.58,1.49-7.77A56.77,56.77,0,0,1,25,19.78L21.18,39.6l-9.61,50A56.21,56.21,0,0,1,7,78.65Zm13.7,23.46a56.15,56.15,0,0,1-5.4-6.44L17,87.23,19.8,72.49a40.8,40.8,0,0,0,4.27,10.76c.08.13.14.27.22.4Zm10,8.13A55.64,55.64,0,0,1,24.95,106l3.23-16.81a41,41,0,0,0,5.57,5.52Zm10.57,5.23a54.9,54.9,0,0,1-6.12-2.68l2.88-15a40.5,40.5,0,0,0,6,3.06Zm11,2.78a55,55,0,0,1-6.38-1.3l2.79-14.52a40.28,40.28,0,0,0,6.4,1.19Zm11.49.46c-1.25.08-2.5.13-3.76.13h-.41c-.83,0-1.65,0-2.47-.07L59.86,105l.23-1.2a40.6,40.6,0,0,0,6.76-.68Zm12-2.09a55,55,0,0,1-6.93,1.55l3.14-16.37a40.37,40.37,0,0,0,7.25-3.21Zm12.63-5.47a55.32,55.32,0,0,1-7.33,3.63L85,94.7a41.12,41.12,0,0,0,8.43-9.37Zm13.78-11.48a56.19,56.19,0,0,1-8.1,7.63l4.2-21.87,6,3.54Zm0-60.28-7.09,4-.23-.43,3.92-20.4a56.12,56.12,0,0,1,5.46,6.09Zm5.92-5.11c.27.45.51.91.76,1.36l-1.15.64Z"/></g></g></svg>