<svg xmlns="http://www.w3.org/2000/svg" viewBox="0 0 125.04 125.76"><defs><style>.cls-1{fill:#2a3b3d;}</style></defs><title>3 out of 6</title><g id="Layer_2" data-name="Layer 2"><g id="Layer_4" data-name="Layer 4"><path class="cls-1" d="M62.51,0C28.47-.13.15,28.06,0,62.26c-.16,35,27.63,63.35,62.21,63.5A62.88,62.88,0,0,0,62.51,0ZM80.27,9.9a55.51,55.51,0,0,1,6.15,2.5L83.36,28.33a40.5,40.5,0,0,0-6-3.19ZM69.18,7.36a55.82,55.82,0,0,1,6.41,1.17l-2.88,15a40.35,40.35,0,0,0-6.39-1.29ZM57.64,7.14c1.61-.14,3.23-.22,4.87-.21l.69,0,1.1,0-1.18,6.15-1.69,8.81a40.82,40.82,0,0,0-6.74.58Zm-12,2.43a54.23,54.23,0,0,1,7-1.75L49.51,23.74a40.23,40.23,0,0,0-7.22,3ZM6.89,62.32a54.9,54.9,0,0,1,4.71-22L6.93,64.63C6.91,63.86,6.88,63.1,6.89,62.32ZM19.11,87.23l2.83-14.74a40.8,40.8,0,0,0,4.27,10.76Zm4.2-47.63-9.61,50a56.21,56.21,0,0,1-4.52-11l8.18-42.58,1.49-7.77a56.79,56.79,0,0,1,8.27-8.51Zm9.55-24a55.55,55.55,0,0,1,7.4-4L36.65,30.46a41,41,0,0,0-8.3,8.68ZM62.51,96.35A33.47,33.47,0,1,1,95.8,62.83,33.37,33.37,0,0,1,62.51,96.35ZM93.23,37.21a41.1,41.1,0,0,0-5.54-5.69L90.9,14.81a55.76,55.76,0,0,1,5.86,4Zm11.16,2.17-7.09,4-.23-.43L101,22.53a56.12,56.12,0,0,1,5.46,6.09Z"/></g></g></svg>