<svg xmlns="http://www.w3.org/2000/svg" viewBox="0 0 125.04 125.76"><defs><style>.cls-1{fill:#2a3b3d;}</style></defs><title>5 out of 6</title><g id="Layer_2" data-name="Layer 2"><g id="Layer_4" data-name="Layer 4"><path class="cls-1" d="M62.51,0C28.47-.13.15,28.06,0,62.26c-.16,35,27.63,63.35,62.21,63.5A62.88,62.88,0,0,0,62.51,0ZM80.27,9.9a55.51,55.51,0,0,1,6.15,2.5L83.36,28.33a40.5,40.5,0,0,0-6-3.19ZM69.18,7.36a55.82,55.82,0,0,1,6.41,1.17l-2.88,15a40.35,40.35,0,0,0-6.39-1.29Zm-6-.42,1.1,0-1.18,6.15Zm-.69,89.4A33.47,33.47,0,1,1,95.8,62.83,33.37,33.37,0,0,1,62.51,96.35ZM93.23,37.21a41.1,41.1,0,0,0-5.54-5.69L90.9,14.81a55.76,55.76,0,0,1,5.86,4Zm11.16,2.17-7.09,4-.23-.43L101,22.53a56.12,56.12,0,0,1,5.46,6.09Z"/></g></g></svg>