<?xml version="1.0" encoding="UTF-8" standalone="no"?>
<svg
   xmlns:dc="http://purl.org/dc/elements/1.1/"
   xmlns:cc="http://creativecommons.org/ns#"
   xmlns:rdf="http://www.w3.org/1999/02/22-rdf-syntax-ns#"
   xmlns:svg="http://www.w3.org/2000/svg"
   xmlns="http://www.w3.org/2000/svg"
   xmlns:sodipodi="http://sodipodi.sourceforge.net/DTD/sodipodi-0.dtd"
   xmlns:inkscape="http://www.inkscape.org/namespaces/inkscape"
   viewBox="0 0 35 35"
   version="1.1"
   id="svg14"
   sodipodi:docname="check.svg"
   inkscape:version="0.92.3 (2405546, 2018-03-11)">
  <metadata
     id="metadata18">
    <rdf:RDF>
      <cc:Work
         rdf:about="">
        <dc:format>image/svg+xml</dc:format>
        <dc:type
           rdf:resource="http://purl.org/dc/dcmitype/StillImage" />
        <dc:title>Asset 2</dc:title>
      </cc:Work>
    </rdf:RDF>
  </metadata>
  <sodipodi:namedview
     pagecolor="#ffffff"
     bordercolor="#666666"
     borderopacity="1"
     objecttolerance="10"
     gridtolerance="10"
     guidetolerance="10"
     inkscape:pageopacity="0"
     inkscape:pageshadow="2"
     inkscape:window-width="1853"
     inkscape:window-height="1022"
     id="namedview16"
     showgrid="false"
     inkscape:zoom="6.7428571"
     inkscape:cx="-7.0444915"
     inkscape:cy="17.5"
     inkscape:window-x="67"
     inkscape:window-y="30"
     inkscape:window-maximized="1"
     inkscape:current-layer="svg14" />
  <defs
     id="defs4">
    <style
       id="style2">.cls-1{fill:none;stroke:#f2f2f2;stroke-linecap:round;stroke-miterlimit:10;stroke-width:3px;}</style>
  </defs>
  <title
     id="title6">Asset 2</title>
  <g
     id="Layer_2"
     data-name="Layer 2">
    <g
       id="Layer_1-2"
       data-name="Layer 1">
      <circle
         cx="17.5"
         cy="17.5"
         r="17.5"
         id="circle8" />
      <path
         class="cls-1"
         d="M25.75,10.84,16.61,23.46a1.71,1.71,0,0,1-2.75,0l-5-5.06"
         id="path10" />
    </g>
  </g>
  <path
     style="fill:#699b69;fill-opacity:1;stroke-width:0.14830509"
     d="M 16.595339,34.89099 C 10.435172,34.601415 4.7284825,30.8613 1.9400157,25.286017 -0.53514996,20.33715 -0.53514996,14.662849 1.9400157,9.7139831 2.84891,7.8967325 3.7309358,6.6849014 5.2379683,5.1828667 8.5983914,1.8335879 12.710961,0.13755472 17.48751,0.13112818 c 4.915461,-0.006613 9.295937,1.86941802 12.652197,5.41857102 2.41562,2.5544516 3.987645,5.7164938 4.542291,9.1365778 0.873001,5.38312 -0.793479,10.799761 -4.542291,14.764024 -3.500187,3.701352 -8.428833,5.681158 -13.544368,5.440689 z m 0.04299,-9.517825 c 0.30263,-0.155988 0.757475,-0.506359 1.01077,-0.778601 0.503165,-0.540807 9.2404,-12.586918 9.540523,-13.153612 0.257855,-0.486885 0.07186,-1.312606 -0.392625,-1.7430793 -0.559352,-0.5183893 -1.522349,-0.4939985 -2.099915,0.053187 -0.236765,0.2243115 -2.35033,3.0773303 -4.69681,6.3400423 -2.346481,3.262712 -4.38576,6.060069 -4.531732,6.216348 -0.258658,0.276923 -0.336295,0.211787 -3.054469,-2.562589 L 9.625,16.898126 l -0.7158572,0.0043 c -0.9701505,0.0059 -1.5828716,0.578983 -1.5828716,1.480574 0,0.590172 0.091477,0.704228 2.9234058,3.644947 1.815336,1.885075 3.150386,3.148068 3.522246,3.33214 0.791399,0.391746 2.11996,0.397792 2.866401,0.01305 z"
     id="path3724"
     inkscape:connector-curvature="0" />
</svg>
