<svg xmlns="http://www.w3.org/2000/svg" viewBox="0 0 84 62.03"><defs><style>.cls-1{fill:#fcf7f1;}</style></defs><title>logo</title><g id="Layer_2" data-name="Layer 2"><g id="Layer_2-2" data-name="Layer 2"><path class="cls-1" d="M25.1,62a1.46,1.46,0,0,1-1.46-1.48,4.44,4.44,0,0,1,.5-2.5c3.58-4.89,4.9-10.44,5.63-16.18a1.47,1.47,0,0,0-.67-1.42c-2.78-1.78-3.28-3.33-2.08-5.8,1.43-2.95,5.83-5.22,8.33-4a4.25,4.25,0,0,1,2.15,2.89c.24,3.76.66,7.65-.07,11.29a30.22,30.22,0,0,1-10.1,16.85,1.47,1.47,0,0,1-1,.37Z"/><path class="cls-1" d="M25.1,36.41a12.16,12.16,0,0,0,0-1.94c-.33-2-1.18-3.58-3.49-3.65S18.31,32.15,18,34.25c-.14.92-.33,1.83-.54,2.73-.75,3.11-2.27,3.82-4.67,1.67a75,75,0,0,1-7.21-7.9C4.43,29.38,3.38,28,1.45,28.8s-1.53,2.67-1,4.11a26.86,26.86,0,0,0,13.28,15.4,6.83,6.83,0,0,0,9.62-3.81Z"/><path class="cls-1" d="M29.49,4.32a12.1,12.1,0,0,1,0,8.37q-.12.31-.25.62c-1.15,2.64-3.53,3.47-6.16,3.35a5.83,5.83,0,0,1-5.61-4.22,11.18,11.18,0,0,1,.89-9.2,6,6,0,0,1,10.42-.42A9,9,0,0,1,29.49,4.32Z"/><path class="cls-1" d="M13.38,29.21C6.2,29.23.94,23.89,1.17,16.87c.06-1.87.72-3.23,2.8-2.81,1.59.33,3.12.75,2.51,3.31-.73,3.1,2.09,4.45,4,6.06,1.65,1.37,3.1.41,4.48-.69a40.72,40.72,0,0,1,3.56-2.67c1.35-.86,3.19-1.85,4.15-.08a6.2,6.2,0,0,1,.1,4.83C21.6,27.49,17.31,29.2,13.38,29.21Z"/><path class="cls-1" d="M38.43,28.76a2.47,2.47,0,0,1-1.15-.12,79.68,79.68,0,0,1-8.7-3.17,3.56,3.56,0,0,1-1.64-5.38c1.19-1.87,3.33-2.19,5.59-.66,1.37.93,2.46,2.39,3.93,3,1.25.55,3.26.88,4.22.24s1.42-2.62,1.94-4.06c.17-.46-.09-.68-.13-1.61,0-.37.35-.66.54-1a2.72,2.72,0,0,1,4.84.72C48.81,22.86,44.52,27.88,38.43,28.76Z"/></g></g></svg>