<svg xmlns="http://www.w3.org/2000/svg" viewBox="0 0 68 68"><defs><style>.cls-1{fill:none;}.cls-1,.cls-2{stroke:#fff;stroke-miterlimit:10;stroke-width:2px;}.cls-2,.cls-3{fill:#fff;}</style></defs><title>Asset 20</title><g id="Layer_2" data-name="Layer 2"><g id="Layer_1-2" data-name="Layer 1"><circle class="cls-1" cx="34" cy="34" r="33"/><polygon class="cls-2" points="41 27 41 22 26.67 22 21 18 21 42 26 42 26 27 41 27"/><polygon class="cls-2" points="41 27 41 42 26 42 26 47 40.33 47 46 51 46 27 41 27"/><path class="cls-3" d="M41,27H26V42H41ZM28.5,36A1.5,1.5,0,1,1,30,34.5,1.5,1.5,0,0,1,28.5,36Zm5,0A1.5,1.5,0,1,1,35,34.5,1.5,1.5,0,0,1,33.5,36Zm5,0A1.5,1.5,0,1,1,40,34.5,1.5,1.5,0,0,1,38.5,36Z"/></g></g></svg>