<svg xmlns="http://www.w3.org/2000/svg" viewBox="0 0 68 68"><defs><style>.cls-1{fill:none;}.cls-1,.cls-2{stroke:#f5ba5e;stroke-miterlimit:10;stroke-width:2px;}.cls-2,.cls-3{fill:#f5ba5e;}</style></defs><title>Asset 27</title><g id="Layer_2" data-name="Layer 2"><g id="Layer_1-2" data-name="Layer 1"><circle class="cls-1" cx="34" cy="34" r="33"/><polygon class="cls-2" points="41 28 41 23 26.67 23 21 19 21 43 26 43 26 28 41 28"/><polygon class="cls-2" points="41 28 41 43 26 43 26 48 40.33 48 46 52 46 28 41 28"/><path class="cls-3" d="M26,28V43H41V28Zm2.5,9A1.5,1.5,0,1,1,30,35.5,1.5,1.5,0,0,1,28.5,37Zm5,0A1.5,1.5,0,1,1,35,35.5,1.5,1.5,0,0,1,33.5,37Zm5,0A1.5,1.5,0,1,1,40,35.5,1.5,1.5,0,0,1,38.5,37Z"/></g></g></svg>