<svg xmlns="http://www.w3.org/2000/svg" viewBox="0 0 72 21.23"><defs><style>.cls-1{fill:#f8f8f8;}</style></defs><title>games</title><g id="Layer_2" data-name="Layer 2"><g id="Layer_2-2" data-name="Layer 2"><path class="cls-1" d="M26.93,12.31H21.09c-.08.33-.15.65-.24,1A10.6,10.6,0,1,1,10.49,0Q24,0,37.5,0A10.52,10.52,0,0,1,48,9.82a10.6,10.6,0,0,1-21,2.75ZM11.72,9.5c0-.22,0-.39,0-.56,0-.93,0-1.86,0-2.79a1.11,1.11,0,0,0-2.22,0c0,.5,0,1,0,1.49s0,1.23,0,1.87H8.93c-.93,0-1.86,0-2.79,0a1.11,1.11,0,0,0,0,2.22c.46,0,.93,0,1.4,0h2c0,.22,0,.39,0,.56,0,.93,0,1.86,0,2.79a1.11,1.11,0,0,0,2.22,0c0-.46,0-.93,0-1.4,0-.65,0-1.29,0-2h3.16c.8,0,1.31-.45,1.3-1.13A1.14,1.14,0,0,0,14.9,9.5Zm30.14-1.7A1.67,1.67,0,1,0,40.2,9.5,1.68,1.68,0,0,0,41.86,7.81ZM34.6,11.74a1.67,1.67,0,1,0,1.68,1.68A1.67,1.67,0,0,0,34.6,11.74Z"/></g></g></svg>