<svg xmlns="http://www.w3.org/2000/svg" viewBox="0 0 72 23.13"><defs><style>.cls-1{fill:#f8f8f8;}</style></defs><title>groups</title><g id="Layer_2" data-name="Layer 2"><g id="Layer_2-2" data-name="Layer 2"><path class="cls-1" d="M33.73,19.05a7.78,7.78,0,0,1,5.18-3.49,7.54,7.54,0,0,1,4.69.62c2.69,1.27,4.62,4.31,4.38,6.94H0A7.6,7.6,0,0,1,4.9,16a7.82,7.82,0,0,1,9.74,3.73c1.78-4.11,4.8-6.57,9.33-6.72S31.66,15,33.73,19.05Z"/><path class="cls-1" d="M18.73,5.58a5.58,5.58,0,1,1,5.55,5.59A5.55,5.55,0,0,1,18.73,5.58Z"/><path class="cls-1" d="M12.81,8.82A5.11,5.11,0,1,1,7.73,3.69,5.11,5.11,0,0,1,12.81,8.82Z"/><path class="cls-1" d="M35.19,8.68a5.11,5.11,0,1,1,5,5.17A5.08,5.08,0,0,1,35.19,8.68Z"/></g></g></svg>