<svg xmlns="http://www.w3.org/2000/svg" width="28" height="28" viewBox="0 0 28 28"><g transform="translate(-60 -198)"><rect width="28" height="28" transform="translate(60 198)" fill="#fff" opacity="0"/><path d="M20.736,14.193l-9.49-9.522a1.053,1.053,0,0,0-1.493,0L.264,14.193a.664.664,0,0,0-.23.723.611.611,0,0,0,.642.357H1.744v8.463A1.624,1.624,0,0,0,3.3,25.361h4.81V19.625h4.655v5.736H17.7a1.606,1.606,0,0,0,1.523-1.625V15.273h1.1a.611.611,0,0,0,.642-.357A.664.664,0,0,0,20.736,14.193Z" transform="translate(63.546 197.091)" fill="#fff"/></g></svg>