<svg xmlns="http://www.w3.org/2000/svg" viewBox="0 0 68 68"><defs><style>.cls-1,.cls-3{fill:none;stroke-width:2px;}.cls-1,.cls-2,.cls-3{stroke:#afbab9;}.cls-1,.cls-2{stroke-miterlimit:10;}.cls-2{fill:#afbab9;}.cls-3{stroke-linecap:round;stroke-linejoin:round;}</style></defs><title>Asset 31</title><g id="Layer_2" data-name="Layer 2"><g id="Layer_1-2" data-name="Layer 1"><circle class="cls-1" cx="34" cy="34" r="33"/><circle class="cls-2" cx="34" cy="22.5" r="6.5"/><path class="cls-3" d="M16,52l3-10s7.16-5.37,13.85-.87A2.65,2.65,0,0,1,34,43.33V52S25,42,16,52Z"/><path class="cls-3" d="M52,52,49,42s-7.16-5.37-13.85-.87A2.65,2.65,0,0,0,34,43.33V52S43,42,52,52Z"/><path class="cls-2" d="M32.85,41.13A2.61,2.61,0,0,1,34,43H34a2.61,2.61,0,0,1,1.11-1.87A11,11,0,0,1,44.89,40,11.17,11.17,0,0,0,34,30,11.17,11.17,0,0,0,23.11,40,11,11,0,0,1,32.85,41.13Z"/></g></g></svg>