<svg xmlns="http://www.w3.org/2000/svg" viewBox="0 0 44.94 58.92"><defs><style>.cls-1{fill:#cdd3d1;}</style></defs><title>Asset 2</title><g id="Layer_2" data-name="Layer 2"><g id="Layer_1-2" data-name="Layer 1"><path class="cls-1" d="M39,22.71H6a6,6,0,0,0-6,6v24.2a6,6,0,0,0,6,6H39a6,6,0,0,0,6-6V28.72A6,6,0,0,0,39,22.71ZM24.66,42.08V47.5a2.19,2.19,0,1,1-4.38,0V42.08a4.36,4.36,0,0,1-1.89-3.63,4.2,4.2,0,0,1,4.08-4.31,4.2,4.2,0,0,1,4.08,4.31A4.36,4.36,0,0,1,24.66,42.08Z"/><path class="cls-1" d="M12.22,21c0-8,4.52-14.51,10.11-14.51S32.43,13,32.43,21c0,.08,0,.16,0,.24h6C38.13,9.45,31.11,0,22.47,0S6.8,9.45,6.53,21.24h5.7C12.23,21.15,12.22,21.08,12.22,21Z"/></g></g></svg>