<?xml version="1.0" encoding="UTF-8" standalone="no"?>
<svg
   xmlns:dc="http://purl.org/dc/elements/1.1/"
   xmlns:cc="http://creativecommons.org/ns#"
   xmlns:rdf="http://www.w3.org/1999/02/22-rdf-syntax-ns#"
   xmlns:svg="http://www.w3.org/2000/svg"
   xmlns="http://www.w3.org/2000/svg"
   xmlns:sodipodi="http://sodipodi.sourceforge.net/DTD/sodipodi-0.dtd"
   xmlns:inkscape="http://www.inkscape.org/namespaces/inkscape"
   viewBox="0 0 52 52"
   version="1.1"
   id="svg3777"
   sodipodi:docname="locked.svg"
   inkscape:version="0.92.3 (2405546, 2018-03-11)">
  <metadata
     id="metadata3781">
    <rdf:RDF>
      <cc:Work
         rdf:about="">
        <dc:format>image/svg+xml</dc:format>
        <dc:type
           rdf:resource="http://purl.org/dc/dcmitype/StillImage" />
      </cc:Work>
    </rdf:RDF>
  </metadata>
  <sodipodi:namedview
     pagecolor="#ffffff"
     bordercolor="#666666"
     borderopacity="1"
     objecttolerance="10"
     gridtolerance="10"
     guidetolerance="10"
     inkscape:pageopacity="0"
     inkscape:pageshadow="2"
     inkscape:window-width="1853"
     inkscape:window-height="1022"
     id="namedview3779"
     showgrid="false"
     inkscape:zoom="15.865385"
     inkscape:cx="26"
     inkscape:cy="26"
     inkscape:window-x="67"
     inkscape:window-y="30"
     inkscape:window-maximized="1"
     inkscape:current-layer="svg3777" />
  <defs
     id="defs3769">
    <style
       id="style3767">.cls-1{fill:#aae2d7;stroke:#000;stroke-miterlimit:10;stroke-width:6px;}</style>
  </defs>
  <title
     id="title3771">Asset 3</title>
  <g
     id="Layer_2"
     data-name="Layer 2">
    <g
       id="Layer_1-2"
       data-name="Layer 1">
      <circle
         class="cls-1"
         cx="26"
         cy="26"
         r="23"
         id="circle3773" />
    </g>
  </g>
  <g
     data-name="Layer 2"
     id="g3794"
     transform="matrix(0.7769697,0,0,0.7769697,5.7987879,5.7987879)"
     style="fill:#808080">
    <g
       data-name="Layer 1"
       id="g3792"
       style="fill:#808080">
      <circle
         id="circle3790"
         r="23"
         cy="26"
         cx="26"
         class="cls-1"
         style="fill:#808080;stroke:#000000;stroke-width:6px;stroke-miterlimit:10" />
    </g>
  </g>
  <path
     style="fill:#00ffff;fill-opacity:1;stroke-width:0.0630303"
     d="m 24.701576,41.467886 c -3.54104,-0.414238 -6.120575,-1.485023 -8.687551,-3.606268 -2.961299,-2.447098 -5.009659,-6.267732 -5.430086,-10.128285 -0.08823,-0.810202 -0.08823,-2.656464 0,-3.466666 0.174565,-1.602929 0.702078,-3.446936 1.401801,-4.900215 2.277907,-4.731063 6.550194,-7.902804 11.738866,-8.714922 0.89933,-0.14076 2.735029,-0.189476 3.687273,-0.09785 3.552429,0.341809 6.737607,1.795095 9.303428,4.24483 4.94405,4.720366 6.20699,12.12314 3.109999,18.229372 -1.903276,3.752623 -5.417326,6.681418 -9.413169,7.845432 -1.466558,0.427217 -2.464561,0.571692 -4.134804,0.598573 -0.745333,0.01199 -1.454424,0.0102 -1.575757,-0.004 z"
     id="path14"
     inkscape:connector-curvature="0" />
  <path
     style="fill:#808080;fill-opacity:1;stroke-width:0.0630303"
     d="M 23.628633,41.284788 C 21.177242,40.858975 19.381312,40.168792 17.50471,38.93134 15.64536,37.705265 14.044818,36.063274 12.884446,34.191426 12.006307,32.774863 11.224794,30.863341 10.87545,29.277576 10.616256,28.101023 10.567515,27.567415 10.570314,25.93697 c 0.0023,-1.358226 0.02176,-1.654334 0.161291,-2.458182 1.105852,-6.370868 5.843281,-11.30553 12.126887,-12.631765 1.154343,-0.243639 1.995751,-0.307759 3.590993,-0.273654 1.602567,0.03426 2.460307,0.161465 3.918062,0.58105 5.161616,1.485669 9.306649,5.788275 10.625239,11.029155 0.367372,1.460157 0.444016,2.145006 0.437692,3.910971 -0.005,1.405123 -0.02338,1.674726 -0.169486,2.489697 -0.295287,1.647143 -0.733868,2.960362 -1.484059,4.443637 -2.343526,4.633612 -7.073417,7.886025 -12.144448,8.350882 -1.259272,0.115437 -3.038731,0.07367 -4.003852,-0.09397 z"
     id="path15"
     inkscape:connector-curvature="0" />
</svg>
