<svg xmlns="http://www.w3.org/2000/svg" viewBox="0 0 72 48"><defs><style>.cls-1{fill:#f8f8f8;}.cls-2{fill:none;}</style></defs><title>logout</title><g id="Layer_2" data-name="Layer 2"><g id="Layer_2-2" data-name="Layer 2"><path class="cls-1" d="M9.33,5.2l.43,0H21A2.37,2.37,0,0,1,23.38,7a2.4,2.4,0,0,1-2.45,3c-2.07,0-4.13,0-6.2,0h-.61V38h.56c2.08,0,4.17,0,6.25,0a2.4,2.4,0,1,1,0,4.79H9.33Z"/><path class="cls-1" d="M30.72,26.4H20a2.4,2.4,0,1,1-.06-4.79c3.4,0,6.8,0,10.2,0h.62l-.41-.48-3.37-3.62a2.41,2.41,0,1,1,3.51-3.29q3.74,4,7.46,8.07a2.34,2.34,0,0,1,0,3.48q-3.72,4-7.45,8a2.4,2.4,0,1,1-3.51-3.28l3.37-3.62Z"/><path class="cls-2" d="M0,0H48V48H0Z"/></g></g></svg>