<svg xmlns="http://www.w3.org/2000/svg" viewBox="0 0 72.99 34.66"><defs><style>.cls-1{fill:#fcf7f1;}.cls-2{fill:none;}</style></defs><title>need to talk</title><g id="Layer_2" data-name="Layer 2"><g id="Layer_2-2" data-name="Layer 2"><path class="cls-1" d="M5.76,16.18H2.37A2.18,2.18,0,0,1,0,13.83c0-1.77,0-3.54,0-5.31a4.21,4.21,0,0,1,1.13-3A12.21,12.21,0,0,1,5.26,2.63,27.87,27.87,0,0,1,13.63.31,37.09,37.09,0,0,1,21,.09,28.43,28.43,0,0,1,32.78,3.17a10.09,10.09,0,0,1,3.35,2.72A4,4,0,0,1,37,8.42c0,1.78,0,3.57,0,5.35a2.19,2.19,0,0,1-2.39,2.4H27.81a2.19,2.19,0,0,1-2.39-2.4c0-1.08,0-2.16,0-3.23a4.85,4.85,0,0,0-2-4.13A8,8,0,0,0,13,6.87a4.55,4.55,0,0,0-1.47,3.43c0,1.17,0,2.34,0,3.5a2.19,2.19,0,0,1-2.38,2.37Z"/><path class="cls-1" d="M5.33,20.8h4a6.75,6.75,0,0,0,3.52-.95,6.67,6.67,0,0,0,3.35-5.75c0-1.2,0-2.41,0-3.62a.78.78,0,0,1,.23-.51,3.23,3.23,0,0,1,4.26.13.54.54,0,0,1,.12.37c0,1.13,0,2.26,0,3.39a6.8,6.8,0,0,0,6.94,6.95h4a20.91,20.91,0,0,1,.51,3c.09,2.92.1,5.85.09,8.77a2.11,2.11,0,0,1-2.12,2.11H7.05a2.15,2.15,0,0,1-2.29-1.5,2.93,2.93,0,0,1-.12-.83q0-3.6,0-7.2A15.33,15.33,0,0,1,5.33,20.8ZM20.8,27.73c.85,0,1.64,0,2.44,0a2.16,2.16,0,0,0,2.18-2.14,2.17,2.17,0,0,0-2-2.45,15.52,15.52,0,0,0-1.58,0H20.8c0-.85,0-1.65,0-2.44a2.15,2.15,0,0,0-2.14-2.18,2.17,2.17,0,0,0-2.45,2,16.07,16.07,0,0,0,0,1.61c0,.34,0,.68,0,1-.85,0-1.64,0-2.44,0a2.15,2.15,0,0,0-2.18,2.06,2.16,2.16,0,0,0,1.81,2.5,9.06,9.06,0,0,0,1.38.05h1.43c0,.84,0,1.62,0,2.4a2.12,2.12,0,0,0,1.72,2.16A2.25,2.25,0,0,0,20.8,30C20.81,29.23,20.8,28.51,20.8,27.73Z"/><path class="cls-2" d="M20.8,27.73c0,.78,0,1.51,0,2.23a2.25,2.25,0,0,1-2.9,2.32,2.12,2.12,0,0,1-1.72-2.16c0-.78,0-1.56,0-2.4H14.76a9.06,9.06,0,0,1-1.38-.05,2.16,2.16,0,0,1-1.81-2.5,2.15,2.15,0,0,1,2.18-2.06c.79,0,1.59,0,2.44,0,0-.36,0-.7,0-1a16.07,16.07,0,0,1,0-1.61,2.17,2.17,0,0,1,2.45-2,2.15,2.15,0,0,1,2.14,2.18c0,.79,0,1.59,0,2.44h1.08a15.52,15.52,0,0,1,1.58,0,2.17,2.17,0,0,1,2,2.45,2.16,2.16,0,0,1-2.18,2.14C22.45,27.74,21.65,27.73,20.8,27.73Z"/></g></g></svg>