<svg xmlns="http://www.w3.org/2000/svg" viewBox="0 0 68 68"><defs><style>.cls-1{fill:none;stroke:#afbab9;stroke-miterlimit:10;stroke-width:2px;}.cls-2{fill:#afbab9;}</style></defs><title>Asset 33</title><g id="Layer_2" data-name="Layer 2"><g id="Layer_1-2" data-name="Layer 1"><circle class="cls-1" cx="34" cy="34" r="33"/><circle class="cls-2" cx="34" cy="19.27" r="4.2"/><path class="cls-2" d="M48,36.53c-2.21-.51-4.39-2.86-5.4-5.35a15.83,15.83,0,0,1-.5-4c-.17-1.34-.6-3.14-2.19-3.39a17.61,17.61,0,0,0-2.65,0H30.7a15.36,15.36,0,0,0-2.21,0,2.65,2.65,0,0,0-1.75,1.33c-.87,1.36-.69,3-1.06,4.5,0,.1-.05.21-.09.31a12.42,12.42,0,0,1-1.9,3.47,8.66,8.66,0,0,1-1.61,1.66,12.73,12.73,0,0,1-2.07,1V38.4a12.19,12.19,0,0,0,8-3.74h.06L28.47,42,34,44.93,39.53,42l.37-6.95A12.19,12.19,0,0,0,48,38.87Z"/><path class="cls-2" d="M22.33,49.87l1.87,1.89S33,53.52,44.57,45.95a2.25,2.25,0,0,0,.72-3.16c-.7-.94-2.34-1.42-6.09.47C39.19,43.26,28,49.87,22.33,49.87Z"/><path class="cls-2" d="M45.67,49.87l-1.87,1.89S35,53.52,23.43,45.95a2.25,2.25,0,0,1-.72-3.16c.7-.94,2.34-1.42,6.09.47C28.81,43.26,40,49.87,45.67,49.87Z"/></g></g></svg>