<svg xmlns="http://www.w3.org/2000/svg" viewBox="0 0 92 39.52"><defs><style>.cls-1{fill:none;}.cls-2{fill:#fcf7f1;}</style></defs><title>resources</title><g id="Layer_2" data-name="Layer 2"><g id="Layer_2-2" data-name="Layer 2"><path class="cls-1" d="M4.33,13.06H1.68A1.53,1.53,0,0,1,0,11.38Q0,6.52,0,1.67A1.52,1.52,0,0,1,1.66,0H46.38A1.52,1.52,0,0,1,48,1.62q0,4.92,0,9.83a1.52,1.52,0,0,1-1.62,1.61H43.83l-.16,0v.52q0,12.06,0,24.12a1.56,1.56,0,0,1-1.78,1.8H6.12a1.56,1.56,0,0,1-1.79-1.79q0-12.06,0-24.12C4.33,13.45,4.33,13.28,4.33,13.06ZM40.59,36.45V13.1H7.4V36.45ZM3.07,10H44.91V3.08H3.07Z"/><path class="cls-2" d="M40.59,36.45H7.4V13.1H40.59ZM17.23,20H30.77V17H17.23Z"/><path class="cls-2" d="M3.07,10V3.08H44.91V10Z"/><path class="cls-1" d="M17.23,20V17H30.77v3Z"/></g></g></svg>