<svg xmlns="http://www.w3.org/2000/svg" viewBox="0 0 92 35.82"><defs><style>.cls-1{fill:#f8f8f8;}.cls-2{fill:none;}</style></defs><title>scores</title><g id="Layer_2" data-name="Layer 2"><g id="Layer_2-2" data-name="Layer 2"><path class="cls-1" d="M11.93,16.74A6.57,6.57,0,0,1,20.28,6.67a6.66,6.66,0,0,1,2.07,8.76l1.86,1.49c1.53,1.23,3.07,2.45,4.6,3.68a.49.49,0,0,0,.59.1,5.82,5.82,0,0,1,2.75-.47.51.51,0,0,0,.4-.23c1.43-2.87,2.84-5.75,4.27-8.65-.21-.24-.42-.48-.62-.73A6.64,6.64,0,1,1,41,13.07a.7.7,0,0,0-.78.48q-1.92,4-3.89,7.88a.52.52,0,0,0,.11.71A6.26,6.26,0,0,1,38,28.89a6.18,6.18,0,0,1-5.35,4.34,6.2,6.2,0,0,1-6.14-2.64,6.32,6.32,0,0,1-.61-6.69.48.48,0,0,0-.17-.71q-3.1-2.43-6.17-4.89a.52.52,0,0,0-.6-.1,6.31,6.31,0,0,1-3.1.39.47.47,0,0,0-.38.13c-1.32,2.07-2.63,4.14-3.94,6.22a7,7,0,0,1,1.54,3.78,6.57,6.57,0,1,1-7.53-6,14.43,14.43,0,0,1,2.21,0,.54.54,0,0,0,.41-.14c1.25-1.95,2.48-3.91,3.71-5.87A.31.31,0,0,0,11.93,16.74Zm32-10.17A2.53,2.53,0,1,0,41.37,9.1,2.5,2.5,0,0,0,43.9,6.57ZM34.3,26.81a2.53,2.53,0,1,0-2.56,2.51A2.5,2.5,0,0,0,34.3,26.81ZM9,29.33a2.53,2.53,0,1,0-2.55,2.51A2.5,2.5,0,0,0,9,29.33Zm10.1-17.19a2.53,2.53,0,1,0-2.54,2.52A2.5,2.5,0,0,0,19.15,12.14Z"/><path class="cls-2" d="M43.9,6.57a2.53,2.53,0,1,1-2.54-2.52A2.51,2.51,0,0,1,43.9,6.57Z"/><path class="cls-2" d="M34.3,26.81a2.53,2.53,0,1,1-2.52-2.55A2.51,2.51,0,0,1,34.3,26.81Z"/><path class="cls-2" d="M9,29.33a2.53,2.53,0,1,1-2.52-2.54A2.51,2.51,0,0,1,9,29.33Z"/><path class="cls-2" d="M19.15,12.14a2.53,2.53,0,1,1-2.49-2.53A2.51,2.51,0,0,1,19.15,12.14Z"/></g></g></svg>