<svg xmlns="http://www.w3.org/2000/svg" viewBox="0 0 72 48"><defs><style>.cls-1{fill:none;}.cls-2{fill:#f8f8f8;}</style></defs><title>settings</title><g id="Layer_2" data-name="Layer 2"><g id="Layer_2-2" data-name="Layer 2"><path class="cls-1" d="M0,0H48V48H0Z"/><path class="cls-2" d="M9.94,24c0-.59,0-1.18,0-1.77a2.32,2.32,0,0,0-1.2-2.13c-.28-.17-.56-.33-.82-.51A2.79,2.79,0,0,1,7,16q.72-1.36,1.54-2.67a2.78,2.78,0,0,1,3.61-1c.31.15.6.33.91.48a2.32,2.32,0,0,0,2.34,0l3.12-1.79a2.38,2.38,0,0,0,1.22-2.06,8.35,8.35,0,0,1,.13-1.53,2.75,2.75,0,0,1,2.67-2.08c1,0,1.94,0,2.91,0A2.8,2.8,0,0,1,28.23,8c0,.3,0,.61,0,.91a2.36,2.36,0,0,0,1.23,2.06l3.06,1.77a2.45,2.45,0,0,0,2.45,0A6.58,6.58,0,0,1,37,12a2.53,2.53,0,0,1,2.54,1.32c.52.84,1,1.7,1.48,2.57A2.81,2.81,0,0,1,40,19.64c-.27.18-.55.33-.83.51a2.29,2.29,0,0,0-1.14,2q0,1.8,0,3.6a2.31,2.31,0,0,0,1.18,2.08c.28.17.56.33.83.51A2.8,2.8,0,0,1,41,32q-.73,1.39-1.57,2.72a2.78,2.78,0,0,1-3.57,1c-.34-.16-.67-.37-1-.54a2.25,2.25,0,0,0-2.19,0c-1.1.61-2.18,1.25-3.26,1.88a2.32,2.32,0,0,0-1.15,2,9,9,0,0,1-.14,1.58,2.74,2.74,0,0,1-2.64,2.06q-1.48,0-3,0A2.8,2.8,0,0,1,19.77,40c0-.32,0-.65,0-1a2.33,2.33,0,0,0-1.2-2l-3.11-1.8a2.44,2.44,0,0,0-2.4,0A7,7,0,0,1,11,36a2.5,2.5,0,0,1-2.49-1.3Q7.73,33.39,7,32.05a2.8,2.8,0,0,1,.93-3.68c.32-.21.66-.39,1-.6a2.25,2.25,0,0,0,1-1.88C10,25.27,9.94,24.64,9.94,24ZM15.77,24a8.23,8.23,0,1,0,8.3-8.18A8.23,8.23,0,0,0,15.77,24Z"/></g></g></svg>