<svg xmlns="http://www.w3.org/2000/svg" width="222" height="78.095" viewBox="0 0 222 78.095"><g transform="translate(0 8.769)" opacity="0.5"><path d="M187.922,225.061c-.592,0-1.428.3-2,0s-.666-1.522-1-2c-.583-.006-1.443.3-2,0a4.864,4.864,0,0,1-1-1,.707.707,0,0,1,1-1,8.373,8.373,0,0,0,1,1c.248.131-.257-.055,0,0-.113-.539.754-.534,1-1h0c.425-.8,1.274-1.384,2-1,.36.19-.1.582,0,1,.09.4.2.624,0,1h0a1.888,1.888,0,0,1-1,1,8.716,8.716,0,0,0,1,1,2.379,2.379,0,0,0,2,0c.269-.108.892-.269,1,0s-.731.892-1,1C188.576,225.2,188.316,225.061,187.922,225.061Zm-2-4c-.186,0,.117-.221,0,0h0a1.23,1.23,0,0,0,0,1c.378-.105-.156.3,0,0h0a2.945,2.945,0,0,0,0-1c-.016-.07.122.065,0,0C185.874,221.035,185.977,221.061,185.922,221.061Zm0,0" transform="translate(-132.922 -211.83)" fill="#ffe733"/><path d="M4.8,237.643c-.281,0-.786.214-1,0l-2-3c-.206-.206-1-.709-1-1s.794.206,1,0l2-3c.206-.206.709-1,1-1s.794.794,1,1l3,3c.206.206,0-.291,0,0s.206.794,0,1l-3,3C5.582,237.857,5.078,237.643,4.8,237.643Zm0,0" transform="translate(-0.797 -168.412)" fill="#ff468c"/><path d="M163.922,6.963c-1.768,0-4-1.232-4-3s2.232-3,4-3a2.868,2.868,0,0,1,3,3A2.868,2.868,0,0,1,163.922,6.963Zm0,0" transform="translate(-124.922 -0.732)" fill="#06ccab"/><path d="M87.43,163.586a2.868,2.868,0,0,1-3-3c0-1.768,1.232-4,3-4s3,2.232,3,4A2.868,2.868,0,0,1,87.43,163.586Zm0,0" transform="translate(-62.43 -126.355)" fill="#06ccab"/><path d="M1.115,9.627h0a1.15,1.15,0,0,1-1-1,5.236,5.236,0,0,1,2-4,7.373,7.373,0,0,1,3-1c.371-.843.225-1.373,1-2a7.76,7.76,0,0,1,2-1c.433-.152.848-.432,1,0s.433.848,0,1a11.337,11.337,0,0,0-2,1c-.344.279.239.661,0,1a3.012,3.012,0,0,1,2,1h0c.423.523.019,1.36,0,2a3.126,3.126,0,0,1-1,2c-1.009.817-2.1.116-3-1h0a2.991,2.991,0,0,1-1-2c-.381.163-.656.721-1,1a1.983,1.983,0,0,0-1,2A1.175,1.175,0,0,1,1.115,9.627Zm5-4c-.082.614-.332.589,0,1h0c.322.4.707.237,1,0,.17-.137,1,.114,1,0,.007-.24-.829-.789-1-1h0C6.783,5.216,6.733,5.675,6.115,5.627Zm0,0" transform="translate(16.885 -0.396)" fill="#ffe733"/><path d="M183.73,225.06c.592,0,.428.3,1,0a9.307,9.307,0,0,0,2-2c.583-.006,1.443.3,2,0a4.864,4.864,0,0,0,1-1,.707.707,0,0,0-1-1,8.373,8.373,0,0,1-1,1c-.248.131-.743-.055-1,0,.113-.539.246-.534,0-1h0c-.425-.8-1.274-1.385-2-1-.36.19-.9.582-1,1-.09.4-.2.624,0,1h0c.246.466,1.491.79,2,1a8.714,8.714,0,0,1-1,1,2.379,2.379,0,0,1-2,0c-.269-.108-.892-.269-1,0s.731.892,1,1C183.076,225.2,183.336,225.06,183.73,225.06Zm2-4c.186,0-.117-.221,0,0h0a1.23,1.23,0,0,1,0,1c-.378-.105-.844.3-1,0h0a2.945,2.945,0,0,1,0-1c.016-.07-.122.065,0,0C184.778,221.035,185.676,221.06,185.73,221.06Zm0,0" transform="translate(-16.73 -211.83)" fill="#ffe733"/><path d="M4.574,237.642c.281,0,.786.214,1,0l3-3c.206-.206,1-.709,1-1s-.794.206-1,0l-3-3c-.206-.206-.709-1-1-1s.206.794,0,1l-3,3c-.206.206-1-.291-1,0s.794.794,1,1l3,3C4.788,237.856,4.293,237.642,4.574,237.642Zm0,0" transform="translate(212.426 -168.411)" fill="#ff468c"/><path d="M163.207,6.963a2.868,2.868,0,0,0,3-3,3,3,0,0,0-6,0A2.868,2.868,0,0,0,163.207,6.963Zm0,0" transform="translate(19.792 -0.732)" fill="#06ccab"/><path d="M163.207,6.963a2.868,2.868,0,0,0,3-3,3,3,0,0,0-6,0A2.868,2.868,0,0,0,163.207,6.963Zm0,0" transform="translate(-29.208 -9.732)" fill="#06ccab"/><path d="M87.766,163.586a2.868,2.868,0,0,0,3-3c0-1.768-1.232-4-3-4a4.734,4.734,0,0,0-4,4C83.766,162.354,86,163.586,87.766,163.586Zm0,0" transform="translate(109.234 -126.355)" fill="#06ccab"/><path d="M8.658,9.627h0a1.15,1.15,0,0,0,1-1,5.236,5.236,0,0,0-2-4,7.373,7.373,0,0,0-3-1,6.156,6.156,0,0,0-2-2,7.76,7.76,0,0,0-2-1c-.433-.152-.848-.432-1,0s.567.848,1,1c.555.2.737.787,1,1a5.71,5.71,0,0,1,1,1,3.012,3.012,0,0,0-2,1h0a3.8,3.8,0,0,0-1,2,3.126,3.126,0,0,0,1,2c1.009.817,3.1.116,4-1h0a2.991,2.991,0,0,0,1-2c.381.163.656.721,1,1a1.983,1.983,0,0,1,1,2A1.175,1.175,0,0,0,8.658,9.627Zm-5-4c.082.614-.668.589-1,1h0c-.322.4-.707.237-1,0-.17-.137,0,.114,0,0-.007-.24-.171-.789,0-1h0C1.991,5.216,3.04,5.675,3.658,5.627Zm0,0" transform="translate(195.342 -0.396)" fill="#ffe733"/><path d="M8.681,9.441H8.7a.83.83,0,0,0,.812-.848A5.564,5.564,0,0,0,7.344,4.526a6.069,6.069,0,0,0-2.563-1.24A6.066,6.066,0,0,0,3.034,1.039,7.313,7.313,0,0,0,1.106.047.83.83,0,1,0,.555,1.613a5.814,5.814,0,0,1,1.435.716,4.664,4.664,0,0,1,.879.933,3.552,3.552,0,0,0-2.1,1.243l-.013.015a2.747,2.747,0,0,0-.627,1.8,2.263,2.263,0,0,0,.819,1.7,2.492,2.492,0,0,0,3.469-.543l.012-.015A3.554,3.554,0,0,0,5.2,5.152a4.657,4.657,0,0,1,1.1.665A3.949,3.949,0,0,1,7.852,8.629a.83.83,0,0,0,.83.812ZM3.519,4.847a2.028,2.028,0,0,1-.382,1.577l-.012.015a.861.861,0,0,1-1.135.3.613.613,0,0,1-.2-.462,1.1,1.1,0,0,1,.257-.71l.013-.015a2.026,2.026,0,0,1,1.463-.7Zm0,0" transform="matrix(0.259, -0.966, 0.966, 0.259, 80.308, 1.009)" fill="#ffe733"/></g></svg>