<svg id="right_arrow-all" data-name="right arrow-all" xmlns="http://www.w3.org/2000/svg" width="360" height="64" viewBox="0 0 360 64">
  <g id="Group_2704" data-name="Group 2704">
    <rect id="Rectangle_2209" data-name="Rectangle 2209" width="360" height="64" rx="7" opacity="0.8"/>
    <path id="Union_69" data-name="Union 69" d="M0,17.5,21.133,35V26.459H44.5V8.125H21.133V0Z" transform="translate(342.566 51.436) rotate(180)"/>
    <path id="Union_69-2" data-name="Union 69" d="M0,17.5,21.133,35V26.459H44.5V8.125H21.133V0Z" transform="translate(274.566 51.436) rotate(180)"/>
    <path id="Union_69-3" data-name="Union 69" d="M0,17.5,21.133,35V26.459H44.5V8.125H21.133V0Z" transform="translate(206.566 51.436) rotate(180)"/>
    <path id="Union_69-4" data-name="Union 69" d="M0,17.5,21.133,35V26.459H44.5V8.125H21.133V0Z" transform="translate(138.566 51.436) rotate(180)"/>
    <path id="Union_69-5" data-name="Union 69" d="M0,17.5,21.133,35V26.459H44.5V8.125H21.133V0Z" transform="translate(70.566 51.436) rotate(180)"/>
    <path id="Union_71" data-name="Union 71" d="M0,17.043,21.1,34.086V25.767H44.434V7.913H21.1V0Z" transform="translate(345.189 48.897) rotate(180)" fill="#fff"/>
    <path id="Union_72" data-name="Union 72" d="M0,17.043,21.1,34.086V25.767H44.434V7.913H21.1V0Z" transform="translate(277.018 48.897) rotate(180)" fill="#fff"/>
    <path id="Union_73" data-name="Union 73" d="M0,17.043,21.1,34.086V25.767H44.434V7.913H21.1V0Z" transform="translate(140.674 48.897) rotate(180)" fill="#fff"/>
    <path id="Union_74" data-name="Union 74" d="M0,17.043,21.1,34.086V25.767H44.434V7.913H21.1V0Z" transform="translate(208.846 48.897) rotate(180)" fill="#fff"/>
    <path id="Union_75" data-name="Union 75" d="M0,17.043,21.1,34.086V25.767H44.434V7.913H21.1V0Z" transform="translate(72.503 48.897) rotate(180)" fill="#fff"/>
  </g>
</svg>
