<svg xmlns="http://www.w3.org/2000/svg" xmlns:xlink="http://www.w3.org/1999/xlink" width="90" height="99.299" viewBox="0 0 90 99.299"><defs><filter id="a" x="0" y="9.299" width="90" height="90" filterUnits="userSpaceOnUse"><feOffset dy="2" input="SourceAlpha"/><feGaussianBlur stdDeviation="3" result="b"/><feFlood flood-opacity="0.278"/><feComposite operator="in" in2="b"/><feComposite in="SourceGraphic"/></filter></defs><g transform="translate(-1256 -630.013)"><g transform="matrix(1, 0, 0, 1, 1256, 630.01)" filter="url(#a)"><circle cx="36" cy="36" r="36" transform="translate(9 16.3)" fill="#fff"/></g><g transform="translate(1267 624.172)"><g transform="translate(8.654 13.869)"><rect width="6" height="1" rx="0.5" transform="translate(21.346 65.271)" fill="#3b3b3b"/><rect width="9" height="4" rx="2" transform="translate(20.346 46.271)" fill="#3b3b3b"/><rect width="3.128" height="2.816" rx="1.408" transform="matrix(0.966, 0.259, -0.259, 0.966, 26.5, 65.87)" fill="#3b3b3b"/><rect width="3.128" height="2.816" rx="1.408" transform="matrix(0.966, 0.259, -0.259, 0.966, 31.193, 50.228)" fill="#3b3b3b"/><rect width="3.441" height="2.816" rx="1.408" transform="matrix(0.966, -0.259, 0.259, 0.966, 19.212, 66.761)" fill="#3b3b3b"/><rect width="3.441" height="2.816" rx="1.408" transform="matrix(0.966, -0.259, 0.259, 0.966, 14.832, 51.119)" fill="#3b3b3b"/><path d="M.067,6.407C-.261,5.894.615.655,2.7.3c3.682-.158,7.821-.818,9.012.528s.347,2.729-2.563,4.123S.906,7.013.067,6.407Z" transform="translate(27.881 65.063) rotate(3)" fill="#a7e5f6" stroke="#3b3b3b" stroke-width="0.3"/><path d="M.068.224C-.263.738.618,5.977,2.711,6.33c3.7.158,7.863.818,9.06-.528s.349-2.729-2.577-4.123S.911-.382.068.224Z" transform="translate(21.408 71.682) rotate(177)" fill="#a7e5f6" stroke="#3b3b3b" stroke-width="0.3"/><path d="M11.259,10.617c-.719-.268-4.243-1.38-7.446-2.689A25.156,25.156,0,0,1,.076,6.109C-.3,5.6.7.357,3.05,0,7.214-.156,15.836,7,17.182,8.344s.3,3.649-2.243,3.649Z" transform="matrix(-0.588, 0.809, -0.809, -0.588, 42.804, 67.753)" fill="#87d1e6" stroke="#3b3b3b" stroke-width="0.3"/><path d="M11.259,1.376c-.719.268-4.243,1.38-7.446,2.689A25.157,25.157,0,0,0,.076,5.884C-.3,6.4.7,11.637,3.05,11.991c4.164.158,12.786-7,14.132-8.342S17.485,0,14.938,0Z" transform="matrix(0.588, 0.809, -0.809, 0.588, 15.777, 60.704)" fill="#87d1e6" stroke="#3b3b3b" stroke-width="0.3"/><g transform="translate(0 0)"><g transform="translate(0)"><g transform="translate(6.642 47.5)"><g transform="translate(-6314.468 -18627.207)" fill="#87d1e6"><path d="M 6341.4130859375 18645.28125 C 6340.64892578125 18645.28125 6339.6796875 18644.3671875 6339.39892578125 18643.751953125 L 6339.3974609375 18643.748046875 L 6339.39599609375 18643.744140625 C 6339.04833984375 18642.861328125 6339.33154296875 18640.158203125 6339.58154296875 18637.771484375 C 6339.68359375 18636.798828125 6339.77978515625 18635.87890625 6339.82470703125 18635.16796875 C 6339.98193359375 18632.720703125 6341.1435546875 18629.841796875 6341.1552734375 18629.8125 L 6341.193359375 18629.71875 L 6341.29443359375 18629.71875 C 6341.38623046875 18629.71875 6342.23681640625 18629.7890625 6343.744140625 18632.1796875 C 6345.28515625 18634.615234375 6343.90380859375 18643.197265625 6343.76220703125 18643.728515625 L 6343.759765625 18643.736328125 L 6343.755859375 18643.74609375 C 6343.28564453125 18644.900390625 6342.046875 18645.25390625 6341.4580078125 18645.28125 C 6341.44384765625 18645.28125 6341.4287109375 18645.28125 6341.4130859375 18645.28125 Z" stroke="none"/><path d="M 6341.29443359375 18629.869140625 C 6341.29443359375 18629.869140625 6340.1318359375 18632.7265625 6339.974609375 18635.177734375 C 6339.8193359375 18637.626953125 6339.0634765625 18642.4921875 6339.53564453125 18643.689453125 C 6339.81396484375 18644.30078125 6340.75537109375 18645.130859375 6341.4130859375 18645.130859375 C 6341.42626953125 18645.130859375 6341.4384765625 18645.130859375 6341.451171875 18645.130859375 C 6342.1103515625 18645.1015625 6343.2080078125 18644.693359375 6343.6171875 18643.689453125 C 6343.7431640625 18643.216796875 6345.12548828125 18634.642578125 6343.6171875 18632.259765625 C 6342.1103515625 18629.869140625 6341.29443359375 18629.869140625 6341.29443359375 18629.869140625 M 6341.0927734375 18629.568359375 L 6341.29443359375 18629.568359375 C 6341.45849609375 18629.568359375 6342.3525390625 18629.69140625 6343.87109375 18632.099609375 C 6344.5380859375 18633.154296875 6344.759765625 18635.37890625 6344.529296875 18638.7109375 C 6344.35693359375 18641.203125 6343.97998046875 18643.4921875 6343.9072265625 18643.767578125 L 6343.90234375 18643.78515625 L 6343.89501953125 18643.802734375 C 6343.46142578125 18644.865234375 6342.3310546875 18645.392578125 6341.46435546875 18645.4296875 C 6341.44873046875 18645.431640625 6341.43115234375 18645.431640625 6341.4130859375 18645.431640625 C 6340.5634765625 18645.431640625 6339.55615234375 18644.45703125 6339.2626953125 18643.814453125 L 6339.25927734375 18643.806640625 L 6339.25634765625 18643.798828125 C 6338.89501953125 18642.8828125 6339.16845703125 18640.27734375 6339.4326171875 18637.755859375 C 6339.5341796875 18636.78515625 6339.63037109375 18635.8671875 6339.67529296875 18635.158203125 C 6339.833984375 18632.6875 6340.96826171875 18629.875 6341.0166015625 18629.755859375 L 6341.0927734375 18629.568359375 Z" stroke="none" fill="#3b3b3b"/></g><g transform="translate(-6333.099 -18627.207)" fill="#87d1e6"><path d="M 6342.28662109375 18645.28125 C 6342.27099609375 18645.28125 6342.255859375 18645.28125 6342.2412109375 18645.28125 C 6341.55615234375 18645.25 6340.37744140625 18644.81640625 6339.94140625 18643.74609375 L 6339.93798828125 18643.736328125 L 6339.935546875 18643.728515625 C 6339.86328125 18643.453125 6339.490234375 18641.171875 6339.3193359375 18638.701171875 C 6339.091796875 18635.400390625 6339.30517578125 18633.20703125 6339.95361328125 18632.1796875 C 6341.46240234375 18629.7890625 6342.314453125 18629.71875 6342.40673828125 18629.71875 L 6342.5078125 18629.71875 L 6342.5458984375 18629.8125 C 6342.5576171875 18629.841796875 6343.716796875 18632.720703125 6343.875 18635.16796875 C 6343.919921875 18635.876953125 6344.015625 18636.7890625 6344.11669921875 18637.7578125 C 6344.3671875 18640.1484375 6344.65087890625 18642.861328125 6344.30419921875 18643.744140625 L 6344.302734375 18643.748046875 L 6344.30126953125 18643.751953125 C 6344.021484375 18644.3671875 6343.05224609375 18645.28125 6342.28662109375 18645.28125 Z" stroke="none"/><path d="M 6342.40673828125 18629.869140625 C 6342.40673828125 18629.869140625 6341.5888671875 18629.869140625 6340.08056640625 18632.259765625 C 6338.57470703125 18634.642578125 6339.9560546875 18643.216796875 6340.08056640625 18643.689453125 C 6340.4892578125 18644.693359375 6341.5888671875 18645.1015625 6342.24853515625 18645.130859375 C 6342.26123046875 18645.130859375 6342.2734375 18645.130859375 6342.28662109375 18645.130859375 C 6342.94482421875 18645.130859375 6343.88720703125 18644.30078125 6344.16455078125 18643.689453125 C 6344.63427734375 18642.4921875 6343.8818359375 18637.626953125 6343.72509765625 18635.177734375 C 6343.56689453125 18632.7265625 6342.40673828125 18629.869140625 6342.40673828125 18629.869140625 M 6342.40673828125 18629.568359375 L 6342.60888671875 18629.568359375 L 6342.6845703125 18629.755859375 C 6342.73291015625 18629.875 6343.86474609375 18632.6875 6344.0244140625 18635.158203125 C 6344.06982421875 18635.86328125 6344.1650390625 18636.775390625 6344.26611328125 18637.7421875 C 6344.5302734375 18640.267578125 6344.8037109375 18642.880859375 6344.44384765625 18643.798828125 L 6344.44091796875 18643.806640625 L 6344.4375 18643.8125 C 6344.1455078125 18644.45703125 6343.13818359375 18645.431640625 6342.28662109375 18645.431640625 C 6342.2685546875 18645.431640625 6342.2509765625 18645.431640625 6342.2333984375 18645.4296875 C 6341.3671875 18645.392578125 6340.23583984375 18644.865234375 6339.802734375 18643.802734375 L 6339.79541015625 18643.78515625 L 6339.79052734375 18643.765625 C 6339.7177734375 18643.490234375 6339.34130859375 18641.193359375 6339.169921875 18638.7109375 C 6338.93994140625 18635.37890625 6339.16064453125 18633.154296875 6339.8271484375 18632.099609375 C 6341.3466796875 18629.69140625 6342.24267578125 18629.568359375 6342.40673828125 18629.568359375 Z" stroke="none" fill="#3b3b3b"/></g><g transform="translate(-6323.946 -18742.307)" fill="#7dc5d9"><path d="M 6359.53076171875 18762.423828125 C 6359.53076171875 18762.423828125 6359.53076171875 18762.423828125 6359.53076171875 18762.423828125 C 6359.52294921875 18762.423828125 6359.51513671875 18762.423828125 6359.50732421875 18762.423828125 C 6353.67431640625 18762.423828125 6350.90283203125 18761.333984375 6350.1845703125 18760.69140625 C 6349.40966796875 18759.998046875 6349.83837890625 18758.828125 6349.986328125 18758.57421875 L 6349.998046875 18758.5546875 C 6350.47216796875 18757.720703125 6351.181640625 18757.298828125 6352.10693359375 18757.298828125 C 6352.21826171875 18757.298828125 6352.333984375 18757.3046875 6352.45068359375 18757.318359375 C 6354.0537109375 18757.486328125 6358.89208984375 18759.9921875 6359.09765625 18760.099609375 C 6359.12109375 18760.111328125 6359.77392578125 18760.42578125 6360.13330078125 18760.642578125 L 6360.181640625 18760.671875 L 6360.19873046875 18760.7265625 C 6360.26904296875 18760.947265625 6360.1953125 18761.30859375 6360.11328125 18761.66015625 C 6360.10595703125 18761.69140625 6360.09912109375 18761.720703125 6360.09375 18761.74609375 L 6360.091796875 18761.75390625 C 6360.044921875 18761.970703125 6359.94677734375 18762.423828125 6359.53076171875 18762.423828125 Z" stroke="none"/><path d="M 6359.53076171875 18762.2734375 C 6359.82958984375 18762.2734375 6359.900390625 18761.9296875 6359.947265625 18761.712890625 C 6359.99462890625 18761.5 6360.12841796875 18761 6360.0556640625 18760.771484375 C 6359.6982421875 18760.5546875 6359.0283203125 18760.232421875 6359.0283203125 18760.232421875 C 6359.0283203125 18760.232421875 6354.0283203125 18757.634765625 6352.4345703125 18757.466796875 C 6352.3203125 18757.455078125 6352.2109375 18757.44921875 6352.10693359375 18757.44921875 C 6350.76171875 18757.44921875 6350.25732421875 18758.404296875 6350.11572265625 18758.650390625 C 6349.9638671875 18758.91015625 6349.60888671875 18759.974609375 6350.28466796875 18760.580078125 C 6350.9609375 18761.185546875 6353.638671875 18762.2734375 6359.5107421875 18762.2734375 C 6359.517578125 18762.2734375 6359.52392578125 18762.2734375 6359.53076171875 18762.2734375 M 6359.53076171875 18762.57421875 C 6359.52197265625 18762.57421875 6359.51318359375 18762.57421875 6359.50439453125 18762.57421875 C 6356.89013671875 18762.572265625 6354.66162109375 18762.361328125 6352.880859375 18761.9453125 C 6351.57373046875 18761.640625 6350.55419921875 18761.224609375 6350.08447265625 18760.802734375 C 6349.31103515625 18760.111328125 6349.6044921875 18758.931640625 6349.85693359375 18758.498046875 L 6349.86767578125 18758.48046875 C 6350.3701171875 18757.595703125 6351.12353515625 18757.1484375 6352.10693359375 18757.1484375 C 6352.2236328125 18757.1484375 6352.34423828125 18757.15625 6352.46630859375 18757.16796875 C 6354.087890625 18757.33984375 6358.90478515625 18759.830078125 6359.16259765625 18759.96484375 C 6359.22607421875 18759.994140625 6359.8564453125 18760.30078125 6360.21142578125 18760.515625 L 6360.3076171875 18760.57421875 L 6360.34130859375 18760.6796875 C 6360.423828125 18760.939453125 6360.34619140625 18761.322265625 6360.259765625 18761.693359375 C 6360.25244140625 18761.724609375 6360.24560546875 18761.75390625 6360.240234375 18761.77734375 L 6360.23876953125 18761.78515625 C 6360.1875 18762.021484375 6360.06787109375 18762.57421875 6359.53076171875 18762.57421875 Z" stroke="none" fill="#3b3b3b"/></g><g transform="translate(-6349.884 -18742.307)" fill="#7dc5d9"><path d="M 6350.43017578125 18762.423828125 C 6350.01611328125 18762.423828125 6349.91796875 18761.97265625 6349.87109375 18761.75390625 L 6349.869140625 18761.744140625 C 6349.8642578125 18761.724609375 6349.8583984375 18761.69921875 6349.8515625 18761.671875 C 6349.767578125 18761.31640625 6349.69091796875 18760.951171875 6349.76220703125 18760.7265625 L 6349.779296875 18760.671875 L 6349.82763671875 18760.642578125 C 6350.18798828125 18760.42578125 6350.8408203125 18760.111328125 6350.86865234375 18760.09765625 C 6351.0693359375 18759.9921875 6355.90625 18757.486328125 6357.51171875 18757.318359375 C 6357.62841796875 18757.3046875 6357.744140625 18757.298828125 6357.85546875 18757.298828125 C 6358.783203125 18757.298828125 6359.49267578125 18757.720703125 6359.96435546875 18758.5546875 L 6359.97607421875 18758.576171875 C 6360.12255859375 18758.828125 6360.55078125 18760 6359.77685546875 18760.69140625 C 6359.05908203125 18761.333984375 6356.2880859375 18762.423828125 6350.45361328125 18762.423828125 C 6350.44580078125 18762.423828125 6350.43798828125 18762.423828125 6350.43017578125 18762.423828125 Z" stroke="none"/><path d="M 6350.43017578125 18762.2734375 C 6350.43701171875 18762.2734375 6350.443359375 18762.2734375 6350.4501953125 18762.2734375 C 6356.32421875 18762.2734375 6359.0009765625 18761.185546875 6359.6767578125 18760.580078125 C 6360.353515625 18759.974609375 6359.9970703125 18758.91015625 6359.845703125 18758.650390625 C 6359.705078125 18758.404296875 6359.2021484375 18757.44921875 6357.85546875 18757.44921875 C 6357.7509765625 18757.44921875 6357.6416015625 18757.455078125 6357.52734375 18757.466796875 C 6355.931640625 18757.634765625 6350.93359375 18760.232421875 6350.93359375 18760.232421875 C 6350.93359375 18760.232421875 6350.263671875 18760.5546875 6349.9052734375 18760.771484375 C 6349.8330078125 18761 6349.966796875 18761.5 6350.015625 18761.712890625 C 6350.0625 18761.9296875 6350.1328125 18762.2734375 6350.43017578125 18762.2734375 M 6350.43017578125 18762.57421875 C 6349.89501953125 18762.57421875 6349.775390625 18762.021484375 6349.724609375 18761.787109375 L 6349.72265625 18761.77734375 C 6349.71826171875 18761.7578125 6349.71240234375 18761.732421875 6349.70556640625 18761.705078125 C 6349.61669921875 18761.330078125 6349.53662109375 18760.943359375 6349.619140625 18760.681640625 L 6349.6533203125 18760.57421875 L 6349.75 18760.515625 C 6350.10595703125 18760.298828125 6350.7373046875 18759.994140625 6350.79931640625 18759.96484375 C 6351.06005859375 18759.828125 6355.87255859375 18757.33984375 6357.49609375 18757.16796875 C 6357.61767578125 18757.15625 6357.73876953125 18757.1484375 6357.85546875 18757.1484375 C 6358.84130859375 18757.1484375 6359.5947265625 18757.59765625 6360.0947265625 18758.48046875 L 6360.1064453125 18758.501953125 C 6360.35693359375 18758.931640625 6360.6494140625 18760.11328125 6359.876953125 18760.802734375 C 6359.40771484375 18761.224609375 6358.388671875 18761.640625 6357.0810546875 18761.9453125 C 6355.30029296875 18762.361328125 6353.07177734375 18762.572265625 6350.45654296875 18762.57421875 C 6350.44775390625 18762.57421875 6350.43896484375 18762.57421875 6350.43017578125 18762.57421875 Z" stroke="none" fill="#3b3b3b"/></g><g transform="translate(9.87 0)" fill="#a7e5f6"><path d="M 8.885191917419434 17.60652160644531 L 8.73375129699707 17.60506057739258 C 8.731659889221191 17.60504150390625 8.521468162536621 17.60296630859375 8.195701599121094 17.59507942199707 C 7.869935035705566 17.60296630859375 7.659743785858154 17.60504150390625 7.657651424407959 17.60506057739258 L 7.506211757659912 17.60652160644531 L 7.506211757659912 17.57398986816406 C 4.314125061035156 17.45641326904297 4.002296924591064 17.1705436706543 3.898821592330933 17.07567024230957 L 3.850191593170166 17.03109169006348 L 3.850191593170166 16.96511077880859 C 3.850191593170166 14.64227104187012 -0.1029184013605118 2.276660919189453 -0.142848402261734 2.152030944824219 L -0.1775183975696564 2.043810844421387 L -0.08272840082645416 1.981140971183777 C -0.01940840110182762 1.939270973205566 1.496411561965942 0.9482209086418152 3.961371660232544 0.2877109348773956 C 5.311701774597168 -0.07405906915664673 6.600401401519775 -0.1499990671873093 7.44370174407959 -0.1499990671873093 C 7.700042247772217 -0.1499990671873093 7.953003406524658 -0.1431959867477417 8.195701599121094 -0.1297754943370819 C 8.438400268554688 -0.1431959867477417 8.691361427307129 -0.1499990671873093 8.947701454162598 -0.1499990671873093 C 9.791011810302734 -0.1499990671873093 11.0797119140625 -0.07405906915664673 12.43003177642822 0.2877109348773956 C 14.89499187469482 0.9482209086418152 16.41081237792969 1.939270973205566 16.4741325378418 1.981140971183777 L 16.56892204284668 2.043810844421387 L 16.53425216674805 2.152030944824219 C 16.49432182312012 2.276660919189453 12.54121112823486 14.64227104187012 12.54121112823486 16.96511077880859 L 12.54121112823486 17.03109169006348 L 12.49258136749268 17.07567024230957 C 12.38910675048828 17.1705436706543 12.07727813720703 17.45641326904297 8.885191917419434 17.57398986816406 L 8.885191917419434 17.60652160644531 Z" stroke="none"/><path d="M 8.735191345214844 17.45507049560547 L 8.735191345214844 17.42923164367676 C 10.02778148651123 17.38489151000977 12.06129169464111 17.26760101318359 12.39121150970459 16.96511077880859 C 12.39121150970459 14.59190082550049 16.39140129089355 2.106261014938354 16.39140129089355 2.106261014938354 C 16.39140129089355 2.106261014938354 14.86095142364502 1.094390988349915 12.39121150970459 0.4326009452342987 C 11.08412265777588 0.08241147547960281 9.834673881530762 1.559448264742969e-06 8.947698593139648 1.559448264742969e-06 C 8.653482437133789 1.559448264742969e-06 8.398966789245605 0.009080264717340469 8.195701599121094 0.0204609353095293 C 7.992386341094971 0.009077476337552071 7.73801326751709 1.559448264742969e-06 7.443706035614014 1.559448264742969e-06 C 6.556746006011963 1.559448264742969e-06 5.307181358337402 0.08243994414806366 4.000191688537598 0.4326009452342987 C 1.530451655387878 1.094390988349915 1.59912110575533e-06 2.106261014938354 1.59912110575533e-06 2.106261014938354 C 1.59912110575533e-06 2.106261014938354 4.000191688537598 14.59190082550049 4.000191688537598 16.96511077880859 C 4.330111503601074 17.26760101318359 6.363621711730957 17.38489151000977 7.656211376190186 17.42923164367676 L 7.656211376190186 17.45507049560547 C 7.656211376190186 17.45507049560547 7.865151405334473 17.45306015014648 8.195701599121094 17.44503021240234 C 8.526251792907715 17.45306015014648 8.735191345214844 17.45507049560547 8.735191345214844 17.45507049560547 M 9.035191535949707 17.75797080993652 L 8.732301712036133 17.75506019592285 C 8.730207443237305 17.75504112243652 8.520514488220215 17.75296211242676 8.195701599121094 17.7451171875 C 7.870888710021973 17.75296211242676 7.661196231842041 17.75504112243652 7.659101486206055 17.75506019592285 L 7.35621166229248 17.75797080993652 L 7.35621166229248 17.71835517883301 C 4.243134021759033 17.59500312805176 3.921022176742554 17.29954147338867 3.797451496124268 17.18624114990234 L 3.700191497802734 17.09706115722656 L 3.700191497802734 16.96511077880859 C 3.700191497802734 14.66551113128662 -0.2458384037017822 2.322201013565063 -0.285698413848877 2.197790861129761 L -0.3550384044647217 1.981360912322998 L -0.165448397397995 1.856010913848877 C -0.1012983992695808 1.813600897789001 1.43429160118103 0.8095709085464478 3.922541618347168 0.1428209394216537 C 5.288651466369629 -0.2231690585613251 6.591391563415527 -0.2999990582466125 7.44370174407959 -0.2999990582466125 C 7.699800968170166 -0.2999990582466125 7.952707767486572 -0.29327192902565 8.195699691772461 -0.2799964547157288 C 8.43863582611084 -0.29327192902565 8.691543579101563 -0.2999990582466125 8.947701454162598 -0.2999990582466125 C 9.800021171569824 -0.2999990582466125 11.1027717590332 -0.2231690585613251 12.46885204315186 0.1428209394216537 C 14.95711135864258 0.8095709085464478 16.49270248413086 1.813600897789001 16.55685234069824 1.856010913848877 L 16.74644088745117 1.981350898742676 L 16.67710113525391 2.197790861129761 C 16.63724136352539 2.322201013565063 12.69121170043945 14.66551113128662 12.69121170043945 16.96511077880859 L 12.69121170043945 17.09706115722656 L 12.59395122528076 17.18624114990234 C 12.47038078308105 17.29954147338867 12.14826965332031 17.59500312805176 9.035191535949707 17.71835517883301 L 9.035191535949707 17.75797080993652 Z" stroke="none" fill="#3b3b3b"/></g></g><g transform="translate(0)"><rect width="2.318" height="9.269" rx="1" transform="translate(31.872 15.435) rotate(-150)" fill="#3b3b3b"/><rect width="2.318" height="9.27" rx="1" transform="translate(11.473 7.408) rotate(-30)" fill="#3b3b3b"/><ellipse cx="3.635" cy="3.635" rx="3.635" ry="3.635" transform="translate(37.934 9.93) rotate(-150)" fill="#3b3b3b"/><ellipse cx="3.635" cy="3.635" rx="3.635" ry="3.635" transform="translate(6.351 3.635) rotate(-30)" fill="#3b3b3b"/><g transform="translate(0 11.353)"><g transform="translate(36.972 10.162)"><ellipse cx="6.162" cy="6.486" rx="6.162" ry="6.486" transform="translate(0)" fill="#3b3b3b"/><path d="M422.568,164.1a5.9,5.9,0,0,1,3.366,1.064s.693,7.591,1.021,9.967a5.986,5.986,0,0,1-4.387,1.941,6.495,6.495,0,0,1,0-12.972Z" transform="translate(-416.406 -164.098)" fill="#fff" opacity="0"/></g><g transform="translate(0 10.162)"><ellipse cx="6.162" cy="6.486" rx="6.162" ry="6.486" fill="#3b3b3b"/><path d="M342.522,164.1a5.9,5.9,0,0,0-3.366,1.064s-.693,7.591-1.021,9.967a5.986,5.986,0,0,0,4.387,1.941,6.494,6.494,0,0,0,0-12.972Z" transform="translate(-336.36 -164.098)" fill="#3b3b3b" opacity="0.4"/></g><g transform="translate(3.062)"><path d="M353.407,175.875H371.76a12.407,12.407,0,0,0,12.31-13.956l-1.2-9.562a12.407,12.407,0,0,0-12.31-10.859H354.61A12.408,12.408,0,0,0,342.3,152.358l-1.2,9.562A12.407,12.407,0,0,0,353.407,175.875Z" transform="translate(-340.998 -140.183)" fill="#3b3b3b"/><path d="M353.407,175.875H371.76a12.407,12.407,0,0,0,12.31-13.956l-1.2-9.562a12.407,12.407,0,0,0-12.31-10.859H354.61A12.408,12.408,0,0,0,342.3,152.358l-1.2,9.562A12.407,12.407,0,0,0,353.407,175.875Z" transform="translate(-340.998 -141.499)" fill="#b7e8f6" stroke="#3b3b3b" stroke-width="0.5"/></g></g><g transform="translate(8.346 20.271)" fill="#484848" stroke="#484848" stroke-width="0.5"><rect width="30" height="10" rx="5" stroke="none"/><rect x="-0.25" y="-0.25" width="30.5" height="10.5" rx="5.25" fill="none"/></g><g transform="translate(8.346 20.271)" fill="#fff" stroke="#484848" stroke-width="0.5"><rect width="30" height="12" rx="6" stroke="none"/><rect x="-0.25" y="-0.25" width="30.5" height="12.5" rx="6.25" fill="none"/></g><g transform="translate(13.293 25.575)"><path d="M21.508,70.54l.055-.036a.234.234,0,0,0-.267-.383c-3.649,2.551-6.306.126-6.417.021a.234.234,0,0,0-.321.339c.005,0,.088.081.24.193l-.467.771a.234.234,0,0,0,.078.321.237.237,0,0,0,.122.034.235.235,0,0,0,.2-.112l.457-.753a5.6,5.6,0,0,0,.976.47l-.225.753a.232.232,0,0,0,.156.29l.067.01a.234.234,0,0,0,.223-.167l.223-.743a5.294,5.294,0,0,0,1.2.181v.746a.233.233,0,1,0,.467,0v-.75a5.49,5.49,0,0,0,1.206-.207l.287.757a.234.234,0,0,0,.218.15l.083-.015a.233.233,0,0,0,.136-.3l-.28-.738a6.926,6.926,0,0,0,1.19-.579l.378.5a.234.234,0,0,0,.187.094.228.228,0,0,0,.14-.047.233.233,0,0,0,.047-.327Z" transform="translate(-14.296 -70.079)" fill="#3b3b3b" stroke="#3b3b3b" stroke-width="0.5"/><path d="M21.508,70.54l.055-.036a.234.234,0,0,0-.267-.383c-3.649,2.551-6.306.126-6.417.021a.234.234,0,0,0-.321.339c.005,0,.088.081.24.193l-.467.771a.234.234,0,0,0,.078.321.237.237,0,0,0,.122.034.235.235,0,0,0,.2-.112l.457-.753a5.6,5.6,0,0,0,.976.47l-.225.753a.232.232,0,0,0,.156.29l.067.01a.234.234,0,0,0,.223-.167l.223-.743a5.294,5.294,0,0,0,1.2.181v.746a.233.233,0,1,0,.467,0v-.75a5.49,5.49,0,0,0,1.206-.207l.287.757a.234.234,0,0,0,.218.15l.083-.015a.233.233,0,0,0,.136-.3l-.28-.738a6.926,6.926,0,0,0,1.19-.579l.378.5a.234.234,0,0,0,.187.094.228.228,0,0,0,.14-.047.233.233,0,0,0,.047-.327Z" transform="translate(-0.829 -70.079)" fill="#3b3b3b" stroke="#3b3b3b" stroke-width="0.5"/></g></g></g></g><path d="M342.743,141.5h2.58a1.745,1.745,0,0,1,1.731,1.963l-.169,1.345a1.745,1.745,0,0,1-1.731,1.527h-2.242a1.745,1.745,0,0,1-1.731-1.527l-.169-1.345A1.745,1.745,0,0,1,342.743,141.5Z" transform="translate(-319.354 -91.644)" fill="#6cb9ce"/><path d="M342.038,141.5h1.538a1.04,1.04,0,0,1,1.032,1.17l-.1.8a1.04,1.04,0,0,1-1.031.91h-1.336a1.04,1.04,0,0,1-1.032-.91l-.1-.8A1.04,1.04,0,0,1,342.038,141.5Z" transform="translate(-318.128 -83.934)" fill="#6cb9ce"/><path d="M117.836,224.179a.7.7,0,0,0-.993.055,7.827,7.827,0,0,1-11.615,0,.7.7,0,1,0-1.048.938,9.233,9.233,0,0,0,13.711,0A.7.7,0,0,0,117.836,224.179Z" transform="translate(-86.854 -188.437)" fill="#3b3b3b"/><g transform="translate(41.266 63.846)"><path d="M10631.537,17878.2c-.035.969.625,2.24,2.828,2.174s2.525-.859,2.525-.859a2.941,2.941,0,0,1-1.852-1.377c-.43-.771.523-.818.863-.914,1-.336,1.152-1.133.75-1.381-.373-.186-.32.424-2.148.658C10631.906,17876.666,10631.57,17877.232,10631.537,17878.2Z" transform="translate(-10631.536 -17875.676)" fill="#7dc5d9" stroke="#3b3b3b" stroke-width="0.3"/><path d="M3.03.037C2.472.367,2.273,1.493,1.2,1.726.251,1.959,0,2,0,2s.381.756,1.02.554A3.6,3.6,0,0,0,3.458.485C3.685-.094,3.1-.018,3.03.037Z" transform="translate(2.539 2.482) rotate(-45)" fill="#87d1e6" stroke="#3b3b3b" stroke-width="0.3"/><path d="M3.765.037c-.559.33-1.023,1.684-2.1,1.916A4.931,4.931,0,0,1,0,2.09s1.116.667,1.755.464A3.6,3.6,0,0,0,4.193.485C4.42-.094,3.837-.018,3.765.037Z" transform="translate(2.233 1.743) rotate(-19)" fill="#7dc5d9" stroke="#3b3b3b" stroke-width="0.3"/><path d="M10644.408,17880.219c-.051.043-.42.521-.52.654-.332.41-.325.787-1.386,1.014,0,0,.172.172.146.18-1.015.248-1.267.336-1.267.336s.417.832,1.12.605a3.876,3.876,0,0,0,2.521-2.312C10645.274,17880.061,10644.834,17879.686,10644.408,17880.219Z" transform="translate(-10638.302 -17878.535)" fill="#7dc5d9" stroke="#3b3b3b" stroke-width="0.3"/><path d="M4.133.041C3.519.4,3.508,1.334,1.792,1.925.751,2.181.054,2.313,0,2.54s.25.843,1.482.588S3.549,2.62,4.6.533C4.852-.1,4.212-.02,4.133.041Z" transform="translate(1.562 1.234) rotate(17)" fill="#7dc5d9" stroke="#3b3b3b" stroke-width="0.3"/><path d="M10704.273,17296.906c-.13.059.326,1.236,1.563,1.389s1-.773,1-.773-.662-.064-.447-.393-1.691-.479-1.691-.479S10704.4,17296.846,10704.273,17296.906Z" transform="translate(-10704.028 -17293.754)" fill="#7dc5d9"/></g><g transform="translate(0.908 63.846)"><path d="M10636.893,17878.2c.035.969-.625,2.24-2.828,2.174s-2.529-.859-2.529-.859a2.946,2.946,0,0,0,1.854-1.377c.432-.771-.521-.818-.863-.914-1-.336-1.148-1.133-.75-1.381.375-.186.32.424,2.148.658C10636.521,17876.666,10636.857,17877.232,10636.893,17878.2Z" transform="translate(-10629.803 -17875.678)" fill="#7dc5d9" stroke="#3b3b3b" stroke-width="0.3"/><path d="M3.03,2.551C2.472,2.221,2.273,1.1,1.2.862.251.629,0,.588,0,.588S.381-.168,1.02.035A3.6,3.6,0,0,1,3.458,2.1C3.685,2.682,3.1,2.606,3.03,2.551Z" transform="translate(2.721 4.312) rotate(-135)" fill="#87d1e6" stroke="#3b3b3b" stroke-width="0.3"/><path d="M3.765,2.555C3.207,2.225,2.742.871,1.667.638A4.925,4.925,0,0,0,0,.5S1.116-.164,1.755.038A3.6,3.6,0,0,1,4.193,2.107C4.42,2.686,3.837,2.61,3.765,2.555Z" transform="translate(4.014 4.194) rotate(-161)" fill="#7dc5d9" stroke="#3b3b3b" stroke-width="0.3"/><path d="M10642.071,17880.219c.051.043.419.521.521.654.331.41.325.787,1.386,1.014,0,0-.173.172-.148.18,1.014.248,1.27.336,1.27.336s-.418.832-1.121.605a3.878,3.878,0,0,1-2.523-2.312C10641.205,17880.061,10641.644,17879.686,10642.071,17880.219Z" transform="translate(-10641.089 -17878.535)" fill="#7dc5d9" stroke="#3b3b3b" stroke-width="0.3"/><path d="M4.133,3.148c-.613-.362-.624-1.293-2.341-1.884C.751,1.008.054.876,0,.649S.255-.194,1.487.061,3.549.569,4.6,2.657C4.852,3.292,4.212,3.209,4.133,3.148Z" transform="translate(6.461 4.283) rotate(163)" fill="#7dc5d9" stroke="#3b3b3b" stroke-width="0.3"/><path d="M10706.83,17296.906c.129.059-.324,1.236-1.562,1.389s-1-.773-1-.773.664-.064.449-.393,1.693-.479,1.693-.479A4.875,4.875,0,0,0,10706.83,17296.906Z" transform="translate(-10699.983 -17293.754)" fill="#7dc5d9"/></g><path d="M4.7,4.266H4.692C4.517,4.251,2.656,4.075,2.351,3.2a3.346,3.346,0,0,0-.585-1.69A3.178,3.178,0,0,0,.223.078a13.64,13.64,0,0,0,4.39.752h.17A13.638,13.638,0,0,0,9.173.078,3.18,3.18,0,0,0,7.63,1.51,3.367,3.367,0,0,0,7.046,3.2c-.3.875-2.166,1.051-2.341,1.066H4.7ZM9.369.01l-.2.069C9.264.042,9.331.022,9.369.01ZM.029.01c.037.012.1.032.195.069ZM9.4,0,9.369.01ZM0,0,.029.01Z" transform="translate(19.824 65.209)" fill="#6cb9ce" stroke="#3b3b3b" stroke-width="0.3"/></g><path d="M11469.165-7135.354l-1,.007c-.251-36.307-49.43-32.491-47.308-.036l-1,.065C11417.647-7169.137,11468.9-7173.01,11469.165-7135.354Z" transform="translate(-11411 7168)" fill="#242424"/><path d="M4,0H6A2,2,0,0,1,8,2V13a2,2,0,0,1-2,2H4a4,4,0,0,1-4-4V4A4,4,0,0,1,4,0Z" transform="translate(4 34.632)" fill="#242424"/><path d="M2,0H5A4,4,0,0,1,9,4v7a4,4,0,0,1-4,4H2a2,2,0,0,1-2-2V2A2,2,0,0,1,2,0Z" transform="translate(54 34.632)" fill="#242424"/><path d="M2,0H3A1,1,0,0,1,4,1V20a1,1,0,0,1-1,1H2a2,2,0,0,1-2-2V2A2,2,0,0,1,2,0Z" transform="translate(8 31.637)" fill="#242424"/><path d="M1,0H3A2,2,0,0,1,5,2V19a2,2,0,0,1-2,2H1a1,1,0,0,1-1-1V1A1,1,0,0,1,1,0Z" transform="translate(54 31.637)" fill="#242424"/></g></g></svg>