<svg xmlns="http://www.w3.org/2000/svg" width="128.001" height="105.717" viewBox="0 0 128.001 105.717"><g transform="translate(-135.722 -476.285)"><path d="M18.469,26.1l-4.049.635a.25.25,0,0,0-.207.2,15.837,15.837,0,0,0,0,5.547.25.25,0,0,0,.207.2l4.049.635a1.134,1.134,0,0,1,.741,1.789L16.8,38.423a.251.251,0,0,0,0,.29,15.751,15.751,0,0,0,3.924,3.924.251.251,0,0,0,.29,0l3.309-2.414a1.134,1.134,0,0,1,1.789.741l.635,4.049a.249.249,0,0,0,.2.207,15.837,15.837,0,0,0,5.547,0,.249.249,0,0,0,.2-.207l.635-4.049a1.134,1.134,0,0,1,1.789-.741l3.309,2.414a.251.251,0,0,0,.29,0,15.751,15.751,0,0,0,3.924-3.924.251.251,0,0,0,0-.29l-2.414-3.309a1.134,1.134,0,0,1,.741-1.789l4.049-.635a.25.25,0,0,0,.207-.2,15.836,15.836,0,0,0,0-5.547.25.25,0,0,0-.207-.2L40.959,26.1a1.134,1.134,0,0,1-.741-1.789l2.414-3.309a.251.251,0,0,0,0-.29,15.751,15.751,0,0,0-3.924-3.924.251.251,0,0,0-.29,0L35.114,19.21a1.134,1.134,0,0,1-1.789-.741l-.635-4.049a.25.25,0,0,0-.2-.207,15.836,15.836,0,0,0-5.547,0,.25.25,0,0,0-.2.207L26.1,18.47a1.134,1.134,0,0,1-1.789.741L21.006,16.8a.251.251,0,0,0-.29,0,15.751,15.751,0,0,0-3.924,3.924.251.251,0,0,0,0,.29l2.414,3.309a1.134,1.134,0,0,1-.741,1.789Zm11.245-2.513a6.123,6.123,0,1,1-6.123,6.123,6.123,6.123,0,0,1,6.123-6.123ZM5,29.714A24.707,24.707,0,0,1,45.124,10.4l2.414-2.414A.271.271,0,0,1,48,8.178v6.666a.378.378,0,0,1-.378.378H40.957a.271.271,0,0,1-.192-.462l2.407-2.407A21.97,21.97,0,0,0,10.234,39.876L7.8,41.149A24.757,24.757,0,0,1,5,29.714Zm6.806,14.493h6.666a.271.271,0,0,1,.192.462l-2.407,2.407A21.97,21.97,0,0,0,49.194,19.553l2.433-1.273A24.711,24.711,0,0,1,14.3,49.028L11.89,51.442a.271.271,0,0,1-.462-.192V44.585a.378.378,0,0,1,.378-.378Z" transform="translate(209.288 471.286)" fill="#3f3f3f"/><g transform="translate(-4 -83.124)"><g transform="translate(139.722 591.002)"><rect width="3.628" height="14.507" rx="1" transform="translate(50.646 24.158) rotate(-150)" fill="#3b3b3b"/><rect width="3.628" height="14.508" rx="1" transform="translate(18.25 11.595) rotate(-30)" fill="#3b3b3b"/><g transform="translate(0 0)"><g transform="translate(0 0)"><ellipse cx="5.689" cy="5.689" rx="5.689" ry="5.689" transform="translate(60.247 15.542) rotate(-150)" fill="#3b3b3b"/><ellipse cx="5.689" cy="5.689" rx="5.689" ry="5.689" transform="translate(9.94 5.69) rotate(-30)" fill="#3b3b3b"/><g transform="translate(0 17.218)"><g transform="translate(58.955 16.675)"><ellipse cx="9.644" cy="10.151" rx="9.644" ry="10.151" transform="translate(0)" fill="#3b3b3b"/><path d="M426.05,164.1a9.231,9.231,0,0,1,5.268,1.666s1.085,11.881,1.6,15.6a9.368,9.368,0,0,1-6.866,3.037,10.165,10.165,0,0,1,0-20.3Z" transform="translate(-416.406 -164.098)" fill="#fff" opacity="0"/></g><g transform="translate(0 16.675)"><ellipse cx="9.644" cy="10.151" rx="9.644" ry="10.151" fill="#3b3b3b"/><path d="M345,164.1a9.231,9.231,0,0,0-5.268,1.666s-1.085,11.881-1.6,15.6A9.368,9.368,0,0,0,345,184.4a10.164,10.164,0,0,0,0-20.3Z" transform="translate(-335.357 -164.098)" fill="#3b3b3b" opacity="0.4"/></g><g transform="translate(4.278)"><path d="M360.733,195.8H389.92A19.645,19.645,0,0,0,409.5,173.753l-1.913-15.1A19.686,19.686,0,0,0,388.007,141.5H362.646a19.687,19.687,0,0,0-19.579,17.152l-1.912,15.1A19.645,19.645,0,0,0,360.733,195.8Z" transform="translate(-340.483 -138.891)" fill="#3b3b3b"/><path d="M360.733,195.8H389.92A19.645,19.645,0,0,0,409.5,173.753l-1.913-15.1A19.686,19.686,0,0,0,388.007,141.5H362.646a19.687,19.687,0,0,0-19.579,17.152l-1.912,15.1A19.645,19.645,0,0,0,360.733,195.8Z" transform="translate(-340.483 -140.95)" fill="#b7e8f6"/><path d="M356.713,142.229c4-1.278,4.126-.962,31.559-.962a20.2,20.2,0,0,1,20.089,17.6c1.974,15.587,2.509,17.258,1.722,21.377a20.214,20.214,0,0,1-12.841,15.1c-4.73,1.746-5.631,1.252-36.243,1.252a20.16,20.16,0,0,1-20.089-22.622c1.717-13.563,1.826-16.52,3.1-19.819A20.223,20.223,0,0,1,356.713,142.229ZM343.843,159h0c-1.95,15.4-2.482,17.128-1.732,21.055A19.184,19.184,0,0,0,354.3,194.376c4.24,1.565,3.946,1.188,35.886,1.188A19.129,19.129,0,0,0,409.252,174.1c-2.06-16.262-1.936-16.72-3.042-19.577a19.2,19.2,0,0,0-12.046-11.312c-3.809-1.218-3.616-.916-31.253-.916A19.17,19.17,0,0,0,343.843,159Z" transform="translate(-340.748 -141.232)" fill="#3b3b3b"/></g></g></g></g><path d="M8.666,0H40.148a8.608,8.608,0,0,1,8.666,8.549v4.274A4.3,4.3,0,0,1,44.482,17.1H4.333A4.3,4.3,0,0,1,0,12.823V8.549A8.608,8.608,0,0,1,8.666,0Z" transform="translate(14.146 28.794)" fill="#484848"/><path d="M8.363,0H38.741A8.362,8.362,0,0,1,47.1,8.362v4.181a4.181,4.181,0,0,1-4.181,4.181H4.181A4.181,4.181,0,0,1,0,12.543V8.362A8.362,8.362,0,0,1,8.363,0Z" transform="translate(15.001 31.276)" fill="#fff"/><g transform="translate(21.804 35.454)"><ellipse cx="4.181" cy="4.181" rx="4.181" ry="4.181" transform="translate(0 0)" fill="#3b3b3b"/><ellipse cx="4.181" cy="4.181" rx="4.181" ry="4.181" transform="translate(25.088 0)" fill="#3b3b3b"/></g><path d="M2.268,2.255A9.382,9.382,0,0,1,8.921-.5H39.3a9.408,9.408,0,0,1,9.408,9.407c0,4.421.077,4.741-.24,5.749a5.236,5.236,0,0,1-3.419,3.419c-1.089.342,2.094.239-40.309.239A5.227,5.227,0,0,1-.487,13.088C-.487,8.792-.961,5.484,2.268,2.255ZM.558,8.907v4.181A4.181,4.181,0,0,0,4.739,17.27H43.481a4.181,4.181,0,0,0,4.181-4.181V8.907A8.362,8.362,0,0,0,39.3.545H8.921A8.362,8.362,0,0,0,.558,8.907Z" transform="translate(14.443 30.731)" fill="#484848"/><rect width="20" height="4" rx="2" transform="translate(28.277 58.123)" fill="#3b3b3b"/></g></g></g></svg>