<svg xmlns="http://www.w3.org/2000/svg" width="592.924" height="64.462" viewBox="0 0 592.924 64.462"><g transform="translate(-1163.41 -932.381)"><g transform="translate(1438.2 904.08)"><path d="M-1420.862-658.669a25.721,25.721,0,0,1-15.087-15.987c-3.232-9.179-3.08-18.359,1.079-27.275,3.821-8.183,10.309-13.353,18.941-15.75a40.738,40.738,0,0,1,18.448-.647,29.809,29.809,0,0,1,15.659,9.009c-1.583,1.586-3.2,3.165-4.769,4.793-1.589,1.628-3.126,3.306-4.742,5.032-.706-.532-1.149-.867-1.59-1.2a20.219,20.219,0,0,0-17.018-3.607,13.153,13.153,0,0,0-10.129,8.916,22.07,22.07,0,0,0,.229,16.1c2.272,5.507,6.5,8.525,12.435,9.057a22.346,22.346,0,0,0,10.31-1.244c1.112-.442,2.174-1.014,3.239-1.513v-7.838H-1408.8c-.193-4.508-.083-8.8-.066-13.23h29.257v7.929c0,5.637-.037,11.282.024,16.91a5.811,5.811,0,0,1-1.142,3.568,19.331,19.331,0,0,1-8.66,6.774,43.143,43.143,0,0,1-16.122,3.247A40.824,40.824,0,0,1-1420.862-658.669Zm52.6,1.3v-59.945h16.845c.024,19.964.007,39.82,0,59.945Zm129.542-.058V-679.72h-21.6v22.278h-16.9v-59.732h16.9v22.566h21.451c.156-7.48,0-14.932.085-22.531h16.736c.032,19.863.006,39.72.006,59.714Zm-99.775-.049v-59.773h30.681a23.4,23.4,0,0,1,14.89,5.1c5.016,4.1,7.314,9.532,7.494,15.914a21.584,21.584,0,0,1-3.865,13.728,20.153,20.153,0,0,1-12.31,7.937,41.836,41.836,0,0,1-7.817.94c-3.915.156-7.837.041-11.83.041v16.117Zm17-45.266v14.855c4.424,0,8.627.14,12.812-.041,3.42-.163,5.653-2.47,6.219-6,.646-4.172-1.732-8.829-7.126-8.829C-1313.345-702.759-1320.9-702.741-1321.5-702.741Zm130.548,45.241v-23.6c-7.7-12.06-15.431-23.915-23.194-36.121h19.5c4.037,6.66,8.09,13.36,12.358,20.413,4.441-7.037,8.654-13.713,12.894-20.43h19.585c-.184.262-16.379,24.324-24.241,35.983V-657.5Z" transform="translate(1467 747.88)" fill="#fff" stroke="rgba(0,0,0,0)" stroke-miterlimit="10" stroke-width="1"/></g><path d="M15.876-29.4q5.712,0,8.988,2.73a9.259,9.259,0,0,1,3.276,7.518,9.259,9.259,0,0,1-3.276,7.518Q21.588-8.9,15.876-8.9H8.61V0H4.41V-29.4ZM15.75-12.558a9.479,9.479,0,0,0,6.09-1.7,5.932,5.932,0,0,0,2.1-4.893,5.932,5.932,0,0,0-2.1-4.893,9.479,9.479,0,0,0-6.09-1.7H8.61v13.188ZM46.662.336A16.437,16.437,0,0,1,38.64-1.617a14.435,14.435,0,0,1-5.607-5.4A14.813,14.813,0,0,1,31-14.7a14.813,14.813,0,0,1,2.037-7.686,14.435,14.435,0,0,1,5.607-5.4,16.437,16.437,0,0,1,8.022-1.953,16.35,16.35,0,0,1,7.98,1.953,14.331,14.331,0,0,1,5.586,5.376A14.9,14.9,0,0,1,62.244-14.7a14.9,14.9,0,0,1-2.016,7.707,14.331,14.331,0,0,1-5.586,5.376A16.35,16.35,0,0,1,46.662.336Zm0-3.738a11.551,11.551,0,0,0,5.817-1.47,10.785,10.785,0,0,0,4.074-4.053A11.341,11.341,0,0,0,58.044-14.7a11.341,11.341,0,0,0-1.491-5.775,10.785,10.785,0,0,0-4.074-4.053A11.551,11.551,0,0,0,46.662-26a11.784,11.784,0,0,0-5.859,1.47,10.7,10.7,0,0,0-4.116,4.053A11.341,11.341,0,0,0,35.2-14.7a11.341,11.341,0,0,0,1.491,5.775A10.7,10.7,0,0,0,40.8-4.872,11.784,11.784,0,0,0,46.662-3.4Zm61.278-26L98.112,0H93.7L85.68-23.478,77.658,0H73.164L63.336-29.4h4.326L75.6-5.5l8.274-23.9h3.864L95.844-5.376,103.95-29.4ZM133.056-3.654V0H111.72V-29.4h20.748v3.654H115.92v9.03h14.742v3.57H115.92v9.492ZM158.172,0,151.83-9.03q-1.176.084-1.848.084h-7.266V0h-4.2V-29.4h11.466q5.712,0,8.988,2.73a9.259,9.259,0,0,1,3.276,7.518,9.834,9.834,0,0,1-1.68,5.8,9.492,9.492,0,0,1-4.788,3.486L162.75,0Zm-8.316-12.516a9.4,9.4,0,0,0,6.09-1.722,5.993,5.993,0,0,0,2.1-4.914,5.932,5.932,0,0,0-2.1-4.893,9.478,9.478,0,0,0-6.09-1.7h-7.14v13.23Zm39.186,8.862V0H167.706V-29.4h20.748v3.654H171.906v9.03h14.742v3.57H171.906v9.492ZM194.5-29.4h12.39a17.913,17.913,0,0,1,8.274,1.848,13.577,13.577,0,0,1,5.607,5.187,14.654,14.654,0,0,1,1.995,7.665,14.654,14.654,0,0,1-1.995,7.665,13.577,13.577,0,0,1-5.607,5.187A17.913,17.913,0,0,1,206.892,0H194.5ZM206.64-3.654a13.6,13.6,0,0,0,6.279-1.386A10.019,10.019,0,0,0,217.1-8.925a11.177,11.177,0,0,0,1.47-5.775,11.177,11.177,0,0,0-1.47-5.775,10.019,10.019,0,0,0-4.179-3.885,13.6,13.6,0,0,0-6.279-1.386H198.7V-3.654Zm50.946-11.592a7.53,7.53,0,0,1,4.032,2.583,7.41,7.41,0,0,1,1.47,4.725,6.794,6.794,0,0,1-2.877,5.88Q257.334,0,251.832,0H237.8V-29.4h13.188q5.04,0,7.791,2.016a6.539,6.539,0,0,1,2.751,5.586,7.264,7.264,0,0,1-1.071,3.99A6.976,6.976,0,0,1,257.586-15.246ZM242-26v9.408h8.61a8.743,8.743,0,0,0,4.977-1.2,3.984,3.984,0,0,0,1.743-3.507,3.984,3.984,0,0,0-1.743-3.507,8.743,8.743,0,0,0-4.977-1.2Zm9.66,22.6a9.944,9.944,0,0,0,5.376-1.176,4.092,4.092,0,0,0,1.806-3.7q0-4.914-7.182-4.914H242V-3.4Zm27.216-6.762V0h-4.158V-10.248L263.046-29.4h4.494l9.408,15.5,9.45-15.5h4.158Z" transform="translate(1159 980)" fill="#c9c9c9"/></g></svg>