<svg xmlns="http://www.w3.org/2000/svg" xmlns:xlink="http://www.w3.org/1999/xlink" width="28" height="28" viewBox="0 0 28 28"><defs><linearGradient id="a" x1="0.5" x2="0.53" y2="1" gradientUnits="objectBoundingBox"><stop offset="0" stop-color="#ffe519"/><stop offset="0.511" stop-color="#ffc40f"/><stop offset="0.69" stop-color="#ffb30a"/><stop offset="1" stop-color="#ff9b02"/></linearGradient></defs><g transform="translate(-258 -588)"><g transform="translate(13092 24253)"><circle cx="12" cy="12" r="12" transform="translate(-12832 -23663)" fill="url(#a)"/><path d="M-12820.249-23676.043s.12.465-.363.3c-4.238-2.172-6.994-.092-6.994-.092s-.2.1-.43-.207C-12827.9-23678.178-12822.456-23680.129-12820.249-23676.043Z" transform="translate(4.379 31.561)" fill="#1a1626"/><path d="M5.931,2.232c-.052.425-.44.164-.828-.093C2.811.78,1.227,1.643.866,1.906s-.629.631-.855.319A2.7,2.7,0,0,1,3.314.07C4.384.207,6.031,1.644,5.931,2.232Z" transform="translate(-12821.507 -23651.186) rotate(159)" fill="#1a1626"/><path d="M5.931.225C5.879-.2,5.491.061,5.1.318,2.811,1.677,1.227.814.866.551S.237-.08.011.232a2.7,2.7,0,0,0,3.3,2.155C4.384,2.251,6.032.813,5.931.225Z" transform="translate(-12817.563 -23653.479) rotate(21)" fill="#1a1626"/></g><rect width="28" height="28" transform="translate(258 588)" fill="none"/></g></svg>