<svg xmlns="http://www.w3.org/2000/svg" width="38" height="36" viewBox="0 0 38 36"><g transform="translate(-139.722 -591.002)"><g transform="translate(-157 -17.957)"><rect width="1.762" height="7.046" rx="0.881" transform="translate(321.32 620.691) rotate(-150)" fill="#3b3b3b"/><rect width="1.762" height="7.046" rx="0.881" transform="translate(305.586 614.59) rotate(-30)" fill="#3b3b3b"/><g transform="translate(296.722 608.959)"><g transform="translate(0 0)"><ellipse cx="2.763" cy="2.763" rx="2.763" ry="2.763" transform="translate(29.26 7.548) rotate(-150)" fill="#3b3b3b"/><ellipse cx="2.763" cy="2.763" rx="2.763" ry="2.763" transform="translate(4.828 2.763) rotate(-30)" fill="#3b3b3b"/><g transform="translate(0 8.629)"><g transform="translate(28.633 7.832)"><ellipse cx="4.684" cy="4.93" rx="4.684" ry="4.93" transform="translate(0)" fill="#3b3b3b"/><path d="M421.09,164.1a4.483,4.483,0,0,1,2.559.809s.527,5.77.776,7.576a4.55,4.55,0,0,1-3.335,1.475,4.937,4.937,0,0,1,0-9.86Z" transform="translate(-416.406 -164.098)" fill="#fff" opacity="0"/></g><g transform="translate(0 7.832)"><ellipse cx="4.684" cy="4.93" rx="4.684" ry="4.93" fill="#3b3b3b"/><path d="M341.47,164.1a4.483,4.483,0,0,0-2.559.809s-.527,5.77-.776,7.576a4.55,4.55,0,0,0,3.335,1.475,4.937,4.937,0,0,0,0-9.86Z" transform="translate(-336.786 -164.098)" fill="#3b3b3b" opacity="0.4"/></g><g transform="translate(2.328)"><path d="M350.583,167.87h14.175a9.541,9.541,0,0,0,9.509-10.706l-.929-7.335a9.561,9.561,0,0,0-9.508-8.33H351.512a9.561,9.561,0,0,0-9.509,8.33l-.929,7.335A9.541,9.541,0,0,0,350.583,167.87Z" transform="translate(-340.998 -140.499)" fill="#3b3b3b"/><path d="M350.583,167.87h14.175a9.541,9.541,0,0,0,9.509-10.706l-.929-7.335a9.561,9.561,0,0,0-9.508-8.33H351.512a9.561,9.561,0,0,0-9.509,8.33l-.929,7.335A9.541,9.541,0,0,0,350.583,167.87Z" transform="translate(-340.998 -141.499)" fill="#b7e8f6"/><g transform="translate(10.683 17.896)"><path d="M29.841,47.074A5.762,5.762,0,0,1,20,43.3a.294.294,0,0,1,.294-.3H31.242a.294.294,0,0,1,.294.3,5.762,5.762,0,0,1-1.694,3.774Z" transform="translate(-20 -43)" fill="#3b3b3b"/><path d="M5851.748,16876.344a5.546,5.546,0,0,0,7.021-.092c.391-.178-.864-1.514-2.542-1.123l-.814.26s.293-.244-.766-.26a7.646,7.646,0,0,0-3,.488C5851.1,16875.928,5851.748,16876.344,5851.748,16876.344Z" transform="translate(-5849.395 -16872.125)" fill="#fff"/></g><path d="M348.5,141.716c1.944-.621,2-.467,15.327-.467a9.811,9.811,0,0,1,9.757,8.549c.959,7.57,1.219,8.382.836,10.382a9.817,9.817,0,0,1-6.237,7.331c-2.3.848-2.735.608-17.6.608a9.791,9.791,0,0,1-9.756-10.987c.834-6.587.887-8.023,1.507-9.626A9.822,9.822,0,0,1,348.5,141.716Zm-6.251,8.144h0c-.947,7.479-1.205,8.319-.841,10.226a9.317,9.317,0,0,0,5.919,6.957c2.059.76,1.916.577,17.429.577a9.29,9.29,0,0,0,9.26-10.424c-1-7.9-.94-8.12-1.478-9.508a9.322,9.322,0,0,0-5.85-5.494c-1.85-.592-1.756-.445-15.178-.445A9.31,9.31,0,0,0,342.251,149.86Z" transform="translate(-340.998 -141.499)" fill="#3b3b3b"/></g></g></g></g><path d="M4.209,0H19.5a4.181,4.181,0,0,1,4.209,4.152V6.228A2.09,2.09,0,0,1,21.6,8.3H2.1A2.09,2.09,0,0,1,0,6.228V4.152A4.181,4.181,0,0,1,4.209,0Z" transform="translate(303.593 622.943)" fill="#484848"/><path d="M4.061,0H18.815a4.061,4.061,0,0,1,4.061,4.061V6.092a2.031,2.031,0,0,1-2.031,2.031H2.031A2.031,2.031,0,0,1,0,6.092V4.061A4.061,4.061,0,0,1,4.061,0Z" transform="translate(304.008 624.149)" fill="#fff"/><g transform="translate(307.311 626.178)"><ellipse cx="2.031" cy="2.031" rx="2.031" ry="2.031" transform="translate(0 0)" fill="#3b3b3b"/><ellipse cx="2.031" cy="2.031" rx="2.031" ry="2.031" transform="translate(12.185 0)" fill="#3b3b3b"/></g><path d="M.838.838A4.557,4.557,0,0,1,4.069-.5H18.823a4.569,4.569,0,0,1,4.569,4.569c0,2.147.037,2.3-.116,2.792a2.543,2.543,0,0,1-1.661,1.661c-.529.166,1.017.116-19.577.116A2.538,2.538,0,0,1-.5,6.1C-.5,4.013-.73,2.406.838.838ZM.008,4.069V6.1A2.031,2.031,0,0,0,2.039,8.13H20.854A2.031,2.031,0,0,0,22.885,6.1V4.069A4.061,4.061,0,0,0,18.823.008H4.069A4.061,4.061,0,0,0,.008,4.069Z" transform="translate(304 624.141)" fill="#484848"/></g></g></svg>