<svg xmlns="http://www.w3.org/2000/svg" xmlns:xlink="http://www.w3.org/1999/xlink" width="28" height="28" viewBox="0 0 28 28"><defs><linearGradient id="a" x1="0.5" x2="0.53" y2="1" gradientUnits="objectBoundingBox"><stop offset="0" stop-color="#ffe519"/><stop offset="0.511" stop-color="#ffc40f"/><stop offset="0.69" stop-color="#ffb30a"/><stop offset="1" stop-color="#ff9b02"/></linearGradient></defs><g transform="translate(-258 -627)"><g transform="translate(13080 24300)"><g transform="translate(-12820 -23671)"><circle cx="12" cy="12" r="12" fill="url(#a)"/><path d="M-12822.3-23676.072c0,.285-.258.363-.6.08-2.365-2.8-3.395-1.139-4.578.139.094-.043-.357.289-.523,0C-12828.291-23677.025-12824.793-23682.895-12822.3-23676.072Z" transform="translate(12833.152 23686.836)" fill="#1a1626"/><path d="M-12828.166-23676.059c0,.285.259.363.6.08,2.365-2.8,3.394-1.141,4.577.139-.095-.043.358.287.523,0C-12822.174-23677.012-12825.674-23682.881-12828.166-23676.059Z" transform="translate(12841.051 23686.838)" fill="#1a1626"/><path d="M-12817.105-23683.166c.447-2.031,13.787-1.889,14.635-.42s-.365,5.094-2.617,5.869c-2.986.578-8.062.32-8.615,0C-12815.471-23678.068-12817.105-23680.021-12817.105-23683.166Z" transform="translate(12821.511 23697.486)" fill="#1a1626"/><path d="M-12815.646-23683.227a1.833,1.833,0,0,0,.477,1.963c1.132,0,8.466.07,10.835.07.686-1.187.46-2.033.229-2.209C-12805.166-23684.014-12815.429-23684.035-12815.646-23683.227Z" transform="translate(12821.69 23697.594)" fill="#fff"/><path d="M-12815.059-23680.937c-.789,2.949,10.357,3.27,10.357,0Z" transform="translate(12821.775 23697.977)" fill="#fff"/></g></g><rect width="28" height="28" transform="translate(258 627)" fill="none"/></g></svg>