<svg xmlns="http://www.w3.org/2000/svg" width="1000" height="1002" viewBox="0 0 1000 1002"><g transform="translate(-1278 -541)"><g transform="translate(1278 541)" fill="#ebfeff" stroke="#b9d5d6" stroke-width="1"><rect width="1000" height="1000" rx="4" stroke="none"/><rect x="0.5" y="0.5" width="999" height="999" rx="3.5" fill="none"/></g><g transform="translate(1278 1326)" fill="#3f3b41" stroke="#b9d5d6" stroke-width="1"><rect width="1000" height="217" rx="4" stroke="none"/><rect x="0.5" y="0.5" width="999" height="216" rx="3.5" fill="none"/></g><g transform="translate(1946 1032.941)"><path d="M92.369,335.678,79.428,316.266a4.975,4.975,0,0,0-8.279,0L.844,421.723a4.975,4.975,0,0,0,4.139,7.735H293.521a4.975,4.975,0,0,0,4.139-7.735L227.355,316.265a4.975,4.975,0,0,0-8.279,0l-12.942,19.413Z" transform="translate(0 -115.493)" fill="#756e79"/><path d="M288,406.132,223.33,309.123l-49.749-33.1-49.75,33.1L59.159,406.132a4.8,4.8,0,0,0,4,7.47H284A4.8,4.8,0,0,0,288,406.132Z" transform="translate(-24.329 -99.637)" fill="#817d84"/><path d="M388.247,418l-65.88-98.82-23.618-14.694L374.425,418a4.8,4.8,0,0,1-4,7.47h13.822A4.8,4.8,0,0,0,388.247,418Z" transform="translate(-124.574 -111.505)" fill="#756e79"/><path d="M224.557,213.866a4.975,4.975,0,0,0-8.279,0l-45.611,68.417,27.194-13.6a4.805,4.805,0,0,1,5.032.454l14.642,10.981a4.8,4.8,0,0,0,5.766,0l14.642-10.981a4.805,4.805,0,0,1,5.032-.454l27.194,13.6Z" transform="translate(-71.166 -72.794)" fill="#c9cbcb"/><path d="M452.368,421.723l-70.3-105.457a4.975,4.975,0,0,0-8.279,0l-2.768,4.152,67.538,101.306a4.975,4.975,0,0,1-4.139,7.735h13.814a4.975,4.975,0,0,0,4.139-7.735Z" transform="translate(-154.708 -115.493)" fill="#6c626f"/><path d="M280.074,271.916l20.734,10.367L255.2,213.866a4.975,4.975,0,0,0-8.279,0l-2.772,4.157Z" transform="translate(-101.805 -72.794)" fill="#d8e2f3"/></g><g transform="translate(40 -1077.617)"><g transform="translate(1563 2023.955)"><path d="M192.183,177.91H135.058L94.03,164.415h0l-21.247-6.988L33.43,93.793A18.064,18.064,0,1,0,2.7,112.8l42.817,69.235a18.058,18.058,0,0,0,9.72,7.658c10.174,3.3,18.9,6.154,26.411,8.62l-.021.058,37.811,13.688V351.024h95.685V207.294Z" transform="translate(0 -85.228)" fill="#ffb69e"/><path d="M141.039,291.524V479.346a21.678,21.678,0,0,0,43.357,0V291.524Z" transform="translate(30.731 -40.278)" fill="#414b82"/><path d="M98.072,291.524V479.346a21.678,21.678,0,0,0,43.357,0V291.524Z" transform="translate(21.369 -40.278)" fill="#414b82"/><path d="M177.579,163.74h-9.126a17.585,17.585,0,0,1-35.161,0H120.454L79.426,150.246,67.025,184.2l37.811,13.656v139h95.685V193.126Z" transform="translate(14.604 -71.061)" fill="#4385cb"/><circle cx="37.439" cy="37.439" r="37.439" transform="translate(129.646 5.868)" fill="#ffb69e"/></g><path d="M37.271,0A29.819,29.819,0,0,1,58.31,8.694L77.837,28.146,93.078,43.328l47.082-7.333A16.048,16.048,0,0,1,145.1,67.709L89.954,76.3a16.049,16.049,0,0,1-13.828-4.521L46.779,45.809c-3.91-3.917-8.137-2.159-8.763-2.261l-.223,111.076H7.24L0,4.057S23.066,0,37.271,0Z" transform="matrix(0.995, 0.105, -0.105, 0.995, 1747.485, 2112.927)" fill="#4385cb"/><path d="M23.122,0,41.681,18.433,88.762,11.1A16.048,16.048,0,0,1,93.7,42.814L38.557,51.4a16.049,16.049,0,0,1-13.828-4.521L0,25.231Z" transform="matrix(0.995, 0.105, -0.105, 0.995, 1795.998, 2143.058)" fill="#ffb69e"/><path d="M0,1.388,7.665.195A16.048,16.048,0,0,1,12.6,31.909l-7.732,1.2Z" transform="matrix(0.995, 0.105, -0.105, 0.995, 1875.511, 2162.382)" fill="#ffb69e"/><path d="M525.581,0H13.328C5.967,0,0,5.354,0,11.959S5.967,23.916,13.328,23.916H525.58c7.36,0,13.328-5.354,13.328-11.959S532.942,0,525.581,0Z" transform="matrix(-0.07, 0.998, -0.998, -0.07, 1907.86, 1929.568)" fill="#2e2614"/><path d="M141.664,5.239A11.17,11.17,0,0,0,132.21,0H30.257A8.642,8.642,0,0,0,22.5,12.442c32.56,66.541-56.264,133.082-7.566,199.624H138.108C87.654,143.124,184.825,74.182,141.664,5.239Z" transform="matrix(-0.07, 0.998, -0.998, -0.07, 2095.252, 1946.975)" fill="#fb704d"/><path d="M67.359,0a11.174,11.174,0,0,1,9.454,5.239c43.16,68.942-54.01,137.885-3.555,206.826H14.934C-33.764,145.524,55.061,78.983,22.5,12.442,21.092,9.564,16.142,0,16.142,0Z" transform="matrix(-0.07, 0.998, -0.998, -0.07, 2090.728, 2011.668)" fill="#f9623b"/></g><g transform="translate(1581.262 691.646)"><circle cx="6" cy="6" r="6" transform="translate(11.738 9.354)" fill="#e17d46"/><circle cx="7.5" cy="7.5" r="7.5" transform="translate(-43.262 110.354)" fill="#8dc5e8"/><circle cx="8.5" cy="8.5" r="8.5" transform="translate(101.738 88.354)" fill="#ade993"/><path d="M0,0H5.688V5.688H0Z" transform="translate(26.096 34.52) rotate(-45)" fill="#ade993"/><path d="M0,0H5.688V5.688H0Z" transform="translate(59.88 70.41) rotate(-45)" fill="#e17d46"/><g transform="translate(48.005 105.755)"><path d="M112.983,47.032l-.05-8.286-6.855-4.656,7.865-2.608,2.31-7.958,2.838,7.656,8.282-.262-4.83,6.733,2.809,4.96-5.823-.658Z" transform="translate(-106.078 -23.523)" fill="#f6e486"/><path d="M207.7,36.669l4.83-6.733-8.282.262-4.911-6.674,3.278,18.43,7.895,2.512Z" transform="translate(-189.165 -23.523)" fill="#f0ce46"/></g><g transform="translate(-8.194 53.95)"><path d="M9.453,285.018l-2.469-6.6L.146,276.709l5.515-4.388-.488-7.031,4.82,4.946,6.536-2.637-1.882,6.792,4.316,3.71-5.772.943Z" transform="translate(-0.146 -265.29)" fill="#f6e486"/><path d="M58.226,273.333l1.882-6.792-6.536,2.637L47.7,265.29l8.018,13.753,7.041-.309Z" transform="translate(-42.669 -265.29)" fill="#f0ce46"/></g><path d="M346.2,222.007l-7.557-5.572-10.637,2.451,4.525-9.933-5.617-9.359,10.845,1.234,7.165-8.235.213,10.532,10.045,4.269-9.5,5.376Z" transform="translate(-222.893 -149.752)" fill="#f6e486"/><path d="M407.559,212.934l9.5-5.376-10.045-4.269-2.178-10.7-6.281,23.842,8.048,7.373Z" transform="translate(-282.805 -149.752)" fill="#f0ce46"/></g><g transform="translate(1730.665 828.029) rotate(-30)"><ellipse cx="6" cy="6.5" rx="6" ry="6.5" transform="translate(2 12.35)" fill="#e17d46"/><circle cx="7.5" cy="7.5" r="7.5" transform="translate(85 0.35)" fill="#8dc5e8"/><circle cx="9" cy="9" r="9" transform="translate(41 7.35)" fill="#ade993"/><path d="M0,0H5.979V5.979H0Z" transform="translate(16.671 39.478) rotate(-45)" fill="#ade993"/><path d="M0,0H5.979V5.979H0Z" transform="translate(-11.087 78.607) rotate(-45)" fill="#e17d46"/><g transform="translate(41.106 66.55)"><path d="M113.336,48.234l-.053-8.71-7.2-4.894,8.267-2.742,2.428-8.365,2.983,8.048,8.706-.275-5.077,7.077,2.952,5.213-6.121-.692Z" transform="translate(-106.078 -23.523)" fill="#f6e486"/><path d="M208.132,37.34l5.077-7.077-8.706.275-5.162-7.015,3.445,19.371,8.3,2.641Z" transform="translate(-188.645 -23.523)" fill="#f0ce46"/></g><g transform="translate(102.947 33.187)"><path d="M9.928,286.026l-2.6-6.938-7.187-1.8,5.8-4.612-.513-7.39,5.067,5.2,6.87-2.772-1.978,7.139,4.537,3.9-6.067.991Z" transform="translate(-0.146 -265.29)" fill="#f6e486"/><path d="M58.764,273.744l1.978-7.139-6.87,2.772L47.7,265.29l8.427,14.456,7.4-.324Z" transform="translate(-42.412 -265.29)" fill="#f0ce46"/></g></g><g transform="translate(1706.989 701)"><g transform="translate(51.975 41.06)"><path d="M275.665,274.873a2.345,2.345,0,0,1-1.641-.666,27.473,27.473,0,0,0-19.255-7.82,27.793,27.793,0,0,0-16.537,5.5,2.354,2.354,0,0,1-2.819-3.77,32.531,32.531,0,0,1,19.355-6.435,32.156,32.156,0,0,1,22.537,9.153,2.354,2.354,0,0,1-1.641,4.041Z" transform="translate(-234.469 -261.679)" fill="#ca75f5"/></g><g transform="translate(33.191 9.336)"><path d="M125.5,90.909a2.354,2.354,0,0,1-1.893-3.749,14.985,14.985,0,0,0-7.253-23.076,2.354,2.354,0,0,1,1.512-4.458A19.692,19.692,0,0,1,127.4,89.951,2.35,2.35,0,0,1,125.5,90.909Z" transform="translate(-114.756 -59.501)" fill="#fdbf00"/></g><g transform="translate(58.285 0)"><path d="M277.033,28.9a2.354,2.354,0,0,1-1.664-4.018c2.243-2.243,5.332-2.8,8.058-3.293,2.245-.405,4.365-.788,5.566-1.99s1.584-3.322,1.99-5.566c.492-2.726,1.05-5.815,3.293-8.058,2.762-2.762,6.413-3.655,9.944-4.518a36.741,36.741,0,0,0,4.494-1.3,2.354,2.354,0,0,1,1.7,4.389,40.736,40.736,0,0,1-5.078,1.479c-3.036.742-5.9,1.443-7.734,3.274-1.2,1.2-1.584,3.322-1.99,5.567-.492,2.726-1.05,5.815-3.293,8.058s-5.332,2.8-8.058,3.293c-2.245.405-4.365.788-5.566,1.99A2.347,2.347,0,0,1,277.033,28.9Z" transform="translate(-274.68 0)" fill="#ff8856"/></g><g transform="translate(18.01 3.609)"><path d="M321.364,31.712a2.354,2.354,0,1,0-2.354-2.354A2.358,2.358,0,0,0,321.364,31.712Z" transform="translate(-271.779 -26.377)" fill="#bee75e" fill-rule="evenodd"/><path d="M35.842,189.65a2.354,2.354,0,1,0-2.354-2.354A2.358,2.358,0,0,0,35.842,189.65Z" transform="translate(-31.059 -159.533)" fill="#d98ff8" fill-rule="evenodd"/><path d="M20.364,27.712a2.354,2.354,0,1,0-2.354-2.354A2.358,2.358,0,0,0,20.364,27.712Z" transform="translate(-18.01 -23.005)" fill="#7dd5f4" fill-rule="evenodd"/><path d="M352.364,345.711a2.354,2.354,0,1,0-2.354-2.354A2.358,2.358,0,0,0,352.364,345.711Z" transform="translate(-297.915 -291.106)" fill="#ff8856" fill-rule="evenodd"/><path d="M439.364,482.711a2.354,2.354,0,1,0-2.354-2.354A2.358,2.358,0,0,0,439.364,482.711Z" transform="translate(-371.264 -406.609)" fill="#4793ff" fill-rule="evenodd"/><path d="M236.364,466.712a2.354,2.354,0,1,0-2.354-2.354A2.358,2.358,0,0,0,236.364,466.712Z" transform="translate(-200.117 -393.121)" fill="#ff435b" fill-rule="evenodd"/></g><g transform="translate(51.007 0)"><path d="M233.213,15.3c-.065,0-.13,0-.2-.008a2.354,2.354,0,0,1-2.152-2.54,15.084,15.084,0,0,0-2.21-9.149,2.354,2.354,0,1,1,4-2.486,19.823,19.823,0,0,1,2.9,12.023A2.354,2.354,0,0,1,233.213,15.3Z" transform="translate(-228.3 -0.002)" fill="#d98ff8"/></g><g transform="translate(72.434 28.043)"><path d="M367.21,184.965a2.354,2.354,0,0,1-.744-4.587,32.459,32.459,0,0,1,15.369-1.247,2.354,2.354,0,0,1-.75,4.647,27.721,27.721,0,0,0-13.131,1.065A2.348,2.348,0,0,1,367.21,184.965Z" transform="translate(-364.855 -178.722)" fill="#ff435b"/></g><path d="M254.6,235.137a2.354,2.354,0,1,0-2.354-2.354A2.358,2.358,0,0,0,254.6,235.137Z" transform="translate(-197.48 -194.273)" fill="#7dd5f4" fill-rule="evenodd"/><path d="M465.364,84.712a2.354,2.354,0,1,0-2.354-2.354A2.358,2.358,0,0,0,465.364,84.712Z" transform="translate(-375.174 -67.452)" fill="#00cb75" fill-rule="evenodd"/><g transform="translate(69.745 0.73)"><path d="M347.718,115.83a10.192,10.192,0,0,0,9.115-9.116Z" transform="translate(-347.718 -90.7)" fill="#ff435b"/><path d="M480.52,4.657l-5.09,5.09a35.023,35.023,0,0,0,4.237-1.272,2.353,2.353,0,0,0,.853-3.818Z" transform="translate(-455.39 -4.657)" fill="#ff435b"/></g><path d="M259.9,234.761l-3.325,3.325a2.351,2.351,0,1,0,3.325-3.325Z" transform="translate(-201.131 -197.925)" fill="#4793ff" fill-rule="evenodd"/></g><g transform="translate(1894.989 731)"><g transform="translate(51.975 41.06)"><path d="M275.665,274.873a2.345,2.345,0,0,1-1.641-.666,27.473,27.473,0,0,0-19.255-7.82,27.793,27.793,0,0,0-16.537,5.5,2.354,2.354,0,0,1-2.819-3.77,32.531,32.531,0,0,1,19.355-6.435,32.156,32.156,0,0,1,22.537,9.153,2.354,2.354,0,0,1-1.641,4.041Z" transform="translate(-234.469 -261.679)" fill="#ca75f5"/></g><g transform="translate(33.191 9.336)"><path d="M125.5,90.909a2.354,2.354,0,0,1-1.893-3.749,14.985,14.985,0,0,0-7.253-23.076,2.354,2.354,0,0,1,1.512-4.458A19.692,19.692,0,0,1,127.4,89.951,2.35,2.35,0,0,1,125.5,90.909Z" transform="translate(-114.756 -59.501)" fill="#fdbf00"/></g><g transform="translate(58.285 0)"><path d="M277.033,28.9a2.354,2.354,0,0,1-1.664-4.018c2.243-2.243,5.332-2.8,8.058-3.293,2.245-.405,4.365-.788,5.566-1.99s1.584-3.322,1.99-5.566c.492-2.726,1.05-5.815,3.293-8.058,2.762-2.762,6.413-3.655,9.944-4.518a36.741,36.741,0,0,0,4.494-1.3,2.354,2.354,0,0,1,1.7,4.389,40.736,40.736,0,0,1-5.078,1.479c-3.036.742-5.9,1.443-7.734,3.274-1.2,1.2-1.584,3.322-1.99,5.567-.492,2.726-1.05,5.815-3.293,8.058s-5.332,2.8-8.058,3.293c-2.245.405-4.365.788-5.566,1.99A2.347,2.347,0,0,1,277.033,28.9Z" transform="translate(-274.68 0)" fill="#ff8856"/></g><g transform="translate(18.01 3.609)"><path d="M321.364,31.712a2.354,2.354,0,1,0-2.354-2.354A2.358,2.358,0,0,0,321.364,31.712Z" transform="translate(-271.779 -26.377)" fill="#bee75e" fill-rule="evenodd"/><path d="M35.842,189.65a2.354,2.354,0,1,0-2.354-2.354A2.358,2.358,0,0,0,35.842,189.65Z" transform="translate(-31.059 -159.533)" fill="#d98ff8" fill-rule="evenodd"/><path d="M20.364,27.712a2.354,2.354,0,1,0-2.354-2.354A2.358,2.358,0,0,0,20.364,27.712Z" transform="translate(-18.01 -23.005)" fill="#7dd5f4" fill-rule="evenodd"/><path d="M352.364,345.711a2.354,2.354,0,1,0-2.354-2.354A2.358,2.358,0,0,0,352.364,345.711Z" transform="translate(-297.915 -291.106)" fill="#ff8856" fill-rule="evenodd"/><path d="M439.364,482.711a2.354,2.354,0,1,0-2.354-2.354A2.358,2.358,0,0,0,439.364,482.711Z" transform="translate(-371.264 -406.609)" fill="#4793ff" fill-rule="evenodd"/><path d="M236.364,466.712a2.354,2.354,0,1,0-2.354-2.354A2.358,2.358,0,0,0,236.364,466.712Z" transform="translate(-200.117 -393.121)" fill="#ff435b" fill-rule="evenodd"/></g><g transform="translate(51.007 0)"><path d="M233.213,15.3c-.065,0-.13,0-.2-.008a2.354,2.354,0,0,1-2.152-2.54,15.084,15.084,0,0,0-2.21-9.149,2.354,2.354,0,1,1,4-2.486,19.823,19.823,0,0,1,2.9,12.023A2.354,2.354,0,0,1,233.213,15.3Z" transform="translate(-228.3 -0.002)" fill="#d98ff8"/></g><g transform="translate(72.434 28.043)"><path d="M367.21,184.965a2.354,2.354,0,0,1-.744-4.587,32.459,32.459,0,0,1,15.369-1.247,2.354,2.354,0,0,1-.75,4.647,27.721,27.721,0,0,0-13.131,1.065A2.348,2.348,0,0,1,367.21,184.965Z" transform="translate(-364.855 -178.722)" fill="#ff435b"/></g><path d="M254.6,235.137a2.354,2.354,0,1,0-2.354-2.354A2.358,2.358,0,0,0,254.6,235.137Z" transform="translate(-197.48 -194.273)" fill="#7dd5f4" fill-rule="evenodd"/><path d="M465.364,84.712a2.354,2.354,0,1,0-2.354-2.354A2.358,2.358,0,0,0,465.364,84.712Z" transform="translate(-375.174 -67.452)" fill="#00cb75" fill-rule="evenodd"/><g transform="translate(69.745 0.73)"><path d="M347.718,115.83a10.192,10.192,0,0,0,9.115-9.116Z" transform="translate(-347.718 -90.7)" fill="#ff435b"/><path d="M480.52,4.657l-5.09,5.09a35.023,35.023,0,0,0,4.237-1.272,2.353,2.353,0,0,0,.853-3.818Z" transform="translate(-455.39 -4.657)" fill="#ff435b"/></g><path d="M259.9,234.761l-3.325,3.325a2.351,2.351,0,1,0,3.325-3.325Z" transform="translate(-201.131 -197.925)" fill="#4793ff" fill-rule="evenodd"/></g><g transform="translate(1589.989 833)"><g transform="translate(51.975 41.06)"><path d="M275.665,274.873a2.345,2.345,0,0,1-1.641-.666,27.473,27.473,0,0,0-19.255-7.82,27.793,27.793,0,0,0-16.537,5.5,2.354,2.354,0,0,1-2.819-3.77,32.531,32.531,0,0,1,19.355-6.435,32.156,32.156,0,0,1,22.537,9.153,2.354,2.354,0,0,1-1.641,4.041Z" transform="translate(-234.469 -261.679)" fill="#ca75f5"/></g><g transform="translate(33.191 9.336)"><path d="M125.5,90.909a2.354,2.354,0,0,1-1.893-3.749,14.985,14.985,0,0,0-7.253-23.076,2.354,2.354,0,0,1,1.512-4.458A19.692,19.692,0,0,1,127.4,89.951,2.35,2.35,0,0,1,125.5,90.909Z" transform="translate(-114.756 -59.501)" fill="#fdbf00"/></g><g transform="translate(58.285 0)"><path d="M277.033,28.9a2.354,2.354,0,0,1-1.664-4.018c2.243-2.243,5.332-2.8,8.058-3.293,2.245-.405,4.365-.788,5.566-1.99s1.584-3.322,1.99-5.566c.492-2.726,1.05-5.815,3.293-8.058,2.762-2.762,6.413-3.655,9.944-4.518a36.741,36.741,0,0,0,4.494-1.3,2.354,2.354,0,0,1,1.7,4.389,40.736,40.736,0,0,1-5.078,1.479c-3.036.742-5.9,1.443-7.734,3.274-1.2,1.2-1.584,3.322-1.99,5.567-.492,2.726-1.05,5.815-3.293,8.058s-5.332,2.8-8.058,3.293c-2.245.405-4.365.788-5.566,1.99A2.347,2.347,0,0,1,277.033,28.9Z" transform="translate(-274.68 0)" fill="#ff8856"/></g><g transform="translate(18.01 3.609)"><path d="M321.364,31.712a2.354,2.354,0,1,0-2.354-2.354A2.358,2.358,0,0,0,321.364,31.712Z" transform="translate(-271.779 -26.377)" fill="#bee75e" fill-rule="evenodd"/><path d="M35.842,189.65a2.354,2.354,0,1,0-2.354-2.354A2.358,2.358,0,0,0,35.842,189.65Z" transform="translate(-31.059 -159.533)" fill="#d98ff8" fill-rule="evenodd"/><path d="M20.364,27.712a2.354,2.354,0,1,0-2.354-2.354A2.358,2.358,0,0,0,20.364,27.712Z" transform="translate(-18.01 -23.005)" fill="#7dd5f4" fill-rule="evenodd"/><path d="M352.364,345.711a2.354,2.354,0,1,0-2.354-2.354A2.358,2.358,0,0,0,352.364,345.711Z" transform="translate(-297.915 -291.106)" fill="#ff8856" fill-rule="evenodd"/><path d="M439.364,482.711a2.354,2.354,0,1,0-2.354-2.354A2.358,2.358,0,0,0,439.364,482.711Z" transform="translate(-371.264 -406.609)" fill="#4793ff" fill-rule="evenodd"/><path d="M236.364,466.712a2.354,2.354,0,1,0-2.354-2.354A2.358,2.358,0,0,0,236.364,466.712Z" transform="translate(-200.117 -393.121)" fill="#ff435b" fill-rule="evenodd"/></g><g transform="translate(51.007 0)"><path d="M233.213,15.3c-.065,0-.13,0-.2-.008a2.354,2.354,0,0,1-2.152-2.54,15.084,15.084,0,0,0-2.21-9.149,2.354,2.354,0,1,1,4-2.486,19.823,19.823,0,0,1,2.9,12.023A2.354,2.354,0,0,1,233.213,15.3Z" transform="translate(-228.3 -0.002)" fill="#d98ff8"/></g><g transform="translate(72.434 28.043)"><path d="M367.21,184.965a2.354,2.354,0,0,1-.744-4.587,32.459,32.459,0,0,1,15.369-1.247,2.354,2.354,0,0,1-.75,4.647,27.721,27.721,0,0,0-13.131,1.065A2.348,2.348,0,0,1,367.21,184.965Z" transform="translate(-364.855 -178.722)" fill="#ff435b"/></g><path d="M254.6,235.137a2.354,2.354,0,1,0-2.354-2.354A2.358,2.358,0,0,0,254.6,235.137Z" transform="translate(-197.48 -194.273)" fill="#7dd5f4" fill-rule="evenodd"/><path d="M465.364,84.712a2.354,2.354,0,1,0-2.354-2.354A2.358,2.358,0,0,0,465.364,84.712Z" transform="translate(-375.174 -67.452)" fill="#00cb75" fill-rule="evenodd"/><g transform="translate(69.745 0.73)"><path d="M347.718,115.83a10.192,10.192,0,0,0,9.115-9.116Z" transform="translate(-347.718 -90.7)" fill="#ff435b"/><path d="M480.52,4.657l-5.09,5.09a35.023,35.023,0,0,0,4.237-1.272,2.353,2.353,0,0,0,.853-3.818Z" transform="translate(-455.39 -4.657)" fill="#ff435b"/></g><path d="M259.9,234.761l-3.325,3.325a2.351,2.351,0,1,0,3.325-3.325Z" transform="translate(-201.131 -197.925)" fill="#4793ff" fill-rule="evenodd"/></g></g></svg>