<svg xmlns="http://www.w3.org/2000/svg" width="186" height="100" viewBox="0 0 186 100">
  <g id="Change_a_belief" data-name="Change a belief" transform="translate(-384 -128)">
    <rect id="Rectangle_4041" data-name="Rectangle 4041" width="186" height="100" rx="8" transform="translate(384 128)" fill="#3e4347" opacity="0"/>
    <g id="Group_12382" data-name="Group 12382" transform="translate(62.268 9.816)">
      <g id="happy">
        <path id="Union_176" data-name="Union 176" d="M22253.754,16565.516a15.88,15.88,0,0,1-11.373-4.785,12.472,12.472,0,0,1-3.547-9.3,13.428,13.428,0,0,1,4.2-9,16.715,16.715,0,0,1,9.836-4.5,5.958,5.958,0,0,1,.7-.033c3.4,0,8.014,2.264,13.355,4.893h.006c3.289,1.609,6.691,3.279,10.178,4.6l1.475.555.033.023a.066.066,0,0,1,.033.01,1.261,1.261,0,0,1,.174,2.275l-6.865,4.877-.018.012c-.48.426-3.037,2.678-6.125,4.938-3.111,2.3-7.426,5.088-10.285,5.352a15.916,15.916,0,0,1-1.6.078Zm-9.533-13.5a8.5,8.5,0,1,0,8.5-8.5v-.006A8.5,8.5,0,0,0,22244.221,16552.016Zm62-3.5a13,13,0,1,1,13,13A13.015,13.015,0,0,1,22306.219,16548.518Zm2,0a11,11,0,1,0,11-11A11.01,11.01,0,0,0,22308.219,16548.518Zm-135,0a13,13,0,1,1,13,13A13.013,13.013,0,0,1,22173.221,16548.518Zm1.994,0a11,11,0,1,0,11-11A11.012,11.012,0,0,0,22175.215,16548.518Zm123.2,10.6c0-4.23-.791-18.932-10.986-30.506-7.789-8.85-22.766-15.727-34.205-15.727h-.229c-12.926.107-25.316,5.186-33.152,13.586-10.723,11.484-13.922,24.346-13.34,32.553a1.351,1.351,0,0,1-2.7.189c-.617-8.771,2.752-22.463,14.057-34.586,8.457-9.062,21.252-14.326,35.107-14.443,12.357-.084,28.045,7.057,36.486,16.641,10.816,12.285,11.652,27.826,11.652,32.293a1.348,1.348,0,1,1-2.7,0Zm-9.7-.6a1.5,1.5,0,1,1,0-3h3a1.5,1.5,0,0,1,0,3Zm-75,0a1.5,1.5,0,0,1,0-3h3.006a1.5,1.5,0,0,1,0,3Zm35.193-3.4a.491.491,0,0,1,0-.711.522.522,0,0,1,.729,0,4.633,4.633,0,0,0,3.445,1.563,4.311,4.311,0,0,0,2.8-1.512.534.534,0,0,1,.729-.1.48.48,0,0,1,.1.7,5.312,5.312,0,0,1-3.543,1.91,2.5,2.5,0,0,1-.291.012A5.758,5.758,0,0,1,22248.906,16555.119Zm64.57-2.348a.9.9,0,0,1,1.277-1.277c1.592,1.592,3.2,2.348,4.736,2.242a5.9,5.9,0,0,0,3.8-2.137.9.9,0,1,1,1.439,1.076,7.683,7.683,0,0,1-5.111,2.854c-.15.006-.291.012-.432.012A8.179,8.179,0,0,1,22313.477,16552.771Zm-123.8,1.232a5.059,5.059,0,0,0-3.25-1.766,5.462,5.462,0,0,0-4.076,1.855.909.909,0,0,1-1.271-.027.919.919,0,0,1,.033-1.277,7.181,7.181,0,0,1,5.459-2.344,6.8,6.8,0,0,1,4.523,2.449.885.885,0,0,1-.156,1.256.873.873,0,0,1-.545.189A.929.929,0,0,1,22189.676,16554Zm64.729-4.125a1.387,1.387,0,1,1,1.383,1.391A1.387,1.387,0,0,1,22254.4,16549.879Zm-5.936,0a1.387,1.387,0,1,1,1.389,1.391A1.388,1.388,0,0,1,22248.469,16549.879Zm-60.256-4.365a2,2,0,1,1,2,2.006A2.009,2.009,0,0,1,22188.213,16545.514Zm-8,0a2,2,0,1,1,2,2.006A2,2,0,0,1,22180.215,16545.514Zm141,0a2,2,0,1,1,2,2A2,2,0,0,1,22321.217,16545.514Zm-8,0a2,2,0,1,1,2.006,2A2,2,0,0,1,22313.213,16545.514Zm-35.326-12.879a1.5,1.5,0,0,1,0-2.119l2.125-2.119a1.5,1.5,0,0,1,2.117,2.119l-2.117,2.119a1.5,1.5,0,0,1-2.125,0Zm-52.465,0-2.119-2.119a1.5,1.5,0,0,1,2.119-2.119l2.125,2.119a1.494,1.494,0,0,1,0,2.119,1.5,1.5,0,0,1-2.125,0Zm26.3-12.123v-2.994a1.5,1.5,0,1,1,3,0v2.994a1.5,1.5,0,1,1-3,0Z" transform="translate(-21837.486 -16373)" fill="#3e4347"/>
      </g>
    </g>
  </g>
</svg>
