<svg xmlns="http://www.w3.org/2000/svg" width="125" height="100" viewBox="0 0 125 100">
  <g id="Control_a_worry" data-name="Control a worry" transform="translate(-622 -381)">
    <rect id="Rectangle_3779" data-name="Rectangle 3779" width="125" height="100" rx="8" transform="translate(622 381)" fill="#3e4347" opacity="0"/>
    <g id="exercise" transform="translate(627.663 387.821)">
      <path id="Path_11777" data-name="Path 11777" d="M19.48,74.916h4.4a6.244,6.244,0,0,1-.018-7.392,6.769,6.769,0,0,1-2.7-1.3,1.935,1.935,0,0,1-.305-2.737,1.971,1.971,0,0,1,.257-.262l10.576-8.953A5.6,5.6,0,0,0,33.379,51.8l2.471-7.306v-.007l2.225-6.576a9.925,9.925,0,0,1,6.45-6.267l7.666-2.382A7.989,7.989,0,0,1,48.746,22.7v-5.26a8.1,8.1,0,0,1,16.2-.479q.007.239,0,.479V22.7a7.979,7.979,0,0,1-3.16,6.349c.2.054.4.111.594.173l7.771,2.417a9.925,9.925,0,0,1,6.45,6.267L81.3,51.8a5.6,5.6,0,0,0,1.684,2.479L93.56,63.23a1.933,1.933,0,0,1,.218,2.744,2.046,2.046,0,0,1-.266.255,6.766,6.766,0,0,1-2.832,1.324,6.924,6.924,0,0,1,.4,5.795,6.257,6.257,0,0,1-.873,1.57h4.988a1.131,1.131,0,1,1,0,2.263H19.48a1.132,1.132,0,1,1,0-2.263Zm26-26.388-4.035,9.938a1.216,1.216,0,0,1-.08.16,7.927,7.927,0,0,1-2.942,2.822l-1.338.738,8.4-2.538ZM33.175,56l-10.269,8.69a4.458,4.458,0,0,0,4.617.185l9.789-5.4a5.649,5.649,0,0,0,2.051-1.936l3.6-8.862-5.334-2.305-2.081,6.151A7.863,7.863,0,0,1,33.176,56ZM62.659,22.7v-5.26a5.815,5.815,0,0,0-11.629,0V22.7a5.815,5.815,0,0,0,11.628.144c0-.048,0-.1,0-.144Zm6.806,11.1-7.772-2.416a14.6,14.6,0,0,0-8.711,0L45.211,33.8a7.644,7.644,0,0,0-4.968,4.827L38.352,44.21l5.459,2.359,1.753-4.319a1.146,1.146,0,0,1,1.486-.627,1.133,1.133,0,0,1,.716,1.048V59.354H66.907V42.671a1.144,1.144,0,0,1,2.2-.422l1.517,3.738,5.392-2.67-1.59-4.688A7.644,7.644,0,0,0,69.46,33.8ZM81.5,56a7.863,7.863,0,0,1-2.369-3.477l-2.379-7.031L71.483,48.1l.831,2.05a1.128,1.128,0,0,1-.634,1.472,1.147,1.147,0,0,1-1.486-.628h0l-1-2.464V59.644L77.424,62.1l-1.17-.647a7.916,7.916,0,0,1-2.945-2.82,1.216,1.216,0,0,1-.08-.16l-.854-2.1a1.128,1.128,0,0,1,.634-1.472,1.147,1.147,0,0,1,1.486.628l.818,2.017a5.639,5.639,0,0,0,2.05,1.936l9.788,5.4a4.462,4.462,0,0,0,4.617-.185Zm3.917,18.92h0a3.586,3.586,0,0,0,3.521-2.372,4.714,4.714,0,0,0-1.08-4.979L67.882,61.616H46.8L27.83,67.351a4.014,4.014,0,0,0-1.317,7.033l.689.535H51.33a5.718,5.718,0,0,1,1.345-2.787L50.4,72.008a1.131,1.131,0,0,1,.125-2.259l6.192.339c.262-.046.535-.089.822-.114l17.622-1.822A1.131,1.131,0,0,1,75.4,70.4l-17.627,1.82c-.27.027-.517.064-.752.109h-.015c-2.281.446-3.083,1.672-3.36,2.585Z" transform="translate(0 0)" fill="#3e4347"/>
      <path id="Path_11778" data-name="Path 11778" d="M46.518,79.011h-.064L38.7,78.582a1.15,1.15,0,1,1,.1-2.3h.024l7.758.429a1.15,1.15,0,0,1-.063,2.3Z" transform="translate(-1.937 -7.419)" fill="#3e4347"/>
    </g>
  </g>
</svg>
