<svg xmlns="http://www.w3.org/2000/svg" width="125" height="100" viewBox="0 0 125 100">
  <g id="Evaluate_a_thought" data-name="Evaluate a thought" transform="translate(-417 -20)">
    <rect id="Rectangle_4057" data-name="Rectangle 4057" width="125" height="100" rx="8" transform="translate(417 20)" fill="#3e4347" opacity="0"/>
    <g id="Group_12380" data-name="Group 12380" transform="translate(250.564 -199.137)">
      <path id="Union_168" data-name="Union 168" d="M22149.09,16786.672a13,13,0,1,1,12.98,13.012A13,13,0,0,1,22149.09,16786.672Zm2.492,0a10.5,10.5,0,1,0,10.488-10.5A10.51,10.51,0,0,0,22151.582,16786.672Zm-40.516.008a13.008,13.008,0,1,1,13.023,13A13.021,13.021,0,0,1,22111.066,16786.68Zm2.512,0a10.5,10.5,0,1,0,10.512-10.512A10.521,10.521,0,0,0,22113.578,16786.68Zm52.5,5.613-3.609-3.609-3.605,3.609a1.2,1.2,0,0,1-.875.363,1.214,1.214,0,0,1-.875-.363,1.243,1.243,0,0,1,0-1.773l3.586-3.605-3.586-3.6a1.224,1.224,0,0,1,0-1.758,1.208,1.208,0,0,1,1.75,0l3.605,3.594,3.609-3.594a1.243,1.243,0,0,1,1.758,1.758l-3.594,3.6,3.594,3.605a1.25,1.25,0,0,1-.883,2.137A1.207,1.207,0,0,1,22166.078,16792.293Zm-43.582-.512a2.333,2.333,0,0,1-1.625-.8l-3.41-3.422a1.238,1.238,0,0,1,0-1.77,1.279,1.279,0,0,1,1.773,0l3.262,3.273a.681.681,0,0,0,.09-.1l6.531-6.871a1.252,1.252,0,1,1,1.813,1.727l-6.5,6.848a3.022,3.022,0,0,1-1.77,1.117Zm-22.055-30.1a4.648,4.648,0,1,1,4.648,4.645A4.657,4.657,0,0,1,22100.441,16761.684Zm2.082,0a2.563,2.563,0,1,0,2.566-2.559A2.573,2.573,0,0,0,22102.523,16761.684Zm39.164,2.09c-5.27-.82-9.84-4.715-13.59-11.586-6.461-1.484-10.027-9.176-9.2-15.484.785-5.953,5.711-11.871,17.129-11.008.977-2.16,3.531-5.9,7.625-7.129s8.488.234,13.113,4.395c2.137-.434,8.469-1.352,12.828,1.8a10.309,10.309,0,0,1,4.082,7.336c3.961.641,7.992,5.621,8.6,11.055.266,2.4.223,10.2-11.141,11.9a13.894,13.894,0,0,1-7.484,7.367c-2.312.82-5.973,1.1-10.457-1.934a15.69,15.69,0,0,1-9.484,3.43A12.787,12.787,0,0,1,22141.688,16763.773Zm-20.109-26.7c-.7,5.258,2.414,11.762,7.613,12.57l.664.113.324.6c3.395,6.43,7.4,10.047,11.918,10.754a12.607,12.607,0,0,0,10.059-3.3l.84-.828.93.707c3.156,2.4,6.133,3.133,8.832,2.191,3.73-1.316,5.809-5.355,6.063-6.387l.234-.906.918-.109c6.762-.789,10.18-3.984,9.617-9.02-.531-4.727-4.449-8.988-6.992-8.711l-1.406.145-.09-1.406c-.176-2.977-1.219-5.18-3.078-6.527-4.172-3.023-11.242-1.242-11.309-1.219l-.719.188-.543-.508c-4.07-3.82-7.77-5.258-11.012-4.273-3.773,1.141-5.965,5.324-6.184,6.285l-.266,1.176-1.2-.133a29.818,29.818,0,0,0-3.055-.168C22123.883,16728.3,22121.945,16734.293,22121.578,16737.07Zm-13.488,14.453a5.844,5.844,0,1,1,5.844,5.844A5.85,5.85,0,0,1,22108.09,16751.523Zm2.633,0a3.209,3.209,0,1,0,3.211-3.211A3.21,3.21,0,0,0,22110.723,16751.523Z" transform="translate(-21912.648 -16490)" fill="#3e4347"/>
    </g>
  </g>
</svg>
