<svg xmlns="http://www.w3.org/2000/svg" width="125" height="100" viewBox="0 0 125 100">
  <g id="Set_a_task" data-name="Set a task" transform="translate(-188 -20)">
    <rect id="Rectangle_4056" data-name="Rectangle 4056" width="125" height="100" rx="8" transform="translate(188 20)" fill="none" opacity="0"/>
    <g id="Group_12388" data-name="Group 12388" transform="translate(-266.359 -206.836)">
      <path id="Union_183" data-name="Union 183" d="M22570.617,16792.828c-3.879,0-9.475-.006-14.883-.012l-7.937-.006-10.676-.012c-3.123,0-4.762-2.959-4.762-5.885l.018-10.279c.01-8.561.016-10.578.01-10.742h.023c-.051-.971-.057-4.377-.051-21.324a5.048,5.048,0,0,1,4.807-5.164h5.092a6.567,6.567,0,0,1,2.053-3.42,5.784,5.784,0,0,1,2.143-1.094h.006a4.066,4.066,0,0,0,1.758-.936l.152-.125a2.393,2.393,0,0,0,.92-1.225v-.006l.016-.033a9.165,9.165,0,0,1,.443-.9c.057-.107.107-.209.152-.316a6.863,6.863,0,0,1,6.525-4.514c.086,0,.17-.006.256-.006a6.987,6.987,0,0,1,6.672,5.131l.035.154a2.331,2.331,0,0,0,1.145,1.627l.232.164a6.491,6.491,0,0,0,1.135.555l.084.035a9.513,9.513,0,0,1,2.285,1.281,6.579,6.579,0,0,1,2.467,3.725v-.107l5.652.006a4.852,4.852,0,0,1,4.383,4.428c.045,1.5.072,3.43.09,5.885l-2.7,2.744v-.08c-.01-3.055-.045-6.031-.1-8.385a2.1,2.1,0,0,0-1.854-1.82h-5.268c.012.619,0,1.43-.006,2.557v.521l-.01,1.379h-28.859l.006-4.457h-4.854a2.335,2.335,0,0,0-2.148,2.371c0,14.258.006,20.789.023,21.17l-.029.01c.041.941.035,4.541.012,19.7v1.484c0,.8.375,3.113,2.047,3.113l9.389.006,16.867.01h7.24l5.146.006c.023,0,2.166-.191,2.172-2.092,0-.146,0-.736.012-1.672.006-.732.018-1.672.023-2.773l.01-1.32c.012-1.395.023-2.982.035-4.684l.018-2.279,2.732-2.8c-.012,2.381-.012,2.646-.029,4.83-.006.73-.012,1.445-.016,2.125-.006,1.01-.018,1.957-.023,2.83-.029,3.225-.045,5.441-.045,5.742a4.959,4.959,0,0,1-4.889,4.887Zm-18.262-60.268-.033.068c-.08.164-.154.316-.223.426-.123.232-.238.465-.34.707l-.006.018a5.034,5.034,0,0,1-1.74,2.262,6.551,6.551,0,0,1-2.693,1.48l-.021.006-.035.012-.021.006a3.369,3.369,0,0,0-1.168.555,3.845,3.845,0,0,0-1.287,2.943v2.811h23.443v-.352c0-.379,0-.73.006-1.043h-.006l-.012-1.377a3.833,3.833,0,0,0-1.57-3.078l-.113-.092a7.509,7.509,0,0,0-1.7-.889l-.039-.023a7.592,7.592,0,0,1-1.674-.885,5.08,5.08,0,0,1-2.387-3.43,4.269,4.269,0,0,0-4.1-3.072h-.16c-.037,0-.076,0-.113,0A4.234,4.234,0,0,0,22552.355,16732.561Zm4.133,53.016h-.006c-.051-.1.107-6.889.107-6.889l26.268-26.268a2.229,2.229,0,0,1,3.146-.135l3.77,3.77a2.229,2.229,0,0,1-.135,3.146l-26.268,26.268s-4.057.152-5.943.152A4.275,4.275,0,0,1,22556.488,16785.576Zm2.574-5.828c-.023,1.186-.045,2.375-.062,3.355.975-.021,2.148-.057,3.295-.1l2.6-2.6-3.246-3.246Zm7.6-1.107,14.164-14.16-3.248-3.244-14.164,14.16Zm15.93-15.926,1.936-1.936-3.244-3.248-1.936,1.938Zm3.707-3.705,1.445-1.447-3.242-3.248-1.451,1.451Zm-43.717,21.645v-2.574h11.627v2.574Zm0-8.23v-2.574h18.488l-2.529,2.574Zm0-7.207v-2.568h25.58l-2.529,2.568Zm0-7.2v-2.574h28.012v2.574Zm11.916-23.723a2.013,2.013,0,1,1,2.014,2.053v.006A2.035,2.035,0,0,1,22554.5,16734.295Z" transform="translate(-22039 -16483)" fill="#3e4347"/>
    </g>
  </g>
</svg>
