<svg xmlns="http://www.w3.org/2000/svg" width="125" height="100" viewBox="0 0 125 100">
  <g id="Solve_a_problem" data-name="Solve a problem" transform="translate(-23 -20)">
    <rect id="Rectangle_4055" data-name="Rectangle 4055" width="125" height="100" rx="8" transform="translate(23 20)" fill="#3e4347" opacity="0"/>
    <g id="Group_12376" data-name="Group 12376" transform="translate(-192.324 -123)">
      <path id="Union_166" data-name="Union 166" d="M32.2,64a9.788,9.788,0,0,1-9.571-7.852,5.414,5.414,0,0,1-2.409-9.813,5.406,5.406,0,0,1,.37-9.11V36a20.46,20.46,0,0,1-8.429-17.077C12.164,6.576,23.688,0,32.008,0A21.525,21.525,0,0,1,46.482,6.445,18.642,18.642,0,0,1,51.949,20.21c0,9.079-6.493,14.315-8.626,15.79v1.467a5.4,5.4,0,0,1-.005,8.87,5.412,5.412,0,0,1-1.839,9.7,8.583,8.583,0,0,1-2.579,5.08A9.872,9.872,0,0,1,32.272,64Zm.022-2.663a7.188,7.188,0,0,0,4.793-2.107A6.114,6.114,0,0,0,38.741,56.2H25.363A7.1,7.1,0,0,0,32.225,61.337ZM20.579,50.773a2.769,2.769,0,0,0,2.773,2.76H40.189a2.76,2.76,0,1,0,0-5.521H23.352A2.77,2.77,0,0,0,20.579,50.773Zm0-8.873a2.77,2.77,0,0,0,2.773,2.76H40.19a2.76,2.76,0,1,0,0-5.521H23.353A2.769,2.769,0,0,0,20.58,41.9ZM39.992,23.445a1.328,1.328,0,0,1,0,1.883l-3.408,3.394v7.755H40.19q.232,0,.459.019V34.52l.657-.386c.077-.045,7.969-4.841,7.969-13.954a16.082,16.082,0,0,0-4.7-11.875A18.735,18.735,0,0,0,32.008,2.662c-7.017,0-17.168,5.791-17.168,16.261a17.781,17.781,0,0,0,7.761,15.2l.669.384v1.967h3.506l0-7.76-3.406-3.389a1.328,1.328,0,0,1,0-1.883,1.341,1.341,0,0,1,1.891,0l3.3,3.291a2.4,2.4,0,0,1,.709.77l.109.239a2.117,2.117,0,0,1,.07,1.08v7.651h4.46V28.826a2.1,2.1,0,0,1,.069-1.08l.109-.239a2.4,2.4,0,0,1,.709-.77l3.3-3.291a1.341,1.341,0,0,1,1.89,0ZM57.681,36.487l-3.467-2.031a1.48,1.48,0,1,1,1.507-2.548l3.467,2.03a1.481,1.481,0,0,1-1.508,2.549Zm-53.4-.525a1.476,1.476,0,0,1,.527-2.025l3.469-2.032a1.481,1.481,0,1,1,1.506,2.55L6.321,36.487a1.491,1.491,0,0,1-2.035-.525ZM57.019,19.78A1.481,1.481,0,0,1,58.5,18.3l4.01,0a1.479,1.479,0,1,1,0,2.958H58.5A1.482,1.482,0,0,1,57.019,19.78ZM0,19.78A1.482,1.482,0,0,1,1.486,18.3H5.5a1.479,1.479,0,1,1,0,2.958H1.488A1.482,1.482,0,0,1,0,19.78ZM53.795,7.449a1.474,1.474,0,0,1,.5-2.03l3.367-2.032a1.49,1.49,0,0,1,2.04.5,1.474,1.474,0,0,1-.5,2.031L55.835,7.947a1.49,1.49,0,0,1-2.04-.5Zm-45.628.5L4.8,5.916a1.474,1.474,0,0,1-.5-2.031,1.489,1.489,0,0,1,2.039-.5L9.707,5.419a1.48,1.48,0,0,1-1.54,2.528Z" transform="translate(245.322 161)" fill="#3e4347"/>
    </g>
  </g>
</svg>
