<svg xmlns="http://www.w3.org/2000/svg" width="220" height="148" viewBox="0 0 220 148">
  <g id="sprint_" data-name="sprint " transform="translate(-56 -20)">
    <g id="Executive_Control_Game" data-name="Executive Control Game" transform="translate(58 40)">
      <g id="Group_11834" data-name="Group 11834" transform="translate(139)">
        <g id="Ellipse_4283" data-name="Ellipse 4283" fill="#ffe100" stroke="#dab920" stroke-width="1">
          <circle cx="11" cy="11" r="11" stroke="none"/>
          <circle cx="11" cy="11" r="10.5" fill="none"/>
        </g>
        <path id="Path_11039" data-name="Path 11039" d="M7,0,8.8,4.321l5.25.131L9.882,7.571l1.495,4.915L7.05,9.579,2.724,12.486,4.219,7.571.05,4.452,5.3,4.321Z" transform="translate(4 6)" fill="#a58f0c"/>
        <path id="Polygon_17" data-name="Polygon 17" d="M7,0,8.75,4.835,14,4.966,9.832,8.085,11.326,13,7,10.093,2.674,13,4.168,8.085,0,4.966l5.25-.131Z" transform="translate(4 5)" fill="#dab920"/>
      </g>
      <g id="Group_11835" data-name="Group 11835" transform="translate(178)">
        <g id="Ellipse_4283-2" data-name="Ellipse 4283" fill="#ffe100" stroke="#dab920" stroke-width="1">
          <circle cx="11" cy="11" r="11" stroke="none"/>
          <circle cx="11" cy="11" r="10.5" fill="none"/>
        </g>
        <path id="Path_11039-2" data-name="Path 11039" d="M7,0,8.8,4.321l5.25.131L9.882,7.571l1.495,4.915L7.05,9.579,2.724,12.486,4.219,7.571.05,4.452,5.3,4.321Z" transform="translate(4 6)" fill="#a58f0c"/>
        <path id="Polygon_17-2" data-name="Polygon 17" d="M7,0,8.75,4.835,14,4.966,9.832,8.085,11.326,13,7,10.093,2.674,13,4.168,8.085,0,4.966l5.25-.131Z" transform="translate(4 5)" fill="#dab920"/>
      </g>
      <rect id="Rectangle_3726" data-name="Rectangle 3726" width="216" height="4" transform="translate(0 94)" fill="#16b516"/>
      <rect id="Rectangle_3727" data-name="Rectangle 3727" width="216" height="10" transform="translate(0 98)" fill="#853102"/>
      <g id="Stone-single" transform="translate(75.664 63.999)">
        <path id="Path_6041" data-name="Path 6041" d="M44.346,249.7a3.624,3.624,0,0,1-1.593-3.071c-.126-1.346-1.212-3.576-1.338-4.917a18.048,18.048,0,0,1,.642-7.181c-.8-.369-1.259-.746-2.1,0-1.027.91-.186,2.885-1.026,5-.692,1.744-1.73,3.463-1.119,5.865.361,1.418-.027,2.912.607,4.757-2.317-.637-2.6-1.894-3.576-4-.571-1.231-1.026-2.511-1.6-3.74a24.1,24.1,0,0,0-2.088-3.34c-.882-1.3-.785-2.542-.771-4.036.009-.989-1.442-3.1-2.131-3.863a1.611,1.611,0,0,0-2.082-.461,6.329,6.329,0,0,0-.332.74,14.569,14.569,0,0,0-.7,4.129c-.255.836-1.035,3.435-1.183,4.176-.443,2.223-.028,8.385,0,13.426,3.226.681,7.335,1.769,10.613,2.128,1.95.214,6.921-1.04,7.246-1.194,2.1.093,3.384.884,4.619,1.189a9.743,9.743,0,0,0,2.6.1,8.422,8.422,0,0,0-.69-2.293C47.487,251.333,45.892,250.741,44.346,249.7Z" transform="translate(-23.514 -223.428)" fill="#8a96a5"/>
        <g id="Group_2666" data-name="Group 2666" transform="translate(2.653 0.188)">
          <g id="Group_2664" data-name="Group 2664" transform="translate(18.973 17.659)">
            <path id="Path_6042" data-name="Path 6042" d="M95.887,274.413c-.943.233-1.721-.428-2.4-.209-.579.184-1.091.889-1.566,1.213-1.033.7-1.186.21-2.3.443a11.687,11.687,0,0,1-4.271.3c-.137.1-.271.19-.4.268-.4.234-1.063,1.178-1.493,1.4-.173.09-.348.173-.523.252A7.16,7.16,0,0,1,86.143,281a8.422,8.422,0,0,1,.69,2.293c3.62-.214,10.016-1.857,10.956-3.377a25.215,25.215,0,0,0-.808-5.749C96.924,274.185,95.929,274.4,95.887,274.413Z" transform="translate(-82.931 -269.151)" fill="#9ba6b4"/>
            <path id="Path_6043" data-name="Path 6043" d="M93.881,267.007c1.119-.233,1.272.261,2.3-.443.474-.321.987-1.029,1.566-1.213.681-.214,1.458.443,2.4.209.041-.01,1.037-.229,1.088-.254-.428-1.708-.653-3.306-1.093-5.009-.8.443-3.266,1.061-3.85,1.7-1.68,1.836-1,2.744-4.415,3.553A18.578,18.578,0,0,0,89.6,267.3a11.682,11.682,0,0,0,4.277-.292Z" transform="translate(-87.197 -260.298)" fill="#a5afbf"/>
          </g>
          <path id="Path_6044" data-name="Path 6044" d="M78.172,249.193c.959-.562,2.2-1.9,2.674-2.015,3.42-.808,2.735-1.716,4.415-3.553a8.879,8.879,0,0,1,2.277-1.526,33.609,33.609,0,0,0-5.276-8.447c-.814-.944-1.72-2.047-3.064-2.123a6.485,6.485,0,0,0-3.561,1.221,14.9,14.9,0,0,0-2.563,2.426,18.049,18.049,0,0,0-.642,7.181c.127,1.338,1.213,3.576,1.338,4.917a3.63,3.63,0,0,0,1.593,3.071c.264.178.528.343.791.5.175-.079.35-.161.523-.252C77.11,250.373,77.774,249.427,78.172,249.193Z" transform="translate(-57.186 -224.264)" fill="#9daab9"/>
          <g id="Group_2665" data-name="Group 2665">
            <path id="Path_6045" data-name="Path 6045" d="M58.234,226.954a11.13,11.13,0,0,0-1.954-2.818,23.4,23.4,0,0,0-1.7-1.831c-.66,4.68-5.322,10.264-9.271,12.09a18.838,18.838,0,0,1,1.7,2.774c.573,1.231,1.028,2.51,1.6,3.74.978,2.108,1.259,3.366,3.576,4-.633-1.844-.246-3.339-.607-4.757-.611-2.4.428-4.122,1.119-5.865.84-2.116,0-4.088,1.026-5,.839-.746,1.3-.369,2.1,0a14.9,14.9,0,0,1,2.563-2.426C58.332,226.894,58.281,226.924,58.234,226.954Z" transform="translate(-39.93 -218.375)" fill="#9ba6b4"/>
            <path id="Path_6046" data-name="Path 6046" d="M45.077,215.36a25.323,25.323,0,0,0-2.356-2.028c-1.08-.818-2.7-2.373-4.166-1.764a13.939,13.939,0,0,0-2.5,1.746c-.921.663-1.855,1.312-2.75,2.009a10.038,10.038,0,0,0-2.872,3.2,1.611,1.611,0,0,1,2.082.461c.688.758,2.141,2.873,2.131,3.863-.013,1.494-.111,2.737.771,4.036.13.192.26.379.39.566C39.756,225.624,44.418,220.04,45.077,215.36Z" transform="translate(-30.43 -211.43)" fill="#9daab9"/>
          </g>
        </g>
        <path id="Path_6047" data-name="Path 6047" d="M76.887,237.379a3.4,3.4,0,0,0-.384.069,19.919,19.919,0,0,1,2.4-1.639l.046-.023q.161.01.321.016a7.388,7.388,0,0,0-2.388,1.577Zm6.765-1.2a3.533,3.533,0,0,1,1.09.724c.054.051.1.107.148.157a10.827,10.827,0,0,0-1.238-.878Z" transform="translate(-57.2 -226.797)" fill="#bcb7bb"/>
        <path id="Path_6048" data-name="Path 6048" d="M50.853,274.64a8.41,8.41,0,0,1-3.018-1.449,5.27,5.27,0,0,0-3.121-2.534c0,1.147,1.623,1.859,1.923,2.11.135.128.107.969-.329,1.12-.468.161-1.367-.38-1.751-.654-1.2-.857-2.114-.559-3.242-1.409-.442-.333-.185-1.66-1.585-2.819-1.21-1-1.861-3.389-2.233-6.467-.831,2.281-.364,5.575.161,9.358-.831.771-.985,2.394-1.532,3.394a6.263,6.263,0,0,0-1.342-2.031c-1.008-1.022-2.034-1.173-3.3-1.625-2-.713-2.542-3.088-3.46-4.846-.5-.953-2.587-4.126-4.711-3.872-.489,2.363,0,9.934.022,10.814,2,.271,8.414,2.133,10.9,2.166.732.134,6.988-.541,7.337-1.109,2.114.435,3.923,1.519,6.653,1.338a28.26,28.26,0,0,0,8.508-1.952C54.627,273.14,52.573,274.421,50.853,274.64Z" transform="translate(-23.091 -243.882)" fill="#6c7784"/>
        <g id="Group_2667" data-name="Group 2667" transform="translate(2.472)">
          <path id="Path_6049" data-name="Path 6049" d="M44.893,214.592c-.685-.652-1.686-1.073-2.476-1.691-1.582-1.238-3.169-2.47-4.322-1.8a53.579,53.579,0,0,0-7.118,5.442,8.111,8.111,0,0,0-1.052,2.03,2.39,2.39,0,0,1,.99-.087,4.318,4.318,0,0,1,2.236,2.1A6.386,6.386,0,0,1,33.9,223.9a6.167,6.167,0,0,0,.257,1c.367,1.5,1.3,1.969,2.044,3.282a3.806,3.806,0,0,0-.938-2.453c-.375-.375-.2-1.744-.038-2.3a2.612,2.612,0,0,0,.2-1.731c-.321-.857-1.376-1.426-1.855-2.207a3.244,3.244,0,0,1-.233-3.33,3.759,3.759,0,0,1,.685-.845q1.037-.809,2.053-1.644a5.822,5.822,0,0,1,2.706-1.617,3.345,3.345,0,0,1,1.349.1,22.359,22.359,0,0,1,2.744,1.666,8.261,8.261,0,0,1,1.849,1.338,14.5,14.5,0,0,0,2.011,2.028,16.56,16.56,0,0,0-1.841-2.595Z" transform="translate(-29.926 -210.91)" fill="#b2bdcb"/>
        </g>
        <path id="Path_6050" data-name="Path 6050" d="M79.107,233.032c-.851-1.178-2.53-2.82-3.924-2.918a4.6,4.6,0,0,0-1.707.4,21.759,21.759,0,0,0-5.041,2.672,3.078,3.078,0,0,0-1.53,3.139c.411-.661,1.553-.482,1.441.393a11.547,11.547,0,0,0,1.1,6.679c.423-1.958-.547-3.186-.354-4.8a14.2,14.2,0,0,1,.743-3.4c.471-1.145,1.326-1.493,2.281-2.065A14.073,14.073,0,0,1,74,232.051c1.713-.685,3.019-.121,4.343.99a35.39,35.39,0,0,1,3.314,3.63C81.446,235.285,79.978,234.238,79.107,233.032Z" transform="translate(-51.045 -223.173)" fill="#b2bdcb"/>
        <path id="Path_6051" data-name="Path 6051" d="M97.836,255.638c-1.156-.422-2.017-.609-2.533-2.053.079,1.849-.331,2.124-.729,2.365a26.413,26.413,0,0,0-3.733.975c-.839.463-.589.827-.8,1.536a4.21,4.21,0,0,1-2,2.559,2.89,2.89,0,0,0-1.574,2.967,5.411,5.411,0,0,1,2.5-1.757,11.914,11.914,0,0,0,3.19-1.21c.789-.531,1.735-1.01,2.023-1.215,1.111-.792.535-1.706.672-1.772,1.026-.5,1.861.185,2.352-.653.22-.375.723-.847.919-1.235a.419.419,0,0,0-.288-.508Z" transform="translate(-63.566 -238.164)" fill="#b2bdcb"/>
        <path id="Path_6052" data-name="Path 6052" d="M63.373,287.773a1.774,1.774,0,0,1-1.536-.758,18.159,18.159,0,0,1-1.619-2.629,16.017,16.017,0,0,0,.847,3.546c-.342.808-1.745,1.378-2.333,1.884a27.51,27.51,0,0,0,4.26-.33,4.616,4.616,0,0,1,2.141-.55C65.134,287.87,63.924,287.839,63.373,287.773Z" transform="translate(-45.851 -257.835)" fill="#55616e"/>
        <path id="Path_6053" data-name="Path 6053" d="M28.948,283.282c-.342-.808-2.35-1.651-3-2.124-.35-.254-.387-1.212-1.553-1.413-.281-1.31-.4-3.591-1.306-4.213.049,1.348.1,5.289.238,6.622C24.224,282.435,27.145,282.877,28.948,283.282Z" transform="translate(-23.087 -252.18)" fill="#55616e"/>
      </g>
      <g id="Group_12203" data-name="Group 12203" transform="translate(-7019 9132)">
        <path id="Path_14374" data-name="Path 14374" d="M7193.026-9078.672s-2.276,5-2.142,8.033c-.714-.67-4.418-4.329-3.57-7.408.848-2.945,1.161-.8,1.339-.8S7193.026-9078.672,7193.026-9078.672Z" transform="translate(-113 -2)" fill="#592d2d" stroke="#2e2e2e" stroke-width="0.2"/>
        <path id="Path_14371" data-name="Path 14371" d="M7182.157-9078.965s-2.583,2.785,2.521,7.716a9.788,9.788,0,0,1,1.508,2.379s1.1-1.1,5.859-.406c-.232-.929-3.829-4.643-3.771-8.587C7188.1-9078.617,7182.157-9078.965,7182.157-9078.965Z" transform="translate(-113 -2)" fill="#592d2d" stroke="#2e2e2e" stroke-width="0.2"/>
        <path id="Path_14372" data-name="Path 14372" d="M7179.861-9063.544s-3.168,1.74-2.767,2.856c1.026,1.205,8.122,6.381,9.729,6.917.848-.179.58-2.365,0-3.525-.312-.848-1.651-1.339-1.651-1.339l-.312-2.275-5.4-2.945" transform="translate(-113 -2)" fill="#745fa3" stroke="#2e2e2e" stroke-width="0.2"/>
        <path id="Path_14376" data-name="Path 14376" d="M7186.775-9062.249a3.968,3.968,0,0,1-2.809-1.964c.357-1.964,4.2-2.1,4.2-2.1l1.874.625Z" transform="translate(-113 -2)" fill="#ffdd9e" stroke="#2e2e2e" stroke-width="0.2"/>
        <path id="Path_14378" data-name="Path 14378" d="M7183.441-9064.838a9,9,0,0,0,3.381,2.678c-1.161,1.16-2.1,2.32-2.1,2.32l-3.258-2.053Z" transform="translate(-113 -2)" fill="#f9f9f9" stroke="#2e2e2e" stroke-width="0.2"/>
        <path id="Path_14375" data-name="Path 14375" d="M7186.287-9069.211s.178,1.159-1.562,2.008a3.055,3.055,0,0,0,.714,3.659c1.116-.044,7.1-2.32,6.6-5.667a2.218,2.218,0,0,0-3.124-1.026Z" transform="translate(-113 -2)" fill="#ffdd9e" stroke="#2e2e2e" stroke-width="0.2"/>
        <path id="Path_14377" data-name="Path 14377" d="M7184.859-9067.6s-.937,2.5.446,4.061c-.669.045-2.722.536-2.722.536a4.288,4.288,0,0,1-.4-4.909C7183.074-9068.631,7184.859-9067.6,7184.859-9067.6Z" transform="translate(-113 -2)" fill="#f9f9f9" stroke="#2e2e2e" stroke-width="0.2"/>
        <path id="Path_14379" data-name="Path 14379" d="M7182.137-9067.917a5.766,5.766,0,0,0,.536,4.775c.044.8-.669,1.339-.536,1.919s.446,3.034-1.83,3.748c-.714-2.5-2.276-6.917-2.41-10.442.669-1.205,2.767-.446,2.767-.446Z" transform="translate(-113 -2)" fill="#745fa3" stroke="#2e2e2e" stroke-width="0.2"/>
        <path id="Path_14380" data-name="Path 14380" d="M7182.361-9062.078l-.224.855c.134.58.446,3.034-1.83,3.748-.289-1.012-.717-2.339-1.219-4.094Z" transform="translate(-113 -2)" fill="#d4dedf" stroke="#2e2e2e" stroke-width="0.2"/>
        <path id="Path_14381" data-name="Path 14381" d="M7183.328-9055.864l1.761,1.27,1.734.824c.848-.179.58-2.365,0-3.525-.312-.848-1.651-1.339-1.651-1.339Z" transform="translate(-113 -2)" fill="#d4dedf" stroke="#2e2e2e" stroke-width="0.2"/>
        <path id="Path_14382" data-name="Path 14382" d="M7182.852-9096.233c.685,3.554.385,11.716-.988,17.5,4.02,1.373,10.63.887,12.892-.216.607-.845.713-11.672.343-15.9C7194.113-9095.541,7185.125-9097.408,7182.852-9096.233Z" transform="translate(-113 -2)" fill="#745fa3" stroke="#2e2e2e" stroke-width="0.2"/>
        <path id="Path_14383" data-name="Path 14383" d="M7187.625-9083.384a18.327,18.327,0,0,0-.205,5.359,12.1,12.1,0,0,0,6.114-.536c.893-1.964.957-4.453,0-4.507C7191.838-9083.871,7187.625-9083.384,7187.625-9083.384Z" transform="translate(-113 -2)" fill="#9b3a41" stroke="#2e2e2e" stroke-width="0.2"/>
        <path id="Path_14384" data-name="Path 14384" d="M7185.981-9088.683s1.849,2.668,2.931,4.278c.449.9,2.219,1.876,4.437.423a7.256,7.256,0,0,1,3-1.206s5.384.5,5.859-3.594c.317-3.09-1.75-3.7-2.234-3.578a4.729,4.729,0,0,1-1.922,1.594c.344-.578,1.188-1.469.359-2.094a5.042,5.042,0,0,0-3.87,4.731c-2.9,1.4-3.829,1.268-3.829,1.268a13.418,13.418,0,0,0-1.8-3.564A8.821,8.821,0,0,0,7185.981-9088.683Z" transform="translate(-113 -2)" fill="#ffce9a" stroke="#2e2e2e" stroke-width="0.2"/>
        <path id="Path_14385" data-name="Path 14385" d="M7183.4-9094.409s-.58,1.657,0,2.416.312,1.74,1.2,2.945,1.241.287,2.481-.136,2.963-1.471,2.338-2.81-3.437-3.436-4.82-3.3S7183.4-9094.409,7183.4-9094.409Z" transform="translate(-113 -2)" fill="#9b3a41" stroke="#2e2e2e" stroke-width="0.2"/>
        <path id="Path_14386" data-name="Path 14386" d="M7172.922-9092.094s-1.672.554-.906,2.588c.25.725,1.2.818,1.516,1.1s.266.672.65.881,1.558.158,1.558-1.373c-.08-1.5-.159-2.481-.159-2.481l-1.9-1.215Z" transform="translate(-113 -2)" fill="#ffce9a" stroke="#2e2e2e" stroke-width="0.2"/>
        <path id="Path_14387" data-name="Path 14387" d="M7183.555-9091.592a8.775,8.775,0,0,0-4.647.159,11.662,11.662,0,0,0-2.35,1.479s-2.376-1.057-2.033-2.4a5.966,5.966,0,0,1,7.816-2.9,2.6,2.6,0,0,1,1.347,1.268Z" transform="translate(-113 -2)" fill="#ffce9a" stroke="#2e2e2e" stroke-width="0.2"/>
        <path id="Path_14388" data-name="Path 14388" d="M7173.453-9091.984c.609.531,1.547.313,2.6,2.162-.66-.766-1.98-1.136-1.9-.4.158.581,1.361,1.938,2.588,1.347.835-.5.71-2.722-1.743-3.935C7173-9093.547,7173.234-9092.031,7173.453-9091.984Z" transform="translate(-113 -2)" fill="#ffce9a" stroke="#2e2e2e" stroke-width="0.2"/>
        <path id="Path_14389" data-name="Path 14389" d="M7188.318-9098.377l4.84,3.968a26.96,26.96,0,0,1,2.748-2.921C7196.341-9097.5,7188.318-9098.377,7188.318-9098.377Z" transform="translate(-113 -2)" fill="#f9d2aa" stroke="#2e2e2e" stroke-width="0.2"/>
        <path id="Path_14390" data-name="Path 14390" d="M7192.8-9094.409a10.785,10.785,0,0,0-7.681-4.62c-3.958.034-3.052,1.946-2.314,2.751C7184.48-9097.386,7190.886-9095.458,7192.8-9094.409Z" transform="translate(-113 -2)" fill="#f45876" stroke="#2e2e2e" stroke-width="0.2"/>
        <path id="Path_14391" data-name="Path 14391" d="M7194-9095.859a2.2,2.2,0,0,0-.953,1.2,10.387,10.387,0,0,1,2.453-.125c.469-.2.656-1.047.188-1.229A3.257,3.257,0,0,0,7194-9095.859Z" transform="translate(-113 -2)" fill="#f45876" stroke="#2e2e2e" stroke-width="0.2"/>
        <path id="Path_14392" data-name="Path 14392" d="M7184.06-9104.11s-4.061-6.148-5.569-.754c.638,4.989,4.409,3.074,4.409,3.074s12.3,10.907,18.391,1.509c0-5.859,1.161-8.761,1.625-9.8s1.508-5.743-2.9-6.439-10.964-4.873-14.1,1.276A17.109,17.109,0,0,0,7184.06-9104.11Z" transform="translate(-113 -2)" fill="#ffce9a" stroke="#2e2e2e" stroke-width="0.2"/>
        <path id="Path_14393" data-name="Path 14393" d="M7185.072-9102.875s-4.592-7.313-6.009-3.062c-2.551-4.024-1.814-9.977,3-12.3,3-1.587,2.608-1.756,4.251-4.534s15.7-2.212,17.743,8.162c-2.268-2.437-2.778-1.19-2.778-1.19s3.515,3.062,1.7,5.386a4.3,4.3,0,0,0-1.077-3.345s.737,2.722-.283,4.479c.057-3.741-2.891-4.479-2.891-4.479a5.76,5.76,0,0,1,.964,3.854c-1.814-3.571-2.608-3.912-3.968-4.705,4.138,3.458,1.814,4.2,1.814,4.2a5.61,5.61,0,0,0-3.911-4.2,4.83,4.83,0,0,1,1.757,4.2c-.737-2.778-5.159-5.045-5.159-5.045s-2.324,3.175-1.984,6.179c-1.134-3.969-.368-5.266-.278-5.979-.893,1.115-1.366,6.376-1.252,9.777-1.875-4.651-1.086-5.578-1.189-5.716C7184.462-9110,7185.072-9102.875,7185.072-9102.875Z" transform="translate(-113 -2)" fill="#34394d" stroke="#2e2e2e" stroke-width="0.2"/>
        <path id="Path_14394" data-name="Path 14394" d="M7184.866-9119.865s.516-1.369-.833-1.469-1.806.277-1.508.754,1.171.258,1.23,1.488c-.1.06-1.092-2.461-2.481-1.846s-.754,1.886.417,2.024,1.409,0,1.409,0-2.878-.258-2.68.357,1.826.794,1.826.794Z" transform="translate(-113 -2)" fill="#34394d" stroke="#2e2e2e" stroke-width="0.2"/>
        <path id="Path_14395" data-name="Path 14395" d="M7190.179-9107.829a8.616,8.616,0,0,1,3.458,1.187c.929-1.522,1.7-3.638,0-4.593C7191.417-9111.932,7190.153-9110.229,7190.179-9107.829Z" transform="translate(-113 -2)" fill="#f9f9f9" stroke="#2e2e2e" stroke-width="0.2"/>
        <path id="Path_14396" data-name="Path 14396" d="M0,.96A6.973,6.973,0,0,0,2.8,0c.752,1.232,1.379,2.945,0,3.718C1,4.282-.021,2.9,0,.96Z" transform="translate(7087.014 -9107.542) rotate(-164)" fill="#f9f9f9" stroke="#2e2e2e" stroke-width="0.2"/>
        <path id="Path_14397" data-name="Path 14397" d="M1.453-.234A1.25,1.25,0,1,1,.2,1.016,1.25,1.25,0,0,1,1.453-.234Z" transform="translate(7078 -9112)" fill="#463435"/>
        <path id="Path_14398" data-name="Path 14398" d="M1.012,2.024A1.012,1.012,0,1,0,0,1.012,1.012,1.012,0,0,0,1.012,2.024Z" transform="translate(7086.46 -9108.62) rotate(-164)" fill="#463435"/>
        <path id="Path_14399" data-name="Path 14399" d="M1.258-.43a.367.367,0,0,1,.367.367A.367.367,0,0,1,1.258.3.367.367,0,0,1,.891-.062.367.367,0,0,1,1.258-.43Z" transform="translate(7078.766 -9111)" fill="#fff"/>
        <path id="Path_14400" data-name="Path 14400" d="M.3.594A.3.3,0,1,0,0,.3.3.3,0,0,0,.3.594Z" transform="translate(7085.543 -9109.692) rotate(-164)" fill="#fff"/>
        <path id="Path_14401" data-name="Path 14401" d="M7196.539-9105.915v1.506s2.782,1.029,0,2.35" transform="translate(-113 -2)" fill="none" stroke="#2e2e2e" stroke-width="0.2"/>
        <path id="Path_14402" data-name="Path 14402" d="M7193.281-9101.609a10.37,10.37,0,0,0,3.547,1.125c-1.281,1.75-2.381.725-3.344-.391A1.594,1.594,0,0,1,7193.281-9101.609Z" transform="translate(-113 -2)" fill="#f9d2aa" stroke="#2e2e2e" stroke-width="0.2"/>
        <path id="Path_14404" data-name="Path 14404" d="M7198.008-9100.475s-.354.012-1.2-.051a6.9,6.9,0,0,1-3.633-1.27c.264,1.848,2.482,3.221,3.633,1.479" transform="translate(-113 -2)" fill="#f4f4f4" stroke="#2e2e2e" stroke-width="0.2"/>
        <path id="Path_14403" data-name="Path 14403" d="M7193.906-9100.437a2.063,2.063,0,0,1,2.172.813A2.141,2.141,0,0,1,7193.906-9100.437Z" transform="translate(-113 -2)" fill="#f0768e" stroke="#2e2e2e" stroke-width="0.2"/>
        <ellipse id="Ellipse_4306" data-name="Ellipse 4306" cx="1.5" cy="1" rx="1.5" ry="1" transform="matrix(0.809, 0.588, -0.588, 0.809, 7067.874, -9107.69)" fill="#ffb578"/>
      </g>
    </g>
    <rect id="Rectangle_4070" data-name="Rectangle 4070" width="220" height="148" transform="translate(56 20)" fill="none"/>
  </g>
</svg>
