<svg xmlns="http://www.w3.org/2000/svg" xmlns:xlink="http://www.w3.org/1999/xlink" width="1000" height="1382" viewBox="0 0 1000 1382"><defs><linearGradient id="a" y1="0.535" x2="1" y2="0.5" gradientUnits="objectBoundingBox"><stop offset="0" stop-color="#ffdbdb"/><stop offset="0.314" stop-color="#fedede" stop-opacity="0.18"/><stop offset="1" stop-color="#fce3e3" stop-opacity="0.11"/></linearGradient></defs><g transform="translate(-1005 -1131)"><g transform="translate(1005 1211)"><g transform="translate(0 -80)" fill="#fff9f9" stroke="#fff2f2" stroke-width="1"><rect width="1000" height="1382" rx="4" stroke="none"/><rect x="0.5" y="0.5" width="999" height="1381" rx="3.5" fill="none"/></g><rect width="588" height="326" transform="translate(0 176)" fill="url(#a)"/><rect width="588" height="326" transform="translate(0 976)" opacity="0.6" fill="url(#a)"/><rect width="590" height="325" transform="translate(1000 901) rotate(180)" fill="url(#a)"/><path d="M8.511,0H3.343V-29.859H8.511ZM39.8,0a7.691,7.691,0,0,1-.574-2.071A7.757,7.757,0,0,1,33.406.41,7.829,7.829,0,0,1,27.951-1.5a6.1,6.1,0,0,1-2.112-4.717,6.3,6.3,0,0,1,2.635-5.445q2.635-1.9,7.537-1.9h3.056v-1.456A3.887,3.887,0,0,0,38.1-17.77a3.821,3.821,0,0,0-2.933-1.036,4.39,4.39,0,0,0-2.789.851,2.634,2.634,0,0,0-1.087,2.164H26.31a5.531,5.531,0,0,1,1.21-3.415A8.061,8.061,0,0,1,30.811-21.7a11.562,11.562,0,0,1,4.645-.9,9.311,9.311,0,0,1,6.214,1.958,6.984,6.984,0,0,1,2.379,5.506V-5.127A11.342,11.342,0,0,0,44.89-.349V0ZM34.328-3.589a5.669,5.669,0,0,0,2.779-.718,4.8,4.8,0,0,0,1.958-1.928v-4.184H36.379a7.346,7.346,0,0,0-4.163.964,3.122,3.122,0,0,0-1.395,2.728,2.912,2.912,0,0,0,.954,2.287A3.693,3.693,0,0,0,34.328-3.589Zm20.466-18.6.144,2.317a7.985,7.985,0,0,1,6.4-2.728q4.45,0,6.091,3.4a7.87,7.87,0,0,1,6.809-3.4q3.671,0,5.465,2.03t1.835,5.988V0H76.553V-14.437a4.413,4.413,0,0,0-.923-3.1,4.04,4.04,0,0,0-3.056-.984,4.149,4.149,0,0,0-2.779.913,4.813,4.813,0,0,0-1.507,2.389L68.309,0H63.326V-14.6q-.1-3.917-4-3.917a4.387,4.387,0,0,0-4.245,2.44V0H50.1V-22.189ZM104.094,0H99.11V-22.189h4.983ZM98.8-27.952a2.645,2.645,0,0,1,.728-1.907,2.75,2.75,0,0,1,2.082-.759,2.785,2.785,0,0,1,2.092.759,2.625,2.625,0,0,1,.738,1.907,2.564,2.564,0,0,1-.738,1.876,2.806,2.806,0,0,1-2.092.749,2.771,2.771,0,0,1-2.082-.749A2.583,2.583,0,0,1,98.8-27.952Zm16.18,5.763.144,2.563a7.978,7.978,0,0,1,6.46-2.974q6.932,0,7.055,7.937V0h-4.983V-14.376a4.57,4.57,0,0,0-.913-3.127,3.839,3.839,0,0,0-2.984-1.015,4.8,4.8,0,0,0-4.491,2.728V0h-4.983V-22.189Zm28.69,18.621a4.506,4.506,0,0,0,3.1-1.087,3.713,3.713,0,0,0,1.313-2.687h4.7a7.32,7.32,0,0,1-1.292,3.866A8.474,8.474,0,0,1,148.2-.636,9.778,9.778,0,0,1,143.734.41,9.461,9.461,0,0,1,136.351-2.6q-2.728-3.015-2.728-8.326v-.513a11.758,11.758,0,0,1,2.707-8.111,9.375,9.375,0,0,1,7.383-3.045,9.117,9.117,0,0,1,6.45,2.307,8.264,8.264,0,0,1,2.615,6.06h-4.7a4.563,4.563,0,0,0-1.3-3.138,4.19,4.19,0,0,0-3.107-1.23,4.385,4.385,0,0,0-3.732,1.753,8.947,8.947,0,0,0-1.333,5.322v.8a9.1,9.1,0,0,0,1.3,5.383A4.382,4.382,0,0,0,143.672-3.568ZM156.448-11.3a13.084,13.084,0,0,1,1.292-5.875,9.436,9.436,0,0,1,3.63-4.02,10.227,10.227,0,0,1,5.373-1.4,9.692,9.692,0,0,1,7.291,2.892,11.373,11.373,0,0,1,3.025,7.67l.021,1.169A13.2,13.2,0,0,1,175.817-5a9.323,9.323,0,0,1-3.609,4A10.3,10.3,0,0,1,166.783.41a9.626,9.626,0,0,1-7.516-3.127,11.978,11.978,0,0,1-2.82-8.336Zm4.983.431a8.941,8.941,0,0,0,1.415,5.363,4.6,4.6,0,0,0,3.938,1.938,4.55,4.55,0,0,0,3.927-1.969,9.875,9.875,0,0,0,1.4-5.763,8.826,8.826,0,0,0-1.446-5.332,4.617,4.617,0,0,0-3.927-1.969,4.574,4.574,0,0,0-3.876,1.938A9.689,9.689,0,0,0,161.431-10.869Zm25.388-11.32.144,2.317a7.985,7.985,0,0,1,6.4-2.728q4.45,0,6.091,3.4a7.87,7.87,0,0,1,6.809-3.4q3.671,0,5.465,2.03t1.835,5.988V0h-4.983V-14.437a4.413,4.413,0,0,0-.923-3.1,4.04,4.04,0,0,0-3.056-.984,4.149,4.149,0,0,0-2.779.913,4.813,4.813,0,0,0-1.507,2.389L200.333,0H195.35V-14.6q-.1-3.917-4-3.917a4.387,4.387,0,0,0-4.245,2.44V0h-4.983V-22.189Zm52.13,11.32a13.212,13.212,0,0,1-2.338,8.213A7.487,7.487,0,0,1,230.336.41a7.537,7.537,0,0,1-5.845-2.4V8.531h-4.983V-22.189H224.1l.205,2.256a7.32,7.32,0,0,1,5.968-2.666,7.564,7.564,0,0,1,6.368,3.025q2.307,3.025,2.307,8.4Zm-4.963-.431a9.255,9.255,0,0,0-1.323-5.271,4.3,4.3,0,0,0-3.784-1.948A4.586,4.586,0,0,0,224.491-16v9.844a4.628,4.628,0,0,0,4.43,2.584,4.3,4.3,0,0,0,3.722-1.917A10.188,10.188,0,0,0,233.986-11.3ZM253.775.41a10.31,10.31,0,0,1-7.68-2.984,10.824,10.824,0,0,1-2.943-7.947v-.615a13.315,13.315,0,0,1,1.282-5.937,9.756,9.756,0,0,1,3.6-4.071A9.515,9.515,0,0,1,253.2-22.6a8.709,8.709,0,0,1,7,2.892q2.471,2.892,2.471,8.183v2.01h-14.5a6.664,6.664,0,0,0,1.835,4.348,5.511,5.511,0,0,0,4.05,1.6,6.748,6.748,0,0,0,5.578-2.769l2.687,2.563a8.972,8.972,0,0,1-3.558,3.086A11.139,11.139,0,0,1,253.775.41ZM253.18-18.6a4.2,4.2,0,0,0-3.312,1.436,7.441,7.441,0,0,0-1.61,4h9.5v-.369a6.057,6.057,0,0,0-1.333-3.784A4.165,4.165,0,0,0,253.18-18.6Zm20.445-8.982v5.394h3.917V-18.5h-3.917V-6.111a2.728,2.728,0,0,0,.5,1.835,2.33,2.33,0,0,0,1.794.564,7.677,7.677,0,0,0,1.743-.205V-.062a12.273,12.273,0,0,1-3.281.472q-5.742,0-5.742-6.337V-18.5h-3.65v-3.691h3.65v-5.394ZM291.959.41a10.31,10.31,0,0,1-7.68-2.984,10.824,10.824,0,0,1-2.943-7.947v-.615a13.315,13.315,0,0,1,1.282-5.937,9.756,9.756,0,0,1,3.6-4.071,9.515,9.515,0,0,1,5.168-1.456,8.709,8.709,0,0,1,7,2.892q2.471,2.892,2.471,8.183v2.01h-14.5A6.664,6.664,0,0,0,288.2-5.168a5.511,5.511,0,0,0,4.05,1.6,6.748,6.748,0,0,0,5.578-2.769l2.687,2.563a8.971,8.971,0,0,1-3.558,3.086A11.139,11.139,0,0,1,291.959.41ZM291.364-18.6a4.2,4.2,0,0,0-3.312,1.436,7.441,7.441,0,0,0-1.61,4h9.5v-.369a6.057,6.057,0,0,0-1.333-3.784A4.165,4.165,0,0,0,291.364-18.6Zm18.825-3.589.144,2.563a7.978,7.978,0,0,1,6.46-2.974q6.932,0,7.055,7.937V0h-4.983V-14.376a4.57,4.57,0,0,0-.913-3.127,3.839,3.839,0,0,0-2.984-1.015,4.8,4.8,0,0,0-4.491,2.728V0h-4.983V-22.189Zm25.819-5.394v5.394h3.917V-18.5h-3.917V-6.111a2.728,2.728,0,0,0,.5,1.835,2.33,2.33,0,0,0,1.794.564,7.677,7.677,0,0,0,1.743-.205V-.062a12.273,12.273,0,0,1-3.281.472q-5.742,0-5.742-6.337V-18.5h-3.65v-3.691h3.65v-5.394Z" transform="translate(100 352)" opacity="0.7"/><path d="M8.511,0H3.343V-29.859H8.511ZM39.8,0a7.691,7.691,0,0,1-.574-2.071A7.757,7.757,0,0,1,33.406.41,7.829,7.829,0,0,1,27.951-1.5a6.1,6.1,0,0,1-2.112-4.717,6.3,6.3,0,0,1,2.635-5.445q2.635-1.9,7.537-1.9h3.056v-1.456A3.887,3.887,0,0,0,38.1-17.77a3.821,3.821,0,0,0-2.933-1.036,4.39,4.39,0,0,0-2.789.851,2.634,2.634,0,0,0-1.087,2.164H26.31a5.531,5.531,0,0,1,1.21-3.415A8.061,8.061,0,0,1,30.811-21.7a11.562,11.562,0,0,1,4.645-.9,9.311,9.311,0,0,1,6.214,1.958,6.984,6.984,0,0,1,2.379,5.506V-5.127A11.342,11.342,0,0,0,44.89-.349V0ZM34.328-3.589a5.669,5.669,0,0,0,2.779-.718,4.8,4.8,0,0,0,1.958-1.928v-4.184H36.379a7.346,7.346,0,0,0-4.163.964,3.122,3.122,0,0,0-1.395,2.728,2.912,2.912,0,0,0,.954,2.287A3.693,3.693,0,0,0,34.328-3.589Zm20.466-18.6.144,2.317a7.985,7.985,0,0,1,6.4-2.728q4.45,0,6.091,3.4a7.87,7.87,0,0,1,6.809-3.4q3.671,0,5.465,2.03t1.835,5.988V0H76.553V-14.437a4.413,4.413,0,0,0-.923-3.1,4.04,4.04,0,0,0-3.056-.984,4.149,4.149,0,0,0-2.779.913,4.813,4.813,0,0,0-1.507,2.389L68.309,0H63.326V-14.6q-.1-3.917-4-3.917a4.387,4.387,0,0,0-4.245,2.44V0H50.1V-22.189ZM112.235-2.174A7.729,7.729,0,0,1,106,.41,6.888,6.888,0,0,1,100.535-1.7a8.986,8.986,0,0,1-1.856-6.111V-22.189h4.983V-7.875q0,4.225,3.507,4.225,3.63,0,4.9-2.6V-22.189h4.983V0h-4.7Zm15.36-20.016.144,2.563A7.978,7.978,0,0,1,134.2-22.6q6.932,0,7.055,7.937V0h-4.983V-14.376a4.57,4.57,0,0,0-.913-3.127,3.839,3.839,0,0,0-2.984-1.015,4.8,4.8,0,0,0-4.491,2.728V0H122.9V-22.189ZM152.47,0h-4.983V-31.5h4.983ZM157.8-11.3a13.084,13.084,0,0,1,1.292-5.875,9.436,9.436,0,0,1,3.63-4.02,10.227,10.227,0,0,1,5.373-1.4,9.692,9.692,0,0,1,7.291,2.892,11.373,11.373,0,0,1,3.025,7.67l.021,1.169A13.2,13.2,0,0,1,177.171-5a9.323,9.323,0,0,1-3.609,4A10.3,10.3,0,0,1,168.137.41a9.626,9.626,0,0,1-7.516-3.127,11.978,11.978,0,0,1-2.82-8.336Zm4.983.431A8.941,8.941,0,0,0,164.2-5.506a4.6,4.6,0,0,0,3.938,1.938,4.55,4.55,0,0,0,3.927-1.969,9.875,9.875,0,0,0,1.4-5.763,8.826,8.826,0,0,0-1.446-5.332A4.617,4.617,0,0,0,168.1-18.6a4.574,4.574,0,0,0-3.876,1.938A9.689,9.689,0,0,0,162.784-10.869ZM191-6.316l4.7-15.873h5.147L193.156,0h-4.327l-7.752-22.189h5.168ZM217.744,0a7.691,7.691,0,0,1-.574-2.071A7.757,7.757,0,0,1,211.345.41,7.829,7.829,0,0,1,205.89-1.5a6.1,6.1,0,0,1-2.112-4.717,6.3,6.3,0,0,1,2.635-5.445q2.635-1.9,7.537-1.9h3.056v-1.456a3.887,3.887,0,0,0-.964-2.758,3.821,3.821,0,0,0-2.933-1.036,4.39,4.39,0,0,0-2.789.851,2.634,2.634,0,0,0-1.087,2.164H204.25a5.531,5.531,0,0,1,1.21-3.415,8.061,8.061,0,0,1,3.292-2.492,11.562,11.562,0,0,1,4.645-.9,9.311,9.311,0,0,1,6.214,1.958,6.984,6.984,0,0,1,2.379,5.506V-5.127a11.342,11.342,0,0,0,.841,4.778V0Zm-5.476-3.589a5.669,5.669,0,0,0,2.779-.718,4.8,4.8,0,0,0,1.958-1.928v-4.184h-2.687a7.346,7.346,0,0,0-4.163.964,3.122,3.122,0,0,0-1.395,2.728,2.912,2.912,0,0,0,.954,2.287A3.693,3.693,0,0,0,212.268-3.589Zm35.252-7.28a13.329,13.329,0,0,1-2.307,8.224A7.516,7.516,0,0,1,238.866.41,7.239,7.239,0,0,1,232.8-2.4L232.55,0h-4.512V-31.5h4.983v11.443a7.213,7.213,0,0,1,5.8-2.543,7.6,7.6,0,0,1,6.378,3.015q2.317,3.015,2.317,8.429Zm-4.983-.431a9.421,9.421,0,0,0-1.271-5.414,4.234,4.234,0,0,0-3.691-1.8,4.627,4.627,0,0,0-4.553,2.83v9.146a4.675,4.675,0,0,0,4.594,2.892,4.2,4.2,0,0,0,3.609-1.743,9.128,9.128,0,0,0,1.313-5.271ZM257.835,0h-4.983V-31.5h4.983Zm16.036.41a10.31,10.31,0,0,1-7.68-2.984,10.824,10.824,0,0,1-2.943-7.947v-.615a13.315,13.315,0,0,1,1.282-5.937,9.756,9.756,0,0,1,3.6-4.071A9.515,9.515,0,0,1,273.3-22.6a8.709,8.709,0,0,1,7,2.892q2.471,2.892,2.471,8.183v2.01h-14.5a6.664,6.664,0,0,0,1.835,4.348,5.511,5.511,0,0,0,4.05,1.6,6.748,6.748,0,0,0,5.578-2.769l2.687,2.563a8.971,8.971,0,0,1-3.558,3.086A11.139,11.139,0,0,1,273.871.41ZM273.276-18.6a4.2,4.2,0,0,0-3.312,1.436,7.441,7.441,0,0,0-1.61,4h9.5v-.369a6.057,6.057,0,0,0-1.333-3.784A4.165,4.165,0,0,0,273.276-18.6Z" transform="translate(588 756)" opacity="0.7"/><path d="M8.511,0H3.343V-29.859H8.511ZM39.8,0a7.691,7.691,0,0,1-.574-2.071A7.757,7.757,0,0,1,33.406.41,7.829,7.829,0,0,1,27.951-1.5a6.1,6.1,0,0,1-2.112-4.717,6.3,6.3,0,0,1,2.635-5.445q2.635-1.9,7.537-1.9h3.056v-1.456A3.887,3.887,0,0,0,38.1-17.77a3.821,3.821,0,0,0-2.933-1.036,4.39,4.39,0,0,0-2.789.851,2.634,2.634,0,0,0-1.087,2.164H26.31a5.531,5.531,0,0,1,1.21-3.415A8.061,8.061,0,0,1,30.811-21.7a11.562,11.562,0,0,1,4.645-.9,9.311,9.311,0,0,1,6.214,1.958,6.984,6.984,0,0,1,2.379,5.506V-5.127A11.342,11.342,0,0,0,44.89-.349V0ZM34.328-3.589a5.669,5.669,0,0,0,2.779-.718,4.8,4.8,0,0,0,1.958-1.928v-4.184H36.379a7.346,7.346,0,0,0-4.163.964,3.122,3.122,0,0,0-1.395,2.728,2.912,2.912,0,0,0,.954,2.287A3.693,3.693,0,0,0,34.328-3.589Zm20.466-18.6.144,2.317a7.985,7.985,0,0,1,6.4-2.728q4.45,0,6.091,3.4a7.87,7.87,0,0,1,6.809-3.4q3.671,0,5.465,2.03t1.835,5.988V0H76.553V-14.437a4.413,4.413,0,0,0-.923-3.1,4.04,4.04,0,0,0-3.056-.984,4.149,4.149,0,0,0-2.779.913,4.813,4.813,0,0,0-1.507,2.389L68.309,0H63.326V-14.6q-.1-3.917-4-3.917a4.387,4.387,0,0,0-4.245,2.44V0H50.1V-22.189ZM118.285-6.87l3.527-15.319h4.86L120.623,0h-4.1l-4.758-15.237L107.088,0h-4.1l-6.07-22.189h4.86l3.589,15.155,4.553-15.155h3.753Zm11.627-4.43a13.084,13.084,0,0,1,1.292-5.875,9.436,9.436,0,0,1,3.63-4.02,10.227,10.227,0,0,1,5.373-1.4,9.692,9.692,0,0,1,7.291,2.892,11.373,11.373,0,0,1,3.025,7.67l.021,1.169A13.2,13.2,0,0,1,149.282-5a9.323,9.323,0,0,1-3.609,4A10.3,10.3,0,0,1,140.248.41a9.626,9.626,0,0,1-7.516-3.127,11.978,11.978,0,0,1-2.82-8.336Zm4.983.431a8.941,8.941,0,0,0,1.415,5.363,4.6,4.6,0,0,0,3.938,1.938,4.55,4.55,0,0,0,3.927-1.969,9.875,9.875,0,0,0,1.4-5.763,8.826,8.826,0,0,0-1.446-5.332,4.617,4.617,0,0,0-3.927-1.969,4.574,4.574,0,0,0-3.876,1.938A9.689,9.689,0,0,0,134.9-10.869Zm32.319-6.768a12.332,12.332,0,0,0-2.03-.164q-3.425,0-4.614,2.625V0h-4.983V-22.189h4.758l.123,2.481a5.615,5.615,0,0,1,5-2.892,4.665,4.665,0,0,1,1.764.287Zm11.258-9.946v5.394h3.917V-18.5h-3.917V-6.111a2.728,2.728,0,0,0,.5,1.835,2.33,2.33,0,0,0,1.794.564,7.677,7.677,0,0,0,1.743-.205V-.062a12.273,12.273,0,0,1-3.281.472q-5.742,0-5.742-6.337V-18.5h-3.65v-3.691h3.65v-5.394Zm13.473,7.813a7.8,7.8,0,0,1,6.173-2.83q7.1,0,7.2,8.1V0h-4.983V-14.314a4.382,4.382,0,0,0-.995-3.25,4.066,4.066,0,0,0-2.922-.954,4.8,4.8,0,0,0-4.471,2.666V0h-4.983V-31.5h4.983ZM216.493,0h-4.983V-31.5h4.983Zm16.036.41a10.31,10.31,0,0,1-7.68-2.984,10.824,10.824,0,0,1-2.943-7.947v-.615a13.315,13.315,0,0,1,1.282-5.937,9.756,9.756,0,0,1,3.6-4.071,9.515,9.515,0,0,1,5.168-1.456,8.709,8.709,0,0,1,7,2.892q2.471,2.892,2.471,8.183v2.01h-14.5a6.664,6.664,0,0,0,1.835,4.348,5.511,5.511,0,0,0,4.05,1.6,6.748,6.748,0,0,0,5.578-2.769l2.687,2.563a8.971,8.971,0,0,1-3.558,3.086A11.139,11.139,0,0,1,232.529.41ZM231.934-18.6a4.2,4.2,0,0,0-3.312,1.436,7.441,7.441,0,0,0-1.61,4h9.5v-.369a6.057,6.057,0,0,0-1.333-3.784A4.165,4.165,0,0,0,231.934-18.6ZM258.573-6.029a2.259,2.259,0,0,0-1.1-2.03,11.669,11.669,0,0,0-3.64-1.23,18.713,18.713,0,0,1-4.245-1.354q-3.732-1.8-3.732-5.229a5.906,5.906,0,0,1,2.42-4.8,9.567,9.567,0,0,1,6.152-1.928,9.954,9.954,0,0,1,6.429,1.969,6.247,6.247,0,0,1,2.451,5.106h-4.983a3.071,3.071,0,0,0-1.066-2.389,4.087,4.087,0,0,0-2.83-.954,4.416,4.416,0,0,0-2.676.759,2.392,2.392,0,0,0-1.036,2.03,2.02,2.02,0,0,0,.964,1.784,13.254,13.254,0,0,0,3.9,1.282,18.445,18.445,0,0,1,4.6,1.538,6.52,6.52,0,0,1,2.481,2.143,5.465,5.465,0,0,1,.81,3.035,5.781,5.781,0,0,1-2.481,4.85,10.581,10.581,0,0,1-6.5,1.856,11.474,11.474,0,0,1-4.86-.984,8,8,0,0,1-3.322-2.707,6.408,6.408,0,0,1-1.189-3.712h4.84a3.511,3.511,0,0,0,1.333,2.717,5.18,5.18,0,0,0,3.261.954,5.039,5.039,0,0,0,2.994-.749A2.317,2.317,0,0,0,258.573-6.029Zm22.517,0a2.259,2.259,0,0,0-1.1-2.03,11.669,11.669,0,0,0-3.64-1.23,18.713,18.713,0,0,1-4.245-1.354q-3.732-1.8-3.732-5.229a5.906,5.906,0,0,1,2.42-4.8,9.567,9.567,0,0,1,6.152-1.928,9.954,9.954,0,0,1,6.429,1.969,6.247,6.247,0,0,1,2.451,5.106h-4.983a3.071,3.071,0,0,0-1.066-2.389,4.087,4.087,0,0,0-2.83-.954,4.416,4.416,0,0,0-2.676.759,2.392,2.392,0,0,0-1.036,2.03,2.02,2.02,0,0,0,.964,1.784,13.254,13.254,0,0,0,3.9,1.282,18.445,18.445,0,0,1,4.6,1.538,6.52,6.52,0,0,1,2.481,2.143,5.465,5.465,0,0,1,.81,3.035,5.781,5.781,0,0,1-2.481,4.85,10.581,10.581,0,0,1-6.5,1.856,11.474,11.474,0,0,1-4.86-.984,8,8,0,0,1-3.322-2.707,6.408,6.408,0,0,1-1.189-3.712h4.84a3.511,3.511,0,0,0,1.333,2.717,5.18,5.18,0,0,0,3.261.954,5.039,5.039,0,0,0,2.994-.749A2.317,2.317,0,0,0,281.09-6.029Z" transform="translate(100 1154)" opacity="0.7"/><g transform="translate(605.844 194.382)"><g transform="translate(106.962 67.612)"><g transform="translate(69.412 105.67)"><path d="M162.3,351.232l-15.105-52.549a11.772,11.772,0,0,1,.223-7.2l15.1-42.442a11.773,11.773,0,0,1,22.184,7.9l-13.837,38.878,14.06,48.913a11.773,11.773,0,0,1-22.63,6.506Z" transform="translate(-146.735 -241.212)" fill="#5d69ab"/></g><g transform="translate(36.189 96.124)"><path d="M80.033,338.18l-3.5-49.261A11.771,11.771,0,0,1,77.2,284.1L97.1,228.82a11.773,11.773,0,0,1,22.154,7.976L100.2,289.732l3.324,46.779a11.773,11.773,0,0,1-23.487,1.669Z" transform="translate(-76.503 -221.031)" fill="#5d69ab"/></g><path d="M101.075,176.161,134.789,163.9,107.125,90.255a15.221,15.221,0,0,0-19.65-8.79L62.115,91.147a15.221,15.221,0,0,0-8.791,19.65l20.263,53.068A21.292,21.292,0,0,0,101.075,176.161Z" transform="translate(-27.57 -50.831)" fill="#d45454"/><ellipse cx="21.515" cy="21.515" rx="21.515" ry="21.515" transform="translate(7.595 0)" fill="#ffb69e"/><g transform="translate(0 38.515)"><path d="M38.06,122.829l-1.428,3.111L17.353,102.78A9.811,9.811,0,0,0,2.272,115.333l29.242,35.129a9.813,9.813,0,0,0,16.458-2.184l7.666-16.7-5-11.663Z" transform="translate(-0.001 -99.245)" fill="#ffb69e"/><path d="M101.665,100.136a9.811,9.811,0,0,0-13.009,4.825l-8.2,17.866,17.577,8.744,8.456-18.425A9.811,9.811,0,0,0,101.665,100.136Z" transform="translate(-43.648 -96.742)" fill="#d45454"/></g></g><g transform="translate(162.645 19.387)"><g transform="translate(0 0)"><path d="M7.724,3.248C9.045,1.982,7.775-.965,6.44.316A21.183,21.183,0,0,0,.054,13.554c-.587,5.91,3.778,9.7,4.269,15.253A15.6,15.6,0,0,1,.909,39.123c-1.2,1.5.6,3.891,1.8,2.4A20.107,20.107,0,0,0,6.414,25.416c-1.1-5.886-5.3-8.72-3.029-15.432A17.637,17.637,0,0,1,7.724,3.248Z" transform="translate(6.569 0) rotate(9)" fill="#d45454" stroke="#d45454" stroke-width="1"/><path d="M7.725,3.248C9.044,1.982,7.776-.965,6.441.316A21.2,21.2,0,0,0,.054,13.554c-.584,5.91,3.779,9.7,4.27,15.253A15.6,15.6,0,0,1,.91,39.123c-1.2,1.5.6,3.891,1.8,2.4A20.107,20.107,0,0,0,6.415,25.416c-1.1-5.886-5.3-8.72-3.029-15.432A17.637,17.637,0,0,1,7.725,3.248Z" transform="translate(21.302 2.333) rotate(9)" fill="#d45454" stroke="#d45454" stroke-width="1"/><path d="M7.724,3.248C9.045,1.982,7.776-.965,6.442.316A21.191,21.191,0,0,0,.054,13.554c-.585,5.91,3.778,9.7,4.269,15.253A15.591,15.591,0,0,1,.909,39.123c-1.2,1.5.6,3.891,1.8,2.4A20.118,20.118,0,0,0,6.416,25.416c-1.1-5.886-5.3-8.72-3.029-15.432A17.618,17.618,0,0,1,7.724,3.248Z" transform="translate(36.032 4.665) rotate(9)" fill="#d45454" stroke="#d45454" stroke-width="1"/></g></g><g transform="translate(0 0)"><g transform="translate(249.252 45.615) rotate(45)"><path d="M1.509,12.868,16.362,2.909a5.008,5.008,0,0,1,3.593-.789,5.023,5.023,0,0,0,3.6-.786L25.544,0,36.675,16.615,33.944,28.561a12.608,12.608,0,0,0,1.73,9.7,3.006,3.006,0,0,1-.829,4.132,2.914,2.914,0,0,1-3.674-.345L29.4,40.309a19.179,19.179,0,0,1-4.564-7.085l-.959-2.615L14,37.219a3.344,3.344,0,0,1-4.72-1.041,3.482,3.482,0,0,1,1.058-4.686.038.038,0,0,0,.013-.048.037.037,0,0,0-.048-.019,3.305,3.305,0,0,1-1.2.227,3.354,3.354,0,0,1-2.813-1.528,3.434,3.434,0,0,1-.495-2.545A3.485,3.485,0,0,1,7.2,25.418a.074.074,0,0,0,.019-.1,0,0,0,0,0,0,0,.07.07,0,0,0-.095-.019,3.43,3.43,0,0,1-.817.1,3.514,3.514,0,0,1-1.9-.557,3.334,3.334,0,0,1-.983-.976,3.437,3.437,0,0,1,.949-4.727l.115-.078a.053.053,0,0,0,.017-.066.031.031,0,0,0-.012-.012.054.054,0,0,0-.067,0,3.263,3.263,0,0,1-2.858-.372,3.452,3.452,0,0,1-.058-5.739Zm0,0" transform="translate(0 13.517)" fill="#ffe0a4"/><path d="M32.027,20.513,21.35,27.858l-6.391,4.285a1.586,1.586,0,0,1-2.215-.457L.266,12.61a1.634,1.634,0,0,1,.452-2.246l6.266-4.2L16.288,0A26.171,26.171,0,0,1,32.025,20.5s0,.008,0,.011Zm0,0" transform="translate(24.684 0)" fill="#cebb6f"/><path d="M.718,4.2,6.983,0,21.35,21.7l-6.391,4.286a1.586,1.586,0,0,1-2.216-.458L.266,6.447A1.633,1.633,0,0,1,.718,4.2Zm0,0" transform="translate(24.684 6.163)" fill="#b9a75e"/><g transform="translate(1.567 29.625)"><path d="M0,2.87,4.942.192A1.589,1.589,0,0,1,6.985.657l-3.9,2.553a.037.037,0,0,0-.048-.019,3.3,3.3,0,0,1-1.2.227A3.363,3.363,0,0,1,0,2.87Zm0,0" transform="translate(5.694 12.127)" fill="#d5b77d"/><path d="M0,2.81,4.835.192A1.587,1.587,0,0,1,6.877.656L2.98,3.209l-.168.08a.071.071,0,0,0-.1-.019,3.4,3.4,0,0,1-.817.1A3.514,3.514,0,0,1,0,2.81Zm0,0" transform="translate(2.838 5.917)" fill="#d5b77d"/><path d="M0,2.5,4.258.191A1.589,1.589,0,0,1,6.3.657L2.925,2.868a.054.054,0,0,0-.067,0A3.265,3.265,0,0,1,0,2.5Zm0,0" transform="translate(0 0)" fill="#d5b77d"/></g></g><g transform="translate(127.298 38.894) rotate(135)"><path d="M1.471,29.273l14.485,9.712a4.884,4.884,0,0,0,3.5.769,4.9,4.9,0,0,1,3.512.767l1.939,1.3,10.856-16.2L33.1,13.969A12.3,12.3,0,0,1,34.79,4.513,2.932,2.932,0,0,0,33.981.484,2.842,2.842,0,0,0,30.4.82L28.672,2.512a18.7,18.7,0,0,0-4.451,6.909l-.935,2.55L13.65,5.526a3.261,3.261,0,0,0-4.6,1.015,3.4,3.4,0,0,0,1.032,4.569.037.037,0,0,1,.013.047.036.036,0,0,1-.047.018,3.223,3.223,0,0,0-1.174-.221,3.271,3.271,0,0,0-2.743,1.49,3.349,3.349,0,0,0-.483,2.482,3.4,3.4,0,0,0,1.377,2.107.072.072,0,0,1,.018.1,0,0,0,0,1,0,0,.069.069,0,0,1-.093.018,3.344,3.344,0,0,0-.8-.095A3.427,3.427,0,0,0,4.3,17.6a3.251,3.251,0,0,0-.959.952,3.352,3.352,0,0,0,.926,4.61l.112.076a.052.052,0,0,1,.017.064.03.03,0,0,1-.012.012.052.052,0,0,1-.065,0,3.182,3.182,0,0,0-2.787.363,3.366,3.366,0,0,0-.057,5.6Zm0,0" transform="translate(0 0)" fill="#fdd7bd"/><path d="M31.233,11.6,20.821,4.442,14.588.263a1.546,1.546,0,0,0-2.16.445L.259,19.311A1.594,1.594,0,0,0,.7,21.5L6.81,25.6l9.074,6.01A25.523,25.523,0,0,0,31.232,11.615s0-.007,0-.011Zm0,0" transform="translate(24.072 23.395)" fill="#6aaecb"/><path d="M.7,21.5l6.11,4.1L20.821,4.442,14.588.262a1.547,1.547,0,0,0-2.161.446L.259,19.312A1.593,1.593,0,0,0,.7,21.5Zm0,0" transform="translate(24.072 23.395)" fill="#6fc7ff"/><g transform="translate(1.528 10.955)"><path d="M0,.534,4.819,3.146a1.549,1.549,0,0,0,1.992-.454L3.011.2a.036.036,0,0,1-.047.018A3.223,3.223,0,0,0,1.79,0,3.28,3.28,0,0,0,0,.534Zm0,0" transform="translate(5.553 0)" fill="#fac5aa"/><path d="M0,.544,4.715,3.1a1.548,1.548,0,0,0,1.991-.452L2.906.155,2.743.077A.07.07,0,0,1,2.65.1a3.319,3.319,0,0,0-.8-.1A3.427,3.427,0,0,0,0,.544Zm0,0" transform="translate(2.768 6.103)" fill="#fac5aa"/><path d="M0,.534,4.153,2.783A1.55,1.55,0,0,0,6.144,2.33L2.852.173a.052.052,0,0,1-.065,0A3.184,3.184,0,0,0,0,.534Zm0,0" transform="translate(0 12.189)" fill="#fac5aa"/></g></g><g transform="translate(81.922 130.151) rotate(150)"><path d="M1.6,31.807,17.336,42.359a5.306,5.306,0,0,0,3.807.836,5.322,5.322,0,0,1,3.816.833l2.107,1.413L38.861,27.836,35.967,15.178A13.359,13.359,0,0,1,37.8,4.9,3.185,3.185,0,0,0,36.921.526a3.088,3.088,0,0,0-3.893.365L31.153,2.73a20.322,20.322,0,0,0-4.836,7.507L25.3,13.008,14.831,6a3.544,3.544,0,0,0-5,1.1,3.69,3.69,0,0,0,1.121,4.965.04.04,0,0,1,.014.051.039.039,0,0,1-.051.02,3.5,3.5,0,0,0-1.275-.24,3.555,3.555,0,0,0-2.98,1.619,3.639,3.639,0,0,0-.525,2.7,3.692,3.692,0,0,0,1.5,2.289.078.078,0,0,1,.02.107,0,0,0,0,1,0,0,.075.075,0,0,1-.1.02,3.633,3.633,0,0,0-.866-.1,3.723,3.723,0,0,0-2.013.591A3.532,3.532,0,0,0,3.626,20.16a3.642,3.642,0,0,0,1.006,5.009l.122.082a.056.056,0,0,1,.018.07.032.032,0,0,1-.013.013.057.057,0,0,1-.071,0,3.458,3.458,0,0,0-3.028.395A3.658,3.658,0,0,0,1.6,31.807Zm0,0" transform="translate(0 0)" fill="#eec2a3"/><path d="M33.935,12.608,22.622,4.826,15.85.285A1.68,1.68,0,0,0,13.5.769L.282,20.982a1.731,1.731,0,0,0,.479,2.38L7.4,27.814l9.859,6.53A27.732,27.732,0,0,0,33.934,12.62s0-.008,0-.012Zm0,0" transform="translate(26.155 25.42)" fill="#a7bb52"/><path d="M.761,23.362,7.4,27.814,22.623,4.826,15.851.285A1.681,1.681,0,0,0,13.5.77L.281,20.983a1.731,1.731,0,0,0,.479,2.379Zm0,0" transform="translate(26.155 25.42)" fill="#cde566"/><g transform="translate(1.66 11.903)"><path d="M0,.58,5.237,3.418A1.683,1.683,0,0,0,7.4,2.925L3.272.22a.04.04,0,0,1-.051.02A3.5,3.5,0,0,0,1.945,0,3.564,3.564,0,0,0,0,.58Zm0,0" transform="translate(6.034 0)" fill="#d1a78b"/><path d="M0,.591,5.123,3.365a1.682,1.682,0,0,0,2.164-.491L3.158.168,2.98.084a.076.076,0,0,1-.1.02A3.606,3.606,0,0,0,2.013,0,3.723,3.723,0,0,0,0,.591Zm0,0" transform="translate(3.008 6.631)" fill="#d1a78b"/><path d="M0,.58,4.512,3.024a1.684,1.684,0,0,0,2.164-.493L3.1.188a.057.057,0,0,1-.071,0A3.459,3.459,0,0,0,0,.58Zm0,0" transform="translate(0 13.243)" fill="#d1a78b"/></g></g></g></g><path d="M3.809,0V-42.656H16.934A19.932,19.932,0,0,1,27-40.122a17.671,17.671,0,0,1,6.929,7.207,22.229,22.229,0,0,1,2.49,10.62v1.963A22.292,22.292,0,0,1,33.97-9.756a17.52,17.52,0,0,1-6.9,7.178A20.082,20.082,0,0,1,17.021,0ZM12.6-35.537V-7.061h4.248q5.156,0,7.881-3.369t2.783-9.639v-2.256q0-6.5-2.7-9.858t-7.881-3.354Zm28.33,19.395a18.8,18.8,0,0,1,1.816-8.408,13.3,13.3,0,0,1,5.229-5.713A15.257,15.257,0,0,1,55.9-32.285a14.435,14.435,0,0,1,10.474,3.926Q70.43-24.434,70.9-17.7l.059,2.168q0,7.295-4.072,11.7T55.957.586Q49.1.586,45.015-3.809T40.928-15.762Zm8.467.6q0,4.519,1.7,6.91A5.605,5.605,0,0,0,55.957-6.24a5.618,5.618,0,0,0,4.8-2.362q1.729-2.362,1.729-7.555a11.73,11.73,0,0,0-1.729-6.866A5.619,5.619,0,0,0,55.9-25.459a5.527,5.527,0,0,0-4.8,2.421Q49.395-20.618,49.395-15.542ZM101.25-39.492V-31.7h5.42v6.211h-5.42v15.82a3.778,3.778,0,0,0,.674,2.52,3.384,3.384,0,0,0,2.578.762,13.5,13.5,0,0,0,2.49-.205V-.176a17.43,17.43,0,0,1-5.127.762q-8.906,0-9.082-8.994v-17.08H88.154V-31.7h4.629v-7.793Zm18.4,11.25a10.567,10.567,0,0,1,8.467-4.043q10.313,0,10.459,11.982V0h-8.467V-20.068a5.889,5.889,0,0,0-1.172-4.028,5.024,5.024,0,0,0-3.9-1.3,5.763,5.763,0,0,0-5.391,2.871V0h-8.467V-45h8.467ZM159.551.586A15.561,15.561,0,0,1,148.2-3.691q-4.38-4.277-4.38-11.4v-.82a19.149,19.149,0,0,1,1.846-8.54,13.546,13.546,0,0,1,5.229-5.8,14.678,14.678,0,0,1,7.72-2.036q6.5,0,10.239,4.1t3.735,11.631V-13.1H152.4a7.865,7.865,0,0,0,2.476,4.98,7.484,7.484,0,0,0,5.229,1.875,9.139,9.139,0,0,0,7.646-3.545l4.16,4.658a12.71,12.71,0,0,1-5.156,4.2A16.917,16.917,0,0,1,159.551.586Zm-.967-26.045a5.291,5.291,0,0,0-4.087,1.707,8.838,8.838,0,0,0-2.007,4.885h11.777v-.677a6.3,6.3,0,0,0-1.523-4.37A5.458,5.458,0,0,0,158.584-25.459Zm35.977,16.7a2.728,2.728,0,0,0-1.538-2.446,17.471,17.471,0,0,0-4.937-1.6q-11.309-2.373-11.309-9.609a8.71,8.71,0,0,1,3.5-7.046,14.123,14.123,0,0,1,9.155-2.827q6.035,0,9.653,2.842a8.956,8.956,0,0,1,3.618,7.383h-8.467a4.1,4.1,0,0,0-1.172-3A4.959,4.959,0,0,0,189.4-26.25a5.067,5.067,0,0,0-3.311.967,3.052,3.052,0,0,0-1.172,2.461,2.609,2.609,0,0,0,1.333,2.271,13.713,13.713,0,0,0,4.5,1.494,36.732,36.732,0,0,1,5.332,1.421q6.709,2.461,6.709,8.525a8.269,8.269,0,0,1-3.721,7.017A16.05,16.05,0,0,1,189.463.586a16.764,16.764,0,0,1-7.075-1.421,11.871,11.871,0,0,1-4.849-3.9,9.054,9.054,0,0,1-1.758-5.347h8.027a4.42,4.42,0,0,0,1.67,3.457,6.624,6.624,0,0,0,4.16,1.2,6.131,6.131,0,0,0,3.677-.923A2.872,2.872,0,0,0,194.561-8.76ZM222.832.586a15.561,15.561,0,0,1-11.353-4.277q-4.38-4.277-4.38-11.4v-.82a19.149,19.149,0,0,1,1.846-8.54,13.546,13.546,0,0,1,5.229-5.8,14.678,14.678,0,0,1,7.72-2.036q6.5,0,10.239,4.1t3.735,11.631V-13.1H215.684a7.865,7.865,0,0,0,2.476,4.98,7.484,7.484,0,0,0,5.229,1.875,9.139,9.139,0,0,0,7.646-3.545l4.16,4.658a12.71,12.71,0,0,1-5.156,4.2A16.917,16.917,0,0,1,222.832.586Zm-.967-26.045a5.291,5.291,0,0,0-4.087,1.707,8.838,8.838,0,0,0-2.007,4.885h11.777v-.677a6.3,6.3,0,0,0-1.523-4.37A5.458,5.458,0,0,0,221.865-25.459Zm62.314,9.9q0,7.617-3.252,11.88A10.772,10.772,0,0,1,271.846.586a9.9,9.9,0,0,1-8.232-3.955L263.232,0h-7.617V-45h8.467v16.143a9.643,9.643,0,0,1,7.705-3.428,10.861,10.861,0,0,1,9.1,4.263q3.3,4.263,3.3,12Zm-8.467-.615q0-4.8-1.523-7.017a5.151,5.151,0,0,0-4.541-2.212,5.585,5.585,0,0,0-5.566,3.311V-9.58a5.661,5.661,0,0,0,5.625,3.34,5.227,5.227,0,0,0,5.391-4.043A20.856,20.856,0,0,0,275.713-16.172ZM303.984.586a15.561,15.561,0,0,1-11.353-4.277q-4.38-4.277-4.38-11.4v-.82a19.149,19.149,0,0,1,1.846-8.54,13.546,13.546,0,0,1,5.229-5.8,14.678,14.678,0,0,1,7.72-2.036q6.5,0,10.239,4.1t3.735,11.631V-13.1H296.836a7.865,7.865,0,0,0,2.476,4.98,7.484,7.484,0,0,0,5.229,1.875,9.139,9.139,0,0,0,7.646-3.545l4.16,4.658a12.71,12.71,0,0,1-5.156,4.2A16.917,16.917,0,0,1,303.984.586Zm-.967-26.045a5.291,5.291,0,0,0-4.087,1.707,8.838,8.838,0,0,0-2.007,4.885H308.7v-.677a6.3,6.3,0,0,0-1.523-4.37A5.458,5.458,0,0,0,303.018-25.459ZM330.762,0h-8.5V-45h8.5ZM346.67,0h-8.5V-31.7h8.5Zm-8.994-39.9a4.169,4.169,0,0,1,1.274-3.135,4.788,4.788,0,0,1,3.472-1.23,4.8,4.8,0,0,1,3.457,1.23,4.145,4.145,0,0,1,1.289,3.135,4.157,4.157,0,0,1-1.3,3.164,4.81,4.81,0,0,1-3.442,1.23,4.81,4.81,0,0,1-3.442-1.23A4.157,4.157,0,0,1,337.676-39.9ZM368.232.586A15.561,15.561,0,0,1,356.88-3.691q-4.38-4.277-4.38-11.4v-.82a19.149,19.149,0,0,1,1.846-8.54,13.546,13.546,0,0,1,5.229-5.8,14.678,14.678,0,0,1,7.72-2.036q6.5,0,10.239,4.1t3.735,11.631V-13.1H361.084a7.865,7.865,0,0,0,2.476,4.98,7.484,7.484,0,0,0,5.229,1.875,9.139,9.139,0,0,0,7.646-3.545l4.16,4.658a12.71,12.71,0,0,1-5.156,4.2A16.917,16.917,0,0,1,368.232.586Zm-.967-26.045a5.291,5.291,0,0,0-4.087,1.707,8.838,8.838,0,0,0-2.007,4.885h11.777v-.677a6.3,6.3,0,0,0-1.523-4.37A5.458,5.458,0,0,0,367.266-25.459ZM388.389,0V-25.488h-4.717V-31.7h4.717v-2.7q0-5.332,3.062-8.276t8.569-2.944a19.793,19.793,0,0,1,4.307.586l-.088,6.563a10.794,10.794,0,0,0-2.578-.264q-4.775,0-4.775,4.482V-31.7h6.3v6.211h-6.3V0Zm36.357-8.76a2.728,2.728,0,0,0-1.538-2.446,17.471,17.471,0,0,0-4.937-1.6q-11.309-2.373-11.309-9.609a8.71,8.71,0,0,1,3.5-7.046,14.123,14.123,0,0,1,9.155-2.827q6.035,0,9.653,2.842a8.956,8.956,0,0,1,3.618,7.383h-8.467a4.1,4.1,0,0,0-1.172-3,4.959,4.959,0,0,0-3.662-1.187,5.067,5.067,0,0,0-3.311.967,3.052,3.052,0,0,0-1.172,2.461,2.609,2.609,0,0,0,1.333,2.271,13.713,13.713,0,0,0,4.5,1.494,36.732,36.732,0,0,1,5.332,1.421q6.709,2.461,6.709,8.525a8.269,8.269,0,0,1-3.721,7.017A16.05,16.05,0,0,1,419.648.586a16.764,16.764,0,0,1-7.075-1.421,11.871,11.871,0,0,1-4.849-3.9,9.054,9.054,0,0,1-1.758-5.347h8.027a4.42,4.42,0,0,0,1.67,3.457,6.624,6.624,0,0,0,4.16,1.2,6.131,6.131,0,0,0,3.677-.923A2.872,2.872,0,0,0,424.746-8.76ZM462.3,0h-8.5V-45h8.5Zm5.654-16.143a18.8,18.8,0,0,1,1.816-8.408A13.3,13.3,0,0,1,475-30.264a15.257,15.257,0,0,1,7.925-2.021A14.435,14.435,0,0,1,493.4-28.359q4.058,3.926,4.526,10.664l.059,2.168q0,7.295-4.072,11.7T482.988.586q-6.855,0-10.942-4.395t-4.087-11.953Zm8.467.6q0,4.519,1.7,6.91a5.605,5.605,0,0,0,4.863,2.391,5.618,5.618,0,0,0,4.8-2.362q1.729-2.362,1.729-7.555a11.73,11.73,0,0,0-1.729-6.866,5.619,5.619,0,0,0-4.863-2.435,5.527,5.527,0,0,0-4.8,2.421Q476.426-20.618,476.426-15.542Zm25.459-.6a18.8,18.8,0,0,1,1.816-8.408,13.3,13.3,0,0,1,5.229-5.713,15.257,15.257,0,0,1,7.925-2.021,14.435,14.435,0,0,1,10.474,3.926q4.058,3.926,4.526,10.664l.059,2.168q0,7.295-4.072,11.7T516.914.586q-6.855,0-10.942-4.395t-4.087-11.953Zm8.467.6q0,4.519,1.7,6.91a5.605,5.605,0,0,0,4.863,2.391,5.618,5.618,0,0,0,4.8-2.362q1.729-2.362,1.729-7.555a11.73,11.73,0,0,0-1.729-6.866,5.619,5.619,0,0,0-4.863-2.435,5.527,5.527,0,0,0-4.8,2.421Q510.352-20.618,510.352-15.542Zm38.291,2.827L545.6-9.668V0h-8.467V-45H545.6v24.932l1.641-2.109,8.115-9.521h10.166L554.063-18.486,566.514,0h-9.727ZM586.436,0V-25.488h-4.717V-31.7h4.717v-2.7q0-5.332,3.062-8.276t8.569-2.944a19.793,19.793,0,0,1,4.307.586l-.088,6.563a10.794,10.794,0,0,0-2.578-.264q-4.775,0-4.775,4.482V-31.7h6.3v6.211h-6.3V0Zm37.559,0a9.4,9.4,0,0,1-.85-2.842,10.245,10.245,0,0,1-8,3.428,11.255,11.255,0,0,1-7.72-2.7,8.669,8.669,0,0,1-3.062-6.8,8.958,8.958,0,0,1,3.735-7.734q3.735-2.7,10.8-2.725h3.9v-1.816a5.224,5.224,0,0,0-1.128-3.516,4.437,4.437,0,0,0-3.56-1.318,5.045,5.045,0,0,0-3.354,1.025,3.483,3.483,0,0,0-1.216,2.813h-8.467a8.5,8.5,0,0,1,1.7-5.1,11.232,11.232,0,0,1,4.8-3.677,17.51,17.51,0,0,1,6.973-1.333q5.859,0,9.3,2.944a10.3,10.3,0,0,1,3.442,8.276v13.74A15.155,15.155,0,0,0,632.549-.5V0Zm-7-5.889a7.292,7.292,0,0,0,3.457-.835,5.484,5.484,0,0,0,2.344-2.241v-5.449h-3.164q-6.357,0-6.768,4.395l-.029.5a3.39,3.39,0,0,0,1.113,2.607A4.324,4.324,0,0,0,616.992-5.889ZM645.732-31.7,646-28.154a11.14,11.14,0,0,1,9.111-4.131q6.123,0,8.408,4.834a10.884,10.884,0,0,1,9.521-4.834q5.156,0,7.676,3t2.52,9.038V0h-8.5V-20.215a6.036,6.036,0,0,0-1.055-3.94q-1.055-1.245-3.721-1.245a5.284,5.284,0,0,0-5.273,3.633L664.717,0H656.25V-20.186a5.963,5.963,0,0,0-1.084-3.984,4.72,4.72,0,0,0-3.691-1.23,5.487,5.487,0,0,0-5.215,2.988V0h-8.467V-31.7ZM698.672,0h-8.5V-31.7h8.5Zm-8.994-39.9a4.169,4.169,0,0,1,1.274-3.135,4.788,4.788,0,0,1,3.472-1.23,4.8,4.8,0,0,1,3.457,1.23A4.145,4.145,0,0,1,699.17-39.9a4.157,4.157,0,0,1-1.3,3.164,4.81,4.81,0,0,1-3.442,1.23,4.81,4.81,0,0,1-3.442-1.23A4.157,4.157,0,0,1,689.678-39.9ZM714.58,0h-8.5V-45h8.5Zm15.908,0h-8.5V-31.7h8.5Zm-8.994-39.9a4.169,4.169,0,0,1,1.274-3.135,4.788,4.788,0,0,1,3.472-1.23,4.8,4.8,0,0,1,3.457,1.23,4.145,4.145,0,0,1,1.289,3.135,4.157,4.157,0,0,1-1.3,3.164,4.81,4.81,0,0,1-3.442,1.23,4.81,4.81,0,0,1-3.442-1.23A4.157,4.157,0,0,1,721.494-39.9ZM755.83,0a9.4,9.4,0,0,1-.85-2.842,10.245,10.245,0,0,1-8,3.428,11.255,11.255,0,0,1-7.72-2.7,8.669,8.669,0,0,1-3.062-6.8,8.958,8.958,0,0,1,3.735-7.734q3.735-2.7,10.8-2.725h3.9v-1.816A5.224,5.224,0,0,0,753.5-24.7a4.437,4.437,0,0,0-3.56-1.318,5.045,5.045,0,0,0-3.354,1.025,3.483,3.483,0,0,0-1.216,2.813H736.9a8.5,8.5,0,0,1,1.7-5.1,11.232,11.232,0,0,1,4.8-3.677,17.51,17.51,0,0,1,6.973-1.333q5.859,0,9.3,2.944a10.3,10.3,0,0,1,3.442,8.276v13.74A15.155,15.155,0,0,0,764.385-.5V0Zm-7-5.889a7.292,7.292,0,0,0,3.457-.835,5.484,5.484,0,0,0,2.344-2.241v-5.449h-3.164q-6.357,0-6.768,4.395l-.029.5a3.39,3.39,0,0,0,1.113,2.607A4.324,4.324,0,0,0,748.828-5.889ZM787.441-23.76a23,23,0,0,0-3.047-.234q-4.8,0-6.3,3.252V0h-8.467V-31.7h8l.234,3.779q2.549-4.365,7.061-4.365a8.872,8.872,0,0,1,2.637.381ZM13.389,32.508V40.3h5.42v6.211h-5.42v15.82a3.778,3.778,0,0,0,.674,2.52,3.384,3.384,0,0,0,2.578.762,13.5,13.5,0,0,0,2.49-.205v6.416A17.43,17.43,0,0,1,14,72.586q-8.906,0-9.082-8.994V46.512H.293V40.3H4.922V32.508Zm7.939,23.35a18.8,18.8,0,0,1,1.816-8.408,13.3,13.3,0,0,1,5.229-5.713A15.257,15.257,0,0,1,36.3,39.715a14.435,14.435,0,0,1,10.474,3.926Q50.83,47.566,51.3,54.3l.059,2.168q0,7.295-4.072,11.7T36.357,72.586q-6.855,0-10.942-4.395T21.328,56.238Zm8.467.6q0,4.519,1.7,6.91a5.605,5.605,0,0,0,4.863,2.391,5.618,5.618,0,0,0,4.8-2.362q1.729-2.362,1.729-7.555a11.73,11.73,0,0,0-1.729-6.866A5.619,5.619,0,0,0,36.3,46.541a5.527,5.527,0,0,0-4.8,2.421Q29.795,51.382,29.795,56.458ZM83.35,60.018,89.209,40.3h9.082L85.547,76.922l-.7,1.67Q82,84.8,75.469,84.8a13.322,13.322,0,0,1-3.75-.557V77.83l1.289.029a6.965,6.965,0,0,0,3.589-.732,4.812,4.812,0,0,0,1.86-2.432l1-2.607L68.35,40.3h9.111Zm16.963-4.16a18.8,18.8,0,0,1,1.816-8.408,13.3,13.3,0,0,1,5.229-5.713,15.257,15.257,0,0,1,7.925-2.021,14.435,14.435,0,0,1,10.474,3.926q4.058,3.926,4.526,10.664l.059,2.168q0,7.295-4.072,11.7t-10.928,4.409q-6.855,0-10.942-4.395t-4.087-11.953Zm8.467.6q0,4.519,1.7,6.91a6.1,6.1,0,0,0,9.668.029q1.729-2.362,1.729-7.555a11.73,11.73,0,0,0-1.729-6.866,5.619,5.619,0,0,0-4.863-2.435,5.527,5.527,0,0,0-4.8,2.421Q108.779,51.382,108.779,56.458Zm45.762,12.319a10.618,10.618,0,0,1-8.672,3.809q-5.1,0-7.778-2.93t-2.739-8.584V40.3h8.467V60.8q0,4.957,4.512,4.957,4.307,0,5.918-2.992V40.3h8.5V72h-7.969Zm21.5-9.844a17.625,17.625,0,0,1,1-6.54,13.416,13.416,0,0,1,3.647-4.795,18.649,18.649,0,0,0,3.53-3.843,6.033,6.033,0,0,0,.879-3.125q0-4.959-4.57-4.959a4.63,4.63,0,0,0-3.472,1.336,5.25,5.25,0,0,0-1.362,3.685h-8.5a11.3,11.3,0,0,1,3.618-8.768q3.56-3.167,9.712-3.167,6.211,0,9.639,3.006t3.428,8.49a10.335,10.335,0,0,1-1.113,4.706,19.39,19.39,0,0,1-3.9,4.912l-2.373,2.258a8.045,8.045,0,0,0-2.549,5.014l-.117,1.789Zm-.85,8.979a4.265,4.265,0,0,1,1.333-3.227,5.22,5.22,0,0,1,6.826,0,4.555,4.555,0,0,1,.029,6.41,5.347,5.347,0,0,1-6.885,0A4.23,4.23,0,0,1,175.2,67.913Z" transform="translate(49 15)" fill="#a72121"/></g><path d="M250.578,383.339l-5.626-22.347a3.392,3.392,0,0,0-6.1-1.069l-7.713,11.422a4.935,4.935,0,0,0,1.311,6.828c13.264,8.781,13,9.382,14.836,9.382C247.97,387.556,251.116,385.479,250.578,383.339Zm-12.783-9.731L240.23,370l1.6,6.351Z" transform="translate(925.03 1570.224)" fill="none"/><path d="M218.609,51.445a4.557,4.557,0,0,0-4.907,6.83l9.032,14.681a4.739,4.739,0,0,0,8.589-1.2h0l2.7-9.607a5.359,5.359,0,0,0-2.858-6.3A61.776,61.776,0,0,0,218.609,51.445Zm7.454,13.985L222.479,59.6q2.391.824,4.7,1.864Z" transform="translate(934.501 1738.564)" fill="none"/><g transform="translate(1626.127 2250.435)"><g transform="translate(0 21.844)"><rect width="232.907" height="39.033" transform="translate(12.754 82.517)" fill="#636b6a"/><rect width="232.907" height="18.061" transform="translate(12.754 82.517)" fill="#859593"/><path d="M55.28,267.826h41.2L77.252,252.1c-5.028-3.848-14.671-5-21.973-5v20.731Z" transform="translate(-29.772 -185.31)" fill="#859593"/><g transform="translate(0 0)"><path d="M25.508,291.8a4.327,4.327,0,0,1-4.327,4.327H4.327A4.327,4.327,0,0,1,0,291.8V169.017a12.754,12.754,0,1,1,25.508,0V291.8Z" transform="translate(0 -156.263)" fill="#636b6a"/><path d="M482.227,363.337a4.327,4.327,0,0,1-4.327,4.327H461.047a4.327,4.327,0,0,1-4.327-4.327v-61.5a12.754,12.754,0,1,1,25.508,0v61.5Z" transform="translate(-223.813 -227.798)" fill="#636b6a"/></g></g><g transform="translate(56.575)"><path d="M185.911,201.007l-77.961-.021L92.007,159.712c-3.949-10.223,4.732-.4-5.318,3.978l-7.571,3.3a10.19,10.19,0,0,0-5.277,13.409l1.35,5.408-7.759,11.711s-1.023,7.629,2.692,12.863,8.734,8.07,12.169,8.071l103.613.027h0a8.734,8.734,0,0,0,0-17.468Z" transform="translate(-49.341 -113.424)" fill="#5d69ab"/><path d="M52.728,51.076,22.6,77.707C19.2,76,17.953,73.24,15.9,70.581S7.594,51.067,7.594,51.067.051,27.3,0,18.321,8.246,3.078,12.819,1.606A19.285,19.285,0,0,1,38.5,12.337Z" transform="matrix(0.819, 0.574, -0.574, 0.819, 44.571, 15.101)" fill="#d45454"/><ellipse cx="16.621" cy="16.622" rx="16.621" ry="16.622" transform="matrix(-1, 0.017, -0.017, -1, 96.677, 33.238)" fill="#faad93"/></g><g transform="translate(139.014 64.411) rotate(-157)" fill="#faad93"><path d="M 7.540129661560059 38.91811370849609 C 7.107129573822021 38.91811370849609 6.668929576873779 38.8864860534668 6.237709999084473 38.8240852355957 C 3.850359916687012 38.47854614257813 1.740559816360474 37.22399520874023 0.2969098091125488 35.29152297973633 C -1.146690249443054 33.35912322998047 -1.751420140266418 30.98015403747559 -1.405880212783813 28.59284400939941 L -1.405430197715759 28.58975410461426 L -1.404970169067383 28.5866756439209 L 2.73484468460083 0.8005905747413635 C 3.044899463653564 -1.333935379981995 4.516205310821533 -1.499995231628418 4.959869861602783 -1.499995231628418 C 6.160849571228027 -1.499995231628418 7.394609928131104 -0.5602052211761475 9.218329429626465 1.743814826011658 C 10.3759593963623 3.206324815750122 11.7681999206543 5.231124877929688 13.356369972229 7.761964797973633 C 16.03529930114746 12.0309944152832 18.39926910400391 16.35700416564941 18.4228401184082 16.40020561218262 L 18.66546058654785 16.84495544433594 L 18.58872985839844 17.34573554992676 L 16.46777153015137 31.18789863586426 C 16.15339279174805 33.34653091430664 15.06973075866699 35.31669616699219 13.41580009460449 36.73644638061523 C 11.77688026428223 38.14331436157227 9.690189361572266 38.91811370849609 7.540129661560059 38.91811370849609 Z" stroke="none"/><path d="M 7.5401291847229 37.41811752319336 C 11.22078418731689 37.41811752319336 14.44115734100342 34.71603012084961 14.98431968688965 30.96561431884766 L 17.10602951049805 17.11854553222656 C 17.10602951049805 17.11854553222656 7.767521381378174 1.055908228408953e-06 4.959867477416992 1.055908228408953e-06 C 4.581442832946777 1.055908228408953e-06 4.321359157562256 0.3113672435283661 4.219089984893799 1.01743483543396 L 0.07864980399608612 28.80771446228027 C -0.5171301960945129 32.92390441894531 2.336359739303589 36.7437858581543 6.452509880065918 37.33954620361328 C 6.818211555480957 37.39245986938477 7.181137084960938 37.41811752319336 7.5401291847229 37.41811752319336 M 7.540129661560059 40.41811370849609 C 7.035519599914551 40.41811370849609 6.525069713592529 40.38127517700195 6.022939682006836 40.30863571166992 C 3.238929748535156 39.90568542480469 0.7786698341369629 38.44273376464844 -0.9047902226448059 36.18925476074219 C -2.588170289993286 33.93588638305664 -3.29334020614624 31.16178512573242 -2.890410184860229 28.37797546386719 L -2.889520168304443 28.37179565429688 L -2.88860011100769 28.36562538146973 L 1.251120090484619 0.5801753401756287 C 1.636988639831543 -2.062145948410034 3.489567041397095 -2.999995231628418 4.959869861602783 -2.999995231628418 C 6.069629669189453 -2.999995231628418 7.157739639282227 -2.509955167770386 8.286359786987305 -1.501855134963989 C 8.920060157775879 -0.9358351826667786 9.60962963104248 -0.178685188293457 10.39447021484375 0.8128548264503479 C 11.58584976196289 2.317994832992554 13.00984954833984 4.387764930725098 14.62691974639893 6.964664936065674 C 17.3300895690918 11.27231502532959 19.64253044128418 15.50382518768311 19.73963928222656 15.68185520172119 L 20.22488021850586 16.57135391235352 L 20.07142066955566 17.57291412353516 L 17.95134544372559 31.40931129455566 C 17.58370590209961 33.92434310913086 16.32029342651367 36.22005081176758 14.39281940460205 37.87461471557617 C 12.48207950592041 39.51481628417969 10.0484094619751 40.41811370849609 7.540129661560059 40.41811370849609 Z" stroke="none" fill="#fff9f9"/></g><g transform="translate(94.749 59.073)"><g transform="translate(0 0)"><path d="M322.916,191.294c-28.765-8.306-86.011-14.812-103.423-14.319L209.147,196.9l-5.228,27.269s-.295,7.913-.125,12.229a3.8,3.8,0,0,0,3.8,3.655l131.044.364a3.8,3.8,0,0,0,3.755-3.194l2.428-14.931C347.192,207.709,337.109,195.393,322.916,191.294Z" transform="translate(-203.742 -176.949)" fill="#578288"/></g></g><path d="M105.684,178.331c-.013-.046-12.171-18.019-12.171-18.019a6.863,6.863,0,1,0-11.359,7.706l12.339,18.189Z" transform="translate(14.872 -128.313)" fill="#d45454" stroke="#d45454" stroke-width="1"/><path d="M17.932,1.937,41.968,23.57A7.53,7.53,0,1,1,31.892,34.764L18.329,22.556l-3.345,23.1A7.531,7.531,0,1,1,.079,43.5L5.442,6.455A7.536,7.536,0,0,1,17.932,1.937Z" transform="matrix(-0.921, -0.391, 0.391, -0.921, 133.273, 77.938)" fill="#faad93"/><path d="M0,11.335l10.613,9.552A7.53,7.53,0,0,0,20.688,9.693L9.919,0Z" transform="matrix(-0.921, -0.391, 0.391, -0.921, 119.107, 56.849)" fill="#d45454"/><g transform="translate(155.553 -21.38) rotate(7)"><rect width="3.537" height="18.573" transform="translate(9.354 21.926) rotate(-43)" fill="#e94b4c"/><rect width="3.537" height="18.573" transform="translate(14.337 12.555) rotate(-43)" fill="#e94b4c"/><rect width="3.537" height="18.573" transform="translate(18.904 5.305) rotate(-43)" fill="#e94b4c"/><path d="M0,10.151l3.238,1.4L3.564,0H.026Z" transform="translate(0 20.093) rotate(-77)" fill="#e94b4c"/><path d="M0,10.151l3.238,1.4L3.564,0H.026Z" transform="translate(4.983 10.722) rotate(-77)" fill="#e94b4c"/><path d="M0,10.151l3.238,1.4L3.564,0H.026Z" transform="translate(9.55 3.472) rotate(-77)" fill="#e94b4c"/></g></g><g transform="translate(1253.079 1866.315)"><path d="M39.208,32.349,28.449,22.49,35.2,5.037l-1.309-.955A21.342,21.342,0,0,0,6.241,36.431l28.79,28.79L30.357,42Z" transform="translate(0 0)" fill="#ff415b"/><path d="M32.336,6.247A21.382,21.382,0,0,0,8.063,2.068l-.758.361L0,21.322,11.748,32.087,1.494,43.265,5.515,63.249,32.336,36.428a21.365,21.365,0,0,0,0-30.181Z" transform="translate(33.424 0.003)" fill="#ff415b"/></g><g transform="translate(1158.129 1917.541)"><g transform="translate(0 90.493)"><path d="M177.362,162.769l-12.378-4.361-12.479,4.361v19.942h24.958V162.759c-.035,0-.065.01-.1.01Z" transform="translate(-152.505 -158.408)" fill="#ffb69e"/></g><g transform="translate(0 34.127)"><path d="M270.019,69.864a17.065,17.065,0,0,0-16.148-11.817c-80.391-.616-43.314-.2-71.375-.332-16.455,0-29.909,13.181-29.991,29.382,0,.021,0,.042,0,.063v31.245l24.958.01V95.588l5.683,1.726v41.633h66.1V96.462c13.1-6.642,13.167-6.468,14.64-7.552A17.065,17.065,0,0,0,270.019,69.864Z" transform="translate(-152.505 -57.697)" fill="#d45454"/></g><ellipse cx="25.862" cy="25.862" rx="25.862" ry="25.862" transform="translate(40.927 0)" fill="#ffa68a"/><g transform="translate(13.693 46.864)"><path d="M245.041,86.075,231.76,92.747,193.079,81a12.479,12.479,0,0,0-7.255,23.88l43.453,13.2a12.477,12.477,0,0,0,9.229-.789l16.032-8.054Z" transform="translate(-176.97 -80.455)" fill="#ffa68a"/></g></g></g></svg>