<svg xmlns="http://www.w3.org/2000/svg" xmlns:xlink="http://www.w3.org/1999/xlink" width="1000" height="1813" viewBox="0 0 1000 1813"><defs><linearGradient id="a" y1="0.535" x2="1" y2="0.5" gradientUnits="objectBoundingBox"><stop offset="0" stop-color="#ffdbdb"/><stop offset="0.314" stop-color="#fedede" stop-opacity="0.18"/><stop offset="1" stop-color="#fce3e3" stop-opacity="0.11"/></linearGradient><clipPath id="e"><rect width="113" height="113" transform="translate(-0.117 0.365)" fill="#097a8f"/></clipPath><clipPath id="f"><rect width="215" height="146" transform="translate(0 -0.308)" fill="#fff" stroke="#707070" stroke-width="1"/></clipPath></defs><g transform="translate(-104 -1099)"><g transform="translate(104 1212)"><g transform="translate(2 -113)" fill="#fff9f9" stroke="#fff2f2" stroke-width="1"><rect width="998" height="1813" rx="1" stroke="none"/><rect x="0.5" y="0.5" width="997" height="1812" rx="0.5" fill="none"/></g><rect width="587" height="324" transform="translate(0 176)" fill="url(#a)"/><rect width="587" height="324" transform="translate(0 975)" opacity="0.6" fill="url(#a)"/><rect width="590" height="324" transform="translate(999 900) rotate(180)" fill="url(#a)"/><rect width="590" height="325" transform="translate(999 1699) rotate(180)" fill="url(#a)"/><path d="M26.455-7.383l4.594-22.477H36.2L29.306,0H24.343L18.662-21.8,12.858,0H7.875L.984-29.859H6.132L10.767-7.424l5.7-22.436h4.348ZM45.26-19.77a7.8,7.8,0,0,1,6.173-2.83q7.1,0,7.2,8.1V0H53.648V-14.314a4.382,4.382,0,0,0-.995-3.25,4.066,4.066,0,0,0-2.922-.954,4.8,4.8,0,0,0-4.471,2.666V0H40.277V-31.5H45.26ZM72.268-7.137,76.78-22.189h5.312L73.273,3.363q-2.03,5.6-6.891,5.6a8.884,8.884,0,0,1-2.4-.371V4.717l.943.062a4.852,4.852,0,0,0,2.84-.687,4.551,4.551,0,0,0,1.507-2.305l.718-1.906L62.2-22.189h5.373Zm33.939,3.568a4.506,4.506,0,0,0,3.1-1.087,3.713,3.713,0,0,0,1.313-2.687h4.7a7.32,7.32,0,0,1-1.292,3.866,8.474,8.474,0,0,1-3.281,2.84A9.778,9.778,0,0,1,106.268.41,9.461,9.461,0,0,1,98.885-2.6q-2.728-3.015-2.728-8.326v-.513a11.758,11.758,0,0,1,2.707-8.111,9.375,9.375,0,0,1,7.383-3.045,9.117,9.117,0,0,1,6.45,2.307,8.264,8.264,0,0,1,2.615,6.06h-4.7a4.563,4.563,0,0,0-1.3-3.138,4.19,4.19,0,0,0-3.107-1.23,4.385,4.385,0,0,0-3.732,1.753,8.947,8.947,0,0,0-1.333,5.322v.8a9.1,9.1,0,0,0,1.3,5.383A4.382,4.382,0,0,0,106.207-3.568ZM133.174,0a7.691,7.691,0,0,1-.574-2.071A7.757,7.757,0,0,1,126.775.41,7.829,7.829,0,0,1,121.32-1.5a6.1,6.1,0,0,1-2.112-4.717,6.3,6.3,0,0,1,2.635-5.445q2.635-1.9,7.537-1.9h3.056v-1.456a3.887,3.887,0,0,0-.964-2.758,3.821,3.821,0,0,0-2.933-1.036,4.39,4.39,0,0,0-2.789.851,2.634,2.634,0,0,0-1.087,2.164h-4.983a5.531,5.531,0,0,1,1.21-3.415,8.061,8.061,0,0,1,3.292-2.492,11.562,11.562,0,0,1,4.645-.9,9.311,9.311,0,0,1,6.214,1.958,6.984,6.984,0,0,1,2.379,5.506V-5.127a11.342,11.342,0,0,0,.841,4.778V0ZM127.7-3.589a5.669,5.669,0,0,0,2.779-.718,4.8,4.8,0,0,0,1.958-1.928v-4.184h-2.687a7.346,7.346,0,0,0-4.163.964,3.122,3.122,0,0,0-1.395,2.728,2.912,2.912,0,0,0,.954,2.287A3.693,3.693,0,0,0,127.7-3.589Zm20.4-18.6.144,2.563a7.978,7.978,0,0,1,6.46-2.974q6.932,0,7.055,7.937V0h-4.983V-14.376a4.57,4.57,0,0,0-.913-3.127,3.839,3.839,0,0,0-2.984-1.015,4.8,4.8,0,0,0-4.491,2.728V0h-4.983V-22.189ZM166.251-21l-2.543-1.579a10.252,10.252,0,0,0,1.907-5.681V-31.5h4.368v2.83a9.416,9.416,0,0,1-1.077,4.255A10.139,10.139,0,0,1,166.251-21Zm15.154-6.583v5.394h3.917V-18.5h-3.917V-6.111a2.728,2.728,0,0,0,.5,1.835,2.33,2.33,0,0,0,1.794.564,7.677,7.677,0,0,0,1.743-.205V-.062a12.273,12.273,0,0,1-3.281.472q-5.742,0-5.742-6.337V-18.5h-3.65v-3.691h3.65v-5.394ZM207.223,0h-5.168V-29.859h5.168Zm17.1-11.259a13.192,13.192,0,0,1,2.379-8.234,7.622,7.622,0,0,1,6.378-3.107,7.242,7.242,0,0,1,5.7,2.461V-31.5h4.983V0h-4.512l-.246-2.3A7.346,7.346,0,0,1,233.041.41a7.58,7.58,0,0,1-6.306-3.138Q224.325-5.865,224.325-11.259Zm4.983.431a9.236,9.236,0,0,0,1.3,5.281,4.225,4.225,0,0,0,3.7,1.9,4.706,4.706,0,0,0,4.471-2.728v-9.475a4.635,4.635,0,0,0-4.43-2.666,4.257,4.257,0,0,0-3.732,1.917A10.286,10.286,0,0,0,229.308-10.828Zm19.564-.472a13.084,13.084,0,0,1,1.292-5.875,9.436,9.436,0,0,1,3.63-4.02,10.228,10.228,0,0,1,5.373-1.4,9.692,9.692,0,0,1,7.291,2.892,11.373,11.373,0,0,1,3.025,7.67l.021,1.169A13.2,13.2,0,0,1,268.242-5a9.323,9.323,0,0,1-3.609,4A10.3,10.3,0,0,1,259.208.41a9.626,9.626,0,0,1-7.516-3.127,11.978,11.978,0,0,1-2.82-8.336Zm4.983.431a8.941,8.941,0,0,0,1.415,5.363,4.6,4.6,0,0,0,3.938,1.938,4.55,4.55,0,0,0,3.927-1.969,9.876,9.876,0,0,0,1.4-5.763,8.826,8.826,0,0,0-1.446-5.332,4.617,4.617,0,0,0-3.927-1.969,4.574,4.574,0,0,0-3.876,1.938A9.689,9.689,0,0,0,253.856-10.869ZM15.812,54a7.691,7.691,0,0,1-.574-2.071A7.757,7.757,0,0,1,9.413,54.41,7.829,7.829,0,0,1,3.958,52.5a6.1,6.1,0,0,1-2.112-4.717,6.3,6.3,0,0,1,2.635-5.445q2.635-1.9,7.537-1.9h3.056V38.988a3.887,3.887,0,0,0-.964-2.758,3.821,3.821,0,0,0-2.933-1.036,4.39,4.39,0,0,0-2.789.851A2.634,2.634,0,0,0,7.3,38.209H2.317a5.531,5.531,0,0,1,1.21-3.415A8.061,8.061,0,0,1,6.819,32.3a11.562,11.562,0,0,1,4.645-.9,9.311,9.311,0,0,1,6.214,1.958,6.984,6.984,0,0,1,2.379,5.506V48.873a11.342,11.342,0,0,0,.841,4.778V54Zm-5.476-3.589a5.669,5.669,0,0,0,2.779-.718,4.8,4.8,0,0,0,1.958-1.928V43.582H12.387a7.346,7.346,0,0,0-4.163.964,3.122,3.122,0,0,0-1.395,2.728,2.912,2.912,0,0,0,.954,2.287A3.693,3.693,0,0,0,10.336,50.411Zm20.4-18.6.144,2.563a7.978,7.978,0,0,1,6.46-2.974q6.932,0,7.055,7.937V54H39.415V39.624A4.569,4.569,0,0,0,38.5,36.5a3.839,3.839,0,0,0-2.984-1.015,4.8,4.8,0,0,0-4.491,2.728V54H26.044V31.811ZM58.076,46.863l4.512-15.053H67.9L59.081,57.363q-2.03,5.6-6.891,5.6a8.884,8.884,0,0,1-2.4-.371V58.717l.943.062a4.852,4.852,0,0,0,2.84-.687,4.551,4.551,0,0,0,1.507-2.305l.718-1.906-7.793-22.07H53.38ZM77.845,26.417v5.394h3.917V35.5H77.845V47.889a2.728,2.728,0,0,0,.5,1.835,2.33,2.33,0,0,0,1.794.564,7.677,7.677,0,0,0,1.743-.205v3.855a12.273,12.273,0,0,1-3.281.472q-5.742,0-5.742-6.337V35.5h-3.65V31.811h3.65V26.417ZM91.318,34.23a7.8,7.8,0,0,1,6.173-2.83q7.1,0,7.2,8.1V54H99.706V39.686a4.382,4.382,0,0,0-.995-3.25,4.066,4.066,0,0,0-2.922-.954,4.8,4.8,0,0,0-4.471,2.666V54H86.335V22.5h4.983ZM115.865,54h-4.983V31.811h4.983Zm-5.291-27.952a2.645,2.645,0,0,1,.728-1.907,2.75,2.75,0,0,1,2.082-.759,2.785,2.785,0,0,1,2.092.759,2.625,2.625,0,0,1,.738,1.907,2.564,2.564,0,0,1-.738,1.876,2.806,2.806,0,0,1-2.092.749,2.771,2.771,0,0,1-2.082-.749A2.583,2.583,0,0,1,110.574,26.048Zm16.18,5.763.144,2.563a7.978,7.978,0,0,1,6.46-2.974q6.932,0,7.055,7.937V54h-4.983V39.624a4.569,4.569,0,0,0-.913-3.127,3.839,3.839,0,0,0-2.984-1.015,4.8,4.8,0,0,0-4.491,2.728V54h-4.983V31.811Zm18.7,10.931a12.978,12.978,0,0,1,2.43-8.254,7.8,7.8,0,0,1,6.45-3.086,7.307,7.307,0,0,1,5.968,2.646l.226-2.235h4.491V53.323a8.942,8.942,0,0,1-2.717,6.891,10.35,10.35,0,0,1-7.332,2.522,11.817,11.817,0,0,1-4.768-1.015,8.472,8.472,0,0,1-3.538-2.656l2.358-2.994a7.123,7.123,0,0,0,5.66,2.728,5.5,5.5,0,0,0,3.917-1.343,5.148,5.148,0,0,0,1.436-3.948v-1.5a7.337,7.337,0,0,1-5.742,2.4,7.781,7.781,0,0,1-6.368-3.1Q145.456,48.217,145.456,42.741Zm4.963.431a8.933,8.933,0,0,0,1.364,5.26,4.385,4.385,0,0,0,3.784,1.917,4.8,4.8,0,0,0,4.471-2.584V38a4.727,4.727,0,0,0-4.43-2.522,4.4,4.4,0,0,0-3.825,1.948A10,10,0,0,0,150.419,43.172Zm43.475-6.809a12.332,12.332,0,0,0-2.03-.164q-3.425,0-4.614,2.625V54h-4.983V31.811h4.758l.123,2.481a5.615,5.615,0,0,1,5-2.892,4.665,4.665,0,0,1,1.764.287ZM203.183,54H198.2V31.811h4.983Zm-5.291-27.952a2.645,2.645,0,0,1,.728-1.907,2.75,2.75,0,0,1,2.082-.759,2.785,2.785,0,0,1,2.092.759,2.625,2.625,0,0,1,.738,1.907,2.564,2.564,0,0,1-.738,1.876,2.806,2.806,0,0,1-2.092.749,2.771,2.771,0,0,1-2.082-.749A2.583,2.583,0,0,1,197.892,26.048Zm10.684,16.693a12.978,12.978,0,0,1,2.43-8.254,7.8,7.8,0,0,1,6.45-3.086,7.307,7.307,0,0,1,5.968,2.646l.226-2.235h4.491V53.323a8.942,8.942,0,0,1-2.717,6.891,10.35,10.35,0,0,1-7.332,2.522,11.817,11.817,0,0,1-4.768-1.015,8.472,8.472,0,0,1-3.538-2.656l2.358-2.994A7.123,7.123,0,0,0,217.8,58.8a5.5,5.5,0,0,0,3.917-1.343,5.148,5.148,0,0,0,1.436-3.948v-1.5a7.337,7.337,0,0,1-5.742,2.4,7.781,7.781,0,0,1-6.368-3.1Q208.576,48.217,208.576,42.741Zm4.963.431a8.933,8.933,0,0,0,1.364,5.26,4.385,4.385,0,0,0,3.784,1.917,4.8,4.8,0,0,0,4.471-2.584V38a4.727,4.727,0,0,0-4.43-2.522A4.4,4.4,0,0,0,214.9,37.43,10,10,0,0,0,213.539,43.172Zm25.47-8.941a7.8,7.8,0,0,1,6.173-2.83q7.1,0,7.2,8.1V54H247.4V39.686a4.382,4.382,0,0,0-.995-3.25,4.066,4.066,0,0,0-2.922-.954,4.8,4.8,0,0,0-4.471,2.666V54h-4.983V22.5h4.983Zm25.49-7.813v5.394h3.917V35.5H264.5V47.889a2.728,2.728,0,0,0,.5,1.835,2.33,2.33,0,0,0,1.794.564,7.677,7.677,0,0,0,1.743-.205v3.855a12.274,12.274,0,0,1-3.281.472q-5.742,0-5.742-6.337V35.5h-3.65V31.811h3.65V26.417Zm13.186,18.826a11.52,11.52,0,0,1,.677-4.352,11.407,11.407,0,0,1,2.676-3.562,20.429,20.429,0,0,0,2.533-2.761,4.829,4.829,0,0,0,.82-2.7,4.132,4.132,0,0,0-.954-2.938,3.661,3.661,0,0,0-2.8-1.014,4.029,4.029,0,0,0-2.84.991,3.473,3.473,0,0,0-1.077,2.687h-4.983a7.343,7.343,0,0,1,2.471-5.748,9.447,9.447,0,0,1,6.429-2.114,9.221,9.221,0,0,1,6.429,2.094,7.5,7.5,0,0,1,2.307,5.85q0,3.346-3.117,6.589l-2.522,2.484a6.765,6.765,0,0,0-1.395,4.5Zm-.349,6.368a2.614,2.614,0,0,1,.759-1.951,3.188,3.188,0,0,1,4.122.021,2.631,2.631,0,0,1,.759,1.931,2.583,2.583,0,0,1-.738,1.879,2.791,2.791,0,0,1-2.092.756,2.756,2.756,0,0,1-2.082-.756A2.6,2.6,0,0,1,277.336,51.611Z" transform="translate(101 332)" opacity="0.7"/><path d="M26.455-7.383l4.594-22.477H36.2L29.306,0H24.343L18.662-21.8,12.858,0H7.875L.984-29.859H6.132L10.767-7.424l5.7-22.436h4.348ZM45.26-19.77a7.8,7.8,0,0,1,6.173-2.83q7.1,0,7.2,8.1V0H53.648V-14.314a4.382,4.382,0,0,0-.995-3.25,4.066,4.066,0,0,0-2.922-.954,4.8,4.8,0,0,0-4.471,2.666V0H40.277V-31.5H45.26ZM77.764,0a7.691,7.691,0,0,1-.574-2.071A7.757,7.757,0,0,1,71.366.41,7.829,7.829,0,0,1,65.91-1.5,6.1,6.1,0,0,1,63.8-6.214a6.3,6.3,0,0,1,2.635-5.445q2.635-1.9,7.537-1.9h3.056v-1.456a3.887,3.887,0,0,0-.964-2.758,3.821,3.821,0,0,0-2.933-1.036,4.39,4.39,0,0,0-2.789.851,2.634,2.634,0,0,0-1.087,2.164H64.27a5.531,5.531,0,0,1,1.21-3.415A8.061,8.061,0,0,1,68.771-21.7a11.562,11.562,0,0,1,4.645-.9,9.311,9.311,0,0,1,6.214,1.958,6.984,6.984,0,0,1,2.379,5.506V-5.127A11.342,11.342,0,0,0,82.85-.349V0ZM72.288-3.589a5.669,5.669,0,0,0,2.779-.718,4.8,4.8,0,0,0,1.958-1.928v-4.184H74.339a7.346,7.346,0,0,0-4.163.964,3.122,3.122,0,0,0-1.395,2.728,2.912,2.912,0,0,0,.954,2.287A3.693,3.693,0,0,0,72.288-3.589ZM94.313-27.583v5.394H98.23V-18.5H94.313V-6.111a2.728,2.728,0,0,0,.5,1.835,2.33,2.33,0,0,0,1.794.564,7.677,7.677,0,0,0,1.743-.205V-.062A12.273,12.273,0,0,1,95.072.41Q89.33.41,89.33-5.927V-18.5h-3.65v-3.691h3.65v-5.394ZM104.4-21l-2.543-1.579a10.252,10.252,0,0,0,1.907-5.681V-31.5h4.368v2.83a9.416,9.416,0,0,1-1.077,4.255A10.139,10.139,0,0,1,104.4-21Zm16.59,14.971a2.259,2.259,0,0,0-1.1-2.03,11.669,11.669,0,0,0-3.64-1.23,18.713,18.713,0,0,1-4.245-1.354q-3.732-1.8-3.732-5.229a5.906,5.906,0,0,1,2.42-4.8,9.567,9.567,0,0,1,6.152-1.928,9.954,9.954,0,0,1,6.429,1.969,6.247,6.247,0,0,1,2.451,5.106h-4.983a3.071,3.071,0,0,0-1.066-2.389,4.087,4.087,0,0,0-2.83-.954,4.416,4.416,0,0,0-2.676.759,2.392,2.392,0,0,0-1.036,2.03,2.02,2.02,0,0,0,.964,1.784,13.254,13.254,0,0,0,3.9,1.282,18.445,18.445,0,0,1,4.6,1.538,6.52,6.52,0,0,1,2.481,2.143,5.465,5.465,0,0,1,.81,3.035,5.781,5.781,0,0,1-2.481,4.85,10.581,10.581,0,0,1-6.5,1.856,11.474,11.474,0,0,1-4.86-.984,8,8,0,0,1-3.322-2.707,6.408,6.408,0,0,1-1.189-3.712h4.84a3.511,3.511,0,0,0,1.333,2.717,5.18,5.18,0,0,0,3.261.954,5.039,5.039,0,0,0,2.994-.749A2.317,2.317,0,0,0,120.992-6.029Zm40.87-.841,3.527-15.319h4.86L164.2,0h-4.1l-4.758-15.237L150.665,0h-4.1l-6.07-22.189h4.86l3.589,15.155L153.5-22.189h3.753ZM186.04-17.637a12.332,12.332,0,0,0-2.03-.164q-3.425,0-4.614,2.625V0h-4.983V-22.189h4.758l.123,2.481a5.615,5.615,0,0,1,5-2.892,4.665,4.665,0,0,1,1.764.287Zm2.317,6.337a13.084,13.084,0,0,1,1.292-5.875,9.436,9.436,0,0,1,3.63-4.02,10.227,10.227,0,0,1,5.373-1.4,9.692,9.692,0,0,1,7.291,2.892,11.373,11.373,0,0,1,3.025,7.67l.021,1.169A13.2,13.2,0,0,1,207.726-5a9.323,9.323,0,0,1-3.609,4A10.3,10.3,0,0,1,198.693.41a9.626,9.626,0,0,1-7.516-3.127,11.978,11.978,0,0,1-2.82-8.336Zm4.983.431a8.941,8.941,0,0,0,1.415,5.363,4.6,4.6,0,0,0,3.938,1.938,4.55,4.55,0,0,0,3.927-1.969,9.875,9.875,0,0,0,1.4-5.763,8.826,8.826,0,0,0-1.446-5.332,4.617,4.617,0,0,0-3.927-1.969,4.574,4.574,0,0,0-3.876,1.938A9.689,9.689,0,0,0,193.34-10.869Zm25.326-11.32.144,2.563a7.978,7.978,0,0,1,6.46-2.974q6.932,0,7.055,7.937V0h-4.983V-14.376a4.57,4.57,0,0,0-.913-3.127,3.839,3.839,0,0,0-2.984-1.015,4.8,4.8,0,0,0-4.491,2.728V0H213.97V-22.189Zm18.7,10.931a12.978,12.978,0,0,1,2.43-8.254,7.8,7.8,0,0,1,6.45-3.086,7.307,7.307,0,0,1,5.968,2.646l.226-2.235h4.491V-.677a8.942,8.942,0,0,1-2.717,6.891,10.35,10.35,0,0,1-7.332,2.522,11.817,11.817,0,0,1-4.768-1.015,8.472,8.472,0,0,1-3.538-2.656l2.358-2.994A7.123,7.123,0,0,0,246.6,4.8a5.5,5.5,0,0,0,3.917-1.343A5.148,5.148,0,0,0,251.95-.492v-1.5a7.337,7.337,0,0,1-5.742,2.4,7.781,7.781,0,0,1-6.368-3.1Q237.369-5.783,237.369-11.259Zm4.963.431a8.933,8.933,0,0,0,1.364,5.26,4.385,4.385,0,0,0,3.784,1.917,4.8,4.8,0,0,0,4.471-2.584V-16a4.727,4.727,0,0,0-4.43-2.522A4.4,4.4,0,0,0,243.7-16.57,10,10,0,0,0,242.332-10.828ZM22.046,42.13l3.527-15.319h4.86L24.384,49h-4.1L15.524,33.763,10.849,49h-4.1L.677,26.811h4.86L9.126,41.966l4.553-15.155h3.753ZM39.907,49H34.924V26.811h4.983ZM34.616,21.048a2.645,2.645,0,0,1,.728-1.907,2.75,2.75,0,0,1,2.082-.759,2.785,2.785,0,0,1,2.092.759,2.625,2.625,0,0,1,.738,1.907,2.564,2.564,0,0,1-.738,1.876,2.806,2.806,0,0,1-2.092.749,2.771,2.771,0,0,1-2.082-.749A2.583,2.583,0,0,1,34.616,21.048Zm17.8.369v5.394h3.917V30.5H52.416V42.889a2.728,2.728,0,0,0,.5,1.835,2.33,2.33,0,0,0,1.794.564,7.677,7.677,0,0,0,1.743-.205v3.855a12.273,12.273,0,0,1-3.281.472q-5.742,0-5.742-6.337V30.5h-3.65V26.811h3.65V21.417ZM65.889,29.23a7.8,7.8,0,0,1,6.173-2.83q7.1,0,7.2,8.1V49H74.277V34.686a4.382,4.382,0,0,0-.995-3.25,4.066,4.066,0,0,0-2.922-.954,4.8,4.8,0,0,0-4.471,2.666V49H60.906V17.5h4.983Zm35.231-2.42.144,2.317a7.985,7.985,0,0,1,6.4-2.728q4.45,0,6.091,3.4a7.87,7.87,0,0,1,6.809-3.4q3.671,0,5.465,2.03t1.835,5.988V49h-4.983V34.563a4.413,4.413,0,0,0-.923-3.1,4.04,4.04,0,0,0-3.056-.984,4.149,4.149,0,0,0-2.779.913,4.813,4.813,0,0,0-1.507,2.389L114.635,49h-4.983V34.4q-.1-3.917-4-3.917a4.387,4.387,0,0,0-4.245,2.44V49H96.424V26.811Zm42.471,22.6a10.31,10.31,0,0,1-7.68-2.984,10.824,10.824,0,0,1-2.943-7.947v-.615a13.315,13.315,0,0,1,1.282-5.937,9.756,9.756,0,0,1,3.6-4.071,9.515,9.515,0,0,1,5.168-1.456,8.709,8.709,0,0,1,7,2.892q2.471,2.892,2.471,8.183v2.01h-14.5a6.664,6.664,0,0,0,1.835,4.348,5.511,5.511,0,0,0,4.05,1.6,6.748,6.748,0,0,0,5.578-2.769l2.687,2.563a8.971,8.971,0,0,1-3.558,3.086A11.139,11.139,0,0,1,143.591,49.41ZM143,30.4a4.2,4.2,0,0,0-3.312,1.436,7.441,7.441,0,0,0-1.61,4h9.5v-.369a6.057,6.057,0,0,0-1.333-3.784A4.165,4.165,0,0,0,143,30.4Zm18.825,9.844a11.52,11.52,0,0,1,.677-4.352,11.407,11.407,0,0,1,2.676-3.562,20.429,20.429,0,0,0,2.533-2.761,4.829,4.829,0,0,0,.82-2.7,4.132,4.132,0,0,0-.954-2.938,3.661,3.661,0,0,0-2.8-1.014,4.029,4.029,0,0,0-2.84.991,3.473,3.473,0,0,0-1.077,2.687h-4.983a7.343,7.343,0,0,1,2.471-5.748,9.447,9.447,0,0,1,6.429-2.114,9.221,9.221,0,0,1,6.429,2.094,7.5,7.5,0,0,1,2.307,5.85q0,3.346-3.117,6.589l-2.522,2.484a6.765,6.765,0,0,0-1.395,4.5Zm-.349,6.368a2.614,2.614,0,0,1,.759-1.951,3.188,3.188,0,0,1,4.122.021,2.631,2.631,0,0,1,.759,1.931,2.583,2.583,0,0,1-.738,1.879,2.791,2.791,0,0,1-2.092.756,2.756,2.756,0,0,1-2.082-.756A2.6,2.6,0,0,1,161.473,46.611Z" transform="translate(552 747)" opacity="0.7"/><path d="M8.511,0H3.343V-29.859H8.511ZM31.457-19.77A7.8,7.8,0,0,1,37.63-22.6q7.1,0,7.2,8.1V0H39.845V-14.314a4.382,4.382,0,0,0-.995-3.25,4.066,4.066,0,0,0-2.922-.954,4.8,4.8,0,0,0-4.471,2.666V0H26.474V-31.5h4.983ZM63.961,0a7.691,7.691,0,0,1-.574-2.071A7.757,7.757,0,0,1,57.563.41,7.829,7.829,0,0,1,52.108-1.5,6.1,6.1,0,0,1,50-6.214a6.3,6.3,0,0,1,2.635-5.445q2.635-1.9,7.537-1.9h3.056v-1.456a3.887,3.887,0,0,0-.964-2.758,3.821,3.821,0,0,0-2.933-1.036,4.39,4.39,0,0,0-2.789.851,2.634,2.634,0,0,0-1.087,2.164H50.467a5.531,5.531,0,0,1,1.21-3.415A8.061,8.061,0,0,1,54.969-21.7a11.562,11.562,0,0,1,4.645-.9,9.311,9.311,0,0,1,6.214,1.958,6.984,6.984,0,0,1,2.379,5.506V-5.127a11.342,11.342,0,0,0,.841,4.778V0ZM58.486-3.589a5.669,5.669,0,0,0,2.779-.718,4.8,4.8,0,0,0,1.958-1.928v-4.184H60.537a7.346,7.346,0,0,0-4.163.964,3.122,3.122,0,0,0-1.395,2.728,2.912,2.912,0,0,0,.954,2.287A3.693,3.693,0,0,0,58.486-3.589ZM80.51-27.583v5.394h3.917V-18.5H80.51V-6.111a2.728,2.728,0,0,0,.5,1.835,2.33,2.33,0,0,0,1.794.564,7.677,7.677,0,0,0,1.743-.205V-.062A12.273,12.273,0,0,1,81.269.41q-5.742,0-5.742-6.337V-18.5h-3.65v-3.691h3.65v-5.394ZM98.844.41a10.31,10.31,0,0,1-7.68-2.984,10.824,10.824,0,0,1-2.943-7.947v-.615A13.315,13.315,0,0,1,89.5-17.073a9.756,9.756,0,0,1,3.6-4.071A9.515,9.515,0,0,1,98.269-22.6a8.709,8.709,0,0,1,7,2.892q2.471,2.892,2.471,8.183v2.01h-14.5A6.664,6.664,0,0,0,95.08-5.168a5.511,5.511,0,0,0,4.05,1.6,6.748,6.748,0,0,0,5.578-2.769L107.4-3.773a8.971,8.971,0,0,1-3.558,3.086A11.139,11.139,0,0,1,98.844.41ZM98.249-18.6a4.2,4.2,0,0,0-3.312,1.436,7.441,7.441,0,0,0-1.61,4h9.5v-.369a6.057,6.057,0,0,0-1.333-3.784A4.165,4.165,0,0,0,98.249-18.6Zm30.186-3.589.144,2.317a7.985,7.985,0,0,1,6.4-2.728q4.45,0,6.091,3.4a7.87,7.87,0,0,1,6.809-3.4q3.671,0,5.465,2.03t1.835,5.988V0h-4.983V-14.437a4.413,4.413,0,0,0-.923-3.1,4.04,4.04,0,0,0-3.056-.984,4.149,4.149,0,0,0-2.779.913,4.813,4.813,0,0,0-1.507,2.389L141.949,0h-4.983V-14.6q-.1-3.917-4-3.917a4.387,4.387,0,0,0-4.245,2.44V0h-4.983V-22.189ZM168.9-7.137l4.512-15.053h5.312L169.9,3.363q-2.03,5.6-6.891,5.6a8.884,8.884,0,0,1-2.4-.371V4.717l.943.062a4.852,4.852,0,0,0,2.84-.687A4.551,4.551,0,0,0,165.9,1.786l.718-1.906-7.793-22.07H164.2Zm25.962,1.107a2.259,2.259,0,0,0-1.1-2.03,11.669,11.669,0,0,0-3.64-1.23,18.713,18.713,0,0,1-4.245-1.354q-3.732-1.8-3.732-5.229a5.906,5.906,0,0,1,2.42-4.8,9.567,9.567,0,0,1,6.152-1.928,9.954,9.954,0,0,1,6.429,1.969,6.247,6.247,0,0,1,2.451,5.106h-4.983a3.071,3.071,0,0,0-1.066-2.389,4.087,4.087,0,0,0-2.83-.954,4.416,4.416,0,0,0-2.676.759A2.392,2.392,0,0,0,187-16.078a2.02,2.02,0,0,0,.964,1.784,13.254,13.254,0,0,0,3.9,1.282,18.445,18.445,0,0,1,4.6,1.538,6.52,6.52,0,0,1,2.481,2.143,5.465,5.465,0,0,1,.81,3.035,5.781,5.781,0,0,1-2.481,4.85,10.581,10.581,0,0,1-6.5,1.856,11.474,11.474,0,0,1-4.86-.984,8,8,0,0,1-3.322-2.707A6.408,6.408,0,0,1,181.4-6.993h4.84a3.511,3.511,0,0,0,1.333,2.717,5.18,5.18,0,0,0,3.261.954,5.039,5.039,0,0,0,2.994-.749A2.317,2.317,0,0,0,194.858-6.029ZM214.709.41a10.31,10.31,0,0,1-7.68-2.984,10.824,10.824,0,0,1-2.943-7.947v-.615a13.315,13.315,0,0,1,1.282-5.937,9.756,9.756,0,0,1,3.6-4.071,9.515,9.515,0,0,1,5.168-1.456,8.709,8.709,0,0,1,7,2.892q2.471,2.892,2.471,8.183v2.01h-14.5a6.664,6.664,0,0,0,1.835,4.348,5.511,5.511,0,0,0,4.05,1.6,6.748,6.748,0,0,0,5.578-2.769l2.687,2.563A8.971,8.971,0,0,1,219.7-.687,11.139,11.139,0,0,1,214.709.41ZM214.114-18.6a4.2,4.2,0,0,0-3.312,1.436,7.441,7.441,0,0,0-1.61,4h9.5v-.369a6.057,6.057,0,0,0-1.333-3.784A4.165,4.165,0,0,0,214.114-18.6ZM233.616,0h-4.983V-31.5h4.983Zm8.018,0V-18.5H238.25v-3.691h3.384v-2.03a7.621,7.621,0,0,1,2.051-5.7,7.856,7.856,0,0,1,5.742-2.01,11.518,11.518,0,0,1,2.789.369l-.123,3.9a9.816,9.816,0,0,0-1.907-.164q-3.568,0-3.568,3.671v1.969h4.512V-18.5h-4.512V0Zm17.082-5.25a2.847,2.847,0,0,1,2.153.79,2.742,2.742,0,0,1,.759,1.979,2.646,2.646,0,0,1-.759,1.938,2.89,2.89,0,0,1-2.153.769A2.9,2.9,0,0,1,256.6-.533a2.6,2.6,0,0,1-.779-1.948,2.742,2.742,0,0,1,.759-1.979A2.819,2.819,0,0,1,258.716-5.25Z" transform="translate(552 1545)" opacity="0.7"/><path d="M8.511,0H3.343V-29.859H8.511ZM28.3,0V-18.5H24.915v-3.691H28.3v-2.03a7.621,7.621,0,0,1,2.051-5.7,7.856,7.856,0,0,1,5.742-2.01,11.518,11.518,0,0,1,2.789.369l-.123,3.9a9.816,9.816,0,0,0-1.907-.164q-3.568,0-3.568,3.671v1.969h4.512V-18.5H33.283V0ZM52.046.41a10.31,10.31,0,0,1-7.68-2.984,10.824,10.824,0,0,1-2.943-7.947v-.615a13.315,13.315,0,0,1,1.282-5.937,9.756,9.756,0,0,1,3.6-4.071A9.515,9.515,0,0,1,51.472-22.6a8.709,8.709,0,0,1,7,2.892q2.471,2.892,2.471,8.183v2.01h-14.5a6.664,6.664,0,0,0,1.835,4.348,5.511,5.511,0,0,0,4.05,1.6,6.748,6.748,0,0,0,5.578-2.769L60.6-3.773A8.972,8.972,0,0,1,57.04-.687,11.139,11.139,0,0,1,52.046.41ZM51.452-18.6a4.2,4.2,0,0,0-3.312,1.436,7.441,7.441,0,0,0-1.61,4h9.5v-.369a6.057,6.057,0,0,0-1.333-3.784A4.165,4.165,0,0,0,51.452-18.6ZM75.424.41a10.31,10.31,0,0,1-7.68-2.984A10.824,10.824,0,0,1,64.8-10.521v-.615a13.315,13.315,0,0,1,1.282-5.937,9.756,9.756,0,0,1,3.6-4.071A9.515,9.515,0,0,1,74.85-22.6a8.709,8.709,0,0,1,7,2.892q2.471,2.892,2.471,8.183v2.01h-14.5a6.664,6.664,0,0,0,1.835,4.348,5.511,5.511,0,0,0,4.05,1.6A6.748,6.748,0,0,0,81.29-6.337l2.687,2.563A8.971,8.971,0,0,1,80.418-.687,11.139,11.139,0,0,1,75.424.41ZM74.83-18.6a4.2,4.2,0,0,0-3.312,1.436,7.441,7.441,0,0,0-1.61,4h9.5v-.369a6.057,6.057,0,0,0-1.333-3.784A4.165,4.165,0,0,0,74.83-18.6ZM94.332,0H89.348V-31.5h4.983Zm30-6.029a2.259,2.259,0,0,0-1.1-2.03,11.669,11.669,0,0,0-3.64-1.23,18.713,18.713,0,0,1-4.245-1.354q-3.732-1.8-3.732-5.229a5.906,5.906,0,0,1,2.42-4.8,9.567,9.567,0,0,1,6.152-1.928,9.954,9.954,0,0,1,6.429,1.969,6.247,6.247,0,0,1,2.451,5.106h-4.983a3.071,3.071,0,0,0-1.066-2.389,4.087,4.087,0,0,0-2.83-.954,4.416,4.416,0,0,0-2.676.759,2.392,2.392,0,0,0-1.036,2.03,2.02,2.02,0,0,0,.964,1.784,13.254,13.254,0,0,0,3.9,1.282,18.445,18.445,0,0,1,4.6,1.538,6.52,6.52,0,0,1,2.481,2.143,5.465,5.465,0,0,1,.81,3.035,5.781,5.781,0,0,1-2.481,4.85,10.581,10.581,0,0,1-6.5,1.856,11.474,11.474,0,0,1-4.86-.984,8,8,0,0,1-3.322-2.707,6.408,6.408,0,0,1-1.189-3.712h4.84a3.511,3.511,0,0,0,1.333,2.717,5.18,5.18,0,0,0,3.261.954,5.039,5.039,0,0,0,2.994-.749A2.317,2.317,0,0,0,124.333-6.029Zm9.146-5.271a13.084,13.084,0,0,1,1.292-5.875,9.436,9.436,0,0,1,3.63-4.02,10.227,10.227,0,0,1,5.373-1.4,9.692,9.692,0,0,1,7.291,2.892,11.373,11.373,0,0,1,3.025,7.67l.021,1.169A13.2,13.2,0,0,1,152.848-5a9.323,9.323,0,0,1-3.609,4A10.3,10.3,0,0,1,143.815.41,9.626,9.626,0,0,1,136.3-2.717a11.978,11.978,0,0,1-2.82-8.336Zm4.983.431a8.941,8.941,0,0,0,1.415,5.363,4.6,4.6,0,0,0,3.938,1.938,4.55,4.55,0,0,0,3.927-1.969,9.875,9.875,0,0,0,1.4-5.763,8.826,8.826,0,0,0-1.446-5.332,4.617,4.617,0,0,0-3.927-1.969,4.574,4.574,0,0,0-3.876,1.938A9.689,9.689,0,0,0,138.462-10.869Zm36.912-8.9a7.8,7.8,0,0,1,6.173-2.83q7.1,0,7.2,8.1V0h-4.983V-14.314a4.382,4.382,0,0,0-.995-3.25,4.066,4.066,0,0,0-2.922-.954,4.8,4.8,0,0,0-4.471,2.666V0h-4.983V-31.5h4.983ZM204.392.41a10.31,10.31,0,0,1-7.68-2.984,10.824,10.824,0,0,1-2.943-7.947v-.615a13.315,13.315,0,0,1,1.282-5.937,9.756,9.756,0,0,1,3.6-4.071,9.515,9.515,0,0,1,5.168-1.456,8.709,8.709,0,0,1,7,2.892q2.471,2.892,2.471,8.183v2.01h-14.5a6.664,6.664,0,0,0,1.835,4.348,5.511,5.511,0,0,0,4.05,1.6,6.748,6.748,0,0,0,5.578-2.769l2.687,2.563a8.971,8.971,0,0,1-3.558,3.086A11.139,11.139,0,0,1,204.392.41ZM203.8-18.6a4.2,4.2,0,0,0-3.312,1.436,7.441,7.441,0,0,0-1.61,4h9.5v-.369a6.057,6.057,0,0,0-1.333-3.784A4.165,4.165,0,0,0,203.8-18.6ZM223.3,0h-4.983V-31.5H223.3ZM249-10.869a13.212,13.212,0,0,1-2.338,8.213A7.487,7.487,0,0,1,240.382.41a7.537,7.537,0,0,1-5.845-2.4V8.531h-4.983V-22.189h4.594l.205,2.256A7.32,7.32,0,0,1,240.32-22.6a7.564,7.564,0,0,1,6.368,3.025Q249-16.55,249-11.177Zm-4.963-.431a9.255,9.255,0,0,0-1.323-5.271,4.3,4.3,0,0,0-3.784-1.948A4.586,4.586,0,0,0,234.537-16v9.844a4.628,4.628,0,0,0,4.43,2.584,4.3,4.3,0,0,0,3.722-1.917A10.188,10.188,0,0,0,244.032-11.3ZM259.351,0h-4.983V-31.5h4.983Zm16.036.41a10.31,10.31,0,0,1-7.68-2.984,10.824,10.824,0,0,1-2.943-7.947v-.615a13.315,13.315,0,0,1,1.282-5.937,9.756,9.756,0,0,1,3.6-4.071,9.515,9.515,0,0,1,5.168-1.456,8.709,8.709,0,0,1,7,2.892q2.471,2.892,2.471,8.183v2.01h-14.5a6.664,6.664,0,0,0,1.835,4.348,5.511,5.511,0,0,0,4.05,1.6,6.748,6.748,0,0,0,5.578-2.769l2.687,2.563a8.971,8.971,0,0,1-3.558,3.086A11.139,11.139,0,0,1,275.387.41ZM274.792-18.6a4.2,4.2,0,0,0-3.312,1.436,7.441,7.441,0,0,0-1.61,4h9.5v-.369a6.057,6.057,0,0,0-1.333-3.784A4.165,4.165,0,0,0,274.792-18.6ZM301.431-6.029a2.259,2.259,0,0,0-1.1-2.03,11.669,11.669,0,0,0-3.64-1.23,18.713,18.713,0,0,1-4.245-1.354q-3.732-1.8-3.732-5.229a5.906,5.906,0,0,1,2.42-4.8,9.567,9.567,0,0,1,6.152-1.928,9.954,9.954,0,0,1,6.429,1.969,6.247,6.247,0,0,1,2.451,5.106h-4.983a3.071,3.071,0,0,0-1.066-2.389,4.087,4.087,0,0,0-2.83-.954,4.416,4.416,0,0,0-2.676.759,2.392,2.392,0,0,0-1.036,2.03,2.02,2.02,0,0,0,.964,1.784,13.254,13.254,0,0,0,3.9,1.282,18.445,18.445,0,0,1,4.6,1.538,6.52,6.52,0,0,1,2.481,2.143,5.465,5.465,0,0,1,.81,3.035,5.781,5.781,0,0,1-2.481,4.85A10.581,10.581,0,0,1,297.35.41a11.474,11.474,0,0,1-4.86-.984,8,8,0,0,1-3.322-2.707,6.408,6.408,0,0,1-1.189-3.712h4.84a3.511,3.511,0,0,0,1.333,2.717,5.18,5.18,0,0,0,3.261.954,5.039,5.039,0,0,0,2.994-.749A2.317,2.317,0,0,0,301.431-6.029Zm22.517,0a2.259,2.259,0,0,0-1.1-2.03,11.669,11.669,0,0,0-3.64-1.23,18.713,18.713,0,0,1-4.245-1.354q-3.732-1.8-3.732-5.229a5.906,5.906,0,0,1,2.42-4.8,9.567,9.567,0,0,1,6.152-1.928,9.954,9.954,0,0,1,6.429,1.969,6.247,6.247,0,0,1,2.451,5.106H323.7a3.071,3.071,0,0,0-1.066-2.389,4.087,4.087,0,0,0-2.83-.954,4.416,4.416,0,0,0-2.676.759,2.392,2.392,0,0,0-1.036,2.03,2.02,2.02,0,0,0,.964,1.784,13.254,13.254,0,0,0,3.9,1.282,18.445,18.445,0,0,1,4.6,1.538,6.52,6.52,0,0,1,2.481,2.143,5.465,5.465,0,0,1,.81,3.035,5.781,5.781,0,0,1-2.481,4.85,10.581,10.581,0,0,1-6.5,1.856,11.474,11.474,0,0,1-4.86-.984,8,8,0,0,1-3.322-2.707,6.408,6.408,0,0,1-1.189-3.712h4.84a3.511,3.511,0,0,0,1.333,2.717,5.18,5.18,0,0,0,3.261.954,5.039,5.039,0,0,0,2.994-.749A2.317,2.317,0,0,0,323.948-6.029Zm13.186.779a2.847,2.847,0,0,1,2.153.79,2.742,2.742,0,0,1,.759,1.979,2.646,2.646,0,0,1-.759,1.938,2.89,2.89,0,0,1-2.153.769,2.9,2.9,0,0,1-2.112-.759,2.6,2.6,0,0,1-.779-1.948A2.742,2.742,0,0,1,335-4.46,2.819,2.819,0,0,1,337.134-5.25Z" transform="translate(101 1153)" opacity="0.7"/><g transform="translate(649.1 967.698)"><path d="M175.605,266.027l30.475-70.536a13.67,13.67,0,0,1,9.132-7.814l43-11.1-9.442-55.239a15.252,15.252,0,0,1,12.466-17.6L259.915,124.6c17.776-3.039,18.7,16.114,20.342,34.094l33.457,22.995s.631-.652-.52,5.06-2.83,9.2-5.621,11.942a13.026,13.026,0,0,1-10.551,3.65l-20.5-2.258-48,12.392-27.822,64.4a13.67,13.67,0,1,1-25.1-10.844Z" transform="translate(-156.16 -6.231)" fill="#607d62"/><g transform="matrix(-0.966, 0.259, -0.259, -0.966, 192.376, 196.027)"><path d="M77.253,39.018,33.117,0C28.13,2.508,26.3,6.544,23.3,10.44S11.127,39.03,11.127,39.03.075,73.849,0,87.007,12.081,109.34,18.781,111.5A28.255,28.255,0,0,0,56.4,95.775Z" transform="matrix(0.819, -0.574, 0.574, 0.819, 0, 44.311)" fill="#498753"/><ellipse cx="24.353" cy="24.353" rx="24.353" ry="24.353" transform="matrix(-1, -0.017, 0.017, -1, 140.796, 159.696)" fill="#faad93"/><g transform="translate(111.185 168.014)"><rect width="3.479" height="18.269" transform="translate(21.66 0) rotate(43)" fill="#e94b4c"/><rect width="3.479" height="18.269" transform="translate(26.562 9.217) rotate(43)" fill="#e94b4c"/><rect width="3.479" height="18.269" transform="translate(31.054 16.349) rotate(43)" fill="#e94b4c"/><path d="M0,1.376,3.185,0l.32,11.361H.026Z" transform="translate(11.069 12.608) rotate(77)" fill="#e94b4c"/><path d="M0,1.376,3.185,0l.32,11.361H.026Z" transform="translate(15.971 21.825) rotate(77)" fill="#e94b4c"/><path d="M0,1.376,3.185,0l.32,11.361H.026Z" transform="translate(20.463 28.957) rotate(77)" fill="#e94b4c"/></g></g><g transform="matrix(0.788, -0.616, 0.616, 0.788, 25.047, 120.989)" fill="#faad93"><path d="M 7.267590999603271 56.32242584228516 C 7.267133235931396 56.32242584228516 7.266909122467041 56.32242584228516 7.266451358795166 56.32242584228516 C 6.510141372680664 56.32208633422852 5.838281154632568 55.98293304443359 5.374631404876709 55.36746597290039 C 5.030304431915283 54.91037750244141 4.80881404876709 54.31541442871094 4.697526931762695 53.54860687255859 L -1.368378758430481 12.83636474609375 L -1.368838787078857 12.83328437805176 L -1.369288802146912 12.8301944732666 C -1.848868846893311 9.516894340515137 -1.009588837623596 6.215184688568115 0.9939411878585815 3.533254623413086 C 2.997541189193726 0.8512445688247681 5.925661087036133 -0.8898954391479492 9.238911628723145 -1.369425415992737 C 9.837780952453613 -1.456075429916382 10.4461612701416 -1.50000536441803 11.04722118377686 -1.50000536441803 C 14.03073120117188 -1.50000536441803 16.9266414642334 -0.4245754182338715 19.20149040222168 1.528164625167847 C 21.49783897399902 3.499360322952271 23.00216865539551 6.235637187957764 23.43778228759766 9.233041763305664 L 26.54549026489258 29.514404296875 L 26.62223052978516 30.0151538848877 L 26.37963104248047 30.45989418029785 C 26.34521102905273 30.52300453186035 22.89191055297852 36.84291458129883 18.97813034057617 43.07998275756836 C 16.66469192504883 46.7667236328125 14.63965129852295 49.71244430541992 12.95925140380859 51.8353157043457 C 10.46985149383545 54.98020553588867 8.767376899719238 56.32242584228516 7.267590999603271 56.32242584228516 Z" stroke="none"/><path d="M 11.04722118377686 -3.814697265625e-06 C 10.52124786376953 -3.814697265625e-05 9.989564895629883 0.0375823974609375 9.453761100769043 0.1151084899902344 C 3.423049926757813 0.9879417419433594 -0.7576828002929688 6.584552764892578 0.1152381896972656 12.61530685424805 L 6.181772232055664 53.33174133300781 C 6.331615447998047 54.36622619628906 6.712682723999023 54.82242584228516 7.267126083374023 54.82242584228516 C 11.38072395324707 54.82242584228516 25.06280517578125 29.74159622192383 25.06280517578125 29.74159622192383 L 21.95410537719727 9.453830718994141 C 21.15827178955078 3.958969116210938 16.43989562988281 0.000347137451171875 11.04722118377686 -3.814697265625e-06 M 11.04651641845703 -3 L 11.04651641845703 -3.814697265625e-06 L 11.0466947555542 -3 C 14.38910579681396 -2.999794006347656 17.63191604614258 -1.795825958251953 20.1784839630127 0.3900985717773438 C 22.74835205078125 2.596031188964844 24.43233871459961 5.657115936279297 24.92123985290527 9.010829925537109 L 28.02819442749023 29.28720855712891 L 28.18166160583496 30.28877449035645 L 27.6964168548584 31.17828559875488 C 27.55496215820313 31.43758583068848 24.18677139282227 37.60102081298828 20.24867248535156 43.87661743164063 C 17.90633964538574 47.6092643737793 15.84953880310059 50.59990692138672 14.13540554046631 52.76547241210938 C 11.29231643676758 56.35733032226563 9.302438735961914 57.82242965698242 7.267127990722656 57.82242965698242 C 6.046083450317383 57.82242965698242 4.919561386108398 57.25657653808594 4.176427841186523 56.26994323730469 C 3.677501678466797 55.60755920410156 3.362628936767578 54.78964996337891 3.213888168334961 53.76955032348633 L -2.852005004882813 13.05740737915039 L -2.852928161621094 13.05124282836914 L -2.853816986083984 13.04506301879883 C -3.39079475402832 9.335262298583984 -2.451072692871094 5.638420104980469 -0.2077617645263672 2.635528564453125 C 2.035650253295898 -0.36749267578125 5.314239501953125 -2.317024230957031 9.024039268493652 -2.853958129882813 C 9.693882942199707 -2.95086669921875 10.37429428100586 -3 11.04651641845703 -3 Z" stroke="none" fill="#fff9f9"/></g><path d="M26.274,73.514,61.489,41.82a11.033,11.033,0,0,0-14.762-16.4L26.855,43.3l-4.9-33.85A11.033,11.033,0,1,0,.115,12.615L7.973,66.894A11.041,11.041,0,0,0,26.274,73.514Z" transform="matrix(0.788, -0.616, 0.616, 0.788, 25.046, 120.99)" fill="#faad93"/><path d="M0,18.973,15.885,3.193A10.545,10.545,0,0,1,31.8,4.118a13.362,13.362,0,0,1-.837,17.568L14.846,37.7Z" transform="matrix(0.788, -0.616, 0.616, 0.788, 62.122, 114.79)" fill="#498753"/><path d="M27.414,264.592H109.02l15.592-73.449a22.531,22.531,0,0,1,44.08,9.357L135.967,352.435a14.917,14.917,0,0,1-14.578,11.824H12.244A12.259,12.259,0,0,1,0,352V292.008a27.414,27.414,0,0,1,27.415-27.416Z" transform="translate(60.691 -97.433)" fill="#ccd6dc"/></g><g transform="translate(112.107 638.036)"><g transform="translate(-0.107 17.964)" fill="#ecfcff" stroke="#b8d6e3" stroke-width="12"><rect width="138" height="136" stroke="none"/><rect x="6" y="6" width="126" height="124" fill="none"/></g><g transform="translate(10.01 24.599)" clip-path="url(#e)"><g transform="translate(5.185 14.679)"><g transform="translate(0 0)"><g transform="translate(0 0)"><path d="M323.247,65.972H279.994l-20.492-2.4,11.032-13.253a9.358,9.358,0,0,0-14.386-11.974L234.066,64.877a9.365,9.365,0,0,0,6.106,15.282L273.4,84.044v41.018h49.568V84.688h.283C325.214,84.688,323.247,65.972,323.247,65.972Z" transform="translate(-231.894 -18.724)" fill="#ffb69e"/><path d="M232.768,65.972h43.253l20.492-2.4L285.482,50.322a9.358,9.358,0,0,1,14.386-11.974l22.082,26.528a9.365,9.365,0,0,1-6.106,15.282L282.62,84.044v41.018H233.052V84.688h-.283C230.8,84.688,232.768,65.972,232.768,65.972Z" transform="translate(-192.132 -18.724)" fill="#ffb69e"/><ellipse cx="19.395" cy="19.395" rx="19.395" ry="19.395" transform="translate(46.919)" fill="#ffb69e"/></g><path d="M17.316,62.818,17.6,21.112h-.283c-.25,0-.437-.3-.572-.831L0,18.274,4.287,0,24.77,2.4h9.415a8.865,8.865,0,0,0,8.466,8.7,8.861,8.861,0,0,0,8.514-8.7h9.4L81.061,0l4.287,18.273L68.6,20.281c-.135.529-.322.832-.572.832h-.283V61.148h-.582v1.671Z" transform="translate(23.32 44.852)" fill="#97749c"/></g></g></g><g transform="translate(103.019 43.035)"><g transform="translate(0 0)"><g transform="translate(0 0)"><path d="M368.126,81.2h-64.5l-30.56-3.574,16.451-19.764a13.956,13.956,0,0,0-21.453-17.856l-32.93,39.561a13.966,13.966,0,0,0,9.106,22.789l49.544,5.793v61.169H367.7V109.11h.422C371.059,109.11,368.126,81.2,368.126,81.2Z" transform="translate(-231.894 -14.846)" fill="#f9a68b"/><path d="M233.2,81.2h64.5l30.56-3.574L311.808,57.861a13.956,13.956,0,0,1,21.453-17.856l32.93,39.561a13.965,13.965,0,0,1-9.106,22.789l-49.544,5.793v61.169H233.62V109.109H233.2C230.265,109.109,233.2,81.2,233.2,81.2Z" transform="translate(-172.598 -14.846)" fill="#f9a68b"/><ellipse cx="28.924" cy="28.923" rx="28.924" ry="28.923" transform="translate(69.968)" fill="#f9a68b"/></g><path d="M27.113,91.187v-.773h-.868V31.484h-.421c-.373,0-.651-.451-.852-1.239L0,27.251,6.394,0,36.943,3.574H76.3v0H90.324L120.884,0l6.394,27.25-24.97,2.994c-.2.789-.48,1.241-.853,1.241h-.422v59.7Z" transform="translate(34.776 62.779)" fill="#97749c"/></g></g><g transform="matrix(0.985, 0.174, -0.174, 0.985, 218.376, 0)"><path d="M0,32.068C10.826,13.326,4.442,8.241,0,0" transform="translate(28.727 0)" fill="none" stroke="#d54c5a" stroke-linecap="round" stroke-width="3"/><path d="M0,32.068C10.826,13.326,4.442,8.241,0,0" transform="translate(14.368 0)" fill="none" stroke="#d54c5a" stroke-linecap="round" stroke-width="3"/><path d="M0,32.068C10.826,13.326,4.442,8.241,0,0" transform="translate(0 0)" fill="none" stroke="#d54c5a" stroke-linecap="round" stroke-width="3"/></g></g><g transform="translate(-1606.721 -3634.572)"><g transform="translate(1707.721 5102.88)" clip-path="url(#f)"><g transform="translate(15.246 11.691)"><g transform="translate(0 0)"><path d="M358.337,77.878H298.47l-28.364-3.317,15.269-18.344a12.953,12.953,0,0,0-19.912-16.573L234.9,76.363a12.962,12.962,0,0,0,8.451,21.152l45.984,5.377v99.115h68.608V103.783h.392C361.059,103.783,358.337,77.878,358.337,77.878Z" transform="translate(-231.894 -12.481)" fill="#ffb69e"/><path d="M233.1,77.878h59.867l28.364-3.317L306.065,56.217a12.953,12.953,0,0,1,19.912-16.573L356.54,76.362a12.962,12.962,0,0,1-8.452,21.152L302.1,102.891v99.115H233.5V103.782H233.1C230.382,103.782,233.1,77.878,233.1,77.878Z" transform="translate(-176.859 -12.481)" fill="#ffb69e"/><ellipse cx="26.845" cy="26.845" rx="26.845" ry="26.845" transform="translate(64.941)" fill="#ffb69e"/></g><path d="M25.165,127.447h-.806V29.222h-.392c-.346,0-.6-.419-.791-1.149L0,25.293,5.934,0,34.285,3.317H46.729v0h.586v0c.288,6.42,5.133,11.866,11.72,12.04,6.619-.14,11.5-5.6,11.783-12.041v0H83.834L112.2,0l5.934,25.292L94.956,28.071c-.187.732-.445,1.152-.792,1.152h-.392v98.224Z" transform="translate(32.277 62.08)" fill="#54637e"/></g></g><path d="M0,19.756l8.136,2.26L12.73,0,15.6,35.931,8.136,32.96,4.6,55.876Z" transform="translate(1874.062 5120.868) rotate(-139)" fill="#d86565"/><path d="M0,19.756l8.136,2.26L12.73,0,15.6,35.931,8.136,32.96,4.607,55.876Z" transform="translate(1850.974 5113.729) rotate(-164)" fill="#d86565"/><g transform="translate(1729.364 5055.716)"><g transform="matrix(-0.966, 0.259, -0.259, -0.966, 80, 40.786)"><path d="M0,0,2.851,19.281" transform="translate(12.576 0.942)" fill="none" stroke="#d86565" stroke-width="2"/><path d="M0,0,5.374,17.918" transform="translate(17.22 0)" fill="none" stroke="#d86565" stroke-width="2"/><path d="M0,2.221C7.295-5.33,23.933,7.852,8.959,19.627c-1.536.256-3.712-3.584-3.712-3.584" transform="matrix(0.985, -0.174, 0.174, 0.985, 20.933, 11.464)" fill="none" stroke="#d86565" stroke-width="2"/><path d="M15.009,2.221C7.715-5.33-8.924,7.852,6.051,19.627c1.536.256,3.712-3.584,3.712-3.584" transform="matrix(0.875, -0.485, 0.485, 0.875, 0, 20.224)" fill="none" stroke="#d86565" stroke-width="2"/><path d="M11.867,0c2.218.507,14.042,10.691-1.414,15.375-11.418,2.859-11.821-5.5-8.972-13.6" transform="translate(15.43 26.277)" fill="none" stroke="#d86565" stroke-width="2"/></g><g transform="translate(52.326 56.872) rotate(138)"><path d="M0,0,2.6,17.6" transform="translate(11.48 0.859)" fill="none" stroke="#d86565" stroke-width="2"/><path d="M0,0,4.906,16.354" transform="translate(15.717 0)" fill="none" stroke="#d86565" stroke-width="2"/><path d="M0,2.027c6.659-6.892,21.844,5.14,8.176,15.886-1.4.234-3.387-3.271-3.387-3.271" transform="matrix(0.985, -0.174, 0.174, 0.985, 19.108, 10.462)" fill="none" stroke="#d86565" stroke-width="2"/><path d="M13.7,2.027C7.041-4.865-8.144,7.167,5.523,17.913c1.4.234,3.387-3.271,3.387-3.271" transform="matrix(0.875, -0.485, 0.485, 0.875, 0, 18.459)" fill="none" stroke="#d86565" stroke-width="2"/><path d="M10.834,0c2.024.464,12.815,9.76-1.289,14.034C-.882,16.643-1.248,9.011,1.354,1.626" transform="translate(14.082 23.981)" fill="none" stroke="#d86565" stroke-width="2"/></g></g></g><path d="M3.809,0V-42.656H16.934A19.932,19.932,0,0,1,27-40.122a17.671,17.671,0,0,1,6.929,7.207,22.229,22.229,0,0,1,2.49,10.62v1.963A22.292,22.292,0,0,1,33.97-9.756a17.52,17.52,0,0,1-6.9,7.178A20.082,20.082,0,0,1,17.021,0ZM12.6-35.537V-7.061h4.248q5.156,0,7.881-3.369t2.783-9.639v-2.256q0-6.5-2.7-9.858t-7.881-3.354Zm28.33,19.395a18.8,18.8,0,0,1,1.816-8.408,13.3,13.3,0,0,1,5.229-5.713A15.257,15.257,0,0,1,55.9-32.285a14.435,14.435,0,0,1,10.474,3.926Q70.43-24.434,70.9-17.7l.059,2.168q0,7.295-4.072,11.7T55.957.586Q49.1.586,45.015-3.809T40.928-15.762Zm8.467.6q0,4.519,1.7,6.91A5.605,5.605,0,0,0,55.957-6.24a5.618,5.618,0,0,0,4.8-2.362q1.729-2.362,1.729-7.555a11.73,11.73,0,0,0-1.729-6.866A5.619,5.619,0,0,0,55.9-25.459a5.527,5.527,0,0,0-4.8,2.421Q49.395-20.618,49.395-15.542ZM101.25-39.492V-31.7h5.42v6.211h-5.42v15.82a3.778,3.778,0,0,0,.674,2.52,3.384,3.384,0,0,0,2.578.762,13.5,13.5,0,0,0,2.49-.205V-.176a17.43,17.43,0,0,1-5.127.762q-8.906,0-9.082-8.994v-17.08H88.154V-31.7h4.629v-7.793Zm18.4,11.25a10.567,10.567,0,0,1,8.467-4.043q10.313,0,10.459,11.982V0h-8.467V-20.068a5.889,5.889,0,0,0-1.172-4.028,5.024,5.024,0,0,0-3.9-1.3,5.763,5.763,0,0,0-5.391,2.871V0h-8.467V-45h8.467ZM159.551.586A15.561,15.561,0,0,1,148.2-3.691q-4.38-4.277-4.38-11.4v-.82a19.149,19.149,0,0,1,1.846-8.54,13.546,13.546,0,0,1,5.229-5.8,14.678,14.678,0,0,1,7.72-2.036q6.5,0,10.239,4.1t3.735,11.631V-13.1H152.4a7.865,7.865,0,0,0,2.476,4.98,7.484,7.484,0,0,0,5.229,1.875,9.139,9.139,0,0,0,7.646-3.545l4.16,4.658a12.71,12.71,0,0,1-5.156,4.2A16.917,16.917,0,0,1,159.551.586Zm-.967-26.045a5.291,5.291,0,0,0-4.087,1.707,8.838,8.838,0,0,0-2.007,4.885h11.777v-.677a6.3,6.3,0,0,0-1.523-4.37A5.458,5.458,0,0,0,158.584-25.459Zm35.977,16.7a2.728,2.728,0,0,0-1.538-2.446,17.471,17.471,0,0,0-4.937-1.6q-11.309-2.373-11.309-9.609a8.71,8.71,0,0,1,3.5-7.046,14.123,14.123,0,0,1,9.155-2.827q6.035,0,9.653,2.842a8.956,8.956,0,0,1,3.618,7.383h-8.467a4.1,4.1,0,0,0-1.172-3A4.959,4.959,0,0,0,189.4-26.25a5.067,5.067,0,0,0-3.311.967,3.052,3.052,0,0,0-1.172,2.461,2.609,2.609,0,0,0,1.333,2.271,13.713,13.713,0,0,0,4.5,1.494,36.732,36.732,0,0,1,5.332,1.421q6.709,2.461,6.709,8.525a8.269,8.269,0,0,1-3.721,7.017A16.05,16.05,0,0,1,189.463.586a16.764,16.764,0,0,1-7.075-1.421,11.871,11.871,0,0,1-4.849-3.9,9.054,9.054,0,0,1-1.758-5.347h8.027a4.42,4.42,0,0,0,1.67,3.457,6.624,6.624,0,0,0,4.16,1.2,6.131,6.131,0,0,0,3.677-.923A2.872,2.872,0,0,0,194.561-8.76ZM222.832.586a15.561,15.561,0,0,1-11.353-4.277q-4.38-4.277-4.38-11.4v-.82a19.149,19.149,0,0,1,1.846-8.54,13.546,13.546,0,0,1,5.229-5.8,14.678,14.678,0,0,1,7.72-2.036q6.5,0,10.239,4.1t3.735,11.631V-13.1H215.684a7.865,7.865,0,0,0,2.476,4.98,7.484,7.484,0,0,0,5.229,1.875,9.139,9.139,0,0,0,7.646-3.545l4.16,4.658a12.71,12.71,0,0,1-5.156,4.2A16.917,16.917,0,0,1,222.832.586Zm-.967-26.045a5.291,5.291,0,0,0-4.087,1.707,8.838,8.838,0,0,0-2.007,4.885h11.777v-.677a6.3,6.3,0,0,0-1.523-4.37A5.458,5.458,0,0,0,221.865-25.459Zm43.887-14.033V-31.7h5.42v6.211h-5.42v15.82a3.778,3.778,0,0,0,.674,2.52A3.384,3.384,0,0,0,269-6.387a13.5,13.5,0,0,0,2.49-.205V-.176a17.43,17.43,0,0,1-5.127.762q-8.906,0-9.082-8.994v-17.08h-4.629V-31.7h4.629v-7.793Zm18.4,11.25a10.567,10.567,0,0,1,8.467-4.043q10.313,0,10.459,11.982V0h-8.467V-20.068a5.889,5.889,0,0,0-1.172-4.028,5.024,5.024,0,0,0-3.9-1.3,5.763,5.763,0,0,0-5.391,2.871V0h-8.467V-45h8.467Zm23.994,12.1a18.8,18.8,0,0,1,1.816-8.408,13.3,13.3,0,0,1,5.229-5.713,15.257,15.257,0,0,1,7.925-2.021,14.435,14.435,0,0,1,10.474,3.926q4.058,3.926,4.526,10.664l.059,2.168q0,7.295-4.072,11.7T323.174.586q-6.855,0-10.942-4.395t-4.087-11.953Zm8.467.6q0,4.519,1.7,6.91a5.605,5.605,0,0,0,4.863,2.391,5.618,5.618,0,0,0,4.8-2.362q1.729-2.362,1.729-7.555a11.73,11.73,0,0,0-1.729-6.866,5.619,5.619,0,0,0-4.863-2.435,5.527,5.527,0,0,0-4.8,2.421Q316.611-20.618,316.611-15.542ZM362.373-3.223A10.618,10.618,0,0,1,353.7.586q-5.1,0-7.778-2.93t-2.739-8.584V-31.7h8.467v20.5q0,4.957,4.512,4.957,4.307,0,5.918-2.992V-31.7h8.5V0h-7.969Zm13.359-12.861q0-7.295,3.472-11.748a11.249,11.249,0,0,1,9.36-4.453,9.866,9.866,0,0,1,8.115,3.574l.352-2.988h7.676V-1.055a13.548,13.548,0,0,1-1.89,7.236,12.136,12.136,0,0,1-5.317,4.688,18.693,18.693,0,0,1-8.027,1.611,17.382,17.382,0,0,1-6.8-1.392,12.063,12.063,0,0,1-5.01-3.589l3.75-5.156a9.918,9.918,0,0,0,7.676,3.545,7.259,7.259,0,0,0,5.244-1.8,6.758,6.758,0,0,0,1.875-5.112v-1.7A9.793,9.793,0,0,1,388.506.586a11.22,11.22,0,0,1-9.243-4.468q-3.53-4.468-3.53-11.851Zm8.467.63a11.568,11.568,0,0,0,1.729,6.763,5.5,5.5,0,0,0,4.746,2.45,5.879,5.879,0,0,0,5.537-2.9V-22.5a5.866,5.866,0,0,0-5.479-2.9,5.533,5.533,0,0,0-4.79,2.494Q384.2-20.412,384.2-15.454Zm35.273-12.789a10.567,10.567,0,0,1,8.467-4.043q10.313,0,10.459,11.982V0h-8.467V-20.068A5.889,5.889,0,0,0,428.76-24.1a5.024,5.024,0,0,0-3.9-1.3,5.763,5.763,0,0,0-5.391,2.871V0h-8.467V-45h8.467Zm35.449-11.25V-31.7h5.42v6.211h-5.42v15.82a3.778,3.778,0,0,0,.674,2.52,3.384,3.384,0,0,0,2.578.762,13.5,13.5,0,0,0,2.49-.205V-.176a17.43,17.43,0,0,1-5.127.762q-8.906,0-9.082-8.994v-17.08h-4.629V-31.7h4.629v-7.793Zm27.3,30.732a2.728,2.728,0,0,0-1.538-2.446,17.471,17.471,0,0,0-4.937-1.6q-11.309-2.373-11.309-9.609a8.71,8.71,0,0,1,3.5-7.046,14.123,14.123,0,0,1,9.155-2.827q6.035,0,9.653,2.842a8.956,8.956,0,0,1,3.618,7.383H481.9a4.1,4.1,0,0,0-1.172-3,4.959,4.959,0,0,0-3.662-1.187,5.067,5.067,0,0,0-3.311.967,3.052,3.052,0,0,0-1.172,2.461,2.609,2.609,0,0,0,1.333,2.271,13.713,13.713,0,0,0,4.5,1.494,36.732,36.732,0,0,1,5.332,1.421q6.709,2.461,6.709,8.525a8.269,8.269,0,0,1-3.721,7.017A16.05,16.05,0,0,1,477.129.586a16.764,16.764,0,0,1-7.075-1.421,11.871,11.871,0,0,1-4.849-3.9,9.054,9.054,0,0,1-1.758-5.347h8.027a4.42,4.42,0,0,0,1.67,3.457,6.624,6.624,0,0,0,4.16,1.2,6.131,6.131,0,0,0,3.677-.923A2.872,2.872,0,0,0,482.227-8.76ZM519.785,0h-8.5V-45h8.5Zm5.654-16.143a18.8,18.8,0,0,1,1.816-8.408,13.3,13.3,0,0,1,5.229-5.713,15.257,15.257,0,0,1,7.925-2.021,14.435,14.435,0,0,1,10.474,3.926q4.058,3.926,4.526,10.664l.059,2.168q0,7.295-4.072,11.7T540.469.586q-6.855,0-10.942-4.395t-4.087-11.953Zm8.467.6q0,4.519,1.7,6.91a5.605,5.605,0,0,0,4.863,2.391,5.618,5.618,0,0,0,4.8-2.362Q547-10.964,547-16.158a11.73,11.73,0,0,0-1.729-6.866,5.619,5.619,0,0,0-4.863-2.435,5.527,5.527,0,0,0-4.8,2.421Q533.906-20.618,533.906-15.542Zm25.459-.6a18.8,18.8,0,0,1,1.816-8.408,13.3,13.3,0,0,1,5.229-5.713,15.257,15.257,0,0,1,7.925-2.021,14.435,14.435,0,0,1,10.474,3.926q4.058,3.926,4.526,10.664l.059,2.168q0,7.295-4.072,11.7T574.395.586q-6.855,0-10.942-4.395t-4.087-11.953Zm8.467.6q0,4.519,1.7,6.91a5.605,5.605,0,0,0,4.863,2.391A5.618,5.618,0,0,0,579.2-8.6q1.729-2.362,1.729-7.555a11.73,11.73,0,0,0-1.729-6.866,5.619,5.619,0,0,0-4.863-2.435,5.527,5.527,0,0,0-4.8,2.421Q567.832-20.618,567.832-15.542Zm38.291,2.827-3.047,3.047V0h-8.467V-45h8.467v24.932l1.641-2.109,8.115-9.521H623L611.543-18.486,623.994,0h-9.727ZM643.916,0V-25.488H639.2V-31.7h4.717v-2.7q0-5.332,3.062-8.276t8.569-2.944a19.793,19.793,0,0,1,4.307.586l-.088,6.563a10.794,10.794,0,0,0-2.578-.264q-4.775,0-4.775,4.482V-31.7h6.3v6.211h-6.3V0Zm37.559,0a9.4,9.4,0,0,1-.85-2.842,10.245,10.245,0,0,1-8,3.428,11.255,11.255,0,0,1-7.72-2.7,8.669,8.669,0,0,1-3.062-6.8,8.958,8.958,0,0,1,3.735-7.734q3.735-2.7,10.8-2.725h3.9v-1.816a5.224,5.224,0,0,0-1.128-3.516,4.437,4.437,0,0,0-3.56-1.318,5.045,5.045,0,0,0-3.354,1.025,3.483,3.483,0,0,0-1.216,2.813h-8.467a8.5,8.5,0,0,1,1.7-5.1,11.232,11.232,0,0,1,4.8-3.677,17.51,17.51,0,0,1,6.973-1.333q5.859,0,9.3,2.944a10.3,10.3,0,0,1,3.442,8.276v13.74A15.155,15.155,0,0,0,690.029-.5V0Zm-7-5.889a7.292,7.292,0,0,0,3.457-.835,5.484,5.484,0,0,0,2.344-2.241v-5.449h-3.164q-6.357,0-6.768,4.395l-.029.5a3.39,3.39,0,0,0,1.113,2.607A4.324,4.324,0,0,0,674.473-5.889ZM703.213-31.7l.264,3.545a11.14,11.14,0,0,1,9.111-4.131q6.123,0,8.408,4.834a10.884,10.884,0,0,1,9.521-4.834q5.156,0,7.676,3t2.52,9.038V0h-8.5V-20.215a6.036,6.036,0,0,0-1.055-3.94q-1.055-1.245-3.721-1.245a5.284,5.284,0,0,0-5.273,3.633L722.2,0H713.73V-20.186a5.963,5.963,0,0,0-1.084-3.984,4.72,4.72,0,0,0-3.691-1.23,5.487,5.487,0,0,0-5.215,2.988V0h-8.467V-31.7ZM756.152,0h-8.5V-31.7h8.5Zm-8.994-39.9a4.169,4.169,0,0,1,1.274-3.135,4.788,4.788,0,0,1,3.472-1.23,4.8,4.8,0,0,1,3.457,1.23A4.145,4.145,0,0,1,756.65-39.9a4.157,4.157,0,0,1-1.3,3.164,4.81,4.81,0,0,1-3.442,1.23,4.81,4.81,0,0,1-3.442-1.23A4.157,4.157,0,0,1,747.158-39.9ZM772.061,0h-8.5V-45h8.5Zm15.908,0h-8.5V-31.7h8.5Zm-8.994-39.9a4.169,4.169,0,0,1,1.274-3.135,4.788,4.788,0,0,1,3.472-1.23,4.8,4.8,0,0,1,3.457,1.23,4.145,4.145,0,0,1,1.289,3.135,4.157,4.157,0,0,1-1.3,3.164,4.81,4.81,0,0,1-3.442,1.23,4.81,4.81,0,0,1-3.442-1.23A4.157,4.157,0,0,1,778.975-39.9ZM813.311,0a9.4,9.4,0,0,1-.85-2.842,10.245,10.245,0,0,1-8,3.428,11.255,11.255,0,0,1-7.72-2.7,8.669,8.669,0,0,1-3.062-6.8,8.958,8.958,0,0,1,3.735-7.734q3.735-2.7,10.8-2.725h3.9v-1.816a5.224,5.224,0,0,0-1.128-3.516,4.437,4.437,0,0,0-3.56-1.318,5.045,5.045,0,0,0-3.354,1.025,3.483,3.483,0,0,0-1.216,2.813h-8.467a8.5,8.5,0,0,1,1.7-5.1,11.232,11.232,0,0,1,4.8-3.677,17.51,17.51,0,0,1,6.973-1.333q5.859,0,9.3,2.944a10.3,10.3,0,0,1,3.442,8.276v13.74A15.155,15.155,0,0,0,821.865-.5V0Zm-7-5.889a7.292,7.292,0,0,0,3.457-.835,5.484,5.484,0,0,0,2.344-2.241v-5.449h-3.164q-6.357,0-6.768,4.395l-.029.5a3.39,3.39,0,0,0,1.113,2.607A4.324,4.324,0,0,0,806.309-5.889ZM844.922-23.76a23,23,0,0,0-3.047-.234q-4.8,0-6.3,3.252V0h-8.467V-31.7h8l.234,3.779q2.549-4.365,7.061-4.365a8.872,8.872,0,0,1,2.637.381ZM13.389,32.508V40.3h5.42v6.211h-5.42v15.82a3.778,3.778,0,0,0,.674,2.52,3.384,3.384,0,0,0,2.578.762,13.5,13.5,0,0,0,2.49-.205v6.416A17.43,17.43,0,0,1,14,72.586q-8.906,0-9.082-8.994V46.512H.293V40.3H4.922V32.508Zm7.939,23.35a18.8,18.8,0,0,1,1.816-8.408,13.3,13.3,0,0,1,5.229-5.713A15.257,15.257,0,0,1,36.3,39.715a14.435,14.435,0,0,1,10.474,3.926Q50.83,47.566,51.3,54.3l.059,2.168q0,7.295-4.072,11.7T36.357,72.586q-6.855,0-10.942-4.395T21.328,56.238Zm8.467.6q0,4.519,1.7,6.91a5.605,5.605,0,0,0,4.863,2.391,5.618,5.618,0,0,0,4.8-2.362q1.729-2.362,1.729-7.555a11.73,11.73,0,0,0-1.729-6.866A5.619,5.619,0,0,0,36.3,46.541a5.527,5.527,0,0,0-4.8,2.421Q29.795,51.382,29.795,56.458ZM83.35,60.018,89.209,40.3h9.082L85.547,76.922l-.7,1.67Q82,84.8,75.469,84.8a13.322,13.322,0,0,1-3.75-.557V77.83l1.289.029a6.965,6.965,0,0,0,3.589-.732,4.812,4.812,0,0,0,1.86-2.432l1-2.607L68.35,40.3h9.111Zm16.963-4.16a18.8,18.8,0,0,1,1.816-8.408,13.3,13.3,0,0,1,5.229-5.713,15.257,15.257,0,0,1,7.925-2.021,14.435,14.435,0,0,1,10.474,3.926q4.058,3.926,4.526,10.664l.059,2.168q0,7.295-4.072,11.7t-10.928,4.409q-6.855,0-10.942-4.395t-4.087-11.953Zm8.467.6q0,4.519,1.7,6.91a6.1,6.1,0,0,0,9.668.029q1.729-2.362,1.729-7.555a11.73,11.73,0,0,0-1.729-6.866,5.619,5.619,0,0,0-4.863-2.435,5.527,5.527,0,0,0-4.8,2.421Q108.779,51.382,108.779,56.458Zm45.762,12.319a10.618,10.618,0,0,1-8.672,3.809q-5.1,0-7.778-2.93t-2.739-8.584V40.3h8.467V60.8q0,4.957,4.512,4.957,4.307,0,5.918-2.992V40.3h8.5V72h-7.969Zm21.5-9.844a17.625,17.625,0,0,1,1-6.54,13.416,13.416,0,0,1,3.647-4.795,18.649,18.649,0,0,0,3.53-3.843,6.033,6.033,0,0,0,.879-3.125q0-4.959-4.57-4.959a4.63,4.63,0,0,0-3.472,1.336,5.25,5.25,0,0,0-1.362,3.685h-8.5a11.3,11.3,0,0,1,3.618-8.768q3.56-3.167,9.712-3.167,6.211,0,9.639,3.006t3.428,8.49a10.335,10.335,0,0,1-1.113,4.706,19.39,19.39,0,0,1-3.9,4.912l-2.373,2.258a8.045,8.045,0,0,0-2.549,5.014l-.117,1.789Zm-.85,8.979a4.265,4.265,0,0,1,1.333-3.227,5.22,5.22,0,0,1,6.826,0,4.555,4.555,0,0,1,.029,6.41,5.347,5.347,0,0,1-6.885,0A4.23,4.23,0,0,1,175.2,67.913Z" transform="translate(46)" fill="#a72121"/></g><g transform="translate(707.07 1464.597)"><g transform="translate(0 0)"><g transform="translate(180.542)"><g transform="translate(0)"><path d="M26.843,0A26.843,26.843,0,1,0,53.685,26.843,26.828,26.828,0,0,0,26.843,0Zm0,49.491A22.649,22.649,0,1,1,49.491,26.843,22.636,22.636,0,0,1,26.843,49.491Z" transform="translate(0)" fill="#6e6e6e"/><text transform="translate(16.388 37.403)" fill="#6e6e6e" font-size="35" font-family="GoogleSans-Bold, Google Sans" font-weight="700" letter-spacing="-0.006em"><tspan x="0" y="0">?</tspan></text></g><g transform="translate(35.168 137.925)"><path d="M29.923,0A29.923,29.923,0,1,0,59.847,29.923,29.906,29.906,0,0,0,29.923,0Zm0,55.171A25.248,25.248,0,1,1,55.171,29.923,25.234,25.234,0,0,1,29.923,55.171Z" fill="#6e6e6e"/><g transform="translate(19.001 19.001)"><path d="M183.716,180.41l-6.932-6.932,6.932-6.932a2.338,2.338,0,1,0-3.306-3.306l-6.932,6.932-6.932-6.932a2.338,2.338,0,1,0-3.306,3.306l6.932,6.932-6.932,6.932a2.338,2.338,0,1,0,3.306,3.306l6.932-6.932,6.932,6.932a2.338,2.338,0,1,0,3.306-3.306Z" transform="translate(-162.555 -162.556)" fill="#6e6e6e"/></g></g></g><g transform="translate(0 145.08)"><path d="M24.437,0A24.437,24.437,0,1,0,48.875,24.437,24.424,24.424,0,0,0,24.437,0Zm0,45.057A20.619,20.619,0,1,1,45.057,24.437,20.608,20.608,0,0,1,24.437,45.057Z" transform="translate(0 0)" fill="#6e6e6e"/><text transform="translate(20.93 34.323)" fill="#6e6e6e" font-size="33" font-family="GoogleSans-Bold, Google Sans" font-weight="700" letter-spacing="-0.006em"><tspan x="0" y="0">!</tspan></text></g><g transform="translate(48.875 53.974)"><g transform="translate(0 0)"><path d="M404.32,164.364h0V142.418c-.082-16.132-13.478-29.257-29.863-29.257h-57.43l-27.21-3.181,14.648-17.6a12.426,12.426,0,0,0-19.1-15.9l-29.319,35.225A12.435,12.435,0,0,0,264.151,132l44.113,5.158v35.69h65.816V138.013h.376c2.612,0,5,2.16,5.012,4.468v31.894H404.32Z" transform="translate(-253.16 -50.426)" fill="#ffb69e"/><ellipse cx="25.753" cy="25.753" rx="25.753" ry="25.753" transform="translate(62.291)" fill="#ffb69e"/></g><path d="M419.643,183.157V161.211c-.082-16.132-13.478-29.257-29.863-29.257H367.944v0c.28,6.24-5.511,11.555-11.554,11.555-6.478,0-11.274-5.295-11.555-11.555H332.348l-27.21-3.181-5.693,24.263,24.141,2.895v37.953H389.4V156.805h.376c2.612,0,5,2.16,5.012,4.468v21.884Z" transform="translate(-268.483 -69.22)" fill="#48797d"/></g><g transform="translate(17.481 4.564)"><g transform="translate(0)"><path d="M24.765,0A24.765,24.765,0,1,0,49.53,24.765,24.751,24.751,0,0,0,24.765,0Zm0,45.661a20.9,20.9,0,1,1,20.9-20.9A20.884,20.884,0,0,1,24.765,45.661Z" transform="translate(0)" fill="#6e6e6e"/></g><g transform="translate(15.725 15.725)"><path d="M180.068,177.332l-5.737-5.737,5.737-5.737a1.935,1.935,0,1,0-2.736-2.736l-5.737,5.737-5.737-5.737a1.935,1.935,0,1,0-2.736,2.736l5.737,5.737-5.737,5.737a1.935,1.935,0,1,0,2.736,2.736l5.737-5.737,5.737,5.737a1.935,1.935,0,1,0,2.736-2.736Z" transform="translate(-162.555 -162.556)" fill="#6e6e6e"/></g></g></g></g></g></svg>