<svg xmlns="http://www.w3.org/2000/svg" xmlns:xlink="http://www.w3.org/1999/xlink" width="1000" height="1000" viewBox="0 0 1000 1000"><defs><filter id="a" x="784" y="394" width="193" height="172" filterUnits="userSpaceOnUse"><feOffset dy="2" input="SourceAlpha"/><feGaussianBlur stdDeviation="2" result="b"/><feFlood flood-color="#3c9c47" flood-opacity="0.271"/><feComposite operator="in" in2="b"/><feComposite in="SourceGraphic"/></filter><filter id="c" x="241.203" y="113.201" width="537.831" height="313.799" filterUnits="userSpaceOnUse"><feOffset dy="2" input="SourceAlpha"/><feGaussianBlur stdDeviation="2" result="d"/><feFlood flood-color="#3c9c47" flood-opacity="0.271"/><feComposite operator="in" in2="d"/><feComposite in="SourceGraphic"/></filter><filter id="e" x="19" y="376" width="247" height="216" filterUnits="userSpaceOnUse"><feOffset dy="2" input="SourceAlpha"/><feGaussianBlur stdDeviation="2" result="f"/><feFlood flood-color="#3c9c47" flood-opacity="0.271"/><feComposite operator="in" in2="f"/><feComposite in="SourceGraphic"/></filter></defs><g transform="translate(-1316 -9443)"><g transform="translate(1316 9443)" fill="#e5ffe8" stroke="#b9d5d6" stroke-width="1"><rect width="1000" height="1000" rx="4" stroke="none"/><rect x="0.5" y="0.5" width="999" height="999" rx="3.5" fill="none"/></g><g transform="translate(1316 9443)" fill="#f2fff3" stroke="#b9d5d6" stroke-width="1"><rect width="1000" height="1000" rx="4" stroke="none"/><rect x="0.5" y="0.5" width="999" height="999" rx="3.5" fill="none"/></g><g transform="translate(1304 9589)"><g transform="matrix(1, 0, 0, 1, 12, -146)" filter="url(#a)"><rect width="181" height="160" rx="5" transform="translate(790 398)" fill="#dbfedf"/></g><path d="M33.655,27.154h-10.3V38H18.907V12.406h16.26v3.586H23.355V23.6h10.3Zm13.35,11.2a8.837,8.837,0,0,1-6.583-2.558A9.278,9.278,0,0,1,37.9,28.982v-.527A11.413,11.413,0,0,1,39,23.366a8.362,8.362,0,0,1,3.085-3.489,8.156,8.156,0,0,1,4.43-1.248,7.465,7.465,0,0,1,6,2.479q2.118,2.479,2.118,7.014v1.723H42.207A5.712,5.712,0,0,0,43.78,33.57a4.723,4.723,0,0,0,3.472,1.371,5.784,5.784,0,0,0,4.781-2.373l2.3,2.2a7.69,7.69,0,0,1-3.05,2.646A9.548,9.548,0,0,1,47.006,38.352ZM46.5,22.057a3.6,3.6,0,0,0-2.839,1.23,6.378,6.378,0,0,0-1.38,3.428h8.139V26.4a5.192,5.192,0,0,0-1.143-3.243A3.57,3.57,0,0,0,46.5,22.057ZM66.684,38.352A8.837,8.837,0,0,1,60.1,35.794a9.278,9.278,0,0,1-2.522-6.812v-.527a11.413,11.413,0,0,1,1.1-5.089,8.362,8.362,0,0,1,3.085-3.489,8.156,8.156,0,0,1,4.43-1.248,7.465,7.465,0,0,1,6,2.479q2.118,2.479,2.118,7.014v1.723H61.885a5.712,5.712,0,0,0,1.573,3.727,4.723,4.723,0,0,0,3.472,1.371,5.784,5.784,0,0,0,4.781-2.373l2.3,2.2a7.69,7.69,0,0,1-3.05,2.646A9.548,9.548,0,0,1,66.684,38.352Zm-.51-16.295a3.6,3.6,0,0,0-2.839,1.23,6.378,6.378,0,0,0-1.38,3.428h8.139V26.4a5.192,5.192,0,0,0-1.143-3.243A3.57,3.57,0,0,0,66.174,22.057ZM82.53,38H78.259V11H82.53Zm9.553,0H87.812V18.98h4.271ZM87.548,14.041a2.267,2.267,0,0,1,.624-1.635,2.357,2.357,0,0,1,1.784-.65,2.387,2.387,0,0,1,1.793.65,2.25,2.25,0,0,1,.633,1.635,2.2,2.2,0,0,1-.633,1.608,2.406,2.406,0,0,1-1.793.642,2.375,2.375,0,0,1-1.784-.642A2.214,2.214,0,0,1,87.548,14.041Zm13.508,4.939.123,2.2a6.839,6.839,0,0,1,5.537-2.549q5.941,0,6.047,6.8V38h-4.271V25.678A3.917,3.917,0,0,0,107.71,23a3.29,3.29,0,0,0-2.558-.87,4.116,4.116,0,0,0-3.85,2.338V38H97.032V18.98Zm15.671,9.369a11.124,11.124,0,0,1,2.083-7.075,6.686,6.686,0,0,1,5.528-2.646,6.263,6.263,0,0,1,5.115,2.268l.193-1.916h3.85V37.42a7.664,7.664,0,0,1-2.329,5.906,8.871,8.871,0,0,1-6.284,2.162,10.129,10.129,0,0,1-4.087-.87,7.262,7.262,0,0,1-3.032-2.276l2.021-2.566a6.105,6.105,0,0,0,4.852,2.338A4.718,4.718,0,0,0,128,40.962a4.412,4.412,0,0,0,1.23-3.384V36.295a6.289,6.289,0,0,1-4.922,2.057,6.67,6.67,0,0,1-5.458-2.654A11.484,11.484,0,0,1,116.727,28.35Zm4.254.369a7.657,7.657,0,0,0,1.169,4.509,3.759,3.759,0,0,0,3.243,1.644,4.111,4.111,0,0,0,3.832-2.215V24.289a4.052,4.052,0,0,0-3.8-2.162,3.773,3.773,0,0,0-3.278,1.67A8.574,8.574,0,0,0,120.981,28.719ZM33.5,64.314A11.215,11.215,0,0,1,34.6,59.278a8.088,8.088,0,0,1,3.111-3.445,8.766,8.766,0,0,1,4.605-1.2,8.308,8.308,0,0,1,6.249,2.479,9.748,9.748,0,0,1,2.593,6.574l.018,1A11.315,11.315,0,0,1,50.1,69.711a7.991,7.991,0,0,1-3.094,3.428,8.831,8.831,0,0,1-4.649,1.213,8.25,8.25,0,0,1-6.442-2.681A10.267,10.267,0,0,1,33.5,64.525Zm4.271.369a7.664,7.664,0,0,0,1.213,4.6,3.943,3.943,0,0,0,3.375,1.661,3.9,3.9,0,0,0,3.366-1.687,8.465,8.465,0,0,0,1.2-4.939,7.565,7.565,0,0,0-1.239-4.57A4.177,4.177,0,0,0,39,59.718,8.3,8.3,0,0,0,37.768,64.684Zm23.563,1.16-1.9,1.951V74H55.161V47h4.271V62.574l1.336-1.67,5.256-5.924h5.133l-7.066,7.928L71.913,74H66.974ZM85.668,74a6.592,6.592,0,0,1-.492-1.775,7.185,7.185,0,0,1-9.668.492A5.23,5.23,0,0,1,73.7,68.674a5.4,5.4,0,0,1,2.259-4.667,10.946,10.946,0,0,1,6.46-1.626h2.619V61.133a3.331,3.331,0,0,0-.826-2.364,3.275,3.275,0,0,0-2.514-.888,3.762,3.762,0,0,0-2.391.729,2.258,2.258,0,0,0-.932,1.854H74.1a4.741,4.741,0,0,1,1.037-2.927A6.909,6.909,0,0,1,77.96,55.4a9.91,9.91,0,0,1,3.981-.773,7.981,7.981,0,0,1,5.326,1.679,5.986,5.986,0,0,1,2.039,4.72v8.578a9.722,9.722,0,0,0,.721,4.1V74Zm-4.693-3.076a4.859,4.859,0,0,0,2.382-.615,4.11,4.11,0,0,0,1.679-1.652V65.07h-2.3a6.3,6.3,0,0,0-3.568.826,2.676,2.676,0,0,0-1.2,2.338,2.5,2.5,0,0,0,.817,1.96A3.165,3.165,0,0,0,80.975,70.924Zm19.819-3.041,3.867-12.9h4.553l-7.559,21.9q-1.74,4.8-5.906,4.8a7.615,7.615,0,0,1-2.057-.318V78.043l.809.053a4.159,4.159,0,0,0,2.435-.588,3.9,3.9,0,0,0,1.292-1.976l.615-1.633L92.163,54.98h4.605Zm13.9,1.617a2.44,2.44,0,0,1,1.846.677,2.351,2.351,0,0,1,.65,1.7,2.268,2.268,0,0,1-.65,1.661,2.879,2.879,0,0,1-3.656.009,2.229,2.229,0,0,1-.668-1.67,2.351,2.351,0,0,1,.65-1.7A2.416,2.416,0,0,1,114.689,69.5Z" transform="translate(817 294)" fill="#578e5e"/><path d="M35.081,26.034H26.82L25.091,31H21.238L29.3,9.672H32.62L40.692,31H36.824ZM27.86,23.046h6.182L30.95,14.2Zm24.089,3.647a1.614,1.614,0,0,0-.784-1.45,8.335,8.335,0,0,0-2.6-.879,13.366,13.366,0,0,1-3.032-.967,4.047,4.047,0,0,1-2.666-3.735A4.219,4.219,0,0,1,44.6,16.234a6.833,6.833,0,0,1,4.395-1.377,7.11,7.11,0,0,1,4.592,1.406,4.462,4.462,0,0,1,1.75,3.647h-3.56a2.194,2.194,0,0,0-.762-1.707,2.919,2.919,0,0,0-2.021-.681,3.154,3.154,0,0,0-1.912.542,1.709,1.709,0,0,0-.74,1.45,1.443,1.443,0,0,0,.688,1.274,9.467,9.467,0,0,0,2.783.916A13.175,13.175,0,0,1,53.1,22.8a4.657,4.657,0,0,1,1.772,1.531A3.9,3.9,0,0,1,55.45,26.5a4.13,4.13,0,0,1-1.772,3.464,7.558,7.558,0,0,1-4.644,1.326,8.2,8.2,0,0,1-3.472-.7,5.714,5.714,0,0,1-2.373-1.934A4.577,4.577,0,0,1,42.339,26H45.8a2.508,2.508,0,0,0,.952,1.941,3.7,3.7,0,0,0,2.329.681,3.6,3.6,0,0,0,2.139-.535A1.655,1.655,0,0,0,51.949,26.693ZM76.089,31a5.493,5.493,0,0,1-.41-1.479,5.988,5.988,0,0,1-8.057.41,4.359,4.359,0,0,1-1.509-3.369A4.5,4.5,0,0,1,68,22.672a9.122,9.122,0,0,1,5.383-1.355h2.183v-1.04a2.776,2.776,0,0,0-.688-1.97,2.729,2.729,0,0,0-2.095-.74,3.135,3.135,0,0,0-1.992.608,1.882,1.882,0,0,0-.776,1.545H66.45a3.951,3.951,0,0,1,.864-2.439,5.758,5.758,0,0,1,2.351-1.78,8.258,8.258,0,0,1,3.318-.645,6.651,6.651,0,0,1,4.438,1.4,4.989,4.989,0,0,1,1.7,3.933v7.148a8.1,8.1,0,0,0,.6,3.413V31Zm-3.911-2.563a4.049,4.049,0,0,0,1.985-.513,3.425,3.425,0,0,0,1.4-1.377V23.559H73.642a5.247,5.247,0,0,0-2.974.688,2.23,2.23,0,0,0-1,1.948,2.08,2.08,0,0,0,.681,1.633A2.638,2.638,0,0,0,72.178,28.437ZM22.154,54.4a8.808,8.808,0,0,0-1.45-.117,3.265,3.265,0,0,0-3.3,1.875V67h-3.56V51.15h3.4l.088,1.772a4.011,4.011,0,0,1,3.574-2.065,3.332,3.332,0,0,1,1.26.205Zm9.529,12.891A7.364,7.364,0,0,1,26.2,65.162a7.732,7.732,0,0,1-2.1-5.676v-.439a9.511,9.511,0,0,1,.916-4.241A6.968,6.968,0,0,1,27.581,51.9a6.8,6.8,0,0,1,3.691-1.04,6.221,6.221,0,0,1,5,2.065,8.734,8.734,0,0,1,1.765,5.845V60.2H27.684a4.76,4.76,0,0,0,1.311,3.105,3.936,3.936,0,0,0,2.893,1.143,4.82,4.82,0,0,0,3.984-1.978L37.791,64.3a6.408,6.408,0,0,1-2.542,2.2A7.957,7.957,0,0,1,31.683,67.293Zm-.425-13.579a3,3,0,0,0-2.366,1.025,5.315,5.315,0,0,0-1.15,2.856h6.782v-.264a4.327,4.327,0,0,0-.952-2.7A2.975,2.975,0,0,0,31.258,53.714Zm18.728,8.979a1.614,1.614,0,0,0-.784-1.45,8.335,8.335,0,0,0-2.6-.879A13.366,13.366,0,0,1,43.57,59.4,4.047,4.047,0,0,1,40.9,55.662a4.219,4.219,0,0,1,1.729-3.428,6.833,6.833,0,0,1,4.395-1.377,7.11,7.11,0,0,1,4.592,1.406,4.462,4.462,0,0,1,1.75,3.647H49.81a2.194,2.194,0,0,0-.762-1.707,2.919,2.919,0,0,0-2.021-.681,3.154,3.154,0,0,0-1.912.542,1.709,1.709,0,0,0-.74,1.45,1.443,1.443,0,0,0,.688,1.274,9.467,9.467,0,0,0,2.783.916,13.175,13.175,0,0,1,3.289,1.1,4.657,4.657,0,0,1,1.772,1.531,3.9,3.9,0,0,1,.579,2.168,4.13,4.13,0,0,1-1.772,3.464,7.558,7.558,0,0,1-4.644,1.326,8.2,8.2,0,0,1-3.472-.7,5.714,5.714,0,0,1-2.373-1.934A4.577,4.577,0,0,1,40.376,62h3.457a2.508,2.508,0,0,0,.952,1.941,3.7,3.7,0,0,0,2.329.681,3.6,3.6,0,0,0,2.139-.535A1.655,1.655,0,0,0,49.986,62.693Zm16.5,2.754a5.521,5.521,0,0,1-4.453,1.846,4.92,4.92,0,0,1-3.9-1.509A6.418,6.418,0,0,1,56.8,61.419V51.15h3.56V61.375q0,3.018,2.5,3.018a3.518,3.518,0,0,0,3.5-1.86V51.15h3.56V67H66.575ZM77.641,67h-3.56V44.5h3.56Zm8.635-19.7V51.15h2.8v2.637h-2.8v8.848a1.948,1.948,0,0,0,.359,1.311,1.664,1.664,0,0,0,1.282.4,5.483,5.483,0,0,0,1.245-.146v2.754a8.767,8.767,0,0,1-2.344.337q-4.1,0-4.1-4.526V53.787H80.109V51.15h2.607V47.3Z" transform="translate(853 91)" fill="#59a562"/><g transform="translate(790.543 121.863) rotate(3)"><path d="M0,0C26.371,10.3,69.171,39.212,86.5,84.484" transform="translate(6.893 0) rotate(3)" fill="none" stroke="#5baa64" stroke-width="4"/><path d="M15.184,0,30.368,21.436H0Z" transform="matrix(-0.966, 0.259, -0.259, -0.966, 107.687, 98.787)" fill="#5baa64"/></g><g transform="translate(259.203 -28.799)"><g transform="matrix(1, 0, 0, 1, -247.2, -117.2)" filter="url(#c)"><path d="M578.618,221.079c0-38.032-29.91-69.6-69.193-75.774a8.456,8.456,0,0,1-7.133-6.492c-8.482-42.064-67.667-40.1-89.17-23.78a9.066,9.066,0,0,1-8.9-3.257c-38.546-51.148-120.465-51.378-159.24-.149a9.011,9.011,0,0,1-8.739,3.268c-45.86-8.258-98.774-17.523-107.131,23.918a8.456,8.456,0,0,1-7.133,6.492C82.7,151.478,52.787,183.049,52.787,221.08s29.91,69.6,69.193,75.775a8.456,8.456,0,0,1,7.133,6.492c8.351,41.415,36.785,38.435,82.676,30.17a9.007,9.007,0,0,1,8.739,3.268c17.536,23.167,46.628,38.325,79.561,38.325,33,0,62.157-15.221,79.68-38.474a9.066,9.066,0,0,1,8.9-3.257c45.581,8.614,105.129,12.1,113.624-30.032a8.456,8.456,0,0,1,7.133-6.492C548.708,290.682,578.618,259.112,578.618,221.079Z" transform="translate(194.42 43.89)" fill="#dbfedf"/></g></g><path d="M34.627,38H30.2V12.406h4.43ZM45.394,14.357V18.98h3.357v3.164H45.394V32.762a2.338,2.338,0,0,0,.431,1.573,2,2,0,0,0,1.538.483,6.58,6.58,0,0,0,1.494-.176v3.3a10.52,10.52,0,0,1-2.812.4q-4.922,0-4.922-5.432V22.145H37.993V18.98h3.129V14.357ZM63.2,38V22.145H60.3V18.98h2.9V17.24a6.532,6.532,0,0,1,1.758-4.887,6.733,6.733,0,0,1,4.922-1.723,9.872,9.872,0,0,1,2.391.316l-.105,3.34a8.413,8.413,0,0,0-1.635-.141q-3.059,0-3.059,3.146V18.98h3.867v3.164H67.471V38Zm19.995.352a8.837,8.837,0,0,1-6.583-2.558,9.278,9.278,0,0,1-2.522-6.812v-.527a11.413,11.413,0,0,1,1.1-5.089,8.362,8.362,0,0,1,3.085-3.489,8.156,8.156,0,0,1,4.43-1.248,7.465,7.465,0,0,1,6,2.479q2.118,2.479,2.118,7.014v1.723H78.4a5.712,5.712,0,0,0,1.573,3.727,4.723,4.723,0,0,0,3.472,1.371,5.784,5.784,0,0,0,4.781-2.373l2.3,2.2a7.69,7.69,0,0,1-3.05,2.646A9.548,9.548,0,0,1,83.194,38.352Zm-.51-16.295a3.6,3.6,0,0,0-2.839,1.23,6.378,6.378,0,0,0-1.38,3.428H86.6V26.4a5.192,5.192,0,0,0-1.143-3.243A3.57,3.57,0,0,0,82.684,22.057Zm20.188,16.295a8.837,8.837,0,0,1-6.583-2.558,9.278,9.278,0,0,1-2.522-6.812v-.527a11.413,11.413,0,0,1,1.1-5.089,8.362,8.362,0,0,1,3.085-3.489,8.156,8.156,0,0,1,4.43-1.248,7.465,7.465,0,0,1,6,2.479q2.118,2.479,2.118,7.014v1.723H98.074a5.712,5.712,0,0,0,1.573,3.727,4.723,4.723,0,0,0,3.472,1.371,5.784,5.784,0,0,0,4.781-2.373l2.3,2.2a7.69,7.69,0,0,1-3.05,2.646A9.548,9.548,0,0,1,102.873,38.352Zm-.51-16.295a3.6,3.6,0,0,0-2.839,1.23,6.378,6.378,0,0,0-1.38,3.428h8.139V26.4a5.192,5.192,0,0,0-1.143-3.243A3.57,3.57,0,0,0,102.363,22.057ZM118.719,38h-4.271V11h4.271Zm15.671-5.168a1.936,1.936,0,0,0-.94-1.74,10,10,0,0,0-3.12-1.055,16.039,16.039,0,0,1-3.639-1.16q-3.2-1.547-3.2-4.482a5.063,5.063,0,0,1,2.074-4.113,8.2,8.2,0,0,1,5.273-1.652,8.532,8.532,0,0,1,5.511,1.688,5.355,5.355,0,0,1,2.1,4.377h-4.271a2.632,2.632,0,0,0-.914-2.048,3.5,3.5,0,0,0-2.426-.817,3.785,3.785,0,0,0-2.294.65,2.05,2.05,0,0,0-.888,1.74,1.731,1.731,0,0,0,.826,1.529,11.361,11.361,0,0,0,3.34,1.1,15.81,15.81,0,0,1,3.946,1.318A5.588,5.588,0,0,1,137.9,30a4.684,4.684,0,0,1,.694,2.6,4.956,4.956,0,0,1-2.127,4.157,9.069,9.069,0,0,1-5.572,1.591,9.835,9.835,0,0,1-4.166-.844,6.856,6.856,0,0,1-2.848-2.32,5.492,5.492,0,0,1-1.02-3.182h4.148a3.01,3.01,0,0,0,1.143,2.329,4.44,4.44,0,0,0,2.795.817,4.319,4.319,0,0,0,2.566-.642A1.986,1.986,0,0,0,134.389,32.832Zm34.294-4.148a11.425,11.425,0,0,1-1.978,7.049,6.442,6.442,0,0,1-5.44,2.619,6.2,6.2,0,0,1-5.2-2.408L155.852,38h-3.867V11h4.271v9.809a6.183,6.183,0,0,1,4.975-2.18,6.515,6.515,0,0,1,5.467,2.584q1.986,2.584,1.986,7.225Zm-4.271-.369a8.075,8.075,0,0,0-1.09-4.641,3.629,3.629,0,0,0-3.164-1.547,3.966,3.966,0,0,0-3.9,2.426v7.84a4.007,4.007,0,0,0,3.938,2.479,3.6,3.6,0,0,0,3.094-1.494,7.824,7.824,0,0,0,1.125-4.518ZM183.985,38a6.592,6.592,0,0,1-.492-1.775,7.185,7.185,0,0,1-9.668.492,5.23,5.23,0,0,1-1.811-4.043,5.4,5.4,0,0,1,2.259-4.667,10.946,10.946,0,0,1,6.46-1.626h2.619V25.133a3.331,3.331,0,0,0-.826-2.364,3.275,3.275,0,0,0-2.514-.888,3.762,3.762,0,0,0-2.391.729,2.258,2.258,0,0,0-.932,1.854h-4.271a4.741,4.741,0,0,1,1.037-2.927,6.909,6.909,0,0,1,2.821-2.136,9.91,9.91,0,0,1,3.981-.773,7.981,7.981,0,0,1,5.326,1.679,5.986,5.986,0,0,1,2.039,4.72v8.578a9.722,9.722,0,0,0,.721,4.1V38Zm-4.693-3.076a4.859,4.859,0,0,0,2.382-.615,4.11,4.11,0,0,0,1.679-1.652V29.07h-2.3a6.3,6.3,0,0,0-3.568.826,2.676,2.676,0,0,0-1.2,2.338,2.5,2.5,0,0,0,.817,1.96A3.165,3.165,0,0,0,179.292,34.924Zm12.366-6.574a11.308,11.308,0,0,1,2.039-7.058,6.533,6.533,0,0,1,5.467-2.663,6.208,6.208,0,0,1,4.887,2.109V11h4.271V38h-3.867l-.211-1.969a6.3,6.3,0,0,1-5.115,2.32,6.5,6.5,0,0,1-5.405-2.689A11.722,11.722,0,0,1,191.658,28.35Zm4.271.369a7.917,7.917,0,0,0,1.116,4.526,3.622,3.622,0,0,0,3.173,1.626,4.034,4.034,0,0,0,3.832-2.338V24.412a3.973,3.973,0,0,0-3.8-2.285,3.649,3.649,0,0,0-3.2,1.644A8.817,8.817,0,0,0,195.929,28.719Zm31.886-14.361V18.98h3.357v3.164h-3.357V32.762a2.338,2.338,0,0,0,.431,1.573,2,2,0,0,0,1.538.483,6.58,6.58,0,0,0,1.494-.176v3.3a10.52,10.52,0,0,1-2.812.4q-4.922,0-4.922-5.432V22.145h-3.129V18.98h3.129V14.357Zm5.651,13.957a11.215,11.215,0,0,1,1.107-5.036,8.088,8.088,0,0,1,3.111-3.445,8.766,8.766,0,0,1,4.605-1.2,8.308,8.308,0,0,1,6.249,2.479,9.748,9.748,0,0,1,2.593,6.574l.018,1a11.315,11.315,0,0,1-1.081,5.027,7.991,7.991,0,0,1-3.094,3.428,8.831,8.831,0,0,1-4.649,1.213,8.25,8.25,0,0,1-6.442-2.681,10.267,10.267,0,0,1-2.417-7.146Zm4.271.369a7.664,7.664,0,0,0,1.213,4.6,3.943,3.943,0,0,0,3.375,1.661,3.9,3.9,0,0,0,3.366-1.687,8.465,8.465,0,0,0,1.2-4.939,7.565,7.565,0,0,0-1.239-4.57,4.177,4.177,0,0,0-6.688-.026A8.3,8.3,0,0,0,237.738,28.684Zm30.919-7.629a6.686,6.686,0,0,1,5.291-2.426q6.082,0,6.17,6.943V38h-4.271V25.73a3.756,3.756,0,0,0-.853-2.786,3.485,3.485,0,0,0-2.5-.817,4.115,4.115,0,0,0-3.832,2.285V38h-4.271V11h4.271ZM296.157,38a6.592,6.592,0,0,1-.492-1.775,7.185,7.185,0,0,1-9.668.492,5.23,5.23,0,0,1-1.811-4.043,5.4,5.4,0,0,1,2.259-4.667,10.946,10.946,0,0,1,6.46-1.626h2.619V25.133a3.331,3.331,0,0,0-.826-2.364,3.275,3.275,0,0,0-2.514-.888,3.762,3.762,0,0,0-2.391.729,2.258,2.258,0,0,0-.932,1.854h-4.271a4.741,4.741,0,0,1,1.037-2.927,6.909,6.909,0,0,1,2.821-2.136,9.91,9.91,0,0,1,3.981-.773,7.981,7.981,0,0,1,5.326,1.679,5.986,5.986,0,0,1,2.039,4.72v8.578a9.722,9.722,0,0,0,.721,4.1V38Zm-4.693-3.076a4.859,4.859,0,0,0,2.382-.615,4.11,4.11,0,0,0,1.679-1.652V29.07h-2.3a6.3,6.3,0,0,0-3.568.826,2.676,2.676,0,0,0-1.2,2.338,2.5,2.5,0,0,0,.817,1.96A3.165,3.165,0,0,0,291.464,34.924Zm19.608-2.338L315.1,18.98h4.412L312.918,38h-3.709l-6.645-19.02h4.43Zm19.837,5.766a8.837,8.837,0,0,1-6.583-2.558,9.278,9.278,0,0,1-2.522-6.812v-.527a11.413,11.413,0,0,1,1.1-5.089,8.362,8.362,0,0,1,3.085-3.489,8.156,8.156,0,0,1,4.43-1.248,7.465,7.465,0,0,1,6,2.479q2.118,2.479,2.118,7.014v1.723H326.11a5.712,5.712,0,0,0,1.573,3.727,4.723,4.723,0,0,0,3.472,1.371,5.784,5.784,0,0,0,4.781-2.373l2.3,2.2a7.69,7.69,0,0,1-3.05,2.646A9.548,9.548,0,0,1,330.909,38.352Zm-.51-16.295a3.6,3.6,0,0,0-2.839,1.23,6.378,6.378,0,0,0-1.38,3.428h8.139V26.4a5.192,5.192,0,0,0-1.143-3.243A3.57,3.57,0,0,0,330.4,22.057ZM356.08,38h-4.271V11h4.271Zm4.21-9.686a11.215,11.215,0,0,1,1.107-5.036,8.088,8.088,0,0,1,3.111-3.445,8.766,8.766,0,0,1,4.605-1.2,8.308,8.308,0,0,1,6.249,2.479,9.748,9.748,0,0,1,2.593,6.574l.018,1a11.315,11.315,0,0,1-1.081,5.027,7.991,7.991,0,0,1-3.094,3.428,8.831,8.831,0,0,1-4.649,1.213,8.25,8.25,0,0,1-6.442-2.681,10.267,10.267,0,0,1-2.417-7.146Zm4.271.369a7.664,7.664,0,0,0,1.213,4.6,3.943,3.943,0,0,0,3.375,1.661,3.9,3.9,0,0,0,3.366-1.687,8.465,8.465,0,0,0,1.2-4.939,7.565,7.565,0,0,0-1.239-4.57,4.177,4.177,0,0,0-6.688-.026A8.3,8.3,0,0,0,364.561,28.684Zm28.046,4.148a1.936,1.936,0,0,0-.94-1.74,10,10,0,0,0-3.12-1.055,16.039,16.039,0,0,1-3.639-1.16q-3.2-1.547-3.2-4.482a5.063,5.063,0,0,1,2.074-4.113,8.2,8.2,0,0,1,5.273-1.652,8.532,8.532,0,0,1,5.511,1.688,5.355,5.355,0,0,1,2.1,4.377H392.4a2.632,2.632,0,0,0-.914-2.048,3.5,3.5,0,0,0-2.426-.817,3.785,3.785,0,0,0-2.294.65,2.05,2.05,0,0,0-.888,1.74,1.731,1.731,0,0,0,.826,1.529,11.361,11.361,0,0,0,3.34,1.1,15.81,15.81,0,0,1,3.946,1.318A5.588,5.588,0,0,1,396.113,30a4.684,4.684,0,0,1,.694,2.6,4.956,4.956,0,0,1-2.127,4.157,9.069,9.069,0,0,1-5.572,1.591,9.835,9.835,0,0,1-4.166-.844,6.856,6.856,0,0,1-2.848-2.32,5.492,5.492,0,0,1-1.02-3.182h4.148a3.01,3.01,0,0,0,1.143,2.329,4.44,4.44,0,0,0,2.795.817,4.319,4.319,0,0,0,2.566-.642A1.986,1.986,0,0,0,392.606,32.832Zm13.631-18.475V18.98H409.6v3.164h-3.357V32.762a2.338,2.338,0,0,0,.431,1.573,2,2,0,0,0,1.538.483,6.58,6.58,0,0,0,1.494-.176v3.3a10.52,10.52,0,0,1-2.812.4q-4.922,0-4.922-5.432V22.145h-3.129V18.98h3.129V14.357ZM27.135,54.98l.123,1.986a6.844,6.844,0,0,1,5.484-2.338q3.814,0,5.221,2.918A6.746,6.746,0,0,1,43.8,54.629a5.93,5.93,0,0,1,4.685,1.74A7.662,7.662,0,0,1,50.057,61.5V74H45.785V61.625a3.783,3.783,0,0,0-.791-2.654,3.463,3.463,0,0,0-2.619-.844,3.556,3.556,0,0,0-2.382.782A4.125,4.125,0,0,0,38.7,60.957L38.719,74H34.447V61.484q-.088-3.357-3.428-3.357a3.76,3.76,0,0,0-3.639,2.092V74H23.109V54.98Zm34.321,12.9,3.867-12.9h4.553l-7.559,21.9q-1.74,4.8-5.906,4.8a7.615,7.615,0,0,1-2.057-.318V78.043l.809.053a4.159,4.159,0,0,0,2.435-.588,3.9,3.9,0,0,0,1.292-1.976L59.5,73.9,52.825,54.98H57.43Zm25.013-12.9V75.688a6.257,6.257,0,0,1-1.45,4.456,5.558,5.558,0,0,1-4.245,1.538,8.537,8.537,0,0,1-2.268-.3V78.008a6.581,6.581,0,0,0,1.512.158q2.127,0,2.18-2.32V54.98Zm-4.641-4.939a2.267,2.267,0,0,1,.624-1.635,2.357,2.357,0,0,1,1.784-.65,2.387,2.387,0,0,1,1.793.65,2.25,2.25,0,0,1,.633,1.635,2.2,2.2,0,0,1-.633,1.608,2.406,2.406,0,0,1-1.793.642,2.375,2.375,0,0,1-1.784-.642A2.214,2.214,0,0,1,81.828,50.041ZM90.59,64.314A11.215,11.215,0,0,1,91.7,59.278a8.088,8.088,0,0,1,3.111-3.445,8.766,8.766,0,0,1,4.605-1.2,8.308,8.308,0,0,1,6.249,2.479,9.748,9.748,0,0,1,2.593,6.574l.018,1a11.315,11.315,0,0,1-1.081,5.027,7.991,7.991,0,0,1-3.094,3.428,8.831,8.831,0,0,1-4.649,1.213,8.25,8.25,0,0,1-6.442-2.681,10.267,10.267,0,0,1-2.417-7.146Zm4.271.369a7.664,7.664,0,0,0,1.213,4.6,3.943,3.943,0,0,0,3.375,1.661,3.9,3.9,0,0,0,3.366-1.687,8.465,8.465,0,0,0,1.2-4.939,7.565,7.565,0,0,0-1.239-4.57,4.177,4.177,0,0,0-6.688-.026A8.3,8.3,0,0,0,94.862,64.684Zm34.075,0a11.425,11.425,0,0,1-1.978,7.049,6.442,6.442,0,0,1-5.44,2.619,6.2,6.2,0,0,1-5.2-2.408L116.1,74h-3.867V47h4.271v9.809a6.183,6.183,0,0,1,4.975-2.18,6.515,6.515,0,0,1,5.467,2.584q1.986,2.584,1.986,7.225Zm-4.271-.369a8.075,8.075,0,0,0-1.09-4.641,3.629,3.629,0,0,0-3.164-1.547,3.966,3.966,0,0,0-3.9,2.426v7.84a4.007,4.007,0,0,0,3.938,2.479,3.6,3.6,0,0,0,3.094-1.494,7.824,7.824,0,0,0,1.125-4.518ZM135.537,69.5a2.44,2.44,0,0,1,1.846.677,2.351,2.351,0,0,1,.65,1.7,2.268,2.268,0,0,1-.65,1.661,2.879,2.879,0,0,1-3.656.009,2.229,2.229,0,0,1-.668-1.67,2.351,2.351,0,0,1,.65-1.7A2.416,2.416,0,0,1,135.537,69.5Zm17.49,4.5V48.406H161.8q4.342,0,6.609,1.74a6.129,6.129,0,0,1,2.268,5.186,5.527,5.527,0,0,1-.949,3.164,6.11,6.11,0,0,1-2.777,2.18,5.649,5.649,0,0,1,3.208,2.118,6.169,6.169,0,0,1,1.134,3.735,6.814,6.814,0,0,1-2.312,5.537Q166.667,74,162.361,74Zm4.447-11.549v8h4.939a4.78,4.78,0,0,0,3.27-1.037,3.64,3.64,0,0,0,1.178-2.883q0-3.99-4.078-4.078Zm0-3.27h4.359a5.041,5.041,0,0,0,3.243-.94,3.222,3.222,0,0,0,1.169-2.663,3.266,3.266,0,0,0-1.081-2.742,5.459,5.459,0,0,0-3.366-.844h-4.324Zm29.733,12.955a6.625,6.625,0,0,1-5.344,2.215,5.9,5.9,0,0,1-4.685-1.811,7.7,7.7,0,0,1-1.591-5.238V54.98h4.271V67.25q0,3.621,3.006,3.621,3.111,0,4.2-2.232V54.98h4.271V74h-4.025ZM201.4,50.357V54.98h3.357v3.164H201.4V68.762a2.338,2.338,0,0,0,.431,1.573,2,2,0,0,0,1.538.483,6.58,6.58,0,0,0,1.494-.176v3.3a10.52,10.52,0,0,1-2.812.4q-4.922,0-4.922-5.432V58.145H194V54.98h3.129V50.357Zm7.585,29.408-2.3-1.371a12.421,12.421,0,0,0,1.4-2.786,8.314,8.314,0,0,0,.4-2.417V69.869h3.85l-.018,3.076a8.573,8.573,0,0,1-.94,3.735A9.279,9.279,0,0,1,208.985,79.766ZM230.518,74h-4.271V54.98h4.271Zm-4.535-23.959a2.267,2.267,0,0,1,.624-1.635,2.357,2.357,0,0,1,1.784-.65,2.387,2.387,0,0,1,1.793.65,2.25,2.25,0,0,1,.633,1.635,2.2,2.2,0,0,1-.633,1.608,2.406,2.406,0,0,1-1.793.642,2.375,2.375,0,0,1-1.784-.642A2.214,2.214,0,0,1,225.983,50.041Zm14.9.316V54.98h3.357v3.164H240.88V68.762a2.338,2.338,0,0,0,.431,1.573,2,2,0,0,0,1.538.483,6.58,6.58,0,0,0,1.494-.176v3.3a10.52,10.52,0,0,1-2.812.4q-4.922,0-4.922-5.432V58.145h-3.129V54.98h3.129V50.357ZM261.727,74h-4.271V54.98h4.271Zm-4.535-23.959a2.267,2.267,0,0,1,.624-1.635,2.357,2.357,0,0,1,1.784-.65,2.387,2.387,0,0,1,1.793.65,2.25,2.25,0,0,1,.633,1.635,2.2,2.2,0,0,1-.633,1.608,2.406,2.406,0,0,1-1.793.642,2.375,2.375,0,0,1-1.784-.642A2.214,2.214,0,0,1,257.192,50.041ZM277.4,68.832a1.936,1.936,0,0,0-.94-1.74,10,10,0,0,0-3.12-1.055,16.039,16.039,0,0,1-3.639-1.16q-3.2-1.547-3.2-4.482a5.063,5.063,0,0,1,2.074-4.113,8.2,8.2,0,0,1,5.273-1.652,8.532,8.532,0,0,1,5.511,1.688,5.355,5.355,0,0,1,2.1,4.377h-4.271a2.632,2.632,0,0,0-.914-2.048,3.5,3.5,0,0,0-2.426-.817,3.785,3.785,0,0,0-2.294.65,2.05,2.05,0,0,0-.888,1.74,1.731,1.731,0,0,0,.826,1.529,11.361,11.361,0,0,0,3.34,1.1,15.81,15.81,0,0,1,3.946,1.318A5.588,5.588,0,0,1,280.9,66a4.684,4.684,0,0,1,.694,2.6,4.956,4.956,0,0,1-2.127,4.157,9.069,9.069,0,0,1-5.572,1.591,9.835,9.835,0,0,1-4.166-.844,6.856,6.856,0,0,1-2.848-2.32,5.492,5.492,0,0,1-1.02-3.182h4.148a3.01,3.01,0,0,0,1.143,2.329,4.44,4.44,0,0,0,2.795.817,4.319,4.319,0,0,0,2.566-.642A1.986,1.986,0,0,0,277.4,68.832ZM298.965,54.98l.123,2.2a6.839,6.839,0,0,1,5.537-2.549q5.941,0,6.047,6.8V74H306.4V61.678A3.917,3.917,0,0,0,305.618,59a3.29,3.29,0,0,0-2.558-.87,4.116,4.116,0,0,0-3.85,2.338V74H294.94V54.98Zm15.618,9.334a11.215,11.215,0,0,1,1.107-5.036,8.088,8.088,0,0,1,3.111-3.445,8.766,8.766,0,0,1,4.605-1.2,8.308,8.308,0,0,1,6.249,2.479,9.748,9.748,0,0,1,2.593,6.574l.018,1a11.315,11.315,0,0,1-1.081,5.027,7.991,7.991,0,0,1-3.094,3.428,8.831,8.831,0,0,1-4.649,1.213A8.25,8.25,0,0,1,317,71.671a10.267,10.267,0,0,1-2.417-7.146Zm4.271.369a7.664,7.664,0,0,0,1.213,4.6,3.943,3.943,0,0,0,3.375,1.661,3.9,3.9,0,0,0,3.366-1.687,8.465,8.465,0,0,0,1.2-4.939,7.565,7.565,0,0,0-1.239-4.57,4.177,4.177,0,0,0-6.688-.026A8.3,8.3,0,0,0,318.854,64.684Zm22.737-14.326V54.98h3.357v3.164h-3.357V68.762a2.338,2.338,0,0,0,.431,1.573,2,2,0,0,0,1.538.483,6.58,6.58,0,0,0,1.494-.176v3.3a10.52,10.52,0,0,1-2.812.4q-4.922,0-4.922-5.432V58.145h-3.129V54.98h3.129V50.357Zm11.188,6.7a6.686,6.686,0,0,1,5.291-2.426q6.082,0,6.17,6.943V74h-4.271V61.73a3.756,3.756,0,0,0-.853-2.786,3.485,3.485,0,0,0-2.5-.817,4.115,4.115,0,0,0-3.832,2.285V74h-4.271V47h4.271ZM373.46,74h-4.271V54.98h4.271Zm-4.535-23.959a2.267,2.267,0,0,1,.624-1.635,2.357,2.357,0,0,1,1.784-.65,2.387,2.387,0,0,1,1.793.65,2.25,2.25,0,0,1,.633,1.635,2.2,2.2,0,0,1-.633,1.608,2.406,2.406,0,0,1-1.793.642,2.375,2.375,0,0,1-1.784-.642A2.214,2.214,0,0,1,368.925,50.041Zm13.508,4.939.123,2.2a6.839,6.839,0,0,1,5.537-2.549q5.941,0,6.047,6.8V74h-4.271V61.678A3.917,3.917,0,0,0,389.086,59a3.29,3.29,0,0,0-2.558-.87,4.116,4.116,0,0,0-3.85,2.338V74h-4.271V54.98ZM398.1,64.35a11.124,11.124,0,0,1,2.083-7.075,6.686,6.686,0,0,1,5.528-2.646A6.263,6.263,0,0,1,410.83,56.9l.193-1.916h3.85V73.42a7.664,7.664,0,0,1-2.329,5.906,8.871,8.871,0,0,1-6.284,2.162,10.129,10.129,0,0,1-4.087-.87,7.262,7.262,0,0,1-3.032-2.276l2.021-2.566a6.105,6.105,0,0,0,4.852,2.338,4.718,4.718,0,0,0,3.357-1.151,4.412,4.412,0,0,0,1.23-3.384V72.295a6.289,6.289,0,0,1-4.922,2.057,6.67,6.67,0,0,1-5.458-2.654A11.484,11.484,0,0,1,398.1,64.35Zm4.254.369a7.657,7.657,0,0,0,1.169,4.509,3.759,3.759,0,0,0,3.243,1.644,4.111,4.111,0,0,0,3.832-2.215V60.289a4.052,4.052,0,0,0-3.8-2.162,3.773,3.773,0,0,0-3.278,1.67A8.574,8.574,0,0,0,402.357,64.719ZM20.618,100.684a11.324,11.324,0,0,1-2,7.04,6.418,6.418,0,0,1-5.379,2.628,6.461,6.461,0,0,1-5.01-2.057v9.018H3.953V90.98H7.891l.176,1.934a6.274,6.274,0,0,1,5.115-2.285,6.483,6.483,0,0,1,5.458,2.593,11.626,11.626,0,0,1,1.978,7.2Zm-4.254-.369A7.933,7.933,0,0,0,15.23,95.8a3.686,3.686,0,0,0-3.243-1.67,3.931,3.931,0,0,0-3.762,2.162v8.438a3.967,3.967,0,0,0,3.8,2.215,3.682,3.682,0,0,0,3.19-1.644A8.732,8.732,0,0,0,16.364,100.314Zm16.6,10.037a8.837,8.837,0,0,1-6.583-2.558,9.278,9.278,0,0,1-2.522-6.812v-.527a11.413,11.413,0,0,1,1.1-5.089,8.362,8.362,0,0,1,3.085-3.489,8.156,8.156,0,0,1,4.43-1.248,7.465,7.465,0,0,1,6,2.479q2.118,2.479,2.118,7.014v1.723H28.167a5.712,5.712,0,0,0,1.573,3.727,4.723,4.723,0,0,0,3.472,1.371,5.784,5.784,0,0,0,4.781-2.373l2.3,2.2a7.69,7.69,0,0,1-3.05,2.646A9.548,9.548,0,0,1,32.966,110.352Zm-.51-16.295a3.6,3.6,0,0,0-2.839,1.23,6.378,6.378,0,0,0-1.38,3.428h8.139V98.4a5.192,5.192,0,0,0-1.143-3.243A3.57,3.57,0,0,0,32.456,94.057Zm21.77.826a10.57,10.57,0,0,0-1.74-.141,3.918,3.918,0,0,0-3.955,2.25V110H44.259V90.98h4.078l.105,2.127a4.813,4.813,0,0,1,4.289-2.479,4,4,0,0,1,1.512.246Zm13.719,9.949a1.936,1.936,0,0,0-.94-1.74,10,10,0,0,0-3.12-1.055,16.039,16.039,0,0,1-3.639-1.16q-3.2-1.547-3.2-4.482a5.063,5.063,0,0,1,2.074-4.113,8.2,8.2,0,0,1,5.273-1.652,8.532,8.532,0,0,1,5.511,1.688,5.355,5.355,0,0,1,2.1,4.377H67.735a2.632,2.632,0,0,0-.914-2.048,3.5,3.5,0,0,0-2.426-.817,3.785,3.785,0,0,0-2.294.65,2.05,2.05,0,0,0-.888,1.74,1.731,1.731,0,0,0,.826,1.529,11.361,11.361,0,0,0,3.34,1.1,15.81,15.81,0,0,1,3.946,1.318A5.588,5.588,0,0,1,71.452,102a4.684,4.684,0,0,1,.694,2.6,4.956,4.956,0,0,1-2.127,4.157,9.069,9.069,0,0,1-5.572,1.591,9.835,9.835,0,0,1-4.166-.844,6.856,6.856,0,0,1-2.848-2.32,5.492,5.492,0,0,1-1.02-3.182h4.148a3.01,3.01,0,0,0,1.143,2.329,4.44,4.44,0,0,0,2.795.817,4.319,4.319,0,0,0,2.566-.642A1.986,1.986,0,0,0,67.946,104.832Zm7.479-4.518a11.215,11.215,0,0,1,1.107-5.036,8.088,8.088,0,0,1,3.111-3.445,8.766,8.766,0,0,1,4.605-1.2A8.308,8.308,0,0,1,90.5,93.107a9.748,9.748,0,0,1,2.593,6.574l.018,1a11.315,11.315,0,0,1-1.081,5.027,7.991,7.991,0,0,1-3.094,3.428,8.831,8.831,0,0,1-4.649,1.213,8.25,8.25,0,0,1-6.442-2.681,10.267,10.267,0,0,1-2.417-7.146Zm4.271.369a7.664,7.664,0,0,0,1.213,4.6,3.943,3.943,0,0,0,3.375,1.661,3.9,3.9,0,0,0,3.366-1.687,8.465,8.465,0,0,0,1.2-4.939,7.565,7.565,0,0,0-1.239-4.57,4.177,4.177,0,0,0-6.688-.026A8.3,8.3,0,0,0,79.7,100.684Zm21.348-9.7.123,2.2a6.839,6.839,0,0,1,5.537-2.549q5.941,0,6.047,6.8V110H108.48V97.678A3.917,3.917,0,0,0,107.7,95a3.29,3.29,0,0,0-2.558-.87,4.116,4.116,0,0,0-3.85,2.338V110H97.019V90.98ZM128.826,110a6.592,6.592,0,0,1-.492-1.775,7.185,7.185,0,0,1-9.668.492,5.23,5.23,0,0,1-1.811-4.043,5.4,5.4,0,0,1,2.259-4.667,10.946,10.946,0,0,1,6.46-1.626h2.619V97.133a3.331,3.331,0,0,0-.826-2.364,3.275,3.275,0,0,0-2.514-.888,3.762,3.762,0,0,0-2.391.729,2.258,2.258,0,0,0-.932,1.854H117.26a4.741,4.741,0,0,1,1.037-2.927,6.909,6.909,0,0,1,2.821-2.136,9.91,9.91,0,0,1,3.981-.773,7.981,7.981,0,0,1,5.326,1.679,5.986,5.986,0,0,1,2.039,4.72v8.578a9.722,9.722,0,0,0,.721,4.1v.3Zm-4.693-3.076a4.859,4.859,0,0,0,2.382-.615,4.11,4.11,0,0,0,1.679-1.652V101.07h-2.3a6.3,6.3,0,0,0-3.568.826,2.676,2.676,0,0,0-1.2,2.338,2.5,2.5,0,0,0,.817,1.96A3.165,3.165,0,0,0,124.133,106.924ZM141.843,110h-4.271V83h4.271Zm7.673-4.5a2.44,2.44,0,0,1,1.846.677,2.351,2.351,0,0,1,.65,1.7,2.268,2.268,0,0,1-.65,1.661,2.879,2.879,0,0,1-3.656.009,2.229,2.229,0,0,1-.668-1.67,2.351,2.351,0,0,1,.65-1.7A2.416,2.416,0,0,1,149.515,105.5ZM172.77,84.406l7.383,19.617,7.365-19.617h5.748V110h-4.43v-8.437l.439-11.285L181.718,110h-3.182l-7.541-19.705.439,11.268V110H167V84.406ZM209.833,110a6.592,6.592,0,0,1-.492-1.775,7.185,7.185,0,0,1-9.668.492,5.23,5.23,0,0,1-1.811-4.043,5.4,5.4,0,0,1,2.259-4.667,10.946,10.946,0,0,1,6.46-1.626H209.2V97.133a3.331,3.331,0,0,0-.826-2.364,3.275,3.275,0,0,0-2.514-.888,3.762,3.762,0,0,0-2.391.729,2.258,2.258,0,0,0-.932,1.854h-4.271a4.741,4.741,0,0,1,1.037-2.927,6.909,6.909,0,0,1,2.821-2.136,9.91,9.91,0,0,1,3.981-.773,7.981,7.981,0,0,1,5.326,1.679,5.986,5.986,0,0,1,2.039,4.72v8.578a9.722,9.722,0,0,0,.721,4.1v.3Zm-4.693-3.076a4.859,4.859,0,0,0,2.382-.615,4.11,4.11,0,0,0,1.679-1.652V101.07h-2.3a6.3,6.3,0,0,0-3.568.826,2.676,2.676,0,0,0-1.2,2.338,2.5,2.5,0,0,0,.817,1.96A3.165,3.165,0,0,0,205.14,106.924ZM222.27,90.98l.123,2.2a6.839,6.839,0,0,1,5.537-2.549q5.941,0,6.047,6.8V110h-4.271V97.678A3.917,3.917,0,0,0,228.923,95a3.29,3.29,0,0,0-2.558-.87,4.116,4.116,0,0,0-3.85,2.338V110h-4.271V90.98Zm23.071,12.9,3.867-12.9h4.553l-7.559,21.9q-1.74,4.8-5.906,4.8a7.615,7.615,0,0,1-2.057-.318v-3.321l.809.053a4.159,4.159,0,0,0,2.435-.588,3.9,3.9,0,0,0,1.292-1.976l.615-1.633L236.71,90.98h4.605Zm37.212-3.2a11.324,11.324,0,0,1-2,7.04,6.961,6.961,0,0,1-10.389.571v9.018h-4.271V90.98h3.938L270,92.914a6.274,6.274,0,0,1,5.115-2.285,6.483,6.483,0,0,1,5.458,2.593,11.626,11.626,0,0,1,1.978,7.2Zm-4.254-.369a7.933,7.933,0,0,0-1.134-4.518,3.686,3.686,0,0,0-3.243-1.67,3.931,3.931,0,0,0-3.762,2.162v8.438a3.967,3.967,0,0,0,3.8,2.215,3.682,3.682,0,0,0,3.19-1.644A8.732,8.732,0,0,0,278.3,100.314Zm16.6,10.037a8.837,8.837,0,0,1-6.583-2.558,9.278,9.278,0,0,1-2.522-6.812v-.527a11.413,11.413,0,0,1,1.1-5.089,8.362,8.362,0,0,1,3.085-3.489,8.156,8.156,0,0,1,4.43-1.248,7.465,7.465,0,0,1,6,2.479q2.118,2.479,2.118,7.014v1.723H290.1a5.712,5.712,0,0,0,1.573,3.727,4.723,4.723,0,0,0,3.472,1.371,5.784,5.784,0,0,0,4.781-2.373l2.3,2.2a7.69,7.69,0,0,1-3.05,2.646A9.548,9.548,0,0,1,294.9,110.352Zm-.51-16.295a3.6,3.6,0,0,0-2.839,1.23,6.378,6.378,0,0,0-1.38,3.428h8.139V98.4a5.192,5.192,0,0,0-1.143-3.243A3.57,3.57,0,0,0,294.391,94.057Zm11.012,6.258a11.215,11.215,0,0,1,1.107-5.036,8.088,8.088,0,0,1,3.111-3.445,8.766,8.766,0,0,1,4.605-1.2,8.308,8.308,0,0,1,6.249,2.479,9.748,9.748,0,0,1,2.593,6.574l.018,1a11.315,11.315,0,0,1-1.081,5.027,7.991,7.991,0,0,1-3.094,3.428,8.831,8.831,0,0,1-4.649,1.213,8.25,8.25,0,0,1-6.442-2.681,10.267,10.267,0,0,1-2.417-7.146Zm4.271.369a7.664,7.664,0,0,0,1.213,4.6,3.943,3.943,0,0,0,3.375,1.661,3.9,3.9,0,0,0,3.366-1.687,8.465,8.465,0,0,0,1.2-4.939,7.565,7.565,0,0,0-1.239-4.57,4.177,4.177,0,0,0-6.688-.026A8.3,8.3,0,0,0,309.675,100.684Zm34.04,0a11.324,11.324,0,0,1-2,7.04,6.961,6.961,0,0,1-10.389.571v9.018h-4.271V90.98h3.938l.176,1.934a6.274,6.274,0,0,1,5.115-2.285,6.483,6.483,0,0,1,5.458,2.593,11.626,11.626,0,0,1,1.978,7.2Zm-4.254-.369a7.933,7.933,0,0,0-1.134-4.518,3.686,3.686,0,0,0-3.243-1.67,3.931,3.931,0,0,0-3.762,2.162v8.438a3.967,3.967,0,0,0,3.8,2.215,3.682,3.682,0,0,0,3.19-1.644A8.732,8.732,0,0,0,339.461,100.314ZM352.231,110h-4.271V83h4.271Zm13.385.352a8.837,8.837,0,0,1-6.583-2.558,9.278,9.278,0,0,1-2.522-6.812v-.527a11.413,11.413,0,0,1,1.1-5.089,8.362,8.362,0,0,1,3.085-3.489,8.156,8.156,0,0,1,4.43-1.248,7.465,7.465,0,0,1,6,2.479q2.118,2.479,2.118,7.014v1.723H360.818a5.712,5.712,0,0,0,1.573,3.727,4.723,4.723,0,0,0,3.472,1.371,5.784,5.784,0,0,0,4.781-2.373l2.3,2.2a7.69,7.69,0,0,1-3.05,2.646A9.548,9.548,0,0,1,365.616,110.352Zm-.51-16.295a3.6,3.6,0,0,0-2.839,1.23,6.378,6.378,0,0,0-1.38,3.428h8.139V98.4a5.192,5.192,0,0,0-1.143-3.243A3.57,3.57,0,0,0,365.107,94.057ZM397.608,110a6.592,6.592,0,0,1-.492-1.775,7.185,7.185,0,0,1-9.668.492,5.23,5.23,0,0,1-1.811-4.043,5.4,5.4,0,0,1,2.259-4.667,10.946,10.946,0,0,1,6.46-1.626h2.619V97.133a3.331,3.331,0,0,0-.826-2.364,3.275,3.275,0,0,0-2.514-.888,3.762,3.762,0,0,0-2.391.729,2.258,2.258,0,0,0-.932,1.854h-4.271a4.741,4.741,0,0,1,1.037-2.927A6.909,6.909,0,0,1,389.9,91.4a9.91,9.91,0,0,1,3.981-.773,7.981,7.981,0,0,1,5.326,1.679,5.986,5.986,0,0,1,2.039,4.72v8.578a9.722,9.722,0,0,0,.721,4.1v.3Zm-4.693-3.076a4.859,4.859,0,0,0,2.382-.615,4.11,4.11,0,0,0,1.679-1.652V101.07h-2.3a6.3,6.3,0,0,0-3.568.826,2.676,2.676,0,0,0-1.2,2.338,2.5,2.5,0,0,0,.817,1.96A3.165,3.165,0,0,0,392.914,106.924Zm23.124-12.041a10.57,10.57,0,0,0-1.74-.141,3.918,3.918,0,0,0-3.955,2.25V110h-4.271V90.98h4.078l.105,2.127a4.813,4.813,0,0,1,4.289-2.479,4,4,0,0,1,1.512.246Zm11.434,15.469a8.837,8.837,0,0,1-6.583-2.558,9.278,9.278,0,0,1-2.522-6.812v-.527a11.413,11.413,0,0,1,1.1-5.089,8.362,8.362,0,0,1,3.085-3.489,8.156,8.156,0,0,1,4.43-1.248,7.465,7.465,0,0,1,6,2.479q2.118,2.479,2.118,7.014v1.723H422.673a5.712,5.712,0,0,0,1.573,3.727,4.723,4.723,0,0,0,3.472,1.371,5.784,5.784,0,0,0,4.781-2.373l2.3,2.2a7.69,7.69,0,0,1-3.05,2.646A9.548,9.548,0,0,1,427.472,110.352Zm-.51-16.295a3.6,3.6,0,0,0-2.839,1.23,6.378,6.378,0,0,0-1.38,3.428h8.139V98.4a5.192,5.192,0,0,0-1.143-3.243A3.57,3.57,0,0,0,426.963,94.057ZM49.84,146a6.592,6.592,0,0,1-.492-1.775,7.185,7.185,0,0,1-9.668.492,5.23,5.23,0,0,1-1.811-4.043,5.4,5.4,0,0,1,2.259-4.667,10.946,10.946,0,0,1,6.46-1.626h2.619v-1.248a3.331,3.331,0,0,0-.826-2.364,3.275,3.275,0,0,0-2.514-.888,3.762,3.762,0,0,0-2.391.729,2.258,2.258,0,0,0-.932,1.854H38.274a4.741,4.741,0,0,1,1.037-2.927,6.909,6.909,0,0,1,2.821-2.136,9.91,9.91,0,0,1,3.981-.773,7.981,7.981,0,0,1,5.326,1.679,5.986,5.986,0,0,1,2.039,4.72v8.578a9.722,9.722,0,0,0,.721,4.1v.3Zm-4.693-3.076a4.859,4.859,0,0,0,2.382-.615,4.11,4.11,0,0,0,1.679-1.652V137.07H46.9a6.3,6.3,0,0,0-3.568.826,2.676,2.676,0,0,0-1.2,2.338,2.5,2.5,0,0,0,.817,1.96A3.165,3.165,0,0,0,45.147,142.924ZM59.816,146V130.145h-2.9V126.98h2.9v-1.74a6.532,6.532,0,0,1,1.758-4.887,6.733,6.733,0,0,1,4.922-1.723,9.872,9.872,0,0,1,2.391.316l-.105,3.34a8.413,8.413,0,0,0-1.635-.141q-3.059,0-3.059,3.146v1.688h3.867v3.164H64.087V146Zm13.122,0V130.145h-2.9V126.98h2.9v-1.74a6.532,6.532,0,0,1,1.758-4.887,6.733,6.733,0,0,1,4.922-1.723,9.872,9.872,0,0,1,2.391.316l-.105,3.34a8.413,8.413,0,0,0-1.635-.141q-3.059,0-3.059,3.146v1.688h3.867v3.164H77.209V146Zm19.995.352a8.837,8.837,0,0,1-6.583-2.558,9.278,9.278,0,0,1-2.522-6.812v-.527a11.413,11.413,0,0,1,1.1-5.089,8.362,8.362,0,0,1,3.085-3.489,8.156,8.156,0,0,1,4.43-1.248,7.465,7.465,0,0,1,6,2.479q2.118,2.479,2.118,7.014v1.723H88.133a5.712,5.712,0,0,0,1.573,3.727,4.723,4.723,0,0,0,3.472,1.371,5.784,5.784,0,0,0,4.781-2.373l2.3,2.2a7.69,7.69,0,0,1-3.05,2.646A9.548,9.548,0,0,1,92.932,146.352Zm-.51-16.295a3.6,3.6,0,0,0-2.839,1.23,6.378,6.378,0,0,0-1.38,3.428h8.139V134.4a5.192,5.192,0,0,0-1.143-3.243A3.57,3.57,0,0,0,92.422,130.057Zm19.626,12.885a3.862,3.862,0,0,0,2.654-.932,3.183,3.183,0,0,0,1.125-2.3h4.025a6.274,6.274,0,0,1-1.107,3.313,7.264,7.264,0,0,1-2.812,2.435,8.381,8.381,0,0,1-3.832.9,8.109,8.109,0,0,1-6.328-2.584,10.249,10.249,0,0,1-2.338-7.137v-.439a10.078,10.078,0,0,1,2.32-6.952,8.035,8.035,0,0,1,6.328-2.61,7.814,7.814,0,0,1,5.528,1.978,7.084,7.084,0,0,1,2.241,5.194h-4.025a3.911,3.911,0,0,0-1.116-2.689,3.591,3.591,0,0,0-2.663-1.055,3.759,3.759,0,0,0-3.2,1.5,7.669,7.669,0,0,0-1.143,4.562v.686a7.8,7.8,0,0,0,1.116,4.614A3.756,3.756,0,0,0,112.048,142.941Zm16.743-20.584v4.623h3.357v3.164h-3.357v10.617a2.338,2.338,0,0,0,.431,1.573,2,2,0,0,0,1.538.483,6.58,6.58,0,0,0,1.494-.176v3.3a10.52,10.52,0,0,1-2.812.4q-4.922,0-4.922-5.432V130.145H121.39V126.98h3.129v-4.623Zm15.354,23.994a8.837,8.837,0,0,1-6.583-2.558,9.278,9.278,0,0,1-2.522-6.812v-.527a11.413,11.413,0,0,1,1.1-5.089,8.362,8.362,0,0,1,3.085-3.489,8.156,8.156,0,0,1,4.43-1.248,7.465,7.465,0,0,1,6,2.479q2.118,2.479,2.118,7.014v1.723H139.346a5.712,5.712,0,0,0,1.573,3.727,4.723,4.723,0,0,0,3.472,1.371,5.784,5.784,0,0,0,4.781-2.373l2.3,2.2a7.69,7.69,0,0,1-3.05,2.646A9.548,9.548,0,0,1,144.145,146.352Zm-.51-16.295a3.6,3.6,0,0,0-2.839,1.23,6.378,6.378,0,0,0-1.38,3.428h8.139V134.4a5.192,5.192,0,0,0-1.143-3.243A3.57,3.57,0,0,0,143.635,130.057Zm11.012,6.293a11.308,11.308,0,0,1,2.039-7.058,6.533,6.533,0,0,1,5.467-2.663,6.208,6.208,0,0,1,4.887,2.109V119h4.271v27h-3.867l-.211-1.969a6.3,6.3,0,0,1-5.115,2.32,6.5,6.5,0,0,1-5.405-2.689A11.722,11.722,0,0,1,154.648,136.35Zm4.271.369a7.917,7.917,0,0,0,1.116,4.526,3.622,3.622,0,0,0,3.173,1.626,4.034,4.034,0,0,0,3.832-2.338v-8.121a3.973,3.973,0,0,0-3.8-2.285,3.649,3.649,0,0,0-3.2,1.644A8.817,8.817,0,0,0,158.919,136.719Zm43.224-.035a11.425,11.425,0,0,1-1.978,7.049,6.442,6.442,0,0,1-5.44,2.619,6.2,6.2,0,0,1-5.2-2.408L189.311,146h-3.867V119h4.271v9.809a6.183,6.183,0,0,1,4.975-2.18,6.515,6.515,0,0,1,5.467,2.584q1.986,2.584,1.986,7.225Zm-4.271-.369a8.075,8.075,0,0,0-1.09-4.641,3.629,3.629,0,0,0-3.164-1.547,3.966,3.966,0,0,0-3.9,2.426v7.84a4.007,4.007,0,0,0,3.938,2.479,3.6,3.6,0,0,0,3.094-1.494,7.824,7.824,0,0,0,1.125-4.518Zm14.862,3.568,3.867-12.9h4.553l-7.559,21.9q-1.74,4.8-5.906,4.8a7.615,7.615,0,0,1-2.057-.318v-3.321l.809.053a4.159,4.159,0,0,0,2.435-.588,3.9,3.9,0,0,0,1.292-1.976l.615-1.633L204.1,126.98h4.605Zm40.5-2.215a9.241,9.241,0,0,1-3.023,6.39,10.307,10.307,0,0,1-7.014,2.294,9.98,9.98,0,0,1-5.388-1.45,9.519,9.519,0,0,1-3.595-4.122,14.875,14.875,0,0,1-1.318-6.205v-2.391a14.983,14.983,0,0,1,1.283-6.381,9.671,9.671,0,0,1,3.683-4.254,10.272,10.272,0,0,1,5.546-1.494,9.893,9.893,0,0,1,6.82,2.294,9.586,9.586,0,0,1,3.006,6.5H248.8a6.322,6.322,0,0,0-1.608-3.981,5.316,5.316,0,0,0-3.788-1.222,5.193,5.193,0,0,0-4.456,2.12,10.6,10.6,0,0,0-1.591,6.22v2.27a11.241,11.241,0,0,0,1.485,6.334,4.929,4.929,0,0,0,4.351,2.182,5.75,5.75,0,0,0,3.938-1.178,6.141,6.141,0,0,0,1.67-3.92Zm24.758-3.8a15.7,15.7,0,0,1-1.3,6.6,9.835,9.835,0,0,1-3.718,4.359,10.906,10.906,0,0,1-11.109,0A9.987,9.987,0,0,1,258.1,140.5a15.211,15.211,0,0,1-1.345-6.486V132.57a15.568,15.568,0,0,1,1.327-6.609,9.975,9.975,0,0,1,3.744-4.386,10.929,10.929,0,0,1,11.092-.018,9.848,9.848,0,0,1,3.735,4.324,15.535,15.535,0,0,1,1.336,6.565Zm-4.447-1.336a11.188,11.188,0,0,0-1.608-6.521,5.675,5.675,0,0,0-9.07-.009,10.972,10.972,0,0,0-1.661,6.39v1.477a11.1,11.1,0,0,0,1.644,6.521,5.292,5.292,0,0,0,4.562,2.3,5.23,5.23,0,0,0,4.544-2.25q1.591-2.25,1.591-6.574Zm17.868,7.893,6.5-20.021H302.8L293.591,146h-4.307l-9.176-25.594h4.869ZM310.739,146h-4.43V120.406h4.43Zm5.827,0V120.406h7.559a11.856,11.856,0,0,1,6.021,1.512,10.308,10.308,0,0,1,4.069,4.289,13.615,13.615,0,0,1,1.441,6.363v1.283a13.558,13.558,0,0,1-1.45,6.4,10.184,10.184,0,0,1-4.131,4.254A12.4,12.4,0,0,1,323.931,146Zm4.447-22.008v18.457h2.9a6.679,6.679,0,0,0,5.37-2.188,9.533,9.533,0,0,0,1.907-6.284v-1.424q0-4.166-1.811-6.363a6.419,6.419,0,0,0-5.256-2.2Zm27.307,12.85h-9.229V133.4h9.229ZM363.5,146h-4.254V125.439l-6.275,2.139v-3.586l9.984-3.674h.545Zm21.366-10.705a6.981,6.981,0,0,1-10.389-.1,9.283,9.283,0,0,1-2-6.214,10.187,10.187,0,0,1,1.02-4.588,7.6,7.6,0,0,1,2.9-3.2,8.229,8.229,0,0,1,4.359-1.143,7.393,7.393,0,0,1,6.135,2.883,12.142,12.142,0,0,1,2.268,7.717v1.2q0,6.926-3.129,10.564t-9.334,3.691h-.51v-3.533h.615a8.747,8.747,0,0,0,5.8-1.819A7.584,7.584,0,0,0,384.864,135.295Zm-4.113-1.072a4.311,4.311,0,0,0,2.408-.738,4.865,4.865,0,0,0,1.74-2.039v-1.67a8.018,8.018,0,0,0-1.16-4.553,3.5,3.5,0,0,0-3.006-1.723,3.453,3.453,0,0,0-2.944,1.521,6.392,6.392,0,0,0-1.1,3.841,6.313,6.313,0,0,0,1.107,3.885A3.508,3.508,0,0,0,380.751,134.223Zm15.758,7.277a2.44,2.44,0,0,1,1.846.677,2.351,2.351,0,0,1,.65,1.7,2.268,2.268,0,0,1-.65,1.661,2.879,2.879,0,0,1-3.656.009,2.229,2.229,0,0,1-.668-1.67,2.351,2.351,0,0,1,.65-1.7A2.416,2.416,0,0,1,396.509,141.5Z" transform="translate(307 46)" fill="#578e5e"/><g transform="matrix(1, 0, 0, 1, 12, -146)" filter="url(#e)"><rect width="235" height="204" rx="5" transform="translate(25 380)" fill="#dbfedf"/></g><path d="M23.885,31.672l3.938-19.266h4.412L26.329,38H22.075L17.206,19.314,12.231,38H7.959L2.053,12.406H6.465l3.973,19.23,4.887-19.23h3.727Zm10.2-3.357A11.215,11.215,0,0,1,35.2,23.278a8.088,8.088,0,0,1,3.111-3.445,8.766,8.766,0,0,1,4.605-1.2,8.308,8.308,0,0,1,6.249,2.479,9.748,9.748,0,0,1,2.593,6.574l.018,1a11.315,11.315,0,0,1-1.081,5.027A7.991,7.991,0,0,1,47.6,37.139a8.831,8.831,0,0,1-4.649,1.213,8.25,8.25,0,0,1-6.442-2.681,10.267,10.267,0,0,1-2.417-7.146Zm4.271.369a7.664,7.664,0,0,0,1.213,4.6,3.943,3.943,0,0,0,3.375,1.661,3.9,3.9,0,0,0,3.366-1.687,8.465,8.465,0,0,0,1.2-4.939,7.565,7.565,0,0,0-1.239-4.57,4.177,4.177,0,0,0-6.688-.026A8.3,8.3,0,0,0,38.36,28.684Zm27.342-5.8a10.57,10.57,0,0,0-1.74-.141,3.918,3.918,0,0,0-3.955,2.25V38H55.736V18.98h4.078l.105,2.127a4.813,4.813,0,0,1,4.289-2.479,4,4,0,0,1,1.512.246Zm9.237,6.961-1.9,1.951V38H68.77V11h4.271V26.574l1.336-1.67,5.256-5.924h5.133L77.7,26.908,85.522,38H80.582ZM92.456,38H88.185V18.98h4.271ZM87.921,14.041a2.267,2.267,0,0,1,.624-1.635,2.357,2.357,0,0,1,1.784-.65,2.387,2.387,0,0,1,1.793.65,2.25,2.25,0,0,1,.633,1.635,2.2,2.2,0,0,1-.633,1.608,2.406,2.406,0,0,1-1.793.642,2.375,2.375,0,0,1-1.784-.642A2.214,2.214,0,0,1,87.921,14.041Zm13.508,4.939.123,2.2a6.839,6.839,0,0,1,5.537-2.549q5.941,0,6.047,6.8V38h-4.271V25.678A3.917,3.917,0,0,0,108.083,23a3.29,3.29,0,0,0-2.558-.87,4.116,4.116,0,0,0-3.85,2.338V38H97.4V18.98ZM117.1,28.35a11.124,11.124,0,0,1,2.083-7.075,6.686,6.686,0,0,1,5.528-2.646,6.263,6.263,0,0,1,5.115,2.268l.193-1.916h3.85V37.42a7.664,7.664,0,0,1-2.329,5.906,8.871,8.871,0,0,1-6.284,2.162,10.129,10.129,0,0,1-4.087-.87,7.262,7.262,0,0,1-3.032-2.276l2.021-2.566a6.105,6.105,0,0,0,4.852,2.338,4.718,4.718,0,0,0,3.357-1.151,4.412,4.412,0,0,0,1.23-3.384V36.295a6.289,6.289,0,0,1-4.922,2.057,6.67,6.67,0,0,1-5.458-2.654A11.484,11.484,0,0,1,117.1,28.35Zm4.254.369a7.657,7.657,0,0,0,1.169,4.509,3.759,3.759,0,0,0,3.243,1.644,4.111,4.111,0,0,0,3.832-2.215V24.289a4.052,4.052,0,0,0-3.8-2.162,3.773,3.773,0,0,0-3.278,1.67A8.574,8.574,0,0,0,121.354,28.719Zm25.786-.4a11.215,11.215,0,0,1,1.107-5.036,8.088,8.088,0,0,1,3.111-3.445,8.766,8.766,0,0,1,4.605-1.2,8.308,8.308,0,0,1,6.249,2.479,9.748,9.748,0,0,1,2.593,6.574l.018,1a11.315,11.315,0,0,1-1.081,5.027,7.991,7.991,0,0,1-3.094,3.428A8.831,8.831,0,0,1,156,38.352a8.25,8.25,0,0,1-6.442-2.681,10.267,10.267,0,0,1-2.417-7.146Zm4.271.369a7.664,7.664,0,0,0,1.213,4.6A3.943,3.943,0,0,0,156,34.941a3.9,3.9,0,0,0,3.366-1.687,8.465,8.465,0,0,0,1.2-4.939,7.565,7.565,0,0,0-1.239-4.57,4.177,4.177,0,0,0-6.688-.026A8.3,8.3,0,0,0,151.412,28.684Zm21.348-9.7.123,2.2a6.839,6.839,0,0,1,5.537-2.549q5.941,0,6.047,6.8V38H180.2V25.678A3.917,3.917,0,0,0,179.413,23a3.29,3.29,0,0,0-2.558-.87,4.116,4.116,0,0,0-3.85,2.338V38h-4.271V18.98ZM209.867,38a6.592,6.592,0,0,1-.492-1.775,7.185,7.185,0,0,1-9.668.492,5.23,5.23,0,0,1-1.811-4.043,5.4,5.4,0,0,1,2.259-4.667,10.946,10.946,0,0,1,6.46-1.626h2.619V25.133a3.331,3.331,0,0,0-.826-2.364,3.275,3.275,0,0,0-2.514-.888,3.762,3.762,0,0,0-2.391.729,2.258,2.258,0,0,0-.932,1.854H198.3a4.741,4.741,0,0,1,1.037-2.927,6.909,6.909,0,0,1,2.821-2.136,9.91,9.91,0,0,1,3.981-.773,7.981,7.981,0,0,1,5.326,1.679,5.986,5.986,0,0,1,2.039,4.72v8.578a9.722,9.722,0,0,0,.721,4.1V38Zm-4.693-3.076a4.859,4.859,0,0,0,2.382-.615,4.11,4.11,0,0,0,1.679-1.652V29.07h-2.3a6.3,6.3,0,0,0-3.568.826,2.676,2.676,0,0,0-1.2,2.338,2.5,2.5,0,0,0,.817,1.96A3.165,3.165,0,0,0,205.173,34.924ZM8.1,54.98l.123,2.2a6.839,6.839,0,0,1,5.537-2.549q5.941,0,6.047,6.8V74H15.531V61.678A3.917,3.917,0,0,0,14.749,59a3.29,3.29,0,0,0-2.558-.87,4.116,4.116,0,0,0-3.85,2.338V74H4.07V54.98ZM32.889,74.352a8.837,8.837,0,0,1-6.583-2.558,9.278,9.278,0,0,1-2.522-6.812v-.527a11.413,11.413,0,0,1,1.1-5.089,8.362,8.362,0,0,1,3.085-3.489,8.156,8.156,0,0,1,4.43-1.248,7.465,7.465,0,0,1,6,2.479q2.118,2.479,2.118,7.014v1.723H28.091a5.712,5.712,0,0,0,1.573,3.727,4.723,4.723,0,0,0,3.472,1.371,5.784,5.784,0,0,0,4.781-2.373l2.3,2.2a7.69,7.69,0,0,1-3.05,2.646A9.548,9.548,0,0,1,32.889,74.352Zm-.51-16.295a3.6,3.6,0,0,0-2.839,1.23,6.378,6.378,0,0,0-1.38,3.428H36.3V62.4a5.192,5.192,0,0,0-1.143-3.243A3.57,3.57,0,0,0,32.38,58.057ZM60.9,68.111,63.923,54.98h4.166L62.9,74H59.388L55.31,60.939,51.3,74H47.787l-5.2-19.02h4.166l3.076,12.99,3.9-12.99h3.217Zm30.392.721a1.936,1.936,0,0,0-.94-1.74,10,10,0,0,0-3.12-1.055,16.039,16.039,0,0,1-3.639-1.16q-3.2-1.547-3.2-4.482a5.063,5.063,0,0,1,2.074-4.113,8.2,8.2,0,0,1,5.273-1.652,8.532,8.532,0,0,1,5.511,1.688,5.355,5.355,0,0,1,2.1,4.377H91.081a2.632,2.632,0,0,0-.914-2.048,3.5,3.5,0,0,0-2.426-.817,3.785,3.785,0,0,0-2.294.65,2.05,2.05,0,0,0-.888,1.74,1.731,1.731,0,0,0,.826,1.529,11.361,11.361,0,0,0,3.34,1.1,15.81,15.81,0,0,1,3.946,1.318A5.588,5.588,0,0,1,94.8,66a4.684,4.684,0,0,1,.694,2.6,4.956,4.956,0,0,1-2.127,4.157,9.069,9.069,0,0,1-5.572,1.591,9.835,9.835,0,0,1-4.166-.844,6.856,6.856,0,0,1-2.848-2.32,5.492,5.492,0,0,1-1.02-3.182h4.148a3.01,3.01,0,0,0,1.143,2.329,4.44,4.44,0,0,0,2.795.817,4.319,4.319,0,0,0,2.566-.642A1.986,1.986,0,0,0,91.292,68.832Zm14.458-2.988-1.9,1.951V74H99.579V47h4.271V62.574l1.336-1.67,5.256-5.924h5.133l-7.066,7.928L116.331,74h-4.939ZM123.266,74h-4.271V54.98h4.271ZM118.73,50.041a2.267,2.267,0,0,1,.624-1.635,2.357,2.357,0,0,1,1.784-.65,2.387,2.387,0,0,1,1.793.65,2.25,2.25,0,0,1,.633,1.635,2.2,2.2,0,0,1-.633,1.608,2.406,2.406,0,0,1-1.793.642,2.375,2.375,0,0,1-1.784-.642A2.214,2.214,0,0,1,118.73,50.041ZM132.819,74h-4.271V47h4.271Zm9.553,0H138.1V47h4.271Zm25.7,0a6.592,6.592,0,0,1-.492-1.775,7.185,7.185,0,0,1-9.668.492,5.23,5.23,0,0,1-1.811-4.043,5.4,5.4,0,0,1,2.259-4.667,10.946,10.946,0,0,1,6.46-1.626h2.619V61.133a3.331,3.331,0,0,0-.826-2.364,3.275,3.275,0,0,0-2.514-.888,3.762,3.762,0,0,0-2.391.729,2.258,2.258,0,0,0-.932,1.854H156.5a4.741,4.741,0,0,1,1.037-2.927,6.909,6.909,0,0,1,2.821-2.136,9.91,9.91,0,0,1,3.981-.773,7.981,7.981,0,0,1,5.326,1.679,5.986,5.986,0,0,1,2.039,4.72v8.578a9.722,9.722,0,0,0,.721,4.1V74Zm-4.693-3.076a4.859,4.859,0,0,0,2.382-.615,4.11,4.11,0,0,0,1.679-1.652V65.07h-2.3a6.3,6.3,0,0,0-3.568.826,2.676,2.676,0,0,0-1.2,2.338,2.5,2.5,0,0,0,.817,1.96A3.165,3.165,0,0,0,163.378,70.924Zm17.13-15.943.123,2.2a6.839,6.839,0,0,1,5.537-2.549q5.941,0,6.047,6.8V74h-4.271V61.678A3.917,3.917,0,0,0,187.16,59a3.29,3.29,0,0,0-2.558-.87,4.116,4.116,0,0,0-3.85,2.338V74h-4.271V54.98Zm15.618,9.369a11.308,11.308,0,0,1,2.039-7.058,6.533,6.533,0,0,1,5.467-2.663,6.208,6.208,0,0,1,4.887,2.109V47h4.271V74h-3.867l-.211-1.969a6.3,6.3,0,0,1-5.115,2.32,6.5,6.5,0,0,1-5.405-2.689A11.722,11.722,0,0,1,196.125,64.35Zm4.271.369a7.917,7.917,0,0,0,1.116,4.526,3.622,3.622,0,0,0,3.173,1.626,4.034,4.034,0,0,0,3.832-2.338V60.412a3.973,3.973,0,0,0-3.8-2.285,3.649,3.649,0,0,0-3.2,1.644A8.817,8.817,0,0,0,200.4,64.719ZM24.457,110a6.592,6.592,0,0,1-.492-1.775,6.649,6.649,0,0,1-4.992,2.127,6.71,6.71,0,0,1-4.676-1.635,5.23,5.23,0,0,1-1.811-4.043,5.4,5.4,0,0,1,2.259-4.667,10.946,10.946,0,0,1,6.46-1.626h2.619V97.133A3.331,3.331,0,0,0,23,94.769a3.275,3.275,0,0,0-2.514-.888,3.762,3.762,0,0,0-2.391.729,2.258,2.258,0,0,0-.932,1.854H12.89a4.741,4.741,0,0,1,1.037-2.927A6.909,6.909,0,0,1,16.749,91.4a9.91,9.91,0,0,1,3.981-.773,7.981,7.981,0,0,1,5.326,1.679,5.986,5.986,0,0,1,2.039,4.72v8.578a9.722,9.722,0,0,0,.721,4.1v.3Zm-4.693-3.076a4.859,4.859,0,0,0,2.382-.615,4.11,4.11,0,0,0,1.679-1.652V101.07h-2.3a6.3,6.3,0,0,0-3.568.826,2.676,2.676,0,0,0-1.2,2.338,2.5,2.5,0,0,0,.817,1.96A3.165,3.165,0,0,0,19.763,106.924Zm29.821-6.24a11.324,11.324,0,0,1-2,7.04,6.418,6.418,0,0,1-5.379,2.628,6.461,6.461,0,0,1-5.01-2.057v9.018H32.92V90.98h3.938l.176,1.934a6.274,6.274,0,0,1,5.115-2.285,6.483,6.483,0,0,1,5.458,2.593,11.626,11.626,0,0,1,1.978,7.2Zm-4.254-.369A7.933,7.933,0,0,0,44.2,95.8a3.686,3.686,0,0,0-3.243-1.67,3.931,3.931,0,0,0-3.762,2.162v8.438a3.967,3.967,0,0,0,3.8,2.215,3.682,3.682,0,0,0,3.19-1.644A8.732,8.732,0,0,0,45.33,100.314Zm24.881.369a11.324,11.324,0,0,1-2,7.04,6.961,6.961,0,0,1-10.389.571v9.018H53.548V90.98h3.938l.176,1.934a6.274,6.274,0,0,1,5.115-2.285,6.483,6.483,0,0,1,5.458,2.593,11.626,11.626,0,0,1,1.978,7.2Zm-4.254-.369A7.933,7.933,0,0,0,64.824,95.8a3.686,3.686,0,0,0-3.243-1.67,3.931,3.931,0,0,0-3.762,2.162v8.438a3.967,3.967,0,0,0,3.8,2.215,3.682,3.682,0,0,0,3.19-1.644A8.732,8.732,0,0,0,65.958,100.314ZM78.728,110H74.456V83h4.271Zm11.663-6.117,3.867-12.9h4.553l-7.559,21.9q-1.74,4.8-5.906,4.8a7.615,7.615,0,0,1-2.057-.318v-3.321l.809.053a4.159,4.159,0,0,0,2.435-.588,3.9,3.9,0,0,0,1.292-1.976l.615-1.633L81.76,90.98h4.605ZM106.167,110H101.9V90.98h4.271Zm-4.535-23.959a2.267,2.267,0,0,1,.624-1.635,2.357,2.357,0,0,1,1.784-.65,2.387,2.387,0,0,1,1.793.65,2.25,2.25,0,0,1,.633,1.635,2.2,2.2,0,0,1-.633,1.608,2.406,2.406,0,0,1-1.793.642,2.375,2.375,0,0,1-1.784-.642A2.214,2.214,0,0,1,101.632,86.041ZM115.14,90.98l.123,2.2a6.839,6.839,0,0,1,5.537-2.549q5.941,0,6.047,6.8V110h-4.271V97.678A3.917,3.917,0,0,0,121.793,95a3.29,3.29,0,0,0-2.558-.87,4.116,4.116,0,0,0-3.85,2.338V110h-4.271V90.98Zm15.671,9.369a11.124,11.124,0,0,1,2.083-7.075,6.686,6.686,0,0,1,5.528-2.646,6.263,6.263,0,0,1,5.115,2.268l.193-1.916h3.85V109.42a7.664,7.664,0,0,1-2.329,5.906,8.871,8.871,0,0,1-6.284,2.162,10.129,10.129,0,0,1-4.087-.87,7.262,7.262,0,0,1-3.032-2.276l2.021-2.566a6.105,6.105,0,0,0,4.852,2.338,4.718,4.718,0,0,0,3.357-1.151,4.412,4.412,0,0,0,1.23-3.384v-1.283a6.289,6.289,0,0,1-4.922,2.057,6.67,6.67,0,0,1-5.458-2.654A11.484,11.484,0,0,1,130.811,100.35Zm4.254.369a7.657,7.657,0,0,0,1.169,4.509,3.759,3.759,0,0,0,3.243,1.644,4.111,4.111,0,0,0,3.832-2.215V96.289a4.052,4.052,0,0,0-3.8-2.162,3.773,3.773,0,0,0-3.278,1.67A8.574,8.574,0,0,0,135.064,100.719ZM163.154,110V94.145h-2.9V90.98h2.9V89.24a6.532,6.532,0,0,1,1.758-4.887,6.733,6.733,0,0,1,4.922-1.723,9.872,9.872,0,0,1,2.391.316l-.105,3.34a8.413,8.413,0,0,0-1.635-.141q-3.059,0-3.059,3.146V90.98h3.867v3.164h-3.867V110Zm10.819-9.686a11.215,11.215,0,0,1,1.107-5.036,8.088,8.088,0,0,1,3.111-3.445,8.766,8.766,0,0,1,4.605-1.2,8.308,8.308,0,0,1,6.249,2.479,9.748,9.748,0,0,1,2.593,6.574l.018,1a11.315,11.315,0,0,1-1.081,5.027,7.991,7.991,0,0,1-3.094,3.428,8.831,8.831,0,0,1-4.649,1.213,8.25,8.25,0,0,1-6.442-2.681,10.267,10.267,0,0,1-2.417-7.146Zm4.271.369a7.664,7.664,0,0,0,1.213,4.6,3.943,3.943,0,0,0,3.375,1.661,3.9,3.9,0,0,0,3.366-1.687,8.465,8.465,0,0,0,1.2-4.939,7.565,7.565,0,0,0-1.239-4.57,4.177,4.177,0,0,0-6.688-.026A8.3,8.3,0,0,0,178.244,100.684Zm27.342-5.8a10.57,10.57,0,0,0-1.74-.141,3.918,3.918,0,0,0-3.955,2.25V110H195.62V90.98H199.7l.105,2.127a4.813,4.813,0,0,1,4.289-2.479,4,4,0,0,1,1.512.246Zm-130.37,32.1v20.707a6.257,6.257,0,0,1-1.45,4.456,5.558,5.558,0,0,1-4.245,1.538,8.537,8.537,0,0,1-2.268-.3v-3.375a6.581,6.581,0,0,0,1.512.158q2.127,0,2.18-2.32V126.98Zm-4.641-4.939a2.267,2.267,0,0,1,.624-1.635,2.357,2.357,0,0,1,1.784-.65,2.387,2.387,0,0,1,1.793.65,2.25,2.25,0,0,1,.633,1.635,2.2,2.2,0,0,1-.633,1.608,2.406,2.406,0,0,1-1.793.642,2.375,2.375,0,0,1-1.784-.642A2.214,2.214,0,0,1,70.576,122.041Zm8.762,14.273a11.215,11.215,0,0,1,1.107-5.036,8.088,8.088,0,0,1,3.111-3.445,8.766,8.766,0,0,1,4.605-1.2,8.308,8.308,0,0,1,6.249,2.479A9.748,9.748,0,0,1,97,135.682l.018,1a11.315,11.315,0,0,1-1.081,5.027,7.991,7.991,0,0,1-3.094,3.428,8.831,8.831,0,0,1-4.649,1.213,8.25,8.25,0,0,1-6.442-2.681,10.267,10.267,0,0,1-2.417-7.146Zm4.271.369a7.664,7.664,0,0,0,1.213,4.6,3.943,3.943,0,0,0,3.375,1.661,3.9,3.9,0,0,0,3.366-1.687,8.465,8.465,0,0,0,1.2-4.939,7.565,7.565,0,0,0-1.239-4.57,4.177,4.177,0,0,0-6.688-.026A8.3,8.3,0,0,0,83.61,136.684Zm34.075,0a11.425,11.425,0,0,1-1.978,7.049,6.442,6.442,0,0,1-5.44,2.619,6.2,6.2,0,0,1-5.2-2.408L104.853,146h-3.867V119h4.271v9.809a6.183,6.183,0,0,1,4.975-2.18,6.515,6.515,0,0,1,5.467,2.584q1.986,2.584,1.986,7.225Zm-4.271-.369a8.075,8.075,0,0,0-1.09-4.641,3.629,3.629,0,0,0-3.164-1.547,3.966,3.966,0,0,0-3.9,2.426v7.84a4.007,4.007,0,0,0,3.938,2.479,3.6,3.6,0,0,0,3.094-1.494,7.824,7.824,0,0,0,1.125-4.518Zm18.87,4.518a1.936,1.936,0,0,0-.94-1.74,10,10,0,0,0-3.12-1.055,16.039,16.039,0,0,1-3.639-1.16q-3.2-1.547-3.2-4.482a5.063,5.063,0,0,1,2.074-4.113,8.2,8.2,0,0,1,5.273-1.652,8.532,8.532,0,0,1,5.511,1.688,5.355,5.355,0,0,1,2.1,4.377h-4.271a2.632,2.632,0,0,0-.914-2.048,3.5,3.5,0,0,0-2.426-.817,3.785,3.785,0,0,0-2.294.65,2.05,2.05,0,0,0-.888,1.74,1.731,1.731,0,0,0,.826,1.529,11.361,11.361,0,0,0,3.34,1.1,15.81,15.81,0,0,1,3.946,1.318A5.588,5.588,0,0,1,135.79,138a4.684,4.684,0,0,1,.694,2.6,4.956,4.956,0,0,1-2.127,4.157,9.069,9.069,0,0,1-5.572,1.591,9.835,9.835,0,0,1-4.166-.844,6.856,6.856,0,0,1-2.848-2.32,5.492,5.492,0,0,1-1.02-3.182H124.9a3.01,3.01,0,0,0,1.143,2.329,4.44,4.44,0,0,0,2.795.817,4.319,4.319,0,0,0,2.566-.642A1.986,1.986,0,0,0,132.283,140.832Zm10.942.668a2.44,2.44,0,0,1,1.846.677,2.351,2.351,0,0,1,.65,1.7,2.268,2.268,0,0,1-.65,1.661,2.879,2.879,0,0,1-3.656.009,2.229,2.229,0,0,1-.668-1.67,2.351,2.351,0,0,1,.65-1.7A2.416,2.416,0,0,1,143.225,141.5Z" transform="translate(46 260)" fill="#578e5e"/><path d="M40.078,26.034H31.816L30.088,31H26.235L34.292,9.672h3.325L45.688,31H41.821Zm-7.222-2.988h6.182L35.947,14.2Zm24.089,3.647a1.614,1.614,0,0,0-.784-1.45,8.335,8.335,0,0,0-2.6-.879,13.366,13.366,0,0,1-3.032-.967,4.047,4.047,0,0,1-2.666-3.735,4.219,4.219,0,0,1,1.729-3.428,6.833,6.833,0,0,1,4.395-1.377,7.11,7.11,0,0,1,4.592,1.406,4.462,4.462,0,0,1,1.75,3.647H56.77a2.194,2.194,0,0,0-.762-1.707,2.919,2.919,0,0,0-2.021-.681,3.154,3.154,0,0,0-1.912.542,1.709,1.709,0,0,0-.74,1.45,1.443,1.443,0,0,0,.688,1.274,9.467,9.467,0,0,0,2.783.916A13.175,13.175,0,0,1,58.1,22.8a4.657,4.657,0,0,1,1.772,1.531,3.9,3.9,0,0,1,.579,2.168,4.13,4.13,0,0,1-1.772,3.464,7.558,7.558,0,0,1-4.644,1.326,8.2,8.2,0,0,1-3.472-.7,5.714,5.714,0,0,1-2.373-1.934A4.577,4.577,0,0,1,47.336,26h3.457a2.508,2.508,0,0,0,.952,1.941,3.7,3.7,0,0,0,2.329.681,3.6,3.6,0,0,0,2.139-.535A1.655,1.655,0,0,0,56.945,26.693ZM81.086,31a5.493,5.493,0,0,1-.41-1.479,5.988,5.988,0,0,1-8.057.41,4.359,4.359,0,0,1-1.509-3.369,4.5,4.5,0,0,1,1.882-3.889,9.122,9.122,0,0,1,5.383-1.355h2.183v-1.04a2.776,2.776,0,0,0-.688-1.97,2.729,2.729,0,0,0-2.095-.74,3.135,3.135,0,0,0-1.992.608,1.882,1.882,0,0,0-.776,1.545h-3.56a3.951,3.951,0,0,1,.864-2.439,5.758,5.758,0,0,1,2.351-1.78,8.258,8.258,0,0,1,3.318-.645,6.651,6.651,0,0,1,4.438,1.4,4.989,4.989,0,0,1,1.7,3.933v7.148a8.1,8.1,0,0,0,.6,3.413V31Zm-3.911-2.563a4.049,4.049,0,0,0,1.985-.513,3.425,3.425,0,0,0,1.4-1.377V23.559H78.639a5.247,5.247,0,0,0-2.974.688,2.23,2.23,0,0,0-1,1.948,2.08,2.08,0,0,0,.681,1.633A2.638,2.638,0,0,0,77.174,28.437ZM104.215,18.4a8.808,8.808,0,0,0-1.45-.117,3.265,3.265,0,0,0-3.3,1.875V31h-3.56V15.15h3.4l.088,1.772a4.011,4.011,0,0,1,3.574-2.065,3.332,3.332,0,0,1,1.26.205Zm9.529,12.891a7.364,7.364,0,0,1-5.486-2.131,7.732,7.732,0,0,1-2.1-5.676v-.439a9.511,9.511,0,0,1,.916-4.241,6.968,6.968,0,0,1,2.571-2.908,6.8,6.8,0,0,1,3.691-1.04,6.221,6.221,0,0,1,5,2.065,8.734,8.734,0,0,1,1.765,5.845V24.2H109.744a4.76,4.76,0,0,0,1.311,3.105,3.936,3.936,0,0,0,2.893,1.143,4.82,4.82,0,0,0,3.984-1.978l1.919,1.831a6.408,6.408,0,0,1-2.542,2.2A7.957,7.957,0,0,1,113.743,31.293Zm-.425-13.579a3,3,0,0,0-2.366,1.025A5.315,5.315,0,0,0,109.8,21.6h6.782v-.264a4.327,4.327,0,0,0-.952-2.7A2.975,2.975,0,0,0,113.319,17.714Zm18.728,8.979a1.614,1.614,0,0,0-.784-1.45,8.335,8.335,0,0,0-2.6-.879,13.366,13.366,0,0,1-3.032-.967,4.047,4.047,0,0,1-2.666-3.735,4.219,4.219,0,0,1,1.729-3.428,6.833,6.833,0,0,1,4.395-1.377,7.11,7.11,0,0,1,4.592,1.406,4.462,4.462,0,0,1,1.75,3.647h-3.56a2.194,2.194,0,0,0-.762-1.707,2.919,2.919,0,0,0-2.021-.681,3.154,3.154,0,0,0-1.912.542,1.709,1.709,0,0,0-.74,1.45,1.443,1.443,0,0,0,.688,1.274,9.468,9.468,0,0,0,2.783.916,13.175,13.175,0,0,1,3.289,1.1,4.657,4.657,0,0,1,1.772,1.531,3.9,3.9,0,0,1,.579,2.168,4.13,4.13,0,0,1-1.772,3.464,7.558,7.558,0,0,1-4.644,1.326,8.2,8.2,0,0,1-3.472-.7,5.714,5.714,0,0,1-2.373-1.934,4.577,4.577,0,0,1-.85-2.651h3.457a2.508,2.508,0,0,0,.952,1.941,3.7,3.7,0,0,0,2.329.681,3.6,3.6,0,0,0,2.139-.535A1.655,1.655,0,0,0,132.046,26.693Zm16.5,2.754a5.521,5.521,0,0,1-4.453,1.846,4.92,4.92,0,0,1-3.9-1.509,6.418,6.418,0,0,1-1.326-4.365V15.15h3.56V25.375q0,3.018,2.5,3.018a3.518,3.518,0,0,0,3.5-1.86V15.15h3.56V31h-3.354ZM159.7,31h-3.56V8.5h3.56Zm8.635-19.7V15.15h2.8v2.637h-2.8v8.848a1.948,1.948,0,0,0,.359,1.311,1.664,1.664,0,0,0,1.282.4,5.483,5.483,0,0,0,1.245-.146v2.754a8.767,8.767,0,0,1-2.344.337q-4.1,0-4.1-4.526V17.787H162.17V15.15h2.607V11.3Z" transform="translate(526 341)" fill="#59a562"/></g><g transform="translate(46.197 2080)"><g transform="matrix(-0.259, 0.966, -0.966, -0.259, 1623.254, 7832.71)"><path d="M15.184,0,30.368,21.436H0Z" transform="matrix(-0.966, 0.259, -0.259, -0.966, 34.882, 20.706)" fill="#5baa64"/></g><path d="M-14410.127,9477.309h361.648" transform="translate(16024.777 -1631)" fill="none" stroke="#5baa64" stroke-width="4"/></g><text transform="translate(1483 9443)" fill="#fff" font-size="60" font-family="Roboto-Medium, Roboto" font-weight="500" letter-spacing="0.01em"><tspan x="36.748" y="63">Lost job due to COVID-19</tspan></text><rect width="1000" height="88" rx="4" transform="translate(1316 9443)" fill="#559e60"/><path d="M115.1,45.266h15.492V50H109.167V15.875h5.93Zm18.9-8.18a14.953,14.953,0,0,1,1.477-6.715,10.784,10.784,0,0,1,4.148-4.594,11.689,11.689,0,0,1,6.141-1.605,11.077,11.077,0,0,1,8.332,3.3,13,13,0,0,1,3.457,8.766l.023,1.336a15.087,15.087,0,0,1-1.441,6.7,10.654,10.654,0,0,1-4.125,4.57,11.774,11.774,0,0,1-6.2,1.617,11,11,0,0,1-8.59-3.574Q134,43.32,134,37.367Zm5.7.492a10.218,10.218,0,0,0,1.617,6.129,5.257,5.257,0,0,0,4.5,2.215,5.2,5.2,0,0,0,4.488-2.25q1.605-2.25,1.605-6.586a10.087,10.087,0,0,0-1.652-6.094,5.569,5.569,0,0,0-8.918-.035Q139.694,33.172,139.694,37.578Zm37.394,5.531a2.582,2.582,0,0,0-1.254-2.32,13.336,13.336,0,0,0-4.16-1.406,21.386,21.386,0,0,1-4.852-1.547q-4.266-2.062-4.266-5.977a6.75,6.75,0,0,1,2.766-5.484,10.933,10.933,0,0,1,7.031-2.2,11.376,11.376,0,0,1,7.348,2.25,7.14,7.14,0,0,1,2.8,5.836h-5.7a3.51,3.51,0,0,0-1.219-2.73,4.671,4.671,0,0,0-3.234-1.09,5.047,5.047,0,0,0-3.059.867,2.734,2.734,0,0,0-1.184,2.32,2.308,2.308,0,0,0,1.1,2.039,15.148,15.148,0,0,0,4.453,1.465,21.08,21.08,0,0,1,5.262,1.758,7.451,7.451,0,0,1,2.836,2.449,6.246,6.246,0,0,1,.926,3.469,6.607,6.607,0,0,1-2.836,5.543,12.093,12.093,0,0,1-7.43,2.121,13.113,13.113,0,0,1-5.555-1.125,9.142,9.142,0,0,1-3.8-3.094,7.323,7.323,0,0,1-1.359-4.242h5.531a4.013,4.013,0,0,0,1.523,3.105,5.92,5.92,0,0,0,3.727,1.09,5.759,5.759,0,0,0,3.422-.855A2.648,2.648,0,0,0,177.088,43.109Zm18.175-24.633v6.164h4.477v4.219h-4.477V43.016a3.118,3.118,0,0,0,.574,2.1,2.663,2.663,0,0,0,2.051.645,8.773,8.773,0,0,0,1.992-.234V49.93a14.027,14.027,0,0,1-3.75.539q-6.562,0-6.562-7.242V28.859H185.4V24.641h4.172V18.477Zm27.679,6.164V52.25a8.343,8.343,0,0,1-1.934,5.941,7.411,7.411,0,0,1-5.66,2.051,11.382,11.382,0,0,1-3.023-.4v-4.5a8.775,8.775,0,0,0,2.016.211q2.836,0,2.906-3.094V24.641Zm-6.187-6.586a3.023,3.023,0,0,1,.832-2.18,3.143,3.143,0,0,1,2.379-.867,3.182,3.182,0,0,1,2.391.867,3,3,0,0,1,.844,2.18,2.93,2.93,0,0,1-.844,2.145,3.207,3.207,0,0,1-2.391.855,3.167,3.167,0,0,1-2.379-.855A2.952,2.952,0,0,1,216.755,18.055Zm11.683,19.031a14.953,14.953,0,0,1,1.477-6.715,10.784,10.784,0,0,1,4.148-4.594,11.689,11.689,0,0,1,6.141-1.605,11.077,11.077,0,0,1,8.332,3.3,13,13,0,0,1,3.457,8.766l.023,1.336a15.087,15.087,0,0,1-1.441,6.7,10.654,10.654,0,0,1-4.125,4.57,11.774,11.774,0,0,1-6.2,1.617,11,11,0,0,1-8.59-3.574q-3.223-3.574-3.223-9.527Zm5.7.492a10.218,10.218,0,0,0,1.617,6.129,5.257,5.257,0,0,0,4.5,2.215,5.2,5.2,0,0,0,4.488-2.25q1.605-2.25,1.605-6.586a10.087,10.087,0,0,0-1.652-6.094,5.569,5.569,0,0,0-8.918-.035Q234.133,33.172,234.133,37.578Zm45.433,0q0,5.906-2.637,9.4a8.589,8.589,0,0,1-7.254,3.492,8.273,8.273,0,0,1-6.937-3.211L262.457,50H257.3V14H263V27.078a8.243,8.243,0,0,1,6.633-2.906,8.687,8.687,0,0,1,7.289,3.445q2.648,3.445,2.648,9.633Zm-5.7-.492q0-4.125-1.453-6.187a4.839,4.839,0,0,0-4.219-2.062A5.288,5.288,0,0,0,263,32.07V42.523a5.342,5.342,0,0,0,5.25,3.3,4.8,4.8,0,0,0,4.125-1.992q1.453-1.992,1.5-6.023Zm22.312.047q0-5.859,2.719-9.41a8.711,8.711,0,0,1,7.289-3.551,8.277,8.277,0,0,1,6.516,2.813V14h5.7V50h-5.156l-.281-2.625a8.4,8.4,0,0,1-6.82,3.094,8.662,8.662,0,0,1-7.207-3.586Q296.183,43.3,296.183,37.133Zm5.7.492a10.556,10.556,0,0,0,1.488,6.035,4.829,4.829,0,0,0,4.23,2.168,5.379,5.379,0,0,0,5.109-3.117V31.883a5.3,5.3,0,0,0-5.062-3.047,4.865,4.865,0,0,0-4.266,2.191Q301.878,33.219,301.878,37.625Zm38.308,9.891a8.833,8.833,0,0,1-7.125,2.953,7.872,7.872,0,0,1-6.246-2.414q-2.121-2.414-2.121-6.984V24.641h5.7V41q0,4.828,4.008,4.828,4.148,0,5.6-2.977V24.641h5.7V50h-5.367Zm22.957,2.953a11.783,11.783,0,0,1-8.777-3.41A12.371,12.371,0,0,1,351,37.977v-.7a15.217,15.217,0,0,1,1.465-6.785,11.149,11.149,0,0,1,4.113-4.652,10.874,10.874,0,0,1,5.906-1.664q5.18,0,8,3.3t2.824,9.352v2.3h-16.57a7.616,7.616,0,0,0,2.1,4.969,6.3,6.3,0,0,0,4.629,1.828,7.712,7.712,0,0,0,6.375-3.164l3.07,2.93a10.253,10.253,0,0,1-4.066,3.527A12.731,12.731,0,0,1,363.143,50.469Zm-.68-21.727a4.8,4.8,0,0,0-3.785,1.641,8.5,8.5,0,0,0-1.84,4.57H367.69v-.422a6.922,6.922,0,0,0-1.523-4.324A4.759,4.759,0,0,0,362.463,28.742Zm35.319-10.266v6.164h4.477v4.219h-4.477V43.016a3.118,3.118,0,0,0,.574,2.1,2.663,2.663,0,0,0,2.051.645,8.773,8.773,0,0,0,1.992-.234V49.93a14.027,14.027,0,0,1-3.75.539q-6.562,0-6.562-7.242V28.859h-4.172V24.641h4.172V18.477Zm7.535,18.609a14.953,14.953,0,0,1,1.477-6.715,10.784,10.784,0,0,1,4.148-4.594,11.689,11.689,0,0,1,6.141-1.605,11.077,11.077,0,0,1,8.332,3.3,13,13,0,0,1,3.457,8.766l.023,1.336a15.087,15.087,0,0,1-1.441,6.7,10.654,10.654,0,0,1-4.125,4.57,11.774,11.774,0,0,1-6.2,1.617,11,11,0,0,1-8.59-3.574q-3.223-3.574-3.223-9.527Zm5.7.492a10.218,10.218,0,0,0,1.617,6.129,5.257,5.257,0,0,0,4.5,2.215,5.2,5.2,0,0,0,4.488-2.25q1.605-2.25,1.605-6.586a10.087,10.087,0,0,0-1.652-6.094,5.569,5.569,0,0,0-8.918-.035Q411.012,33.172,411.012,37.578Zm62.2,1.313a12.322,12.322,0,0,1-4.031,8.52q-3.516,3.059-9.352,3.059a13.307,13.307,0,0,1-7.184-1.934,12.692,12.692,0,0,1-4.793-5.5,19.834,19.834,0,0,1-1.758-8.273V31.578a19.977,19.977,0,0,1,1.711-8.508,12.894,12.894,0,0,1,4.91-5.672,13.7,13.7,0,0,1,7.395-1.992,13.19,13.19,0,0,1,9.094,3.059,12.781,12.781,0,0,1,4.008,8.66h-5.906q-.422-3.68-2.145-5.309a7.088,7.088,0,0,0-5.051-1.629,6.924,6.924,0,0,0-5.941,2.827q-2.074,2.827-2.121,8.293v3.026q0,5.536,1.98,8.445a6.572,6.572,0,0,0,5.8,2.909,7.666,7.666,0,0,0,5.25-1.57q1.758-1.57,2.227-5.227Zm33.011-5.062a20.937,20.937,0,0,1-1.734,8.8,13.114,13.114,0,0,1-4.957,5.813,14.542,14.542,0,0,1-14.812,0,13.315,13.315,0,0,1-5.016-5.777,20.282,20.282,0,0,1-1.793-8.648V32.094a20.757,20.757,0,0,1,1.77-8.812,13.3,13.3,0,0,1,4.992-5.848,14.572,14.572,0,0,1,14.789-.023,13.131,13.131,0,0,1,4.98,5.766,20.713,20.713,0,0,1,1.781,8.754Zm-5.93-1.781q0-5.672-2.145-8.7a7.567,7.567,0,0,0-12.094-.012q-2.168,3.012-2.215,8.52v1.969q0,5.625,2.191,8.7a7.056,7.056,0,0,0,6.082,3.07,6.974,6.974,0,0,0,6.059-3q2.121-3,2.121-8.766ZM524.12,42.57l8.672-26.7h6.516L527.026,50h-5.742L509.05,15.875h6.492ZM549.889,50h-5.906V15.875h5.906Zm7.769,0V15.875h10.078a15.807,15.807,0,0,1,8.027,2.016,13.744,13.744,0,0,1,5.426,5.719,18.153,18.153,0,0,1,1.922,8.484V33.8a18.078,18.078,0,0,1-1.934,8.531,13.578,13.578,0,0,1-5.508,5.672A16.54,16.54,0,0,1,567.478,50Zm5.93-29.344V45.266h3.867a8.9,8.9,0,0,0,7.16-2.918q2.5-2.918,2.543-8.379v-1.9q0-5.555-2.414-8.484a8.559,8.559,0,0,0-7.008-2.93ZM600,37.789h-12.3V33.2H600ZM620.235,50h-5.672V22.585L606.2,25.438V20.656l13.313-4.9h.727Zm28.488-14.273a9.308,9.308,0,0,1-13.852-.129,12.378,12.378,0,0,1-2.672-8.285,13.583,13.583,0,0,1,1.359-6.117,10.136,10.136,0,0,1,3.867-4.266,10.972,10.972,0,0,1,5.813-1.523,9.858,9.858,0,0,1,8.18,3.844q3.023,3.844,3.023,10.289v1.594q0,9.234-4.172,14.086t-12.445,4.922h-.68V45.43h.82Q643,45.359,645.7,43T648.723,35.727Zm-5.484-1.43a5.747,5.747,0,0,0,3.211-.984,6.487,6.487,0,0,0,2.32-2.719V28.367a10.691,10.691,0,0,0-1.547-6.07,4.66,4.66,0,0,0-4.008-2.3,4.6,4.6,0,0,0-3.926,2.027,8.522,8.522,0,0,0-1.465,5.121,8.417,8.417,0,0,0,1.477,5.18A4.677,4.677,0,0,0,643.239,34.3Z" transform="translate(1442 9453)" fill="#fff"/><g transform="translate(1316 10314)" fill="#d1fcd6" stroke="#b9d5d6" stroke-width="1"><rect width="1000" height="129" rx="4" stroke="none"/><rect x="0.5" y="0.5" width="999" height="128" rx="3.5" fill="none"/></g><g transform="translate(1574.206 9952.403)"><path d="M430.56,406.6l-56.5-130.779a25.345,25.345,0,0,0-16.931-14.487l-79.715-20.579,17.505-102.416A28.279,28.279,0,0,0,271.8,105.7l-16.392-2.8a57.411,57.411,0,0,0-66.825,51.368l-9.841,108.063a24.153,24.153,0,0,0,26.7,26.2l38-4.187,89,22.975L384.028,426.7A25.345,25.345,0,1,0,430.56,406.6Z" transform="translate(-158.081 6.659)" fill="#47634b"/><path d="M519.946,425.042a13.989,13.989,0,0,1-13.988-13.988V230.233H324.14V411.056a13.988,13.988,0,1,1-27.976,0V216.245a13.988,13.988,0,0,1,13.988-13.988H519.944a13.989,13.989,0,0,1,13.988,13.988V411.056A13.986,13.986,0,0,1,519.946,425.042Z" transform="translate(-117.811 23.62)" fill="#3d3d3d"/><path d="M468.693,205.061A11.14,11.14,0,0,1,457.552,216.2h-83.48a11.141,11.141,0,1,1,0-22.282h72.34V106.165a11.141,11.141,0,1,1,22.282,0Z" transform="translate(-105.005 5.467)" fill="#85aebb"/><path d="M437.671,188.483a7.779,7.779,0,0,1-10.225,4.055l-17.817-7.7a7.777,7.777,0,0,1-4.055-10.224l55.76-129.073a7.779,7.779,0,0,1,10.224-4.055l17.817,7.7a7.777,7.777,0,0,1,4.055,10.224Z" transform="translate(-99.399 -3.703)" fill="#bae0e5"/><g transform="translate(159.158 221.669)"><path d="M533.83,233.625h-236.6a17.483,17.483,0,0,1,0-34.966h236.6a17.483,17.483,0,1,1,0,34.966Z" transform="translate(-279.748 -198.659)" fill="#3d3d3d"/></g><path d="M132.283,329.991a57.358,57.358,0,0,1-4.973-37.218l13.767-67.72A83.472,83.472,0,0,1,245.863,161.44a32.44,32.44,0,0,1,22.25,40.12L237.26,309.252Z" transform="translate(-112.638 -61.652)" fill="#49784f"/><ellipse cx="48.023" cy="48.023" rx="48.023" ry="48.023" transform="translate(100.066 0)" fill="#faad93"/><path d="M229.177,382.736a14.568,14.568,0,0,1-14.568-14.569V277a14.568,14.568,0,1,1,29.136,0v91.167A14.567,14.567,0,0,1,229.177,382.736Z" transform="translate(-155.211 33.805)" fill="#50555a"/><g transform="translate(0 288.83)"><path d="M287.46,291.063H181.293a17.483,17.483,0,0,1,0-34.966H287.46a17.483,17.483,0,0,1,0,34.966Z" transform="translate(-163.81 -256.097)" fill="#80868c"/><path d="M275.295,395.805l-16.9-16.9H213.1l-16.9,16.9a14.568,14.568,0,0,1-20.6-20.6l21.169-21.169a14.57,14.57,0,0,1,10.3-4.268h57.36a14.57,14.57,0,0,1,10.3,4.268L295.9,375.2a14.569,14.569,0,0,1-20.605,20.6Z" transform="translate(-162.537 -240.241)" fill="#80868c"/></g><path d="M240.668,274.5,180.313,216.6a20.712,20.712,0,0,1,28.676-29.895l52.08,50.168,71.254-7.389a20.712,20.712,0,0,1,17.02,37.766l-85.827,11.181A20.715,20.715,0,0,1,240.668,274.5Z" transform="translate(-73.828 -68.113)" fill="#faad93"/><path d="M208,243.165l29.3-29.3-28.311-27.157a20.713,20.713,0,0,0-28.676,29.9Z" transform="translate(-73.828 -68.113)" fill="#438b4c"/></g></g></svg>