<svg xmlns="http://www.w3.org/2000/svg" xmlns:xlink="http://www.w3.org/1999/xlink" width="1000" height="1000" viewBox="0 0 1000 1000"><defs><filter id="a" x="780" y="394" width="181" height="172" filterUnits="userSpaceOnUse"><feOffset dy="2" input="SourceAlpha"/><feGaussianBlur stdDeviation="2" result="b"/><feFlood flood-color="#cb2c2c" flood-opacity="0.251"/><feComposite operator="in" in2="b"/><feComposite in="SourceGraphic"/></filter><filter id="c" x="273.436" y="131.757" width="479.294" height="261.046" filterUnits="userSpaceOnUse"><feOffset dy="2" input="SourceAlpha"/><feGaussianBlur stdDeviation="2" result="d"/><feFlood flood-color="#cb2c2c" flood-opacity="0.251"/><feComposite operator="in" in2="d"/><feComposite in="SourceGraphic"/></filter><filter id="e" x="46" y="343" width="225" height="261" filterUnits="userSpaceOnUse"><feOffset dy="2" input="SourceAlpha"/><feGaussianBlur stdDeviation="2" result="f"/><feFlood flood-color="#cb2c2c" flood-opacity="0.251"/><feComposite operator="in" in2="f"/><feComposite in="SourceGraphic"/></filter></defs><g transform="translate(-1278 -7968)"><g transform="translate(1278 7968)" fill="#fff9f9" stroke="#f0cfcf" stroke-width="1"><rect width="1000" height="973" rx="4" stroke="none"/><rect x="0.5" y="0.5" width="999" height="972" rx="3.5" fill="none"/></g><rect width="1000" height="175" rx="4" transform="translate(1278 8793)" fill="#fbdede"/><g transform="translate(1278 7968)" fill="#cc6363" stroke="#f0cfcf" stroke-width="1"><rect width="1000" height="88" rx="4" stroke="none"/><rect x="0.5" y="0.5" width="999" height="87" rx="3.5" fill="none"/></g><g transform="translate(1271 8092)"><g transform="matrix(1, 0, 0, 1, 7, -124)" filter="url(#a)"><rect width="169" height="160" rx="5" transform="translate(786 398)" fill="#fee"/></g><path d="M21.655,27.154h-10.3V38H6.907V12.406h16.26v3.586H11.355V23.6h10.3Zm13.35,11.2a8.837,8.837,0,0,1-6.583-2.558A9.278,9.278,0,0,1,25.9,28.982v-.527A11.413,11.413,0,0,1,27,23.366a8.362,8.362,0,0,1,3.085-3.489,8.156,8.156,0,0,1,4.43-1.248,7.465,7.465,0,0,1,6,2.479q2.118,2.479,2.118,7.014v1.723H30.207A5.712,5.712,0,0,0,31.78,33.57a4.723,4.723,0,0,0,3.472,1.371,5.784,5.784,0,0,0,4.781-2.373l2.3,2.2a7.69,7.69,0,0,1-3.05,2.646A9.548,9.548,0,0,1,35.006,38.352ZM34.5,22.057a3.6,3.6,0,0,0-2.839,1.23,6.378,6.378,0,0,0-1.38,3.428h8.139V26.4a5.192,5.192,0,0,0-1.143-3.243A3.57,3.57,0,0,0,34.5,22.057ZM54.684,38.352A8.837,8.837,0,0,1,48.1,35.794a9.278,9.278,0,0,1-2.522-6.812v-.527a11.413,11.413,0,0,1,1.1-5.089,8.362,8.362,0,0,1,3.085-3.489,8.156,8.156,0,0,1,4.43-1.248,7.465,7.465,0,0,1,6,2.479q2.118,2.479,2.118,7.014v1.723H49.885a5.712,5.712,0,0,0,1.573,3.727,4.723,4.723,0,0,0,3.472,1.371,5.784,5.784,0,0,0,4.781-2.373l2.3,2.2a7.69,7.69,0,0,1-3.05,2.646A9.548,9.548,0,0,1,54.684,38.352Zm-.51-16.295a3.6,3.6,0,0,0-2.839,1.23,6.378,6.378,0,0,0-1.38,3.428h8.139V26.4a5.192,5.192,0,0,0-1.143-3.243A3.57,3.57,0,0,0,54.174,22.057ZM70.53,38H66.259V11H70.53Zm9.553,0H75.812V18.98h4.271ZM75.548,14.041a2.267,2.267,0,0,1,.624-1.635,2.357,2.357,0,0,1,1.784-.65,2.387,2.387,0,0,1,1.793.65,2.25,2.25,0,0,1,.633,1.635,2.2,2.2,0,0,1-.633,1.608,2.406,2.406,0,0,1-1.793.642,2.375,2.375,0,0,1-1.784-.642A2.214,2.214,0,0,1,75.548,14.041ZM89.057,18.98l.123,2.2a6.839,6.839,0,0,1,5.537-2.549q5.941,0,6.047,6.8V38H96.492V25.678A3.917,3.917,0,0,0,95.71,23a3.29,3.29,0,0,0-2.558-.87,4.116,4.116,0,0,0-3.85,2.338V38H85.032V18.98Zm15.671,9.369a11.124,11.124,0,0,1,2.083-7.075,6.686,6.686,0,0,1,5.528-2.646,6.263,6.263,0,0,1,5.115,2.268l.193-1.916h3.85V37.42a7.664,7.664,0,0,1-2.329,5.906,8.871,8.871,0,0,1-6.284,2.162,10.129,10.129,0,0,1-4.087-.87,7.262,7.262,0,0,1-3.032-2.276l2.021-2.566a6.105,6.105,0,0,0,4.852,2.338A4.718,4.718,0,0,0,116,40.962a4.412,4.412,0,0,0,1.23-3.384V36.295a6.289,6.289,0,0,1-4.922,2.057,6.67,6.67,0,0,1-5.458-2.654A11.484,11.484,0,0,1,104.727,28.35Zm4.254.369a7.657,7.657,0,0,0,1.169,4.509,3.759,3.759,0,0,0,3.243,1.644,4.111,4.111,0,0,0,3.832-2.215V24.289a4.052,4.052,0,0,0-3.8-2.162,3.773,3.773,0,0,0-3.278,1.67A8.574,8.574,0,0,0,108.981,28.719ZM47.3,67.832a1.936,1.936,0,0,0-.94-1.74,10,10,0,0,0-3.12-1.055,16.039,16.039,0,0,1-3.639-1.16q-3.2-1.547-3.2-4.482a5.063,5.063,0,0,1,2.074-4.113,8.2,8.2,0,0,1,5.273-1.652,8.532,8.532,0,0,1,5.511,1.688,5.355,5.355,0,0,1,2.1,4.377H47.09a2.632,2.632,0,0,0-.914-2.048,3.5,3.5,0,0,0-2.426-.817,3.785,3.785,0,0,0-2.294.65,2.05,2.05,0,0,0-.888,1.74,1.731,1.731,0,0,0,.826,1.529,11.361,11.361,0,0,0,3.34,1.1,15.81,15.81,0,0,1,3.946,1.318A5.588,5.588,0,0,1,50.808,65a4.684,4.684,0,0,1,.694,2.6,4.956,4.956,0,0,1-2.127,4.157A9.069,9.069,0,0,1,43.8,73.352a9.835,9.835,0,0,1-4.166-.844,6.856,6.856,0,0,1-2.848-2.32,5.492,5.492,0,0,1-1.02-3.182h4.148a3.01,3.01,0,0,0,1.143,2.329,4.44,4.44,0,0,0,2.795.817,4.319,4.319,0,0,0,2.566-.642A1.986,1.986,0,0,0,47.3,67.832ZM66.944,73a6.592,6.592,0,0,1-.492-1.775,7.185,7.185,0,0,1-9.668.492,5.23,5.23,0,0,1-1.811-4.043,5.4,5.4,0,0,1,2.259-4.667,10.946,10.946,0,0,1,6.46-1.626h2.619V60.133a3.331,3.331,0,0,0-.826-2.364,3.275,3.275,0,0,0-2.514-.888,3.762,3.762,0,0,0-2.391.729,2.258,2.258,0,0,0-.932,1.854H55.378a4.741,4.741,0,0,1,1.037-2.927A6.909,6.909,0,0,1,59.236,54.4a9.91,9.91,0,0,1,3.981-.773,7.981,7.981,0,0,1,5.326,1.679,5.986,5.986,0,0,1,2.039,4.72v8.578a9.722,9.722,0,0,0,.721,4.1V73Zm-4.693-3.076a4.859,4.859,0,0,0,2.382-.615,4.11,4.11,0,0,0,1.679-1.652V64.07h-2.3a6.3,6.3,0,0,0-3.568.826,2.676,2.676,0,0,0-1.2,2.338,2.5,2.5,0,0,0,.817,1.96A3.165,3.165,0,0,0,62.251,69.924ZM74.617,63.35a11.308,11.308,0,0,1,2.039-7.058,6.533,6.533,0,0,1,5.467-2.663,6.208,6.208,0,0,1,4.887,2.109V46h4.271V73H87.414L87.2,71.031a6.3,6.3,0,0,1-5.115,2.32,6.5,6.5,0,0,1-5.405-2.689A11.722,11.722,0,0,1,74.617,63.35Zm4.271.369A7.917,7.917,0,0,0,80,68.245a3.622,3.622,0,0,0,3.173,1.626,4.034,4.034,0,0,0,3.832-2.338V59.412a3.973,3.973,0,0,0-3.8-2.285,3.649,3.649,0,0,0-3.2,1.644A8.817,8.817,0,0,0,78.888,63.719Z" transform="translate(814 316)" fill="#b84c4c"/><path d="M35.081,26.034H26.82L25.091,31H21.238L29.3,9.672H32.62L40.692,31H36.824ZM27.86,23.046h6.182L30.95,14.2Zm24.089,3.647a1.614,1.614,0,0,0-.784-1.45,8.335,8.335,0,0,0-2.6-.879,13.366,13.366,0,0,1-3.032-.967,4.047,4.047,0,0,1-2.666-3.735A4.219,4.219,0,0,1,44.6,16.234a6.833,6.833,0,0,1,4.395-1.377,7.11,7.11,0,0,1,4.592,1.406,4.462,4.462,0,0,1,1.75,3.647h-3.56a2.194,2.194,0,0,0-.762-1.707,2.919,2.919,0,0,0-2.021-.681,3.154,3.154,0,0,0-1.912.542,1.709,1.709,0,0,0-.74,1.45,1.443,1.443,0,0,0,.688,1.274,9.467,9.467,0,0,0,2.783.916A13.175,13.175,0,0,1,53.1,22.8a4.657,4.657,0,0,1,1.772,1.531A3.9,3.9,0,0,1,55.45,26.5a4.13,4.13,0,0,1-1.772,3.464,7.558,7.558,0,0,1-4.644,1.326,8.2,8.2,0,0,1-3.472-.7,5.714,5.714,0,0,1-2.373-1.934A4.577,4.577,0,0,1,42.339,26H45.8a2.508,2.508,0,0,0,.952,1.941,3.7,3.7,0,0,0,2.329.681,3.6,3.6,0,0,0,2.139-.535A1.655,1.655,0,0,0,51.949,26.693ZM76.089,31a5.493,5.493,0,0,1-.41-1.479,5.988,5.988,0,0,1-8.057.41,4.359,4.359,0,0,1-1.509-3.369A4.5,4.5,0,0,1,68,22.672a9.122,9.122,0,0,1,5.383-1.355h2.183v-1.04a2.776,2.776,0,0,0-.688-1.97,2.729,2.729,0,0,0-2.095-.74,3.135,3.135,0,0,0-1.992.608,1.882,1.882,0,0,0-.776,1.545H66.45a3.951,3.951,0,0,1,.864-2.439,5.758,5.758,0,0,1,2.351-1.78,8.258,8.258,0,0,1,3.318-.645,6.651,6.651,0,0,1,4.438,1.4,4.989,4.989,0,0,1,1.7,3.933v7.148a8.1,8.1,0,0,0,.6,3.413V31Zm-3.911-2.563a4.049,4.049,0,0,0,1.985-.513,3.425,3.425,0,0,0,1.4-1.377V23.559H73.642a5.247,5.247,0,0,0-2.974.688,2.23,2.23,0,0,0-1,1.948,2.08,2.08,0,0,0,.681,1.633A2.638,2.638,0,0,0,72.178,28.437ZM22.154,54.4a8.808,8.808,0,0,0-1.45-.117,3.265,3.265,0,0,0-3.3,1.875V67h-3.56V51.15h3.4l.088,1.772a4.011,4.011,0,0,1,3.574-2.065,3.332,3.332,0,0,1,1.26.205Zm9.529,12.891A7.364,7.364,0,0,1,26.2,65.162a7.732,7.732,0,0,1-2.1-5.676v-.439a9.511,9.511,0,0,1,.916-4.241A6.968,6.968,0,0,1,27.581,51.9a6.8,6.8,0,0,1,3.691-1.04,6.221,6.221,0,0,1,5,2.065,8.734,8.734,0,0,1,1.765,5.845V60.2H27.684a4.76,4.76,0,0,0,1.311,3.105,3.936,3.936,0,0,0,2.893,1.143,4.82,4.82,0,0,0,3.984-1.978L37.791,64.3a6.408,6.408,0,0,1-2.542,2.2A7.957,7.957,0,0,1,31.683,67.293Zm-.425-13.579a3,3,0,0,0-2.366,1.025,5.315,5.315,0,0,0-1.15,2.856h6.782v-.264a4.327,4.327,0,0,0-.952-2.7A2.975,2.975,0,0,0,31.258,53.714Zm18.728,8.979a1.614,1.614,0,0,0-.784-1.45,8.335,8.335,0,0,0-2.6-.879A13.366,13.366,0,0,1,43.57,59.4,4.047,4.047,0,0,1,40.9,55.662a4.219,4.219,0,0,1,1.729-3.428,6.833,6.833,0,0,1,4.395-1.377,7.11,7.11,0,0,1,4.592,1.406,4.462,4.462,0,0,1,1.75,3.647H49.81a2.194,2.194,0,0,0-.762-1.707,2.919,2.919,0,0,0-2.021-.681,3.154,3.154,0,0,0-1.912.542,1.709,1.709,0,0,0-.74,1.45,1.443,1.443,0,0,0,.688,1.274,9.467,9.467,0,0,0,2.783.916,13.175,13.175,0,0,1,3.289,1.1,4.657,4.657,0,0,1,1.772,1.531,3.9,3.9,0,0,1,.579,2.168,4.13,4.13,0,0,1-1.772,3.464,7.558,7.558,0,0,1-4.644,1.326,8.2,8.2,0,0,1-3.472-.7,5.714,5.714,0,0,1-2.373-1.934A4.577,4.577,0,0,1,40.376,62h3.457a2.508,2.508,0,0,0,.952,1.941,3.7,3.7,0,0,0,2.329.681,3.6,3.6,0,0,0,2.139-.535A1.655,1.655,0,0,0,49.986,62.693Zm16.5,2.754a5.521,5.521,0,0,1-4.453,1.846,4.92,4.92,0,0,1-3.9-1.509A6.418,6.418,0,0,1,56.8,61.419V51.15h3.56V61.375q0,3.018,2.5,3.018a3.518,3.518,0,0,0,3.5-1.86V51.15h3.56V67H66.575ZM77.641,67h-3.56V44.5h3.56Zm8.635-19.7V51.15h2.8v2.637h-2.8v8.848a1.948,1.948,0,0,0,.359,1.311,1.664,1.664,0,0,0,1.282.4,5.483,5.483,0,0,0,1.245-.146v2.754a8.767,8.767,0,0,1-2.344.337q-4.1,0-4.1-4.526V53.787H80.109V51.15h2.607V47.3Z" transform="translate(847 139)" fill="#ce6a6a"/><g transform="translate(774.467 155.229) rotate(3)"><path d="M0,0C29.436,11.666,77.22,44.391,96.6,95.593" transform="translate(5.003 0) rotate(3)" fill="none" stroke="#ce6a6a" stroke-width="4"/><path d="M15.184,0,30.368,21.436H0Z" transform="matrix(-0.966, 0.259, -0.259, -0.966, 114.675, 106.7)" fill="#ce6a6a"/></g><g transform="translate(286.436 11.757)"><g transform="matrix(1, 0, 0, 1, -279.44, -135.76)" filter="url(#c)"><path d="M520.081,195.25c0-31.384-26.581-57.436-61.49-62.529a7.325,7.325,0,0,1-6.339-5.357c-7.537-34.712-60.134-33.092-79.243-19.623a8.393,8.393,0,0,1-7.909-2.687c-34.255-42.208-107.054-42.4-141.513-.123a8.337,8.337,0,0,1-7.766,2.7c-40.755-6.814-87.778-14.46-95.2,19.738a7.325,7.325,0,0,1-6.339,5.357c-34.91,5.093-61.49,31.146-61.49,62.529s26.581,57.437,61.49,62.529a7.325,7.325,0,0,1,6.339,5.357c7.421,34.176,32.69,31.717,73.473,24.9a8.333,8.333,0,0,1,7.766,2.7c15.584,19.118,41.438,31.626,70.7,31.626,29.33,0,55.237-12.56,70.81-31.749a8.393,8.393,0,0,1,7.909-2.687c40.507,7.108,93.426,9.986,100.975-24.782a7.325,7.325,0,0,1,6.339-5.357C493.5,252.686,520.081,226.634,520.081,195.25Z" transform="translate(226.65 62.45)" fill="#fee"/></g></g><path d="M47.114,38h-4.43V12.406h4.43Zm26.1,0a6.592,6.592,0,0,1-.492-1.775,7.185,7.185,0,0,1-9.668.492,5.23,5.23,0,0,1-1.811-4.043,5.4,5.4,0,0,1,2.259-4.667,10.946,10.946,0,0,1,6.46-1.626h2.619V25.133a3.331,3.331,0,0,0-.826-2.364,3.275,3.275,0,0,0-2.514-.888,3.762,3.762,0,0,0-2.391.729,2.258,2.258,0,0,0-.932,1.854H61.651a4.741,4.741,0,0,1,1.037-2.927A6.909,6.909,0,0,1,65.509,19.4a9.91,9.91,0,0,1,3.981-.773,7.981,7.981,0,0,1,5.326,1.679,5.986,5.986,0,0,1,2.039,4.72v8.578a9.722,9.722,0,0,0,.721,4.1V38Zm-4.693-3.076a4.859,4.859,0,0,0,2.382-.615,4.11,4.11,0,0,0,1.679-1.652V29.07h-2.3a6.3,6.3,0,0,0-3.568.826,2.676,2.676,0,0,0-1.2,2.338,2.5,2.5,0,0,0,.817,1.96A3.165,3.165,0,0,0,68.524,34.924ZM85.706,18.98l.123,1.986a6.844,6.844,0,0,1,5.484-2.338q3.814,0,5.221,2.918a6.746,6.746,0,0,1,5.836-2.918,5.93,5.93,0,0,1,4.685,1.74,7.662,7.662,0,0,1,1.573,5.133V38h-4.271V25.625a3.783,3.783,0,0,0-.791-2.654,3.463,3.463,0,0,0-2.619-.844,3.556,3.556,0,0,0-2.382.782,4.125,4.125,0,0,0-1.292,2.048L97.29,38H93.018V25.484q-.088-3.357-3.428-3.357a3.76,3.76,0,0,0-3.639,2.092V38H81.681V18.98ZM133.36,32.832a1.936,1.936,0,0,0-.94-1.74,10,10,0,0,0-3.12-1.055,16.039,16.039,0,0,1-3.639-1.16q-3.2-1.547-3.2-4.482a5.063,5.063,0,0,1,2.074-4.113,8.2,8.2,0,0,1,5.273-1.652,8.532,8.532,0,0,1,5.511,1.688,5.355,5.355,0,0,1,2.1,4.377h-4.271a2.632,2.632,0,0,0-.914-2.048,3.5,3.5,0,0,0-2.426-.817,3.785,3.785,0,0,0-2.294.65,2.05,2.05,0,0,0-.888,1.74,1.731,1.731,0,0,0,.826,1.529,11.361,11.361,0,0,0,3.34,1.1,15.81,15.81,0,0,1,3.946,1.318A5.588,5.588,0,0,1,136.866,30a4.684,4.684,0,0,1,.694,2.6,4.956,4.956,0,0,1-2.127,4.157,9.069,9.069,0,0,1-5.572,1.591,9.835,9.835,0,0,1-4.166-.844,6.856,6.856,0,0,1-2.848-2.32,5.492,5.492,0,0,1-1.02-3.182h4.148a3.01,3.01,0,0,0,1.143,2.329,4.44,4.44,0,0,0,2.795.817,4.319,4.319,0,0,0,2.566-.642A1.986,1.986,0,0,0,133.36,32.832Zm7.479-4.518a11.215,11.215,0,0,1,1.107-5.036,8.088,8.088,0,0,1,3.111-3.445,8.766,8.766,0,0,1,4.605-1.2,8.308,8.308,0,0,1,6.249,2.479,9.748,9.748,0,0,1,2.593,6.574l.018,1a11.315,11.315,0,0,1-1.081,5.027,7.991,7.991,0,0,1-3.094,3.428,8.831,8.831,0,0,1-4.649,1.213,8.25,8.25,0,0,1-6.442-2.681,10.267,10.267,0,0,1-2.417-7.146Zm4.271.369a7.664,7.664,0,0,0,1.213,4.6,3.943,3.943,0,0,0,3.375,1.661,3.9,3.9,0,0,0,3.366-1.687,8.465,8.465,0,0,0,1.2-4.939,7.565,7.565,0,0,0-1.239-4.57,4.177,4.177,0,0,0-6.688-.026A8.3,8.3,0,0,0,145.11,28.684Zm38.232,7.453A6.625,6.625,0,0,1,178,38.352a5.9,5.9,0,0,1-4.685-1.811,7.7,7.7,0,0,1-1.591-5.238V18.98h4.271V31.25q0,3.621,3.006,3.621,3.111,0,4.2-2.232V18.98h4.271V38h-4.025ZM196.147,18.98l.123,2.2a6.839,6.839,0,0,1,5.537-2.549q5.941,0,6.047,6.8V38h-4.271V25.678A3.917,3.917,0,0,0,202.8,23a3.29,3.29,0,0,0-2.558-.87,4.116,4.116,0,0,0-3.85,2.338V38h-4.271V18.98ZM217.109,38h-4.271V11h4.271Zm16.532-1.863a6.625,6.625,0,0,1-5.344,2.215,5.9,5.9,0,0,1-4.685-1.811,7.7,7.7,0,0,1-1.591-5.238V18.98h4.271V31.25q0,3.621,3.006,3.621,3.111,0,4.2-2.232V18.98h4.271V38h-4.025Zm16.655-1.2a3.862,3.862,0,0,0,2.654-.932,3.183,3.183,0,0,0,1.125-2.3H258.1a6.274,6.274,0,0,1-1.107,3.313,7.264,7.264,0,0,1-2.812,2.435,8.381,8.381,0,0,1-3.832.9,8.109,8.109,0,0,1-6.328-2.584,10.249,10.249,0,0,1-2.338-7.137v-.439A10.078,10.078,0,0,1,244,21.239a8.035,8.035,0,0,1,6.328-2.61,7.814,7.814,0,0,1,5.528,1.978A7.084,7.084,0,0,1,258.1,25.8h-4.025a3.911,3.911,0,0,0-1.116-2.689,3.591,3.591,0,0,0-2.663-1.055,3.759,3.759,0,0,0-3.2,1.5,7.669,7.669,0,0,0-1.143,4.562v.686a7.8,7.8,0,0,0,1.116,4.614A3.756,3.756,0,0,0,250.3,34.941Zm17.569-5.1-1.9,1.951V38h-4.271V11h4.271V26.574L267.3,24.9l5.256-5.924h5.133l-7.066,7.928L278.447,38h-4.939Zm19.626,2.039,3.867-12.9h4.553l-7.559,21.9q-1.74,4.8-5.906,4.8a7.615,7.615,0,0,1-2.057-.318V42.043l.809.053a4.159,4.159,0,0,0,2.435-.588,3.9,3.9,0,0,0,1.292-1.976l.615-1.633-6.68-18.917h4.605Zm13.9,1.617a2.44,2.44,0,0,1,1.846.677,2.351,2.351,0,0,1,.65,1.7,2.268,2.268,0,0,1-.65,1.661,2.879,2.879,0,0,1-3.656.009,2.229,2.229,0,0,1-.668-1.67,2.351,2.351,0,0,1,.65-1.7A2.416,2.416,0,0,1,301.385,33.5Zm37.564-1.828,3.938-19.266H347.3L341.392,38h-4.254l-4.869-18.686L327.295,38h-4.271l-5.906-25.594h4.412l3.973,19.23,4.887-19.23h3.727Zm15.758-10.617A6.686,6.686,0,0,1,360,18.629q6.082,0,6.17,6.943V38H361.9V25.73a3.756,3.756,0,0,0-.853-2.786,3.485,3.485,0,0,0-2.5-.817,4.115,4.115,0,0,0-3.832,2.285V38h-4.271V11h4.271ZM377.5,31.883l3.867-12.9h4.553l-7.559,21.9q-1.74,4.8-5.906,4.8a7.615,7.615,0,0,1-2.057-.318V42.043l.809.053a4.159,4.159,0,0,0,2.435-.588,3.9,3.9,0,0,0,1.292-1.976l.615-1.633-6.68-18.917h4.605ZM48.806,64.35a11.308,11.308,0,0,1,2.039-7.058,6.533,6.533,0,0,1,5.467-2.663A6.208,6.208,0,0,1,61.2,56.738V47H65.47V74H61.6l-.211-1.969a6.3,6.3,0,0,1-5.115,2.32,6.5,6.5,0,0,1-5.405-2.689A11.722,11.722,0,0,1,48.806,64.35Zm4.271.369a7.917,7.917,0,0,0,1.116,4.526,3.622,3.622,0,0,0,3.173,1.626A4.034,4.034,0,0,0,61.2,68.533V60.412a3.973,3.973,0,0,0-3.8-2.285,3.649,3.649,0,0,0-3.2,1.644A8.817,8.817,0,0,0,53.077,64.719Zm16.409-.4a11.215,11.215,0,0,1,1.107-5.036A8.088,8.088,0,0,1,73.7,55.833a8.766,8.766,0,0,1,4.605-1.2,8.308,8.308,0,0,1,6.249,2.479,9.748,9.748,0,0,1,2.593,6.574l.018,1a11.315,11.315,0,0,1-1.081,5.027A7.991,7.991,0,0,1,83,73.139a8.831,8.831,0,0,1-4.649,1.213A8.25,8.25,0,0,1,71.9,71.671a10.267,10.267,0,0,1-2.417-7.146Zm4.271.369a7.664,7.664,0,0,0,1.213,4.6,3.943,3.943,0,0,0,3.375,1.661,3.9,3.9,0,0,0,3.366-1.687,8.465,8.465,0,0,0,1.2-4.939,7.565,7.565,0,0,0-1.239-4.57,4.177,4.177,0,0,0-6.688-.026A8.3,8.3,0,0,0,73.758,64.684Zm25.76,9.668a8.837,8.837,0,0,1-6.583-2.558,9.278,9.278,0,0,1-2.522-6.812v-.527a11.413,11.413,0,0,1,1.1-5.089A8.362,8.362,0,0,1,94.6,55.877a8.156,8.156,0,0,1,4.43-1.248,7.465,7.465,0,0,1,6,2.479q2.118,2.479,2.118,7.014v1.723H94.719a5.712,5.712,0,0,0,1.573,3.727,4.723,4.723,0,0,0,3.472,1.371,5.784,5.784,0,0,0,4.781-2.373l2.3,2.2a7.69,7.69,0,0,1-3.05,2.646A9.548,9.548,0,0,1,99.518,74.352Zm-.51-16.295a3.6,3.6,0,0,0-2.839,1.23,6.378,6.378,0,0,0-1.38,3.428h8.139V62.4a5.192,5.192,0,0,0-1.143-3.243A3.57,3.57,0,0,0,99.008,58.057Zm22.473,10.775a1.936,1.936,0,0,0-.94-1.74,10,10,0,0,0-3.12-1.055,16.039,16.039,0,0,1-3.639-1.16q-3.2-1.547-3.2-4.482a5.063,5.063,0,0,1,2.074-4.113,8.2,8.2,0,0,1,5.273-1.652,8.532,8.532,0,0,1,5.511,1.688,5.355,5.355,0,0,1,2.1,4.377h-4.271a2.632,2.632,0,0,0-.914-2.048,3.5,3.5,0,0,0-2.426-.817,3.785,3.785,0,0,0-2.294.65,2.05,2.05,0,0,0-.888,1.74,1.731,1.731,0,0,0,.826,1.529,11.361,11.361,0,0,0,3.34,1.1,15.81,15.81,0,0,1,3.946,1.318A5.588,5.588,0,0,1,124.988,66a4.684,4.684,0,0,1,.694,2.6,4.956,4.956,0,0,1-2.127,4.157,9.069,9.069,0,0,1-5.572,1.591,9.835,9.835,0,0,1-4.166-.844,6.856,6.856,0,0,1-2.848-2.32,5.492,5.492,0,0,1-1.02-3.182H114.1a3.01,3.01,0,0,0,1.143,2.329,4.44,4.44,0,0,0,2.795.817,4.319,4.319,0,0,0,2.566-.642A1.986,1.986,0,0,0,121.482,68.832Zm25.98,5.52a8.837,8.837,0,0,1-6.583-2.558,9.278,9.278,0,0,1-2.522-6.812v-.527a11.413,11.413,0,0,1,1.1-5.089,8.362,8.362,0,0,1,3.085-3.489,8.156,8.156,0,0,1,4.43-1.248,7.465,7.465,0,0,1,6,2.479q2.118,2.479,2.118,7.014v1.723H142.663a5.712,5.712,0,0,0,1.573,3.727,4.723,4.723,0,0,0,3.472,1.371,5.784,5.784,0,0,0,4.781-2.373l2.3,2.2a7.69,7.69,0,0,1-3.05,2.646A9.548,9.548,0,0,1,147.461,74.352Zm-.51-16.295a3.6,3.6,0,0,0-2.839,1.23,6.378,6.378,0,0,0-1.38,3.428h8.139V62.4a5.192,5.192,0,0,0-1.143-3.243A3.57,3.57,0,0,0,146.952,58.057Zm18.29,10.529,4.025-13.605h4.412L167.087,74h-3.709l-6.645-19.02h4.43Zm19.837,5.766a8.837,8.837,0,0,1-6.583-2.558,9.278,9.278,0,0,1-2.522-6.812v-.527a11.413,11.413,0,0,1,1.1-5.089,8.362,8.362,0,0,1,3.085-3.489,8.156,8.156,0,0,1,4.43-1.248,7.465,7.465,0,0,1,6,2.479q2.118,2.479,2.118,7.014v1.723H180.279a5.712,5.712,0,0,0,1.573,3.727,4.723,4.723,0,0,0,3.472,1.371,5.784,5.784,0,0,0,4.781-2.373l2.3,2.2a7.69,7.69,0,0,1-3.05,2.646A9.548,9.548,0,0,1,185.078,74.352Zm-.51-16.295a3.6,3.6,0,0,0-2.839,1.23,6.378,6.378,0,0,0-1.38,3.428h8.139V62.4a5.192,5.192,0,0,0-1.143-3.243A3.57,3.57,0,0,0,184.568,58.057Zm21.77.826a10.57,10.57,0,0,0-1.74-.141,3.918,3.918,0,0,0-3.955,2.25V74h-4.271V54.98h4.078l.105,2.127a4.813,4.813,0,0,1,4.289-2.479,4,4,0,0,1,1.512.246Zm9.712,9,3.867-12.9h4.553l-7.559,21.9q-1.74,4.8-5.906,4.8a7.615,7.615,0,0,1-2.057-.318V78.043l.809.053a4.159,4.159,0,0,0,2.435-.588,3.9,3.9,0,0,0,1.292-1.976L214.1,73.9l-6.68-18.917h4.605Zm16.585-17.525V54.98h3.357v3.164h-3.357V68.762a2.338,2.338,0,0,0,.431,1.573,2,2,0,0,0,1.538.483,6.58,6.58,0,0,0,1.494-.176v3.3a10.52,10.52,0,0,1-2.812.4q-4.922,0-4.922-5.432V58.145h-3.129V54.98h3.129V50.357Zm11.188,6.7a6.686,6.686,0,0,1,5.291-2.426q6.082,0,6.17,6.943V74h-4.271V61.73a3.756,3.756,0,0,0-.853-2.786,3.485,3.485,0,0,0-2.5-.817,4.115,4.115,0,0,0-3.832,2.285V74h-4.271V47h4.271ZM264.5,74h-4.271V54.98H264.5Zm-4.535-23.959a2.267,2.267,0,0,1,.624-1.635,2.357,2.357,0,0,1,1.784-.65,2.387,2.387,0,0,1,1.793.65,2.25,2.25,0,0,1,.633,1.635,2.2,2.2,0,0,1-.633,1.608,2.406,2.406,0,0,1-1.793.642,2.375,2.375,0,0,1-1.784-.642A2.214,2.214,0,0,1,259.968,50.041Zm13.508,4.939.123,2.2a6.839,6.839,0,0,1,5.537-2.549q5.941,0,6.047,6.8V74h-4.271V61.678A3.917,3.917,0,0,0,280.129,59a3.29,3.29,0,0,0-2.558-.87,4.116,4.116,0,0,0-3.85,2.338V74h-4.271V54.98Zm15.671,9.369a11.124,11.124,0,0,1,2.083-7.075,6.686,6.686,0,0,1,5.528-2.646,6.263,6.263,0,0,1,5.115,2.268l.193-1.916h3.85V73.42a7.664,7.664,0,0,1-2.329,5.906,8.871,8.871,0,0,1-6.284,2.162,10.129,10.129,0,0,1-4.087-.87,7.262,7.262,0,0,1-3.032-2.276l2.021-2.566a6.105,6.105,0,0,0,4.852,2.338,4.718,4.718,0,0,0,3.357-1.151,4.412,4.412,0,0,0,1.23-3.384V72.295a6.289,6.289,0,0,1-4.922,2.057,6.67,6.67,0,0,1-5.458-2.654A11.484,11.484,0,0,1,289.147,64.35Zm4.254.369a7.657,7.657,0,0,0,1.169,4.509,3.759,3.759,0,0,0,3.243,1.644,4.111,4.111,0,0,0,3.832-2.215V60.289a4.052,4.052,0,0,0-3.8-2.162,3.773,3.773,0,0,0-3.278,1.67A8.574,8.574,0,0,0,293.4,64.719Zm43.277-.035a11.425,11.425,0,0,1-1.978,7.049,6.442,6.442,0,0,1-5.44,2.619,6.2,6.2,0,0,1-5.2-2.408L323.845,74h-3.867V47h4.271v9.809a6.183,6.183,0,0,1,4.975-2.18,6.515,6.515,0,0,1,5.467,2.584q1.986,2.584,1.986,7.225Zm-4.271-.369a8.075,8.075,0,0,0-1.09-4.641,3.629,3.629,0,0,0-3.164-1.547,3.966,3.966,0,0,0-3.9,2.426v7.84a4.007,4.007,0,0,0,3.938,2.479,3.6,3.6,0,0,0,3.094-1.494,7.824,7.824,0,0,0,1.125-4.518ZM351.979,74a6.592,6.592,0,0,1-.492-1.775,7.185,7.185,0,0,1-9.668.492,5.23,5.23,0,0,1-1.811-4.043,5.4,5.4,0,0,1,2.259-4.667,10.946,10.946,0,0,1,6.46-1.626h2.619V61.133a3.331,3.331,0,0,0-.826-2.364,3.275,3.275,0,0,0-2.514-.888,3.762,3.762,0,0,0-2.391.729,2.258,2.258,0,0,0-.932,1.854h-4.271a4.741,4.741,0,0,1,1.037-2.927,6.909,6.909,0,0,1,2.821-2.136,9.91,9.91,0,0,1,3.981-.773,7.981,7.981,0,0,1,5.326,1.679,5.986,5.986,0,0,1,2.039,4.72v8.578a9.722,9.722,0,0,0,.721,4.1V74Zm-4.693-3.076a4.859,4.859,0,0,0,2.382-.615,4.11,4.11,0,0,0,1.679-1.652V65.07h-2.3a6.3,6.3,0,0,0-3.568.826,2.676,2.676,0,0,0-1.2,2.338,2.5,2.5,0,0,0,.817,1.96A3.165,3.165,0,0,0,347.285,70.924Zm12.366-6.574a11.308,11.308,0,0,1,2.039-7.058,6.533,6.533,0,0,1,5.467-2.663,6.208,6.208,0,0,1,4.887,2.109V47h4.271V74h-3.867l-.211-1.969a6.3,6.3,0,0,1-5.115,2.32,6.5,6.5,0,0,1-5.405-2.689A11.722,11.722,0,0,1,359.651,64.35Zm4.271.369a7.917,7.917,0,0,0,1.116,4.526,3.622,3.622,0,0,0,3.173,1.626,4.034,4.034,0,0,0,3.832-2.338V60.412a3.973,3.973,0,0,0-3.8-2.285,3.649,3.649,0,0,0-3.2,1.644A8.817,8.817,0,0,0,363.923,64.719ZM44.469,110a6.592,6.592,0,0,1-.492-1.775,6.649,6.649,0,0,1-4.992,2.127,6.71,6.71,0,0,1-4.676-1.635,5.23,5.23,0,0,1-1.811-4.043,5.4,5.4,0,0,1,2.259-4.667,10.946,10.946,0,0,1,6.46-1.626h2.619V97.133a3.331,3.331,0,0,0-.826-2.364,3.275,3.275,0,0,0-2.514-.888,3.762,3.762,0,0,0-2.391.729,2.258,2.258,0,0,0-.932,1.854H32.9a4.741,4.741,0,0,1,1.037-2.927A6.909,6.909,0,0,1,36.761,91.4a9.91,9.91,0,0,1,3.981-.773,7.981,7.981,0,0,1,5.326,1.679,5.986,5.986,0,0,1,2.039,4.72v8.578a9.722,9.722,0,0,0,.721,4.1v.3Zm-4.693-3.076a4.859,4.859,0,0,0,2.382-.615,4.11,4.11,0,0,0,1.679-1.652V101.07h-2.3a6.3,6.3,0,0,0-3.568.826,2.676,2.676,0,0,0-1.2,2.338,2.5,2.5,0,0,0,.817,1.96A3.165,3.165,0,0,0,39.775,106.924ZM57.485,110H53.213V83h4.271ZM79.2,104.111,82.226,90.98h4.166L81.206,110H77.691L73.613,96.939,69.6,110H66.089l-5.2-19.02h4.166l3.076,12.99,3.9-12.99h3.217ZM100.973,110a6.592,6.592,0,0,1-.492-1.775,7.185,7.185,0,0,1-9.668.492A5.23,5.23,0,0,1,89,104.674a5.4,5.4,0,0,1,2.259-4.667,10.946,10.946,0,0,1,6.46-1.626h2.619V97.133a3.331,3.331,0,0,0-.826-2.364A3.275,3.275,0,0,0,97,93.881a3.762,3.762,0,0,0-2.391.729,2.258,2.258,0,0,0-.932,1.854H89.406a4.741,4.741,0,0,1,1.037-2.927A6.909,6.909,0,0,1,93.265,91.4a9.91,9.91,0,0,1,3.981-.773,7.981,7.981,0,0,1,5.326,1.679,5.986,5.986,0,0,1,2.039,4.72v8.578a9.722,9.722,0,0,0,.721,4.1v.3Zm-4.693-3.076a4.859,4.859,0,0,0,2.382-.615,4.11,4.11,0,0,0,1.679-1.652V101.07h-2.3a6.3,6.3,0,0,0-3.568.826,2.676,2.676,0,0,0-1.2,2.338,2.5,2.5,0,0,0,.817,1.96A3.165,3.165,0,0,0,96.279,106.924Zm19.819-3.041,3.867-12.9h4.553l-7.559,21.9q-1.74,4.8-5.906,4.8a7.615,7.615,0,0,1-2.057-.318v-3.321l.809.053a4.159,4.159,0,0,0,2.435-.588,3.9,3.9,0,0,0,1.292-1.976l.615-1.633-6.68-18.917h4.605Zm21.893.949a1.936,1.936,0,0,0-.94-1.74,10,10,0,0,0-3.12-1.055,16.039,16.039,0,0,1-3.639-1.16q-3.2-1.547-3.2-4.482a5.063,5.063,0,0,1,2.074-4.113,8.2,8.2,0,0,1,5.273-1.652,8.532,8.532,0,0,1,5.511,1.688,5.355,5.355,0,0,1,2.1,4.377H137.78a2.632,2.632,0,0,0-.914-2.048,3.5,3.5,0,0,0-2.426-.817,3.785,3.785,0,0,0-2.294.65,2.05,2.05,0,0,0-.888,1.74,1.731,1.731,0,0,0,.826,1.529,11.361,11.361,0,0,0,3.34,1.1,15.81,15.81,0,0,1,3.946,1.318A5.588,5.588,0,0,1,141.5,102a4.684,4.684,0,0,1,.694,2.6,4.956,4.956,0,0,1-2.127,4.157,9.069,9.069,0,0,1-5.572,1.591,9.835,9.835,0,0,1-4.166-.844,6.856,6.856,0,0,1-2.848-2.32,5.492,5.492,0,0,1-1.02-3.182h4.148a3.01,3.01,0,0,0,1.143,2.329,4.44,4.44,0,0,0,2.795.817,4.319,4.319,0,0,0,2.566-.642A1.986,1.986,0,0,0,137.991,104.832Zm21.814-11.777a6.686,6.686,0,0,1,5.291-2.426q6.082,0,6.17,6.943V110h-4.271V97.73a3.756,3.756,0,0,0-.853-2.786,3.485,3.485,0,0,0-2.5-.817,4.115,4.115,0,0,0-3.832,2.285V110h-4.271V83h4.271ZM187.306,110a6.592,6.592,0,0,1-.492-1.775,7.185,7.185,0,0,1-9.668.492,5.23,5.23,0,0,1-1.811-4.043,5.4,5.4,0,0,1,2.259-4.667,10.946,10.946,0,0,1,6.46-1.626h2.619V97.133a3.331,3.331,0,0,0-.826-2.364,3.275,3.275,0,0,0-2.514-.888,3.762,3.762,0,0,0-2.391.729,2.258,2.258,0,0,0-.932,1.854h-4.271a4.741,4.741,0,0,1,1.037-2.927A6.909,6.909,0,0,1,179.6,91.4a9.91,9.91,0,0,1,3.981-.773,7.981,7.981,0,0,1,5.326,1.679,5.986,5.986,0,0,1,2.039,4.72v8.578a9.722,9.722,0,0,0,.721,4.1v.3Zm-4.693-3.076a4.859,4.859,0,0,0,2.382-.615,4.11,4.11,0,0,0,1.679-1.652V101.07h-2.3a6.3,6.3,0,0,0-3.568.826,2.676,2.676,0,0,0-1.2,2.338,2.5,2.5,0,0,0,.817,1.96A3.165,3.165,0,0,0,182.612,106.924Zm29.821-6.24a11.324,11.324,0,0,1-2,7.04,6.961,6.961,0,0,1-10.389.571v9.018h-4.271V90.98h3.938l.176,1.934A6.274,6.274,0,0,1,205,90.629a6.483,6.483,0,0,1,5.458,2.593,11.626,11.626,0,0,1,1.978,7.2Zm-4.254-.369a7.933,7.933,0,0,0-1.134-4.518,3.686,3.686,0,0,0-3.243-1.67,3.931,3.931,0,0,0-3.762,2.162v8.438a3.967,3.967,0,0,0,3.8,2.215,3.682,3.682,0,0,0,3.19-1.644A8.732,8.732,0,0,0,208.179,100.314Zm24.881.369a11.324,11.324,0,0,1-2,7.04,6.961,6.961,0,0,1-10.389.571v9.018H216.4V90.98h3.938l.176,1.934a6.274,6.274,0,0,1,5.115-2.285,6.483,6.483,0,0,1,5.458,2.593,11.626,11.626,0,0,1,1.978,7.2Zm-4.254-.369a7.933,7.933,0,0,0-1.134-4.518,3.686,3.686,0,0,0-3.243-1.67,3.931,3.931,0,0,0-3.762,2.162v8.438a3.967,3.967,0,0,0,3.8,2.215,3.682,3.682,0,0,0,3.19-1.644A8.732,8.732,0,0,0,228.807,100.314Zm16.6,10.037a8.837,8.837,0,0,1-6.583-2.558,9.278,9.278,0,0,1-2.522-6.812v-.527a11.413,11.413,0,0,1,1.1-5.089,8.362,8.362,0,0,1,3.085-3.489,8.156,8.156,0,0,1,4.43-1.248,7.465,7.465,0,0,1,6,2.479q2.118,2.479,2.118,7.014v1.723H240.61a5.712,5.712,0,0,0,1.573,3.727,4.723,4.723,0,0,0,3.472,1.371,5.784,5.784,0,0,0,4.781-2.373l2.3,2.2a7.69,7.69,0,0,1-3.05,2.646A9.548,9.548,0,0,1,245.409,110.352Zm-.51-16.295a3.6,3.6,0,0,0-2.839,1.23,6.378,6.378,0,0,0-1.38,3.428h8.139V98.4a5.192,5.192,0,0,0-1.143-3.243A3.57,3.57,0,0,0,244.9,94.057Zm15.776-3.076.123,2.2a6.839,6.839,0,0,1,5.537-2.549q5.941,0,6.047,6.8V110h-4.271V97.678A3.917,3.917,0,0,0,267.329,95a3.29,3.29,0,0,0-2.558-.87,4.116,4.116,0,0,0-3.85,2.338V110H256.65V90.98Zm31.1-4.623V90.98h3.357v3.164H291.77v10.617a2.338,2.338,0,0,0,.431,1.573,2,2,0,0,0,1.538.483,6.58,6.58,0,0,0,1.494-.176v3.3a10.52,10.52,0,0,1-2.812.4q-4.922,0-4.922-5.432V94.145H284.37V90.98H287.5V86.357Zm5.651,13.957a11.215,11.215,0,0,1,1.107-5.036,8.088,8.088,0,0,1,3.111-3.445,8.766,8.766,0,0,1,4.605-1.2,8.308,8.308,0,0,1,6.249,2.479,9.748,9.748,0,0,1,2.593,6.574l.018,1a11.315,11.315,0,0,1-1.081,5.027,7.991,7.991,0,0,1-3.094,3.428,8.831,8.831,0,0,1-4.649,1.213,8.25,8.25,0,0,1-6.442-2.681,10.267,10.267,0,0,1-2.417-7.146Zm4.271.369a7.664,7.664,0,0,0,1.213,4.6,3.943,3.943,0,0,0,3.375,1.661,3.9,3.9,0,0,0,3.366-1.687,8.465,8.465,0,0,0,1.2-4.939,7.565,7.565,0,0,0-1.239-4.57,4.177,4.177,0,0,0-6.688-.026A8.3,8.3,0,0,0,301.693,100.684Zm30.726-9.7.123,1.986a6.844,6.844,0,0,1,5.484-2.338q3.814,0,5.221,2.918a6.746,6.746,0,0,1,5.836-2.918,5.93,5.93,0,0,1,4.685,1.74,7.662,7.662,0,0,1,1.573,5.133V110h-4.271V97.625a3.783,3.783,0,0,0-.791-2.654,3.463,3.463,0,0,0-2.619-.844,3.556,3.556,0,0,0-2.382.782,4.125,4.125,0,0,0-1.292,2.048L344,110h-4.271V97.484q-.088-3.357-3.428-3.357a3.76,3.76,0,0,0-3.639,2.092V110h-4.271V90.98Zm36.044,19.371a8.837,8.837,0,0,1-6.583-2.558,9.278,9.278,0,0,1-2.522-6.812v-.527a11.413,11.413,0,0,1,1.1-5.089,8.362,8.362,0,0,1,3.085-3.489,8.156,8.156,0,0,1,4.43-1.248,7.465,7.465,0,0,1,6,2.479q2.118,2.479,2.118,7.014v1.723H363.664a5.712,5.712,0,0,0,1.573,3.727,4.723,4.723,0,0,0,3.472,1.371,5.784,5.784,0,0,0,4.781-2.373l2.3,2.2a7.69,7.69,0,0,1-3.05,2.646A9.548,9.548,0,0,1,368.462,110.352Zm-.51-16.295a3.6,3.6,0,0,0-2.839,1.23,6.378,6.378,0,0,0-1.38,3.428h8.139V98.4a5.192,5.192,0,0,0-1.143-3.243A3.57,3.57,0,0,0,367.953,94.057Zm15.776,8.438a7.825,7.825,0,0,1,2.874-6.783,17.511,17.511,0,0,0,2.171-2.366,4.14,4.14,0,0,0,.7-2.317,3.542,3.542,0,0,0-.817-2.519,3.138,3.138,0,0,0-2.4-.869,3.453,3.453,0,0,0-2.435.85,2.977,2.977,0,0,0-.923,2.3h-4.271a6.294,6.294,0,0,1,2.118-4.927,8.1,8.1,0,0,1,5.511-1.812,7.9,7.9,0,0,1,5.511,1.795,6.428,6.428,0,0,1,1.978,5.015,8.211,8.211,0,0,1-2.672,5.648l-2.162,2.129a5.8,5.8,0,0,0-1.2,3.853Zm-.3,5.458a2.24,2.24,0,0,1,.65-1.672,2.732,2.732,0,0,1,3.533.018,2.255,2.255,0,0,1,.65,1.655,2.214,2.214,0,0,1-.633,1.611,2.392,2.392,0,0,1-1.793.648,2.362,2.362,0,0,1-1.784-.648A2.231,2.231,0,0,1,383.43,107.952Z" transform="translate(311 71)" fill="#b84c4c"/><g transform="matrix(1, 0, 0, 1, 7, -124)" filter="url(#e)"><rect width="213" height="249" rx="5" transform="translate(52 347)" fill="#fee"/></g><path d="M46.08,31.408a3.09,3.09,0,0,0-1.187-2.6,14.276,14.276,0,0,0-4.28-1.846,20.669,20.669,0,0,1-4.922-2.074,6.568,6.568,0,0,1-3.5-5.73,6.236,6.236,0,0,1,2.522-5.1,10.21,10.21,0,0,1,6.548-2,11.06,11.06,0,0,1,4.764.984,7.819,7.819,0,0,1,3.287,2.8,7.191,7.191,0,0,1,1.2,4.034H46.08a4.011,4.011,0,0,0-1.257-3.138,5.187,5.187,0,0,0-3.595-1.134,5.418,5.418,0,0,0-3.384.932,3.1,3.1,0,0,0-1.2,2.6,2.806,2.806,0,0,0,1.3,2.347,14.985,14.985,0,0,0,4.289,1.828,19.729,19.729,0,0,1,4.8,2.021,7.633,7.633,0,0,1,2.654,2.6,6.775,6.775,0,0,1,.844,3.437,6.091,6.091,0,0,1-2.452,5.089,10.636,10.636,0,0,1-6.653,1.89,12.5,12.5,0,0,1-5.106-1.028,8.578,8.578,0,0,1-3.621-2.839A7.075,7.075,0,0,1,31.4,30.266h4.447a4.14,4.14,0,0,0,1.441,3.375,6.312,6.312,0,0,0,4.131,1.2,5.484,5.484,0,0,0,3.489-.94A3.034,3.034,0,0,0,46.08,31.408Zm24.952-2.725a11.324,11.324,0,0,1-2,7.04,6.961,6.961,0,0,1-10.389.571v9.018H54.368V18.98h3.938l.176,1.934A6.274,6.274,0,0,1,63.6,18.629a6.483,6.483,0,0,1,5.458,2.593,11.626,11.626,0,0,1,1.978,7.2Zm-4.254-.369A7.933,7.933,0,0,0,65.644,23.8a3.686,3.686,0,0,0-3.243-1.67,3.931,3.931,0,0,0-3.762,2.162v8.438a3.967,3.967,0,0,0,3.8,2.215,3.682,3.682,0,0,0,3.19-1.644A8.732,8.732,0,0,0,66.778,28.314Zm16.6,10.037A8.837,8.837,0,0,1,76.8,35.794a9.278,9.278,0,0,1-2.522-6.812v-.527a11.413,11.413,0,0,1,1.1-5.089,8.362,8.362,0,0,1,3.085-3.489,8.156,8.156,0,0,1,4.43-1.248,7.465,7.465,0,0,1,6,2.479q2.118,2.479,2.118,7.014v1.723H78.581a5.712,5.712,0,0,0,1.573,3.727,4.723,4.723,0,0,0,3.472,1.371,5.784,5.784,0,0,0,4.781-2.373l2.3,2.2a7.69,7.69,0,0,1-3.05,2.646A9.548,9.548,0,0,1,83.38,38.352Zm-.51-16.295a3.6,3.6,0,0,0-2.839,1.23,6.378,6.378,0,0,0-1.38,3.428H86.79V26.4a5.192,5.192,0,0,0-1.143-3.243A3.57,3.57,0,0,0,82.87,22.057ZM98.646,18.98l.123,2.2a6.839,6.839,0,0,1,5.537-2.549q5.941,0,6.047,6.8V38h-4.271V25.678A3.917,3.917,0,0,0,105.3,23a3.29,3.29,0,0,0-2.558-.87,4.116,4.116,0,0,0-3.85,2.338V38H94.621V18.98Zm15.618,9.369a11.308,11.308,0,0,1,2.039-7.058,6.533,6.533,0,0,1,5.467-2.663,6.208,6.208,0,0,1,4.887,2.109V11h4.271V38h-3.867l-.211-1.969a6.3,6.3,0,0,1-5.115,2.32,6.5,6.5,0,0,1-5.405-2.689A11.722,11.722,0,0,1,114.264,28.35Zm4.271.369a7.917,7.917,0,0,0,1.116,4.526,3.622,3.622,0,0,0,3.173,1.626,4.034,4.034,0,0,0,3.832-2.338V24.412a3.973,3.973,0,0,0-3.8-2.285,3.649,3.649,0,0,0-3.2,1.644A8.817,8.817,0,0,0,118.535,28.719ZM140.288,38h-4.271V18.98h4.271Zm-4.535-23.959a2.267,2.267,0,0,1,.624-1.635,2.357,2.357,0,0,1,1.784-.65,2.387,2.387,0,0,1,1.793.65,2.25,2.25,0,0,1,.633,1.635,2.2,2.2,0,0,1-.633,1.608,2.406,2.406,0,0,1-1.793.642,2.375,2.375,0,0,1-1.784-.642A2.214,2.214,0,0,1,135.753,14.041Zm13.508,4.939.123,2.2a6.839,6.839,0,0,1,5.537-2.549q5.941,0,6.047,6.8V38H156.7V25.678A3.917,3.917,0,0,0,155.915,23a3.29,3.29,0,0,0-2.558-.87,4.116,4.116,0,0,0-3.85,2.338V38h-4.271V18.98Zm15.671,9.369a11.124,11.124,0,0,1,2.083-7.075,6.686,6.686,0,0,1,5.528-2.646,6.263,6.263,0,0,1,5.115,2.268l.193-1.916h3.85V37.42a7.664,7.664,0,0,1-2.329,5.906,8.871,8.871,0,0,1-6.284,2.162,10.129,10.129,0,0,1-4.087-.87,7.262,7.262,0,0,1-3.032-2.276l2.021-2.566a6.105,6.105,0,0,0,4.852,2.338,4.718,4.718,0,0,0,3.357-1.151,4.412,4.412,0,0,0,1.23-3.384V36.295a6.289,6.289,0,0,1-4.922,2.057A6.67,6.67,0,0,1,167.05,35.7,11.484,11.484,0,0,1,164.932,28.35Zm4.254.369a7.657,7.657,0,0,0,1.169,4.509,3.759,3.759,0,0,0,3.243,1.644,4.111,4.111,0,0,0,3.832-2.215V24.289a4.052,4.052,0,0,0-3.8-2.162,3.773,3.773,0,0,0-3.278,1.67A8.574,8.574,0,0,0,169.186,28.719ZM35.107,50.357V54.98h3.357v3.164H35.107V68.762a2.338,2.338,0,0,0,.431,1.573,2,2,0,0,0,1.538.483,6.58,6.58,0,0,0,1.494-.176v3.3a10.52,10.52,0,0,1-2.812.4q-4.922,0-4.922-5.432V58.145H27.706V54.98h3.129V50.357Zm11.188,6.7a6.686,6.686,0,0,1,5.291-2.426q6.082,0,6.17,6.943V74H53.484V61.73a3.756,3.756,0,0,0-.853-2.786,3.485,3.485,0,0,0-2.5-.817,4.115,4.115,0,0,0-3.832,2.285V74H42.024V47h4.271Zm24.512,17.3a8.837,8.837,0,0,1-6.583-2.558A9.278,9.278,0,0,1,61.7,64.982v-.527a11.413,11.413,0,0,1,1.1-5.089,8.362,8.362,0,0,1,3.085-3.489,8.156,8.156,0,0,1,4.43-1.248,7.465,7.465,0,0,1,6,2.479q2.118,2.479,2.118,7.014v1.723H66.009a5.712,5.712,0,0,0,1.573,3.727,4.723,4.723,0,0,0,3.472,1.371,5.784,5.784,0,0,0,4.781-2.373l2.3,2.2a7.69,7.69,0,0,1-3.05,2.646A9.548,9.548,0,0,1,70.807,74.352ZM70.3,58.057a3.6,3.6,0,0,0-2.839,1.23,6.378,6.378,0,0,0-1.38,3.428h8.139V62.4a5.192,5.192,0,0,0-1.143-3.243A3.57,3.57,0,0,0,70.3,58.057Zm37.845,10.055,3.023-13.131h4.166L110.146,74h-3.516l-4.078-13.061L98.545,74H95.029l-5.2-19.02h4.166l3.076,12.99,3.9-12.99h3.217Zm14.616-11.057a6.686,6.686,0,0,1,5.291-2.426q6.082,0,6.17,6.943V74h-4.271V61.73a3.756,3.756,0,0,0-.853-2.786,3.485,3.485,0,0,0-2.5-.817,4.115,4.115,0,0,0-3.832,2.285V74h-4.271V47h4.271Zm15.337,7.26a11.215,11.215,0,0,1,1.107-5.036,8.088,8.088,0,0,1,3.111-3.445,8.766,8.766,0,0,1,4.605-1.2,8.308,8.308,0,0,1,6.249,2.479,9.748,9.748,0,0,1,2.593,6.574l.018,1a11.315,11.315,0,0,1-1.081,5.027,7.991,7.991,0,0,1-3.094,3.428,8.831,8.831,0,0,1-4.649,1.213,8.25,8.25,0,0,1-6.442-2.681,10.267,10.267,0,0,1-2.417-7.146Zm4.271.369a7.664,7.664,0,0,0,1.213,4.6,3.943,3.943,0,0,0,3.375,1.661,3.9,3.9,0,0,0,3.366-1.687,8.465,8.465,0,0,0,1.2-4.939,7.565,7.565,0,0,0-1.239-4.57,4.177,4.177,0,0,0-6.688-.026A8.3,8.3,0,0,0,142.366,64.684ZM164.295,74h-4.271V47h4.271Zm13.385.352a8.837,8.837,0,0,1-6.583-2.558,9.278,9.278,0,0,1-2.522-6.812v-.527a11.413,11.413,0,0,1,1.1-5.089,8.362,8.362,0,0,1,3.085-3.489,8.156,8.156,0,0,1,4.43-1.248,7.465,7.465,0,0,1,6,2.479q2.118,2.479,2.118,7.014v1.723H172.881a5.712,5.712,0,0,0,1.573,3.727,4.723,4.723,0,0,0,3.472,1.371,5.784,5.784,0,0,0,4.781-2.373l2.3,2.2a7.69,7.69,0,0,1-3.05,2.646A9.548,9.548,0,0,1,177.68,74.352Zm-.51-16.295a3.6,3.6,0,0,0-2.839,1.23,6.378,6.378,0,0,0-1.38,3.428h8.139V62.4a5.192,5.192,0,0,0-1.143-3.243A3.57,3.57,0,0,0,177.17,58.057ZM19.375,100.35a11.308,11.308,0,0,1,2.039-7.058,6.533,6.533,0,0,1,5.467-2.663,6.208,6.208,0,0,1,4.887,2.109V83h4.271v27H32.172l-.211-1.969a6.3,6.3,0,0,1-5.115,2.32,6.5,6.5,0,0,1-5.405-2.689A11.722,11.722,0,0,1,19.375,100.35Zm4.271.369a7.917,7.917,0,0,0,1.116,4.526,3.622,3.622,0,0,0,3.173,1.626,4.034,4.034,0,0,0,3.832-2.338V96.412a3.973,3.973,0,0,0-3.8-2.285,3.649,3.649,0,0,0-3.2,1.644A8.817,8.817,0,0,0,23.646,100.719ZM52.219,110a6.592,6.592,0,0,1-.492-1.775,7.185,7.185,0,0,1-9.668.492,5.23,5.23,0,0,1-1.811-4.043,5.4,5.4,0,0,1,2.259-4.667,10.946,10.946,0,0,1,6.46-1.626h2.619V97.133a3.331,3.331,0,0,0-.826-2.364,3.275,3.275,0,0,0-2.514-.888,3.762,3.762,0,0,0-2.391.729,2.258,2.258,0,0,0-.932,1.854H40.653a4.741,4.741,0,0,1,1.037-2.927A6.909,6.909,0,0,1,44.511,91.4a9.91,9.91,0,0,1,3.981-.773,7.981,7.981,0,0,1,5.326,1.679,5.986,5.986,0,0,1,2.039,4.72v8.578a9.722,9.722,0,0,0,.721,4.1v.3Zm-4.693-3.076a4.859,4.859,0,0,0,2.382-.615,4.11,4.11,0,0,0,1.679-1.652V101.07h-2.3a6.3,6.3,0,0,0-3.568.826,2.676,2.676,0,0,0-1.2,2.338,2.5,2.5,0,0,0,.817,1.96A3.165,3.165,0,0,0,47.526,106.924Zm19.819-3.041,3.867-12.9h4.553l-7.559,21.9q-1.74,4.8-5.906,4.8a7.615,7.615,0,0,1-2.057-.318v-3.321l.809.053a4.159,4.159,0,0,0,2.435-.588,3.9,3.9,0,0,0,1.292-1.976l.615-1.633L58.714,90.98h4.605ZM92.446,110H88.174V90.98h4.271ZM87.911,86.041a2.267,2.267,0,0,1,.624-1.635,2.357,2.357,0,0,1,1.784-.65,2.387,2.387,0,0,1,1.793.65,2.25,2.25,0,0,1,.633,1.635,2.2,2.2,0,0,1-.633,1.608,2.406,2.406,0,0,1-1.793.642,2.375,2.375,0,0,1-1.784-.642A2.214,2.214,0,0,1,87.911,86.041Zm13.508,4.939.123,2.2a6.839,6.839,0,0,1,5.537-2.549q5.941,0,6.047,6.8V110h-4.271V97.678A3.917,3.917,0,0,0,108.072,95a3.29,3.29,0,0,0-2.558-.87,4.116,4.116,0,0,0-3.85,2.338V110H97.394V90.98Zm42.433,9.7a11.425,11.425,0,0,1-1.978,7.049,6.442,6.442,0,0,1-5.44,2.619,6.2,6.2,0,0,1-5.2-2.408L131.02,110h-3.867V83h4.271v9.809a6.183,6.183,0,0,1,4.975-2.18,6.515,6.515,0,0,1,5.467,2.584q1.986,2.584,1.986,7.225Zm-4.271-.369a8.075,8.075,0,0,0-1.09-4.641,3.629,3.629,0,0,0-3.164-1.547,3.966,3.966,0,0,0-3.9,2.426v7.84a4.007,4.007,0,0,0,3.938,2.479,3.6,3.6,0,0,0,3.094-1.494,7.824,7.824,0,0,0,1.125-4.518Zm16.585,10.037a8.837,8.837,0,0,1-6.583-2.558,9.278,9.278,0,0,1-2.522-6.812v-.527a11.413,11.413,0,0,1,1.1-5.089,8.362,8.362,0,0,1,3.085-3.489,8.156,8.156,0,0,1,4.43-1.248,7.465,7.465,0,0,1,6,2.479q2.118,2.479,2.118,7.014v1.723H151.366a5.712,5.712,0,0,0,1.573,3.727,4.723,4.723,0,0,0,3.472,1.371,5.784,5.784,0,0,0,4.781-2.373l2.3,2.2a7.69,7.69,0,0,1-3.05,2.646A9.548,9.548,0,0,1,156.165,110.352Zm-.51-16.295a3.6,3.6,0,0,0-2.839,1.23,6.378,6.378,0,0,0-1.38,3.428h8.139V98.4a5.192,5.192,0,0,0-1.143-3.243A3.57,3.57,0,0,0,155.655,94.057Zm11.012,6.293a11.308,11.308,0,0,1,2.039-7.058,6.533,6.533,0,0,1,5.467-2.663,6.208,6.208,0,0,1,4.887,2.109V83h4.271v27h-3.867l-.211-1.969a6.3,6.3,0,0,1-5.115,2.32,6.5,6.5,0,0,1-5.405-2.689A11.722,11.722,0,0,1,166.668,100.35Zm4.271.369a7.917,7.917,0,0,0,1.116,4.526,3.622,3.622,0,0,0,3.173,1.626,4.034,4.034,0,0,0,3.832-2.338V96.412a3.973,3.973,0,0,0-3.8-2.285,3.649,3.649,0,0,0-3.2,1.644A8.817,8.817,0,0,0,170.939,100.719Zm19.872,4.781a2.44,2.44,0,0,1,1.846.677,2.351,2.351,0,0,1,.65,1.7,2.268,2.268,0,0,1-.65,1.661,2.879,2.879,0,0,1-3.656.009,2.229,2.229,0,0,1-.668-1.67,2.351,2.351,0,0,1,.65-1.7A2.416,2.416,0,0,1,190.811,105.5ZM35.309,146H30.862L19.454,127.842V146H15.007V120.406h4.447L30.9,138.635V120.406h4.412Zm4.4-9.686a11.215,11.215,0,0,1,1.107-5.036,8.088,8.088,0,0,1,3.111-3.445,8.766,8.766,0,0,1,4.605-1.2,8.308,8.308,0,0,1,6.249,2.479,9.748,9.748,0,0,1,2.593,6.574l.018,1a11.315,11.315,0,0,1-1.081,5.027,7.991,7.991,0,0,1-3.094,3.428,8.831,8.831,0,0,1-4.649,1.213,8.25,8.25,0,0,1-6.442-2.681,10.267,10.267,0,0,1-2.417-7.146Zm4.271.369a7.664,7.664,0,0,0,1.213,4.6,3.943,3.943,0,0,0,3.375,1.661,3.9,3.9,0,0,0,3.366-1.687,8.465,8.465,0,0,0,1.2-4.939,7.565,7.565,0,0,0-1.239-4.57,4.177,4.177,0,0,0-6.688-.026A8.3,8.3,0,0,0,43.984,136.684Zm22.737-14.326v4.623h3.357v3.164H66.721v10.617a2.338,2.338,0,0,0,.431,1.573,2,2,0,0,0,1.538.483,6.58,6.58,0,0,0,1.494-.176v3.3a10.52,10.52,0,0,1-2.812.4q-4.922,0-4.922-5.432V130.145H59.32V126.98h3.129v-4.623ZM87.568,146H83.3V119h4.271Zm4.21-9.686a11.215,11.215,0,0,1,1.107-5.036A8.088,8.088,0,0,1,96,127.833a8.766,8.766,0,0,1,4.605-1.2,8.308,8.308,0,0,1,6.249,2.479,9.748,9.748,0,0,1,2.593,6.574l.018,1a11.315,11.315,0,0,1-1.081,5.027,7.991,7.991,0,0,1-3.094,3.428,8.831,8.831,0,0,1-4.649,1.213,8.25,8.25,0,0,1-6.442-2.681,10.267,10.267,0,0,1-2.417-7.146Zm4.271.369a7.664,7.664,0,0,0,1.213,4.6,3.943,3.943,0,0,0,3.375,1.661A3.9,3.9,0,0,0,104,141.254a8.465,8.465,0,0,0,1.2-4.939,7.565,7.565,0,0,0-1.239-4.57,4.177,4.177,0,0,0-6.688-.026A8.3,8.3,0,0,0,96.049,136.684Zm16.585-.369a11.215,11.215,0,0,1,1.107-5.036,8.088,8.088,0,0,1,3.111-3.445,8.766,8.766,0,0,1,4.605-1.2,8.308,8.308,0,0,1,6.249,2.479,9.748,9.748,0,0,1,2.593,6.574l.018,1a11.315,11.315,0,0,1-1.081,5.027,7.991,7.991,0,0,1-3.094,3.428,8.831,8.831,0,0,1-4.649,1.213,8.25,8.25,0,0,1-6.442-2.681,10.267,10.267,0,0,1-2.417-7.146Zm4.271.369a7.664,7.664,0,0,0,1.213,4.6,3.943,3.943,0,0,0,3.375,1.661,3.9,3.9,0,0,0,3.366-1.687,8.465,8.465,0,0,0,1.2-4.939,7.565,7.565,0,0,0-1.239-4.57,4.177,4.177,0,0,0-6.688-.026A8.3,8.3,0,0,0,116.9,136.684Zm23.563,1.16-1.9,1.951V146H134.3V119h4.271v15.574l1.336-1.67,5.256-5.924h5.133l-7.066,7.928L151.05,146h-4.939ZM157.984,146h-4.271V126.98h4.271Zm-4.535-23.959a2.267,2.267,0,0,1,.624-1.635,2.357,2.357,0,0,1,1.784-.65,2.387,2.387,0,0,1,1.793.65,2.25,2.25,0,0,1,.633,1.635,2.2,2.2,0,0,1-.633,1.608,2.406,2.406,0,0,1-1.793.642,2.375,2.375,0,0,1-1.784-.642A2.214,2.214,0,0,1,153.449,122.041Zm13.508,4.939.123,2.2a6.839,6.839,0,0,1,5.537-2.549q5.941,0,6.047,6.8V146h-4.271V133.678a3.917,3.917,0,0,0-.782-2.681,3.29,3.29,0,0,0-2.558-.87,4.116,4.116,0,0,0-3.85,2.338V146h-4.271V126.98Zm15.671,9.369a11.124,11.124,0,0,1,2.083-7.075,6.686,6.686,0,0,1,5.528-2.646,6.263,6.263,0,0,1,5.115,2.268l.193-1.916h3.85V145.42a7.664,7.664,0,0,1-2.329,5.906,8.871,8.871,0,0,1-6.284,2.162,10.129,10.129,0,0,1-4.087-.87,7.262,7.262,0,0,1-3.032-2.276l2.021-2.566a6.105,6.105,0,0,0,4.852,2.338,4.718,4.718,0,0,0,3.357-1.151,4.412,4.412,0,0,0,1.23-3.384v-1.283a6.289,6.289,0,0,1-4.922,2.057,6.67,6.67,0,0,1-5.458-2.654A11.484,11.484,0,0,1,182.628,136.35Zm4.254.369a7.657,7.657,0,0,0,1.169,4.509,3.759,3.759,0,0,0,3.243,1.644,4.111,4.111,0,0,0,3.832-2.215v-8.367a4.052,4.052,0,0,0-3.8-2.162,3.773,3.773,0,0,0-3.278,1.67A8.574,8.574,0,0,0,186.882,136.719ZM34.544,182V166.145h-2.9V162.98h2.9v-1.74a6.532,6.532,0,0,1,1.758-4.887,6.733,6.733,0,0,1,4.922-1.723,9.872,9.872,0,0,1,2.391.316l-.105,3.34a8.413,8.413,0,0,0-1.635-.141q-3.059,0-3.059,3.146v1.688h3.867v3.164H38.816V182Zm10.819-9.686a11.215,11.215,0,0,1,1.107-5.036,8.088,8.088,0,0,1,3.111-3.445,8.766,8.766,0,0,1,4.605-1.2,8.308,8.308,0,0,1,6.249,2.479,9.748,9.748,0,0,1,2.593,6.574l.018,1a11.315,11.315,0,0,1-1.081,5.027,7.991,7.991,0,0,1-3.094,3.428,8.831,8.831,0,0,1-4.649,1.213,8.25,8.25,0,0,1-6.442-2.681,10.267,10.267,0,0,1-2.417-7.146Zm4.271.369a7.664,7.664,0,0,0,1.213,4.6,3.943,3.943,0,0,0,3.375,1.661,3.9,3.9,0,0,0,3.366-1.687,8.465,8.465,0,0,0,1.2-4.939,7.565,7.565,0,0,0-1.239-4.57,4.177,4.177,0,0,0-6.688-.026A8.3,8.3,0,0,0,49.635,172.684Zm27.342-5.8a10.57,10.57,0,0,0-1.74-.141,3.918,3.918,0,0,0-3.955,2.25V182H67.01V162.98h4.078l.105,2.127a4.813,4.813,0,0,1,4.289-2.479,4,4,0,0,1,1.512.246ZM100.725,182a6.592,6.592,0,0,1-.492-1.775,7.185,7.185,0,0,1-9.668.492,5.23,5.23,0,0,1-1.811-4.043,5.4,5.4,0,0,1,2.259-4.667,10.946,10.946,0,0,1,6.46-1.626h2.619v-1.248a3.331,3.331,0,0,0-.826-2.364,3.275,3.275,0,0,0-2.514-.888,3.762,3.762,0,0,0-2.391.729,2.258,2.258,0,0,0-.932,1.854H89.158a4.741,4.741,0,0,1,1.037-2.927,6.909,6.909,0,0,1,2.821-2.136A9.91,9.91,0,0,1,97,162.629a7.981,7.981,0,0,1,5.326,1.679,5.986,5.986,0,0,1,2.039,4.72v8.578a9.722,9.722,0,0,0,.721,4.1v.3Zm-4.693-3.076a4.859,4.859,0,0,0,2.382-.615,4.11,4.11,0,0,0,1.679-1.652V173.07h-2.3a6.3,6.3,0,0,0-3.568.826,2.676,2.676,0,0,0-1.2,2.338,2.5,2.5,0,0,0,.817,1.96A3.165,3.165,0,0,0,96.031,178.924Zm26.454-15.943.123,2.2a6.839,6.839,0,0,1,5.537-2.549q5.941,0,6.047,6.8V182h-4.271V169.678a3.917,3.917,0,0,0-.782-2.681,3.29,3.29,0,0,0-2.558-.87,4.116,4.116,0,0,0-3.85,2.338V182H118.46V162.98Zm24.794,19.371a8.837,8.837,0,0,1-6.583-2.558,9.278,9.278,0,0,1-2.522-6.812v-.527a11.413,11.413,0,0,1,1.1-5.089,8.362,8.362,0,0,1,3.085-3.489,8.156,8.156,0,0,1,4.43-1.248,7.465,7.465,0,0,1,6,2.479q2.118,2.479,2.118,7.014v1.723H142.48a5.712,5.712,0,0,0,1.573,3.727,4.723,4.723,0,0,0,3.472,1.371,5.784,5.784,0,0,0,4.781-2.373l2.3,2.2a7.69,7.69,0,0,1-3.05,2.646A9.548,9.548,0,0,1,147.279,182.352Zm-.51-16.295a3.6,3.6,0,0,0-2.839,1.23,6.378,6.378,0,0,0-1.38,3.428h8.139V170.4a5.192,5.192,0,0,0-1.143-3.243A3.57,3.57,0,0,0,146.769,166.057Zm28.52,10.055,3.023-13.131h4.166L177.294,182h-3.516L169.7,168.939,165.692,182h-3.516l-5.2-19.02h4.166l3.076,12.99,3.9-12.99h3.217Zm-92.1,22.869v20.707a6.257,6.257,0,0,1-1.45,4.456,5.558,5.558,0,0,1-4.245,1.538,8.537,8.537,0,0,1-2.268-.3v-3.375a6.581,6.581,0,0,0,1.512.158q2.127,0,2.18-2.32V198.98Zm-4.641-4.939a2.267,2.267,0,0,1,.624-1.635,2.357,2.357,0,0,1,1.784-.65,2.387,2.387,0,0,1,1.793.65,2.25,2.25,0,0,1,.633,1.635,2.2,2.2,0,0,1-.633,1.608,2.406,2.406,0,0,1-1.793.642,2.375,2.375,0,0,1-1.784-.642A2.214,2.214,0,0,1,78.546,194.041Zm8.762,14.273a11.215,11.215,0,0,1,1.107-5.036,8.088,8.088,0,0,1,3.111-3.445,8.766,8.766,0,0,1,4.605-1.2,8.308,8.308,0,0,1,6.249,2.479,9.748,9.748,0,0,1,2.593,6.574l.018,1a11.315,11.315,0,0,1-1.081,5.027,7.991,7.991,0,0,1-3.094,3.428,8.831,8.831,0,0,1-4.649,1.213,8.25,8.25,0,0,1-6.442-2.681,10.267,10.267,0,0,1-2.417-7.146Zm4.271.369a7.664,7.664,0,0,0,1.213,4.6,3.943,3.943,0,0,0,3.375,1.661,3.9,3.9,0,0,0,3.366-1.687,8.465,8.465,0,0,0,1.2-4.939,7.565,7.565,0,0,0-1.239-4.57,4.177,4.177,0,0,0-6.688-.026A8.3,8.3,0,0,0,91.58,208.684Zm34.075,0a11.425,11.425,0,0,1-1.978,7.049,6.442,6.442,0,0,1-5.44,2.619,6.2,6.2,0,0,1-5.2-2.408L112.823,218h-3.867V191h4.271v9.809a6.183,6.183,0,0,1,4.975-2.18,6.515,6.515,0,0,1,5.467,2.584q1.986,2.584,1.986,7.225Zm-4.271-.369a8.075,8.075,0,0,0-1.09-4.641,3.629,3.629,0,0,0-3.164-1.547,3.966,3.966,0,0,0-3.9,2.426v7.84a4.007,4.007,0,0,0,3.938,2.479,3.6,3.6,0,0,0,3.094-1.494,7.824,7.824,0,0,0,1.125-4.518Zm10.872,5.186a2.44,2.44,0,0,1,1.846.677,2.351,2.351,0,0,1,.65,1.7,2.268,2.268,0,0,1-.65,1.661,2.879,2.879,0,0,1-3.656.009,2.229,2.229,0,0,1-.668-1.67,2.351,2.351,0,0,1,.65-1.7A2.416,2.416,0,0,1,132.255,213.5Z" transform="translate(58 233)" fill="#b84c4c"/><g transform="translate(-1244.457 -7497)"><g transform="matrix(-0.259, 0.966, -0.966, -0.259, 1623.254, 7832.71)"><path d="M15.184,0,30.368,21.436H0Z" transform="matrix(-0.966, 0.259, -0.259, -0.966, 34.882, 20.706)" fill="#ce6a6a"/></g><path d="M-14410.127,9477.309h340.957" transform="translate(16024.777 -1631)" fill="none" stroke="#ce6a6a" stroke-width="4"/></g><path d="M40.078,26.034H31.816L30.088,31H26.235L34.292,9.672h3.325L45.688,31H41.821Zm-7.222-2.988h6.182L35.947,14.2Zm24.089,3.647a1.614,1.614,0,0,0-.784-1.45,8.335,8.335,0,0,0-2.6-.879,13.366,13.366,0,0,1-3.032-.967,4.047,4.047,0,0,1-2.666-3.735,4.219,4.219,0,0,1,1.729-3.428,6.833,6.833,0,0,1,4.395-1.377,7.11,7.11,0,0,1,4.592,1.406,4.462,4.462,0,0,1,1.75,3.647H56.77a2.194,2.194,0,0,0-.762-1.707,2.919,2.919,0,0,0-2.021-.681,3.154,3.154,0,0,0-1.912.542,1.709,1.709,0,0,0-.74,1.45,1.443,1.443,0,0,0,.688,1.274,9.467,9.467,0,0,0,2.783.916A13.175,13.175,0,0,1,58.1,22.8a4.657,4.657,0,0,1,1.772,1.531,3.9,3.9,0,0,1,.579,2.168,4.13,4.13,0,0,1-1.772,3.464,7.558,7.558,0,0,1-4.644,1.326,8.2,8.2,0,0,1-3.472-.7,5.714,5.714,0,0,1-2.373-1.934A4.577,4.577,0,0,1,47.336,26h3.457a2.508,2.508,0,0,0,.952,1.941,3.7,3.7,0,0,0,2.329.681,3.6,3.6,0,0,0,2.139-.535A1.655,1.655,0,0,0,56.945,26.693ZM81.086,31a5.493,5.493,0,0,1-.41-1.479,5.988,5.988,0,0,1-8.057.41,4.359,4.359,0,0,1-1.509-3.369,4.5,4.5,0,0,1,1.882-3.889,9.122,9.122,0,0,1,5.383-1.355h2.183v-1.04a2.776,2.776,0,0,0-.688-1.97,2.729,2.729,0,0,0-2.095-.74,3.135,3.135,0,0,0-1.992.608,1.882,1.882,0,0,0-.776,1.545h-3.56a3.951,3.951,0,0,1,.864-2.439,5.758,5.758,0,0,1,2.351-1.78,8.258,8.258,0,0,1,3.318-.645,6.651,6.651,0,0,1,4.438,1.4,4.989,4.989,0,0,1,1.7,3.933v7.148a8.1,8.1,0,0,0,.6,3.413V31Zm-3.911-2.563a4.049,4.049,0,0,0,1.985-.513,3.425,3.425,0,0,0,1.4-1.377V23.559H78.639a5.247,5.247,0,0,0-2.974.688,2.23,2.23,0,0,0-1,1.948,2.08,2.08,0,0,0,.681,1.633A2.638,2.638,0,0,0,77.174,28.437ZM104.215,18.4a8.808,8.808,0,0,0-1.45-.117,3.265,3.265,0,0,0-3.3,1.875V31h-3.56V15.15h3.4l.088,1.772a4.011,4.011,0,0,1,3.574-2.065,3.332,3.332,0,0,1,1.26.205Zm9.529,12.891a7.364,7.364,0,0,1-5.486-2.131,7.732,7.732,0,0,1-2.1-5.676v-.439a9.511,9.511,0,0,1,.916-4.241,6.968,6.968,0,0,1,2.571-2.908,6.8,6.8,0,0,1,3.691-1.04,6.221,6.221,0,0,1,5,2.065,8.734,8.734,0,0,1,1.765,5.845V24.2H109.744a4.76,4.76,0,0,0,1.311,3.105,3.936,3.936,0,0,0,2.893,1.143,4.82,4.82,0,0,0,3.984-1.978l1.919,1.831a6.408,6.408,0,0,1-2.542,2.2A7.957,7.957,0,0,1,113.743,31.293Zm-.425-13.579a3,3,0,0,0-2.366,1.025A5.315,5.315,0,0,0,109.8,21.6h6.782v-.264a4.327,4.327,0,0,0-.952-2.7A2.975,2.975,0,0,0,113.319,17.714Zm18.728,8.979a1.614,1.614,0,0,0-.784-1.45,8.335,8.335,0,0,0-2.6-.879,13.366,13.366,0,0,1-3.032-.967,4.047,4.047,0,0,1-2.666-3.735,4.219,4.219,0,0,1,1.729-3.428,6.833,6.833,0,0,1,4.395-1.377,7.11,7.11,0,0,1,4.592,1.406,4.462,4.462,0,0,1,1.75,3.647h-3.56a2.194,2.194,0,0,0-.762-1.707,2.919,2.919,0,0,0-2.021-.681,3.154,3.154,0,0,0-1.912.542,1.709,1.709,0,0,0-.74,1.45,1.443,1.443,0,0,0,.688,1.274,9.468,9.468,0,0,0,2.783.916,13.175,13.175,0,0,1,3.289,1.1,4.657,4.657,0,0,1,1.772,1.531,3.9,3.9,0,0,1,.579,2.168,4.13,4.13,0,0,1-1.772,3.464,7.558,7.558,0,0,1-4.644,1.326,8.2,8.2,0,0,1-3.472-.7,5.714,5.714,0,0,1-2.373-1.934,4.577,4.577,0,0,1-.85-2.651h3.457a2.508,2.508,0,0,0,.952,1.941,3.7,3.7,0,0,0,2.329.681,3.6,3.6,0,0,0,2.139-.535A1.655,1.655,0,0,0,132.046,26.693Zm16.5,2.754a5.521,5.521,0,0,1-4.453,1.846,4.92,4.92,0,0,1-3.9-1.509,6.418,6.418,0,0,1-1.326-4.365V15.15h3.56V25.375q0,3.018,2.5,3.018a3.518,3.518,0,0,0,3.5-1.86V15.15h3.56V31h-3.354ZM159.7,31h-3.56V8.5h3.56Zm8.635-19.7V15.15h2.8v2.637h-2.8v8.848a1.948,1.948,0,0,0,.359,1.311,1.664,1.664,0,0,0,1.282.4,5.483,5.483,0,0,0,1.245-.146v2.754a8.767,8.767,0,0,1-2.344.337q-4.1,0-4.1-4.526V17.787H162.17V15.15h2.607V11.3Z" transform="translate(448 356)" fill="#ce6a6a"/></g><g transform="translate(1562.688 8528.514)"><g transform="translate(0 0)"><path d="M0,41.3l9.3-2.584,5.253,25.173L17.837,22.8,9.3,26.2,5.262,0Z" transform="matrix(0.695, -0.719, 0.719, 0.695, 46.771, 44.644)" fill="#9a4242" opacity="0.9"/><path d="M0,41.3l9.3-2.584,5.253,25.173L17.837,22.8,9.3,26.2,5.267,0Z" transform="matrix(0.934, -0.358, 0.358, 0.934, 78.061, 6.392)" fill="#9a4242" opacity="0.9"/><g transform="translate(0 65.81)"><rect width="538.16" height="90.188" transform="translate(29.47 190.662)" fill="#564444"/><rect width="538.16" height="41.731" transform="translate(29.47 190.662)" fill="#859593"/><path d="M55.282,295h95.19l-44.421-36.343c-11.619-8.891-33.9-11.559-50.772-11.559l0,47.9Z" transform="translate(3.657 -104.336)" fill="#859593"/><g transform="translate(0 0)"><path d="M58.938,469.438a10,10,0,0,1-10,10H10a10,10,0,0,1-10-10v-283.7a29.47,29.47,0,1,1,58.939,0v283.7Z" transform="translate(0 -156.263)" fill="#564444"/><path d="M515.657,460.65a10,10,0,0,1-10,10h-38.94a10,10,0,0,1-10-10V318.556a29.47,29.47,0,1,1,58.939,0V460.65h0Z" transform="translate(81.44 -147.475)" fill="#564444"/></g><g transform="translate(75.404 84.187)"><g transform="translate(0 0)"><g transform="translate(0 0)"><ellipse cx="36" cy="35" rx="36" ry="35" transform="translate(-0.091 0.489)" fill="#faad93"/></g></g><g transform="translate(143.524 1.837)"><g transform="translate(0 0)"><path d="M479.107,210.1C412.643,190.9,280.368,175.872,240.136,177.01l-23.9,46.04-12.08,63.006s-.681,18.283-.288,28.255a8.788,8.788,0,0,0,8.779,8.446l302.792.841a8.791,8.791,0,0,0,8.677-7.38l5.609-34.5C535.2,248.023,511.9,219.565,479.107,210.1Z" transform="translate(-203.742 -176.949)" fill="#578288"/></g></g><path d="M330.506,216.106l0,0a17.507,17.507,0,0,0-24.064-5.655l0,0-51.418,31.846-60.453-27.706,28.376,5a212.241,212.241,0,0,1,14.026-33.248l-65.789-1.208a24.554,24.554,0,0,0-24.925,24.025l-.8,43.647a24.571,24.571,0,0,0,24.028,24.926l41.761.766q.337-4.05.776-7.959l-29.8-23.147,66.758,30.6a17.623,17.623,0,0,0,16.488-1.032l59.387-36.783A17.48,17.48,0,0,0,330.506,216.106Z" transform="translate(-63.538 -174.619)" fill="#b84c4c"/></g><path d="M323.993,213.84l0,0a17.507,17.507,0,0,0-24.064-5.655l0,0L248.5,240.029l-30.451-14.055-13.876,32.108,38.282,17.643a17.623,17.623,0,0,0,16.488-1.032l59.387-36.783A17.48,17.48,0,0,0,323.993,213.84Z" transform="translate(18.378 -88.166)" fill="#faad93"/></g></g></g><path d="M115.1,45.266h15.492V50H109.167V15.875h5.93Zm18.9-8.18a14.953,14.953,0,0,1,1.477-6.715,10.784,10.784,0,0,1,4.148-4.594,11.689,11.689,0,0,1,6.141-1.605,11.077,11.077,0,0,1,8.332,3.3,13,13,0,0,1,3.457,8.766l.023,1.336a15.087,15.087,0,0,1-1.441,6.7,10.654,10.654,0,0,1-4.125,4.57,11.774,11.774,0,0,1-6.2,1.617,11,11,0,0,1-8.59-3.574Q134,43.32,134,37.367Zm5.7.492a10.218,10.218,0,0,0,1.617,6.129,5.257,5.257,0,0,0,4.5,2.215,5.2,5.2,0,0,0,4.488-2.25q1.605-2.25,1.605-6.586a10.087,10.087,0,0,0-1.652-6.094,5.569,5.569,0,0,0-8.918-.035Q139.694,33.172,139.694,37.578Zm37.394,5.531a2.582,2.582,0,0,0-1.254-2.32,13.336,13.336,0,0,0-4.16-1.406,21.386,21.386,0,0,1-4.852-1.547q-4.266-2.062-4.266-5.977a6.75,6.75,0,0,1,2.766-5.484,10.933,10.933,0,0,1,7.031-2.2,11.376,11.376,0,0,1,7.348,2.25,7.14,7.14,0,0,1,2.8,5.836h-5.7a3.51,3.51,0,0,0-1.219-2.73,4.671,4.671,0,0,0-3.234-1.09,5.047,5.047,0,0,0-3.059.867,2.734,2.734,0,0,0-1.184,2.32,2.308,2.308,0,0,0,1.1,2.039,15.148,15.148,0,0,0,4.453,1.465,21.08,21.08,0,0,1,5.262,1.758,7.451,7.451,0,0,1,2.836,2.449,6.246,6.246,0,0,1,.926,3.469,6.607,6.607,0,0,1-2.836,5.543,12.093,12.093,0,0,1-7.43,2.121,13.113,13.113,0,0,1-5.555-1.125,9.142,9.142,0,0,1-3.8-3.094,7.323,7.323,0,0,1-1.359-4.242h5.531a4.013,4.013,0,0,0,1.523,3.105,5.92,5.92,0,0,0,3.727,1.09,5.759,5.759,0,0,0,3.422-.855A2.648,2.648,0,0,0,177.088,43.109Zm18.175-24.633v6.164h4.477v4.219h-4.477V43.016a3.118,3.118,0,0,0,.574,2.1,2.663,2.663,0,0,0,2.051.645,8.773,8.773,0,0,0,1.992-.234V49.93a14.027,14.027,0,0,1-3.75.539q-6.562,0-6.562-7.242V28.859H185.4V24.641h4.172V18.477Zm27.679,6.164V52.25a8.343,8.343,0,0,1-1.934,5.941,7.411,7.411,0,0,1-5.66,2.051,11.382,11.382,0,0,1-3.023-.4v-4.5a8.775,8.775,0,0,0,2.016.211q2.836,0,2.906-3.094V24.641Zm-6.187-6.586a3.023,3.023,0,0,1,.832-2.18,3.143,3.143,0,0,1,2.379-.867,3.182,3.182,0,0,1,2.391.867,3,3,0,0,1,.844,2.18,2.93,2.93,0,0,1-.844,2.145,3.207,3.207,0,0,1-2.391.855,3.167,3.167,0,0,1-2.379-.855A2.952,2.952,0,0,1,216.755,18.055Zm11.683,19.031a14.953,14.953,0,0,1,1.477-6.715,10.784,10.784,0,0,1,4.148-4.594,11.689,11.689,0,0,1,6.141-1.605,11.077,11.077,0,0,1,8.332,3.3,13,13,0,0,1,3.457,8.766l.023,1.336a15.087,15.087,0,0,1-1.441,6.7,10.654,10.654,0,0,1-4.125,4.57,11.774,11.774,0,0,1-6.2,1.617,11,11,0,0,1-8.59-3.574q-3.223-3.574-3.223-9.527Zm5.7.492a10.218,10.218,0,0,0,1.617,6.129,5.257,5.257,0,0,0,4.5,2.215,5.2,5.2,0,0,0,4.488-2.25q1.605-2.25,1.605-6.586a10.087,10.087,0,0,0-1.652-6.094,5.569,5.569,0,0,0-8.918-.035Q234.133,33.172,234.133,37.578Zm45.433,0q0,5.906-2.637,9.4a8.589,8.589,0,0,1-7.254,3.492,8.273,8.273,0,0,1-6.937-3.211L262.457,50H257.3V14H263V27.078a8.243,8.243,0,0,1,6.633-2.906,8.687,8.687,0,0,1,7.289,3.445q2.648,3.445,2.648,9.633Zm-5.7-.492q0-4.125-1.453-6.187a4.839,4.839,0,0,0-4.219-2.062A5.288,5.288,0,0,0,263,32.07V42.523a5.342,5.342,0,0,0,5.25,3.3,4.8,4.8,0,0,0,4.125-1.992q1.453-1.992,1.5-6.023Zm22.312.047q0-5.859,2.719-9.41a8.711,8.711,0,0,1,7.289-3.551,8.277,8.277,0,0,1,6.516,2.813V14h5.7V50h-5.156l-.281-2.625a8.4,8.4,0,0,1-6.82,3.094,8.662,8.662,0,0,1-7.207-3.586Q296.183,43.3,296.183,37.133Zm5.7.492a10.556,10.556,0,0,0,1.488,6.035,4.829,4.829,0,0,0,4.23,2.168,5.379,5.379,0,0,0,5.109-3.117V31.883a5.3,5.3,0,0,0-5.062-3.047,4.865,4.865,0,0,0-4.266,2.191Q301.878,33.219,301.878,37.625Zm38.308,9.891a8.833,8.833,0,0,1-7.125,2.953,7.872,7.872,0,0,1-6.246-2.414q-2.121-2.414-2.121-6.984V24.641h5.7V41q0,4.828,4.008,4.828,4.148,0,5.6-2.977V24.641h5.7V50h-5.367Zm22.957,2.953a11.783,11.783,0,0,1-8.777-3.41A12.371,12.371,0,0,1,351,37.977v-.7a15.217,15.217,0,0,1,1.465-6.785,11.149,11.149,0,0,1,4.113-4.652,10.874,10.874,0,0,1,5.906-1.664q5.18,0,8,3.3t2.824,9.352v2.3h-16.57a7.616,7.616,0,0,0,2.1,4.969,6.3,6.3,0,0,0,4.629,1.828,7.712,7.712,0,0,0,6.375-3.164l3.07,2.93a10.253,10.253,0,0,1-4.066,3.527A12.731,12.731,0,0,1,363.143,50.469Zm-.68-21.727a4.8,4.8,0,0,0-3.785,1.641,8.5,8.5,0,0,0-1.84,4.57H367.69v-.422a6.922,6.922,0,0,0-1.523-4.324A4.759,4.759,0,0,0,362.463,28.742Zm35.319-10.266v6.164h4.477v4.219h-4.477V43.016a3.118,3.118,0,0,0,.574,2.1,2.663,2.663,0,0,0,2.051.645,8.773,8.773,0,0,0,1.992-.234V49.93a14.027,14.027,0,0,1-3.75.539q-6.562,0-6.562-7.242V28.859h-4.172V24.641h4.172V18.477Zm7.535,18.609a14.953,14.953,0,0,1,1.477-6.715,10.784,10.784,0,0,1,4.148-4.594,11.689,11.689,0,0,1,6.141-1.605,11.077,11.077,0,0,1,8.332,3.3,13,13,0,0,1,3.457,8.766l.023,1.336a15.087,15.087,0,0,1-1.441,6.7,10.654,10.654,0,0,1-4.125,4.57,11.774,11.774,0,0,1-6.2,1.617,11,11,0,0,1-8.59-3.574q-3.223-3.574-3.223-9.527Zm5.7.492a10.218,10.218,0,0,0,1.617,6.129,5.257,5.257,0,0,0,4.5,2.215,5.2,5.2,0,0,0,4.488-2.25q1.605-2.25,1.605-6.586a10.087,10.087,0,0,0-1.652-6.094,5.569,5.569,0,0,0-8.918-.035Q411.012,33.172,411.012,37.578Zm62.2,1.313a12.322,12.322,0,0,1-4.031,8.52q-3.516,3.059-9.352,3.059a13.307,13.307,0,0,1-7.184-1.934,12.692,12.692,0,0,1-4.793-5.5,19.834,19.834,0,0,1-1.758-8.273V31.578a19.977,19.977,0,0,1,1.711-8.508,12.894,12.894,0,0,1,4.91-5.672,13.7,13.7,0,0,1,7.395-1.992,13.19,13.19,0,0,1,9.094,3.059,12.781,12.781,0,0,1,4.008,8.66h-5.906q-.422-3.68-2.145-5.309a7.088,7.088,0,0,0-5.051-1.629,6.924,6.924,0,0,0-5.941,2.827q-2.074,2.827-2.121,8.293v3.026q0,5.536,1.98,8.445a6.572,6.572,0,0,0,5.8,2.909,7.666,7.666,0,0,0,5.25-1.57q1.758-1.57,2.227-5.227Zm33.011-5.062a20.937,20.937,0,0,1-1.734,8.8,13.114,13.114,0,0,1-4.957,5.813,14.542,14.542,0,0,1-14.812,0,13.315,13.315,0,0,1-5.016-5.777,20.282,20.282,0,0,1-1.793-8.648V32.094a20.757,20.757,0,0,1,1.77-8.812,13.3,13.3,0,0,1,4.992-5.848,14.572,14.572,0,0,1,14.789-.023,13.131,13.131,0,0,1,4.98,5.766,20.713,20.713,0,0,1,1.781,8.754Zm-5.93-1.781q0-5.672-2.145-8.7a7.567,7.567,0,0,0-12.094-.012q-2.168,3.012-2.215,8.52v1.969q0,5.625,2.191,8.7a7.056,7.056,0,0,0,6.082,3.07,6.974,6.974,0,0,0,6.059-3q2.121-3,2.121-8.766ZM524.12,42.57l8.672-26.7h6.516L527.026,50h-5.742L509.05,15.875h6.492ZM549.889,50h-5.906V15.875h5.906Zm7.769,0V15.875h10.078a15.807,15.807,0,0,1,8.027,2.016,13.744,13.744,0,0,1,5.426,5.719,18.153,18.153,0,0,1,1.922,8.484V33.8a18.078,18.078,0,0,1-1.934,8.531,13.578,13.578,0,0,1-5.508,5.672A16.54,16.54,0,0,1,567.478,50Zm5.93-29.344V45.266h3.867a8.9,8.9,0,0,0,7.16-2.918q2.5-2.918,2.543-8.379v-1.9q0-5.555-2.414-8.484a8.559,8.559,0,0,0-7.008-2.93ZM600,37.789h-12.3V33.2H600ZM620.235,50h-5.672V22.585L606.2,25.438V20.656l13.313-4.9h.727Zm28.488-14.273a9.308,9.308,0,0,1-13.852-.129,12.378,12.378,0,0,1-2.672-8.285,13.583,13.583,0,0,1,1.359-6.117,10.136,10.136,0,0,1,3.867-4.266,10.972,10.972,0,0,1,5.813-1.523,9.858,9.858,0,0,1,8.18,3.844q3.023,3.844,3.023,10.289v1.594q0,9.234-4.172,14.086t-12.445,4.922h-.68V45.43h.82Q643,45.359,645.7,43T648.723,35.727Zm-5.484-1.43a5.747,5.747,0,0,0,3.211-.984,6.487,6.487,0,0,0,2.32-2.719V28.367a10.691,10.691,0,0,0-1.547-6.07,4.66,4.66,0,0,0-4.008-2.3,4.6,4.6,0,0,0-3.926,2.027,8.522,8.522,0,0,0-1.465,5.121,8.417,8.417,0,0,0,1.477,5.18A4.677,4.677,0,0,0,643.239,34.3Z" transform="translate(1397 7980)" fill="#fff"/></g></svg>