<svg xmlns="http://www.w3.org/2000/svg" width="1000" height="1000" viewBox="0 0 1000 1000">
  <g id="Prevent_from_negative_thinking_trap" data-name="Prevent from negative thinking trap" transform="translate(-1278 -8549)">
    <g id="Group_13166" data-name="Group 13166" transform="translate(1169 204)">
      <rect id="Rectangle_4299" data-name="Rectangle 4299" width="1000" height="1000" rx="4" transform="translate(109 8345)" fill="#d5fcff"/>
      <rect id="Rectangle_4300" data-name="Rectangle 4300" width="1000" height="461" transform="translate(109 8884)" fill="#36885f"/>
    </g>
    <path id="Path_14120" data-name="Path 14120" d="M234.419-.492C358.36-.492,411,40.071,411,89.5s-114.9,87.792-228.392,87.792S0,138.929,0,89.5,73.906-.492,234.419-.492Z" transform="translate(1745 9120)" fill="#3b301c"/>
    <path id="Path_14119" data-name="Path 14119" d="M13.978,7.406,557.412-17.075V7.406L513.165,66.248l-552.52.01V41.566Z" transform="translate(1677 9174.195)" fill="#deca7a"/>
    <path id="Path_14118" data-name="Path 14118" d="M13.978,0H557.412L511.345,58.852h-550.7Z" transform="translate(1677 9157.229)" fill="#ebd991"/>
    <g id="soccer-player" transform="matrix(1, 0.017, -0.017, 1, 1451.375, 8675.819)">
      <path id="Path_10999" data-name="Path 10999" d="M217.34,501.42,165.955,385.894,154.863,374.5l2.2-37.6,37.037,3.489L206.38,353a25.948,25.948,0,0,1,5.118,7.559L264.77,480.324a25.955,25.955,0,0,1-47.431,21.1Zm0,0" transform="translate(13.026 10.3)" fill="#375048"/>
      <path id="Union_125" data-name="Union 125" d="M18.352,261.331h0A27.667,27.667,0,0,1,1.623,225.965L37.94,124.473,36.8,114.9h0L27.546,37.237,50.967,0l32.4,38.1,9.152,76.8h0l1.13,9.49a27.617,27.617,0,0,1-1.421,12.592L53.715,244.607a27.632,27.632,0,0,1-35.363,16.725Z" transform="translate(0.494 296.817)" fill="#375048"/>
      <path id="Path_11001" data-name="Path 11001" d="M127.39,92.915,44.552,7.846A25.956,25.956,0,1,0,7.358,44.06l80.791,82.962Zm0,0" transform="translate(74.757 287.273) rotate(-9)" fill="#375048"/>
      <path id="Path_11003" data-name="Path 11003" d="M118.526,325.581l-92.768-1.463,2.67-177.124a32.791,32.791,0,0,1,33.3-32.29l58.462.92A32.789,32.789,0,0,1,152.463,148.9l-2.2,145.908a31.247,31.247,0,0,1-31.738,30.771Zm0,0" transform="translate(2.407 9.92)" fill="#3f5d54"/>
      <path id="Path_11004" data-name="Path 11004" d="M98.9,10.626a48.54,48.54,0,1,0,47.766,49.3A48.538,48.538,0,0,0,98.9,10.626Zm0,0" transform="translate(4.679 0)" fill="#febfaa"/>
      <path id="Path_11005" data-name="Path 11005" d="M161.123,310.944,82.932,256.251a21.986,21.986,0,0,1-9.109-14.526l-5.151-32.038,18.436-23.305,24.867,15.565,3.8,23.6,70.562,49.358a21.99,21.99,0,1,1-25.209,36.038Zm0,0" transform="translate(6.498 16.753)" fill="#febfaa"/>
      <path id="Path_11006" data-name="Path 11006" d="M69.565,215.276l43.3-7.74-9.858-61.282a21.99,21.99,0,0,0-43.423,6.983Zm0,0" transform="translate(5.605 11.164)" fill="#4a6d63"/>
    </g>
  </g>
</svg>
