<svg xmlns="http://www.w3.org/2000/svg" xmlns:xlink="http://www.w3.org/1999/xlink" width="1000" height="1273" viewBox="0 0 1000 1273">
  <defs>
    <filter id="Polygon_18" x="151.935" y="390.04" width="155.812" height="178.665" filterUnits="userSpaceOnUse">
      <feOffset dy="1" input="SourceAlpha"/>
      <feGaussianBlur stdDeviation="1" result="blur"/>
      <feFlood flood-opacity="0.161"/>
      <feComposite operator="in" in2="blur"/>
      <feComposite in="SourceGraphic"/>
    </filter>
    <filter id="Polygon_21" x="692.94" y="390.04" width="155.812" height="178.665" filterUnits="userSpaceOnUse">
      <feOffset dy="1" input="SourceAlpha"/>
      <feGaussianBlur stdDeviation="1" result="blur-2"/>
      <feFlood flood-opacity="0.161"/>
      <feComposite operator="in" in2="blur-2"/>
      <feComposite in="SourceGraphic"/>
    </filter>
    <filter id="Polygon_20" x="112.656" y="673.305" width="155.812" height="178.665" filterUnits="userSpaceOnUse">
      <feOffset dy="1" input="SourceAlpha"/>
      <feGaussianBlur stdDeviation="1" result="blur-3"/>
      <feFlood flood-opacity="0.161"/>
      <feComposite operator="in" in2="blur-3"/>
      <feComposite in="SourceGraphic"/>
    </filter>
    <filter id="Polygon_23" x="112.656" y="953.453" width="155.812" height="178.665" filterUnits="userSpaceOnUse">
      <feOffset dy="1" input="SourceAlpha"/>
      <feGaussianBlur stdDeviation="1" result="blur-4"/>
      <feFlood flood-opacity="0.161"/>
      <feComposite operator="in" in2="blur-4"/>
      <feComposite in="SourceGraphic"/>
    </filter>
    <filter id="Polygon_22" x="732.219" y="696.305" width="155.813" height="178.665" filterUnits="userSpaceOnUse">
      <feOffset dy="1" input="SourceAlpha"/>
      <feGaussianBlur stdDeviation="1" result="blur-5"/>
      <feFlood flood-opacity="0.161"/>
      <feComposite operator="in" in2="blur-5"/>
      <feComposite in="SourceGraphic"/>
    </filter>
    <filter id="Polygon_24" x="732.219" y="953.453" width="155.813" height="178.665" filterUnits="userSpaceOnUse">
      <feOffset dy="1" input="SourceAlpha"/>
      <feGaussianBlur stdDeviation="1" result="blur-6"/>
      <feFlood flood-opacity="0.161"/>
      <feComposite operator="in" in2="blur-6"/>
      <feComposite in="SourceGraphic"/>
    </filter>
    <filter id="Polygon_19" x="422.438" y="296.159" width="155.812" height="178.665" filterUnits="userSpaceOnUse">
      <feOffset dy="1" input="SourceAlpha"/>
      <feGaussianBlur stdDeviation="1" result="blur-7"/>
      <feFlood flood-opacity="0.161"/>
      <feComposite operator="in" in2="blur-7"/>
      <feComposite in="SourceGraphic"/>
    </filter>
    <clipPath id="clip-path">
      <rect id="Rectangle_4287" data-name="Rectangle 4287" width="112" height="94" transform="translate(-0.459 -0.079)" fill="#fff" stroke="#707070" stroke-width="1"/>
    </clipPath>
  </defs>
  <g id="What_does_an_average_person_do_all_day_" data-name="What does an average person do all day?" transform="translate(-105 -391)">
    <g id="Group_13226" data-name="Group 13226">
      <g id="Activity_a_normal_person_do" data-name="Activity a normal person do">
        <g id="What_does_an_average_person_do_all_day_2" data-name="What does an average person do all day?" transform="translate(105 645)">
          <g id="Rectangle_2987" data-name="Rectangle 2987" transform="translate(0 -254)" fill="#dcf8f9" stroke="#b9d5d6" stroke-width="1">
            <rect width="1000" height="1273" rx="4" stroke="none"/>
            <rect x="0.5" y="0.5" width="999" height="1272" rx="3.5" fill="none"/>
          </g>
          <g id="Group_9813" data-name="Group 9813" transform="translate(115.119 44.159)">
            <g transform="matrix(1, 0, 0, 1, -115.12, -298.16)" filter="url(#Polygon_18)">
              <path id="Polygon_18-2" data-name="Polygon 18" d="M121.986,0A13,13,0,0,1,133.25,6.509l35.675,61.906a13,13,0,0,1,0,12.982L133.25,143.3a13,13,0,0,1-11.264,6.509H50.679A13,13,0,0,1,39.415,143.3L3.741,81.4a13,13,0,0,1,0-12.982L39.415,6.509A13,13,0,0,1,50.679,0Z" transform="translate(304.75 392.04) rotate(90)" fill="#f1feff"/>
            </g>
            <g transform="matrix(1, 0, 0, 1, -115.12, -298.16)" filter="url(#Polygon_21)">
              <path id="Polygon_21-2" data-name="Polygon 21" d="M124.876,0a8,8,0,0,1,6.931,4.006l38.556,66.906a8,8,0,0,1,0,7.989l-38.556,66.906a8,8,0,0,1-6.931,4.006H47.789a8,8,0,0,1-6.931-4.006L2.3,78.9a8,8,0,0,1,0-7.989L40.858,4.006A8,8,0,0,1,47.789,0Z" transform="translate(695.94 564.71) rotate(-90)" fill="#f1feff"/>
            </g>
            <g transform="matrix(1, 0, 0, 1, -115.12, -298.16)" filter="url(#Polygon_20)">
              <path id="Polygon_20-2" data-name="Polygon 20" d="M121.986,0A13,13,0,0,1,133.25,6.509l35.675,61.906a13,13,0,0,1,0,12.982L133.25,143.3a13,13,0,0,1-11.264,6.509H50.679A13,13,0,0,1,39.415,143.3L3.741,81.4a13,13,0,0,1,0-12.982L39.415,6.509A13,13,0,0,1,50.679,0Z" transform="translate(265.47 675.31) rotate(90)" fill="#f1feff"/>
            </g>
            <g transform="matrix(1, 0, 0, 1, -115.12, -298.16)" filter="url(#Polygon_23)">
              <path id="Polygon_23-2" data-name="Polygon 23" d="M121.986,0A13,13,0,0,1,133.25,6.509l35.675,61.906a13,13,0,0,1,0,12.982L133.25,143.3a13,13,0,0,1-11.264,6.509H50.679A13,13,0,0,1,39.415,143.3L3.741,81.4a13,13,0,0,1,0-12.982L39.415,6.509A13,13,0,0,1,50.679,0Z" transform="translate(265.47 955.45) rotate(90)" fill="#f1feff"/>
            </g>
            <g transform="matrix(1, 0, 0, 1, -115.12, -298.16)" filter="url(#Polygon_22)">
              <path id="Polygon_22-2" data-name="Polygon 22" d="M121.986,0A13,13,0,0,1,133.25,6.509l35.675,61.906a13,13,0,0,1,0,12.982L133.25,143.3a13,13,0,0,1-11.264,6.509H50.679A13,13,0,0,1,39.415,143.3L3.741,81.4a13,13,0,0,1,0-12.982L39.415,6.509A13,13,0,0,1,50.679,0Z" transform="translate(735.22 870.97) rotate(-90)" fill="#f1feff"/>
            </g>
            <g transform="matrix(1, 0, 0, 1, -115.12, -298.16)" filter="url(#Polygon_24)">
              <path id="Polygon_24-2" data-name="Polygon 24" d="M121.986,0A13,13,0,0,1,133.25,6.509l35.675,61.906a13,13,0,0,1,0,12.982L133.25,143.3a13,13,0,0,1-11.264,6.509H50.679A13,13,0,0,1,39.415,143.3L3.741,81.4a13,13,0,0,1,0-12.982L39.415,6.509A13,13,0,0,1,50.679,0Z" transform="translate(735.22 1128.12) rotate(-90)" fill="#f1feff"/>
            </g>
            <g transform="matrix(1, 0, 0, 1, -115.12, -298.16)" filter="url(#Polygon_19)">
              <path id="Polygon_19-2" data-name="Polygon 19" d="M121.986,0A13,13,0,0,1,133.25,6.509l35.675,61.906a13,13,0,0,1,0,12.982L133.25,143.3a13,13,0,0,1-11.264,6.509H50.679A13,13,0,0,1,39.415,143.3L3.741,81.4a13,13,0,0,1,0-12.982L39.415,6.509A13,13,0,0,1,50.679,0Z" transform="translate(575.25 298.16) rotate(90)" fill="#f1feff"/>
            </g>
            <g id="alarm-clock_3_" data-name="alarm-clock (3)" transform="translate(296.168 297.778)" opacity="0.6">
              <g id="Group_9783" data-name="Group 9783" transform="translate(20.119 160.958)">
                <path id="Path_8080" data-name="Path 8080" d="M28.73,52.414,12.768,68.377a4.058,4.058,0,1,0,5.739,5.739L34.469,58.153a4.058,4.058,0,1,0-5.739-5.739Z" transform="translate(-11.578 -51.102)" fill="#424a60"/>
                <path id="Path_8081" data-name="Path 8081" d="M62.628,68.469,46.544,52.384A4.058,4.058,0,0,0,40.8,58.123L56.889,74.208a4.058,4.058,0,0,0,5.739-5.739Z" transform="translate(74.175 -51.194)" fill="#424a60"/>
              </g>
              <path id="Path_8082" data-name="Path 8082" d="M155.879,30.483c.082-.069.182-.1.26-.171-.173-.1-5.337-4.357-4.847-4.847a3.379,3.379,0,0,0-.236.356,89.071,89.071,0,0,0-118.718,0c-.089-.113.106.106,0,0-1.019,1.019-4.331,4.662-4.823,4.662.075.075-.082-.069,0,0a89.123,89.123,0,1,0,128.363,0Z" transform="translate(-2.579 -3.157)" fill="#424a60"/>
              <ellipse id="Ellipse_4070" data-name="Ellipse 4070" cx="75.409" cy="75.409" rx="75.409" ry="75.409" transform="translate(13.707 13.711)" fill="#e7eced"/>
              <ellipse id="Ellipse_4071" data-name="Ellipse 4071" cx="51.415" cy="51.415" rx="51.415" ry="51.415" transform="translate(37.701 37.705)" fill="#fff"/>
              <g id="Group_9784" data-name="Group 9784" transform="translate(10.28 10.283)">
                <path id="Path_8083" data-name="Path 8083" d="M31.006,6.157a3.427,3.427,0,0,0-3.428,3.428V16.44a3.428,3.428,0,1,0,6.855,0V9.585A3.425,3.425,0,0,0,31.006,6.157Z" transform="translate(47.831 -6.157)" fill="#fff"/>
                <path id="Path_8084" data-name="Path 8084" d="M31.006,48.157a3.427,3.427,0,0,0-3.428,3.428V58.44a3.428,3.428,0,0,0,6.855,0V51.585A3.425,3.425,0,0,0,31.006,48.157Z" transform="translate(47.831 95.806)" fill="#fff"/>
                <path id="Path_8085" data-name="Path 8085" d="M57.861,28.157H51.006a3.428,3.428,0,1,0,0,6.855h6.855a3.428,3.428,0,0,0,0-6.855Z" transform="translate(96.385 47.252)" fill="#fff"/>
                <path id="Path_8086" data-name="Path 8086" d="M19.289,31.585a3.427,3.427,0,0,0-3.428-3.428H9.006a3.428,3.428,0,0,0,0,6.855h6.855A3.427,3.427,0,0,0,19.289,31.585Z" transform="translate(-5.578 47.252)" fill="#fff"/>
                <path id="Path_8087" data-name="Path 8087" d="M22.975,10.82a3.428,3.428,0,1,0-5.937,3.428l3.428,5.937A3.428,3.428,0,1,0,26.4,16.757Z" transform="translate(21.129 0.995)" fill="#fff"/>
                <path id="Path_8088" data-name="Path 8088" d="M43.975,47.192a3.428,3.428,0,0,0-5.937,3.428l3.428,5.937A3.428,3.428,0,1,0,47.4,53.129Z" transform="translate(72.11 89.299)" fill="#fff"/>
                <path id="Path_8089" data-name="Path 8089" d="M19.6,21.043l-5.937-3.428a3.428,3.428,0,0,0-3.428,5.937l5.937,3.428A3.428,3.428,0,0,0,19.6,21.043Z" transform="translate(1.579 20.546)" fill="#fff"/>
                <path id="Path_8090" data-name="Path 8090" d="M55.977,42.045l-5.937-3.428a3.428,3.428,0,1,0-3.428,5.937l5.937,3.428a3.428,3.428,0,0,0,3.428-5.937Z" transform="translate(89.881 71.525)" fill="#fff"/>
                <path id="Path_8091" data-name="Path 8091" d="M16.177,38.617,10.24,42.045a3.428,3.428,0,1,0,3.428,5.937L19.6,44.554a3.428,3.428,0,0,0-3.428-5.937Z" transform="translate(1.579 71.525)" fill="#fff"/>
                <path id="Path_8092" data-name="Path 8092" d="M48.33,27.441a3.419,3.419,0,0,0,1.71-.459l5.937-3.428a3.428,3.428,0,0,0-3.428-5.937l-5.937,3.428a3.428,3.428,0,0,0,1.717,6.4Z" transform="translate(89.881 20.546)" fill="#fff"/>
                <path id="Path_8093" data-name="Path 8093" d="M25.147,45.936a3.43,3.43,0,0,0-4.682,1.255l-3.428,5.937a3.428,3.428,0,1,0,5.937,3.428L26.4,50.618A3.428,3.428,0,0,0,25.147,45.936Z" transform="translate(21.127 89.3)" fill="#fff"/>
                <path id="Path_8094" data-name="Path 8094" d="M46.147,9.564a3.427,3.427,0,0,0-4.682,1.255l-3.428,5.937a3.428,3.428,0,1,0,5.937,3.428L47.4,14.246A3.428,3.428,0,0,0,46.147,9.564Z" transform="translate(72.108 0.997)" fill="#fff"/>
              </g>
              <path id="Path_8095" data-name="Path 8095" d="M75.993,62.145H51.513a13.693,13.693,0,0,0-9.8-9.8V17.585a3.428,3.428,0,1,0-6.855,0V52.348A13.682,13.682,0,1,0,51.513,69H75.993a3.428,3.428,0,0,0,0-6.855Zm-37.7,10.283a6.855,6.855,0,1,1,6.855-6.855A6.862,6.862,0,0,1,38.289,72.428Z" transform="translate(50.828 23.548)" fill="#424a60"/>
            </g>
            <g id="contrast" transform="translate(8.45 689.412)">
              <ellipse id="Ellipse_4072" data-name="Ellipse 4072" cx="11.139" cy="11.139" rx="11.139" ry="11.139" transform="translate(8.233 8.233)" fill="#fcd462"/>
              <g id="Group_9785" data-name="Group 9785">
                <path id="Path_8109" data-name="Path 8109" d="M200.245,118.664a18.181,18.181,0,0,1,.872,4.891c.291,6.732-4.262,12.689-10.17,15.3a11.138,11.138,0,0,0,9.3-20.2Z" transform="translate(-175.594 -109.123)" fill="#f6c358"/>
                <path id="Path_8110" data-name="Path 8110" d="M222.108,0a1.633,1.633,0,0,0-1.647,1.647V4.359a1.647,1.647,0,1,0,3.293,0V1.647A1.633,1.633,0,0,0,222.108,0Z" transform="translate(-202.736)" fill="#f6c358"/>
                <path id="Path_8111" data-name="Path 8111" d="M222.108,407.191a1.633,1.633,0,0,0-1.647,1.647v2.712a1.647,1.647,0,0,0,3.293,0v-2.712A1.633,1.633,0,0,0,222.108,407.191Z" transform="translate(-202.736 -374.452)" fill="#f6c358"/>
                <path id="Path_8112" data-name="Path 8112" d="M413.2,222.108a1.633,1.633,0,0,0-1.647-1.647h-2.712a1.647,1.647,0,0,0,0,3.293h2.712A1.633,1.633,0,0,0,413.2,222.108Z" transform="translate(-374.452 -202.736)" fill="#f6c358"/>
                <path id="Path_8113" data-name="Path 8113" d="M6.005,222.108a1.633,1.633,0,0,0-1.647-1.647H1.647a1.647,1.647,0,1,0,0,3.293H4.359A1.633,1.633,0,0,0,6.005,222.108Z" transform="translate(0 -202.736)" fill="#f6c358"/>
                <path id="Path_8114" data-name="Path 8114" d="M357.261,65.074a1.666,1.666,0,0,0-2.325,0L353,67.011a1.644,1.644,0,0,0,2.325,2.325l1.937-1.937A1.667,1.667,0,0,0,357.261,65.074Z" transform="translate(-324.183 -59.408)" fill="#f6c358"/>
                <path id="Path_8115" data-name="Path 8115" d="M69.336,353a1.667,1.667,0,0,0-2.325,0l-1.937,1.937a1.644,1.644,0,0,0,2.325,2.325l1.937-1.937A1.666,1.666,0,0,0,69.336,353Z" transform="translate(-59.408 -324.183)" fill="#f6c358"/>
                <path id="Path_8116" data-name="Path 8116" d="M357.261,357.261a1.667,1.667,0,0,0,0-2.325L355.324,353A1.644,1.644,0,0,0,353,355.324l1.937,1.937A1.667,1.667,0,0,0,357.261,357.261Z" transform="translate(-324.183 -324.183)" fill="#f6c358"/>
                <path id="Path_8117" data-name="Path 8117" d="M69.336,69.336a1.667,1.667,0,0,0,0-2.325L67.4,65.074A1.644,1.644,0,0,0,65.074,67.4l1.937,1.937A1.666,1.666,0,0,0,69.336,69.336Z" transform="translate(-59.408 -59.408)" fill="#f6c358"/>
              </g>
            </g>
            <path id="Path_14251" data-name="Path 14251" d="M15.609-10.156H6.266v7H17.188V0H2.313V-22.75H17.078v3.188H6.266v6.281h9.344ZM30.141,0A5.86,5.86,0,0,1,29.7-1.578,5.91,5.91,0,0,1,25.266.313a5.965,5.965,0,0,1-4.156-1.453A4.649,4.649,0,0,1,19.5-4.734a4.8,4.8,0,0,1,2.008-4.148,9.73,9.73,0,0,1,5.742-1.445h2.328v-1.109a2.961,2.961,0,0,0-.734-2.1,2.911,2.911,0,0,0-2.234-.789,3.344,3.344,0,0,0-2.125.648,2.007,2.007,0,0,0-.828,1.648h-3.8a4.214,4.214,0,0,1,.922-2.6,6.142,6.142,0,0,1,2.508-1.9,8.809,8.809,0,0,1,3.539-.687,7.094,7.094,0,0,1,4.734,1.492,5.321,5.321,0,0,1,1.813,4.2v7.625a8.642,8.642,0,0,0,.641,3.641V0ZM25.969-2.734a4.319,4.319,0,0,0,2.117-.547A3.654,3.654,0,0,0,29.578-4.75V-7.937H27.531a5.6,5.6,0,0,0-3.172.734A2.379,2.379,0,0,0,23.3-5.125a2.219,2.219,0,0,0,.727,1.742A2.813,2.813,0,0,0,25.969-2.734ZM42.109-21.016v4.109h2.984v2.813H42.109v9.438a2.078,2.078,0,0,0,.383,1.4,1.775,1.775,0,0,0,1.367.43,5.849,5.849,0,0,0,1.328-.156V-.047a9.351,9.351,0,0,1-2.5.359q-4.375,0-4.375-4.828v-9.578H35.531v-2.812h2.781v-4.109ZM57.469-4.594a1.721,1.721,0,0,0-.836-1.547,8.891,8.891,0,0,0-2.773-.937,14.257,14.257,0,0,1-3.234-1.031q-2.844-1.375-2.844-3.984a4.5,4.5,0,0,1,1.844-3.656,7.289,7.289,0,0,1,4.688-1.469,7.584,7.584,0,0,1,4.9,1.5,4.76,4.76,0,0,1,1.867,3.891h-3.8a2.34,2.34,0,0,0-.812-1.82,3.114,3.114,0,0,0-2.156-.727,3.365,3.365,0,0,0-2.039.578,1.823,1.823,0,0,0-.789,1.547,1.539,1.539,0,0,0,.734,1.359,10.1,10.1,0,0,0,2.969.977A14.053,14.053,0,0,1,58.7-8.742a4.967,4.967,0,0,1,1.891,1.633A4.164,4.164,0,0,1,61.2-4.8a4.4,4.4,0,0,1-1.891,3.7A8.062,8.062,0,0,1,54.359.313a8.742,8.742,0,0,1-3.7-.75A6.1,6.1,0,0,1,48.125-2.5a4.882,4.882,0,0,1-.906-2.828h3.688a2.675,2.675,0,0,0,1.016,2.07,3.946,3.946,0,0,0,2.484.727,3.84,3.84,0,0,0,2.281-.57A1.765,1.765,0,0,0,57.469-4.594Z" transform="translate(42.881 585.841)" opacity="0.7"/>
            <path id="Path_14254" data-name="Path 14254" d="M20.156-5.625l3.5-17.125h3.922L22.328,0H18.547L14.219-16.609,9.8,0H6L.75-22.75H4.672L8.2-5.656,12.547-22.75h3.313ZM39.688,0a5.86,5.86,0,0,1-.437-1.578A5.91,5.91,0,0,1,34.813.313a5.965,5.965,0,0,1-4.156-1.453,4.649,4.649,0,0,1-1.609-3.594,4.8,4.8,0,0,1,2.008-4.148A9.73,9.73,0,0,1,36.8-10.328h2.328v-1.109a2.961,2.961,0,0,0-.734-2.1,2.911,2.911,0,0,0-2.234-.789,3.344,3.344,0,0,0-2.125.648,2.007,2.007,0,0,0-.828,1.648h-3.8a4.214,4.214,0,0,1,.922-2.6,6.142,6.142,0,0,1,2.508-1.9,8.809,8.809,0,0,1,3.539-.687,7.094,7.094,0,0,1,4.734,1.492,5.321,5.321,0,0,1,1.813,4.2v7.625a8.642,8.642,0,0,0,.641,3.641V0ZM35.516-2.734a4.319,4.319,0,0,0,2.117-.547A3.654,3.654,0,0,0,39.125-4.75V-7.937H37.078a5.6,5.6,0,0,0-3.172.734,2.379,2.379,0,0,0-1.062,2.078,2.219,2.219,0,0,0,.727,1.742A2.813,2.813,0,0,0,35.516-2.734ZM52.391-7.25,50.7-5.516V0h-3.8V-24h3.8v13.844l1.188-1.484,4.672-5.266h4.563L54.844-9.859,61.8,0H57.406ZM71.047.313A7.855,7.855,0,0,1,65.2-1.961a8.247,8.247,0,0,1-2.242-6.055v-.469a10.145,10.145,0,0,1,.977-4.523,7.433,7.433,0,0,1,2.742-3.1,7.25,7.25,0,0,1,3.938-1.109,6.636,6.636,0,0,1,5.336,2.2,9.316,9.316,0,0,1,1.883,6.234V-7.25H66.781a5.077,5.077,0,0,0,1.4,3.313,4.2,4.2,0,0,0,3.086,1.219,5.141,5.141,0,0,0,4.25-2.109l2.047,1.953A6.835,6.835,0,0,1,74.852-.523,8.487,8.487,0,0,1,71.047.313Zm-.453-14.484a3.2,3.2,0,0,0-2.523,1.094,5.669,5.669,0,0,0-1.227,3.047h7.234v-.281A4.615,4.615,0,0,0,73.063-13.2,3.173,3.173,0,0,0,70.594-14.172ZM98.984-1.656A5.889,5.889,0,0,1,94.234.313,5.248,5.248,0,0,1,90.07-1.3a6.846,6.846,0,0,1-1.414-4.656V-16.906h3.8V-6q0,3.219,2.672,3.219a3.752,3.752,0,0,0,3.734-1.984V-16.906h3.8V0H99.078Zm22.344-6.625a10.066,10.066,0,0,1-1.781,6.258A5.7,5.7,0,0,1,114.766.313a5.743,5.743,0,0,1-4.453-1.828V6.5h-3.8V-16.906h3.5l.156,1.719a5.577,5.577,0,0,1,4.547-2.031,5.763,5.763,0,0,1,4.852,2.3,10.335,10.335,0,0,1,1.758,6.4Zm-3.781-.328a7.051,7.051,0,0,0-1.008-4.016,3.276,3.276,0,0,0-2.883-1.484,3.494,3.494,0,0,0-3.344,1.922v7.5a3.526,3.526,0,0,0,3.375,1.969,3.273,3.273,0,0,0,2.836-1.461A7.762,7.762,0,0,0,117.547-8.609Z" transform="translate(-0.119 870.841)" opacity="0.7"/>
            <path id="Path_14248" data-name="Path 14248" d="M20.156-5.625l3.5-17.125h3.922L22.328,0H18.547L14.219-16.609,9.8,0H6L.75-22.75H4.672L8.2-5.656,12.547-22.75h3.313ZM39.688,0a5.86,5.86,0,0,1-.437-1.578A5.91,5.91,0,0,1,34.813.313a5.965,5.965,0,0,1-4.156-1.453,4.649,4.649,0,0,1-1.609-3.594,4.8,4.8,0,0,1,2.008-4.148A9.73,9.73,0,0,1,36.8-10.328h2.328v-1.109a2.961,2.961,0,0,0-.734-2.1,2.911,2.911,0,0,0-2.234-.789,3.344,3.344,0,0,0-2.125.648,2.007,2.007,0,0,0-.828,1.648h-3.8a4.214,4.214,0,0,1,.922-2.6,6.142,6.142,0,0,1,2.508-1.9,8.809,8.809,0,0,1,3.539-.687,7.094,7.094,0,0,1,4.734,1.492,5.321,5.321,0,0,1,1.813,4.2v7.625a8.642,8.642,0,0,0,.641,3.641V0ZM35.516-2.734a4.319,4.319,0,0,0,2.117-.547A3.654,3.654,0,0,0,39.125-4.75V-7.937H37.078a5.6,5.6,0,0,0-3.172.734,2.379,2.379,0,0,0-1.062,2.078,2.219,2.219,0,0,0,.727,1.742A2.813,2.813,0,0,0,35.516-2.734ZM51.656-21.016v4.109h2.984v2.813H51.656v9.438a2.078,2.078,0,0,0,.383,1.4,1.775,1.775,0,0,0,1.367.43,5.849,5.849,0,0,0,1.328-.156V-.047a9.351,9.351,0,0,1-2.5.359q-4.375,0-4.375-4.828v-9.578H45.078v-2.812h2.781v-4.109Zm12.828,18.3a3.433,3.433,0,0,0,2.359-.828,2.829,2.829,0,0,0,1-2.047h3.578a5.577,5.577,0,0,1-.984,2.945,6.457,6.457,0,0,1-2.5,2.164,7.45,7.45,0,0,1-3.406.8,7.208,7.208,0,0,1-5.625-2.3,9.11,9.11,0,0,1-2.078-6.344v-.391a8.959,8.959,0,0,1,2.063-6.18,7.143,7.143,0,0,1,5.625-2.32,6.946,6.946,0,0,1,4.914,1.758,6.3,6.3,0,0,1,1.992,4.617H67.844a3.477,3.477,0,0,0-.992-2.391,3.192,3.192,0,0,0-2.367-.937,3.341,3.341,0,0,0-2.844,1.336,6.817,6.817,0,0,0-1.016,4.055v.609a6.93,6.93,0,0,0,.992,4.1A3.338,3.338,0,0,0,64.484-2.719ZM78.031-15.062a5.943,5.943,0,0,1,4.7-2.156q5.406,0,5.484,6.172V0h-3.8V-10.906a3.338,3.338,0,0,0-.758-2.477,3.1,3.1,0,0,0-2.227-.727,3.657,3.657,0,0,0-3.406,2.031V0h-3.8V-24h3.8ZM99.5.313a7.855,7.855,0,0,1-5.852-2.273,8.247,8.247,0,0,1-2.242-6.055v-.469a10.145,10.145,0,0,1,.977-4.523,7.433,7.433,0,0,1,2.742-3.1,7.25,7.25,0,0,1,3.938-1.109,6.636,6.636,0,0,1,5.336,2.2,9.316,9.316,0,0,1,1.883,6.234V-7.25H95.234a5.077,5.077,0,0,0,1.4,3.313,4.2,4.2,0,0,0,3.086,1.219,5.141,5.141,0,0,0,4.25-2.109l2.047,1.953A6.835,6.835,0,0,1,103.3-.523,8.487,8.487,0,0,1,99.5.313Zm-.453-14.484a3.2,3.2,0,0,0-2.523,1.094A5.669,5.669,0,0,0,95.3-10.031h7.234v-.281a4.615,4.615,0,0,0-1.016-2.883A3.173,3.173,0,0,0,99.047-14.172ZM118.7-4.594a1.721,1.721,0,0,0-.836-1.547,8.891,8.891,0,0,0-2.773-.937,14.257,14.257,0,0,1-3.234-1.031q-2.844-1.375-2.844-3.984a4.5,4.5,0,0,1,1.844-3.656,7.289,7.289,0,0,1,4.688-1.469,7.584,7.584,0,0,1,4.9,1.5,4.76,4.76,0,0,1,1.867,3.891h-3.8a2.34,2.34,0,0,0-.812-1.82,3.114,3.114,0,0,0-2.156-.727,3.365,3.365,0,0,0-2.039.578,1.823,1.823,0,0,0-.789,1.547,1.539,1.539,0,0,0,.734,1.359,10.1,10.1,0,0,0,2.969.977,14.053,14.053,0,0,1,3.508,1.172,4.967,4.967,0,0,1,1.891,1.633,4.164,4.164,0,0,1,.617,2.313,4.4,4.4,0,0,1-1.891,3.7A8.062,8.062,0,0,1,115.594.313a8.742,8.742,0,0,1-3.7-.75A6.1,6.1,0,0,1,109.359-2.5a4.882,4.882,0,0,1-.906-2.828h3.688a2.675,2.675,0,0,0,1.016,2.07,3.946,3.946,0,0,0,2.484.727,3.84,3.84,0,0,0,2.281-.57A1.765,1.765,0,0,0,118.7-4.594Zm30.875-14.969h-7.094V0h-3.922V-19.562h-7.031V-22.75h18.047Zm11.25,14.609,5.781-17.8h4.344L162.766,0h-3.828l-8.156-22.75h4.328Z" transform="translate(27.881 305.841)" opacity="0.7"/>
            <path id="Path_14249" data-name="Path 14249" d="M20.156-5.625l3.5-17.125h3.922L22.328,0H18.547L14.219-16.609,9.8,0H6L.75-22.75H4.672L8.2-5.656,12.547-22.75h3.313Zm8.75-2.984a9.969,9.969,0,0,1,.984-4.477,7.189,7.189,0,0,1,2.766-3.062,7.792,7.792,0,0,1,4.094-1.07,7.385,7.385,0,0,1,5.555,2.2,8.665,8.665,0,0,1,2.3,5.844l.016.891a10.058,10.058,0,0,1-.961,4.469,7.1,7.1,0,0,1-2.75,3.047A7.85,7.85,0,0,1,36.781.313,7.334,7.334,0,0,1,31.055-2.07a9.126,9.126,0,0,1-2.148-6.352Zm3.8.328A6.812,6.812,0,0,0,33.781-4.2a3.5,3.5,0,0,0,3,1.477,3.467,3.467,0,0,0,2.992-1.5,7.524,7.524,0,0,0,1.07-4.391,6.724,6.724,0,0,0-1.1-4.062,3.517,3.517,0,0,0-2.992-1.5A3.485,3.485,0,0,0,33.8-12.7,7.382,7.382,0,0,0,32.7-8.281Zm23.984-5.156a9.4,9.4,0,0,0-1.547-.125,3.483,3.483,0,0,0-3.516,2V0h-3.8V-16.906h3.625l.094,1.891a4.278,4.278,0,0,1,3.813-2.2A3.554,3.554,0,0,1,56.7-17ZM64.578-7.25,62.891-5.516V0h-3.8V-24h3.8v13.844l1.188-1.484,4.672-5.266h4.563L67.031-9.859,73.984,0H69.594ZM85.266-4.594a1.721,1.721,0,0,0-.836-1.547,8.891,8.891,0,0,0-2.773-.937,14.257,14.257,0,0,1-3.234-1.031q-2.844-1.375-2.844-3.984a4.5,4.5,0,0,1,1.844-3.656,7.289,7.289,0,0,1,4.688-1.469,7.584,7.584,0,0,1,4.9,1.5,4.76,4.76,0,0,1,1.867,3.891h-3.8a2.34,2.34,0,0,0-.812-1.82,3.114,3.114,0,0,0-2.156-.727,3.365,3.365,0,0,0-2.039.578,1.823,1.823,0,0,0-.789,1.547,1.539,1.539,0,0,0,.734,1.359,10.1,10.1,0,0,0,2.969.977,14.053,14.053,0,0,1,3.508,1.172,4.967,4.967,0,0,1,1.891,1.633A4.164,4.164,0,0,1,89-4.8a4.4,4.4,0,0,1-1.891,3.7A8.062,8.062,0,0,1,82.156.313a8.742,8.742,0,0,1-3.7-.75A6.1,6.1,0,0,1,75.922-2.5a4.882,4.882,0,0,1-.906-2.828H78.7a2.675,2.675,0,0,0,1.016,2.07,3.946,3.946,0,0,0,2.484.727,3.84,3.84,0,0,0,2.281-.57A1.765,1.765,0,0,0,85.266-4.594Z" transform="translate(339.881 211.841)" opacity="0.7"/>
            <path id="Path_14250" data-name="Path 14250" d="M-57.164,0H-61.1V-10.094H-71.273V0h-3.953V-22.75h3.953v9.469H-61.1V-22.75h3.938Zm14.406,0A5.86,5.86,0,0,1-43.2-1.578,5.91,5.91,0,0,1-47.633.313a5.965,5.965,0,0,1-4.156-1.453A4.649,4.649,0,0,1-53.4-4.734a4.8,4.8,0,0,1,2.008-4.148,9.73,9.73,0,0,1,5.742-1.445h2.328v-1.109a2.961,2.961,0,0,0-.734-2.1,2.911,2.911,0,0,0-2.234-.789,3.344,3.344,0,0,0-2.125.648,2.007,2.007,0,0,0-.828,1.648h-3.8a4.214,4.214,0,0,1,.922-2.6,6.142,6.142,0,0,1,2.508-1.9,8.809,8.809,0,0,1,3.539-.687,7.094,7.094,0,0,1,4.734,1.492,5.321,5.321,0,0,1,1.813,4.2v7.625a8.642,8.642,0,0,0,.641,3.641V0ZM-46.93-2.734a4.319,4.319,0,0,0,2.117-.547A3.654,3.654,0,0,0-43.32-4.75V-7.937h-2.047a5.6,5.6,0,0,0-3.172.734A2.379,2.379,0,0,0-49.6-5.125a2.219,2.219,0,0,0,.727,1.742A2.813,2.813,0,0,0-46.93-2.734Zm14.906-14.172.109,1.953a6.079,6.079,0,0,1,4.922-2.266q5.281,0,5.375,6.047V0h-3.8V-10.953a3.482,3.482,0,0,0-.7-2.383,2.925,2.925,0,0,0-2.273-.773A3.659,3.659,0,0,0-31.8-12.031V0h-3.8V-16.906Zm13.609,8.328a9.888,9.888,0,0,1,1.852-6.289,5.943,5.943,0,0,1,4.914-2.352A5.567,5.567,0,0,1-7.1-15.2l.172-1.7h3.422V-.516a6.813,6.813,0,0,1-2.07,5.25,7.886,7.886,0,0,1-5.586,1.922A9,9,0,0,1-14.8,5.883a6.455,6.455,0,0,1-2.7-2.023l1.8-2.281a5.427,5.427,0,0,0,4.313,2.078A4.194,4.194,0,0,0-8.4,2.633,3.922,3.922,0,0,0-7.3-.375V-1.516A5.59,5.59,0,0,1-11.68.313a5.929,5.929,0,0,1-4.852-2.359A10.208,10.208,0,0,1-18.414-8.578Zm3.781.328a6.806,6.806,0,0,0,1.039,4.008,3.341,3.341,0,0,0,2.883,1.461A3.654,3.654,0,0,0-7.3-4.75v-7.437a3.6,3.6,0,0,0-3.375-1.922,3.354,3.354,0,0,0-2.914,1.484A7.621,7.621,0,0,0-14.633-8.25Zm24.5,3.656a1.721,1.721,0,0,0-.836-1.547,8.891,8.891,0,0,0-2.773-.937A14.257,14.257,0,0,1,3.023-8.109Q.18-9.484.18-12.094A4.5,4.5,0,0,1,2.023-15.75a7.289,7.289,0,0,1,4.688-1.469,7.584,7.584,0,0,1,4.9,1.5,4.76,4.76,0,0,1,1.867,3.891H9.68a2.34,2.34,0,0,0-.812-1.82,3.114,3.114,0,0,0-2.156-.727,3.365,3.365,0,0,0-2.039.578,1.823,1.823,0,0,0-.789,1.547,1.539,1.539,0,0,0,.734,1.359,10.1,10.1,0,0,0,2.969.977,14.053,14.053,0,0,1,3.508,1.172,4.967,4.967,0,0,1,1.891,1.633A4.164,4.164,0,0,1,13.6-4.8a4.4,4.4,0,0,1-1.891,3.7A8.062,8.062,0,0,1,6.758.313a8.742,8.742,0,0,1-3.7-.75A6.1,6.1,0,0,1,.523-2.5,4.882,4.882,0,0,1-.383-5.328H3.3A2.675,2.675,0,0,0,4.32-3.258,3.946,3.946,0,0,0,6.8-2.531,3.84,3.84,0,0,0,9.086-3.1,1.765,1.765,0,0,0,9.867-4.594Zm14.3-4.016a9.969,9.969,0,0,1,.984-4.477,7.189,7.189,0,0,1,2.766-3.062,7.792,7.792,0,0,1,4.094-1.07,7.385,7.385,0,0,1,5.555,2.2,8.665,8.665,0,0,1,2.3,5.844l.016.891a10.058,10.058,0,0,1-.961,4.469,7.1,7.1,0,0,1-2.75,3.047A7.85,7.85,0,0,1,32.039.313,7.334,7.334,0,0,1,26.313-2.07a9.126,9.126,0,0,1-2.148-6.352Zm3.8.328A6.812,6.812,0,0,0,29.039-4.2a3.5,3.5,0,0,0,3,1.477,3.467,3.467,0,0,0,2.992-1.5A7.524,7.524,0,0,0,36.1-8.609,6.724,6.724,0,0,0,35-12.672a3.517,3.517,0,0,0-2.992-1.5A3.485,3.485,0,0,0,29.055-12.7,7.382,7.382,0,0,0,27.961-8.281ZM53.336-1.656A5.889,5.889,0,0,1,48.586.313,5.248,5.248,0,0,1,44.422-1.3a6.846,6.846,0,0,1-1.414-4.656V-16.906h3.8V-6q0,3.219,2.672,3.219a3.752,3.752,0,0,0,3.734-1.984V-16.906h3.8V0H53.43Zm12.3-19.359v4.109h2.984v2.813H65.633v9.438a2.078,2.078,0,0,0,.383,1.4,1.775,1.775,0,0,0,1.367.43,5.849,5.849,0,0,0,1.328-.156V-.047a9.351,9.351,0,0,1-2.5.359q-4.375,0-4.375-4.828v-9.578H59.055v-2.812h2.781v-4.109ZM-67.523,31.766l2.688-11.672h3.7L-65.742,37h-3.125l-3.625-11.609L-76.055,37H-79.18L-83.8,20.094h3.7l2.734,11.547L-73.9,20.094h2.859ZM-54.555,37h-3.8V20.094h3.8Zm-4.031-21.3a2.015,2.015,0,0,1,.555-1.453,2.1,2.1,0,0,1,1.586-.578,2.122,2.122,0,0,1,1.594.578,2,2,0,0,1,.563,1.453,1.953,1.953,0,0,1-.562,1.43,2.138,2.138,0,0,1-1.594.57,2.111,2.111,0,0,1-1.586-.57A1.968,1.968,0,0,1-58.586,15.7Zm12.922.281v4.109h2.984v2.813h-2.984v9.438a2.078,2.078,0,0,0,.383,1.4,1.775,1.775,0,0,0,1.367.43,5.849,5.849,0,0,0,1.328-.156v2.938a9.351,9.351,0,0,1-2.5.359q-4.375,0-4.375-4.828V22.906h-2.781V20.094h2.781V15.984Zm9.625,5.953a5.943,5.943,0,0,1,4.7-2.156q5.406,0,5.484,6.172V37h-3.8V26.094a3.338,3.338,0,0,0-.758-2.477,3.1,3.1,0,0,0-2.227-.727,3.657,3.657,0,0,0-3.406,2.031V37h-3.8V13h3.8ZM-12.711,37V22.906h-2.578V20.094h2.578V18.547A5.807,5.807,0,0,1-11.148,14.2a5.985,5.985,0,0,1,4.375-1.531,8.775,8.775,0,0,1,2.125.281l-.094,2.969A7.479,7.479,0,0,0-6.2,15.8q-2.719,0-2.719,2.8v1.5h3.438v2.813H-8.914V37ZM6.148,23.563A9.4,9.4,0,0,0,4.6,23.438a3.483,3.483,0,0,0-3.516,2V37h-3.8V20.094H.914l.094,1.891a4.278,4.278,0,0,1,3.813-2.2A3.554,3.554,0,0,1,6.164,20ZM12.586,37h-3.8V20.094h3.8ZM8.555,15.7a2.015,2.015,0,0,1,.555-1.453,2.1,2.1,0,0,1,1.586-.578,2.122,2.122,0,0,1,1.594.578,2,2,0,0,1,.563,1.453,1.953,1.953,0,0,1-.562,1.43,2.138,2.138,0,0,1-1.594.57,2.111,2.111,0,0,1-1.586-.57A1.968,1.968,0,0,1,8.555,15.7ZM24.164,37.313a7.855,7.855,0,0,1-5.852-2.273,8.247,8.247,0,0,1-2.242-6.055v-.469a10.145,10.145,0,0,1,.977-4.523,7.433,7.433,0,0,1,2.742-3.1,7.25,7.25,0,0,1,3.938-1.109,6.636,6.636,0,0,1,5.336,2.2,9.316,9.316,0,0,1,1.883,6.234V29.75H19.9a5.077,5.077,0,0,0,1.4,3.313,4.2,4.2,0,0,0,3.086,1.219,5.141,5.141,0,0,0,4.25-2.109l2.047,1.953a6.835,6.835,0,0,1-2.711,2.352A8.487,8.487,0,0,1,24.164,37.313Zm-.453-14.484a3.2,3.2,0,0,0-2.523,1.094,5.669,5.669,0,0,0-1.227,3.047H27.2v-.281A4.615,4.615,0,0,0,26.18,23.8,3.173,3.173,0,0,0,23.711,22.828Zm13.7-2.734.109,1.953a6.079,6.079,0,0,1,4.922-2.266q5.281,0,5.375,6.047V37h-3.8V26.047a3.482,3.482,0,0,0-.7-2.383,2.925,2.925,0,0,0-2.273-.773,3.659,3.659,0,0,0-3.422,2.078V37h-3.8V20.094Zm13.563,8.328a10.051,10.051,0,0,1,1.813-6.273,5.807,5.807,0,0,1,4.859-2.367,5.518,5.518,0,0,1,4.344,1.875V13h3.8V37H62.352l-.187-1.75a5.6,5.6,0,0,1-4.547,2.063,5.775,5.775,0,0,1-4.8-2.391A10.419,10.419,0,0,1,50.977,28.422Zm3.8.328a7.037,7.037,0,0,0,.992,4.023,3.219,3.219,0,0,0,2.82,1.445,3.586,3.586,0,0,0,3.406-2.078V24.922a3.531,3.531,0,0,0-3.375-2.031,3.243,3.243,0,0,0-2.844,1.461A7.837,7.837,0,0,0,54.773,28.75Zm24.453,3.656a1.721,1.721,0,0,0-.836-1.547,8.891,8.891,0,0,0-2.773-.937,14.257,14.257,0,0,1-3.234-1.031q-2.844-1.375-2.844-3.984a4.5,4.5,0,0,1,1.844-3.656,7.289,7.289,0,0,1,4.688-1.469,7.584,7.584,0,0,1,4.9,1.5,4.76,4.76,0,0,1,1.867,3.891h-3.8a2.34,2.34,0,0,0-.812-1.82,3.114,3.114,0,0,0-2.156-.727,3.365,3.365,0,0,0-2.039.578,1.823,1.823,0,0,0-.789,1.547,1.539,1.539,0,0,0,.734,1.359,10.1,10.1,0,0,0,2.969.977,14.053,14.053,0,0,1,3.508,1.172,4.967,4.967,0,0,1,1.891,1.633,4.164,4.164,0,0,1,.617,2.313,4.4,4.4,0,0,1-1.891,3.7,8.062,8.062,0,0,1-4.953,1.414,8.742,8.742,0,0,1-3.7-.75A6.1,6.1,0,0,1,69.883,34.5a4.882,4.882,0,0,1-.906-2.828h3.688a2.675,2.675,0,0,0,1.016,2.07,3.946,3.946,0,0,0,2.484.727,3.84,3.84,0,0,0,2.281-.57A1.765,1.765,0,0,0,79.227,32.406Z" transform="translate(655.881 303.841)" opacity="0.7"/>
            <path id="Path_14252" data-name="Path 14252" d="M6.266-8.437V0H2.313V-22.75h8.7a8.8,8.8,0,0,1,6.055,1.987,6.68,6.68,0,0,1,2.242,5.256,6.458,6.458,0,0,1-2.2,5.209,9.226,9.226,0,0,1-6.148,1.861Zm0-3.187h4.75a4.678,4.678,0,0,0,3.219-.992,3.646,3.646,0,0,0,1.109-2.867,3.934,3.934,0,0,0-1.125-2.945,4.336,4.336,0,0,0-3.094-1.133H6.266ZM26.438,0h-3.8V-24h3.8ZM40.672,0a5.86,5.86,0,0,1-.437-1.578A5.91,5.91,0,0,1,35.8.313a5.965,5.965,0,0,1-4.156-1.453,4.649,4.649,0,0,1-1.609-3.594,4.8,4.8,0,0,1,2.008-4.148,9.73,9.73,0,0,1,5.742-1.445h2.328v-1.109a2.961,2.961,0,0,0-.734-2.1,2.911,2.911,0,0,0-2.234-.789,3.344,3.344,0,0,0-2.125.648,2.007,2.007,0,0,0-.828,1.648h-3.8a4.214,4.214,0,0,1,.922-2.6,6.142,6.142,0,0,1,2.508-1.9,8.809,8.809,0,0,1,3.539-.687,7.094,7.094,0,0,1,4.734,1.492,5.321,5.321,0,0,1,1.813,4.2v7.625a8.642,8.642,0,0,0,.641,3.641V0ZM36.5-2.734a4.319,4.319,0,0,0,2.117-.547A3.654,3.654,0,0,0,40.109-4.75V-7.937H38.063a5.6,5.6,0,0,0-3.172.734,2.379,2.379,0,0,0-1.062,2.078,2.219,2.219,0,0,0,.727,1.742A2.813,2.813,0,0,0,36.5-2.734Zm17.3-2.7,3.438-11.469h4.047L54.563,2.563q-1.547,4.266-5.25,4.266a6.769,6.769,0,0,1-1.828-.283V3.594l.719.047a3.7,3.7,0,0,0,2.164-.523,3.467,3.467,0,0,0,1.148-1.756l.547-1.452L46.125-16.906h4.094Zm19.141.844A1.721,1.721,0,0,0,72.1-6.141a8.891,8.891,0,0,0-2.773-.937,14.257,14.257,0,0,1-3.234-1.031Q63.25-9.484,63.25-12.094a4.5,4.5,0,0,1,1.844-3.656,7.289,7.289,0,0,1,4.688-1.469,7.584,7.584,0,0,1,4.9,1.5,4.76,4.76,0,0,1,1.867,3.891h-3.8a2.34,2.34,0,0,0-.812-1.82,3.114,3.114,0,0,0-2.156-.727,3.365,3.365,0,0,0-2.039.578,1.823,1.823,0,0,0-.789,1.547,1.539,1.539,0,0,0,.734,1.359,10.1,10.1,0,0,0,2.969.977,14.053,14.053,0,0,1,3.508,1.172,4.967,4.967,0,0,1,1.891,1.633A4.164,4.164,0,0,1,76.672-4.8a4.4,4.4,0,0,1-1.891,3.7A8.062,8.062,0,0,1,69.828.313a8.742,8.742,0,0,1-3.7-.75A6.1,6.1,0,0,1,63.594-2.5a4.882,4.882,0,0,1-.906-2.828h3.688a2.675,2.675,0,0,0,1.016,2.07,3.946,3.946,0,0,0,2.484.727,3.84,3.84,0,0,0,2.281-.57A1.765,1.765,0,0,0,72.938-4.594Z" transform="translate(649.881 615.841)" opacity="0.7"/>
            <path id="Path_14253" data-name="Path 14253" d="M14.2-5.859a2.747,2.747,0,0,0-1.055-2.312,12.69,12.69,0,0,0-3.8-1.641,18.372,18.372,0,0,1-4.375-1.844A5.838,5.838,0,0,1,1.859-16.75,5.543,5.543,0,0,1,4.1-21.281a9.075,9.075,0,0,1,5.82-1.781,9.831,9.831,0,0,1,4.234.875A6.95,6.95,0,0,1,17.078-19.7a6.392,6.392,0,0,1,1.063,3.586H14.2A3.565,3.565,0,0,0,13.086-18.9a4.611,4.611,0,0,0-3.2-1.008,4.816,4.816,0,0,0-3.008.828,2.758,2.758,0,0,0-1.07,2.313A2.494,2.494,0,0,0,6.969-14.68a13.32,13.32,0,0,0,3.813,1.625,17.537,17.537,0,0,1,4.266,1.8,6.785,6.785,0,0,1,2.359,2.313,6.023,6.023,0,0,1,.75,3.055,5.414,5.414,0,0,1-2.18,4.523A9.454,9.454,0,0,1,10.063.313,11.113,11.113,0,0,1,5.523-.6,7.625,7.625,0,0,1,2.3-3.125a6.289,6.289,0,0,1-1.148-3.75H5.109a3.68,3.68,0,0,0,1.281,3,5.611,5.611,0,0,0,3.672,1.063,4.875,4.875,0,0,0,3.1-.836A2.7,2.7,0,0,0,14.2-5.859ZM25.3,0H21.5V-24h3.8ZM36.875.313a7.855,7.855,0,0,1-5.852-2.273,8.247,8.247,0,0,1-2.242-6.055v-.469a10.145,10.145,0,0,1,.977-4.523,7.433,7.433,0,0,1,2.742-3.1,7.25,7.25,0,0,1,3.938-1.109,6.636,6.636,0,0,1,5.336,2.2,9.316,9.316,0,0,1,1.883,6.234V-7.25H32.609a5.077,5.077,0,0,0,1.4,3.313,4.2,4.2,0,0,0,3.086,1.219,5.141,5.141,0,0,0,4.25-2.109l2.047,1.953A6.835,6.835,0,0,1,40.68-.523,8.487,8.487,0,0,1,36.875.313Zm-.453-14.484A3.2,3.2,0,0,0,33.9-13.078a5.669,5.669,0,0,0-1.227,3.047h7.234v-.281A4.615,4.615,0,0,0,38.891-13.2,3.173,3.173,0,0,0,36.422-14.172ZM54.047.313A7.855,7.855,0,0,1,48.2-1.961a8.247,8.247,0,0,1-2.242-6.055v-.469a10.145,10.145,0,0,1,.977-4.523,7.433,7.433,0,0,1,2.742-3.1,7.25,7.25,0,0,1,3.938-1.109,6.636,6.636,0,0,1,5.336,2.2,9.316,9.316,0,0,1,1.883,6.234V-7.25H49.781a5.077,5.077,0,0,0,1.4,3.313,4.2,4.2,0,0,0,3.086,1.219,5.141,5.141,0,0,0,4.25-2.109l2.047,1.953A6.835,6.835,0,0,1,57.852-.523,8.487,8.487,0,0,1,54.047.313Zm-.453-14.484a3.2,3.2,0,0,0-2.523,1.094,5.669,5.669,0,0,0-1.227,3.047h7.234v-.281A4.615,4.615,0,0,0,56.063-13.2,3.173,3.173,0,0,0,53.594-14.172ZM78.578-8.281A10.066,10.066,0,0,1,76.8-2.023,5.7,5.7,0,0,1,72.016.313a5.743,5.743,0,0,1-4.453-1.828V6.5h-3.8V-16.906h3.5l.156,1.719a5.577,5.577,0,0,1,4.547-2.031,5.763,5.763,0,0,1,4.852,2.3,10.335,10.335,0,0,1,1.758,6.4ZM74.8-8.609a7.051,7.051,0,0,0-1.008-4.016,3.276,3.276,0,0,0-2.883-1.484,3.494,3.494,0,0,0-3.344,1.922v7.5a3.526,3.526,0,0,0,3.375,1.969A3.273,3.273,0,0,0,73.773-4.18,7.762,7.762,0,0,0,74.8-8.609ZM91.266-4.594a1.721,1.721,0,0,0-.836-1.547,8.891,8.891,0,0,0-2.773-.937,14.257,14.257,0,0,1-3.234-1.031q-2.844-1.375-2.844-3.984a4.5,4.5,0,0,1,1.844-3.656,7.289,7.289,0,0,1,4.688-1.469,7.584,7.584,0,0,1,4.9,1.5,4.76,4.76,0,0,1,1.867,3.891h-3.8a2.34,2.34,0,0,0-.812-1.82,3.114,3.114,0,0,0-2.156-.727,3.365,3.365,0,0,0-2.039.578,1.823,1.823,0,0,0-.789,1.547,1.539,1.539,0,0,0,.734,1.359,10.1,10.1,0,0,0,2.969.977,14.053,14.053,0,0,1,3.508,1.172,4.967,4.967,0,0,1,1.891,1.633A4.164,4.164,0,0,1,95-4.8a4.4,4.4,0,0,1-1.891,3.7A8.062,8.062,0,0,1,88.156.313a8.742,8.742,0,0,1-3.7-.75A6.1,6.1,0,0,1,81.922-2.5a4.882,4.882,0,0,1-.906-2.828H84.7a2.675,2.675,0,0,0,1.016,2.07,3.946,3.946,0,0,0,2.484.727,3.84,3.84,0,0,0,2.281-.57A1.765,1.765,0,0,0,91.266-4.594Z" transform="translate(647.881 866.841)" opacity="0.7"/>
            <g id="tea" transform="translate(75.994 434.253)">
              <g id="Group_9804" data-name="Group 9804" transform="translate(0 0)">
                <g id="Group_9803" data-name="Group 9803" transform="translate(9.4 0)">
                  <path id="Path_8169" data-name="Path 8169" d="M89.937,93.364h31.625V85.832H89.937v7.532Z" transform="translate(-89.937 -85.832)" fill="#d2d2d2"/>
                  <rect id="Rectangle_2982" data-name="Rectangle 2982" width="16.827" height="7.532" transform="translate(31.625 0.001)" fill="#d2d2d2"/>
                </g>
                <path id="Path_8170" data-name="Path 8170" d="M121.562,149.886H89.937a24.226,24.226,0,0,0,48.452,0Zm-2.492,13.979a1.43,1.43,0,0,1-1.425-1.427v-6.885a1.43,1.43,0,0,1,1.425-1.427h4.984a1.43,1.43,0,0,1,1.425,1.427v6.885a1.431,1.431,0,0,1-1.425,1.427Z" transform="translate(-80.537 -142.354)" fill="#ffc875"/>
                <path id="Path_8171" data-name="Path 8171" d="M325.573,187.363v6.885A1.43,1.43,0,0,0,327,195.676h4.984a1.43,1.43,0,0,0,1.425-1.427v-6.885a1.43,1.43,0,0,0-1.425-1.427H327A1.43,1.43,0,0,0,325.573,187.363Z" transform="translate(-288.465 -174.165)" fill="#ff7e40"/>
                <path id="Path_8172" data-name="Path 8172" d="M183.867,339.868a24.2,24.2,0,0,1-9.813-2.064h-2.837a2.3,2.3,0,0,0-2.287,2.291v1.458a2.3,2.3,0,0,0,2.287,2.291h24.746a2.3,2.3,0,0,0,2.287-2.291V340.1a2.3,2.3,0,0,0-2.287-2.291H193.68A24.2,24.2,0,0,1,183.867,339.868Z" transform="translate(-150.24 -308.176)" fill="#d2d2d2"/>
                <path id="Path_8173" data-name="Path 8173" d="M119.132,389.172H83.823a1.97,1.97,0,0,0-1.962,1.965v.42a1.97,1.97,0,0,0,1.962,1.966H129.3a1.97,1.97,0,0,0,1.962-1.966v-.42a1.969,1.969,0,0,0-1.962-1.965Z" transform="translate(-73.411 -353.504)" fill="#a9bbdb"/>
                <path id="Path_8174" data-name="Path 8174" d="M20.749,120.459l1.772,3.9c-12.578,6.178-19-16.879-3.126-16.864v4.318C11.382,110.711,13.92,123.749,20.749,120.459Z" transform="translate(-9.996 -104.946)" fill="#d2d2d2"/>
              </g>
              <path id="Path_8176" data-name="Path 8176" d="M135.836,181.048a1.177,1.177,0,0,0-2.314.433c.775,4.145,3.65,7.631,5.925,9.825a1.177,1.177,0,0,0,1.634-1.694C138.215,186.847,136.352,183.805,135.836,181.048Z" transform="translate(-118.979 -169.004)" fill="#ffe4bc"/>
              <path id="Path_8177" data-name="Path 8177" d="M206.279,279.057l-.041-.028a1.177,1.177,0,0,0-1.33,1.942l.046.032a1.177,1.177,0,1,0,1.325-1.946Z" transform="translate(-181.536 -256.13)" fill="#ffe4bc"/>
            </g>
            <g id="Group_9801" data-name="Group 9801" transform="translate(26.381 474.39)">
              <path id="Path_8161" data-name="Path 8161" d="M63.022,330.988c0,45.257,66.014,45.225,66.014,0H63.022Z" transform="translate(-63.022 -330.988)" fill="#a9bbdb"/>
            </g>
            <path id="Path_8168" data-name="Path 8168" d="M134.588,264.45h46.966a6.838,6.838,0,0,0-9.613-9.675,9.838,9.838,0,0,0-17.3-3.81,6.841,6.841,0,0,0-9.557,5.77C139.914,253.257,133.18,257.655,134.588,264.45Z" transform="translate(-93.331 211.125)" fill="#ff984a"/>
            <g id="Group_9802" data-name="Group 9802" transform="translate(15.474 444.719)">
              <path id="Path_8163" data-name="Path 8163" d="M30.285,210.7,19.831,180.808a2.051,2.051,0,0,0-2.755-1.091l-5.786,2.5a2.069,2.069,0,0,0-1.091,2.755L22.75,210.7h7.535Z" transform="translate(-10.008 -179.542)" fill="#a9bbdb"/>
            </g>
            <g id="standing-up-man-_1_" data-name="standing-up-man- (1)" transform="translate(319.531 608.459)">
              <g id="Group_9806" data-name="Group 9806" transform="translate(0 0)">
                <path id="Path_8178" data-name="Path 8178" d="M90.668,11.956A48.223,48.223,0,0,0,70.41,12.2c-44.037,5.16-58.336,56.132-54.3,95,1.751,16.8,28.239,16.979,26.47,0-1.469-14.164-.84-35.539,6.688-50.731v55.392c0,.652.065,1.264.094,1.892-.018.3-.088.552-.088.858,0,43.955-.076,87.892-1.892,131.812-.805,19.524,29.468,19.447,30.267,0,1.422-34.422,1.781-68.862,1.863-103.308a35.029,35.029,0,0,0,4.3.012c.088,34.446.435,68.886,1.845,103.3.805,19.447,31.078,19.524,30.267,0-1.816-43.92-1.881-87.857-1.881-131.812a16.586,16.586,0,0,0-.458-3.8c-.041-19.083-.77-38.184-.547-57.255,9.015,15.263,9.838,38.542,8.275,53.629-1.775,16.967,24.719,16.8,26.47,0C151.919,67.518,136.933,15.223,90.668,11.956Z" transform="translate(-15.459 -11)" fill="#8d929f"/>
              </g>
            </g>
            <g id="standing-up-man-_1_2" data-name="standing-up-man- (1)" transform="translate(319.532 547.559)">
              <g id="Group_9806-2" data-name="Group 9806" transform="translate(0 0)">
                <ellipse id="Ellipse_4077" data-name="Ellipse 4077" cx="26.488" cy="26.488" rx="26.488" ry="26.488" transform="translate(39.494)" fill="#83bec1"/>
                <path id="Path_8178-2" data-name="Path 8178" d="M90.668,11.956A48.223,48.223,0,0,0,70.41,12.2c-44.037,5.16-58.336,56.132-54.3,95,1.751,16.8,28.239,16.979,26.47,0-1.469-14.164-.84-35.539,6.688-50.731v55.392c0,.652.065,1.264.094,1.892-.018.3-.088.552-.088.858,0,43.955-.076,87.892-1.892,131.812-.805,19.524,29.468,19.447,30.267,0,1.422-34.422,1.781-68.862,1.863-103.308a35.029,35.029,0,0,0,4.3.012c.088,34.446.435,68.886,1.845,103.3.805,19.447,31.078,19.524,30.267,0-1.816-43.92-1.881-87.857-1.881-131.812a16.586,16.586,0,0,0-.458-3.8c-.041-19.083-.77-38.184-.547-57.255,9.015,15.263,9.838,38.542,8.275,53.629-1.775,16.967,24.719,16.8,26.47,0C151.919,67.518,136.933,15.223,90.668,11.956Z" transform="translate(-15.459 49.9)" fill="#83bec1"/>
              </g>
            </g>
            <g id="music" transform="translate(80.443 144.653)">
              <path id="Path_11494" data-name="Path 11494" d="M81.676,61.125a5.573,5.573,0,0,1-5.557,5.557H20.557A5.573,5.573,0,0,1,15,61.125V20.556A5.573,5.573,0,0,1,20.557,15H76.12a5.573,5.573,0,0,1,5.557,5.556Zm0,0" transform="translate(-12.925 -12.925)" fill="#e7f0ef"/>
              <path id="Path_11496" data-name="Path 11496" d="M63.195,0H7.632A7.64,7.64,0,0,0,0,7.631V48.2a7.64,7.64,0,0,0,7.632,7.632H30v4.178H18.744a5.409,5.409,0,1,0,0,10.817H52.082a5.409,5.409,0,1,0,0-10.817H40.822V55.831H63.195A7.64,7.64,0,0,0,70.826,48.2V7.631A7.64,7.64,0,0,0,63.195,0Zm3.482,48.2a3.485,3.485,0,0,1-3.482,3.482H7.632A3.486,3.486,0,0,1,4.15,48.2V7.631A3.485,3.485,0,0,1,7.632,4.15H63.195a3.485,3.485,0,0,1,3.482,3.481Zm0,0" transform="translate(0 0)" fill="#829fd1"/>
              <path id="Path_11497" data-name="Path 11497" d="M123.746,58.662a1.543,1.543,0,0,0-1.193-.387l-15.69,1.652a1.542,1.542,0,0,0-1.38,1.534V77.174a6.387,6.387,0,0,0-3-.74,5.685,5.685,0,1,0,6.084,5.671V69.454l12.606-1.327v7.4a6.387,6.387,0,0,0-3-.74,5.685,5.685,0,1,0,6.083,5.671V59.808a1.543,1.543,0,0,0-.51-1.146Zm0,0" transform="translate(-78.248 -45.105)" fill="#00d8e0"/>
              <path id="Path_11498" data-name="Path 11498" d="M283.782,0H256V4.15h27.782a3.485,3.485,0,0,1,3.482,3.481V48.2a3.485,3.485,0,0,1-3.482,3.482H256V70.826h16.669a5.409,5.409,0,1,0,0-10.817h-11.26V55.83h22.372a7.64,7.64,0,0,0,7.632-7.631V7.63A7.64,7.64,0,0,0,283.782,0Zm0,0" transform="translate(-220.587 0)" fill="#6783b2"/>
            </g>
            <path id="football" d="M12.031,0A12.031,12.031,0,1,0,24.062,12.031,12.031,12.031,0,0,0,12.031,0Zm.429,3.469L16.643,1.8a11.254,11.254,0,0,1,1.374.741l.011.007a11.294,11.294,0,0,1,1.238.908l.034.029q.263.224.512.464l.064.061q.261.255.506.526l.04.047c.143.16.281.326.414.5l.1.12c.145.188.285.379.417.576l-.834,3.544-4.1,1.368L12.462,7.52ZM3.13,5.2l.095-.12q.2-.251.409-.49l.044-.051q.243-.271.5-.525c.02-.02.04-.04.061-.058q.247-.238.508-.462l.04-.034a11.337,11.337,0,0,1,1.226-.9l.016-.01A11.265,11.265,0,0,1,7.4,1.8l4.2,1.664V7.519L7.65,10.68l-4.1-1.365L2.714,5.771c.134-.2.272-.387.416-.574ZM2.647,18.185q-.177-.27-.338-.549l-.026-.045q-.16-.278-.3-.566l0-.006a11.173,11.173,0,0,1-.528-1.243v0c-.071-.2-.136-.406-.2-.613l-.022-.076q-.083-.291-.15-.589c0-.019-.009-.038-.013-.057a11.162,11.162,0,0,1-.212-1.358L3.3,10.141,7.377,11.5,8.56,16.228,6.617,18.812ZM14.7,22.937c-.2.05-.406.093-.612.131L14,23.083c-.175.031-.352.058-.53.08l-.142.018c-.165.019-.331.034-.5.046l-.157.012c-.213.013-.428.021-.645.021q-.3,0-.592-.016c-.024,0-.046,0-.07-.006q-.262-.015-.521-.04l-.02,0a11.426,11.426,0,0,1-1.131-.18L7.325,19.3l1.912-2.55h5.588l1.944,2.567Zm8.3-8.5c0,.019-.009.038-.013.057q-.067.3-.15.589l-.022.076c-.06.207-.125.411-.2.613v0a11.136,11.136,0,0,1-.528,1.243l0,.006q-.144.288-.3.566l-.026.045q-.16.281-.338.549l-3.957.624-1.956-2.583L16.688,11.5l4.074-1.358,2.448,2.938A11.135,11.135,0,0,1,23,14.437Zm0,0" transform="translate(651.156 507.444)" fill="#535353"/>
            <g id="conversation" transform="matrix(1, 0.017, -0.017, 1, 606.967, 135.65)">
              <path id="Path_13042" data-name="Path 13042" d="M11,37.954,6.853,19.7.332,5.271A3.733,3.733,0,0,1,7.136,2.2L13.812,16.97a3.754,3.754,0,0,1,.238.71L18.284,36.3A3.733,3.733,0,0,1,11,37.954Z" transform="translate(76.303 37.98)" fill="#414b82"/>
              <path id="Path_13043" data-name="Path 13043" d="M19.239.726,11,.017A4.638,4.638,0,0,0,5.98,4.241L3.941,27.952,6.191,42.3.241,58.076a3.733,3.733,0,1,0,6.986,2.635l6.3-16.7a3.734,3.734,0,0,0,.2-1.9L11.6,28.611l9.827.845L23.464,5.745A4.639,4.639,0,0,0,19.239.726Z" transform="translate(64.248 15.704)" fill="#5f6e9b"/>
              <path id="Path_13044" data-name="Path 13044" d="M17.484,29.456,0,27.952,2.038,4.241A4.638,4.638,0,0,1,7.057.017L15.3.726a4.638,4.638,0,0,1,4.224,5.019Z" transform="translate(68.189 15.704)" fill="#64afff"/>
              <g id="Group_12831" data-name="Group 12831" transform="translate(72.974 0)">
                <circle id="Ellipse_4528" data-name="Ellipse 4528" cx="6.867" cy="6.867" r="6.867" transform="translate(1.512 0)" fill="#ffb69e"/>
                <path id="Path_13045" data-name="Path 13045" d="M9.824,28.909.936,20.221a3.111,3.111,0,0,1-.882-2.8L2.88,2.531a3.111,3.111,0,1,1,6.113,1.16L6.478,16.938l7.695,7.523a3.111,3.111,0,1,1-4.349,4.449Z" transform="translate(0 17.472)" fill="#ffb69e"/>
              </g>
              <path id="Path_13046" data-name="Path 13046" d="M0,11.174l6.086,1.3L7.753,3.692a3.111,3.111,0,0,0-6.113-1.16Z" transform="translate(74.214 17.472)" fill="#4699f2"/>
              <path id="Path_13047" data-name="Path 13047" d="M1.43,25.576.02,13.227a3.111,3.111,0,0,1,1.086-2.732L12.692.732A3.111,3.111,0,1,1,16.7,5.49L6.391,14.178,7.612,24.87a3.111,3.111,0,1,1-6.182.706Z" transform="translate(35.527 23.016)" fill="#d4a38f"/>
              <path id="Path_13048" data-name="Path 13048" d="M11,37.954,6.853,19.7.332,5.271A3.733,3.733,0,0,1,7.136,2.2L13.812,16.97a3.748,3.748,0,0,1,.238.71L18.284,36.3A3.733,3.733,0,0,1,11,37.954Z" transform="translate(48.349 43.672)" fill="#414b82"/>
              <path id="Path_13049" data-name="Path 13049" d="M19.239.726,11,.017A4.638,4.638,0,0,0,5.98,4.241L3.941,27.952,6.191,42.3.241,58.076a3.733,3.733,0,1,0,6.986,2.635l6.3-16.7a3.733,3.733,0,0,0,.2-1.9L11.6,28.611l9.827.845L23.464,5.745A4.639,4.639,0,0,0,19.239.726Z" transform="translate(36.295 21.396)" fill="#5f6e9b"/>
              <path id="Path_13050" data-name="Path 13050" d="M17.484,29.456,0,27.952,2.038,4.241A4.638,4.638,0,0,1,7.057.017L15.3.726a4.638,4.638,0,0,1,4.224,5.019Z" transform="translate(40.236 21.396)" fill="#719c77"/>
              <g id="Group_12832" data-name="Group 12832" transform="translate(46.533 5.691)">
                <circle id="Ellipse_4529" data-name="Ellipse 4529" cx="6.867" cy="6.867" r="6.867" fill="#d4a38f"/>
                <path id="Path_13051" data-name="Path 13051" d="M17.44,24.914,5.732,20.744a3.111,3.111,0,0,1-1.975-2.178L.093,3.865A3.111,3.111,0,0,1,6.13,2.36L9.391,15.442l10.137,3.611a3.111,3.111,0,0,1-2.088,5.861Z" transform="translate(0.651 17.325)" fill="#d4a38f"/>
              </g>
              <path id="Path_13052" data-name="Path 13052" d="M2.221,12.4l6.073-1.362L6.13,2.36a3.111,3.111,0,1,0-6.037,1.5Z" transform="translate(47.183 23.016)" fill="#5c7d60"/>
              <path id="Path_13053" data-name="Path 13053" d="M22.122,1.164,13.939.043A4.632,4.632,0,0,0,8.722,4L5.5,27.549,7.039,42.012.3,57.909A3.728,3.728,0,0,0,7.161,60.82l7.119-16.785a3.726,3.726,0,0,0,.275-1.848L13.116,28.592l9.743,1.334L26.083,6.381A4.632,4.632,0,0,0,22.122,1.164Z" transform="translate(0 21.439)" fill="#5f6e9b"/>
              <path id="Path_13054" data-name="Path 13054" d="M3.583,37.032,2.712,19.757.055,4.362A3.728,3.728,0,1,1,7.4,3.094l2.7,15.616a3.731,3.731,0,0,1,.05.446l.882,17.5a3.728,3.728,0,1,1-7.446.375Z" transform="translate(14.706 43.96)" fill="#414b82"/>
              <path id="Path_13055" data-name="Path 13055" d="M17.361,29.926,0,27.549,3.224,4A4.632,4.632,0,0,1,8.441.043l8.184,1.12a4.632,4.632,0,0,1,3.961,5.217Z" transform="translate(5.498 21.439)" fill="#ffdc64"/>
              <g id="Group_12833" data-name="Group 12833" transform="translate(15.347 6.226)">
                <path id="Path_13056" data-name="Path 13056" d="M7.787.064a6.856,6.856,0,1,0,3.048,12.375l-.018-.015c1.134-.957,2.491-1.79,2.893-5.59A6.856,6.856,0,0,0,7.787.064Z" transform="translate(0.747 0)" fill="#ffb69e"/>
                <path id="Path_13057" data-name="Path 13057" d="M11.654,12.681,1.422,5.853A3.2,3.2,0,1,1,4.969.538l8.806,5.877,10.5-4.4A3.195,3.195,0,1,1,26.741,7.91L14.662,12.971A3.2,3.2,0,0,1,11.654,12.681Z" transform="translate(0 17.318)" fill="#ffb69e"/>
              </g>
              <path id="Path_13058" data-name="Path 13058" d="M11.252,4.731,4.969.538A3.2,3.2,0,1,0,1.422,5.853l6.769,4.518Z" transform="translate(15.347 23.544)" fill="#ffc305"/>
            </g>
            <g id="Mask_Group_9759" data-name="Mask Group 9759" transform="translate(330.341 31.92)" clip-path="url(#clip-path)">
              <g id="team_2_" data-name="team (2)" transform="translate(3.71 8.802)">
                <path id="Path_13883" data-name="Path 13883" d="M179.178,179.646l14.394-33.316a6.457,6.457,0,0,1,4.313-3.691l20.308-5.243-4.46-26.091a7.2,7.2,0,0,1,5.888-8.315l4.176-.714a14.626,14.626,0,0,1,17.024,13.086l2.507,27.53a6.153,6.153,0,0,1-6.8,6.674l-9.681-1.067-22.672,5.853-13.141,30.416a6.457,6.457,0,1,1-11.854-5.122Z" transform="translate(-138.864 -74.367)" fill="#47634b"/>
                <path id="Path_13884" data-name="Path 13884" d="M299.727,259.012a3.564,3.564,0,0,0,3.564-3.564V209.384H349.61v46.065a3.563,3.563,0,1,0,7.127,0V205.82a3.564,3.564,0,0,0-3.563-3.564H299.728a3.564,3.564,0,0,0-3.563,3.564v49.629A3.563,3.563,0,0,0,299.727,259.012Z" transform="translate(-292.444 -144.714)" fill="#3d3d3d"/>
                <path id="Path_13885" data-name="Path 13885" d="M362.931,123.056a2.838,2.838,0,0,0,2.838,2.838h21.267a2.838,2.838,0,0,0,0-5.676H368.607V97.862a2.838,2.838,0,1,0-5.676,0Z" transform="translate(-345.854 -69.423)" fill="#85aebb"/>
                <path id="Path_13886" data-name="Path 13886" d="M419.3,78.459a1.982,1.982,0,0,0,2.605,1.033l4.539-1.961a1.981,1.981,0,0,0,1.033-2.6L413.273,42.045a1.982,1.982,0,0,0-2.6-1.033l-4.539,1.961a1.981,1.981,0,0,0-1.033,2.6Z" transform="translate(-395.749 -31.386)" fill="#bae0e5"/>
                <g id="Group_13057" data-name="Group 13057" transform="translate(0 56.471)">
                  <path id="Path_13887" data-name="Path 13887" d="M284.2,207.567h60.275a4.454,4.454,0,1,0,0-8.908H284.2a4.454,4.454,0,1,0,0,8.908Z" transform="translate(-279.748 -198.659)" fill="#3d3d3d"/>
                </g>
                <path id="Path_13888" data-name="Path 13888" d="M161.084,201.974a14.612,14.612,0,0,0,1.267-9.481l-3.507-17.252a21.265,21.265,0,0,0-26.695-16.206,8.264,8.264,0,0,0-5.668,10.221l7.86,27.435Z" transform="translate(-56.36 -133.613)" fill="#49784f"/>
                <ellipse id="Ellipse_4587" data-name="Ellipse 4587" cx="12.234" cy="12.234" rx="12.234" ry="12.234" transform="translate(59.768 0)" fill="#faad93"/>
                <path id="Path_13889" data-name="Path 13889" d="M218.32,293.078a3.711,3.711,0,0,0,3.711-3.712V266.142a3.711,3.711,0,1,0-7.423,0v23.225A3.711,3.711,0,0,0,218.32,293.078Z" transform="translate(-127.435 -186.963)" fill="#50555a"/>
                <g id="Group_13058" data-name="Group 13058" transform="translate(73.774 73.581)">
                  <path id="Path_13890" data-name="Path 13890" d="M168.264,265H195.31a4.454,4.454,0,1,0,0-8.908H168.264a4.454,4.454,0,1,0,0,8.908Z" transform="translate(-163.81 -256.097)" fill="#80868c"/>
                  <path id="Path_13891" data-name="Path 13891" d="M177.667,361.495l4.306-4.305h11.538l4.306,4.305a3.711,3.711,0,0,0,5.249-5.249l-5.393-5.393a3.712,3.712,0,0,0-2.625-1.087H180.435a3.712,3.712,0,0,0-2.625,1.087l-5.393,5.393a3.712,3.712,0,0,0,5.249,5.249Z" transform="translate(-170.438 -321.864)" fill="#80868c"/>
                </g>
                <path id="Path_13892" data-name="Path 13892" d="M204.733,204.779l15.376-14.749a5.277,5.277,0,0,0-7.305-7.616l-13.268,12.78-18.152-1.882a5.277,5.277,0,0,0-4.336,9.621l21.865,2.848A5.277,5.277,0,0,0,204.733,204.779Z" transform="translate(-137.508 -152.201)" fill="#faad93"/>
                <path id="Path_13893" data-name="Path 13893" d="M181.4,196.795l-7.464-7.464,7.212-6.918a5.277,5.277,0,1,1,7.305,7.616Z" transform="translate(-105.855 -152.2)" fill="#438b4c"/>
              </g>
            </g>
            <g id="soccer-player" transform="translate(671.501 433.308)">
              <path id="Path_13399" data-name="Path 13399" d="M59.514,128.18a4.543,4.543,0,0,0,.825-6.374L49.052,107.164a4.545,4.545,0,0,0-3.222-1.754l-6.286-.523L35.3,108.9l4.243,5.1,3.534.294,10.063,13.054a4.543,4.543,0,0,0,6.374.825Zm0,0" transform="translate(-0.008 -83.698)" fill="#ffb69e"/>
              <path id="Path_13400" data-name="Path 13400" d="M142.95,103.668a4.544,4.544,0,0,1,4.906-4.153l12.869,1.072v9.121L147.1,108.574A4.545,4.545,0,0,1,142.95,103.668Zm0,0" transform="translate(-121.189 -79.399)" fill="#64d27a"/>
              <path id="Path_13401" data-name="Path 13401" d="M28,345.229a5.383,5.383,0,0,0-1.95-7.359l-15.3-8.888-.13-1.169-6.146-4.142L0,330.052l.267,2.643a5.387,5.387,0,0,0,2.659,4.191l17.714,10.293A5.383,5.383,0,0,0,28,345.229Zm0,0" transform="translate(39.677 -258.29)" fill="#ffb69e"/>
              <path id="Path_13402" data-name="Path 13402" d="M204.917,356.8l2.225-25.494.421-1.252-3.95-6.38-6.656,4.142-.224.667a5.392,5.392,0,0,0-.26,1.247l-2.281,26.133a5.383,5.383,0,0,0,10.725.937Zm0,0" transform="translate(-178.378 -258.291)" fill="#ffb69e"/>
              <path id="Path_13403" data-name="Path 13403" d="M89.658,253.378a5.613,5.613,0,0,1,5.174-5.837c2.96-.256,5.167,2.578,5.167,2.578l1.89,16.929-10.622,2.238Zm0,0" transform="translate(-51.589 -197.525)" fill="#388a48"/>
              <path id="Path_13404" data-name="Path 13404" d="M171.862,252.41l-10.606-2.238,6.768-20.127a5.383,5.383,0,0,1,10.2,3.431Zm0,0" transform="translate(-142.675 -180.648)" fill="#388a48"/>
              <path id="Path_13405" data-name="Path 13405" d="M123.8,128.958l11.955-5.28L122.2,92.979a6.54,6.54,0,0,0-8.626-3.341L102.9,94.35a6.541,6.541,0,0,0-3.341,8.626l8.841,20.017a11.677,11.677,0,0,0,15.4,5.964Zm0,0" transform="translate(-87.346 -71.083)" fill="#64d27a"/>
              <path id="Path_13406" data-name="Path 13406" d="M226.035.816a9.683,9.683,0,1,1-4.946,12.77A9.683,9.683,0,0,1,226.035.816Zm0,0" transform="translate(-215.716 0.012)" fill="#ffb69e"/>
              <path id="Path_13407" data-name="Path 13407" d="M220.279,187.261l15.21-7.485a4.543,4.543,0,0,0,2.466-3.267l1.008-5.56-3.982-4.445-4.931,2.657-.63,3.472-13.154,6.472a4.545,4.545,0,0,0,4.013,8.156Zm0,0" transform="translate(-213.727 -132.869)" fill="#ffb69e"/>
              <path id="Path_13408" data-name="Path 13408" d="M213.657,129.451l-8.913-1.789,1.71-9.427a4.545,4.545,0,0,1,8.944,1.622Zm0,0" transform="translate(-188.421 -91.371)" fill="#64d27a"/>
            </g>
            <rect id="Rectangle_4288" data-name="Rectangle 4288" width="82.02" height="13.745" transform="translate(43.155 764.686)" fill="#636b6a"/>
            <rect id="Rectangle_4289" data-name="Rectangle 4289" width="82.02" height="6.36" transform="translate(43.155 764.686)" fill="#859593"/>
            <path id="Path_13894" data-name="Path 13894" d="M55.279,254.4H69.787l-6.77-5.539c-1.771-1.355-5.166-1.762-7.738-1.762v7.3Z" transform="translate(-7.633 510.29)" fill="#859593"/>
            <g id="Group_13059" data-name="Group 13059" transform="translate(38.664 735.628)">
              <path id="Path_12152" data-name="Path 12152" d="M8.983,203.993a1.524,1.524,0,0,1-1.524,1.524H1.524A1.524,1.524,0,0,1,0,203.993V160.754a4.491,4.491,0,0,1,8.983,0v43.239Z" transform="translate(0 -156.263)" fill="#636b6a"/>
              <path id="Path_12153" data-name="Path 12153" d="M465.7,315.234a1.524,1.524,0,0,1-1.524,1.524h-5.935a1.524,1.524,0,0,1-1.524-1.524V293.577a4.491,4.491,0,1,1,8.983,0v21.656Z" transform="translate(-374.7 -267.503)" fill="#636b6a"/>
            </g>
            <g id="Group_12488" data-name="Group 12488" transform="translate(647.405 715.303)">
              <rect id="Rectangle_4076" data-name="Rectangle 4076" width="95.59" height="16.02" transform="translate(5.235 33.866)" fill="#636b6a"/>
              <rect id="Rectangle_4077" data-name="Rectangle 4077" width="95.59" height="7.412" transform="translate(5.235 33.866)" fill="#859593"/>
              <path id="Path_12160" data-name="Path 12160" d="M55.28,255.6H72.188l-7.89-6.455c-2.064-1.579-6.021-2.053-9.018-2.053V255.6Z" transform="translate(-44.811 -221.738)" fill="#859593"/>
              <g id="Group_12487" data-name="Group 12487" transform="translate(0 0)">
                <path id="Path_12152-2" data-name="Path 12152" d="M10.469,211.89a1.776,1.776,0,0,1-1.776,1.776H1.776A1.776,1.776,0,0,1,0,211.89V161.5a5.234,5.234,0,0,1,10.469,0V211.89Z" transform="translate(0 -156.263)" fill="#636b6a"/>
                <path id="Path_12153-2" data-name="Path 12153" d="M467.189,319.56a1.776,1.776,0,0,1-1.776,1.776H458.5a1.776,1.776,0,0,1-1.776-1.776V294.32a5.234,5.234,0,0,1,10.469,0V319.56Z" transform="translate(-361.131 -263.933)" fill="#636b6a"/>
              </g>
              <g id="bed_1_" data-name="bed (1)" transform="translate(12.275 14.336)">
                <g id="Group_12358" data-name="Group 12358" transform="translate(0 0)">
                  <g id="Group_12357" data-name="Group 12357" transform="translate(0 0)">
                    <circle id="Ellipse_4402" data-name="Ellipse 4402" cx="7" cy="7" r="7" transform="translate(0.201 0.202)" fill="#faad93"/>
                  </g>
                </g>
                <g id="Group_12362" data-name="Group 12362" transform="translate(26.612 0.944)">
                  <g id="Group_12361" data-name="Group 12361" transform="translate(0 0)">
                    <path id="Path_11762" data-name="Path 11762" d="M252.653,182.836c-11.806-3.409-35.3-6.079-42.447-5.877l-4.246,8.178-2.146,11.191s-.121,3.248-.051,5.019a1.561,1.561,0,0,0,1.559,1.5l53.783.149a1.561,1.561,0,0,0,1.541-1.311l1-6.128C262.616,189.573,258.478,184.518,252.653,182.836Z" transform="translate(-203.742 -176.949)" fill="#42696e"/>
                  </g>
                </g>
                <path id="Path_12162" data-name="Path 12162" d="M178.318,190.635h0a3.11,3.11,0,0,0-4.274-1h0l-9.133,5.657-10.738-4.921,5.04.889a37.7,37.7,0,0,1,2.491-5.906l-11.686-.215a4.361,4.361,0,0,0-4.427,4.267l-.142,7.753a4.364,4.364,0,0,0,4.268,4.427l7.418.136q.06-.719.138-1.414l-5.294-4.111,11.858,5.435a3.13,3.13,0,0,0,2.929-.183l10.548-6.533A3.1,3.1,0,0,0,178.318,190.635Z" transform="translate(-129.78 -182.648)" fill="#4686a7"/>
              </g>
              <path id="Path_12161" data-name="Path 12161" d="M225.46,207.038h0a3.11,3.11,0,0,0-4.274-1h0l-9.133,5.657-5.409-2.5-2.465,5.7,6.8,3.134a3.13,3.13,0,0,0,2.929-.183l10.548-6.533A3.1,3.1,0,0,0,225.46,207.038Z" transform="translate(-164.647 -184.715)" fill="#faad93"/>
            </g>
            <g id="conversation_4_" data-name="conversation (4)" transform="translate(56.68 720.301)">
              <ellipse id="Ellipse_4206" data-name="Ellipse 4206" cx="6.604" cy="6.604" rx="6.604" ry="6.604" transform="translate(17.855 3.654)" fill="#ffb69e"/>
              <path id="Path_10209" data-name="Path 10209" d="M256.865,54.824a3.186,3.186,0,0,0-4.366,1.117l-9.83,16H234.7l-11.2-16a3.187,3.187,0,1,0-5.242,3.624l12.1,17.305v24.122h16.879V76.707c.215-.288-4.3,7.878,10.75-17.518A3.187,3.187,0,0,0,256.865,54.824Z" transform="translate(-214.411 -53.829)" fill="#ffb69e"/>
              <path id="Path_10210" data-name="Path 10210" d="M293.65,146.118l-3.377,5.644h-.848a3.18,3.18,0,0,1-6.359,0h-.942l-3.942-5.644-5.573,3.362,5.075,7.266v18.342h17.254V156.58c.152-.2-.279.509,4.477-7.443Z" transform="translate(-261.923 -133.668)" fill="#4686a7"/>
              <path id="Path_13900" data-name="Path 13900" d="M158.214,293.681l-2.745-18.58a3.974,3.974,0,0,1,1.569-3.8l6.45-4.642a3.617,3.617,0,0,1,5.173,1,4.01,4.01,0,0,1-.958,5.415l-4.524,3.256,2.388,16.162a3.874,3.874,0,0,1-3.108,4.443A3.747,3.747,0,0,1,158.214,293.681Z" transform="translate(-146.347 -225.888)" fill="#414b82"/>
              <path id="Path_13901" data-name="Path 13901" d="M257.943,297.884a3.875,3.875,0,0,1-3.108-4.444l2.357-15.958-5.171-3.148a4,4,0,0,1-1.346-5.325,3.629,3.629,0,0,1,5.086-1.409l7.365,4.484a3.959,3.959,0,0,1,1.806,3.963l-2.745,18.584A3.747,3.747,0,0,1,257.943,297.884Z" transform="translate(-223.559 -226.839)" fill="#414b82"/>
            </g>
          </g>
          <path id="Path_13902" data-name="Path 13902" d="M2.562.041h13.3a1.934,1.934,0,0,1,2,1.861V5.623c0,1.028-.2,1.861-1.3,1.861h-14a1.934,1.934,0,0,1-2-1.861V1.9A1.934,1.934,0,0,1,2.562.041Z" transform="translate(187 804.556)" fill="#414b82"/>
          <path id="Path_14255" data-name="Path 14255" d="M37.031,50.7l5.742-30.352h8.76L42.07,63H33.223L26.279,34.465,19.336,63H10.488L1.025,20.344h8.76l5.771,30.293,7.031-30.293h7.441ZM63.984,34.758a10.567,10.567,0,0,1,8.467-4.043q10.313,0,10.459,11.982V63H74.443V42.932A5.889,5.889,0,0,0,73.271,38.9a5.024,5.024,0,0,0-3.9-1.3,5.763,5.763,0,0,0-5.391,2.871V63H55.518V18h8.467ZM107.666,63a9.4,9.4,0,0,1-.85-2.842,10.245,10.245,0,0,1-8,3.428,11.255,11.255,0,0,1-7.72-2.7,8.669,8.669,0,0,1-3.062-6.8,8.958,8.958,0,0,1,3.735-7.734q3.735-2.7,10.8-2.725h3.9V41.818a5.224,5.224,0,0,0-1.128-3.516,4.437,4.437,0,0,0-3.56-1.318,5.045,5.045,0,0,0-3.354,1.025,3.483,3.483,0,0,0-1.216,2.813H88.74a8.5,8.5,0,0,1,1.7-5.1,11.232,11.232,0,0,1,4.8-3.677,17.51,17.51,0,0,1,6.973-1.333q5.859,0,9.3,2.944a10.3,10.3,0,0,1,3.442,8.276v13.74a15.155,15.155,0,0,0,1.26,6.826V63Zm-7-5.889a7.292,7.292,0,0,0,3.457-.835,5.484,5.484,0,0,0,2.344-2.241V48.586H103.3q-6.357,0-6.768,4.395l-.029.5a3.39,3.39,0,0,0,1.113,2.607A4.324,4.324,0,0,0,100.664,57.111Zm30.938-33.6V31.3h5.42v6.211H131.6v15.82a3.778,3.778,0,0,0,.674,2.52,3.384,3.384,0,0,0,2.578.762,13.5,13.5,0,0,0,2.49-.205v6.416a17.43,17.43,0,0,1-5.127.762q-8.906,0-9.082-8.994V37.512h-4.629V31.3h4.629V23.508Zm23.76,23.408q0-7.412,3.325-11.807a10.789,10.789,0,0,1,9.1-4.395,9.709,9.709,0,0,1,7.646,3.457V18h8.5V63h-7.646l-.41-3.369a9.964,9.964,0,0,1-8.145,3.955,10.76,10.76,0,0,1-8.979-4.409Q155.361,54.768,155.361,46.916Zm8.467.63a12.514,12.514,0,0,0,1.553,6.837,5.058,5.058,0,0,0,4.512,2.377,5.665,5.665,0,0,0,5.537-3.316V40.915a5.584,5.584,0,0,0-5.479-3.316Q163.828,37.6,163.828,47.546Zm25.342-.689a18.8,18.8,0,0,1,1.816-8.408,13.3,13.3,0,0,1,5.229-5.713,15.257,15.257,0,0,1,7.925-2.021,14.435,14.435,0,0,1,10.474,3.926q4.058,3.926,4.526,10.664l.059,2.168q0,7.295-4.072,11.7T204.2,63.586q-6.855,0-10.942-4.395T189.17,47.238Zm8.467.6q0,4.519,1.7,6.91A6.1,6.1,0,0,0,209,54.4q1.729-2.362,1.729-7.555A11.73,11.73,0,0,0,209,39.976a5.619,5.619,0,0,0-4.863-2.435,5.527,5.527,0,0,0-4.8,2.421Q197.637,42.382,197.637,47.458ZM239,63.586a15.561,15.561,0,0,1-11.353-4.277q-4.38-4.277-4.38-11.4v-.82a19.149,19.149,0,0,1,1.846-8.54,13.546,13.546,0,0,1,5.229-5.8,14.678,14.678,0,0,1,7.72-2.036q6.5,0,10.239,4.1t3.735,11.631V49.9H231.855a7.865,7.865,0,0,0,2.476,4.98,7.484,7.484,0,0,0,5.229,1.875,9.139,9.139,0,0,0,7.646-3.545l4.16,4.658a12.71,12.71,0,0,1-5.156,4.2A16.917,16.917,0,0,1,239,63.586Zm-.967-26.045a5.291,5.291,0,0,0-4.087,1.707,8.838,8.838,0,0,0-2.007,4.885h11.777v-.677a6.3,6.3,0,0,0-1.523-4.37A5.458,5.458,0,0,0,238.037,37.541Zm35.977,16.7a2.728,2.728,0,0,0-1.538-2.446,17.471,17.471,0,0,0-4.937-1.6q-11.309-2.373-11.309-9.609a8.71,8.71,0,0,1,3.5-7.046,14.123,14.123,0,0,1,9.155-2.827q6.035,0,9.653,2.842a8.956,8.956,0,0,1,3.618,7.383h-8.467a4.1,4.1,0,0,0-1.172-3,4.959,4.959,0,0,0-3.662-1.187,5.067,5.067,0,0,0-3.311.967,3.052,3.052,0,0,0-1.172,2.461,2.609,2.609,0,0,0,1.333,2.271,13.713,13.713,0,0,0,4.5,1.494,36.731,36.731,0,0,1,5.332,1.421q6.709,2.461,6.709,8.525a8.269,8.269,0,0,1-3.721,7.017,16.05,16.05,0,0,1-9.609,2.681,16.764,16.764,0,0,1-7.075-1.421,11.871,11.871,0,0,1-4.849-3.9,9.054,9.054,0,0,1-1.758-5.347h8.027a4.42,4.42,0,0,0,1.67,3.457,6.624,6.624,0,0,0,4.16,1.2,6.131,6.131,0,0,0,3.677-.923A2.872,2.872,0,0,0,274.014,54.24ZM321.006,63a9.4,9.4,0,0,1-.85-2.842,10.245,10.245,0,0,1-8,3.428,11.255,11.255,0,0,1-7.72-2.7,8.669,8.669,0,0,1-3.062-6.8,8.958,8.958,0,0,1,3.735-7.734q3.735-2.7,10.8-2.725h3.9V41.818a5.224,5.224,0,0,0-1.128-3.516,4.437,4.437,0,0,0-3.56-1.318,5.045,5.045,0,0,0-3.354,1.025,3.483,3.483,0,0,0-1.216,2.813H302.08a8.5,8.5,0,0,1,1.7-5.1,11.232,11.232,0,0,1,4.8-3.677,17.51,17.51,0,0,1,6.973-1.333q5.859,0,9.3,2.944a10.3,10.3,0,0,1,3.442,8.276v13.74a15.155,15.155,0,0,0,1.26,6.826V63Zm-7-5.889a7.292,7.292,0,0,0,3.457-.835,5.484,5.484,0,0,0,2.344-2.241V48.586h-3.164q-6.357,0-6.768,4.395l-.029.5a3.39,3.39,0,0,0,1.113,2.607A4.324,4.324,0,0,0,314,57.111ZM342.6,31.3l.264,3.662a11.067,11.067,0,0,1,9.111-4.248q5.039,0,7.5,2.959t2.52,8.848V63h-8.467V42.727a5.493,5.493,0,0,0-1.172-3.911,5.246,5.246,0,0,0-3.9-1.216,5.825,5.825,0,0,0-5.361,3.047V63h-8.467V31.3ZM401.719,63a9.4,9.4,0,0,1-.85-2.842,10.245,10.245,0,0,1-8,3.428,11.255,11.255,0,0,1-7.72-2.7,8.669,8.669,0,0,1-3.062-6.8,8.958,8.958,0,0,1,3.735-7.734q3.735-2.7,10.8-2.725h3.9V41.818A5.224,5.224,0,0,0,399.39,38.3a4.437,4.437,0,0,0-3.56-1.318,5.045,5.045,0,0,0-3.354,1.025,3.483,3.483,0,0,0-1.216,2.813h-8.467a8.5,8.5,0,0,1,1.7-5.1,11.232,11.232,0,0,1,4.8-3.677,17.51,17.51,0,0,1,6.973-1.333q5.859,0,9.3,2.944a10.3,10.3,0,0,1,3.442,8.276v13.74a15.155,15.155,0,0,0,1.26,6.826V63Zm-7-5.889a7.292,7.292,0,0,0,3.457-.835,5.484,5.484,0,0,0,2.344-2.241V48.586h-3.164q-6.357,0-6.768,4.395l-.029.5a3.39,3.39,0,0,0,1.113,2.607A4.324,4.324,0,0,0,394.717,57.111Zm32.227-4.453L432.832,31.3h8.848L430.986,63H422.9L412.207,31.3h8.848ZM459.99,63.586a15.561,15.561,0,0,1-11.353-4.277q-4.38-4.277-4.38-11.4v-.82a19.149,19.149,0,0,1,1.846-8.54,13.546,13.546,0,0,1,5.229-5.8,14.678,14.678,0,0,1,7.72-2.036q6.5,0,10.239,4.1t3.735,11.631V49.9H452.842a7.865,7.865,0,0,0,2.476,4.98,7.484,7.484,0,0,0,5.229,1.875,9.139,9.139,0,0,0,7.646-3.545l4.16,4.658a12.71,12.71,0,0,1-5.156,4.2A16.917,16.917,0,0,1,459.99,63.586Zm-.967-26.045a5.291,5.291,0,0,0-4.087,1.707,8.838,8.838,0,0,0-2.007,4.885h11.777v-.677a6.3,6.3,0,0,0-1.523-4.37A5.458,5.458,0,0,0,459.023,37.541Zm36.621,1.7a23,23,0,0,0-3.047-.234q-4.8,0-6.3,3.252V63h-8.467V31.3h8l.234,3.779q2.549-4.365,7.061-4.365a8.872,8.872,0,0,1,2.637.381ZM517.207,63a9.4,9.4,0,0,1-.85-2.842,10.245,10.245,0,0,1-8,3.428,11.255,11.255,0,0,1-7.72-2.7,8.669,8.669,0,0,1-3.062-6.8,8.958,8.958,0,0,1,3.735-7.734q3.735-2.7,10.8-2.725h3.9V41.818a5.224,5.224,0,0,0-1.128-3.516,4.437,4.437,0,0,0-3.56-1.318,5.045,5.045,0,0,0-3.354,1.025,3.483,3.483,0,0,0-1.216,2.813h-8.467a8.5,8.5,0,0,1,1.7-5.1,11.232,11.232,0,0,1,4.8-3.677,17.51,17.51,0,0,1,6.973-1.333q5.859,0,9.3,2.944a10.3,10.3,0,0,1,3.442,8.276v13.74a15.155,15.155,0,0,0,1.26,6.826V63Zm-7-5.889a7.292,7.292,0,0,0,3.457-.835,5.484,5.484,0,0,0,2.344-2.241V48.586h-3.164q-6.357,0-6.768,4.395l-.029.5a3.39,3.39,0,0,0,1.113,2.607A4.324,4.324,0,0,0,510.205,57.111Zm19.57-10.2q0-7.295,3.472-11.748a11.249,11.249,0,0,1,9.36-4.453,9.866,9.866,0,0,1,8.115,3.574l.352-2.988h7.676V61.945a13.548,13.548,0,0,1-1.89,7.236,12.136,12.136,0,0,1-5.317,4.688,18.693,18.693,0,0,1-8.027,1.611,17.382,17.382,0,0,1-6.8-1.392,12.063,12.063,0,0,1-5.01-3.589l3.75-5.156a9.918,9.918,0,0,0,7.676,3.545,7.259,7.259,0,0,0,5.244-1.8,6.758,6.758,0,0,0,1.875-5.112v-1.7a9.793,9.793,0,0,1-7.705,3.311,11.22,11.22,0,0,1-9.243-4.468q-3.53-4.468-3.53-11.851Zm8.467.63a11.568,11.568,0,0,0,1.729,6.763,5.5,5.5,0,0,0,4.746,2.45,5.879,5.879,0,0,0,5.537-2.9V40.5a5.866,5.866,0,0,0-5.479-2.9,5.533,5.533,0,0,0-4.79,2.494Q538.242,42.588,538.242,47.546Zm41.6,16.04a15.561,15.561,0,0,1-11.353-4.277q-4.38-4.277-4.38-11.4v-.82a19.149,19.149,0,0,1,1.846-8.54,13.546,13.546,0,0,1,5.229-5.8,14.678,14.678,0,0,1,7.72-2.036q6.5,0,10.239,4.1t3.735,11.631V49.9H572.7a7.865,7.865,0,0,0,2.476,4.98A7.484,7.484,0,0,0,580.4,56.76a9.139,9.139,0,0,0,7.646-3.545l4.16,4.658a12.71,12.71,0,0,1-5.156,4.2A16.917,16.917,0,0,1,579.844,63.586Zm-.967-26.045a5.291,5.291,0,0,0-4.087,1.707,8.838,8.838,0,0,0-2.007,4.885h11.777v-.677a6.3,6.3,0,0,0-1.523-4.37A5.458,5.458,0,0,0,578.877,37.541Zm62.285,9.9q0,7.324-3.325,11.733a10.661,10.661,0,0,1-8.979,4.409,9.876,9.876,0,0,1-7.764-3.34V75.188h-8.467V31.3h7.852l.293,3.105a9.951,9.951,0,0,1,8.027-3.691,10.734,10.734,0,0,1,9.111,4.336q3.252,4.336,3.252,11.953Zm-8.467-.615A12.476,12.476,0,0,0,631.128,40a5.105,5.105,0,0,0-4.556-2.4q-3.984,0-5.479,3.047V53.625q1.553,3.135,5.537,3.135Q632.7,56.76,632.7,46.828ZM661,63.586a15.561,15.561,0,0,1-11.353-4.277q-4.38-4.277-4.38-11.4v-.82a19.149,19.149,0,0,1,1.846-8.54,13.546,13.546,0,0,1,5.229-5.8,14.678,14.678,0,0,1,7.72-2.036q6.5,0,10.239,4.1t3.735,11.631V49.9H653.848a7.865,7.865,0,0,0,2.476,4.98,7.484,7.484,0,0,0,5.229,1.875,9.139,9.139,0,0,0,7.646-3.545l4.16,4.658a12.71,12.71,0,0,1-5.156,4.2A16.917,16.917,0,0,1,661,63.586Zm-.967-26.045a5.291,5.291,0,0,0-4.087,1.707,8.838,8.838,0,0,0-2.007,4.885h11.777v-.677a6.3,6.3,0,0,0-1.523-4.37A5.458,5.458,0,0,0,660.029,37.541Zm36.621,1.7a23,23,0,0,0-3.047-.234q-4.8,0-6.3,3.252V63h-8.467V31.3h8l.234,3.779q2.549-4.365,7.061-4.365a8.872,8.872,0,0,1,2.637.381Zm21.24,15a2.728,2.728,0,0,0-1.538-2.446,17.471,17.471,0,0,0-4.937-1.6q-11.309-2.373-11.309-9.609a8.71,8.71,0,0,1,3.5-7.046,14.123,14.123,0,0,1,9.155-2.827q6.035,0,9.653,2.842a8.956,8.956,0,0,1,3.618,7.383h-8.467a4.1,4.1,0,0,0-1.172-3,4.959,4.959,0,0,0-3.662-1.187,5.067,5.067,0,0,0-3.311.967,3.052,3.052,0,0,0-1.172,2.461,2.609,2.609,0,0,0,1.333,2.271,13.713,13.713,0,0,0,4.5,1.494,36.731,36.731,0,0,1,5.332,1.421q6.709,2.461,6.709,8.525a8.269,8.269,0,0,1-3.721,7.017,16.05,16.05,0,0,1-9.609,2.681,16.764,16.764,0,0,1-7.075-1.421,11.871,11.871,0,0,1-4.849-3.9,9.054,9.054,0,0,1-1.758-5.347h8.027a4.42,4.42,0,0,0,1.67,3.457,6.624,6.624,0,0,0,4.16,1.2,6.131,6.131,0,0,0,3.677-.923A2.872,2.872,0,0,0,717.891,54.24Zm12.363-7.383a18.8,18.8,0,0,1,1.816-8.408,13.3,13.3,0,0,1,5.229-5.713,15.257,15.257,0,0,1,7.925-2.021A14.435,14.435,0,0,1,755.7,34.641q4.058,3.926,4.526,10.664l.059,2.168q0,7.295-4.072,11.7t-10.928,4.409q-6.855,0-10.942-4.395t-4.087-11.953Zm8.467.6q0,4.519,1.7,6.91a6.1,6.1,0,0,0,9.668.029q1.729-2.362,1.729-7.555a11.73,11.73,0,0,0-1.729-6.866,5.619,5.619,0,0,0-4.863-2.435,5.527,5.527,0,0,0-4.8,2.421Q738.721,42.382,738.721,47.458ZM773.291,31.3l.264,3.662a11.067,11.067,0,0,1,9.111-4.248q5.039,0,7.5,2.959t2.52,8.848V63h-8.467V42.727a5.493,5.493,0,0,0-1.172-3.911,5.246,5.246,0,0,0-3.9-1.216,5.825,5.825,0,0,0-5.361,3.047V63h-8.467V31.3ZM1.934,118.916q0-7.412,3.325-11.807a10.789,10.789,0,0,1,9.1-4.395A9.709,9.709,0,0,1,22,106.172V90h8.5v45H22.852l-.41-3.369a9.964,9.964,0,0,1-8.145,3.955,10.76,10.76,0,0,1-8.979-4.409Q1.934,126.768,1.934,118.916Zm8.467.63a12.514,12.514,0,0,0,1.553,6.837,5.058,5.058,0,0,0,4.512,2.377A5.665,5.665,0,0,0,22,125.444V112.915a5.584,5.584,0,0,0-5.479-3.316Q10.4,109.6,10.4,119.546Zm25.342-.689a18.8,18.8,0,0,1,1.816-8.408,13.3,13.3,0,0,1,5.229-5.713,15.257,15.257,0,0,1,7.925-2.021,14.435,14.435,0,0,1,10.474,3.926q4.058,3.926,4.526,10.664l.059,2.168q0,7.295-4.072,11.7t-10.928,4.409q-6.855,0-10.942-4.395t-4.087-11.953Zm8.467.6q0,4.519,1.7,6.91a6.1,6.1,0,0,0,9.668.029q1.729-2.362,1.729-7.555a11.73,11.73,0,0,0-1.729-6.866,5.619,5.619,0,0,0-4.863-2.435,5.527,5.527,0,0,0-4.8,2.421Q44.209,114.382,44.209,119.458ZM104.3,135a9.4,9.4,0,0,1-.85-2.842,10.245,10.245,0,0,1-8,3.428,11.255,11.255,0,0,1-7.72-2.7,8.669,8.669,0,0,1-3.062-6.8,8.958,8.958,0,0,1,3.735-7.734q3.735-2.7,10.8-2.725h3.9v-1.816a5.224,5.224,0,0,0-1.128-3.516,4.437,4.437,0,0,0-3.56-1.318,5.045,5.045,0,0,0-3.354,1.025,3.483,3.483,0,0,0-1.216,2.813H85.371a8.5,8.5,0,0,1,1.7-5.1,11.232,11.232,0,0,1,4.8-3.677,17.51,17.51,0,0,1,6.973-1.333q5.859,0,9.3,2.944a10.3,10.3,0,0,1,3.442,8.276v13.74a15.155,15.155,0,0,0,1.26,6.826v.5Zm-7-5.889a7.292,7.292,0,0,0,3.457-.835,5.484,5.484,0,0,0,2.344-2.241v-5.449H99.932q-6.357,0-6.768,4.395l-.029.5a3.39,3.39,0,0,0,1.113,2.607A4.324,4.324,0,0,0,97.295,129.111ZM127.031,135h-8.5V90h8.5Zm15.908,0h-8.5V90h8.5Zm20.6-16.084q0-7.412,3.325-11.807a10.789,10.789,0,0,1,9.1-4.395,9.709,9.709,0,0,1,7.646,3.457V90h8.5v45h-7.646l-.41-3.369a9.964,9.964,0,0,1-8.145,3.955,10.76,10.76,0,0,1-8.979-4.409Q163.535,126.768,163.535,118.916Zm8.467.63a12.514,12.514,0,0,0,1.553,6.837,5.058,5.058,0,0,0,4.512,2.377,5.665,5.665,0,0,0,5.537-3.316V112.915a5.584,5.584,0,0,0-5.479-3.316Q172,109.6,172,119.546ZM217.031,135a9.4,9.4,0,0,1-.85-2.842,10.245,10.245,0,0,1-8,3.428,11.255,11.255,0,0,1-7.72-2.7,8.669,8.669,0,0,1-3.062-6.8,8.958,8.958,0,0,1,3.735-7.734q3.735-2.7,10.8-2.725h3.9v-1.816A5.224,5.224,0,0,0,214.7,110.3a4.437,4.437,0,0,0-3.56-1.318,5.045,5.045,0,0,0-3.354,1.025,3.483,3.483,0,0,0-1.216,2.813h-8.467a8.5,8.5,0,0,1,1.7-5.1,11.232,11.232,0,0,1,4.8-3.677,17.51,17.51,0,0,1,6.973-1.333q5.859,0,9.3,2.944a10.3,10.3,0,0,1,3.442,8.276v13.74a15.155,15.155,0,0,0,1.26,6.826v.5Zm-7-5.889a7.292,7.292,0,0,0,3.457-.835,5.484,5.484,0,0,0,2.344-2.241v-5.449h-3.164q-6.357,0-6.768,4.395l-.029.5a3.39,3.39,0,0,0,1.113,2.607A4.324,4.324,0,0,0,210.029,129.111Zm32.637-6.094,5.859-19.717h9.082l-12.744,36.621-.7,1.67q-2.842,6.211-9.375,6.211a13.322,13.322,0,0,1-3.75-.557V140.83l1.289.029a6.965,6.965,0,0,0,3.589-.732,4.812,4.812,0,0,0,1.86-2.432l1-2.607-11.1-31.787h9.111Zm25.2-1.084a17.625,17.625,0,0,1,1-6.54A13.416,13.416,0,0,1,272.5,110.6a18.649,18.649,0,0,0,3.53-3.843,6.033,6.033,0,0,0,.879-3.125q0-4.959-4.57-4.959a4.63,4.63,0,0,0-3.472,1.336,5.25,5.25,0,0,0-1.362,3.685h-8.5a11.3,11.3,0,0,1,3.618-8.768q3.56-3.167,9.712-3.167,6.211,0,9.639,3.006t3.428,8.49a10.335,10.335,0,0,1-1.113,4.706,19.39,19.39,0,0,1-3.9,4.912l-2.373,2.258a8.045,8.045,0,0,0-2.549,5.014l-.117,1.789Zm-.85,8.979a4.265,4.265,0,0,1,1.333-3.227,5.22,5.22,0,0,1,6.826,0,4.555,4.555,0,0,1,.029,6.41,5.347,5.347,0,0,1-6.885,0A4.23,4.23,0,0,1,267.012,130.913Z" transform="translate(44 -210)" fill="#293536"/>
        </g>
      </g>
    </g>
  </g>
</svg>
