<svg xmlns="http://www.w3.org/2000/svg" xmlns:xlink="http://www.w3.org/1999/xlink" width="1000" height="1267" viewBox="0 0 1000 1267">
  <defs>
    <filter id="Path_8196" x="71.674" y="823.675" width="181.439" height="183.822" filterUnits="userSpaceOnUse">
      <feOffset dy="1" input="SourceAlpha"/>
      <feGaussianBlur stdDeviation="1" result="blur"/>
      <feFlood flood-opacity="0.161"/>
      <feComposite operator="in" in2="blur"/>
      <feComposite in="SourceGraphic"/>
    </filter>
    <filter id="Path_11547" x="383.892" y="270.455" width="210.744" height="203.032" filterUnits="userSpaceOnUse">
      <feOffset dy="1" input="SourceAlpha"/>
      <feGaussianBlur stdDeviation="1" result="blur-2"/>
      <feFlood flood-opacity="0.161"/>
      <feComposite operator="in" in2="blur-2"/>
      <feComposite in="SourceGraphic"/>
    </filter>
    <filter id="Path_8197" x="112.328" y="458.402" width="171.144" height="178.811" filterUnits="userSpaceOnUse">
      <feOffset dy="1" input="SourceAlpha"/>
      <feGaussianBlur stdDeviation="1" result="blur-3"/>
      <feFlood flood-opacity="0.161"/>
      <feComposite operator="in" in2="blur-3"/>
      <feComposite in="SourceGraphic"/>
    </filter>
    <filter id="Path_8199" x="707.178" y="486.129" width="171.966" height="166.37" filterUnits="userSpaceOnUse">
      <feOffset dy="1" input="SourceAlpha"/>
      <feGaussianBlur stdDeviation="1" result="blur-4"/>
      <feFlood flood-opacity="0.161"/>
      <feComposite operator="in" in2="blur-4"/>
      <feComposite in="SourceGraphic"/>
    </filter>
    <filter id="Rectangle_2992" x="378" y="703" width="245" height="424" filterUnits="userSpaceOnUse">
      <feOffset dy="2" input="SourceAlpha"/>
      <feGaussianBlur stdDeviation="2" result="blur-5"/>
      <feFlood flood-color="#8a4646" flood-opacity="0.6"/>
      <feComposite operator="in" in2="blur-5"/>
      <feComposite in="SourceGraphic"/>
    </filter>
    <filter id="Path_8200" x="741.889" y="830.735" width="164.556" height="166.37" filterUnits="userSpaceOnUse">
      <feOffset dy="1" input="SourceAlpha"/>
      <feGaussianBlur stdDeviation="1" result="blur-6"/>
      <feFlood flood-opacity="0.161"/>
      <feComposite operator="in" in2="blur-6"/>
      <feComposite in="SourceGraphic"/>
    </filter>
    <clipPath id="clip-path">
      <rect id="Rectangle_4290" data-name="Rectangle 4290" width="135" height="89" transform="translate(0.164 0.078)" fill="#fff" stroke="#707070" stroke-width="1"/>
    </clipPath>
  </defs>
  <g id="What_happens_when_he_gets_depressed_" data-name="What happens when he gets depressed?" transform="translate(-1261 -397)">
    <g id="activity_a_depressed_person_do" data-name="activity a depressed person do" transform="translate(252)">
      <g id="What_happens_when_she_gets_depressed_" data-name="What happens when she gets depressed?" transform="translate(1009 645)">
        <g id="Rectangle_2989" data-name="Rectangle 2989" transform="translate(0 -248)" fill="#ffe4e4" stroke="#b9d5d6" stroke-width="1">
          <rect width="1000" height="1267" rx="4" stroke="none"/>
          <rect x="0.5" y="0.5" width="999" height="1266" rx="3.5" fill="none"/>
        </g>
        <g transform="matrix(1, 0, 0, 1, 0, -248)" filter="url(#Path_8196)">
          <path id="Path_8196-2" data-name="Path 8196" d="M109.458,0a43.862,43.862,0,0,1,38,21.962l22.462,38.978c7.812,13.555,11.531,57.262,3.094,69.481-21.27,28.625-47.876,35.259-88.173,45.018-15.683,0-26.375-.577-46.533-18.252s-28.485-26.22-34.1-52.447-5.615-45.234,0-65.929S48.994,0,64.677,0Z" transform="translate(250.11 825.67) rotate(90)" fill="#ffefef"/>
        </g>
        <g transform="matrix(1, 0, 0, 1, 0, -248)" filter="url(#Path_11547)">
          <path id="Path_11547-2" data-name="Path 11547" d="M104.321,0c14.947,0,28.757,7.568,36.22,19.85l21.408,35.23c7.445,12.252,10.99,51.756,2.949,62.8-20.272,25.873-45.629,31.869-84.035,40.69-14.947,0-25.137-.522-44.349-16.5s-27.148-23.7-32.5-47.4-5.352-40.885,0-59.59S46.694,0,61.642,0Z" transform="matrix(0.97, -0.26, 0.26, 0.97, 386.89, 316.32)" fill="#ffefef"/>
        </g>
        <g transform="matrix(1, 0, 0, 1, 0, -248)" filter="url(#Path_8197)">
          <path id="Path_8197-2" data-name="Path 8197" d="M114.169,3.981c15.256,0,34.625,15.687,49.329,41.159s10.419,47.48-1.913,77.481-32.16,42.523-47.416,42.523H70.608c-15.256,0-43.669-1.061-51.286-14.279,0,0-16.559-23.1-18.442-45S-.842,63.475,11.4,37.009,34.605,0,49.861,0Z" transform="translate(280.47 460.4) rotate(90)" fill="#ffefef"/>
        </g>
        <g transform="matrix(1, 0, 0, 1, 0, -248)" filter="url(#Path_8199)">
          <path id="Path_8199-2" data-name="Path 8199" d="M100.423,6.245c14.175,0,27.272-2.254,34.35,10.027l20.3,45.053a39.645,39.645,0,0,1,0,39.589l-20.3,35.23a39.645,39.645,0,0,1-34.35,19.85L69.6,165.966c-14.175,0-36.923-17.539-44-29.821L5.3,100.915c-7.061-12.252-7.061-44.187,0-56.439L25.6,26.1C32.675,13.814,42.409,0,56.584,0Z" transform="translate(876.14 488.13) rotate(90)" fill="#ffefef"/>
        </g>
        <path id="Path_14261" data-name="Path 14261" d="M-73.1-5.859a2.747,2.747,0,0,0-1.055-2.312,12.689,12.689,0,0,0-3.8-1.641,18.372,18.372,0,0,1-4.375-1.844,5.838,5.838,0,0,1-3.109-5.094A5.543,5.543,0,0,1-83.2-21.281a9.075,9.075,0,0,1,5.82-1.781,9.831,9.831,0,0,1,4.234.875A6.95,6.95,0,0,1-70.227-19.7a6.392,6.392,0,0,1,1.063,3.586H-73.1A3.565,3.565,0,0,0-74.219-18.9a4.611,4.611,0,0,0-3.2-1.008,4.816,4.816,0,0,0-3.008.828,2.758,2.758,0,0,0-1.07,2.313,2.494,2.494,0,0,0,1.156,2.086,13.32,13.32,0,0,0,3.813,1.625,17.537,17.537,0,0,1,4.266,1.8A6.785,6.785,0,0,1-69.9-8.945a6.023,6.023,0,0,1,.75,3.055,5.414,5.414,0,0,1-2.18,4.523A9.454,9.454,0,0,1-77.242.313,11.113,11.113,0,0,1-81.781-.6,7.625,7.625,0,0,1-85-3.125a6.289,6.289,0,0,1-1.148-3.75H-82.2a3.68,3.68,0,0,0,1.281,3,5.611,5.611,0,0,0,3.672,1.063,4.875,4.875,0,0,0,3.1-.836A2.7,2.7,0,0,0-73.1-5.859ZM-62.008,0h-3.8V-24h3.8ZM-50.43.313a7.855,7.855,0,0,1-5.852-2.273,8.247,8.247,0,0,1-2.242-6.055v-.469a10.145,10.145,0,0,1,.977-4.523,7.433,7.433,0,0,1,2.742-3.1,7.25,7.25,0,0,1,3.938-1.109,6.636,6.636,0,0,1,5.336,2.2,9.316,9.316,0,0,1,1.883,6.234V-7.25H-54.7a5.077,5.077,0,0,0,1.4,3.313,4.2,4.2,0,0,0,3.086,1.219,5.141,5.141,0,0,0,4.25-2.109l2.047,1.953A6.835,6.835,0,0,1-46.625-.523,8.487,8.487,0,0,1-50.43.313Zm-.453-14.484a3.2,3.2,0,0,0-2.523,1.094,5.669,5.669,0,0,0-1.227,3.047H-47.4v-.281A4.615,4.615,0,0,0-48.414-13.2,3.173,3.173,0,0,0-50.883-14.172ZM-33.258.313a7.855,7.855,0,0,1-5.852-2.273,8.247,8.247,0,0,1-2.242-6.055v-.469a10.145,10.145,0,0,1,.977-4.523,7.433,7.433,0,0,1,2.742-3.1A7.25,7.25,0,0,1-33.7-17.219a6.636,6.636,0,0,1,5.336,2.2,9.316,9.316,0,0,1,1.883,6.234V-7.25H-37.523a5.077,5.077,0,0,0,1.4,3.313,4.2,4.2,0,0,0,3.086,1.219,5.141,5.141,0,0,0,4.25-2.109l2.047,1.953A6.835,6.835,0,0,1-29.453-.523,8.487,8.487,0,0,1-33.258.313Zm-.453-14.484a3.2,3.2,0,0,0-2.523,1.094,5.669,5.669,0,0,0-1.227,3.047h7.234v-.281A4.615,4.615,0,0,0-31.242-13.2,3.173,3.173,0,0,0-33.711-14.172ZM-8.727-8.281a10.066,10.066,0,0,1-1.781,6.258A5.7,5.7,0,0,1-15.289.313a5.743,5.743,0,0,1-4.453-1.828V6.5h-3.8V-16.906h3.5l.156,1.719a5.577,5.577,0,0,1,4.547-2.031,5.763,5.763,0,0,1,4.852,2.3,10.335,10.335,0,0,1,1.758,6.4Zm-3.781-.328a7.051,7.051,0,0,0-1.008-4.016A3.276,3.276,0,0,0-16.4-14.109a3.494,3.494,0,0,0-3.344,1.922v7.5a3.526,3.526,0,0,0,3.375,1.969A3.273,3.273,0,0,0-13.531-4.18,7.762,7.762,0,0,0-12.508-8.609ZM3.961-4.594a1.721,1.721,0,0,0-.836-1.547A8.891,8.891,0,0,0,.352-7.078,14.257,14.257,0,0,1-2.883-8.109q-2.844-1.375-2.844-3.984A4.5,4.5,0,0,1-3.883-15.75,7.289,7.289,0,0,1,.8-17.219a7.584,7.584,0,0,1,4.9,1.5A4.76,4.76,0,0,1,7.57-11.828h-3.8a2.34,2.34,0,0,0-.812-1.82A3.114,3.114,0,0,0,.8-14.375a3.365,3.365,0,0,0-2.039.578,1.823,1.823,0,0,0-.789,1.547,1.539,1.539,0,0,0,.734,1.359,10.1,10.1,0,0,0,2.969.977A14.053,14.053,0,0,1,5.188-8.742,4.967,4.967,0,0,1,7.078-7.109,4.164,4.164,0,0,1,7.7-4.8,4.4,4.4,0,0,1,5.8-1.1,8.062,8.062,0,0,1,.852.313a8.742,8.742,0,0,1-3.7-.75A6.1,6.1,0,0,1-5.383-2.5a4.882,4.882,0,0,1-.906-2.828H-2.6a2.675,2.675,0,0,0,1.016,2.07A3.946,3.946,0,0,0,.9-2.531,3.84,3.84,0,0,0,3.18-3.1,1.765,1.765,0,0,0,3.961-4.594ZM29.07,0a5.86,5.86,0,0,1-.437-1.578A5.91,5.91,0,0,1,24.2.313a5.965,5.965,0,0,1-4.156-1.453A4.649,4.649,0,0,1,18.43-4.734a4.8,4.8,0,0,1,2.008-4.148,9.73,9.73,0,0,1,5.742-1.445h2.328v-1.109a2.961,2.961,0,0,0-.734-2.1,2.911,2.911,0,0,0-2.234-.789,3.344,3.344,0,0,0-2.125.648,2.007,2.007,0,0,0-.828,1.648h-3.8a4.214,4.214,0,0,1,.922-2.6,6.142,6.142,0,0,1,2.508-1.9,8.809,8.809,0,0,1,3.539-.687,7.094,7.094,0,0,1,4.734,1.492,5.321,5.321,0,0,1,1.813,4.2v7.625a8.642,8.642,0,0,0,.641,3.641V0ZM24.9-2.734a4.319,4.319,0,0,0,2.117-.547A3.654,3.654,0,0,0,28.508-4.75V-7.937H26.461a5.6,5.6,0,0,0-3.172.734,2.379,2.379,0,0,0-1.062,2.078,2.219,2.219,0,0,0,.727,1.742A2.813,2.813,0,0,0,24.9-2.734ZM48.289,0h-3.8V-24h3.8Zm3.422-8.609a9.969,9.969,0,0,1,.984-4.477,7.189,7.189,0,0,1,2.766-3.062,7.792,7.792,0,0,1,4.094-1.07,7.385,7.385,0,0,1,5.555,2.2,8.665,8.665,0,0,1,2.3,5.844l.016.891a10.058,10.058,0,0,1-.961,4.469,7.1,7.1,0,0,1-2.75,3.047A7.85,7.85,0,0,1,59.586.313,7.334,7.334,0,0,1,53.859-2.07a9.126,9.126,0,0,1-2.148-6.352Zm3.8.328A6.812,6.812,0,0,0,56.586-4.2a3.5,3.5,0,0,0,3,1.477,3.467,3.467,0,0,0,2.992-1.5,7.524,7.524,0,0,0,1.07-4.391,6.724,6.724,0,0,0-1.1-4.062,3.517,3.517,0,0,0-2.992-1.5A3.485,3.485,0,0,0,56.6-12.7,7.382,7.382,0,0,0,55.508-8.281ZM75.4-21.016v4.109h2.984v2.813H75.4v9.438a2.078,2.078,0,0,0,.383,1.4,1.775,1.775,0,0,0,1.367.43,5.849,5.849,0,0,0,1.328-.156V-.047a9.351,9.351,0,0,1-2.5.359Q71.6.313,71.6-4.516v-9.578H68.82v-2.812H71.6v-4.109ZM-82.867,28.391a9.969,9.969,0,0,1,.984-4.477,7.189,7.189,0,0,1,2.766-3.062,7.792,7.792,0,0,1,4.094-1.07,7.385,7.385,0,0,1,5.555,2.2,8.665,8.665,0,0,1,2.3,5.844l.016.891a10.058,10.058,0,0,1-.961,4.469,7.1,7.1,0,0,1-2.75,3.047,7.85,7.85,0,0,1-4.133,1.078,7.334,7.334,0,0,1-5.727-2.383,9.126,9.126,0,0,1-2.148-6.352Zm3.8.328A6.812,6.812,0,0,0-77.992,32.8a3.5,3.5,0,0,0,3,1.477A3.467,3.467,0,0,0-72,32.781a7.524,7.524,0,0,0,1.07-4.391,6.724,6.724,0,0,0-1.1-4.062,3.517,3.517,0,0,0-2.992-1.5A3.485,3.485,0,0,0-77.977,24.3,7.382,7.382,0,0,0-79.07,28.719Zm23.984-5.156a9.4,9.4,0,0,0-1.547-.125,3.483,3.483,0,0,0-3.516,2V37h-3.8V20.094h3.625l.094,1.891a4.278,4.278,0,0,1,3.813-2.2A3.554,3.554,0,0,1-55.07,20Zm16.328,8.625,3.578-12.094h3.922L-37.117,37h-3.3L-46.32,20.094h3.938Zm17.313,5.125A7.855,7.855,0,0,1-27.3,35.039a8.247,8.247,0,0,1-2.242-6.055v-.469a10.145,10.145,0,0,1,.977-4.523,7.433,7.433,0,0,1,2.742-3.1,7.25,7.25,0,0,1,3.938-1.109,6.636,6.636,0,0,1,5.336,2.2,9.316,9.316,0,0,1,1.883,6.234V29.75H-25.711a5.077,5.077,0,0,0,1.4,3.313,4.2,4.2,0,0,0,3.086,1.219,5.141,5.141,0,0,0,4.25-2.109l2.047,1.953a6.835,6.835,0,0,1-2.711,2.352A8.487,8.487,0,0,1-21.445,37.313ZM-21.9,22.828a3.2,3.2,0,0,0-2.523,1.094,5.669,5.669,0,0,0-1.227,3.047h7.234v-.281A4.615,4.615,0,0,0-19.43,23.8,3.173,3.173,0,0,0-21.9,22.828Zm19.031.734a9.4,9.4,0,0,0-1.547-.125,3.483,3.483,0,0,0-3.516,2V37h-3.8V20.094H-8.1l.094,1.891a4.278,4.278,0,0,1,3.813-2.2A3.554,3.554,0,0,1-2.852,20Zm8.313,8L8.883,20.094H12.93L6.211,39.563Q4.664,43.828.961,43.828a6.769,6.769,0,0,1-1.828-.283V40.594l.719.047a3.7,3.7,0,0,0,2.164-.523,3.467,3.467,0,0,0,1.148-1.756l.547-1.452L-2.227,20.094H1.867ZM27.117,37h-3.8V13h3.8Zm8.172,0h-3.8V20.094h3.8ZM31.258,15.7a2.015,2.015,0,0,1,.555-1.453,2.1,2.1,0,0,1,1.586-.578,2.122,2.122,0,0,1,1.594.578,2,2,0,0,1,.563,1.453,1.953,1.953,0,0,1-.562,1.43,2.138,2.138,0,0,1-1.594.57,2.111,2.111,0,0,1-1.586-.57A1.968,1.968,0,0,1,31.258,15.7Zm12.922.281v4.109h2.984v2.813H44.18v9.438a2.078,2.078,0,0,0,.383,1.4,1.775,1.775,0,0,0,1.367.43,5.849,5.849,0,0,0,1.328-.156v2.938a9.351,9.351,0,0,1-2.5.359q-4.375,0-4.375-4.828V22.906H37.6V20.094h2.781V15.984Zm10.641,0v4.109H57.8v2.813H54.82v9.438a2.078,2.078,0,0,0,.383,1.4,1.775,1.775,0,0,0,1.367.43,5.849,5.849,0,0,0,1.328-.156v2.938a9.351,9.351,0,0,1-2.5.359q-4.375,0-4.375-4.828V22.906H48.242V20.094h2.781V15.984ZM64.742,37h-3.8V13h3.8Zm11.578.313a7.855,7.855,0,0,1-5.852-2.273,8.247,8.247,0,0,1-2.242-6.055v-.469a10.145,10.145,0,0,1,.977-4.523,7.433,7.433,0,0,1,2.742-3.1,7.25,7.25,0,0,1,3.938-1.109,6.636,6.636,0,0,1,5.336,2.2A9.316,9.316,0,0,1,83.1,28.219V29.75H72.055a5.077,5.077,0,0,0,1.4,3.313,4.2,4.2,0,0,0,3.086,1.219,5.141,5.141,0,0,0,4.25-2.109l2.047,1.953a6.835,6.835,0,0,1-2.711,2.352A8.487,8.487,0,0,1,76.32,37.313Zm-.453-14.484a3.2,3.2,0,0,0-2.523,1.094,5.669,5.669,0,0,0-1.227,3.047h7.234v-.281A4.615,4.615,0,0,0,78.336,23.8,3.173,3.173,0,0,0,75.867,22.828Z" transform="translate(149 794)" opacity="0.7"/>
        <path id="Path_14260" data-name="Path 14260" d="M-85.289,0V-22.75h6.719a10.538,10.538,0,0,1,5.352,1.344A9.162,9.162,0,0,1-69.6-17.594a12.1,12.1,0,0,1,1.281,5.656V-10.8a12.052,12.052,0,0,1-1.289,5.688,9.052,9.052,0,0,1-3.672,3.781A11.027,11.027,0,0,1-78.742,0Zm3.953-19.562V-3.156h2.578A5.936,5.936,0,0,0-73.984-5.1a8.474,8.474,0,0,0,1.7-5.586v-1.266A8.7,8.7,0,0,0-73.9-17.609a5.706,5.706,0,0,0-4.672-1.953ZM-65.461-8.609a9.969,9.969,0,0,1,.984-4.477,7.189,7.189,0,0,1,2.766-3.062,7.792,7.792,0,0,1,4.094-1.07,7.385,7.385,0,0,1,5.555,2.2,8.665,8.665,0,0,1,2.3,5.844l.016.891A10.058,10.058,0,0,1-50.7-3.812a7.1,7.1,0,0,1-2.75,3.047A7.85,7.85,0,0,1-57.586.313,7.334,7.334,0,0,1-63.312-2.07a9.126,9.126,0,0,1-2.148-6.352Zm3.8.328A6.812,6.812,0,0,0-60.586-4.2a3.5,3.5,0,0,0,3,1.477,3.467,3.467,0,0,0,2.992-1.5,7.524,7.524,0,0,0,1.07-4.391,6.724,6.724,0,0,0-1.1-4.062,3.517,3.517,0,0,0-2.992-1.5A3.485,3.485,0,0,0-60.57-12.7,7.382,7.382,0,0,0-61.664-8.281ZM-39.086.313a7.855,7.855,0,0,1-5.852-2.273A8.247,8.247,0,0,1-47.18-8.016v-.469a10.145,10.145,0,0,1,.977-4.523,7.433,7.433,0,0,1,2.742-3.1,7.25,7.25,0,0,1,3.938-1.109,6.636,6.636,0,0,1,5.336,2.2A9.316,9.316,0,0,1-32.3-8.781V-7.25H-43.352a5.077,5.077,0,0,0,1.4,3.313,4.2,4.2,0,0,0,3.086,1.219,5.141,5.141,0,0,0,4.25-2.109l2.047,1.953A6.835,6.835,0,0,1-35.281-.523,8.487,8.487,0,0,1-39.086.313Zm-.453-14.484a3.2,3.2,0,0,0-2.523,1.094,5.669,5.669,0,0,0-1.227,3.047h7.234v-.281A4.615,4.615,0,0,0-37.07-13.2,3.173,3.173,0,0,0-39.539-14.172Zm19.656,9.578a1.721,1.721,0,0,0-.836-1.547,8.891,8.891,0,0,0-2.773-.937,14.257,14.257,0,0,1-3.234-1.031q-2.844-1.375-2.844-3.984a4.5,4.5,0,0,1,1.844-3.656,7.289,7.289,0,0,1,4.688-1.469,7.584,7.584,0,0,1,4.9,1.5,4.76,4.76,0,0,1,1.867,3.891h-3.8a2.34,2.34,0,0,0-.812-1.82,3.114,3.114,0,0,0-2.156-.727,3.365,3.365,0,0,0-2.039.578,1.823,1.823,0,0,0-.789,1.547,1.539,1.539,0,0,0,.734,1.359,10.1,10.1,0,0,0,2.969.977,14.053,14.053,0,0,1,3.508,1.172,4.967,4.967,0,0,1,1.891,1.633A4.164,4.164,0,0,1-16.148-4.8a4.4,4.4,0,0,1-1.891,3.7A8.062,8.062,0,0,1-22.992.313a8.742,8.742,0,0,1-3.7-.75A6.1,6.1,0,0,1-29.227-2.5a4.882,4.882,0,0,1-.906-2.828h3.688a2.675,2.675,0,0,0,1.016,2.07,3.946,3.946,0,0,0,2.484.727,3.84,3.84,0,0,0,2.281-.57A1.765,1.765,0,0,0-19.883-4.594ZM-9.32-16.906l.109,1.953a6.079,6.079,0,0,1,4.922-2.266q5.281,0,5.375,6.047V0h-3.8V-10.953a3.482,3.482,0,0,0-.7-2.383,2.925,2.925,0,0,0-2.273-.773A3.659,3.659,0,0,0-9.1-12.031V0h-3.8V-16.906ZM5.93-22.047l-.406,6.109H3.039V-24H5.93Zm7.938,1.031v4.109h2.984v2.813H13.867v9.438a2.078,2.078,0,0,0,.383,1.4,1.775,1.775,0,0,0,1.367.43,5.849,5.849,0,0,0,1.328-.156V-.047a9.351,9.351,0,0,1-2.5.359q-4.375,0-4.375-4.828v-9.578H7.289v-2.812H10.07v-4.109ZM29.055,0V-14.094H26.477v-2.812h2.578v-1.547A5.807,5.807,0,0,1,30.617-22.8a5.985,5.985,0,0,1,4.375-1.531,8.775,8.775,0,0,1,2.125.281l-.094,2.969A7.479,7.479,0,0,0,35.57-21.2q-2.719,0-2.719,2.8v1.5h3.438v2.813H32.852V0ZM46.508.313a7.855,7.855,0,0,1-5.852-2.273,8.247,8.247,0,0,1-2.242-6.055v-.469a10.145,10.145,0,0,1,.977-4.523,7.433,7.433,0,0,1,2.742-3.1,7.25,7.25,0,0,1,3.938-1.109,6.636,6.636,0,0,1,5.336,2.2,9.316,9.316,0,0,1,1.883,6.234V-7.25H42.242a5.077,5.077,0,0,0,1.4,3.313,4.2,4.2,0,0,0,3.086,1.219,5.141,5.141,0,0,0,4.25-2.109l2.047,1.953A6.835,6.835,0,0,1,50.313-.523,8.487,8.487,0,0,1,46.508.313Zm-.453-14.484a3.2,3.2,0,0,0-2.523,1.094A5.669,5.669,0,0,0,42.3-10.031h7.234v-.281A4.615,4.615,0,0,0,48.523-13.2,3.173,3.173,0,0,0,46.055-14.172ZM63.68.313a7.855,7.855,0,0,1-5.852-2.273,8.247,8.247,0,0,1-2.242-6.055v-.469a10.145,10.145,0,0,1,.977-4.523,7.433,7.433,0,0,1,2.742-3.1,7.25,7.25,0,0,1,3.938-1.109,6.636,6.636,0,0,1,5.336,2.2,9.316,9.316,0,0,1,1.883,6.234V-7.25H59.414a5.077,5.077,0,0,0,1.4,3.313A4.2,4.2,0,0,0,63.9-2.719a5.141,5.141,0,0,0,4.25-2.109L70.2-2.875A6.835,6.835,0,0,1,67.484-.523,8.487,8.487,0,0,1,63.68.313Zm-.453-14.484A3.2,3.2,0,0,0,60.7-13.078a5.669,5.669,0,0,0-1.227,3.047h7.234v-.281A4.615,4.615,0,0,0,65.7-13.2,3.173,3.173,0,0,0,63.227-14.172ZM77.445,0h-3.8V-24h3.8ZM-80.141,44h-3.8V20h3.8Zm8.172,0h-3.8V27.094h3.8ZM-76,22.7a2.015,2.015,0,0,1,.555-1.453,2.1,2.1,0,0,1,1.586-.578,2.122,2.122,0,0,1,1.594.578A2,2,0,0,1-71.7,22.7a1.953,1.953,0,0,1-.562,1.43,2.138,2.138,0,0,1-1.594.57,2.111,2.111,0,0,1-1.586-.57A1.968,1.968,0,0,1-76,22.7ZM-62.344,36.75l-1.687,1.734V44h-3.8V20h3.8V33.844l1.188-1.484,4.672-5.266h4.563l-6.281,7.047L-52.937,44h-4.391Zm18.656,7.563a7.855,7.855,0,0,1-5.852-2.273,8.247,8.247,0,0,1-2.242-6.055v-.469a10.145,10.145,0,0,1,.977-4.523,7.433,7.433,0,0,1,2.742-3.1,7.25,7.25,0,0,1,3.938-1.109,6.636,6.636,0,0,1,5.336,2.2,9.316,9.316,0,0,1,1.883,6.234V36.75H-47.953a5.077,5.077,0,0,0,1.4,3.313,4.2,4.2,0,0,0,3.086,1.219,5.141,5.141,0,0,0,4.25-2.109l2.047,1.953a6.835,6.835,0,0,1-2.711,2.352A8.487,8.487,0,0,1-43.687,44.313Zm-.453-14.484a3.2,3.2,0,0,0-2.523,1.094,5.669,5.669,0,0,0-1.227,3.047h7.234v-.281A4.615,4.615,0,0,0-41.672,30.8,3.173,3.173,0,0,0-44.141,29.828Zm33,8.938,2.688-11.672h3.7L-9.359,44h-3.125l-3.625-11.609L-19.672,44H-22.8l-4.625-16.906h3.7l2.734,11.547,3.469-11.547h2.859Zm8.219-3.375a9.969,9.969,0,0,1,.984-4.477A7.189,7.189,0,0,1,.828,27.852a7.792,7.792,0,0,1,4.094-1.07,7.385,7.385,0,0,1,5.555,2.2,8.665,8.665,0,0,1,2.3,5.844l.016.891a10.058,10.058,0,0,1-.961,4.469,7.1,7.1,0,0,1-2.75,3.047,7.85,7.85,0,0,1-4.133,1.078A7.334,7.334,0,0,1-.773,41.93a9.126,9.126,0,0,1-2.148-6.352Zm3.8.328A6.812,6.812,0,0,0,1.953,39.8a3.5,3.5,0,0,0,3,1.477,3.467,3.467,0,0,0,2.992-1.5,7.524,7.524,0,0,0,1.07-4.391,6.724,6.724,0,0,0-1.1-4.062,3.517,3.517,0,0,0-2.992-1.5A3.485,3.485,0,0,0,1.969,31.3,7.382,7.382,0,0,0,.875,35.719Zm23.984-5.156a9.4,9.4,0,0,0-1.547-.125,3.483,3.483,0,0,0-3.516,2V44H16V27.094h3.625l.094,1.891a4.278,4.278,0,0,1,3.813-2.2A3.554,3.554,0,0,1,24.875,27ZM32.75,36.75l-1.687,1.734V44h-3.8V20h3.8V33.844l1.188-1.484,4.672-5.266h4.563L35.2,34.141,42.156,44H37.766ZM48,44H44.2V27.094H48ZM43.969,22.7a2.015,2.015,0,0,1,.555-1.453,2.1,2.1,0,0,1,1.586-.578,2.122,2.122,0,0,1,1.594.578,2,2,0,0,1,.563,1.453,1.953,1.953,0,0,1-.562,1.43,2.138,2.138,0,0,1-1.594.57,2.111,2.111,0,0,1-1.586-.57A1.968,1.968,0,0,1,43.969,22.7Zm11.688,4.391.109,1.953a6.079,6.079,0,0,1,4.922-2.266q5.281,0,5.375,6.047V44h-3.8V33.047a3.482,3.482,0,0,0-.7-2.383,2.925,2.925,0,0,0-2.273-.773,3.659,3.659,0,0,0-3.422,2.078V44h-3.8V27.094Zm13.609,8.328a9.888,9.888,0,0,1,1.852-6.289,5.943,5.943,0,0,1,4.914-2.352A5.567,5.567,0,0,1,80.578,28.8l.172-1.7h3.422V43.484a6.813,6.813,0,0,1-2.07,5.25,7.886,7.886,0,0,1-5.586,1.922,9,9,0,0,1-3.633-.773,6.455,6.455,0,0,1-2.7-2.023l1.8-2.281A5.427,5.427,0,0,0,76.3,47.656a4.194,4.194,0,0,0,2.984-1.023,3.922,3.922,0,0,0,1.094-3.008V42.484A5.59,5.59,0,0,1,76,44.313a5.929,5.929,0,0,1-4.852-2.359A10.208,10.208,0,0,1,69.266,35.422Zm3.781.328a6.806,6.806,0,0,0,1.039,4.008,3.341,3.341,0,0,0,2.883,1.461,3.654,3.654,0,0,0,3.406-1.969V31.813A3.6,3.6,0,0,0,77,29.891a3.354,3.354,0,0,0-2.914,1.484A7.621,7.621,0,0,0,73.047,35.75Z" transform="translate(827 802)" opacity="0.7"/>
        <path id="Path_14257" data-name="Path 14257" d="M-81.758,0V-22.75h6.719a10.538,10.538,0,0,1,5.352,1.344,9.162,9.162,0,0,1,3.617,3.813,12.1,12.1,0,0,1,1.281,5.656V-10.8a12.052,12.052,0,0,1-1.289,5.688A9.052,9.052,0,0,1-69.75-1.328,11.027,11.027,0,0,1-75.211,0ZM-77.8-19.562V-3.156h2.578A5.936,5.936,0,0,0-70.453-5.1a8.474,8.474,0,0,0,1.7-5.586v-1.266a8.7,8.7,0,0,0-1.609-5.656,5.706,5.706,0,0,0-4.672-1.953ZM-61.93-8.609a9.969,9.969,0,0,1,.984-4.477,7.189,7.189,0,0,1,2.766-3.062,7.792,7.792,0,0,1,4.094-1.07,7.385,7.385,0,0,1,5.555,2.2,8.665,8.665,0,0,1,2.3,5.844l.016.891a10.058,10.058,0,0,1-.961,4.469,7.1,7.1,0,0,1-2.75,3.047A7.85,7.85,0,0,1-54.055.313,7.334,7.334,0,0,1-59.781-2.07,9.126,9.126,0,0,1-61.93-8.422Zm3.8.328A6.812,6.812,0,0,0-57.055-4.2a3.5,3.5,0,0,0,3,1.477,3.467,3.467,0,0,0,2.992-1.5,7.524,7.524,0,0,0,1.07-4.391,6.724,6.724,0,0,0-1.1-4.062,3.517,3.517,0,0,0-2.992-1.5A3.485,3.485,0,0,0-57.039-12.7,7.382,7.382,0,0,0-58.133-8.281ZM-35.555.313a7.855,7.855,0,0,1-5.852-2.273,8.247,8.247,0,0,1-2.242-6.055v-.469a10.145,10.145,0,0,1,.977-4.523,7.433,7.433,0,0,1,2.742-3.1,7.25,7.25,0,0,1,3.938-1.109,6.636,6.636,0,0,1,5.336,2.2,9.316,9.316,0,0,1,1.883,6.234V-7.25H-39.82a5.077,5.077,0,0,0,1.4,3.313,4.2,4.2,0,0,0,3.086,1.219,5.141,5.141,0,0,0,4.25-2.109l2.047,1.953A6.835,6.835,0,0,1-31.75-.523,8.487,8.487,0,0,1-35.555.313Zm-.453-14.484a3.2,3.2,0,0,0-2.523,1.094,5.669,5.669,0,0,0-1.227,3.047h7.234v-.281A4.615,4.615,0,0,0-33.539-13.2,3.173,3.173,0,0,0-36.008-14.172Zm19.656,9.578a1.721,1.721,0,0,0-.836-1.547,8.891,8.891,0,0,0-2.773-.937A14.257,14.257,0,0,1-23.2-8.109q-2.844-1.375-2.844-3.984A4.5,4.5,0,0,1-24.2-15.75a7.289,7.289,0,0,1,4.688-1.469,7.584,7.584,0,0,1,4.9,1.5,4.76,4.76,0,0,1,1.867,3.891h-3.8a2.34,2.34,0,0,0-.812-1.82,3.114,3.114,0,0,0-2.156-.727,3.365,3.365,0,0,0-2.039.578,1.823,1.823,0,0,0-.789,1.547,1.539,1.539,0,0,0,.734,1.359,10.1,10.1,0,0,0,2.969.977,14.053,14.053,0,0,1,3.508,1.172,4.967,4.967,0,0,1,1.891,1.633A4.164,4.164,0,0,1-12.617-4.8a4.4,4.4,0,0,1-1.891,3.7A8.062,8.062,0,0,1-19.461.313a8.742,8.742,0,0,1-3.7-.75A6.1,6.1,0,0,1-25.7-2.5,4.882,4.882,0,0,1-26.6-5.328h3.688A2.675,2.675,0,0,0-21.9-3.258a3.946,3.946,0,0,0,2.484.727,3.84,3.84,0,0,0,2.281-.57A1.765,1.765,0,0,0-16.352-4.594ZM-5.789-16.906l.109,1.953A6.079,6.079,0,0,1-.758-17.219q5.281,0,5.375,6.047V0H.82V-10.953a3.482,3.482,0,0,0-.7-2.383,2.925,2.925,0,0,0-2.273-.773A3.659,3.659,0,0,0-5.57-12.031V0h-3.8V-16.906ZM7.4-16,5.461-17.2a7.811,7.811,0,0,0,1.453-4.328V-24h3.328v2.156a7.174,7.174,0,0,1-.82,3.242A7.725,7.725,0,0,1,7.4-16ZM18.3-21.016v4.109h2.984v2.813H18.3v9.438a2.078,2.078,0,0,0,.383,1.4,1.775,1.775,0,0,0,1.367.43,5.849,5.849,0,0,0,1.328-.156V-.047a9.351,9.351,0,0,1-2.5.359q-4.375,0-4.375-4.828v-9.578H11.727v-2.812h2.781v-4.109ZM33.492,0V-14.094H30.914v-2.812h2.578v-1.547A5.807,5.807,0,0,1,35.055-22.8a5.985,5.985,0,0,1,4.375-1.531,8.775,8.775,0,0,1,2.125.281l-.094,2.969a7.479,7.479,0,0,0-1.453-.125q-2.719,0-2.719,2.8v1.5h3.438v2.813H37.289V0ZM50.945.313a7.855,7.855,0,0,1-5.852-2.273,8.247,8.247,0,0,1-2.242-6.055v-.469a10.145,10.145,0,0,1,.977-4.523,7.433,7.433,0,0,1,2.742-3.1,7.25,7.25,0,0,1,3.938-1.109,6.636,6.636,0,0,1,5.336,2.2,9.316,9.316,0,0,1,1.883,6.234V-7.25H46.68a5.077,5.077,0,0,0,1.4,3.313,4.2,4.2,0,0,0,3.086,1.219,5.141,5.141,0,0,0,4.25-2.109l2.047,1.953A6.835,6.835,0,0,1,54.75-.523,8.487,8.487,0,0,1,50.945.313Zm-.453-14.484a3.2,3.2,0,0,0-2.523,1.094,5.669,5.669,0,0,0-1.227,3.047h7.234v-.281A4.615,4.615,0,0,0,52.961-13.2,3.173,3.173,0,0,0,50.492-14.172ZM68.117.313a7.855,7.855,0,0,1-5.852-2.273,8.247,8.247,0,0,1-2.242-6.055v-.469A10.145,10.145,0,0,1,61-13.008a7.433,7.433,0,0,1,2.742-3.1,7.25,7.25,0,0,1,3.938-1.109,6.636,6.636,0,0,1,5.336,2.2A9.316,9.316,0,0,1,74.9-8.781V-7.25H63.852a5.077,5.077,0,0,0,1.4,3.313,4.2,4.2,0,0,0,3.086,1.219,5.141,5.141,0,0,0,4.25-2.109l2.047,1.953A6.835,6.835,0,0,1,71.922-.523,8.487,8.487,0,0,1,68.117.313Zm-.453-14.484a3.2,3.2,0,0,0-2.523,1.094,5.669,5.669,0,0,0-1.227,3.047h7.234v-.281A4.615,4.615,0,0,0,70.133-13.2,3.173,3.173,0,0,0,67.664-14.172ZM81.883,0h-3.8V-24h3.8ZM-67.727,37h-3.8V13h3.8Zm8.172,0h-3.8V20.094h3.8Zm-4.031-21.3a2.015,2.015,0,0,1,.555-1.453,2.1,2.1,0,0,1,1.586-.578,2.122,2.122,0,0,1,1.594.578,2,2,0,0,1,.563,1.453,1.953,1.953,0,0,1-.562,1.43,2.138,2.138,0,0,1-1.594.57,2.111,2.111,0,0,1-1.586-.57A1.968,1.968,0,0,1-63.586,15.7ZM-49.93,29.75l-1.687,1.734V37h-3.8V13h3.8V26.844l1.188-1.484,4.672-5.266H-41.2l-6.281,7.047L-40.523,37h-4.391Zm18.656,7.563a7.855,7.855,0,0,1-5.852-2.273,8.247,8.247,0,0,1-2.242-6.055v-.469a10.145,10.145,0,0,1,.977-4.523,7.433,7.433,0,0,1,2.742-3.1,7.25,7.25,0,0,1,3.938-1.109,6.636,6.636,0,0,1,5.336,2.2,9.316,9.316,0,0,1,1.883,6.234V29.75H-35.539a5.077,5.077,0,0,0,1.4,3.313,4.2,4.2,0,0,0,3.086,1.219,5.141,5.141,0,0,0,4.25-2.109l2.047,1.953a6.835,6.835,0,0,1-2.711,2.352A8.487,8.487,0,0,1-31.273,37.313Zm-.453-14.484a3.2,3.2,0,0,0-2.523,1.094,5.669,5.669,0,0,0-1.227,3.047h7.234v-.281A4.615,4.615,0,0,0-29.258,23.8,3.173,3.173,0,0,0-31.727,22.828ZM-6.133,37.313a7.855,7.855,0,0,1-5.852-2.273,8.247,8.247,0,0,1-2.242-6.055v-.469a10.145,10.145,0,0,1,.977-4.523,7.433,7.433,0,0,1,2.742-3.1A7.25,7.25,0,0,1-6.57,19.781a6.636,6.636,0,0,1,5.336,2.2A9.316,9.316,0,0,1,.648,28.219V29.75H-10.4A5.077,5.077,0,0,0-9,33.063a4.2,4.2,0,0,0,3.086,1.219,5.141,5.141,0,0,0,4.25-2.109L.383,34.125a6.835,6.835,0,0,1-2.711,2.352A8.487,8.487,0,0,1-6.133,37.313Zm-.453-14.484a3.2,3.2,0,0,0-2.523,1.094,5.669,5.669,0,0,0-1.227,3.047H-3.1v-.281A4.615,4.615,0,0,0-4.117,23.8,3.173,3.173,0,0,0-6.586,22.828ZM13.7,37a5.86,5.86,0,0,1-.437-1.578A5.91,5.91,0,0,1,8.82,37.313a5.965,5.965,0,0,1-4.156-1.453,4.649,4.649,0,0,1-1.609-3.594,4.8,4.8,0,0,1,2.008-4.148A9.73,9.73,0,0,1,10.8,26.672h2.328V25.563a2.961,2.961,0,0,0-.734-2.1,2.911,2.911,0,0,0-2.234-.789,3.344,3.344,0,0,0-2.125.648,2.007,2.007,0,0,0-.828,1.648h-3.8a4.214,4.214,0,0,1,.922-2.6,6.142,6.142,0,0,1,2.508-1.9,8.809,8.809,0,0,1,3.539-.687,7.094,7.094,0,0,1,4.734,1.492,5.321,5.321,0,0,1,1.813,4.2v7.625a8.642,8.642,0,0,0,.641,3.641V37ZM9.523,34.266a4.319,4.319,0,0,0,2.117-.547,3.654,3.654,0,0,0,1.492-1.469V29.063H11.086a5.6,5.6,0,0,0-3.172.734,2.379,2.379,0,0,0-1.062,2.078,2.219,2.219,0,0,0,.727,1.742A2.813,2.813,0,0,0,9.523,34.266ZM25.664,15.984v4.109h2.984v2.813H25.664v9.438a2.078,2.078,0,0,0,.383,1.4,1.775,1.775,0,0,0,1.367.43,5.849,5.849,0,0,0,1.328-.156v2.938a9.351,9.351,0,0,1-2.5.359q-4.375,0-4.375-4.828V22.906H19.086V20.094h2.781V15.984ZM35.586,37h-3.8V20.094h3.8ZM31.555,15.7a2.015,2.015,0,0,1,.555-1.453,2.1,2.1,0,0,1,1.586-.578,2.122,2.122,0,0,1,1.594.578,2,2,0,0,1,.563,1.453,1.953,1.953,0,0,1-.562,1.43,2.138,2.138,0,0,1-1.594.57,2.111,2.111,0,0,1-1.586-.57A1.968,1.968,0,0,1,31.555,15.7Zm11.688,4.391.109,1.953a6.079,6.079,0,0,1,4.922-2.266q5.281,0,5.375,6.047V37h-3.8V26.047a3.482,3.482,0,0,0-.7-2.383,2.925,2.925,0,0,0-2.273-.773,3.659,3.659,0,0,0-3.422,2.078V37h-3.8V20.094Zm13.609,8.328A9.888,9.888,0,0,1,58.7,22.133a5.943,5.943,0,0,1,4.914-2.352A5.567,5.567,0,0,1,68.164,21.8l.172-1.7h3.422V36.484a6.813,6.813,0,0,1-2.07,5.25A7.886,7.886,0,0,1,64.1,43.656a9,9,0,0,1-3.633-.773,6.455,6.455,0,0,1-2.7-2.023l1.8-2.281a5.427,5.427,0,0,0,4.313,2.078,4.194,4.194,0,0,0,2.984-1.023,3.922,3.922,0,0,0,1.094-3.008V35.484a5.59,5.59,0,0,1-4.375,1.828,5.929,5.929,0,0,1-4.852-2.359A10.208,10.208,0,0,1,56.852,28.422Zm3.781.328a6.806,6.806,0,0,0,1.039,4.008,3.341,3.341,0,0,0,2.883,1.461,3.654,3.654,0,0,0,3.406-1.969V24.813a3.6,3.6,0,0,0-3.375-1.922,3.354,3.354,0,0,0-2.914,1.484A7.621,7.621,0,0,0,60.633,28.75Z" transform="translate(186 439)" opacity="0.7"/>
        <path id="Path_14259" data-name="Path 14259" d="M-63.5-9.641h-9.156V0h-3.953V-22.75h14.453v3.188h-10.5V-12.8H-63.5ZM-51.953.313A7.855,7.855,0,0,1-57.8-1.961a8.247,8.247,0,0,1-2.242-6.055v-.469a10.145,10.145,0,0,1,.977-4.523,7.433,7.433,0,0,1,2.742-3.1,7.25,7.25,0,0,1,3.938-1.109,6.636,6.636,0,0,1,5.336,2.2,9.316,9.316,0,0,1,1.883,6.234V-7.25H-56.219a5.077,5.077,0,0,0,1.4,3.313,4.2,4.2,0,0,0,3.086,1.219,5.141,5.141,0,0,0,4.25-2.109l2.047,1.953A6.835,6.835,0,0,1-48.148-.523,8.487,8.487,0,0,1-51.953.313Zm-.453-14.484a3.2,3.2,0,0,0-2.523,1.094,5.669,5.669,0,0,0-1.227,3.047h7.234v-.281A4.615,4.615,0,0,0-49.937-13.2,3.173,3.173,0,0,0-52.406-14.172ZM-34.781.313a7.855,7.855,0,0,1-5.852-2.273,8.247,8.247,0,0,1-2.242-6.055v-.469a10.145,10.145,0,0,1,.977-4.523,7.433,7.433,0,0,1,2.742-3.1,7.25,7.25,0,0,1,3.938-1.109,6.636,6.636,0,0,1,5.336,2.2A9.316,9.316,0,0,1-28-8.781V-7.25H-39.047a5.077,5.077,0,0,0,1.4,3.313,4.2,4.2,0,0,0,3.086,1.219,5.141,5.141,0,0,0,4.25-2.109l2.047,1.953A6.835,6.835,0,0,1-30.977-.523,8.487,8.487,0,0,1-34.781.313Zm-.453-14.484a3.2,3.2,0,0,0-2.523,1.094,5.669,5.669,0,0,0-1.227,3.047h7.234v-.281A4.615,4.615,0,0,0-32.766-13.2,3.173,3.173,0,0,0-35.234-14.172ZM-21.016,0h-3.8V-24h3.8ZM-7.406-4.594a1.721,1.721,0,0,0-.836-1.547,8.891,8.891,0,0,0-2.773-.937A14.257,14.257,0,0,1-14.25-8.109q-2.844-1.375-2.844-3.984A4.5,4.5,0,0,1-15.25-15.75a7.289,7.289,0,0,1,4.688-1.469,7.584,7.584,0,0,1,4.9,1.5A4.76,4.76,0,0,1-3.8-11.828h-3.8a2.34,2.34,0,0,0-.812-1.82,3.114,3.114,0,0,0-2.156-.727A3.365,3.365,0,0,0-12.6-13.8a1.823,1.823,0,0,0-.789,1.547,1.539,1.539,0,0,0,.734,1.359,10.1,10.1,0,0,0,2.969.977A14.053,14.053,0,0,1-6.18-8.742,4.967,4.967,0,0,1-4.289-7.109,4.164,4.164,0,0,1-3.672-4.8,4.4,4.4,0,0,1-5.562-1.1,8.062,8.062,0,0,1-10.516.313a8.742,8.742,0,0,1-3.7-.75A6.1,6.1,0,0,1-16.75-2.5a4.882,4.882,0,0,1-.906-2.828h3.688a2.675,2.675,0,0,0,1.016,2.07,3.946,3.946,0,0,0,2.484.727A3.84,3.84,0,0,0-8.187-3.1,1.765,1.765,0,0,0-7.406-4.594ZM12.359-21.016v4.109h2.984v2.813H12.359v9.438a2.078,2.078,0,0,0,.383,1.4,1.775,1.775,0,0,0,1.367.43,5.849,5.849,0,0,0,1.328-.156V-.047a9.351,9.351,0,0,1-2.5.359q-4.375,0-4.375-4.828v-9.578H5.781v-2.812H8.563v-4.109ZM22.281,0h-3.8V-16.906h3.8ZM18.25-21.3A2.015,2.015,0,0,1,18.8-22.75a2.1,2.1,0,0,1,1.586-.578,2.122,2.122,0,0,1,1.594.578,2,2,0,0,1,.563,1.453,1.953,1.953,0,0,1-.562,1.43,2.138,2.138,0,0,1-1.594.57,2.111,2.111,0,0,1-1.586-.57A1.968,1.968,0,0,1,18.25-21.3Zm17.016,7.859a9.4,9.4,0,0,0-1.547-.125,3.483,3.483,0,0,0-3.516,2V0h-3.8V-16.906h3.625l.094,1.891a4.278,4.278,0,0,1,3.813-2.2A3.554,3.554,0,0,1,35.281-17ZM45.109.313a7.855,7.855,0,0,1-5.852-2.273,8.247,8.247,0,0,1-2.242-6.055v-.469a10.145,10.145,0,0,1,.977-4.523,7.433,7.433,0,0,1,2.742-3.1,7.25,7.25,0,0,1,3.938-1.109,6.636,6.636,0,0,1,5.336,2.2,9.316,9.316,0,0,1,1.883,6.234V-7.25H40.844a5.077,5.077,0,0,0,1.4,3.313,4.2,4.2,0,0,0,3.086,1.219,5.141,5.141,0,0,0,4.25-2.109l2.047,1.953A6.835,6.835,0,0,1,48.914-.523,8.487,8.487,0,0,1,45.109.313Zm-.453-14.484a3.2,3.2,0,0,0-2.523,1.094,5.669,5.669,0,0,0-1.227,3.047h7.234v-.281A4.615,4.615,0,0,0,47.125-13.2,3.173,3.173,0,0,0,44.656-14.172Zm9.469,5.594a10.051,10.051,0,0,1,1.813-6.273A5.807,5.807,0,0,1,60.8-17.219a5.518,5.518,0,0,1,4.344,1.875V-24h3.8V0H65.5l-.187-1.75A5.6,5.6,0,0,1,60.766.313a5.775,5.775,0,0,1-4.8-2.391A10.419,10.419,0,0,1,54.125-8.578Zm3.8.328a7.037,7.037,0,0,0,.992,4.023,3.219,3.219,0,0,0,2.82,1.445,3.586,3.586,0,0,0,3.406-2.078v-7.219a3.531,3.531,0,0,0-3.375-2.031,3.243,3.243,0,0,0-2.844,1.461A7.837,7.837,0,0,0,57.922-8.25ZM-34.242,39a5.86,5.86,0,0,1-.437-1.578,5.91,5.91,0,0,1-4.437,1.891,5.965,5.965,0,0,1-4.156-1.453,4.649,4.649,0,0,1-1.609-3.594,4.8,4.8,0,0,1,2.008-4.148,9.73,9.73,0,0,1,5.742-1.445H-34.8V27.563a2.961,2.961,0,0,0-.734-2.1,2.911,2.911,0,0,0-2.234-.789,3.344,3.344,0,0,0-2.125.648,2.007,2.007,0,0,0-.828,1.648h-3.8a4.214,4.214,0,0,1,.922-2.6,6.142,6.142,0,0,1,2.508-1.9,8.809,8.809,0,0,1,3.539-.687,7.094,7.094,0,0,1,4.734,1.492,5.321,5.321,0,0,1,1.813,4.2v7.625a8.642,8.642,0,0,0,.641,3.641V39Zm-4.172-2.734a4.319,4.319,0,0,0,2.117-.547A3.654,3.654,0,0,0-34.8,34.25V31.063h-2.047a5.6,5.6,0,0,0-3.172.734,2.379,2.379,0,0,0-1.062,2.078,2.219,2.219,0,0,0,.727,1.742A2.813,2.813,0,0,0-38.414,36.266ZM-22.992,39h-3.8V15h3.8Zm8.172,0h-3.8V15h3.8ZM-3.43,30.422a10.051,10.051,0,0,1,1.813-6.273,5.807,5.807,0,0,1,4.859-2.367,5.518,5.518,0,0,1,4.344,1.875V15h3.8V39H7.945l-.187-1.75a5.6,5.6,0,0,1-4.547,2.063,5.775,5.775,0,0,1-4.8-2.391A10.419,10.419,0,0,1-3.43,30.422Zm3.8.328a7.037,7.037,0,0,0,.992,4.023,3.219,3.219,0,0,0,2.82,1.445,3.586,3.586,0,0,0,3.406-2.078V26.922a3.531,3.531,0,0,0-3.375-2.031,3.243,3.243,0,0,0-2.844,1.461A7.837,7.837,0,0,0,.367,30.75ZM25.445,39a5.86,5.86,0,0,1-.437-1.578,5.91,5.91,0,0,1-4.437,1.891,5.965,5.965,0,0,1-4.156-1.453A4.649,4.649,0,0,1,14.8,34.266a4.8,4.8,0,0,1,2.008-4.148,9.73,9.73,0,0,1,5.742-1.445h2.328V27.563a2.961,2.961,0,0,0-.734-2.1,2.911,2.911,0,0,0-2.234-.789,3.344,3.344,0,0,0-2.125.648,2.007,2.007,0,0,0-.828,1.648h-3.8a4.214,4.214,0,0,1,.922-2.6,6.142,6.142,0,0,1,2.508-1.9,8.809,8.809,0,0,1,3.539-.687,7.094,7.094,0,0,1,4.734,1.492,5.321,5.321,0,0,1,1.813,4.2v7.625a8.642,8.642,0,0,0,.641,3.641V39Zm-4.172-2.734a4.319,4.319,0,0,0,2.117-.547,3.654,3.654,0,0,0,1.492-1.469V31.063H22.836a5.6,5.6,0,0,0-3.172.734A2.379,2.379,0,0,0,18.6,33.875a2.219,2.219,0,0,0,.727,1.742A2.813,2.813,0,0,0,21.273,36.266Zm17.3-2.7,3.438-11.469h4.047L39.336,41.563q-1.547,4.266-5.25,4.266a6.769,6.769,0,0,1-1.828-.283V42.594l.719.047a3.7,3.7,0,0,0,2.164-.523,3.467,3.467,0,0,0,1.148-1.756l.547-1.452L30.9,22.094h4.094Z" transform="translate(786 441)" opacity="0.7"/>
        <path id="Path_14258" data-name="Path 14258" d="M-89.93-5.3h-8.812L-100.586,0H-104.7L-96.1-22.75h3.547L-83.945,0H-88.07Zm-7.7-3.187h6.594l-3.3-9.437Zm21.078,3.672,3.578-12.094h3.922L-74.914,0h-3.3l-5.906-16.906h3.938Zm8.922-3.8a9.969,9.969,0,0,1,.984-4.477,7.189,7.189,0,0,1,2.766-3.062,7.792,7.792,0,0,1,4.094-1.07,7.385,7.385,0,0,1,5.555,2.2,8.665,8.665,0,0,1,2.3,5.844l.016.891a10.058,10.058,0,0,1-.961,4.469,7.1,7.1,0,0,1-2.75,3.047A7.85,7.85,0,0,1-59.758.313,7.334,7.334,0,0,1-65.484-2.07a9.126,9.126,0,0,1-2.148-6.352Zm3.8.328A6.812,6.812,0,0,0-62.758-4.2a3.5,3.5,0,0,0,3,1.477,3.467,3.467,0,0,0,2.992-1.5A7.524,7.524,0,0,0-55.7-8.609a6.724,6.724,0,0,0-1.1-4.062,3.517,3.517,0,0,0-2.992-1.5A3.485,3.485,0,0,0-62.742-12.7,7.382,7.382,0,0,0-63.836-8.281ZM-44.664,0h-3.8V-16.906h3.8ZM-48.7-21.3a2.015,2.015,0,0,1,.555-1.453,2.1,2.1,0,0,1,1.586-.578,2.122,2.122,0,0,1,1.594.578A2,2,0,0,1-44.4-21.3a1.953,1.953,0,0,1-.562,1.43,2.138,2.138,0,0,1-1.594.57,2.111,2.111,0,0,1-1.586-.57A1.968,1.968,0,0,1-48.7-21.3Zm7.453,12.719a10.051,10.051,0,0,1,1.813-6.273,5.807,5.807,0,0,1,4.859-2.367,5.518,5.518,0,0,1,4.344,1.875V-24h3.8V0h-3.437l-.187-1.75A5.6,5.6,0,0,1-34.6.313a5.775,5.775,0,0,1-4.8-2.391A10.419,10.419,0,0,1-41.242-8.578Zm3.8.328a7.037,7.037,0,0,0,.992,4.023,3.219,3.219,0,0,0,2.82,1.445,3.586,3.586,0,0,0,3.406-2.078v-7.219A3.531,3.531,0,0,0-33.6-14.109a3.243,3.243,0,0,0-2.844,1.461A7.837,7.837,0,0,0-37.445-8.25Zm24.453,3.656a1.721,1.721,0,0,0-.836-1.547A8.891,8.891,0,0,0-16.6-7.078a14.257,14.257,0,0,1-3.234-1.031q-2.844-1.375-2.844-3.984a4.5,4.5,0,0,1,1.844-3.656,7.289,7.289,0,0,1,4.688-1.469,7.584,7.584,0,0,1,4.9,1.5,4.76,4.76,0,0,1,1.867,3.891h-3.8a2.34,2.34,0,0,0-.812-1.82,3.114,3.114,0,0,0-2.156-.727,3.365,3.365,0,0,0-2.039.578,1.823,1.823,0,0,0-.789,1.547,1.539,1.539,0,0,0,.734,1.359,10.1,10.1,0,0,0,2.969.977,14.053,14.053,0,0,1,3.508,1.172A4.967,4.967,0,0,1-9.875-7.109,4.164,4.164,0,0,1-9.258-4.8a4.4,4.4,0,0,1-1.891,3.7A8.062,8.062,0,0,1-16.1.313a8.742,8.742,0,0,1-3.7-.75A6.1,6.1,0,0,1-22.336-2.5a4.882,4.882,0,0,1-.906-2.828h3.688a2.675,2.675,0,0,0,1.016,2.07,3.946,3.946,0,0,0,2.484.727,3.84,3.84,0,0,0,2.281-.57A1.765,1.765,0,0,0-12.992-4.594ZM6.773-21.016v4.109H9.758v2.813H6.773v9.438a2.078,2.078,0,0,0,.383,1.4,1.775,1.775,0,0,0,1.367.43,5.849,5.849,0,0,0,1.328-.156V-.047a9.351,9.351,0,0,1-2.5.359q-4.375,0-4.375-4.828v-9.578H.2v-2.812H2.977v-4.109ZM22.758,0a5.86,5.86,0,0,1-.437-1.578A5.91,5.91,0,0,1,17.883.313a5.965,5.965,0,0,1-4.156-1.453,4.649,4.649,0,0,1-1.609-3.594,4.8,4.8,0,0,1,2.008-4.148,9.73,9.73,0,0,1,5.742-1.445H22.2v-1.109a2.961,2.961,0,0,0-.734-2.1,2.911,2.911,0,0,0-2.234-.789,3.344,3.344,0,0,0-2.125.648,2.007,2.007,0,0,0-.828,1.648h-3.8a4.214,4.214,0,0,1,.922-2.6,6.142,6.142,0,0,1,2.508-1.9,8.809,8.809,0,0,1,3.539-.687,7.094,7.094,0,0,1,4.734,1.492,5.321,5.321,0,0,1,1.813,4.2v7.625a8.642,8.642,0,0,0,.641,3.641V0ZM18.586-2.734A4.319,4.319,0,0,0,20.7-3.281,3.654,3.654,0,0,0,22.2-4.75V-7.937H20.148a5.6,5.6,0,0,0-3.172.734,2.379,2.379,0,0,0-1.062,2.078,2.219,2.219,0,0,0,.727,1.742A2.813,2.813,0,0,0,18.586-2.734ZM34.008,0h-3.8V-24h3.8Zm9.625-7.25L41.945-5.516V0h-3.8V-24h3.8v13.844l1.188-1.484L47.8-16.906h4.563L46.086-9.859,53.039,0H48.648ZM58.883,0h-3.8V-16.906h3.8ZM54.852-21.3a2.015,2.015,0,0,1,.555-1.453,2.1,2.1,0,0,1,1.586-.578,2.122,2.122,0,0,1,1.594.578,2,2,0,0,1,.563,1.453,1.953,1.953,0,0,1-.562,1.43,2.138,2.138,0,0,1-1.594.57,2.111,2.111,0,0,1-1.586-.57A1.968,1.968,0,0,1,54.852-21.3Zm11.688,4.391.109,1.953a6.079,6.079,0,0,1,4.922-2.266q5.281,0,5.375,6.047V0h-3.8V-10.953a3.482,3.482,0,0,0-.7-2.383,2.925,2.925,0,0,0-2.273-.773,3.659,3.659,0,0,0-3.422,2.078V0h-3.8V-16.906ZM80.148-8.578A9.888,9.888,0,0,1,82-14.867a5.943,5.943,0,0,1,4.914-2.352A5.567,5.567,0,0,1,91.461-15.2l.172-1.7h3.422V-.516a6.813,6.813,0,0,1-2.07,5.25A7.886,7.886,0,0,1,87.4,6.656a9,9,0,0,1-3.633-.773,6.455,6.455,0,0,1-2.7-2.023l1.8-2.281A5.427,5.427,0,0,0,87.18,3.656a4.194,4.194,0,0,0,2.984-1.023A3.922,3.922,0,0,0,91.258-.375V-1.516A5.59,5.59,0,0,1,86.883.313a5.929,5.929,0,0,1-4.852-2.359A10.208,10.208,0,0,1,80.148-8.578Zm3.781.328a6.806,6.806,0,0,0,1.039,4.008,3.341,3.341,0,0,0,2.883,1.461A3.654,3.654,0,0,0,91.258-4.75v-7.437a3.6,3.6,0,0,0-3.375-1.922,3.354,3.354,0,0,0-2.914,1.484A7.621,7.621,0,0,0,83.93-8.25ZM-59.859,17.984v4.109h2.984v2.813h-2.984v9.438a2.078,2.078,0,0,0,.383,1.4,1.775,1.775,0,0,0,1.367.43,5.849,5.849,0,0,0,1.328-.156v2.938a9.351,9.351,0,0,1-2.5.359q-4.375,0-4.375-4.828V24.906h-2.781V22.094h2.781V17.984Zm4.7,12.406a9.969,9.969,0,0,1,.984-4.477,7.189,7.189,0,0,1,2.766-3.062,7.792,7.792,0,0,1,4.094-1.07,7.385,7.385,0,0,1,5.555,2.2,8.665,8.665,0,0,1,2.3,5.844l.016.891a10.058,10.058,0,0,1-.961,4.469,7.1,7.1,0,0,1-2.75,3.047,7.85,7.85,0,0,1-4.133,1.078,7.334,7.334,0,0,1-5.727-2.383,9.126,9.126,0,0,1-2.148-6.352Zm3.8.328A6.812,6.812,0,0,0-50.281,34.8a3.5,3.5,0,0,0,3,1.477,3.467,3.467,0,0,0,2.992-1.5,7.524,7.524,0,0,0,1.07-4.391,6.724,6.724,0,0,0-1.1-4.062,3.517,3.517,0,0,0-2.992-1.5A3.485,3.485,0,0,0-50.266,26.3,7.382,7.382,0,0,0-51.359,30.719Zm37.906,0a10.066,10.066,0,0,1-1.781,6.258,5.7,5.7,0,0,1-4.781,2.336,5.743,5.743,0,0,1-4.453-1.828V45.5h-3.8V22.094h3.5l.156,1.719a5.577,5.577,0,0,1,4.547-2.031,5.763,5.763,0,0,1,4.852,2.3,10.335,10.335,0,0,1,1.758,6.4Zm-3.781-.328a7.051,7.051,0,0,0-1.008-4.016,3.276,3.276,0,0,0-2.883-1.484,3.494,3.494,0,0,0-3.344,1.922v7.5a3.526,3.526,0,0,0,3.375,1.969,3.273,3.273,0,0,0,2.836-1.461A7.762,7.762,0,0,0-17.234,30.391ZM-2.8,39.313a7.855,7.855,0,0,1-5.852-2.273,8.247,8.247,0,0,1-2.242-6.055v-.469a10.145,10.145,0,0,1,.977-4.523,7.433,7.433,0,0,1,2.742-3.1,7.25,7.25,0,0,1,3.938-1.109,6.636,6.636,0,0,1,5.336,2.2,9.316,9.316,0,0,1,1.883,6.234V31.75H-7.062a5.077,5.077,0,0,0,1.4,3.313,4.2,4.2,0,0,0,3.086,1.219,5.141,5.141,0,0,0,4.25-2.109l2.047,1.953a6.835,6.835,0,0,1-2.711,2.352A8.487,8.487,0,0,1-2.8,39.313ZM-3.25,24.828a3.2,3.2,0,0,0-2.523,1.094A5.669,5.669,0,0,0-7,28.969H.234v-.281A4.615,4.615,0,0,0-.781,25.8,3.173,3.173,0,0,0-3.25,24.828Zm9.469,5.563A9.969,9.969,0,0,1,7.2,25.914a7.189,7.189,0,0,1,2.766-3.062,7.792,7.792,0,0,1,4.094-1.07,7.385,7.385,0,0,1,5.555,2.2,8.665,8.665,0,0,1,2.3,5.844l.016.891a10.058,10.058,0,0,1-.961,4.469,7.1,7.1,0,0,1-2.75,3.047,7.85,7.85,0,0,1-4.133,1.078A7.334,7.334,0,0,1,8.367,36.93a9.126,9.126,0,0,1-2.148-6.352Zm3.8.328A6.812,6.812,0,0,0,11.094,34.8a3.5,3.5,0,0,0,3,1.477,3.467,3.467,0,0,0,2.992-1.5,7.524,7.524,0,0,0,1.07-4.391,6.724,6.724,0,0,0-1.1-4.062,3.517,3.517,0,0,0-2.992-1.5A3.485,3.485,0,0,0,11.109,26.3,7.382,7.382,0,0,0,10.016,30.719Zm29.938,0a10.066,10.066,0,0,1-1.781,6.258,5.7,5.7,0,0,1-4.781,2.336,5.743,5.743,0,0,1-4.453-1.828V45.5h-3.8V22.094h3.5l.156,1.719a5.577,5.577,0,0,1,4.547-2.031,5.763,5.763,0,0,1,4.852,2.3,10.335,10.335,0,0,1,1.758,6.4Zm-3.781-.328a7.051,7.051,0,0,0-1.008-4.016,3.276,3.276,0,0,0-2.883-1.484,3.494,3.494,0,0,0-3.344,1.922v7.5a3.526,3.526,0,0,0,3.375,1.969,3.273,3.273,0,0,0,2.836-1.461A7.762,7.762,0,0,0,36.172,30.391ZM47.2,39h-3.8V15h3.8Zm11.578.313a7.855,7.855,0,0,1-5.852-2.273,8.247,8.247,0,0,1-2.242-6.055v-.469a10.145,10.145,0,0,1,.977-4.523,7.433,7.433,0,0,1,2.742-3.1,7.25,7.25,0,0,1,3.938-1.109,6.636,6.636,0,0,1,5.336,2.2,9.316,9.316,0,0,1,1.883,6.234V31.75H54.516a5.077,5.077,0,0,0,1.4,3.313A4.2,4.2,0,0,0,59,36.281a5.141,5.141,0,0,0,4.25-2.109L65.3,36.125a6.835,6.835,0,0,1-2.711,2.352A8.487,8.487,0,0,1,58.781,39.313Zm-.453-14.484A3.2,3.2,0,0,0,55.8,25.922a5.669,5.669,0,0,0-1.227,3.047h7.234v-.281A4.615,4.615,0,0,0,60.8,25.8,3.173,3.173,0,0,0,58.328,24.828Z" transform="translate(488 247)" opacity="0.7"/>
        <g id="Group_9821" data-name="Group 9821" transform="translate(383.804 459.468)">
          <g transform="matrix(1, 0, 0, 1, -383.8, -707.47)" filter="url(#Rectangle_2992)">
            <rect id="Rectangle_2992-2" data-name="Rectangle 2992" width="233" height="412" rx="4" transform="translate(384 707)" fill="#ffebeb" opacity="0.4"/>
          </g>
          <path id="Path_8195" data-name="Path 8195" d="M0,0C8.931,9.709,134.346,0,134.346,0s-8.275,58.4,0,82.894C120.44,74.921,0,82.894,0,82.894S6.555,26.65,0,0Z" transform="translate(18.497 77.872) rotate(-20)" fill="#83bec1" opacity="0.6"/>
          <rect id="Rectangle_2993" data-name="Rectangle 2993" width="60.367" height="136.589" rx="24" transform="translate(95.235 147.984) rotate(-25)" fill="#83bec1"/>
          <path id="Path_11543" data-name="Path 11543" d="M24.238,0h.3A18.741,18.741,0,0,1,43.277,18.741v87.482a18.741,18.741,0,0,1-18.741,18.741h-.3A18.741,18.741,0,0,1,5.5,106.223V18.741c0-6.686-9.3-9.786-3.708-13.3C5.447,3.535,20.574,0,24.238,0Z" transform="translate(199.71 215.254) rotate(83)" fill="#83bec1"/>
          <rect id="Rectangle_2995" data-name="Rectangle 2995" width="34.874" height="110.434" rx="14" transform="translate(152.264 332.196) rotate(155)" fill="#83bec1"/>
          <rect id="Rectangle_2996" data-name="Rectangle 2996" width="24.371" height="84.278" rx="10" transform="translate(94.483 218.983) rotate(-149)" fill="#83bec1"/>
          <rect id="Rectangle_2997" data-name="Rectangle 2997" width="24.371" height="61.59" rx="10" transform="matrix(0.574, -0.819, 0.819, 0.574, 41.655, 182.967)" fill="#83bec1"/>
          <ellipse id="Ellipse_4098" data-name="Ellipse 4098" cx="28.978" cy="28.978" rx="28.978" ry="28.978" transform="translate(79.098 79.833)" fill="#83bec1" stroke="#ffebeb" stroke-width="1"/>
        </g>
        <g id="thinking" transform="matrix(-0.995, -0.105, 0.105, -0.995, 256.998, 342.651)">
          <path id="Path_11097" data-name="Path 11097" d="M107.535,53.44A23.162,23.162,0,0,1,94.712,60.7,18.224,18.224,0,0,1,69.16,76.013a22.887,22.887,0,0,1-30.371,2.9,23.016,23.016,0,0,1-7.416-9.286A26.339,26.339,0,0,1,.025,45.018C-.462,34.576,6.243,25.611,15.477,20.987a25.2,25.2,0,0,1,6.174-10.857C24.384,7.483,30.039,1.123,41.039.285,45.812-.609,57.445.4,61.919,6.213,64.738,4.32,72.313,2.392,75.772,2.231A18.776,18.776,0,0,1,94.391,14.856,23.328,23.328,0,0,1,107.535,53.44Z" transform="translate(19.007 9.617)" fill="#b8e7e9"/>
          <path id="Path_11098" data-name="Path 11098" d="M5.894,11.788a5.894,5.894,0,1,1,5.894-5.894,5.9,5.9,0,0,1-5.894,5.894Z" transform="translate(0 0)" fill="#b8e7e9"/>
          <path id="Path_11099" data-name="Path 11099" d="M9.067,18.134a9.067,9.067,0,1,1,9.067-9.067,9.247,9.247,0,0,1-3.09,6.812A8.8,8.8,0,0,1,9.067,18.134Z" transform="translate(12.387 12.292)" fill="#b8e7e9"/>
          <g id="Group_12262" data-name="Group 12262" transform="matrix(-0.995, 0.105, -0.105, -0.995, 105.385, 76.284)">
            <g id="Group_12262-2" data-name="Group 12262" transform="translate(9.532 25.933)">
              <path id="Path_8161" data-name="Path 8161" d="M0,0C0,39.555,57.7,39.526,57.7,0H0Z" fill="#4b8a68"/>
            </g>
            <path id="Path_11616" data-name="Path 11616" d="M.166,15.064H41.213a5.976,5.976,0,0,0-8.4-8.456,8.6,8.6,0,0,0-15.123-3.33A5.979,5.979,0,0,0,9.335,8.321C4.82,5.282-1.065,9.125.166,15.064Z" transform="translate(22.369 11.904)" fill="#ff984a"/>
            <g id="Group_12263" data-name="Group 12263" transform="translate(0 0)">
              <path id="Path_8163" data-name="Path 8163" d="M17.722,27.233,8.585,1.107A1.793,1.793,0,0,0,6.178.154L1.121,2.342A1.808,1.808,0,0,0,.167,4.749L11.136,27.233h6.585Z" fill="#4b8a68"/>
            </g>
          </g>
        </g>
        <g id="Group_12269" data-name="Group 12269" transform="translate(787.347 268.663)">
          <path id="Union_161" data-name="Union 161" d="M6.9,30a3,3,0,0,1-3-3V23.478H1a1,1,0,0,1-1-1V7.522a1,1,0,0,1,1-1H3.9V3a3,3,0,0,1,3-3H62a3,3,0,0,1,3,3V27a3,3,0,0,1-3,3Z" transform="translate(-0.347 0.337)" fill="#70c9b9"/>
          <rect id="Rectangle_3986" data-name="Rectangle 3986" width="54" height="22" rx="2" transform="translate(8.653 3.337)" fill="#b7efe5"/>
          <rect id="Rectangle_3988" data-name="Rectangle 3988" width="7" height="25" rx="1" transform="translate(55.653 2.337)" fill="#ff5b5b"/>
          <rect id="Rectangle_3989" data-name="Rectangle 3989" width="6" height="25" rx="1" transform="translate(49.653 2.337)" fill="#feb6b6"/>
          <rect id="Rectangle_3996" data-name="Rectangle 3996" width="8" height="25" rx="1" transform="translate(20.653 2.337)" fill="#feb6b6"/>
          <rect id="Rectangle_3992" data-name="Rectangle 3992" width="6" height="25" rx="1" transform="translate(34.653 2.337)" fill="#feb6b6"/>
          <rect id="Rectangle_3994" data-name="Rectangle 3994" width="6" height="25" rx="1" transform="translate(7.653 2.337)" fill="#feb6b6"/>
          <rect id="Rectangle_3990" data-name="Rectangle 3990" width="9" height="25" rx="1" transform="translate(40.653 2.337)" fill="#feb6b6"/>
          <rect id="Rectangle_3995" data-name="Rectangle 3995" width="7" height="25" rx="1" transform="translate(13.653 2.337)" fill="#feb6b6"/>
          <rect id="Rectangle_3991" data-name="Rectangle 3991" width="6" height="25" rx="1" transform="translate(28.653 2.337)" fill="#feb6b6"/>
        </g>
        <g id="Group_12275" data-name="Group 12275" transform="translate(744.889 584.735)">
          <g transform="matrix(1, 0, 0, 1, -744.89, -832.73)" filter="url(#Path_8200)">
            <path id="Path_8200-2" data-name="Path 8200" d="M100.423,0c14.175,0,34.032,7.427,41.11,19.709L155.074,55.08a39.645,39.645,0,0,1,0,39.589l-20.3,35.23c-7.078,12.282-20.174,28.656-34.35,28.656L59.947,149.75A39.645,39.645,0,0,1,25.6,129.9L5.3,94.67c-7.061-12.252-7.061-39.928,0-52.181l12.579-28.2C24.952,2,45.772,0,59.947,0Z" transform="translate(903.44 832.73) rotate(90)" fill="#ffefef"/>
          </g>
          <g id="Group_12274" data-name="Group 12274" transform="translate(20.505 15.096)">
            <g id="Group_11740" data-name="Group 11740" transform="matrix(0.966, 0.259, -0.259, 0.966, 74.511, 0)">
              <path id="Path_10966" data-name="Path 10966" d="M0,17.078,2.527,0" transform="translate(11.14 19.489)" fill="none" stroke="#393939" stroke-width="2"/>
              <path id="Path_10967" data-name="Path 10967" d="M0,15.872,4.761,0" transform="translate(15.253 21.53)" fill="none" stroke="#393939" stroke-width="2"/>
              <path id="Path_10968" data-name="Path 10968" d="M0,15.429C6.461,22.117,21.2,10.441,7.936.011,6.576-.216,4.648,3.185,4.648,3.185" transform="matrix(0.985, 0.174, -0.174, 0.985, 21.563, 10.117)" fill="none" stroke="#393939" stroke-width="2"/>
              <path id="Path_10969" data-name="Path 10969" d="M13.295,15.429C6.833,22.117-7.9,10.441,5.36.011,6.72-.216,8.648,3.185,8.648,3.185" transform="translate(8.434 4.273) rotate(29)" fill="none" stroke="#393939" stroke-width="2"/>
              <path id="Path_10970" data-name="Path 10970" d="M10.511,14.126C12.475,13.677,22.951,4.656,9.26.507-.855-2.025-1.211,5.381,1.312,12.55" transform="translate(13.667 0)" fill="none" stroke="#393939" stroke-width="2"/>
            </g>
            <g id="Group_11741" data-name="Group 11741" transform="translate(112.186 25.009) rotate(42)">
              <path id="Path_10966-2" data-name="Path 10966" d="M0,15.588,2.307,0" transform="translate(10.168 17.787)" fill="none" stroke="#393939" stroke-width="2"/>
              <path id="Path_10967-2" data-name="Path 10967" d="M0,14.485,4.348,0" transform="translate(13.921 19.65)" fill="none" stroke="#393939" stroke-width="2"/>
              <path id="Path_10968-2" data-name="Path 10968" d="M0,14.082C5.9,20.186,19.349,9.529,7.242.01c-1.242-.207-3,2.9-3,2.9" transform="matrix(0.985, 0.174, -0.174, 0.985, 19.682, 9.233)" fill="none" stroke="#393939" stroke-width="2"/>
              <path id="Path_10969-2" data-name="Path 10969" d="M12.135,14.082C6.236,20.186-7.214,9.529,4.892.01c1.24-.207,3,2.9,3,2.9" transform="translate(7.697 3.899) rotate(29)" fill="none" stroke="#393939" stroke-width="2"/>
              <path id="Path_10970-2" data-name="Path 10970" d="M9.6,12.894C11.388,12.483,20.947,4.249,8.454.463-.781-1.848-1.1,4.912,1.2,11.454" transform="translate(12.475 0)" fill="none" stroke="#393939" stroke-width="2"/>
            </g>
            <path id="Path_10971" data-name="Path 10971" d="M0,21.928l4.939-1.372L7.728,33.921,9.471,12.108l-4.532,1.8L2.794,0Z" transform="matrix(0.719, -0.695, 0.695, 0.719, 0, 31.304)" fill="#ffefef"/>
            <path id="Path_10972" data-name="Path 10972" d="M0,21.928l4.939-1.372L7.728,33.921,9.471,12.108l-4.532,1.8L2.8,0Z" transform="matrix(0.946, -0.326, 0.326, 0.946, 19.474, 8.368)" fill="#ffefef"/>
          </g>
        </g>
        <g id="Group_13060" data-name="Group 13060" transform="translate(109.548 595.445)">
          <g id="Group_13060-2" data-name="Group 13060" transform="translate(0 60.291)">
            <rect id="Rectangle_4076" data-name="Rectangle 4076" width="105.274" height="17.642" transform="translate(5.765 24.978)" fill="#636b6a"/>
            <rect id="Rectangle_4077" data-name="Rectangle 4077" width="105.274" height="8.163" transform="translate(5.765 24.978)" fill="#859593"/>
            <path id="Path_12160" data-name="Path 12160" d="M55.28,256.465H73.9l-8.69-7.109c-2.273-1.739-6.631-2.261-9.932-2.261v9.37Z" transform="translate(-43.75 -231.488)" fill="#859593"/>
            <g id="Group_12487" data-name="Group 12487" transform="translate(0 0)">
              <path id="Path_12152" data-name="Path 12152" d="M11.529,205.588a1.8,1.8,0,0,1-1.956,1.575H1.956A1.8,1.8,0,0,1,0,205.588V160.9c0-2.563,2.581-4.641,5.765-4.641s5.765,2.078,5.765,4.641v44.683Z" transform="translate(0 -156.263)" fill="#636b6a"/>
              <path id="Path_12153" data-name="Path 12153" d="M468.249,322.647a1.956,1.956,0,0,1-1.956,1.956h-7.617a1.956,1.956,0,0,1-1.956-1.956v-27.8a5.765,5.765,0,1,1,11.53,0v27.8Z" transform="translate(-351.447 -273.704)" fill="#636b6a"/>
            </g>
            <g id="bed_1_" data-name="bed (1)" transform="translate(14.366 4.408)">
              <g id="Group_12358" data-name="Group 12358" transform="translate(0 0)">
                <g id="Group_12357" data-name="Group 12357" transform="translate(0 0)">
                  <circle id="Ellipse_4402" data-name="Ellipse 4402" cx="7" cy="7" r="7" transform="translate(0.086 -0.143)" fill="#faad93"/>
                </g>
              </g>
              <g id="Group_12362" data-name="Group 12362" transform="translate(28.461 0.101)">
                <g id="Group_12361" data-name="Group 12361" transform="translate(0 0)">
                  <path id="Path_11762" data-name="Path 11762" d="M257.608,183.433c-13-3.754-38.877-6.695-46.747-6.472l-4.676,9.006-2.363,12.325s-.133,3.577-.056,5.527a1.719,1.719,0,0,0,1.717,1.652l59.231.165a1.72,1.72,0,0,0,1.7-1.444l1.1-6.749C268.581,190.852,264.023,185.285,257.608,183.433Z" transform="translate(-203.742 -176.949)" fill="#42696e"/>
                </g>
              </g>
              <path id="Path_12162" data-name="Path 12162" d="M181.648,191.192h0a3.425,3.425,0,0,0-4.707-1.106h0l-10.058,6.23-11.826-5.42,5.551.979a41.518,41.518,0,0,1,2.744-6.5l-12.87-.236a4.8,4.8,0,0,0-4.876,4.7l-.157,8.538a4.807,4.807,0,0,0,4.7,4.876l8.169.15q.066-.792.152-1.557l-5.83-4.528L165.7,203.3a3.447,3.447,0,0,0,3.225-.2l11.617-7.2A3.42,3.42,0,0,0,181.648,191.192Z" transform="translate(-129.04 -183.335)" fill="#d45454"/>
            </g>
            <path id="Path_12161" data-name="Path 12161" d="M227.616,207.187h0a3.425,3.425,0,0,0-4.707-1.106h0l-10.058,6.23-5.957-2.749-2.714,6.281,7.489,3.451a3.448,3.448,0,0,0,3.225-.2l11.617-7.2A3.419,3.419,0,0,0,227.616,207.187Z" transform="translate(-160.642 -194.922)" fill="#faad93"/>
          </g>
          <g id="Group_13061" data-name="Group 13061" transform="translate(5.988 39.457)">
            <path id="Path_11544" data-name="Path 11544" d="M0,0H2.076L1.713,11.986H.38Z" transform="matrix(0.951, -0.309, 0.309, 0.951, 5.79, 1.026)" opacity="0.7"/>
            <path id="Path_11545" data-name="Path 11545" d="M0,0H2.076L1.714,11.986H.38Z" transform="translate(12.569 0.109) rotate(-3)" opacity="0.7"/>
            <path id="Path_11546" data-name="Path 11546" d="M0,0H2.076L1.713,11.986H.38Z" transform="matrix(0.839, -0.545, 0.545, 0.839, 0, 4.757)" opacity="0.7"/>
          </g>
          <text id="z" transform="translate(34.452 56.555)" font-size="17" font-family="Roboto-Bold, Roboto" font-weight="700" opacity="0.7"><tspan x="-4.325" y="0">z</tspan></text>
          <text id="z-2" data-name="z" transform="translate(50.452 46.555)" font-size="25" font-family="Roboto-Medium, Roboto" font-weight="500" opacity="0.7"><tspan x="-6.287" y="0">z</tspan></text>
          <text id="z-3" data-name="z" transform="translate(72.452 36.555)" font-size="35" font-family="Roboto-Medium, Roboto" font-weight="500" opacity="0.7"><tspan x="-8.801" y="0">z</tspan></text>
        </g>
        <g id="Group_13065" data-name="Group 13065" transform="translate(749.593 264.581) rotate(-9)">
          <path id="Path_11112" data-name="Path 11112" d="M4.364,1.835c.746-.715.029-2.38-.725-1.657A11.969,11.969,0,0,0,.031,7.658C-.3,11,2.165,13.142,2.443,16.277A8.813,8.813,0,0,1,.514,22.105c-.681.845.339,2.2,1.016,1.355a11.361,11.361,0,0,0,2.094-9.1C3,11.035.631,9.434,1.913,5.641A9.965,9.965,0,0,1,4.364,1.835Z" transform="translate(3.712 0) rotate(9)" fill="#393939"/>
          <path id="Path_11113" data-name="Path 11113" d="M4.365,1.835c.745-.715.029-2.38-.725-1.657A11.977,11.977,0,0,0,.03,7.658C-.3,11,2.166,13.142,2.443,16.277A8.813,8.813,0,0,1,.514,22.105c-.68.845.339,2.2,1.016,1.355a11.361,11.361,0,0,0,2.094-9.1C3,11.035.632,9.434,1.913,5.641A9.965,9.965,0,0,1,4.365,1.835Z" transform="translate(12.036 1.318) rotate(9)" fill="#393939"/>
          <path id="Path_11114" data-name="Path 11114" d="M4.364,1.835c.746-.715.029-2.38-.725-1.657A11.973,11.973,0,0,0,.03,7.658C-.3,11,2.165,13.142,2.442,16.277A8.809,8.809,0,0,1,.514,22.105c-.68.845.34,2.2,1.017,1.355a11.367,11.367,0,0,0,2.094-9.1C3,11.035.631,9.434,1.914,5.641A9.954,9.954,0,0,1,4.364,1.835Z" transform="translate(20.358 2.636) rotate(9)" fill="#393939"/>
        </g>
        <path id="Path_14256" data-name="Path 14256" d="M37.031,50.7l5.742-30.352h8.76L42.07,63H33.223L26.279,34.465,19.336,63H10.488L1.025,20.344h8.76l5.771,30.293,7.031-30.293h7.441ZM63.984,34.758a10.567,10.567,0,0,1,8.467-4.043q10.313,0,10.459,11.982V63H74.443V42.932A5.889,5.889,0,0,0,73.271,38.9a5.024,5.024,0,0,0-3.9-1.3,5.763,5.763,0,0,0-5.391,2.871V63H55.518V18h8.467ZM107.666,63a9.4,9.4,0,0,1-.85-2.842,10.245,10.245,0,0,1-8,3.428,11.255,11.255,0,0,1-7.72-2.7,8.669,8.669,0,0,1-3.062-6.8,8.958,8.958,0,0,1,3.735-7.734q3.735-2.7,10.8-2.725h3.9V41.818a5.224,5.224,0,0,0-1.128-3.516,4.437,4.437,0,0,0-3.56-1.318,5.045,5.045,0,0,0-3.354,1.025,3.483,3.483,0,0,0-1.216,2.813H88.74a8.5,8.5,0,0,1,1.7-5.1,11.232,11.232,0,0,1,4.8-3.677,17.51,17.51,0,0,1,6.973-1.333q5.859,0,9.3,2.944a10.3,10.3,0,0,1,3.442,8.276v13.74a15.155,15.155,0,0,0,1.26,6.826V63Zm-7-5.889a7.292,7.292,0,0,0,3.457-.835,5.484,5.484,0,0,0,2.344-2.241V48.586H103.3q-6.357,0-6.768,4.395l-.029.5a3.39,3.39,0,0,0,1.113,2.607A4.324,4.324,0,0,0,100.664,57.111Zm30.938-33.6V31.3h5.42v6.211H131.6v15.82a3.778,3.778,0,0,0,.674,2.52,3.384,3.384,0,0,0,2.578.762,13.5,13.5,0,0,0,2.49-.205v6.416a17.43,17.43,0,0,1-5.127.762q-8.906,0-9.082-8.994V37.512h-4.629V31.3h4.629V23.508Zm33.34,11.25a10.567,10.567,0,0,1,8.467-4.043q10.313,0,10.459,11.982V63H175.4V42.932a5.889,5.889,0,0,0-1.172-4.028,5.024,5.024,0,0,0-3.9-1.3,5.763,5.763,0,0,0-5.391,2.871V63h-8.467V18h8.467ZM208.623,63a9.4,9.4,0,0,1-.85-2.842,10.245,10.245,0,0,1-8,3.428,11.255,11.255,0,0,1-7.72-2.7,8.669,8.669,0,0,1-3.062-6.8,8.958,8.958,0,0,1,3.735-7.734q3.735-2.7,10.8-2.725h3.9V41.818a5.224,5.224,0,0,0-1.128-3.516,4.437,4.437,0,0,0-3.56-1.318,5.045,5.045,0,0,0-3.354,1.025,3.483,3.483,0,0,0-1.216,2.813H189.7a8.5,8.5,0,0,1,1.7-5.1,11.232,11.232,0,0,1,4.8-3.677,17.51,17.51,0,0,1,6.973-1.333q5.859,0,9.3,2.944a10.3,10.3,0,0,1,3.442,8.276v13.74a15.155,15.155,0,0,0,1.26,6.826V63Zm-7-5.889a7.292,7.292,0,0,0,3.457-.835,5.484,5.484,0,0,0,2.344-2.241V48.586h-3.164q-6.357,0-6.768,4.395l-.029.5a3.39,3.39,0,0,0,1.113,2.607A4.324,4.324,0,0,0,201.621,57.111Zm49.336-9.668q0,7.324-3.325,11.733a10.661,10.661,0,0,1-8.979,4.409,9.876,9.876,0,0,1-7.764-3.34V75.188h-8.467V31.3h7.852l.293,3.105a9.951,9.951,0,0,1,8.027-3.691,10.734,10.734,0,0,1,9.111,4.336q3.252,4.336,3.252,11.953Zm-8.467-.615A12.476,12.476,0,0,0,240.923,40a5.105,5.105,0,0,0-4.556-2.4q-3.984,0-5.479,3.047V53.625q1.553,3.135,5.537,3.135Q242.49,56.76,242.49,46.828Zm42.246.615q0,7.324-3.325,11.733a10.661,10.661,0,0,1-8.979,4.409,9.876,9.876,0,0,1-7.764-3.34V75.188H256.2V31.3h7.852l.293,3.105a9.951,9.951,0,0,1,8.027-3.691,10.734,10.734,0,0,1,9.111,4.336q3.252,4.336,3.252,11.953Zm-8.467-.615A12.476,12.476,0,0,0,274.7,40a5.105,5.105,0,0,0-4.556-2.4q-3.984,0-5.479,3.047V53.625q1.553,3.135,5.537,3.135Q276.27,56.76,276.27,46.828Zm28.3,16.758a15.561,15.561,0,0,1-11.353-4.277q-4.38-4.277-4.38-11.4v-.82a19.149,19.149,0,0,1,1.846-8.54,13.546,13.546,0,0,1,5.229-5.8,14.678,14.678,0,0,1,7.72-2.036q6.5,0,10.239,4.1t3.735,11.631V49.9H297.422a7.865,7.865,0,0,0,2.476,4.98,7.484,7.484,0,0,0,5.229,1.875,9.139,9.139,0,0,0,7.646-3.545l4.16,4.658a12.71,12.71,0,0,1-5.156,4.2A16.917,16.917,0,0,1,304.57,63.586ZM303.6,37.541a5.291,5.291,0,0,0-4.087,1.707,8.838,8.838,0,0,0-2.007,4.885h11.777v-.677a6.3,6.3,0,0,0-1.523-4.37A5.458,5.458,0,0,0,303.6,37.541Zm26.6-6.24.264,3.662a11.067,11.067,0,0,1,9.111-4.248q5.039,0,7.5,2.959t2.52,8.848V63h-8.467V42.727a5.493,5.493,0,0,0-1.172-3.911,5.246,5.246,0,0,0-3.9-1.216,5.825,5.825,0,0,0-5.361,3.047V63h-8.467V31.3ZM373.184,54.24a2.728,2.728,0,0,0-1.538-2.446,17.471,17.471,0,0,0-4.937-1.6Q355.4,47.824,355.4,40.588a8.71,8.71,0,0,1,3.5-7.046,14.123,14.123,0,0,1,9.155-2.827q6.035,0,9.653,2.842a8.956,8.956,0,0,1,3.618,7.383h-8.467a4.1,4.1,0,0,0-1.172-3,4.959,4.959,0,0,0-3.662-1.187,5.067,5.067,0,0,0-3.311.967,3.052,3.052,0,0,0-1.172,2.461,2.609,2.609,0,0,0,1.333,2.271,13.713,13.713,0,0,0,4.5,1.494,36.731,36.731,0,0,1,5.332,1.421q6.709,2.461,6.709,8.525a8.269,8.269,0,0,1-3.721,7.017,16.05,16.05,0,0,1-9.609,2.681,16.764,16.764,0,0,1-7.075-1.421,11.871,11.871,0,0,1-4.849-3.9,9.054,9.054,0,0,1-1.758-5.347h8.027a4.42,4.42,0,0,0,1.67,3.457,6.624,6.624,0,0,0,4.16,1.2,6.131,6.131,0,0,0,3.677-.923A2.872,2.872,0,0,0,373.184,54.24Zm56.191-2.754,4.16-20.186h8.174L433.623,63h-7.09l-6.006-19.951L414.521,63h-7.061l-8.086-31.7h8.174l4.131,20.156,5.8-20.156H423.6ZM454.16,34.758a10.567,10.567,0,0,1,8.467-4.043q10.313,0,10.459,11.982V63h-8.467V42.932a5.889,5.889,0,0,0-1.172-4.028,5.024,5.024,0,0,0-3.9-1.3,5.763,5.763,0,0,0-5.391,2.871V63h-8.467V18h8.467Zm39.9,28.828a15.561,15.561,0,0,1-11.353-4.277q-4.38-4.277-4.38-11.4v-.82a19.149,19.149,0,0,1,1.846-8.54,13.546,13.546,0,0,1,5.229-5.8,14.678,14.678,0,0,1,7.72-2.036q6.5,0,10.239,4.1T507.1,46.447V49.9H486.914a7.865,7.865,0,0,0,2.476,4.98,7.484,7.484,0,0,0,5.229,1.875,9.139,9.139,0,0,0,7.646-3.545l4.16,4.658a12.71,12.71,0,0,1-5.156,4.2A16.917,16.917,0,0,1,494.063,63.586ZM493.1,37.541a5.291,5.291,0,0,0-4.087,1.707A8.838,8.838,0,0,0,487,44.133h11.777v-.677a6.3,6.3,0,0,0-1.523-4.37A5.458,5.458,0,0,0,493.1,37.541Zm26.6-6.24.264,3.662a11.067,11.067,0,0,1,9.111-4.248q5.039,0,7.5,2.959t2.52,8.848V63h-8.467V42.727a5.493,5.493,0,0,0-1.172-3.911,5.246,5.246,0,0,0-3.9-1.216,5.825,5.825,0,0,0-5.361,3.047V63h-8.467V31.3Zm49.014,3.457a10.567,10.567,0,0,1,8.467-4.043q10.313,0,10.459,11.982V63H579.17V42.932A5.889,5.889,0,0,0,578,38.9a5.024,5.024,0,0,0-3.9-1.3,5.763,5.763,0,0,0-5.391,2.871V63h-8.467V18h8.467Zm39.9,28.828a15.561,15.561,0,0,1-11.353-4.277q-4.38-4.277-4.38-11.4v-.82a19.149,19.149,0,0,1,1.846-8.54,13.546,13.546,0,0,1,5.229-5.8,14.678,14.678,0,0,1,7.72-2.036q6.5,0,10.239,4.1t3.735,11.631V49.9H601.465a7.865,7.865,0,0,0,2.476,4.98,7.484,7.484,0,0,0,5.229,1.875,9.139,9.139,0,0,0,7.646-3.545l4.16,4.658a12.71,12.71,0,0,1-5.156,4.2A16.917,16.917,0,0,1,608.613,63.586Zm-.967-26.045a5.291,5.291,0,0,0-4.087,1.707,8.838,8.838,0,0,0-2.007,4.885H613.33v-.677a6.3,6.3,0,0,0-1.523-4.37A5.458,5.458,0,0,0,607.646,37.541Zm32.52,9.375q0-7.295,3.472-11.748A11.249,11.249,0,0,1,653,30.715a9.866,9.866,0,0,1,8.115,3.574l.352-2.988h7.676V61.945a13.548,13.548,0,0,1-1.89,7.236,12.136,12.136,0,0,1-5.317,4.688,18.693,18.693,0,0,1-8.027,1.611,17.382,17.382,0,0,1-6.8-1.392A12.063,12.063,0,0,1,642.1,70.5l3.75-5.156a9.918,9.918,0,0,0,7.676,3.545,7.259,7.259,0,0,0,5.244-1.8,6.758,6.758,0,0,0,1.875-5.112v-1.7a9.793,9.793,0,0,1-7.705,3.311,11.22,11.22,0,0,1-9.243-4.468q-3.53-4.468-3.53-11.851Zm8.467.63a11.568,11.568,0,0,0,1.729,6.763,5.5,5.5,0,0,0,4.746,2.45,5.879,5.879,0,0,0,5.537-2.9V40.5a5.866,5.866,0,0,0-5.479-2.9,5.533,5.533,0,0,0-4.79,2.494Q648.633,42.588,648.633,47.546Zm41.6,16.04a15.561,15.561,0,0,1-11.353-4.277q-4.38-4.277-4.38-11.4v-.82a19.149,19.149,0,0,1,1.846-8.54,13.546,13.546,0,0,1,5.229-5.8,14.678,14.678,0,0,1,7.72-2.036q6.5,0,10.239,4.1t3.735,11.631V49.9H683.086a7.865,7.865,0,0,0,2.476,4.98,7.484,7.484,0,0,0,5.229,1.875,9.139,9.139,0,0,0,7.646-3.545l4.16,4.658a12.71,12.71,0,0,1-5.156,4.2A16.917,16.917,0,0,1,690.234,63.586Zm-.967-26.045a5.291,5.291,0,0,0-4.087,1.707,8.838,8.838,0,0,0-2.007,4.885h11.777v-.677a6.3,6.3,0,0,0-1.523-4.37A5.458,5.458,0,0,0,689.268,37.541Zm28.945-14.033V31.3h5.42v6.211h-5.42v15.82a3.778,3.778,0,0,0,.674,2.52,3.384,3.384,0,0,0,2.578.762,13.5,13.5,0,0,0,2.49-.205v6.416a17.43,17.43,0,0,1-5.127.762q-8.906,0-9.082-8.994V37.512h-4.629V31.3h4.629V23.508Zm27.3,30.732a2.728,2.728,0,0,0-1.538-2.446,17.471,17.471,0,0,0-4.937-1.6q-11.309-2.373-11.309-9.609a8.71,8.71,0,0,1,3.5-7.046,14.123,14.123,0,0,1,9.155-2.827q6.035,0,9.653,2.842a8.956,8.956,0,0,1,3.618,7.383H745.2a4.1,4.1,0,0,0-1.172-3,4.959,4.959,0,0,0-3.662-1.187,5.067,5.067,0,0,0-3.311.967,3.052,3.052,0,0,0-1.172,2.461,2.609,2.609,0,0,0,1.333,2.271,13.713,13.713,0,0,0,4.5,1.494,36.731,36.731,0,0,1,5.332,1.421q6.709,2.461,6.709,8.525a8.269,8.269,0,0,1-3.721,7.017,16.05,16.05,0,0,1-9.609,2.681,16.764,16.764,0,0,1-7.075-1.421,11.871,11.871,0,0,1-4.849-3.9,9.054,9.054,0,0,1-1.758-5.347h8.027a4.42,4.42,0,0,0,1.67,3.457,6.624,6.624,0,0,0,4.16,1.2,6.131,6.131,0,0,0,3.677-.923A2.872,2.872,0,0,0,745.518,54.24ZM1.934,118.916q0-7.412,3.325-11.807a10.789,10.789,0,0,1,9.1-4.395A9.709,9.709,0,0,1,22,106.172V90h8.5v45H22.852l-.41-3.369a9.964,9.964,0,0,1-8.145,3.955,10.76,10.76,0,0,1-8.979-4.409Q1.934,126.768,1.934,118.916Zm8.467.63a12.514,12.514,0,0,0,1.553,6.837,5.058,5.058,0,0,0,4.512,2.377A5.665,5.665,0,0,0,22,125.444V112.915a5.584,5.584,0,0,0-5.479-3.316Q10.4,109.6,10.4,119.546Zm41.25,16.04A15.561,15.561,0,0,1,40.3,131.309q-4.38-4.277-4.38-11.4v-.82a19.149,19.149,0,0,1,1.846-8.54,13.546,13.546,0,0,1,5.229-5.8,14.678,14.678,0,0,1,7.72-2.036q6.5,0,10.239,4.1t3.735,11.631V121.9H44.5a7.865,7.865,0,0,0,2.476,4.98,7.484,7.484,0,0,0,5.229,1.875,9.139,9.139,0,0,0,7.646-3.545l4.16,4.658a12.71,12.71,0,0,1-5.156,4.2A16.917,16.917,0,0,1,51.65,135.586Zm-.967-26.045a5.291,5.291,0,0,0-4.087,1.707,8.838,8.838,0,0,0-2.007,4.885H56.367v-.677a6.3,6.3,0,0,0-1.523-4.37A5.458,5.458,0,0,0,50.684,109.541Zm47.344,9.9q0,7.324-3.325,11.733a10.661,10.661,0,0,1-8.979,4.409,9.876,9.876,0,0,1-7.764-3.34v14.941H69.492V103.3h7.852l.293,3.105a9.951,9.951,0,0,1,8.027-3.691,10.734,10.734,0,0,1,9.111,4.336q3.252,4.336,3.252,11.953Zm-8.467-.615A12.476,12.476,0,0,0,87.993,112a5.105,5.105,0,0,0-4.556-2.4q-3.984,0-5.479,3.047v12.979q1.553,3.135,5.537,3.135Q89.561,128.76,89.561,118.828Zm31.523-7.588a23,23,0,0,0-3.047-.234q-4.8,0-6.3,3.252V135h-8.467V103.3h8l.234,3.779q2.549-4.365,7.061-4.365a8.872,8.872,0,0,1,2.637.381Zm18.662,24.346a15.561,15.561,0,0,1-11.353-4.277q-4.38-4.277-4.38-11.4v-.82a19.149,19.149,0,0,1,1.846-8.54,13.546,13.546,0,0,1,5.229-5.8,14.678,14.678,0,0,1,7.72-2.036q6.5,0,10.239,4.1t3.735,11.631V121.9H132.6a7.865,7.865,0,0,0,2.476,4.98,7.484,7.484,0,0,0,5.229,1.875,9.139,9.139,0,0,0,7.646-3.545l4.16,4.658a12.71,12.71,0,0,1-5.156,4.2A16.917,16.917,0,0,1,139.746,135.586Zm-.967-26.045a5.291,5.291,0,0,0-4.087,1.707,8.838,8.838,0,0,0-2.007,4.885h11.777v-.677a6.3,6.3,0,0,0-1.523-4.37A5.458,5.458,0,0,0,138.779,109.541Zm35.977,16.7a2.728,2.728,0,0,0-1.538-2.446,17.471,17.471,0,0,0-4.937-1.6q-11.309-2.373-11.309-9.609a8.71,8.71,0,0,1,3.5-7.046,14.122,14.122,0,0,1,9.155-2.827q6.035,0,9.653,2.842a8.956,8.956,0,0,1,3.618,7.383h-8.467a4.1,4.1,0,0,0-1.172-3,4.959,4.959,0,0,0-3.662-1.187,5.067,5.067,0,0,0-3.311.967,3.052,3.052,0,0,0-1.172,2.461,2.609,2.609,0,0,0,1.333,2.271,13.713,13.713,0,0,0,4.5,1.494,36.731,36.731,0,0,1,5.332,1.421q6.709,2.461,6.709,8.525a8.269,8.269,0,0,1-3.721,7.017,16.05,16.05,0,0,1-9.609,2.681,16.764,16.764,0,0,1-7.075-1.421,11.871,11.871,0,0,1-4.849-3.9,9.054,9.054,0,0,1-1.758-5.347H164a4.42,4.42,0,0,0,1.67,3.457,6.624,6.624,0,0,0,4.16,1.2,6.131,6.131,0,0,0,3.677-.923A2.872,2.872,0,0,0,174.756,126.24Zm30.85,0a2.728,2.728,0,0,0-1.538-2.446,17.471,17.471,0,0,0-4.937-1.6q-11.309-2.373-11.309-9.609a8.71,8.71,0,0,1,3.5-7.046,14.122,14.122,0,0,1,9.155-2.827q6.035,0,9.653,2.842a8.956,8.956,0,0,1,3.618,7.383h-8.467a4.1,4.1,0,0,0-1.172-3,4.959,4.959,0,0,0-3.662-1.187,5.067,5.067,0,0,0-3.311.967,3.052,3.052,0,0,0-1.172,2.461,2.609,2.609,0,0,0,1.333,2.271,13.713,13.713,0,0,0,4.5,1.494,36.731,36.731,0,0,1,5.332,1.421q6.709,2.461,6.709,8.525a8.269,8.269,0,0,1-3.721,7.017,16.05,16.05,0,0,1-9.609,2.681,16.764,16.764,0,0,1-7.075-1.421,11.871,11.871,0,0,1-4.849-3.9,9.054,9.054,0,0,1-1.758-5.347h8.027a4.42,4.42,0,0,0,1.67,3.457,6.624,6.624,0,0,0,4.16,1.2,6.131,6.131,0,0,0,3.677-.923A2.872,2.872,0,0,0,205.605,126.24Zm28.271,9.346a15.561,15.561,0,0,1-11.353-4.277q-4.38-4.277-4.38-11.4v-.82a19.149,19.149,0,0,1,1.846-8.54,13.546,13.546,0,0,1,5.229-5.8,14.678,14.678,0,0,1,7.72-2.036q6.5,0,10.239,4.1t3.735,11.631V121.9H226.729a7.865,7.865,0,0,0,2.476,4.98,7.484,7.484,0,0,0,5.229,1.875,9.139,9.139,0,0,0,7.646-3.545l4.16,4.658a12.71,12.71,0,0,1-5.156,4.2A16.917,16.917,0,0,1,233.877,135.586Zm-.967-26.045a5.291,5.291,0,0,0-4.087,1.707,8.838,8.838,0,0,0-2.007,4.885h11.777v-.677a6.3,6.3,0,0,0-1.523-4.37A5.458,5.458,0,0,0,232.91,109.541Zm17.49,9.375q0-7.412,3.325-11.807a10.789,10.789,0,0,1,9.1-4.395,9.709,9.709,0,0,1,7.646,3.457V90h8.5v45h-7.646l-.41-3.369a9.964,9.964,0,0,1-8.145,3.955,10.76,10.76,0,0,1-8.979-4.409Q250.4,126.768,250.4,118.916Zm8.467.63a12.514,12.514,0,0,0,1.553,6.837,5.058,5.058,0,0,0,4.512,2.377,5.665,5.665,0,0,0,5.537-3.316V112.915a5.584,5.584,0,0,0-5.479-3.316Q258.867,109.6,258.867,119.546Zm33.574,2.387a17.625,17.625,0,0,1,1-6.54,13.416,13.416,0,0,1,3.647-4.795,18.649,18.649,0,0,0,3.53-3.843,6.033,6.033,0,0,0,.879-3.125q0-4.959-4.57-4.959a4.63,4.63,0,0,0-3.472,1.336,5.25,5.25,0,0,0-1.362,3.685h-8.5a11.3,11.3,0,0,1,3.618-8.768q3.56-3.167,9.712-3.167,6.211,0,9.639,3.006t3.428,8.49a10.335,10.335,0,0,1-1.113,4.706,19.39,19.39,0,0,1-3.9,4.912l-2.373,2.258a8.045,8.045,0,0,0-2.549,5.014l-.117,1.789Zm-.85,8.979a4.265,4.265,0,0,1,1.333-3.227,5.22,5.22,0,0,1,6.826,0,4.555,4.555,0,0,1,.029,6.41,5.347,5.347,0,0,1-6.885,0A4.23,4.23,0,0,1,291.592,130.913Z" transform="translate(44 -210)" fill="#a72121"/>
      </g>
      <g id="Group_12953" data-name="Group 12953" transform="translate(1435.864 726.084)">
        <g id="Group_12827" data-name="Group 12827" transform="translate(29.157 44.387)">
          <path id="Path_13036" data-name="Path 13036" d="M153.273,287.426l-6.345-22.073a4.945,4.945,0,0,1,.094-3.024l6.345-17.828a4.945,4.945,0,1,1,9.318,3.316l-5.812,16.331,5.906,20.546a4.945,4.945,0,0,1-9.506,2.733Z" transform="translate(-146.735 -241.211)" fill="#5d69ab"/>
        </g>
        <g id="Group_12828" data-name="Group 12828" transform="translate(15.201 40.377)">
          <path id="Path_13037" data-name="Path 13037" d="M77.986,270.24l-1.47-20.692a4.944,4.944,0,0,1,.28-2.026l8.36-23.219a4.945,4.945,0,0,1,9.306,3.35l-8.006,22.236,1.4,19.65a4.945,4.945,0,0,1-9.866.7Z" transform="translate(-76.503 -221.031)" fill="#5d69ab"/>
        </g>
        <path id="Path_13036-2" data-name="Path 13036" d="M72.8,120.659l14.162-5.151L75.34,84.574a6.394,6.394,0,0,0-8.254-3.692L56.434,84.949A6.394,6.394,0,0,0,52.742,93.2l8.511,22.291A8.944,8.944,0,0,0,72.8,120.659Z" transform="translate(-41.923 -68.014)" fill="#d45454"/>
        <ellipse id="Ellipse_4527" data-name="Ellipse 4527" cx="9.038" cy="9.037" rx="9.038" ry="9.037" transform="translate(3.19 0)" fill="#ffb69e"/>
        <g id="Group_12829" data-name="Group 12829" transform="translate(0 16.178)">
          <path id="Path_13039" data-name="Path 13039" d="M15.987,109.152l-.6,1.307-8.1-9.729A4.121,4.121,0,0,0,.955,106l12.283,14.756a4.122,4.122,0,0,0,6.913-.918l3.22-7.016-2.1-4.9Z" transform="translate(-0.001 -99.245)" fill="#ffb69e"/>
          <path id="Path_13059" data-name="Path 13059" d="M89.365,99.616a4.121,4.121,0,0,0-5.464,2.027l-3.444,7.5,7.383,3.673,3.552-7.739A4.121,4.121,0,0,0,89.365,99.616Z" transform="translate(-64.995 -98.191)" fill="#d45454"/>
        </g>
      </g>
      <g id="conversation" transform="matrix(1, 0.017, -0.017, 1, 1488.463, 713.058)">
        <path id="Path_13042" data-name="Path 13042" d="M8.017,27.652l-3.023-13.3L.242,3.841A2.72,2.72,0,1,1,5.2,1.6l4.864,10.763a2.733,2.733,0,0,1,.174.517l3.084,13.565a2.72,2.72,0,0,1-5.3,1.206Z" transform="translate(55.592 27.671)" fill="#414b82"/>
        <path id="Path_13043" data-name="Path 13043" d="M14.017.529l-6-.516A3.379,3.379,0,0,0,4.357,3.09L2.871,20.365,4.51,30.82.176,42.313a2.72,2.72,0,1,0,5.09,1.92L9.853,32.068A2.72,2.72,0,0,0,10,30.686L8.45,20.845l7.159.616L17.095,4.185A3.38,3.38,0,0,0,14.017.529Z" transform="translate(46.81 11.441)" fill="#5f6e9b"/>
        <path id="Path_13044" data-name="Path 13044" d="M12.738,21.461,0,20.365,1.485,3.09A3.379,3.379,0,0,1,5.142.013l6,.516a3.379,3.379,0,0,1,3.077,3.656Z" transform="translate(49.681 11.441)" fill="#64afff"/>
        <g id="Group_12831" data-name="Group 12831" transform="translate(53.167 0)">
          <ellipse id="Ellipse_4528" data-name="Ellipse 4528" cx="5.003" cy="5.003" rx="5.003" ry="5.003" transform="translate(1.102 0)" fill="#ffb69e"/>
          <path id="Path_13045" data-name="Path 13045" d="M7.157,21.063.682,14.732A2.267,2.267,0,0,1,.04,12.689L2.1,1.844a2.267,2.267,0,1,1,4.454.845L4.72,12.34l5.606,5.481a2.267,2.267,0,0,1-3.169,3.241Z" transform="translate(0 12.73)" fill="#ffb69e"/>
        </g>
        <path id="Path_13046" data-name="Path 13046" d="M0,8.141l4.434.951,1.215-6.4A2.267,2.267,0,1,0,1.2,1.844Z" transform="translate(54.07 12.73)" fill="#4699f2"/>
        <path id="Path_13047" data-name="Path 13047" d="M1.042,18.634l-1.027-9a2.267,2.267,0,0,1,.791-1.99L9.247.533A2.267,2.267,0,0,1,12.168,4L4.656,10.33l.889,7.79a2.267,2.267,0,1,1-4.5.514Z" transform="translate(25.884 16.769)" fill="#d4a38f"/>
        <path id="Path_13048" data-name="Path 13048" d="M8.017,27.652l-3.023-13.3L.242,3.841A2.72,2.72,0,1,1,5.2,1.6l4.864,10.763a2.73,2.73,0,0,1,.174.517l3.084,13.565a2.72,2.72,0,0,1-5.3,1.206Z" transform="translate(35.226 31.818)" fill="#414b82"/>
        <path id="Path_13049" data-name="Path 13049" d="M14.017.529l-6-.516A3.379,3.379,0,0,0,4.357,3.09L2.871,20.365,4.51,30.82.176,42.313a2.72,2.72,0,0,0,5.09,1.92L9.853,32.068A2.72,2.72,0,0,0,10,30.686L8.45,20.845l7.159.616L17.095,4.185A3.38,3.38,0,0,0,14.017.529Z" transform="translate(26.443 15.588)" fill="#5f6e9b"/>
        <path id="Path_13050" data-name="Path 13050" d="M12.738,21.461,0,20.365,1.485,3.09A3.379,3.379,0,0,1,5.142.013l6,.516a3.379,3.379,0,0,1,3.077,3.656Z" transform="translate(29.314 15.588)" fill="#719c77"/>
        <g id="Group_12832" data-name="Group 12832" transform="translate(33.903 4.146)">
          <ellipse id="Ellipse_4529" data-name="Ellipse 4529" cx="5.003" cy="5.003" rx="5.003" ry="5.003" fill="#d4a38f"/>
          <path id="Path_13051" data-name="Path 13051" d="M12.707,18.152l-8.53-3.039a2.266,2.266,0,0,1-1.439-1.587L.068,2.816a2.267,2.267,0,1,1,4.4-1.1l2.376,9.531,7.386,2.631a2.267,2.267,0,0,1-1.521,4.27Z" transform="translate(0.474 12.622)" fill="#d4a38f"/>
        </g>
        <path id="Path_13052" data-name="Path 13052" d="M1.618,9.035l4.424-.992L4.467,1.719a2.267,2.267,0,1,0-4.4,1.1Z" transform="translate(34.376 16.769)" fill="#5c7d60"/>
        <path id="Path_13053" data-name="Path 13053" d="M16.118.848,10.155.032a3.375,3.375,0,0,0-3.8,2.886L4.006,20.071,5.128,30.609.216,42.191a2.716,2.716,0,0,0,5,2.121L10.4,32.082a2.714,2.714,0,0,0,.2-1.346l-1.048-9.9,7.1.972L19,4.649A3.374,3.374,0,0,0,16.118.848Z" transform="translate(0 15.62)" fill="#5f6e9b"/>
        <path id="Path_13054" data-name="Path 13054" d="M2.61,26.98,1.976,14.394.04,3.178a2.716,2.716,0,0,1,5.353-.924L7.356,13.632a2.715,2.715,0,0,1,.036.325l.643,12.75a2.716,2.716,0,1,1-5.425.273Z" transform="translate(10.714 32.028)" fill="#414b82"/>
        <path id="Path_13055" data-name="Path 13055" d="M12.649,21.8,0,20.071,2.349,2.917A3.375,3.375,0,0,1,6.15.032l5.962.816A3.375,3.375,0,0,1,15,4.649Z" transform="translate(4.006 15.62)" fill="#ffdc64"/>
        <g id="Group_12833" data-name="Group 12833" transform="translate(11.182 4.536)">
          <path id="Path_13056" data-name="Path 13056" d="M5.674.047A5,5,0,1,0,7.894,9.063l-.013-.011c.826-.7,1.815-1.3,2.108-4.073A5,5,0,0,0,5.674.047Z" transform="translate(0.544 0)" fill="#ffb69e"/>
          <path id="Path_13057" data-name="Path 13057" d="M8.491,9.239,1.036,4.264A2.328,2.328,0,0,1,3.62.392l6.416,4.282,7.648-3.2a2.328,2.328,0,0,1,1.8,4.294l-8.8,3.687A2.328,2.328,0,0,1,8.491,9.239Z" transform="translate(0 12.618)" fill="#ffb69e"/>
        </g>
        <path id="Path_13058" data-name="Path 13058" d="M8.2,3.447,3.62.392A2.328,2.328,0,1,0,1.036,4.264L5.968,7.556Z" transform="translate(11.182 17.154)" fill="#ffc305"/>
      </g>
      <g id="Mask_Group_9760" data-name="Mask Group 9760" transform="translate(1767.836 1279.922)" clip-path="url(#clip-path)">
        <g id="Group_13063" data-name="Group 13063" transform="translate(9.587 6.629)">
          <g id="Group_13062" data-name="Group 13062" transform="translate(0 0)">
            <path id="Path_13895" data-name="Path 13895" d="M310.17,61.535H273.109L255.55,59.482,265,48.126a8.019,8.019,0,1,0-12.327-10.26L233.755,60.6a8.024,8.024,0,0,0,5.232,13.094l28.467,3.329v61.359h42.473V77.572h.242C311.855,77.572,310.17,61.535,310.17,61.535Z" transform="translate(-231.894 -21.05)" fill="#ffb69e"/>
            <path id="Path_13896" data-name="Path 13896" d="M232.643,61.535H269.7l17.559-2.053-9.453-11.356a8.019,8.019,0,0,1,12.327-10.26L309.058,60.6a8.024,8.024,0,0,1-5.232,13.094L275.359,77.02v61.359H232.886V77.572h-.242C230.958,77.572,232.643,61.535,232.643,61.535Z" transform="translate(-197.824 -21.05)" fill="#ffb69e"/>
            <ellipse id="Ellipse_4588" data-name="Ellipse 4588" cx="16.619" cy="16.619" rx="16.619" ry="16.619" transform="translate(40.202)" fill="#ffb69e"/>
          </g>
          <path id="Union_166" data-name="Union 166" d="M15.579,78.9h-.5V18.09h-.243c-.214,0-.374-.259-.49-.711L0,15.658,3.673,0,21.225,2.053h8.066a7.6,7.6,0,0,0,7.255,7.453A7.594,7.594,0,0,0,43.84,2.055H51.9L69.457,0l3.674,15.657L58.784,17.378c-.116.453-.276.713-.49.713h-.243V78.9Z" transform="translate(19.982 38.431)" fill="#d45454"/>
        </g>
      </g>
      <ellipse id="Ellipse_4589" data-name="Ellipse 4589" cx="13.55" cy="13.55" rx="13.55" ry="13.55" transform="translate(1766.36 947.089) rotate(-13.3)" fill="#ffb69e"/>
      <g id="Group_13064" data-name="Group 13064" transform="translate(1751.401 967.44)">
        <path id="Path_13899" data-name="Path 13899" d="M24.443,43.157H8.926A8.474,8.474,0,0,1,.452,34.683L0,0H32.464l.452,34.683a8.472,8.472,0,0,1-8.472,8.474Z" transform="matrix(-0.995, 0.105, -0.105, -0.995, 69.003, 42.957)" fill="#d45454"/>
        <g id="XMLID_857_" transform="matrix(-0.695, 0.719, -0.719, -0.695, 63.642, 39.239)">
          <g id="Group_12944" data-name="Group 12944" transform="translate(0 0)">
            <path id="Path_13310" data-name="Path 13310" d="M29.3.645,8.193,11.085a6.206,6.206,0,0,0-2.239,1.874L0,21.015l3.048,7.073,6.96.265,5.034-6.811L34.8,11.768A6.2,6.2,0,1,0,29.3.645Z" transform="matrix(0.883, 0.469, -0.469, 0.883, 13.311, 0)" fill="#ffb69e"/>
          </g>
        </g>
        <g id="XMLID_856_" transform="matrix(-0.966, -0.259, 0.259, -0.966, 54.896, 36.344)">
          <g id="Group_12945" data-name="Group 12945" transform="translate(0 0)">
            <path id="Path_13311" data-name="Path 13311" d="M20.383,7.338,11.195,19.77a6.2,6.2,0,1,1-9.98-7.375L10.375,0Z" transform="matrix(0.839, -0.545, 0.545, 0.839, 0, 11.101)" fill="#d45454"/>
          </g>
        </g>
      </g>
    </g>
  </g>
</svg>
