<svg xmlns="http://www.w3.org/2000/svg" viewBox="0 0 31.26 31.13"><defs><style>.cls-1{fill:none;stroke:#000;stroke-linecap:round;stroke-miterlimit:10;stroke-width:1.5px;}</style></defs><title>Asset 5</title><g id="Layer_2" data-name="Layer 2"><g id="Layer_1-2" data-name="Layer 1"><rect x="17.69" y="2.02" width="5.78" height="17.33" transform="translate(27.57 32.79) rotate(-135)"/><path d="M25.75.89h5.78a0,0,0,0,1,0,0v1.9A1.56,1.56,0,0,1,30,4.35H27.32a1.56,1.56,0,0,1-1.56-1.56V.89a0,0,0,0,1,0,0Z" transform="translate(47.04 24.73) rotate(-135)"/><polygon points="11.08 20.18 15.59 18.98 12.29 15.67 11.08 20.18"/><path class="cls-1" d="M10.72,4.28H4.28A3.53,3.53,0,0,0,.75,7.81v19a3.53,3.53,0,0,0,3.53,3.53H24.22a3.53,3.53,0,0,0,3.53-3.53V20"/></g></g></svg>