<svg xmlns="http://www.w3.org/2000/svg" xmlns:xlink="http://www.w3.org/1999/xlink" width="20" height="20" viewBox="0 0 20 20"><defs><filter id="a" x="0" y="0" width="20" height="20" filterUnits="userSpaceOnUse"><feOffset dy="1" input="SourceAlpha"/><feGaussianBlur stdDeviation="1" result="b"/><feFlood flood-opacity="0.161"/><feComposite operator="in" in2="b"/><feComposite in="SourceGraphic"/></filter></defs><g transform="translate(-1693 -253)"><g transform="matrix(1, 0, 0, 1, 1693, 253)" filter="url(#a)"><circle cx="7" cy="7" r="7" transform="translate(3 2)" fill="#fff"/></g><g transform="translate(1700.177 259.178)" fill="#fff"><path d="M 5.108740329742432 5.14525032043457 C 5.09276008605957 5.14525032043457 5.084100246429443 5.136590003967285 5.081250190734863 5.133749961853027 L 3.177080154418945 3.229950189590454 L 2.823520183563232 2.87647008895874 L 2.470010280609131 3.229990005493164 L 0.5662502646446228 5.133749961853027 C 0.5634002685546875 5.136590003967285 0.5547402501106262 5.14525032043457 0.5391002297401428 5.14525032043457 C 0.5234602689743042 5.14525032043457 0.5148002505302429 5.136590003967285 0.5119502544403076 5.133749961853027 C 0.5091002583503723 5.130899906158447 0.5004302859306335 5.122230052947998 0.5004502534866333 5.106220245361328 C 0.5004702806472778 5.090889930725098 0.5085402727127075 5.082849979400635 0.5112002491950989 5.080210208892822 L 2.415640354156494 3.17576003074646 L 2.769230365753174 2.82217001914978 L 2.415610313415527 2.46862006187439 L 0.5119202733039856 0.5653101205825806 C 0.4976202547550201 0.5509501099586487 0.497270256280899 0.5257400870323181 0.5119502544403076 0.5110501050949097 C 0.5148002505302429 0.5082101225852966 0.5234602689743042 0.4995501041412354 0.539550244808197 0.4995501041412354 C 0.5556402802467346 0.4995501041412354 0.5643002390861511 0.5082101225852966 0.5671502351760864 0.5110501050949097 L 2.470200300216675 2.414100170135498 L 2.823750257492065 2.767660140991211 L 3.177300214767456 2.414100170135498 L 5.081250190734863 0.5101500749588013 C 5.083930492401123 0.5074800848960876 5.092080116271973 0.4993301033973694 5.108060359954834 0.4993301033973694 C 5.119080066680908 0.4993301033973694 5.128580093383789 0.5032200813293457 5.136300086975098 0.5109100937843323 C 5.149880409240723 0.5245500802993774 5.150230407714844 0.549760103225708 5.135550022125244 0.5644500851631165 L 3.231600284576416 2.468400001525879 L 2.878040313720703 2.821950197219849 L 3.231600284576416 3.175500154495239 L 5.135550022125244 5.079450130462646 C 5.138400077819824 5.082300186157227 5.147070407867432 5.090970039367676 5.147050380706787 5.106980323791504 C 5.147030353546143 5.122310161590576 5.138960361480713 5.130350112915039 5.136300086975098 5.132989883422852 C 5.132140159606934 5.137160301208496 5.124090194702148 5.14525032043457 5.108740329742432 5.14525032043457 Z" stroke="none"/><path d="M 5.108740329742432 5.64525032043457 C 4.970930099487305 5.64525032043457 4.833000183105469 5.592599868774414 4.727700233459473 5.487299919128418 L 2.823560237884521 3.583540201187134 L 0.9198002815246582 5.487299919128418 C 0.8145002722740173 5.592599868774414 0.6768002510070801 5.64525032043457 0.5391002297401428 5.64525032043457 C 0.4014002680778503 5.64525032043457 0.2637002468109131 5.592599868774414 0.1584002524614334 5.487299919128418 C -0.05219974368810654 5.276700019836426 -0.05219974368810654 4.935600280761719 0.1584002524614334 4.725900173187256 L 2.062090158462524 2.822210073471069 L 0.1584002524614334 0.9189000725746155 C -0.05129974335432053 0.7083001136779785 -0.05129974335432053 0.36720010638237 0.1584002524614334 0.1575000882148743 C 0.2637002468109131 0.05220009386539459 0.4016252458095551 -0.000449906918220222 0.539550244808197 -0.000449906918220222 C 0.6774752736091614 -0.000449906918220222 0.815400242805481 0.05220009386539459 0.9207002520561218 0.1575000882148743 L 2.823750257492065 2.060549974441528 L 4.727700233459473 0.1566000878810883 C 4.832550048828125 0.05175009369850159 4.970250129699707 -0.0006749069434590638 5.108062744140625 -0.0006749069434590638 C 5.245875358581543 -0.0006749069434590638 5.383800029754639 0.05175009369850159 5.489100456237793 0.1566000878810883 C 5.698800086975098 0.36720010638237 5.698800086975098 0.7083001136779785 5.489100456237793 0.9180001020431519 L 3.585150241851807 2.821950197219849 L 5.489100456237793 4.725900173187256 C 5.699700355529785 4.936500072479248 5.699700355529785 5.277600288391113 5.489100456237793 5.487299919128418 C 5.384250164031982 5.592599868774414 5.2465500831604 5.64525032043457 5.108740329742432 5.64525032043457 Z" stroke="none" fill="#707070"/></g></g></svg>