<svg xmlns="http://www.w3.org/2000/svg" viewBox="0 0 42.83 46.82"><defs><style>.cls-1{fill:none;stroke:#f4907f;stroke-linecap:round;stroke-miterlimit:10;stroke-width:2px;}.cls-2{fill:#f4907f;}</style></defs><title>delete</title><g id="Layer_2" data-name="Layer 2"><g id="Layer_1-2" data-name="Layer 1"><path class="cls-1" d="M21.91,7.43H5.57A4.57,4.57,0,0,0,1,12V36.64a4.57,4.57,0,0,0,4.57,4.58h8"/><path class="cls-2" d="M35.51,1.34H43a0,0,0,0,1,0,0V4.26a1.56,1.56,0,0,1-1.56,1.56H37.08a1.56,1.56,0,0,1-1.56-1.56V1.34a0,0,0,0,1,0,0Z" transform="translate(64.47 33.86) rotate(-135)"/><path class="cls-2" d="M18.55,19l2-.58a.23.23,0,0,1,.28.28l-.48,1.67a.23.23,0,0,0,.28.28l1.67-.48a.23.23,0,0,1,.28.28l-.48,1.67a.23.23,0,0,0,.28.28L24.1,22a.23.23,0,0,1,.28.28l-.54,2L39.5,8.6,34.22,3.32Z"/><path class="cls-2" d="M22.9,24.85l.44-1.55a.23.23,0,0,0-.28-.28l-1.67.48a.23.23,0,0,1-.28-.28l.48-1.67a.23.23,0,0,0-.28-.28l-1.67.48a.23.23,0,0,1-.28-.28l.48-1.67a.23.23,0,0,0-.28-.28L18,19.92a1.34,1.34,0,0,0-.92.92l-1.94,6.86L22,25.77A1.34,1.34,0,0,0,22.9,24.85Z"/><path class="cls-2" d="M29.44,24.82a11,11,0,1,0,11,11A11,11,0,0,0,29.44,24.82Zm6.71,16a1,1,0,1,1-1.41,1.41l-5-5-5,5a1,1,0,0,1-1.41-1.41l5-5-5-5a1,1,0,0,1,1.41-1.41l5,5,5-5a1,1,0,0,1,1.41,1.41l-5,5Z"/></g></g></svg>