<svg xmlns="http://www.w3.org/2000/svg" viewBox="0 0 41.76 41.76"><defs><style>.cls-1{fill:#f4907f;}</style></defs><title>edit</title><g id="Layer_2" data-name="Layer 2"><g id="Layer_1-2" data-name="Layer 1"><path class="cls-1" d="M30.5,2.32H41.67a0,0,0,0,1,0,0V7.46A1.56,1.56,0,0,1,40.11,9h-8A1.56,1.56,0,0,1,30.5,7.46V2.32A0,0,0,0,1,30.5,2.32Z" transform="translate(57.59 35.2) rotate(-135)"/><path class="cls-1" d="M5.13,28.76l3-.86a.34.34,0,0,1,.43.43l-.71,2.5a.34.34,0,0,0,.43.43l2.5-.71a.34.34,0,0,1,.43.43l-.71,2.5a.34.34,0,0,0,.43.43l2.5-.71a.34.34,0,0,1,.43.43l-.81,3L36.47,13.19l-7.9-7.9Z"/><path class="cls-1" d="M11.64,37.48l.66-2.32a.34.34,0,0,0-.43-.43l-2.5.71A.34.34,0,0,1,9,35l.71-2.5a.34.34,0,0,0-.43-.43l-2.5.71a.34.34,0,0,1-.43-.43L7,29.88a.34.34,0,0,0-.43-.43l-2.33.66A2,2,0,0,0,2.9,31.49L0,41.76l10.26-2.9A2,2,0,0,0,11.64,37.48Z"/></g></g></svg>