<svg xmlns="http://www.w3.org/2000/svg" width="24" height="24" viewBox="0 0 24 24"><rect width="24" height="24" fill="none"/><g transform="translate(-0.868)"><path d="M2.733,21.461A2.737,2.737,0,0,1,0,18.728V4.814A2.737,2.737,0,0,1,2.733,2.081H9.691a.746.746,0,0,1,0,1.491H2.733A1.244,1.244,0,0,0,1.491,4.814V18.728A1.243,1.243,0,0,0,2.733,19.97H16.648a1.243,1.243,0,0,0,1.242-1.242V11.771a.746.746,0,0,1,1.491,0v6.957a2.736,2.736,0,0,1-2.733,2.733Zm3.45-6.182a.744.744,0,0,1-.2-.707L6.979,10.6a.75.75,0,0,1,.2-.346L16.619.809a2.92,2.92,0,0,1,4.035,0,2.857,2.857,0,0,1,0,4.034l-9.442,9.442a.768.768,0,0,1-.346.2l-3.976.994a.8.8,0,0,1-.18.022A.739.739,0,0,1,6.183,15.279ZM17.671,1.862l-9.3,9.295-.642,2.571,2.571-.642,9.3-9.3a1.364,1.364,0,0,0-1.929-1.928Z" transform="translate(2.25 1.277)" fill="#fff" stroke="rgba(0,0,0,0)" stroke-miterlimit="10" stroke-width="1"/></g></svg>