<svg xmlns="http://www.w3.org/2000/svg" viewBox="0 0 43.29 42.68"><defs><style>.cls-1{fill:none;stroke:#000;stroke-linecap:round;stroke-miterlimit:10;stroke-width:3px;}</style></defs><title>post</title><g id="Layer_2" data-name="Layer 2"><g id="Layer_1-2" data-name="Layer 1"><path class="cls-1" d="M14.4,7.43H6.06A4.57,4.57,0,0,0,1.5,12V36.61a4.57,4.57,0,0,0,4.56,4.57H31.85a4.57,4.57,0,0,0,4.56-4.57V27.8"/><path d="M36,1.34h7.47a0,0,0,0,1,0,0V4.26a1.56,1.56,0,0,1-1.56,1.56H37.54A1.56,1.56,0,0,1,36,4.26V1.34a0,0,0,0,1,0,0Z" transform="translate(65.26 34.19) rotate(-135)"/><path d="M19,19l2-.58a.23.23,0,0,1,.28.28l-.48,1.67a.23.23,0,0,0,.28.28l1.67-.48a.23.23,0,0,1,.28.28l-.48,1.67a.23.23,0,0,0,.28.28L24.56,22a.23.23,0,0,1,.28.28l-.54,2L40,8.6,34.68,3.32Z"/><path d="M23.36,24.85l.44-1.55a.23.23,0,0,0-.28-.28l-1.67.48a.23.23,0,0,1-.28-.28L22,21.53a.23.23,0,0,0-.28-.28l-1.67.48a.23.23,0,0,1-.28-.28l.48-1.67a.23.23,0,0,0-.28-.28l-1.55.44a1.34,1.34,0,0,0-.92.92l-1.94,6.86,6.86-1.94A1.34,1.34,0,0,0,23.36,24.85Z"/></g></g></svg>