<svg xmlns="http://www.w3.org/2000/svg" viewBox="0 0 48.65 41.35"><defs><style>.cls-1{fill:#f4907f;}.cls-2{fill:#fff;}</style></defs><title>suicide</title><g id="Layer_2" data-name="Layer 2"><g id="Layer_1-2" data-name="Layer 1"><path class="cls-1" d="M48.37,38.66,25.7.77a1.62,1.62,0,0,0-2.75,0L.28,38.66a1.73,1.73,0,0,0,1.37,2.69H47A1.73,1.73,0,0,0,48.37,38.66Z"/><path class="cls-2" d="M23.86,10.35h0A8.89,8.89,0,0,0,15,19.24v2.39a4.09,4.09,0,0,0,1.46,3.13,13.67,13.67,0,0,1,1.19,1.08,2.25,2.25,0,0,1,.71,1.55c0,.36.1,1.39.1,1.43,0,.94,2,1.26,2,1.2V28.65a.51.51,0,1,1,1,0V30a2.93,2.93,0,0,0,1,0V28.65a.51.51,0,0,1,1,0V30a2.93,2.93,0,0,0,1,0V28.65a.51.51,0,1,1,1,0V30a2.93,2.93,0,0,0,1,0V28.65a.51.51,0,1,1,1,0V30s1.79,0,1.79-.85c0,0,0-1.38,0-1.72A2,2,0,0,1,30,26a14.76,14.76,0,0,1,1.3-1.19,4.09,4.09,0,0,0,1.47-3.13V19.24A8.89,8.89,0,0,0,23.86,10.35Zm-3.55,9.57a2.22,2.22,0,1,1,2.22-2.22A2.22,2.22,0,0,1,20.31,19.93Zm3.59,4.79c-1.13,0-3.08.51-3.08-.34s1.94-1,3.08-1,3.42.18,3.42,1S25,24.71,23.9,24.71ZM27,19.93a2.22,2.22,0,1,1,2.22-2.22A2.22,2.22,0,0,1,27,19.93Z"/><path class="cls-2" d="M33.32,34.56a1.64,1.64,0,0,0-1.94.56L17.3,29.4a1.64,1.64,0,1,0-3.24.06,1.64,1.64,0,1,0,2.37,2.17l14,5.7a1.64,1.64,0,1,0,3.21.1,1.64,1.64,0,0,0-.34-2.86Z"/><path class="cls-2" d="M33.32,32.32a1.64,1.64,0,0,1-1.94-.56L17.3,37.48a1.64,1.64,0,1,1-3.24-.06,1.64,1.64,0,1,1,2.37-2.17l14-5.7a1.64,1.64,0,1,1,3.21-.1,1.64,1.64,0,0,1-.34,2.86Z"/></g></g></svg>