<svg xmlns="http://www.w3.org/2000/svg" xmlns:xlink="http://www.w3.org/1999/xlink" width="305.857" height="223.147" viewBox="0 0 305.857 223.147"><defs><linearGradient id="a" x1="0.5" y1="1" x2="0.5" gradientUnits="objectBoundingBox"><stop offset="0" stop-color="gray" stop-opacity="0.251"/><stop offset="0.54" stop-color="gray" stop-opacity="0.122"/><stop offset="1" stop-color="gray" stop-opacity="0.102"/></linearGradient></defs><g transform="translate(-11.988)" opacity="0.6"><g transform="translate(-0.012 17.499)" opacity="0.1"><path d="M71.547,129.4c2.852,4.963,1.272,11.4-1.826,16.216s-7.5,8.631-10.937,13.221c-6.825,9.159-8.589,23.622.017,31.148,1.854,1.622,4.146,2.9,5.276,5.091,1.56,3.017.405,6.651-.772,9.847l-.1.263a22.429,22.429,0,0,0,14.387,29.205c6.8,2.094,12.931,5.488,17.471,10.976,3.967,4.8,6.26,10.716,8.877,16.364,4.731,10.2,10.837,19.957,19.274,27.385s19.448,12.352,30.687,11.947c25.671-.925,44.574-27.958,70.22-29.381a8.777,8.777,0,0,1,5.362.984c2.181,1.437,2.849,4.258,3.766,6.71,4.856,12.981,19.478,18.964,32.571,23.51l24.6,8.55c13.364,4.641,27.4,9.352,41.378,7.2s27.628-13.63,27.022-27.765c-.5-11.611-10.121-21.83-8.86-33.385.872-7.985,6.853-14.692,7.853-22.663,1.043-8.3-3.492-16.26-8.712-22.791-15.019-18.8-36.424-31.19-57.314-43.142-14.714-8.421-29.5-16.876-45.345-22.926-39.052-14.876-81.973-14.236-123.575-18.3-7.154-.7-14.633-1.521-21.189-4.683-5.032-2.427-8.966-8.038-14.488-9.226-4.208-.906-10.431.965-14.1,3.008C66.394,120.516,68.24,123.639,71.547,129.4Z" transform="translate(-40.988 -113.521)" fill="#f4bb56"/></g><path d="M441.791,50.93h-224.7A7.828,7.828,0,0,0,209.3,58.8V216.82a7.828,7.828,0,0,0,7.795,7.87h224.7a7.828,7.828,0,0,0,7.795-7.87V58.8a7.828,7.828,0,0,0-7.795-7.87Z" transform="translate(-165.61 -50.93)" fill="url(#a)"/><path d="M451.417,110.81V258.074a7.728,7.728,0,0,1-7.728,7.728H220.978a7.728,7.728,0,0,1-7.728-7.728V110.81Z" transform="translate(-168.456 -94.069)" fill="#f6f7f9"/><path d="M271.428,382.3v79.085h-50.45a7.806,7.806,0,0,1-7.728-7.879V382.3Z" transform="translate(-168.456 -289.655)" fill="#dde1ec"/><rect width="96.964" height="2.726" transform="translate(120.245 34.772)" fill="#dde1ec"/><rect width="58.48" height="2.726" transform="translate(120.245 54.163)" fill="#dde1ec"/><rect width="19.697" height="2.726" transform="translate(191.756 54.163)" fill="#dde1ec"/><g transform="translate(62.671 122.188)" opacity="0.1"><rect width="19.697" height="2.726" fill="#6c63ff"/></g><rect width="19.697" height="2.726" transform="translate(191.756 79.616)" fill="#dde1ec"/><rect width="19.697" height="2.726" transform="translate(191.756 105.069)" fill="#dde1ec"/><rect width="19.697" height="2.726" transform="translate(191.756 62.649)" fill="#dde1ec"/><rect width="19.697" height="2.726" transform="translate(225.692 62.649)" fill="#dde1ec"/><rect width="19.697" height="2.726" transform="translate(191.756 71.131)" fill="#dde1ec"/><rect width="19.697" height="2.726" transform="translate(225.692 71.131)" fill="#dde1ec"/><rect width="19.697" height="2.726" transform="translate(225.692 86.888)" fill="#dde1ec"/><rect width="19.697" height="2.726" transform="translate(225.692 95.374)" fill="#dde1ec"/><rect width="19.697" height="2.726" transform="translate(225.692 113.555)" fill="#dde1ec"/><rect width="58.48" height="2.726" transform="translate(120.245 62.649)" fill="#dde1ec"/><rect width="58.48" height="2.726" transform="translate(120.245 71.131)" fill="#dde1ec"/><rect width="58.48" height="2.726" transform="translate(120.245 79.616)" fill="#dde1ec"/><rect width="58.48" height="2.726" transform="translate(120.245 88.102)" fill="#dde1ec"/><rect width="58.48" height="2.726" transform="translate(120.245 96.584)" fill="#dde1ec"/><rect width="58.48" height="2.726" transform="translate(120.245 105.069)" fill="#dde1ec"/><rect width="58.48" height="2.726" transform="translate(120.245 113.555)" fill="#dde1ec"/><rect width="58.178" height="77.57" transform="translate(44.794 16.59)" fill="#f4bb56"/><path d="M451.417,62.725A7.728,7.728,0,0,0,443.689,55H220.978a7.728,7.728,0,0,0-7.728,7.728v8.787H451.417Z" transform="translate(-168.456 -53.862)" fill="#e8eaf1"/><path d="M290.555,205.26a16.89,16.89,0,0,1-3.78,10.672c-.092.115-.185.226-.28.338h0a.46.46,0,0,0-.05.062,17.057,17.057,0,0,1-2.927,2.681l-.14.1c-.193.137-.389.28-.587.4l-.137.087-.294.182a1.516,1.516,0,0,1-.134.075.9.9,0,0,1-.115.07q-.646.377-1.331.7c-.05.028-.106.05-.159.075s-.115.056-.176.078-.182.081-.28.117a16.513,16.513,0,0,1-3.028.951,16.921,16.921,0,0,1-3.005.366h-.554a16.943,16.943,0,0,1-3.962-.456l-.243-.059q-.856-.224-1.677-.52c-.333-.123-.663-.257-.984-.4-.081-.036-.159-.07-.24-.109l-.243-.109-.212-.109h0l-.224-.115-.249-.131-.28-.159-.045-.025a17.036,17.036,0,0,1-3.293-2.435c-.084-.081-.171-.159-.252-.246s-.176-.173-.26-.263a16.968,16.968,0,1,1,29.141-11.815Z" transform="translate(-199.7 -149.883)" fill="#fff"/><ellipse cx="7.043" cy="2.586" rx="7.043" ry="2.586" transform="translate(42.155 153.169)" fill="#cd9494"/><ellipse cx="3.593" cy="1.32" rx="3.593" ry="1.32" transform="translate(45.605 154.147)" opacity="0.05"/><path d="M202.853,606s7.761,4.311,14.085.576c0,0-.861,14.949-5.175,16.386h-5.745S201.13,612.889,202.853,606Z" transform="translate(-160.701 -450.813)" fill="#ff7361"/><path d="M182.122,482.28c1.977,7.222-6.45,27.793-6.45,27.793s-17.723-13.42-19.7-20.639a13.555,13.555,0,0,1,26.149-7.154Z" transform="translate(-126.844 -354.492)" fill="#f4bb56"/><path d="M191.45,474.17s11.032,16.655,10.2,37.288" transform="translate(-152.751 -355.84)" fill="none" stroke="#dfae59" stroke-miterlimit="10" stroke-width="1"/><path d="M238.017,553.468S228,548.024,229.28,568.115c0,0,8.346-.3,11.306-7.107a5.9,5.9,0,0,0-2.421-7.456Z" transform="translate(-179.923 -412.483)" fill="#fbc86f"/><path d="M238.472,555.32s-1.292,10.428-8.9,14.614" transform="translate(-180.213 -414.302)" fill="none" stroke="#dfae59" stroke-miterlimit="10" stroke-width="1"/><path d="M224.417,608.495c-.28,3.439-1.485,14.119-5.094,15.324H214.17c.165.366.266.576.266.576h5.751c4.308-1.44,5.172-16.395,5.172-16.395A10.461,10.461,0,0,1,224.417,608.495Z" transform="translate(-169.119 -452.254)" opacity="0.05"/><rect width="58.48" height="33.938" transform="translate(120.245 132.189)" fill="#dde1ec"/><g transform="translate(283.415 101.695) rotate(83)"><path d="M6.593,81.66,81.738,2.994a9.7,9.7,0,0,1,13.7-.313h0a9.7,9.7,0,0,1,.313,13.7L20.616,95.057,0,102.606Z" transform="translate(0.011 0)" fill="#f4bb56"/><path d="M91.353,1.2h0a9.7,9.7,0,0,1,.313,13.7L16.523,93.567,1.046,99.229,0,102.517l20.616-7.549L95.771,16.33a9.7,9.7,0,0,0-.313-13.7h0A9.651,9.651,0,0,0,89.779,0a9.735,9.735,0,0,1,1.574,1.2Z" transform="translate(0 0.083)" fill="#fff" opacity="0.1"/><path d="M6.593,0,20.616,13.395,3.7,19.585,0,20.938l2.346-7.445Z" transform="translate(0.011 81.662)" fill="#efc8c4"/><path d="M2.357,0A4.124,4.124,0,0,1,3.8.579a1.643,1.643,0,0,1,.738,1.61,3.864,3.864,0,0,1-.582,1.054,3.291,3.291,0,0,0-.243,2.852L0,7.448Z" transform="translate(0 95.152)" fill="#727a9c"/></g><path d="M897.41,386.074s1.328-.316,7.993-1.322,18.326,1.334,18.326,1.334" transform="translate(-661.338 -291.24)" opacity="0.05"/></g></svg>