<svg xmlns="http://www.w3.org/2000/svg" width="78" height="78" viewBox="0 0 78 78">
  <g id="Support_Group" data-name="Support Group" transform="translate(-18.736 -479.736)">
    <g id="Group_11153" data-name="Group 11153" transform="translate(25.719 493.377)">
      <g id="Group_11152" data-name="Group 11152" transform="translate(0 0)">
        <g id="Group_11157" data-name="Group 11157" transform="translate(0)">
          <g id="Subtraction_32" data-name="Subtraction 32" transform="translate(0 5.509)" fill="#202020">
            <path d="M 63.48550033569336 28.4413013458252 L 55.67477798461914 28.4413013458252 C 55.62862396240234 23.38077735900879 53.01657867431641 18.81360054016113 48.75333786010742 16.21051216125488 C 49.04067611694336 16.17390441894531 49.33107757568359 16.1555004119873 49.62329864501953 16.1555004119873 L 56.65589904785156 16.1555004119873 C 60.42174911499023 16.1555004119873 63.48550033569336 19.21965026855469 63.48550033569336 22.98600006103516 L 63.48550033569336 28.4413013458252 Z M 10.58505344390869 28.4413013458252 L 0.5000001788139343 28.4413013458252 L 0.5000001788139343 22.98600006103516 C 0.5000001788139343 19.21965026855469 3.563750267028809 16.1555004119873 7.32960033416748 16.1555004119873 L 14.36310005187988 16.1555004119873 C 15.22152042388916 16.1555004119873 16.07276916503906 16.31815528869629 16.86586380004883 16.63039207458496 C 13.00690078735352 19.29488563537598 10.63009929656982 23.73154449462891 10.58505344390869 28.4413013458252 Z M 53.15670013427734 12.86680030822754 C 49.75064086914063 12.86680030822754 46.97959899902344 10.09576034545898 46.97959899902344 6.689700603485107 C 46.97959899902344 3.276690721511841 49.75064086914063 0.5000006556510925 53.15670013427734 0.5000006556510925 C 56.56970977783203 0.5000006556510925 59.34640121459961 3.276690721511841 59.34640121459961 6.689700603485107 C 59.34640121459961 10.09576034545898 56.56970977783203 12.86680030822754 53.15670013427734 12.86680030822754 Z M 10.87650012969971 12.86680030822754 C 7.47044038772583 12.86680030822754 4.699399948120117 10.09576034545898 4.699399948120117 6.689700603485107 C 4.699399948120117 3.276690721511841 7.47044038772583 0.5000006556510925 10.87650012969971 0.5000006556510925 C 14.28207015991211 0.5000006556510925 17.05270004272461 3.276690721511841 17.05270004272461 6.689700603485107 C 17.05270004272461 10.09576034545898 14.28207015991211 12.86680030822754 10.87650012969971 12.86680030822754 Z" stroke="none"/>
            <path d="M 62.98550033569336 27.9413013458252 L 62.98550033569336 22.98600006103516 C 62.98550033569336 19.4953498840332 60.14604949951172 16.6555004119873 56.65589904785156 16.6555004119873 L 50.29084777832031 16.6555004119873 C 53.81251525878906 19.33359336853027 55.97594451904297 23.42701148986816 56.16228485107422 27.9413013458252 L 62.98550033569336 27.9413013458252 M 10.09813594818115 27.9413013458252 C 10.28604030609131 23.59005165100098 12.39046669006348 19.5083122253418 15.77725028991699 16.81554794311523 C 15.31510543823242 16.70973205566406 14.84028911590576 16.6555004119873 14.36310005187988 16.6555004119873 L 7.32960033416748 16.6555004119873 C 3.839450120925903 16.6555004119873 1.00000011920929 19.4953498840332 1.00000011920929 22.98600006103516 L 1.00000011920929 27.9413013458252 L 10.09813594818115 27.9413013458252 M 53.15670013427734 12.36680030822754 C 56.29401016235352 12.36680030822754 58.84640121459961 9.820060729980469 58.84640121459961 6.689700603485107 C 58.84640121459961 3.552390575408936 56.29401016235352 1.000000715255737 53.15670013427734 1.000000715255737 C 50.02634048461914 1.000000715255737 47.47959899902344 3.552390575408936 47.47959899902344 6.689700603485107 C 47.47959899902344 9.820060729980469 50.02634048461914 12.36680030822754 53.15670013427734 12.36680030822754 M 10.87650012969971 12.36680030822754 C 14.00637054443359 12.36680030822754 16.55270004272461 9.820060729980469 16.55270004272461 6.689700603485107 C 16.55270004272461 3.552390575408936 14.00637054443359 1.000000715255737 10.87650012969971 1.000000715255737 C 7.746140003204346 1.000000715255737 5.199399948120117 3.552390575408936 5.199399948120117 6.689700603485107 C 5.199399948120117 9.820060729980469 7.746140003204346 12.36680030822754 10.87650012969971 12.36680030822754 M 63.98550033569336 28.9413013458252 L 63.98450088500977 28.9413013458252 L 55.17539978027344 28.9413013458252 L 55.17539978027344 28.57770156860352 C 55.17539978027344 23.20469093322754 52.18001937866211 18.39019012451172 47.35818862915039 16.01302146911621 C 48.089599609375 15.77516078948975 48.85165023803711 15.6555004119873 49.62329864501953 15.6555004119873 L 56.65589904785156 15.6555004119873 C 60.69746017456055 15.6555004119873 63.98550033569336 18.94395065307617 63.98550033569336 22.98600006103516 L 63.98550033569336 28.94029998779297 L 63.98550033569336 28.9413013458252 Z M 11.08440017700195 28.9413013458252 L 11.08339977264404 28.9413013458252 L 1.678466787780053e-07 28.9413013458252 L 1.678466787780053e-07 22.98600006103516 C 1.678466787780053e-07 18.94395065307617 3.288040161132813 15.6555004119873 7.32960033416748 15.6555004119873 L 14.36310005187988 15.6555004119873 C 15.59759998321533 15.6555004119873 16.81863021850586 15.9691104888916 17.8941593170166 16.56243133544922 C 13.69375991821289 19.0815601348877 11.08440017700195 23.68486976623535 11.08440017700195 28.57770156860352 L 11.08440017700195 28.94029998779297 L 11.08440017700195 28.9413013458252 Z M 53.15670013427734 13.36680030822754 C 49.47492980957031 13.36680030822754 46.47959899902344 10.37147045135498 46.47959899902344 6.689700603485107 C 46.47959899902344 3.000990629196167 49.47492980957031 6.729126198479207e-07 53.15670013427734 6.729126198479207e-07 C 56.84540939331055 6.729126198479207e-07 59.84640121459961 3.000990629196167 59.84640121459961 6.689700603485107 C 59.84640121459961 10.37147045135498 56.84540939331055 13.36680030822754 53.15670013427734 13.36680030822754 Z M 10.87650012969971 13.36680030822754 C 7.194730281829834 13.36680030822754 4.199399948120117 10.37147045135498 4.199399948120117 6.689700603485107 C 4.199399948120117 3.000990629196167 7.194730281829834 6.729126198479207e-07 10.87650012969971 6.729126198479207e-07 C 14.55776977539063 6.729126198479207e-07 17.55270004272461 3.000990629196167 17.55270004272461 6.689700603485107 C 17.55270004272461 10.37147045135498 14.55776977539063 13.36680030822754 10.87650012969971 13.36680030822754 Z" stroke="none"/>
          </g>
          <g id="Rectangle_3797" data-name="Rectangle 3797" transform="translate(15.314 23.314)" fill="#202020" stroke="#000" stroke-width="1">
            <path d="M12,0H23.635a12,12,0,0,1,12,12V22.272a0,0,0,0,1,0,0H0a0,0,0,0,1,0,0V12A12,12,0,0,1,12,0Z" stroke="none"/>
            <path d="M12,.5H23.635A11.5,11.5,0,0,1,35.135,12v9.272a.5.5,0,0,1-.5.5H1a.5.5,0,0,1-.5-.5V12A11.5,11.5,0,0,1,12,.5Z" fill="none"/>
          </g>
          <g id="Path_10289" data-name="Path 10289" transform="translate(22.028 0.477)" fill="#202020">
            <path d="M 10.04761409759521 19.06749153137207 C 4.797044277191162 19.06749153137207 0.525394082069397 14.79584217071533 0.525394082069397 9.545281410217285 C 0.525394082069397 4.294702053070068 4.797044277191162 0.02305187284946442 10.04761409759521 0.02305187284946442 C 15.29818439483643 0.02305187284946442 19.56983375549316 4.294702053070068 19.56983375549316 9.545281410217285 C 19.56983375549316 14.79584217071533 15.29818439483643 19.06749153137207 10.04761409759521 19.06749153137207 Z" stroke="none"/>
            <path d="M 10.04761409759521 0.5230522155761719 C 5.072744369506836 0.5230522155761719 1.025394439697266 4.570411682128906 1.025394439697266 9.545281410217285 C 1.025394439697266 14.5201416015625 5.072744369506836 18.56749153137207 10.04761409759521 18.56749153137207 C 15.02248382568359 18.56749153137207 19.06983375549316 14.5201416015625 19.06983375549316 9.545281410217285 C 19.06983375549316 4.570411682128906 15.02248382568359 0.5230522155761719 10.04761409759521 0.5230522155761719 M 10.04761409759521 -0.4769477844238281 C 15.58273410797119 -0.4769477844238281 20.06983375549316 4.010151863098145 20.06983375549316 9.545281410217285 C 20.06983375549316 15.08040237426758 15.58273410797119 19.56749153137207 10.04761409759521 19.56749153137207 C 4.512494087219238 19.56749153137207 0.02539443969726563 15.08040237426758 0.02539443969726563 9.545281410217285 C 0.02539443969726563 4.010151863098145 4.512494087219238 -0.4769477844238281 10.04761409759521 -0.4769477844238281 Z" stroke="none"/>
          </g>
        </g>
      </g>
    </g>
    <rect id="Rectangle_3481" data-name="Rectangle 3481" width="78" height="78" transform="translate(18.736 479.736)" fill="none"/>
  </g>
</svg>
