<svg xmlns="http://www.w3.org/2000/svg" width="96" height="86" viewBox="0 0 96 86">
  <g id="Thank_you1" data-name="Thank you1" transform="translate(-628 -177)">
    <rect id="Rectangle_3868" data-name="Rectangle 3868" width="96" height="86" transform="translate(628 177)" fill="#fff"/>
    <g id="Group_12255" data-name="Group 12255" transform="translate(632.72 181.028)">
      <g id="flat" transform="translate(0)">
        <path id="Path_15431" data-name="Path 15431" d="M178.607,198.476l-2.909.495a3.12,3.12,0,1,1-1.046-6.151l4.048-.688Z" transform="translate(-149.025 -166.307)" fill="#f3c4a6"/>
        <path id="Path_15432" data-name="Path 15432" d="M211.354,193.892l-4.816.819a2.755,2.755,0,0,1-1.4-5.307l7.785-2.811Z" transform="translate(-175.427 -161.63)" fill="#f3c4a6"/>
        <path id="Path_15433" data-name="Path 15433" d="M54.63,53.73l1.048-4.866,12.166,2.619L69.088,45.7a5.6,5.6,0,0,0-1.247-4.851l-4.608-5.3A5.6,5.6,0,0,0,58.9,33.622l-19.112.364L24,26.116V44.782l9.949,4.495L36,51.8a13.446,13.446,0,0,0,7.591,4.648,11.386,11.386,0,0,0,7.479-.942Z" transform="translate(-24 -26.116)" fill="#ffd7be"/>
        <g id="Group_12153" data-name="Group 12153" transform="translate(32.005 14.203)">
          <path id="Path_15434" data-name="Path 15434" d="M261.843,205.544l-.655,3.041a3.111,3.111,0,1,1-6.083-1.31l.655-3.041Z" transform="translate(-251.101 -190.73)" fill="#e8c8b3"/>
          <path id="Path_15435" data-name="Path 15435" d="M265.048,138.589a1.246,1.246,0,0,1-1.218-1.507l.524-2.433a1.244,1.244,0,1,1,2.433.524l-.524,2.433A1.244,1.244,0,0,1,265.048,138.589Z" transform="translate(-258.505 -131.14)" fill="#f3c4a6"/>
          <path id="Path_15436" data-name="Path 15436" d="M233.223,125.569a1.244,1.244,0,0,1-1.158-.788l-2.232-5.655a1.244,1.244,0,1,1,2.315-.914l2.232,5.655a1.244,1.244,0,0,1-1.157,1.7Z" transform="translate(-229.746 -117.425)" fill="#f3c4a6"/>
          <path id="Path_15440" data-name="Path 15440" d="M197.457,40.578c0,6.11-5.7,10.407-10.407,14.394-1.035.88-2.174,1.812-3.313,2.848a2.66,2.66,0,0,1-3.417,0c-1.139-1.035-2.278-1.967-3.313-2.848C170.949,49.9,166.6,46.17,166.6,40.578c0-5.384,3.935-9.578,9.009-9.578a8.331,8.331,0,0,1,6.42,2.951A8.33,8.33,0,0,1,188.449,31C193.523,31,197.457,35.194,197.457,40.578Z" transform="translate(-164.129 -22.854)" fill="#ff3f2e"/>
        </g>
        <path id="Path_15438" data-name="Path 15438" d="M151.608,148.8a10.643,10.643,0,0,0,6.99-.881l3.79-1.89,10.106,1.233a3.9,3.9,0,0,0,1.294-7.689l-9.567-2.06-9.733-2.1Z" transform="translate(-131.758 -118.417)" fill="#ffd7be"/>
      </g>
      <path id="Path_15441" data-name="Path 15441" d="M168.845,315.525l-.121-.121a11.623,11.623,0,0,0-16.438,0l-.121.121H140.253a3.575,3.575,0,0,0-3.465,4.453l-12-4A3.642,3.642,0,0,0,120,319.434v.078a3.648,3.648,0,0,0,1.686,3.091l20.68,13.16a10.424,10.424,0,0,0,8.25,1.286l18.229-4.8H174.8V315.525Z" transform="translate(-88.727 -260.883)" fill="#ffd7be"/>
      <path id="Path_15442" data-name="Path 15442" d="M176.624,346.963a1.22,1.22,0,0,1-1.22,1.22h-8.661a22.573,22.573,0,0,1-11.053-2.892l-13.91-7.812a4.345,4.345,0,0,1,1.868.2L158.1,342.5a4.309,4.309,0,0,0,4.175,3.245H175.4a1.22,1.22,0,0,1,1.22,1.219Z" transform="translate(-108.514 -279.237)" fill="#f3c4a6"/>
    </g>
  </g>
</svg>
