<svg xmlns="http://www.w3.org/2000/svg" width="24" height="24" viewBox="0 0 24 24"><g transform="translate(-5143 -623)"><rect width="24" height="24" transform="translate(5143 623)" fill="none"/><g transform="translate(5142.559 622.768)"><path d="M-4177.926-335.89l-.067,0a3.233,3.233,0,0,1-2.505-1.329c-.738-1.119-.694-2.787.134-4.96h-3.411c-.962,0-2.162,0-2.612-1.413a2.382,2.382,0,0,1,.621-2.756,2.369,2.369,0,0,1,.138-2.6,2.292,2.292,0,0,1-.1-1.484,2.3,2.3,0,0,1,1-1.367,3.682,3.682,0,0,1,.277-2.693,2.528,2.528,0,0,1,1.982-1.1l11.237,0v10.23a2.8,2.8,0,0,1-.812,1.963l-2.829,2.83a6.279,6.279,0,0,0-1.628,2.7,2.716,2.716,0,0,0-.122.7,1.276,1.276,0,0,1-.37.906,1.3,1.3,0,0,1-.917.393Zm-5.812-18.158a3.2,3.2,0,0,0-.092,2.322l.124.371-.359.153a1.447,1.447,0,0,0-.165.082,1.462,1.462,0,0,0-.683.9,1.458,1.458,0,0,0,.151,1.115l.16.274-.22.23a1.528,1.528,0,0,0,0,2.111l.459.481-.629.211c-1.045.35-.675,1.683-.591,1.947.226.707.65.827,1.809.827h4.677l-.251.587c-.918,2.15-1.073,3.792-.447,4.746a2.4,2.4,0,0,0,1.834.957.485.485,0,0,0,.367-.138.462.462,0,0,0,.13-.326,3.545,3.545,0,0,1,.158-.934,7.121,7.121,0,0,1,1.842-3.049l2.824-2.825a1.94,1.94,0,0,0,.565-1.365v-9.386h-10.347A1.691,1.691,0,0,0-4183.738-354.047Zm13.031,9.342v-9.906a2.158,2.158,0,0,1,2.156-2.156,2.159,2.159,0,0,1,2.155,2.156v9.906a2.159,2.159,0,0,1-2.155,2.157A2.158,2.158,0,0,1-4170.707-344.705Zm.844-9.906v9.906a1.313,1.313,0,0,0,1.312,1.312,1.313,1.313,0,0,0,1.312-1.312v-9.906a1.313,1.313,0,0,0-1.312-1.312A1.313,1.313,0,0,0-4169.863-354.612Z" transform="translate(4189 359.2)" stroke="rgba(0,0,0,0)" stroke-miterlimit="10" stroke-width="1"/></g></g></svg>