<svg xmlns="http://www.w3.org/2000/svg" viewBox="0 0 39.72 40.94"><defs><style>.cls-1{fill:none;stroke:#000;stroke-miterlimit:10;}</style></defs><title>Asset 1</title><g id="Layer_2" data-name="Layer 2"><g id="Layer_1-2" data-name="Layer 1"><path d="M3.63,14.73a2.63,2.63,0,0,1,2.63,2.63v20a2.63,2.63,0,1,1-5.26,0v-20a2.63,2.63,0,0,1,2.63-2.63m0-1h0A3.63,3.63,0,0,0,0,17.36v20a3.63,3.63,0,0,0,3.63,3.63h0a3.63,3.63,0,0,0,3.63-3.63v-20a3.63,3.63,0,0,0-3.63-3.63Z"/><path class="cls-1" d="M26.3,13.2h8.15c2.21,0,3.79.16,4.46,2.26.47,1.46.72,4.18-1.73,5a3.94,3.94,0,0,1,0,5.44,3.82,3.82,0,0,1-1.81,5.44s2.24,6.57-3.63,7.26H10V18.79a4.75,4.75,0,0,1,1.39-3.36l5.71-5.71a13.52,13.52,0,0,0,3.5-5.8,6.26,6.26,0,0,0,.28-1.62A1.78,1.78,0,0,1,22.67.5S31.74.5,26.3,13.2Z"/></g></g></svg>