<svg xmlns="http://www.w3.org/2000/svg" viewBox="0 0 39.72 40.94"><defs><style>.cls-1{stroke:#000;stroke-miterlimit:10;}</style></defs><title>Asset 2</title><g id="Layer_2" data-name="Layer 2"><g id="Layer_1-2" data-name="Layer 1"><path d="M36.09,26.71A3.13,3.13,0,0,1,33,23.58v-20a3.13,3.13,0,1,1,6.25,0v20A3.13,3.13,0,0,1,36.09,26.71Z"/><path d="M36.09,1a2.63,2.63,0,0,1,2.63,2.63v20a2.63,2.63,0,0,1-5.26,0v-20A2.63,2.63,0,0,1,36.09,1m0-1a3.63,3.63,0,0,0-3.63,3.63v20a3.63,3.63,0,0,0,7.26,0v-20A3.63,3.63,0,0,0,36.09,0Z"/><path class="cls-1" d="M13.42,27.74H5.27c-2.21,0-3.79-.16-4.46-2.26-.47-1.46-.72-4.18,1.73-5a3.94,3.94,0,0,1,0-5.44A3.82,3.82,0,0,1,4.35,9.6S2.11,3,8,2.35H29.74v19.8a4.75,4.75,0,0,1-1.39,3.36l-5.71,5.71a13.52,13.52,0,0,0-3.5,5.8,6.26,6.26,0,0,0-.28,1.62A1.78,1.78,0,0,1,17,40.44S8,40.44,13.42,27.74Z"/></g></g></svg>