<svg xmlns="http://www.w3.org/2000/svg" width="24" height="24" viewBox="0 0 24 24"><rect width="24" height="24" fill="none"/><g transform="translate(2 2.2)"><path d="M0,18.722V8.815a2.156,2.156,0,1,1,4.312,0v9.907a2.156,2.156,0,1,1-4.312,0ZM4.837,9.483A2.792,2.792,0,0,1,5.648,7.52l2.829-2.83A6.285,6.285,0,0,0,10.105,2a2.677,2.677,0,0,0,.122-.7A1.28,1.28,0,0,1,10.6.392,1.3,1.3,0,0,1,11.515,0h.016L11.6,0A3.227,3.227,0,0,1,14.1,1.331c.739,1.119.694,2.786-.134,4.961h3.412c.962,0,2.16,0,2.611,1.413a2.384,2.384,0,0,1-.62,2.756,2.372,2.372,0,0,1-.138,2.6,2.317,2.317,0,0,1-.9,2.85,3.683,3.683,0,0,1-.277,2.693,2.529,2.529,0,0,1-1.982,1.1l-11.237,0Z" transform="translate(20.163 20.877) rotate(180)" stroke="rgba(0,0,0,0)" stroke-miterlimit="10" stroke-width="1"/></g></svg>