<svg xmlns="http://www.w3.org/2000/svg" width="24" height="24" viewBox="0 0 24 24"><rect width="24" height="24" fill="none"/><g transform="translate(1.837 0.922)"><path d="M-4155.836-339.2v-9.907a2.159,2.159,0,0,1,2.157-2.156,2.159,2.159,0,0,1,2.156,2.156v9.907a2.159,2.159,0,0,1-2.156,2.157A2.16,2.16,0,0,1-4155.836-339.2Zm.845-9.907v9.907a1.314,1.314,0,0,0,1.312,1.312,1.314,1.314,0,0,0,1.311-1.312v-9.907a1.314,1.314,0,0,0-1.311-1.312A1.314,1.314,0,0,0-4154.992-349.108Zm3.991.669a2.8,2.8,0,0,1,.813-1.963l2.829-2.829a6.3,6.3,0,0,0,1.628-2.7,2.675,2.675,0,0,0,.121-.7,1.28,1.28,0,0,1,.37-.905,1.3,1.3,0,0,1,.918-.393h.017l.067,0a3.231,3.231,0,0,1,2.505,1.329c.739,1.119.693,2.787-.134,4.96h3.411c.963,0,2.161,0,2.613,1.413a2.388,2.388,0,0,1-.621,2.757,2.37,2.37,0,0,1-.139,2.6,2.3,2.3,0,0,1,.1,1.484,2.292,2.292,0,0,1-1,1.366,3.681,3.681,0,0,1-.276,2.693,2.531,2.531,0,0,1-1.981,1.1l-11.238,0Zm6.365-8.5a.463.463,0,0,0-.131.326,3.53,3.53,0,0,1-.156.935,7.139,7.139,0,0,1-1.843,3.049l-2.824,2.825a1.943,1.943,0,0,0-.565,1.365v9.386h10.348a1.685,1.685,0,0,0,1.314-.711,3.21,3.21,0,0,0,.094-2.323l-.125-.37.36-.153a1.516,1.516,0,0,0,.166-.082,1.462,1.462,0,0,0,.682-.9,1.462,1.462,0,0,0-.15-1.115l-.162-.274.22-.229a1.528,1.528,0,0,0,0-2.112l-.459-.481.63-.211c1.045-.35.675-1.683.59-1.947-.227-.707-.651-.827-1.809-.827h-4.677l.251-.587c.918-2.151,1.073-3.792.447-4.747a2.4,2.4,0,0,0-1.834-.956A.482.482,0,0,0-4144.635-356.939Z" transform="translate(4155.836 357.922)" stroke="rgba(0,0,0,0)" stroke-miterlimit="10" stroke-width="1"/></g></svg>