<svg xmlns="http://www.w3.org/2000/svg" width="24" height="24" viewBox="0 0 24 24"><rect width="24" height="24" fill="none"/><g transform="translate(1.837 0.922)"><path d="M-4155.836-339.2v-9.907a2.159,2.159,0,0,1,2.157-2.156,2.159,2.159,0,0,1,2.156,2.156v9.907a2.159,2.159,0,0,1-2.156,2.157A2.16,2.16,0,0,1-4155.836-339.2Zm4.836-9.239a2.8,2.8,0,0,1,.813-1.963l2.829-2.829a6.3,6.3,0,0,0,1.628-2.7,2.675,2.675,0,0,0,.121-.7,1.28,1.28,0,0,1,.37-.905,1.3,1.3,0,0,1,.918-.393h.017l.067,0a3.231,3.231,0,0,1,2.505,1.329c.739,1.119.693,2.787-.134,4.96h3.411c.963,0,2.161,0,2.613,1.413a2.388,2.388,0,0,1-.621,2.757,2.37,2.37,0,0,1-.139,2.6,2.3,2.3,0,0,1,.1,1.484,2.292,2.292,0,0,1-1,1.366,3.681,3.681,0,0,1-.276,2.693,2.531,2.531,0,0,1-1.981,1.1l-11.238,0Z" transform="translate(4155.836 357.922)" stroke="rgba(0,0,0,0)" stroke-miterlimit="10" stroke-width="1"/></g></svg>