<svg xmlns="http://www.w3.org/2000/svg" xmlns:xlink="http://www.w3.org/1999/xlink" width="1075.406" height="751.877" viewBox="0 0 1075.406 751.877">
  <defs>
    <filter id="Path_11273" x="0" y="0" width="965.157" height="635.863" filterUnits="userSpaceOnUse">
      <feOffset dy="12" input="SourceAlpha"/>
      <feGaussianBlur stdDeviation="11" result="blur"/>
      <feFlood flood-opacity="0.478"/>
      <feComposite operator="in" in2="blur"/>
      <feComposite in="SourceGraphic"/>
    </filter>
    <clipPath id="clip-path">
      <path id="Path_11274" data-name="Path 11274" d="M-16385.828,2558.956c-98.732,15-186.354,138.722-146.025,229.231,20.266,44.973,102.621,133.558,255.007,164.036,108.7,26.414,265.151,9.143,299.692-102.606s59.938-136.131,211.309-130.036c60.954,5.079,183.878-101.591,87.367-244.833-59.938-97.527-342.686-127.736-402.624,23.634-30.478,53.843-2.312,132.711-106.815,119.3-9.715-1.665-31.057-9.053-64.711-28.479C-16311.265,2563.758-16352.794,2552.349-16385.828,2558.956Z" transform="translate(16763 -2073)" fill="#e6b354" stroke="#707070" stroke-width="1"/>
    </clipPath>
    <filter id="Path_11240" x="414.894" y="14.465" width="375.336" height="582.91" filterUnits="userSpaceOnUse">
      <feOffset dy="11" input="SourceAlpha"/>
      <feGaussianBlur stdDeviation="6" result="blur-2"/>
      <feFlood flood-opacity="0.478"/>
      <feComposite operator="in" in2="blur-2"/>
      <feComposite in="SourceGraphic"/>
    </filter>
    <filter id="Path_11241" x="237.594" y="142.43" width="389.645" height="611.446" filterUnits="userSpaceOnUse">
      <feOffset dy="11" input="SourceAlpha"/>
      <feGaussianBlur stdDeviation="6" result="blur-3"/>
      <feFlood flood-opacity="0.478"/>
      <feComposite operator="in" in2="blur-3"/>
      <feComposite in="SourceGraphic"/>
    </filter>
    <linearGradient id="linear-gradient" x1="0.527" y1="1.268" x2="0.527" y2="0.267" gradientUnits="objectBoundingBox">
      <stop offset="0" stop-color="#efc7b0"/>
      <stop offset="0.46" stop-color="#eec6ae"/>
      <stop offset="0.62" stop-color="#e8c0a7"/>
      <stop offset="0.74" stop-color="#dfb79c"/>
      <stop offset="0.83" stop-color="#d2a98b"/>
      <stop offset="0.91" stop-color="#c19875"/>
      <stop offset="0.98" stop-color="#ac825a"/>
      <stop offset="1" stop-color="#a67c52"/>
    </linearGradient>
    <linearGradient id="linear-gradient-2" x1="0.892" y1="0.14" x2="0.061" y2="0.953" gradientUnits="objectBoundingBox">
      <stop offset="0" stop-color="#00012a"/>
      <stop offset="1" stop-color="#ffb46a"/>
    </linearGradient>
    <filter id="Path_11275" x="760.787" y="67.248" width="314.619" height="482.76" filterUnits="userSpaceOnUse">
      <feOffset dy="12" input="SourceAlpha"/>
      <feGaussianBlur stdDeviation="5" result="blur-4"/>
      <feFlood flood-opacity="0.478"/>
      <feComposite operator="in" in2="blur-4"/>
      <feComposite in="SourceGraphic"/>
    </filter>
    <filter id="Path_11276" x="193.633" y="397.195" width="231.916" height="354.682" filterUnits="userSpaceOnUse">
      <feOffset dy="12" input="SourceAlpha"/>
      <feGaussianBlur stdDeviation="5" result="blur-5"/>
      <feFlood flood-opacity="0.478"/>
      <feComposite operator="in" in2="blur-5"/>
      <feComposite in="SourceGraphic"/>
    </filter>
    <linearGradient id="linear-gradient-3" x1="0.5" x2="0.5" y2="1" gradientUnits="objectBoundingBox">
      <stop offset="0" stop-color="#6ac2ff"/>
      <stop offset="1" stop-color="#5600d4"/>
    </linearGradient>
    <linearGradient id="linear-gradient-4" x1="-5.224" y1="-20.309" x2="-5.224" y2="-21.31" xlink:href="#linear-gradient"/>
    <linearGradient id="linear-gradient-5" x1="-0.608" y1="-4.684" x2="-0.608" y2="-5.689" xlink:href="#linear-gradient"/>
    <filter id="Path_11277" x="3.543" y="377.877" width="220.944" height="334.231" filterUnits="userSpaceOnUse">
      <feOffset dy="12" input="SourceAlpha"/>
      <feGaussianBlur stdDeviation="5" result="blur-6"/>
      <feFlood flood-opacity="0.478"/>
      <feComposite operator="in" in2="blur-6"/>
      <feComposite in="SourceGraphic"/>
    </filter>
  </defs>
  <g id="_1" data-name="1" transform="translate(-188.098 -299.211)">
    <g transform="matrix(1, 0, 0, 1, 188.1, 299.21)" filter="url(#Path_11273)">
      <path id="Path_11273-2" data-name="Path 11273" d="M-16385.828,2558.956c-98.732,15-186.354,138.722-146.025,229.231,20.266,44.973,102.621,133.558,255.007,164.036,108.7,26.414,265.151,9.143,299.692-102.606s59.938-136.131,211.309-130.036c60.954,5.079,183.878-101.591,87.367-244.833-59.938-97.527-342.686-127.736-402.624,23.634-30.478,53.843-2.312,132.711-106.815,119.3-9.715-1.665-31.057-9.053-64.711-28.479C-16311.265,2563.758-16352.794,2552.349-16385.828,2558.956Z" transform="translate(16574.9 -2372.21)" fill="#e6b354"/>
    </g>
    <g id="Mask_Group_9733" data-name="Mask Group 9733" clip-path="url(#clip-path)">
      <g id="Group_12150" data-name="Group 12150">
        <g transform="matrix(1, 0, 0, 1, 188.1, 299.21)" filter="url(#Path_11240)">
          <path id="Path_11240-2" data-name="Path 11240" d="M741.02,499.191c-15.775-16.087-32.534-31.408-47.06-48.593-14.251-16.863-13.712-32.288-1.457-45.423,13.807-14.819,28.181-12.3,43.265-1.666,5.555,3.908,11.9,10.353,19.1,6.284,8.29-4.732,5.063-13.873,4.183-21.292-2.233-18.746-2.5-37.379,1.438-55.927,2.366-11.138,5.829-22.03,19.2-23.658,12.794-1.59,22.333,4.874,29.335,15.255,10.674,15.87,10.409,34.427,11.971,52.312,1.429,16.163,6.293,18.075,17.715,6.624,8.971-8.952,19.825-13.362,31.361-5.271,12.425,8.706,11.043,21.008,5.517,33.026-5.678,12.3-12.3,24.169-18.074,36.433-2.432,5.167-5.186,11.129-.644,16.418,4.855,5.678,10.684,2.11,16.087.445,1.24-.379,2.432-.871,3.643-1.325,12.548-4.732,25.683-13.021,37.294.606,12.614,14.819,13.475,32.023,4.732,48.971-10.05,19.522-27.66,32.175-44.571,45.111-10.807,8.28-21.689,16.466-29.771,27.528-5.11,7-9.293,15.586-2.091,22.92,6.889,7.022,14.63,1.618,20.97-2.725,14.914-10.22,29.165-21.453,44.325-31.228,13.551-8.772,28.276-14.081,43.123-2.4,15.519,12.122,22.531,27.888,18.131,47.76-3.435,15.538-11.734,28.588-21.443,40.843-30.528,38.543-69.809,67.036-110.292,93.8-14.337,9.463-22.087,19.872-22.418,37.332-.293,15.434-3.18,30.821-5.1,46.2-1.287,10.277-3.785,18.869-17.507,17.98s-12.52-10.39-12.624-19.447c-.142-13.57-.946-27.206.057-40.691,1.126-15.056-4.533-23.383-18.529-29.714-37.228-16.835-72.515-37.275-101.832-66.308-17.828-17.63-32.61-37.294-27.235-64.851,4.732-24.339,17.384-31.995,40.521-23.535,12.065,4.419,23.27,11.138,35.013,16.57,5.574,2.574,12.046,8.167,17.185.814,4-5.678,1.523-12.51-2.337-18.141-7.428-10.826-17.573-18.86-27.888-26.686C680.409,573,666.3,562.8,654.566,549.61c-12.453-14.015-11.356-27.793-.946-42.158s23.9-16.863,39.319-10.078c11.195,4.93,21.869,11.025,32.78,16.608C742.184,514.332,743.67,512.912,741.02,499.191Z" transform="translate(-197.8 -287.21)" fill="#386641"/>
        </g>
        <g transform="matrix(1, 0, 0, 1, 188.1, 299.21)" filter="url(#Path_11241)">
          <path id="Path_11241-2" data-name="Path 11241" d="M741.058,700.672c-17.081-10.485-31.966-3.066-45.129,7.817-14.772,12.2-28.389,25.74-42.868,38.344-6.151,5.347-13.655,12-21.765,5.432-8.517-6.851-5.138-16.4-.587-24.4,7.145-12.643,17.611-22.569,28-32.648,16.239-15.718,33.244-31.153,41.42-52.993,7.145-18.926,4.135-36.906-10.958-51.006-13.9-12.955-26.762-2.631-39.395,3.908-1.211.615-2.385,1.306-3.643,1.893-5.536,2.413-11.28,6.832-17.034,1.5-5.441-5.034-3.274-11.649-1.363-17.393,4.6-13.636,10.154-26.932,14.611-40.587,4.334-13.343,4.277-26.5-9.851-34.133-13.154-7.126-24.046-1.145-32.392,9.387-10.655,13.409-16.011,12.009-19.513-4.836-3.785-18.652-5.8-38.25-18.992-53.684-8.6-10.078-19.447-15.7-32.761-12.463C515,448.2,512.658,460.091,511.522,472.11c-1.893,20.043.691,39.613,5.309,59.135,1.893,7.693,6.388,16.948-1.789,22.9-7.088,5.2-14.554-.8-20.875-4.268-17.2-9.331-32.648-10.267-45.423,7.031-11.356,15.368-9.974,31.7,7.116,47.7,17.384,16.343,36.906,30.414,55.5,45.423,4.476,14.195,3.085,15.832-14.384,17.459-12.17-4.514-24.169-9.633-36.575-13.419-17.034-5.271-31.058-.994-40.18,15.444s-8.659,31.029,6.2,44.278c13.92,12.472,30.055,21.491,46.009,30.9,11.81,6.984,23.468,14.195,32.629,24.689,4.732,5.479,8.2,12.3,4.732,18.841-4.552,8.365-12.018,3.274-18.216,1.24-13.012-4.306-25.626-10.021-38.874-13.191-25.427-6.056-37.852,3.549-39.811,29.752-2.29,29.733,15.68,48.621,36.613,65.068,34.446,26.979,74.115,44.193,115.449,57.384,15.51,4.968,22.484,13.031,23.128,29.033.6,14.355,3.132,28.626,4.94,42.877,1.211,9.529,1.022,19.636,15.661,18.926s16.163-10.088,16.239-21.093c.151-16.428,1.325-33.007-.274-49.274-1.77-18.406,5.129-30.358,19.068-42.092,39.385-33.121,77.247-67.983,104.737-112.3,8.734-14.119,15.888-28.891,17.582-45.678C768.179,727.4,758.877,711.63,741.058,700.672Zm-110.33,120.9c-4.561,4.135-9.132,8.2-13.646,12.406-13.759,12.7-21.51,26.7-17.128,47.013,4.609,21.32,5.981,43.35,8.517,65.1.625,5.337,1.58,11.99-6.208,12.785-7.57.766-8.025-5.8-9.018-11.167a14.011,14.011,0,0,1-.331-4.078c5.744-38.714-13.248-61.823-47.419-75.4h0q-20.223-11.176-40.483-22.267c.814-1.826,1.637-3.691,2.451-5.508l41.022,19.92c38.127,15.33,38.127,15.33,33.708-25.626-2.2-20.27-5.252-40.483-6.473-60.838-.946-15.671-6-27.556-21.1-33.783q-34.322-17.034-68.569-34.133c.757-1.7,1.514-3.416,2.233-5.12q37.322,16.75,74.635,33.471c8.517-.114,7.343-6.189,6.823-11.573-1.192-12.813-2.565-25.645-3.785-38.449-2.574-19.608-4.031-39.452-7.968-58.785-4.637-22.825-31.758-20.081-44.174-35.014,4.221-2.659,7.116-.2,10.059,1,32.354,13.135,32.392,13.163,28.569-20.677-2.271-20.27-4.665-40.521-2.839-61.3,1.987,17.176,3.785,34.408,6.085,51.536,1.079,8.006.521,19,8.214,21.935,7.353,2.839,10.7-8.9,17.223-12.3q11.441-12.633,22.853-25.276c-2.167,12.652-9.879,21.018-18.557,28.72C566.749,589.821,561.44,609.1,567,632.916c3.539,15.264,3.785,31.228,5.517,46.927,1.4,10.144,4.732,15.718,15.5,7.656,8.119-6.094,16.768-11.441,25.2-17.128,8.318-8.867,17.507-16.523,30.017-20.289-5.678,10.665-15.245,17.62-25.352,24.017-44.022,24.282-42.309,62.788-32.733,104.094a425.686,425.686,0,0,1,7.391,42.451c1.789,14.138,6.52,16.9,17.611,6.861,4.495-4.022,10.315-6.539,15.529-9.756,9.321-10.977,21.112-18.746,34.531-24.907C653.5,805.352,643.068,814.361,630.729,821.572Z" transform="translate(-157.1 -294.47)" fill="#3b5641"/>
        </g>
      </g>
    </g>
    <g id="Group_12151" data-name="Group 12151" transform="translate(4)">
      <path id="Path_11251" data-name="Path 11251" d="M1015.51,445.72c-2.84,5.4.61,13.16-6.37,17-5.71,3.47-10.18.08-14.79-2.63-10.6-8-4.41-15.46,1.66-21.54,7-7.06,9.55-15.27,9.57-24.57,0-4.54-.77-9.44-7.34-9.05-3.11.65-6.26.74-9.33,1.43-7.85.9-9.64,10.53-17.07,11.91-7,1.65-11.74-1.69-15.77-6.79-7.54-9.53-17.44-11.53-28.77-9-13.93,3.06-27.95,5.42-42.3,5.06-6.63-.17-13.46.23-17-7.17-15.62-4.41-28.41-11.72-31-29.76-2.58-17.86,6.76-31.2,24.73-33.62,5.74-.77,8.8-3,12.08-7.53,13.43-18.66,34.68-26.22,56.72-20,7.34,2.07,13,2,20-1.88,22.32-12.29,44.87-2.85,62.36,14.95,17.64,17.94,20.08,31.05,11.15,55.35C1016.66,398,1018.64,423,1015.51,445.72Z" fill="#0e0e0e"/>
      <path id="Path_11252" data-name="Path 11252" d="M1004,488.92c-2.64-14.17-5.61-26.74-8.74-39.31,6.13-4.28,11.25-12.78,12.28-21.76,1.23-10.75.34-22.89-12.52-24.33-4.91-.56-8.16.53-10.44,2.58-1.48-6.52-3-13.39-4.42-20.77-.79-4-3.83-6.88-7.22-4.66-25.43,16.67-51,17.38-77.7,12.85-12.78-2.17-19.53,3.85-19.37,17.08q.13,10.73.13,21.4a127.119,127.119,0,0,0,2.14,22.12q1.52,8.18,3,16.34a89.355,89.355,0,0,0,4.71,16.35c3.11,7.89,6.15,15.81,10,23.35,6.89,13.67,16.64,24.52,33.08,26.65h.31c13.59.87,15.73,9.41,16.4,18a5.24,5.24,0,0,0,4.71,4.69h0c12.17,1.07,21.64,10.15,35.48,8.84,7-.67,16.8-4.31,29.25-10.71,3.36-1.73,7.13-2.38,7.52-6.14C1025,528.64,1008.29,512.21,1004,488.92Z" fill="url(#linear-gradient)"/>
      <path id="Path_11253" data-name="Path 11253" d="M949.73,559.64c2.72-7.94,9.68-10.24,16.49-12.8,17.2-6.46,25.37-20.24,30.38-37.19-20.39,15.16-41.36,27.61-67.48,27.22,14.06,1.56,16,10.78,16.84,23a.36.36,0,0,0,.42.33C947.48,560,948.65,559.85,949.73,559.64Z" fill="#b08874"/>
      <path id="Path_11254" data-name="Path 11254" d="M920.17,447.6c2.09,18.91,1.5,27.48.39,31.72-.2.75-.81,2.86.27,4.27,1.87,2.44,7.59,1.11,11.35,0" fill="none" stroke="#b08874" stroke-linecap="round" stroke-linejoin="round" stroke-width="1"/>
      <path id="Path_11255" data-name="Path 11255" d="M842.05,656.63c.28-3,1.12-11.2,3.22-23.3,2.64-15.21,4-22.81,6.52-27.18,2.24-3.84,5.23-7.29,23-19.16,14.87-9.92,16.47-10,27-16.94,23.28-15.48,25.1-21.67,35.52-23.61,12.59,13.51,31,15.56,38.52,16.4,6.83.76,31.84,2.63,52.46-13.34,1.43-1.11,2.69-2.18,3.78-3.18v.21a23.409,23.409,0,0,1,2.64.49,25.281,25.281,0,0,1,8.65,4.13c12,8.38,24.37,10.7,37.26,16.62,10.16,4.67,32.71,15,44.78,37,7.59,13.83,9.26,29,11.32,47.86.92,8.42,1.19,15.49,1.25,20.45a251.355,251.355,0,0,1-41.09,25.58c-75.72,37.46-142.41,22.29-223.78,3.78-9.44-2.15-26.51-6.52-31.4-19C839.9,678.92,840.62,671.49,842.05,656.63Z" fill="url(#linear-gradient-2)"/>
    </g>
    <g transform="matrix(1, 0, 0, 1, 188.1, 299.21)" filter="url(#Path_11275)">
      <path id="Path_11275-2" data-name="Path 11275" d="M1245.1,633.48c-11-11.23-23.73-8.43-35.84-2.63-13.55,6.47-26.49,14.19-39.89,21-5.7,2.9-12.67,6.54-17.6,0-5.16-6.82-.8-13.45,4.18-18.67,7.84-8.26,17.69-13.83,27.51-19.53,15.34-8.87,31.21-17.39,41.57-32.43,9-13,10.17-27.32,1.35-40.89-8.12-12.5-19.86-7.09-30.71-4.51-1.05.24-2.07.54-3.13.72-4.67.78-9.88,3.06-13.26-2.09-3.18-4.87-.27-9.49,2.28-13.49,6.08-9.5,12.84-18.57,18.82-28.11,5.83-9.33,8.28-19.33-1-27.85-8.66-7.91-18.08-5.43-26.43,1-10.66,8.18-14.46,6.1-13.93-7.39.64-14.91,2.85-30.2-4.26-44.45-4.63-9.3-11.81-15.64-22.55-15.7C1121,398.42,1117,407,1113.83,416c-5.23,14.9-7,30.28-7.18,46-.06,6.21,1.63,14.11-5.72,17.09-6.38,2.61-10.92-3.38-15.07-7.22-11.31-10.36-22.89-14-35.87-3.26-11.53,9.54-13.61,22.22-3.65,37.64,10.13,15.74,22.3,30.15,33.59,45.14.72,11.62-.65,12.63-14.26,10.55-8.38-5.77-16.54-11.95-25.25-17.21-12-7.25-23.44-6.65-33.51,4.12s-12.47,22-3.68,34.87c8.22,12.13,18.78,22.06,29.13,32.24,7.66,7.56,15.16,15.27,20.14,25,2.58,5.07,3.9,10.94,0,15.23-5,5.5-9.76.2-14.09-2.53-9.08-5.74-17.6-12.48-27.08-17.41-18.19-9.44-29.44-4.49-35.94,15.07-7.39,22.19,2.7,40,15.51,56.46,21.08,27.07,48,47.7,76.91,65.59,10.86,6.73,14.63,14.18,12.08,26.48-2.27,11-3,22.38-4.38,33.56-.88,7.49-3,15.14,8.32,17.38s14.21-4.6,16.37-13c3.23-12.47,7.27-24.87,9.14-37.54,2.16-14.35,9.67-22.13,22.51-28.41,36.25-17.72,71.68-37.05,101-65.56,9.33-9.07,17.58-19,22.06-31.41C1260.67,659,1256.59,645.2,1245.1,633.48Zm-106.89,71c-4.26,2.28-8.51,4.51-12.74,6.85-12.88,7-21.44,16.23-22,32.52-.54,17.1-3.67,34.12-5.88,51.14-.54,4.18-1.08,9.43-7.15,8.55-5.9-.85-5-5.94-4.75-10.21a11.248,11.248,0,0,1,.53-3.17c11.72-28.36,1.64-49.55-21.76-66.37h0q-13.26-12.35-26.57-24.63c1-1.23,1.94-2.49,2.91-3.72l27.45,23c26.1,18.91,26.1,18.91,30.51-13.09,2.18-15.85,3.7-31.8,6.63-47.52,2.27-12.11.68-22.11-9.64-29.72q-22.87-19.49-45.68-39c.9-1.15,1.8-2.31,2.67-3.47q25.21,19.83,50.43,39.64c6.54,1.54,6.76-3.31,7.39-7.51,1.53-10,2.92-20,4.38-30,1.77-15.41,4.43-30.78,5.11-46.24.81-18.25-20.35-21.31-27-35.06,3.71-1.22,5.45,1.2,7.45,2.67,22.13,16.14,22.15,16.17,25.68-10.3,2.11-15.86,4.14-31.72,9.47-47.18-1.74,13.44-3.66,26.89-5.15,40.37-.7,6.29-3.22,14.55,2.08,18.24,5.06,3.52,9.83-4.73,15.45-6.11q11.1-7.46,22.19-14.9c-4.06,9.22-11.51,14.11-19.58,18.33-17.18,8.38-24.88,22-25.17,41.21-.21,12.28-3,24.52-4.71,36.76-.86,8,.61,12.85,10.34,8.76,7.33-3.09,14.93-5.51,22.42-8.24,8-5.17,16.46-9.25,26.7-9.74-6.35,7-15,10.51-23.86,13.46-38.1,10.11-44.11,39.74-44.67,73a330.951,330.951,0,0,1-2.43,33.7c-1.33,11.09,1.75,14.1,12.09,8.56,4.19-2.2,9.09-3,13.67-4.47,9.18-6.58,19.63-10.26,31-12.39C1158.61,696.5,1149,701.37,1138.21,704.48Z" transform="translate(-197.1 -328.21)" fill="#1e3822"/>
    </g>
    <g transform="matrix(1, 0, 0, 1, 188.1, 299.21)" filter="url(#Path_11276)">
      <path id="Path_11276-2" data-name="Path 11276" d="M459.73,846.36c-11.05-8-22.6-15.31-33-24-10.22-8.55-11.5-17.78-5.57-26.88,6.67-10.24,15.49-10.22,25.55-5.47,3.72,1.75,8.16,4.93,12,1.76,4.45-3.65,1.58-8.78.29-13.09-3.27-10.92-5.36-22-4.94-33.42.26-6.87,1.19-13.7,9-16.07,7.45-2.27,13.8.59,19,6,8,8.34,9.74,19.4,12.53,29.88,2.53,9.46,5.62,10.1,11.23,2.13,4.41-6.26,10.4-10,18.11-6.39,8.28,3.89,8.74,11.35,6.69,19.08-2.09,7.9-4.81,15.64-7,23.53-.92,3.33-1.93,7.16,1.32,9.83,3.46,2.86,6.57.15,9.63-1.4.7-.35,1.36-.77,2-1.17,7-4.12,13.93-10.4,22.24-3.5,9,7.51,11.33,17.65,7.89,28.64-4,12.65-13.12,22-21.84,31.44-5.56,6-11.19,12-14.85,19.46-2.31,4.69-3.91,10.23,1.13,13.84C536,904,540,900,543.36,896.77c7.81-7.62,15.12-15.78,23.13-23.18,7.15-6.62,15.35-11.31,25.39-5.9,10.48,5.65,16.29,14.3,15.73,26.57-.44,9.6-4,18.22-8.53,26.51-14.17,26.09-34.57,47.12-55.88,67.21-7.55,7.11-11.07,14.13-9.46,24.53,1.42,9.2,1.3,18.65,1.75,28,.3,6.24-.31,11.62-8.56,12.49s-8.52-4.87-9.51-10.23c-1.5-8.06-3.39-16.08-4.19-24.21-.88-9.07-5.11-13.44-14.09-15.75-23.88-6.16-47-14.67-67.43-28.89-12.43-8.66-23.26-18.82-22.92-35.78.3-15,7-20.82,21.67-18.19,7.63,1.38,15,4.22,22.52,6.23,3.57,1,8,3.62,10.3-1.29,1.79-3.81-.39-7.6-3.27-10.54-5.54-5.67-12.4-9.4-19.35-13-9.35-4.83-18.81-9.43-27.14-16.06-8.86-7-9.62-15.36-5-25s12.48-12.5,22.35-10.07c7.16,1.78,14.14,4.3,21.21,6.48C462,855.26,462.73,854.25,459.73,846.36Z" transform="translate(-197.1 -328.21)" fill="#3d7f48"/>
    </g>
    <g id="Group_12152" data-name="Group 12152" transform="translate(4)">
      <path id="Path_11242" data-name="Path 11242" d="M491.79,807.65c-.05-3-.24-11.25-1.39-23.48-1.44-15.37-2.17-23-4.37-27.61-1.94-4-4.65-7.67-21.47-20.9-14.05-11-15.65-11.23-25.55-19-22-17.25-23.34-23.56-33.58-26.31-13.6,12.48-32.1,13.09-39.68,13.34-6.86.23-31.94.13-51.26-17.39-1.34-1.22-2.51-2.39-3.52-3.47v.21a23.245,23.245,0,0,0-2.68.28,25.52,25.52,0,0,0-8.94,3.44c-12.62,7.42-25.13,8.77-38.44,13.67-10.5,3.86-33.79,12.43-47.53,33.38-8.65,13.19-11.5,28.2-15,46.82-1.61,8.37-2.38,15.37-2.87,20.3a251.126,251.126,0,0,0,39,28.71C307,872.9,374.71,863,457.28,850.89c9.58-1.41,26.94-4.43,32.79-16.48C492.19,830,492.06,822.58,491.79,807.65Z" fill="url(#linear-gradient-3)"/>
      <g id="Group_12146" data-name="Group 12146">
        <path id="Path_11244" data-name="Path 11244" d="M325.48,560.87c-2.86.74-4,5.76-5.69,23-2.76,28.71-1.83,38.83-3.05,50.89-3.38,33.47-20.61,55.76-18.83,56.66,1.26.64,6.79-12.2,20.66-28.17s18.56-14.84,24.41-25.41c10.48-19,5-39.86,3.77-44.79C342.49,576.63,331.4,559.34,325.48,560.87Z"/>
        <path id="Path_11245" data-name="Path 11245" d="M339.82,630.46C339,627,332.11,620,328.93,617c-11.49-11-21.16-23.43-27-38.56-8.12-21.2-8.41-41.62,6.06-60.36,4.57-5.91,4.64-10.49,1-17.22-9.37-17.11-6.31-29.42,8.76-41.64a68.18,68.18,0,0,1,38-15.15c15-1.27,28.74,6.07,32.75,20.06,3.16,11,9,12,18.38,11.26a112.55,112.55,0,0,1,48.07,6.87c25.78,9.39,48.39,23.32,51.45,53.34,3.1,30.39-16.47,49.06-39.54,64.56-7.61-3-5.31-10-5.73-15.38-.9-11.8-5.83-18.26-18.53-18s-25.59-.49-37.67-6.09c-8.65-4-11.76,1-11.88,9C392.63,596.74,339.82,630.46,339.82,630.46Z" fill="#0f0f0f"/>
        <path id="Path_11246" data-name="Path 11246" d="M346.71,575.52a7.28,7.28,0,0,1-.87,3.18c-4,7.7-3,19.74-15.56,18.85-10.35-.74-16.61-17.28-12.86-31.12,2.84-10.44,8.15-21.39,20.63-18C352.83,552.49,347,565.26,346.71,575.52Z" fill="url(#linear-gradient-4)"/>
        <path id="Path_11247" data-name="Path 11247" d="M325.4,693.29c-3.24-2-6.95-2.88-7.08-6.66-.77-23,17.07-38.26,23-61.18,9.23-35.51,19.84-60.53,31-101.67,1.06-3.92,4.29-6.6,7.52-4.14,24.2,18.41,49.7,20.91,76.61,18.26,12.9-1.27,19.22,5.21,18.13,18.39-.59,7.13-1.15,14.25-1.72,21.38a126,126,0,0,1-3.68,21.91l-4.17,16.09a89.173,89.173,0,0,1-5.85,16c-3.65,7.65-7.24,15.34-11.56,22.59-7.83,13.15-18.31,23.3-34.86,24.27h-.32c-13.61-.09-16.35,8.28-17.62,16.81a5.25,5.25,0,0,1-5,4.36h0c-12.21.21-22.29,8.61-36,6.33C346.87,704.86,337.36,700.54,325.4,693.29Z" fill="url(#linear-gradient-5)"/>
        <path id="Path_11248" data-name="Path 11248" d="M390.49,699.79c-2.15-8.1-8.94-10.9-15.56-13.92-16.7-7.65-23.89-22-27.69-39.23,19.27,16.55,39.32,30.44,65.41,31.88-14.15.57-16.67,9.63-18.42,21.73a.36.36,0,0,1-.44.3C392.72,700.28,391.55,700.07,390.49,699.79Z" fill="#b08874"/>
        <path id="Path_11249" data-name="Path 11249" d="M427.83,590.09c-3.41,18.72-3.43,27.32-2.61,31.62.14.77.6,2.92-.57,4.24-2,2.3-7.66.57-11.32-.85" fill="none" stroke="#b08874" stroke-linecap="round" stroke-linejoin="round" stroke-width="1"/>
        <path id="Path_11250" data-name="Path 11250" d="M364.55,707.4c7.26.17,24.51.56,38.48-9.64a4.61,4.61,0,0,0,1.76-2.92,1.563,1.563,0,0,1,0-.16c.91-2.57,1.62-4.13.87-5.11s-3-.78-4.82-.47c-6.55,1.08-9.82,1.63-12.68,2.39-10.38,2.76-12.85-2.29-20.5,1a21.332,21.332,0,0,0-5.79,3.79,4.25,4.25,0,0,1-3.22,1.12c-1.34-.1-2.68-.21-4-.35a4.33,4.33,0,0,1-3.43-2.33,21.25,21.25,0,0,0-4.36-5.79c-6.1-5.68-10.11-1.74-19-7.79-2.44-1.67-5.35-3.26-11.16-6.46-1.62-.89-3.54-1.92-4.71-1.16-1,.68-.88,2.39-.87,5.11,0,.9,0,2-.05,3.12a4.43,4.43,0,0,0,1.08,3.07c.66.73,1.38,1.51,2.16,2.3C332.65,705.75,357.68,707.24,364.55,707.4Z" fill="#fff"/>
      </g>
    </g>
    <g transform="matrix(1, 0, 0, 1, 188.1, 299.21)" filter="url(#Path_11277)">
      <path id="Path_11277-2" data-name="Path 11277" d="M286.07,812.33C278.31,802.42,270,792.9,263,782.48c-6.87-10.24-5.62-18.76,2-25.3,8.57-7.38,16.39-5.08,24.1,1.74,2.84,2.51,6,6.47,10.21,4.66,4.88-2.1,3.66-7.39,3.63-11.55-.09-10.54.91-20.9,4.24-30.94,2-6,4.59-11.86,12.11-12,7.2-.09,12.09,4.08,15.32,10.27,4.94,9.46,3.64,19.74,3.42,29.75-.21,9.06,2.37,10.42,9.41,4.79,5.53-4.41,11.82-6.19,17.73-1,6.35,5.59,4.83,12.33,1,18.66s-8.31,12.65-12.27,19.09c-1.67,2.72-3.56,5.86-1.37,9.07,2.35,3.43,5.8,1.83,8.92,1.25.71-.14,1.4-.34,2.1-.52,7.25-1.86,15.05-5.64,20.65,2.64,6.09,9,5.5,18.59-.38,27.45-6.78,10.21-17.33,16.13-27.51,22.28-6.5,3.93-13,7.8-18.21,13.44-3.27,3.57-6.11,8.07-2.57,12.58,3.39,4.32,8,1.81,11.8-.22,8.9-4.75,17.5-10.1,26.52-14.61,8.05-4,16.55-6.07,24.07,1.32,7.84,7.72,10.76,16.9,7.1,27.65-2.87,8.41-8.27,15.14-14.41,21.34-19.32,19.5-42.86,32.91-67,45.24-8.54,4.37-13.48,9.68-14.74,19.33-1.11,8.54-3.66,16.9-5.67,25.31-1.35,5.62-3.27,10.24-10.82,8.88s-6.31-6.52-5.81-11.54c.76-7.53,1.14-15.15,2.54-22.57,1.55-8.28-1.07-13.25-8.45-17.62-19.61-11.63-37.93-25.15-52.4-43-8.81-10.9-15.8-22.71-11.12-37.68,4.13-13.21,11.62-16.67,23.93-10.56,6.42,3.19,12.22,7.61,18.39,11.35,2.93,1.77,6.17,5.27,9.48,1.51,2.57-2.93,1.61-6.85-.18-10.21-3.46-6.46-8.59-11.54-13.83-16.52C247.88,849.54,240.68,843,235,835c-6-8.55-4.58-16.12,2-23.45s14.3-7.88,22.43-3.17c5.9,3.42,11.45,7.46,17.16,11.23C285.78,820.82,286.69,820.12,286.07,812.33Z" transform="translate(-197.1 -328.21)" fill="#63ad6d"/>
    </g>
  </g>
</svg>
