<svg xmlns="http://www.w3.org/2000/svg" xmlns:xlink="http://www.w3.org/1999/xlink" width="220" height="148" viewBox="0 0 220 148">
  <defs>
    <radialGradient id="radial-gradient" cx="0.5" cy="0.5" r="0.5" gradientUnits="objectBoundingBox">
      <stop offset="0" stop-color="#fff"/>
      <stop offset="1" stop-color="#c500ff"/>
    </radialGradient>
    <radialGradient id="radial-gradient-5" cx="0.5" cy="0.5" r="0.5" gradientUnits="objectBoundingBox">
      <stop offset="0" stop-color="#fff"/>
      <stop offset="1" stop-color="#006d00"/>
    </radialGradient>
    <radialGradient id="radial-gradient-7" cx="0.5" cy="0.5" r="0.5" gradientUnits="objectBoundingBox">
      <stop offset="0" stop-color="#fff"/>
      <stop offset="1" stop-color="#fc1111"/>
    </radialGradient>
    <radialGradient id="radial-gradient-13" cx="0.5" cy="0.5" r="0.5" gradientUnits="objectBoundingBox">
      <stop offset="0" stop-color="#fff"/>
      <stop offset="1" stop-color="#1130fc"/>
    </radialGradient>
  </defs>
  <g id="Balloon_Burst" data-name="Balloon Burst" transform="translate(-54 -20)">
    <g id="Shoot_the_balloon" data-name="Shoot the balloon" transform="translate(89.395 36.825)">
      <g id="Group_3271" data-name="Group 3271" transform="translate(5.769 64.473) rotate(11)">
        <g id="Group_2620" data-name="Group 2620" transform="translate(1.83 2.445)">
          <line id="Line_53" data-name="Line 53" y1="25.747" x2="30.881" transform="translate(0 0)" fill="none" stroke="#000" stroke-miterlimit="10" stroke-width="2"/>
        </g>
        <path id="Path_5993" data-name="Path 5993" d="M3.758,3.168,0,3.3,7.557,0,3.062,6.968Z" transform="translate(28.084 0)" fill-rule="evenodd"/>
        <path id="Path_5994" data-name="Path 5994" d="M7.651,0,1.307,5.29,0,3.722Z" transform="translate(0 22.887)" fill-rule="evenodd"/>
        <path id="Path_5995" data-name="Path 5995" d="M6.344,0,0,5.29,1.307,6.856Z" transform="translate(1.716 23.377)" fill-rule="evenodd"/>
      </g>
      <g id="balloon_bunch" data-name="balloon bunch" transform="translate(79.823)">
        <g id="Group_2618" data-name="Group 2618" transform="translate(0)">
          <g id="Group_2617" data-name="Group 2617">
            <g id="Group_2605" data-name="Group 2605" transform="translate(3.367 16.68)">
              <path id="Path_5969" data-name="Path 5969" d="M-4121.061,4861.043c.782,6.871-4.354,16.837-10.165,17.5s-13.051-7.9-13.832-14.771,4.774-13.145,10.585-13.8S-4121.842,4854.171-4121.061,4861.043Z" transform="translate(4145.132 -4849.905)" fill="url(#radial-gradient)"/>
              <path id="Path_5970" data-name="Path 5970" d="M-4108.316,4934.971l-.835,2.454a.467.467,0,0,0,.507.575l2.638-.3a.411.411,0,0,0,.313-.607l-1.366-2.264Z" transform="translate(4121.352 -4906.056)" fill="url(#radial-gradient)"/>
            </g>
            <g id="Group_2606" data-name="Group 2606" transform="translate(39.607 8.708)">
              <path id="Path_5971" data-name="Path 5971" d="M-4014.4,4842.014c-1.842,6.666-10.327,13.992-15.964,12.435s-9.156-12.2-7.315-18.867,9.338-10.411,14.974-8.853S-4012.558,4835.348-4014.4,4842.014Z" transform="translate(4038.172 -4826.377)" fill="url(#radial-gradient)"/>
              <path id="Path_5972" data-name="Path 5972" d="M-4020.807,4910.21l-1.692,1.964a.468.468,0,0,0,.256.723l2.558.707a.41.41,0,0,0,.517-.446l-.422-2.611Z" transform="translate(4027.867 -4881.806)" fill="url(#radial-gradient)"/>
            </g>
            <g id="Group_2607" data-name="Group 2607" transform="translate(4.473 37.675)">
              <path id="Path_5973" data-name="Path 5973" d="M-4120.228,4916.686c4.2,5.495,4.911,16.683.265,20.234s-15.256-.076-19.454-5.571-2.653-13.73,1.994-17.281S-4124.425,4911.19-4120.228,4916.686Z" transform="translate(4141.867 -4911.871)" fill="url(#radial-gradient-5)"/>
              <path id="Path_5974" data-name="Path 5974" d="M-4077.769,4986.653l.543,2.534a.468.468,0,0,0,.731.233l2.108-1.611a.41.41,0,0,0-.043-.681l-2.336-1.242Z" transform="translate(4099.487 -4960.809)" fill="url(#radial-gradient-5)"/>
            </g>
            <g id="Group_2608" data-name="Group 2608" transform="translate(44.191 27.822)">
              <path id="Path_5975" data-name="Path 5975" d="M-4001.671,4901.3c-3.6,5.9-13.774,10.615-18.767,7.568s-5.452-14.247-1.849-20.149,11.839-7.445,16.832-4.4S-3998.068,4895.393-4001.671,4901.3Z" transform="translate(4024.644 -4882.791)" fill="url(#radial-gradient-7)"/>
              <path id="Path_5976" data-name="Path 5976" d="M-4019.195,4960.084l-2.167,1.424a.467.467,0,0,0,.048.765l2.266,1.383a.41.41,0,0,0,.619-.287l.312-2.626Z" transform="translate(4022.59 -4933.896)" fill="url(#radial-gradient-7)"/>
            </g>
            <g id="Group_2609" data-name="Group 2609" transform="translate(17.867)">
              <path id="Path_5977" data-name="Path 5977" d="M-4077.7,4813.449c0,7.053-6.352,16.56-12.316,16.56s-12.317-9.507-12.317-16.56,6.352-12.772,12.317-12.772S-4077.7,4806.4-4077.7,4813.449Z" transform="translate(4102.336 -4800.677)" fill="url(#radial-gradient-7)"/>
              <path id="Path_5978" data-name="Path 5978" d="M-4070.148,4888.817l-1.129,2.391a.477.477,0,0,0,.448.641h2.708a.418.418,0,0,0,.386-.58l-1.124-2.453Z" transform="translate(4081.821 -4858.953)" fill="url(#radial-gradient-7)"/>
            </g>
            <g id="Group_2610" data-name="Group 2610" transform="translate(34.907 21.506)">
              <path id="Path_5979" data-name="Path 5979" d="M-4028.3,4879.928c-1.929,6.642-10.508,13.856-16.125,12.227s-9-12.32-7.069-18.961,9.472-10.289,15.088-8.658S-4026.375,4873.286-4028.3,4879.928Z" transform="translate(4052.042 -4864.148)" fill="url(#radial-gradient-5)"/>
              <path id="Path_5980" data-name="Path 5980" d="M-4035.787,4946.579l-1.717,1.941a.469.469,0,0,0,.247.728l2.549.739a.41.41,0,0,0,.523-.439l-.388-2.616Z" transform="translate(4042.49 -4918.65)" fill="url(#radial-gradient-5)"/>
            </g>
            <g id="Group_2611" data-name="Group 2611" transform="translate(17.27 22.84)">
              <path id="Path_5981" data-name="Path 5981" d="M-4079.946,4880.609c0,6.916-6.227,16.236-12.075,16.236s-12.076-9.32-12.076-16.236,6.228-12.522,12.076-12.522S-4079.946,4873.693-4079.946,4880.609Z" transform="translate(4104.097 -4868.087)" fill="url(#radial-gradient-13)"/>
              <path id="Path_5982" data-name="Path 5982" d="M-4072.538,4954.5l-1.107,2.344a.467.467,0,0,0,.438.628h2.655a.411.411,0,0,0,.379-.568l-1.1-2.4Z" transform="translate(4083.982 -4925.222)" fill="url(#radial-gradient-13)"/>
            </g>
            <g id="Group_2612" data-name="Group 2612" transform="translate(16.889 62.766)">
              <path id="Path_5983" data-name="Path 5983" d="M-4104.251,5003.065c2.761,6.34,12.193,12.4,17.555,10.063s7.35-13.367,4.587-19.708-10.709-8.993-16.072-6.658S-4107.013,4996.726-4104.251,5003.065Z" transform="translate(4105.223 -4985.925)" fill="url(#radial-gradient-13)"/>
              <path id="Path_5984" data-name="Path 5984" d="M-4050.263,5065.65l1.952,1.707a.468.468,0,0,1-.152.751l-2.434,1.061a.411.411,0,0,1-.574-.37l.05-2.645Z" transform="translate(4069.684 -5038.637)" fill="url(#radial-gradient-13)"/>
            </g>
            <g id="Group_2613" data-name="Group 2613" transform="translate(36.972 49.915)">
              <path id="Path_5985" data-name="Path 5985" d="M-4023.111,4966.92c-3.86,5.739-14.229,10-19.082,6.734s-4.818-14.473-.959-20.212,12.155-6.915,17.008-3.651S-4019.252,4961.181-4023.111,4966.92Z" transform="translate(4045.949 -4947.998)" fill="url(#radial-gradient-13)"/>
              <path id="Path_5986" data-name="Path 5986" d="M-4041.991,5023.956l-2.228,1.327a.467.467,0,0,0,.014.767l2.2,1.481a.41.41,0,0,0,.631-.26l.427-2.61Z" transform="translate(4044.932 -4998.22)" fill="url(#radial-gradient-13)"/>
            </g>
            <g id="Group_2614" data-name="Group 2614" transform="translate(0 57.149)">
              <path id="Path_5987" data-name="Path 5987" d="M-4132.976,4974.843c3.832,5.758,3.812,16.968-1.057,20.208s-15.217-1.07-19.048-6.826-1.754-13.874,3.114-17.115S-4136.808,4969.086-4132.976,4974.843Z" transform="translate(4155.068 -4969.347)" fill="url(#radial-gradient-7)"/>
              <path id="Path_5988" data-name="Path 5988" d="M-4093.687,5046.156l.376,2.565a.468.468,0,0,0,.714.279l2.21-1.472a.41.41,0,0,0,0-.682l-2.25-1.391Z" transform="translate(4114.484 -5019.668)" fill="url(#radial-gradient-7)"/>
            </g>
            <g id="Group_2615" data-name="Group 2615" transform="matrix(0.921, -0.391, 0.391, 0.921, 15.806, 48.987)">
              <path id="Path_5989" data-name="Path 5989" d="M23.7,17.985c-3.126,6.323-13.034,12.03-18.382,9.387S-1.5,13.389,1.622,7.066s11.355-8.633,16.7-5.99S26.83,11.661,23.7,17.985Z" fill="url(#radial-gradient-7)"/>
              <path id="Path_5990" data-name="Path 5990" d="M2.22,0,.149,1.643a.476.476,0,0,0,.118.773l2.426,1.2a.419.419,0,0,0,.6-.347l.079-2.7Z" transform="translate(1.906 27.562)" fill="url(#radial-gradient-7)"/>
            </g>
            <g id="Group_2616" data-name="Group 2616" transform="translate(40.127 64.697)">
              <path id="Path_5991" data-name="Path 5991" d="M-4013.833,5010.644c-3.918,5.7-14.332,9.851-19.151,6.536s-4.667-14.523-.749-20.222,12.227-6.788,17.045-3.474S-4009.914,5004.946-4013.833,5010.644Z" transform="translate(4036.638 -4991.625)" fill="url(#radial-gradient-5)"/>
              <path id="Path_5992" data-name="Path 5992" d="M-4033.015,5067.257l-2.241,1.3a.468.468,0,0,0,.006.768l2.187,1.5a.41.41,0,0,0,.634-.253l.455-2.6Z" transform="translate(4035.854 -5041.631)" fill="url(#radial-gradient-5)"/>
            </g>
          </g>
        </g>
        <g id="Group_2619" data-name="Group 2619" transform="translate(23.116 75.675)">
          <line id="Line_45" data-name="Line 45" y1="18.259" x2="2.117" transform="translate(11.776 17.291)" fill="none" stroke="#e4e4e4" stroke-miterlimit="10" stroke-width="1"/>
          <line id="Line_46" data-name="Line 46" x1="6.88" y2="17.994" transform="translate(11.776 17.556)" fill="none" stroke="#e4e4e4" stroke-miterlimit="10" stroke-width="1"/>
          <line id="Line_47" data-name="Line 47" x2="11.644" y2="25.139" transform="translate(0 10.278)" fill="none" stroke="#e4e4e4" stroke-miterlimit="10" stroke-width="1"/>
          <line id="Line_48" data-name="Line 48" x2="4.139" y2="35.418" transform="translate(7.505)" fill="none" stroke="#e4e4e4" stroke-miterlimit="10" stroke-width="1"/>
          <line id="Line_49" data-name="Line 49" x1="3.969" y2="32.549" transform="translate(11.644 2.869)" fill="none" stroke="#e4e4e4" stroke-miterlimit="10" stroke-width="1"/>
          <line id="Line_50" data-name="Line 50" x2="1.323" y2="20.641" transform="translate(10.32 14.777)" fill="none" stroke="#e4e4e4" stroke-miterlimit="10" stroke-width="1"/>
          <line id="Line_51" data-name="Line 51" x1="5.557" y2="27.256" transform="translate(11.644 8.161)" fill="none" stroke="#e4e4e4" stroke-miterlimit="10" stroke-width="1"/>
          <line id="Line_52" data-name="Line 52" x2="7.939" y2="22.228" transform="translate(3.705 13.189)" fill="none" stroke="#e4e4e4" stroke-miterlimit="10" stroke-width="1"/>
        </g>
      </g>
    </g>
    <rect id="Rectangle_4066" data-name="Rectangle 4066" width="220" height="148" transform="translate(54 20)" fill="none"/>
  </g>
</svg>
