<svg xmlns="http://www.w3.org/2000/svg" xmlns:xlink="http://www.w3.org/1999/xlink" width="220" height="148" viewBox="0 0 220 148">
  <defs>
    <clipPath id="clip-path">
      <rect id="Rectangle_2793" data-name="Rectangle 2793" width="151" height="122" fill="#fff" stroke="#707070" stroke-width="1"/>
    </clipPath>
  </defs>
  <g id="Imagery" transform="translate(-54 -20)">
    <g id="imagery-2" data-name="imagery" transform="translate(88.387 20.827)">
      <g id="Group_11423" data-name="Group 11423" transform="translate(8.922 4.173)">
        <g id="Mask_Group_9597" data-name="Mask Group 9597" transform="translate(0 0)" clip-path="url(#clip-path)">
          <g id="Ellipse_4017" data-name="Ellipse 4017" transform="matrix(1, 0.017, -0.017, 1, 9.484, 5.078)" fill="none" stroke="rgba(174,71,71,0.61)" stroke-width="1" stroke-dasharray="4 6">
            <ellipse cx="67.607" cy="67.607" rx="67.607" ry="67.607" stroke="none"/>
            <ellipse cx="67.607" cy="67.607" rx="67.107" ry="67.107" fill="none"/>
          </g>
        </g>
        <g id="Group_9650" data-name="Group 9650" transform="translate(45.913 42.856)">
          <path id="Path_7526" data-name="Path 7526" d="M165.21,52.175A7.508,7.508,0,0,0,163.031,47a8.477,8.477,0,0,0,2.091-5.6,7.686,7.686,0,0,0-3.9-6.538,7.385,7.385,0,0,0,1.066-3.825,8.384,8.384,0,0,0-5.793-7.731,6.173,6.173,0,0,0-1.819-6.278,7.014,7.014,0,0,0-3.942-1.813,8.792,8.792,0,0,0-2.341-3.409c-1.466-1.325-3.083,3.628-5.183,3.644-1.012.007-2.286-5.609-3.179-5.257a8.361,8.361,0,0,0-5.293,7.677,8.216,8.216,0,0,0-2.732-5.945,8.784,8.784,0,0,0-2.373,3.525,7,7,0,0,0-3.912,1.87,6.271,6.271,0,0,0-1.716,6.3,8.366,8.366,0,0,0-5.666,7.815,7.4,7.4,0,0,0,1.129,3.809,7.67,7.67,0,0,0-3.788,6.594,8.49,8.49,0,0,0,2.182,5.565,7.5,7.5,0,0,0-2.094,5.207,7.594,7.594,0,0,0,3.044,5.941,7.359,7.359,0,0,0-.236,1.827,7.944,7.944,0,0,0,9.208,8.023,9.322,9.322,0,0,0,3.117,3.53,9.567,9.567,0,0,0,4.216-7.86c.03,3.646,4.8,2.527,8.095,4.062,1.237.577.635,2.247,2.085,2.236,2.048-.015,3.436,2.467,4.98,1.42a9.31,9.31,0,0,0,3.174-3.656,7.931,7.931,0,0,0,9.076-8.157,7.369,7.369,0,0,0-.266-1.823A7.58,7.58,0,0,0,165.21,52.175Z" transform="translate(-112.61 -7.826)" fill="#ffd4d4"/>
          <path id="Path_7527" data-name="Path 7527" d="M165.21,52.085a7.508,7.508,0,0,0-2.179-5.176,8.477,8.477,0,0,0,2.091-5.6,7.686,7.686,0,0,0-3.9-6.538,7.385,7.385,0,0,0,1.066-3.825,8.384,8.384,0,0,0-5.793-7.731,6.173,6.173,0,0,0-1.819-6.278,7.014,7.014,0,0,0-3.942-1.813,8.792,8.792,0,0,0-2.341-3.409,8.128,8.128,0,0,0-5.49-2.173,7.96,7.96,0,0,0-2.872.56,8.361,8.361,0,0,0-5.293,7.677c-.019-2.279-.262-5.493-1.924-7.008-1.078.979-3.586-2.544-4.053-1.229-2.285.565-5.236,3.411-6.264,4.4-2.922,2.81,1.507,9.581,1.507,9.594a8.366,8.366,0,0,0-5.666,7.815,7.4,7.4,0,0,0,1.129,3.809,7.67,7.67,0,0,0-3.788,6.594,8.49,8.49,0,0,0,2.182,5.565,7.5,7.5,0,0,0-2.094,5.207,7.594,7.594,0,0,0,3.044,5.941,7.359,7.359,0,0,0-.236,1.827,7.944,7.944,0,0,0,9.208,8.023,9.322,9.322,0,0,0,3.117,3.53,9.567,9.567,0,0,0,4.216-7.86c.03,3.646,2.587,6.184,5.877,7.719,1.237.577,2.356,1.7,3.805,1.686a9.856,9.856,0,0,0,5.478-1.686,9.31,9.31,0,0,0,3.174-3.656,7.931,7.931,0,0,0,9.076-8.157,7.369,7.369,0,0,0-.266-1.823A7.58,7.58,0,0,0,165.21,52.085Z" transform="translate(-106.917 -7.736)" fill="#ffd4d4"/>
          <g id="brain_1_" data-name="brain (1)" transform="translate(0 0)">
            <g id="Path_7517" data-name="Path 7517" transform="translate(-260.955 -72.227)">
              <path d="M 297.2980041503906 85.09593200683594 C 296.8580017089844 85.09593200683594 296.5000305175781 84.73796844482422 296.5000305175781 84.29796600341797 C 296.5000305175781 83.85797119140625 296.8580017089844 83.5 297.2980041503906 83.5 C 297.7379455566406 83.5 298.0958862304688 83.85797119140625 298.0958862304688 84.29796600341797 C 298.0958862304688 84.73796844482422 297.7379455566406 85.09593200683594 297.2980041503906 85.09593200683594 Z" stroke="none"/>
              <path d="M 297.2980041503906 84.59593200683594 C 297.4622497558594 84.59593200683594 297.5958862304688 84.46226501464844 297.5958862304688 84.29796600341797 C 297.5958862304688 84.1336669921875 297.4622497558594 84 297.2980041503906 84 C 297.1336975097656 84 297.0000305175781 84.1336669921875 297.0000305175781 84.29796600341797 C 297.0000305175781 84.46226501464844 297.1336975097656 84.59593200683594 297.2980041503906 84.59593200683594 M 297.2980041503906 85.59593200683594 C 296.5814819335938 85.59593200683594 296.0000305175781 85.01443481445313 296.0000305175781 84.29796600341797 C 296.0000305175781 83.58149719238281 296.5814819335938 83 297.2980041503906 83 C 298.0144348144531 83 298.5958862304688 83.58149719238281 298.5958862304688 84.29796600341797 C 298.5958862304688 85.01443481445313 298.0144348144531 85.59593200683594 297.2980041503906 85.59593200683594 Z" stroke="none" fill="#f7f7f7"/>
            </g>
            <g id="Path_7518" data-name="Path 7518" transform="translate(-173.935 -72.227)">
              <path d="M 197.2979583740234 85.09593200683594 C 196.8579406738281 85.09593200683594 196.4999542236328 84.73796844482422 196.4999542236328 84.29796600341797 C 196.4999542236328 83.85797119140625 196.8579406738281 83.5 197.2979583740234 83.5 C 197.7379455566406 83.5 198.0959167480469 83.85797119140625 198.0959167480469 84.29796600341797 C 198.0959167480469 84.73796844482422 197.7379455566406 85.09593200683594 197.2979583740234 85.09593200683594 Z" stroke="none"/>
              <path d="M 197.2979583740234 84.59593200683594 C 197.4622497558594 84.59593200683594 197.5959167480469 84.46226501464844 197.5959167480469 84.29796600341797 C 197.5959167480469 84.1336669921875 197.4622497558594 84 197.2979583740234 84 C 197.1336364746094 84 196.9999542236328 84.1336669921875 196.9999542236328 84.29796600341797 C 196.9999542236328 84.46226501464844 197.1336364746094 84.59593200683594 197.2979583740234 84.59593200683594 M 197.2979583740234 85.59593200683594 C 196.5814666748047 85.59593200683594 195.9999542236328 85.01443481445313 195.9999542236328 84.29796600341797 C 195.9999542236328 83.58149719238281 196.5814666748047 83 197.2979583740234 83 C 198.0144500732422 83 198.5959167480469 83.58149719238281 198.5959167480469 84.29796600341797 C 198.5959167480469 85.01443481445313 198.0144500732422 85.59593200683594 197.2979583740234 85.59593200683594 Z" stroke="none" fill="#f7f7f7"/>
            </g>
            <path id="Path_7519" data-name="Path 7519" d="M26,44a9.019,9.019,0,0,0,2.713,6.427c-.891,5.385,3.4,10.836,8.969,10.836l.119,0a10.233,10.233,0,0,0,18.053-.452,10.233,10.233,0,0,0,18.053.452l.119,0a9.411,9.411,0,0,0,9.086-9.475,8.309,8.309,0,0,0-.117-1.361,8.96,8.96,0,0,0,1.041-11.634,10.38,10.38,0,0,0,1.671-5.566,9.015,9.015,0,0,0-3.288-6.974,8.775,8.775,0,0,0,.692-3.41,9.675,9.675,0,0,0-5.247-8.556A7.779,7.779,0,0,0,71.955,5.8,9.351,9.351,0,0,0,63.641,0a9.122,9.122,0,0,0-7.788,4.675A9.122,9.122,0,0,0,48.065,0a9.35,9.35,0,0,0-8.314,5.8,7.778,7.778,0,0,0-5.908,8.489A9.675,9.675,0,0,0,28.6,22.844a8.774,8.774,0,0,0,.692,3.41A9.015,9.015,0,0,0,26,33.228a10.379,10.379,0,0,0,1.671,5.566A9,9,0,0,0,26,44ZM63.641,2.6a6.557,6.557,0,0,1,5.288,3.078,7.736,7.736,0,0,0-4.3,2.187A1.3,1.3,0,1,0,66.458,9.7a5.193,5.193,0,0,1,8.864,3.671c0,.034,0,.068,0,.1a8.417,8.417,0,0,0-1.295-.1,9.411,9.411,0,0,0-9.086,9.475,1.3,1.3,0,0,0,2.6,0,6.868,6.868,0,0,1,6.49-6.879c3.632,0,6.49,3.374,6.49,6.879a6.387,6.387,0,0,1-.869,3.177,1.3,1.3,0,0,0,.435,1.737,6.454,6.454,0,0,1,3.031,5.47,6.821,6.821,0,0,1-6.49,6.879,1.3,1.3,0,1,0,0,2.6,8.76,8.76,0,0,0,5.537-2.042A6.387,6.387,0,0,1,83.11,44a6.462,6.462,0,0,1-2.366,4.965,1.3,1.3,0,0,0-.432,1.3,6.4,6.4,0,0,1,.2,1.521c0,4.029-3.644,7.285-6.929,6.836-.091-.012-.183-.025-.274-.035a1.3,1.3,0,0,0-1.324.743,7.81,7.81,0,0,1-7.048,4.527,8.1,8.1,0,0,1-7.788-8.177,7.8,7.8,0,0,1,7.788-7.788,1.3,1.3,0,1,0,0-2.6,10.36,10.36,0,0,0-7.788,3.526V24.142a2.6,2.6,0,0,1,2.6-2.6,1.3,1.3,0,0,0,0-2.6,5.158,5.158,0,0,0-2.6.7V9.475A6.868,6.868,0,0,1,63.641,2.6ZM31.627,27.758a1.3,1.3,0,0,0,.434-1.737,6.387,6.387,0,0,1-.869-3.177c0-3.5,2.856-6.879,6.49-6.879a6.868,6.868,0,0,1,6.49,6.879,1.3,1.3,0,0,0,2.6,0,9.411,9.411,0,0,0-9.086-9.475,8.416,8.416,0,0,0-1.295.1c0-.034,0-.067,0-.1A5.193,5.193,0,0,1,45.248,9.7a1.3,1.3,0,0,0,1.835-1.836,7.735,7.735,0,0,0-4.3-2.187A6.557,6.557,0,0,1,48.065,2.6a6.868,6.868,0,0,1,6.49,6.879V19.649a5.158,5.158,0,0,0-2.6-.7,1.3,1.3,0,0,0,0,2.6,2.6,2.6,0,0,1,2.6,2.6V48.825A10.36,10.36,0,0,0,46.767,45.3a1.3,1.3,0,1,0,0,2.6,7.8,7.8,0,0,1,7.788,7.788,8.1,8.1,0,0,1-7.788,8.177,7.81,7.81,0,0,1-7.048-4.527,1.3,1.3,0,0,0-1.324-.743c-.092.011-.183.023-.274.035-3.694.505-7.854-3.678-6.728-8.357a1.3,1.3,0,0,0-.432-1.3A6.462,6.462,0,0,1,28.6,44a6.387,6.387,0,0,1,.952-3.34A8.758,8.758,0,0,0,35.086,42.7a1.3,1.3,0,1,0,0-2.6,6.823,6.823,0,0,1-6.49-6.879A6.454,6.454,0,0,1,31.627,27.758Z" transform="translate(-26)" fill="#ae4747" stroke="#f7f7f7" stroke-width="1"/>
            <path id="Path_7520" data-name="Path 7520" d="M113.606,176.261a3.9,3.9,0,0,1-3.712,2.718,1.3,1.3,0,1,0,0,2.6,6.5,6.5,0,0,0,6.373-5.27,9.07,9.07,0,0,0,4.876-2.236,1.3,1.3,0,0,0-1.731-1.935A6.5,6.5,0,0,1,108.6,167.3a1.3,1.3,0,1,0-2.6,0A9.1,9.1,0,0,0,113.606,176.261Z" transform="translate(-95.616 -144.454)" fill="#ae4747" stroke="#f7f7f7" stroke-width="1"/>
            <path id="Path_7521" data-name="Path 7521" d="M107.3,389a1.3,1.3,0,0,0,0,2.6,6.868,6.868,0,0,1,6.49,6.879,1.3,1.3,0,0,0,2.6,0A9.411,9.411,0,0,0,107.3,389Z" transform="translate(-95.616 -338.509)" fill="#ae4747" stroke="#f7f7f7" stroke-width="1"/>
            <path id="Path_7522" data-name="Path 7522" d="M126.73,309a11.657,11.657,0,0,0-10.163,5.92,1.3,1.3,0,0,0,2.258,1.28,9.066,9.066,0,0,1,7.9-4.6,1.3,1.3,0,1,0,0-2.6Z" transform="translate(-104.665 -268.893)" fill="#ae4747" stroke="#f7f7f7" stroke-width="1"/>
            <path id="Path_7523" data-name="Path 7523" d="M286.33,172.237a1.3,1.3,0,0,0,.1,1.833,9.071,9.071,0,0,0,4.876,2.236,6.5,6.5,0,0,0,6.373,5.27,1.3,1.3,0,1,0,0-2.6,3.9,3.9,0,0,1-3.712-2.718,9.1,9.1,0,0,0,7.606-8.963,1.3,1.3,0,1,0-2.6,0,6.49,6.49,0,0,1-10.816,4.837A1.3,1.3,0,0,0,286.33,172.237Z" transform="translate(-252.253 -144.454)" fill="#ae4747" stroke="#f7f7f7" stroke-width="1"/>
            <path id="Path_7524" data-name="Path 7524" d="M335.086,389A9.411,9.411,0,0,0,326,398.475a1.3,1.3,0,0,0,2.6,0,6.868,6.868,0,0,1,6.49-6.879,1.3,1.3,0,0,0,0-2.6Z" transform="translate(-287.061 -338.509)" fill="#ae4747" stroke="#f7f7f7" stroke-width="1"/>
            <path id="Path_7525" data-name="Path 7525" d="M315.2,316.2a1.3,1.3,0,0,0,2.259-1.28A11.656,11.656,0,0,0,307.3,309a1.3,1.3,0,0,0,0,2.6A9.067,9.067,0,0,1,315.2,316.2Z" transform="translate(-269.657 -268.893)" fill="#ae4747" stroke="#f7f7f7" stroke-width="1"/>
          </g>
        </g>
      </g>
      <path id="Path_11053" data-name="Path 11053" d="M30.366,26.351c-.248.04-1.53,2.966-8.376,3.587s-15.4.454-15.5-3.721a1.006,1.006,0,0,0-.766-.668A7.039,7.039,0,0,1,0,18.642a6.963,6.963,0,0,1,3.532-6.067,1.176,1.176,0,0,0,.491-.974c0-4.437.439-7.578,4.877-7.578a8.1,8.1,0,0,1,1.261.131,1,1,0,0,0,.941-.366A10.045,10.045,0,0,1,28.7,7.594c.134.532-.012.824.208.8a9.035,9.035,0,0,1,1.456,17.956Z" transform="matrix(0.995, 0.105, -0.105, 0.995, 3.157, 54.88)" fill="#ffd5d5"/>
      <path id="Path_11054" data-name="Path 11054" d="M30.366,26.351c-.248.04-1.53,2.966-8.376,3.587s-15.4.454-15.5-3.721a1.006,1.006,0,0,0-.766-.668A7.039,7.039,0,0,1,0,18.642a6.963,6.963,0,0,1,3.532-6.067,1.176,1.176,0,0,0,.491-.974c0-4.437.439-7.578,4.877-7.578a8.1,8.1,0,0,1,1.261.131,1,1,0,0,0,.941-.366A10.045,10.045,0,0,1,28.7,7.594c.134.532-.012.824.208.8a9.035,9.035,0,0,1,1.456,17.956Z" transform="matrix(0.995, 0.105, -0.105, 0.995, 33.436, 0)" fill="#ffd5d5"/>
      <path id="Path_11055" data-name="Path 11055" d="M30.366,26.351c-.248.04-1.53,2.966-8.376,3.587s-15.4.454-15.5-3.721a1.006,1.006,0,0,0-.766-.668A7.039,7.039,0,0,1,0,18.642a6.963,6.963,0,0,1,3.532-6.067,1.176,1.176,0,0,0,.491-.974c0-4.437.439-7.578,4.877-7.578a8.1,8.1,0,0,1,1.261.131,1,1,0,0,0,.941-.366A10.045,10.045,0,0,1,28.7,7.594c.134.532-.012.824.208.8a9.035,9.035,0,0,1,1.456,17.956Z" transform="matrix(0.995, 0.105, -0.105, 0.995, 119.54, 22.709)" fill="#ffd5d5"/>
      <path id="Path_11056" data-name="Path 11056" d="M30.366,26.351c-.248.04-1.53,2.966-8.376,3.587s-15.4.454-15.5-3.721a1.006,1.006,0,0,0-.766-.668A7.039,7.039,0,0,1,0,18.642a6.963,6.963,0,0,1,3.532-6.067,1.176,1.176,0,0,0,.491-.974c0-4.437.439-7.578,4.877-7.578a8.1,8.1,0,0,1,1.261.131,1,1,0,0,0,.941-.366A10.045,10.045,0,0,1,28.7,7.594c.134.532-.012.824.208.8a9.035,9.035,0,0,1,1.456,17.956Z" transform="matrix(0.995, 0.105, -0.105, 0.995, 126.163, 85.158)" fill="#ffd5d5"/>
      <text id="_" data-name="?" transform="translate(18.922 79.173)" fill="#ae4747" font-size="21" font-family="GoogleSans-Regular, Google Sans"><tspan x="-5.292" y="0">?</tspan></text>
      <text id="_2" data-name="?" transform="translate(48.922 24.173)" fill="#ae4747" font-size="21" font-family="GoogleSans-Regular, Google Sans"><tspan x="-5.292" y="0">?</tspan></text>
      <text id="_3" data-name="?" transform="translate(134.922 47.173)" fill="#ae4747" font-size="21" font-family="GoogleSans-Regular, Google Sans"><tspan x="-5.292" y="0">?</tspan></text>
      <text id="_4" data-name="?" transform="translate(141.922 109.173)" fill="#ae4747" font-size="21" font-family="GoogleSans-Regular, Google Sans"><tspan x="-5.292" y="0">?</tspan></text>
    </g>
    <rect id="Rectangle_4068" data-name="Rectangle 4068" width="220" height="148" transform="translate(54 20)" fill="none"/>
  </g>
</svg>
