<svg xmlns="http://www.w3.org/2000/svg" width="220" height="148" viewBox="0 0 220 148">
  <g id="Solve_It" data-name="Solve It" transform="translate(-54 -20)">
    <g id="Solve_It-2" data-name="Solve It" transform="translate(104.592 35.697)">
      <path id="Path_6747" data-name="Path 6747" d="M737.738,449.278l-.017,0-2.438-12.691-12.166,2.338a8.3,8.3,0,0,0-16.286,3.129L695.147,444.3l2.617,13.622a8.3,8.3,0,0,0,3.131,16.3l1.963,10.218,11.681-2.244c-.015-.068-.032-.136-.045-.205a8.3,8.3,0,1,1,16.3-3.132c.013.069.023.138.034.207l12.163-2.337-2.141-11.143.017,0a8.3,8.3,0,1,0-3.132-16.3Z" transform="translate(-691.148 -423.236)" fill="#ff9a9e"/>
      <path id="Path_6748" data-name="Path 6748" d="M1056.715,412.9l-.016-.008,6.427-12.29-9.667-5.055a8.3,8.3,0,0,0-14.711-7.693l-11.839-6.191-5.989,11.452.015.008a8.3,8.3,0,1,1-7.693,14.71l-.015-.008-5.259,10.055,11.192,5.853a8.3,8.3,0,0,0,14.7,7.688l10.324,5.4,4.82-9.218.015.009a8.3,8.3,0,0,0,7.693-14.71Z" transform="translate(-950.231 -381.665)" fill="#95b0ff"/>
      <path id="Path_6749" data-name="Path 6749" d="M810.16,717.005a8.416,8.416,0,0,1,.921-.123l-2.429-12.64L796.49,706.58c-.012-.069-.021-.138-.034-.207a8.3,8.3,0,0,0-16.3,3.132c.013.069.03.137.045.205l-11.682,2.245,2.421,12.6c-.132.019-.265.041-.4.066a8.3,8.3,0,0,0,3.132,16.3q.2-.039.394-.086l2.163,11.256,11.676-2.243a8.3,8.3,0,1,1,16.3-3.132l12.157-2.336-2.171-11.3a8.3,8.3,0,1,1-4.034-16.075Z" transform="translate(-750.563 -641.688)" fill="#75c8ff"/>
      <path id="Path_6750" data-name="Path 6750" d="M1074.895,680.3l-2.419-12.593-11.441,2.2a8.3,8.3,0,0,1-16.291,3.13l-12.4,2.383,2.424,12.618c-.231.024-.462.058-.694.1a8.3,8.3,0,1,0,3.132,16.3c.232-.044.459-.1.682-.162l2.167,11.276,13.188-2.534a8.3,8.3,0,0,0,16.168-3.106l10.781-2.071-2.162-11.251a8.3,8.3,0,0,0-3.13-16.292Z" transform="translate(-966.067 -615.574)" fill="#ffbb75"/>
    </g>
    <rect id="Rectangle_4067" data-name="Rectangle 4067" width="220" height="148" transform="translate(54 20)" fill="none"/>
  </g>
</svg>
