<svg xmlns="http://www.w3.org/2000/svg" width="24" height="24" viewBox="0 0 24 24"><path d="M12,16a4,4,0,1,1,4-4A4,4,0,0,1,12,16Zm0-6a2,2,0,1,0,2,2A2,2,0,0,0,12,10Z" fill="#656565"/><path d="M12.073,23.095a2.84,2.84,0,0,1-2.836-2.836.532.532,0,0,0-.337-.53.542.542,0,0,0-.627.078,2.861,2.861,0,0,1-2.052.877h0a2.839,2.839,0,0,1-2.007-4.846A.566.566,0,0,0,4.4,15.42a.527.527,0,0,0-.522-.518H3.739a2.836,2.836,0,0,1,0-5.672A.536.536,0,0,0,4.267,8.9a.543.543,0,0,0-.08-.623A2.859,2.859,0,0,1,3.31,6.22,2.838,2.838,0,0,1,8.155,4.212a.537.537,0,0,0,.614.149A.915.915,0,0,1,8.952,4.3a.513.513,0,0,0,.213-.415V3.739a2.836,2.836,0,1,1,5.672,0A.576.576,0,0,0,15,4.181a.541.541,0,0,0,.374.15.517.517,0,0,0,.359-.148,2.88,2.88,0,0,1,4.057-.042,2.841,2.841,0,0,1,0,4.014.541.541,0,0,0-.147.615.967.967,0,0,1,.059.182.517.517,0,0,0,.416.213h.152a2.836,2.836,0,0,1,0,5.672.552.552,0,0,0-.555.311l-.005.01a.512.512,0,0,0,.1.569,2.839,2.839,0,1,1-3.969,4.059.552.552,0,0,0-.416-.186.526.526,0,0,0-.515.518v.141A2.84,2.84,0,0,1,12.073,23.095ZM8.645,17.661a2.47,2.47,0,0,1,1.006.215,2.474,2.474,0,0,1,1.585,2.276c0,.008,0,.1,0,.107a.836.836,0,0,0,1.672,0V20.1a2.526,2.526,0,0,1,2.472-2.5,2.46,2.46,0,0,1,1.8.7.866.866,0,0,0,1.255.068.837.837,0,0,0,0-1.185,2.528,2.528,0,0,1,1.744-4.349A.859.859,0,0,0,21.1,12a.837.837,0,0,0-.836-.836H20.11a2.516,2.516,0,0,1-2.305-1.523,1.043,1.043,0,0,1-.072-.255A2.5,2.5,0,0,1,18.309,6.8a.841.841,0,1,0-1.123-1.249,2.527,2.527,0,0,1-3.587.056,2.51,2.51,0,0,1-.762-1.779A.862.862,0,0,0,12,2.9a.837.837,0,0,0-.836.836v.15a2.514,2.514,0,0,1-1.524,2.3,1.014,1.014,0,0,1-.253.071A2.5,2.5,0,0,1,6.8,5.691a.864.864,0,0,0-1.25-.064.84.84,0,0,0,0,1.186,2.536,2.536,0,0,1,.563,2.838,2.481,2.481,0,0,1-2.271,1.578H3.739a.836.836,0,0,0,0,1.672h.153a2.528,2.528,0,0,1,1.8,4.284.841.841,0,1,0,1.119,1.252A2.619,2.619,0,0,1,8.645,17.661Z" fill="#656565"/><rect width="24" height="24" fill="none"/></svg>