<svg xmlns="http://www.w3.org/2000/svg" width="60" height="60" viewBox="0 0 60 60">
  <g id="Form" transform="translate(0.182 0.335)">
    <path id="Subtraction_30" data-name="Subtraction 30" d="M32.334,47H4.62A4.666,4.666,0,0,1,0,42.3V4.7A4.666,4.666,0,0,1,4.62,0H20.293l.282,11.606A5.031,5.031,0,0,0,25.6,16.631H36.953V42.3A4.666,4.666,0,0,1,32.334,47ZM7.985,34.647a1.659,1.659,0,1,0,1.658,1.66A1.662,1.662,0,0,0,7.985,34.647Zm6.714.486a1.175,1.175,0,0,0,0,2.35H28.8a1.175,1.175,0,1,0,0-2.35ZM7.985,29.911a1.659,1.659,0,1,0,1.658,1.66A1.662,1.662,0,0,0,7.985,29.911Zm6.714.522a1.176,1.176,0,0,0,0,2.351H28.8a1.176,1.176,0,0,0,0-2.351ZM7.985,25.168a1.659,1.659,0,1,0,1.658,1.658A1.661,1.661,0,0,0,7.985,25.168Zm6.714.563a1.176,1.176,0,0,0,0,2.351H28.8a1.176,1.176,0,0,0,0-2.351ZM36.953,14.118H25.6a2.515,2.515,0,0,1-2.512-2.512L22.806,0H23.1L36.953,14.1v.017Z" transform="translate(10.648 5.18)" fill="#21201f" stroke="rgba(0,0,0,0)" stroke-miterlimit="10" stroke-width="1"/>
    <rect id="Rectangle_3341" data-name="Rectangle 3341" width="60" height="60" transform="translate(-0.182 -0.335)" fill="none"/>
  </g>
</svg>
