<svg xmlns="http://www.w3.org/2000/svg" width="60" height="60" viewBox="0 0 60 60">
  <g id="Game" transform="translate(-0.138 -0.026)">
    <path id="Subtraction_28" data-name="Subtraction 28" d="M42.868,32.826c-3.227,0-6.122-1.665-9.188-3.432-2.739-1.579-5.563-3.21-8.681-3.544-3.112.334-5.944,1.968-8.688,3.547-3.056,1.765-5.942,3.43-9.179,3.43A7.1,7.1,0,0,1,0,25.79V18.75C0,13,1.448,8.183,4.184,4.826A12.8,12.8,0,0,1,14.271,0H35.73A12.788,12.788,0,0,1,45.773,4.78c2.734,3.325,4.194,8.092,4.218,13.792V25.79A7.088,7.088,0,0,1,42.868,32.826ZM39.714,15.311a3.289,3.289,0,1,0,3.41,3.291A3.342,3.342,0,0,0,39.714,15.311ZM6.808,13.116v4.392h4.548v4.377h4.536V17.508h4.54V13.119h-4.54V8.751H11.356v4.367H6.808Zm26.11-4.365a3.348,3.348,0,0,0-3.413,3.274,3.413,3.413,0,0,0,6.82,0A3.345,3.345,0,0,0,32.918,8.751Zm6.8,10.943A1.1,1.1,0,1,1,40.852,18.6,1.11,1.11,0,0,1,39.714,19.695Zm-6.8-6.576a1.09,1.09,0,1,1,1.138-1.094A1.121,1.121,0,0,1,32.918,13.119Z" transform="translate(6.004 14.349)" fill="#21211f" stroke="rgba(0,0,0,0)" stroke-miterlimit="10" stroke-width="1"/>
    <rect id="Rectangle_3348" data-name="Rectangle 3348" width="60" height="60" transform="translate(0.138 0.026)" fill="none"/>
  </g>
</svg>
